<svg xmlns="http://www.w3.org/2000/svg" viewBox="0 -64 1024 1000" style="transform: scaleY(-1);">
<path fill="currentColor" d="M391.998 568.007c29.992 0 60.009-29.992 119.994-29.992s90.002 29.992 119.994 29.992c90.002 0 29.992-60.009 0-90.002 0-299.997 240.013-450.008 240.013-509.992h-719.987c0 60.009 240.013 209.995 240.013 509.992-30.017 29.992-90.027 90.002-0.025 90.002zM542.009 597.999c0-16.565-13.427-29.992-29.992-29.992s-29.992 13.427-29.992 29.992 13.427 29.992 29.992 29.992c16.54 0.025 29.992-13.427 29.992-29.992zM572.001 868.003c0-33.129-26.855-60.009-60.009-60.009-33.129 0-60.009 26.855-60.009 60.009 0 33.129 26.855 60.009 60.009 60.009 33.155-0.025 60.009-26.88 60.009-60.009zM481.999 717.992c0-33.129-26.855-60.009-60.009-60.009s-60.009 26.855-60.009 60.009c0 33.129 26.855 60.009 60.009 60.009s60.009-26.855 60.009-60.009zM601.993 688c0-16.565-13.427-29.992-29.992-29.992s-29.992 13.427-29.992 29.992 13.427 29.992 29.992 29.992 29.992-13.427 29.992-29.992z"/>
</svg>