<svg xmlns="http://www.w3.org/2000/svg" viewBox="0 -64 1024 1000" style="transform: scaleY(-1);">
<path fill="currentColor" d="M731.604 806.754c0.015-0.010 0.032-0.020 0.047-0.030 54.711 24.345 118.046 40.713 227.398 14.508-51.275 157.925-189.5 108.798-276.719 14.795 0.040-0.022 0.080-0.045 0.12-0.067-204.274 111.591-346.022 63.109-463.17-63.809 26.262-3.795 51.957-8.57 77.126-14.256-43.502-22.536-82.541-59.566-114.172-114.29v-0.007c-84.476-146.153-123.47-396.036-48.968-530.594l128.531-92.68c175.498-37.888 424.987 98.735 520.449 263.906 32.586 56.385 46.417 110.62 45.23 161.393 16.372-16.868 32.459-34.23 48.267-52.072 63.747 160.566 41.082 293.818-144.138 413.202zM813.124 460.203c-9.137 9.154-18.365 18.151-27.686 26.99 9.321-8.837 18.549-17.834 27.686-26.99zM697.827 827.349c3.1-1.787 6.154-3.58 9.174-5.374-3.024 1.794-6.074 3.587-9.174 5.374-2.718 1.567-5.417 3.089-8.113 4.6 2.693-1.503 5.396-3.032 8.113-4.6zM723.687 811.787c-0.204 0.127-0.409 0.256-0.613 0.383 0.202-0.127 0.409-0.254 0.613-0.383zM715.555 816.822c-0.875 0.533-1.764 1.066-2.646 1.599 0.88-0.533 1.774-1.066 2.646-1.599zM296.437 757.889c12.934-2.923 25.725-6.094 38.381-9.502-12.656 3.406-25.446 6.578-38.381 9.502zM482.127 695.526c-11.571 5.25-23.265 10.288-35.090 15.099 11.825-4.813 23.52-9.849 35.090-15.099zM446.958 710.657c-5.887 2.394-11.807 4.731-17.757 7.016 5.95-2.284 11.87-4.621 17.757-7.016zM428.451 717.958c-11.855 4.539-23.838 8.855-35.95 12.948 12.113-4.091 24.095-8.409 35.95-12.948zM391.761 731.157c-6.087 2.050-12.204 4.046-18.357 5.98 6.152-1.934 12.271-3.931 18.357-5.98zM373.279 737.177c-12.355 3.884-24.847 7.532-37.474 10.945 12.629-3.414 25.119-7.061 37.474-10.945zM696.385 564.257c4.951-3.887 9.879-7.818 14.779-11.794-4.901 3.976-9.827 7.906-14.779 11.794zM483.067 695.098c11.55-5.255 22.977-10.724 34.281-16.407-11.304 5.683-22.732 11.152-34.281 16.407zM517.482 678.624c5.618-2.825 11.202-5.705 16.76-8.633-5.558 2.928-11.142 5.808-16.76 8.633zM535.014 669.582c11.059-5.84 22-11.885 32.826-18.128-10.826 6.243-21.768 12.286-32.826 18.128zM568.604 651.016c5.421-3.132 10.815-6.313 16.18-9.543-5.366 3.231-10.76 6.411-16.18 9.543zM585.020 641.329c10.776-6.496 21.437-13.193 31.988-20.081-10.551 6.887-21.212 13.584-31.988 20.081zM617.976 620.615c10.552-6.904 20.995-13.999 31.325-21.285-10.33 7.285-20.772 14.381-31.325 21.285zM649.497 599.193c5.123-3.615 10.218-7.278 15.29-10.985-5.072 3.707-10.166 7.37-15.29 10.985zM665.615 587.6c10.105-7.402 20.104-14.984 30.003-22.742-9.899 7.758-19.899 15.34-30.003 22.742zM770.624 501.034c4.717-4.34 9.41-8.723 14.080-13.145-4.671 4.42-9.363 8.803-14.080 13.145zM711.5 552.189c9.856-8.002 19.61-16.18 29.265-24.526-9.655 8.347-19.408 16.526-29.265 24.526zM741.7 526.855c9.695-8.397 19.294-16.965 28.794-25.702-9.5 8.737-19.099 17.304-28.794 25.702zM813.709 459.618c4.589-4.602 9.154-9.241 13.698-13.922-4.544 4.681-9.111 9.32-13.698 13.922zM97.527-21.79c54.449 24.34 109.643 35.568 165.131 41.491l-129.554 93.418c1.5-46.71-15.18-91.051-35.578-134.909z"/>
</svg>