<svg xmlns="http://www.w3.org/2000/svg" viewBox="0 -64 1024 1000" style="transform: scaleY(-1);">
<path fill="currentColor" d="M717.268 789.015c128.306-124.674 105.851-220.382 21.564-297.396-37.126 200.311-188.73 132.413-219.118 425.11-30.388-292.697-181.991-224.796-219.118-425.11-84.285 77.015-106.735 172.722 21.567 297.394-284.435-162.492-182.038-371.408 26.597-542.738l0.003 0.020c-0.017 0.020-0.033 0.042-0.050 0.062 53.697-64.58 132.121-115.794 171-265.193 38.865 149.369 117.251 200.604 170.946 265.151l0.007-0.038c208.637 171.329 311.035 380.245 26.601 542.738zM296.669 465.959c0.022 0.179 0.043 0.361 0.065 0.54-0.022-0.18-0.043-0.361-0.065-0.54zM300.121 337.968c-0.057 0.227-0.112 0.458-0.167 0.687 0.055-0.227 0.11-0.459 0.167-0.687zM298.853 343.316c-0.065 0.292-0.134 0.581-0.199 0.875 0.065-0.294 0.132-0.583 0.199-0.875zM297.573 349.377c-0.065 0.334-0.129 0.672-0.194 1.007 0.065-0.336 0.129-0.673 0.194-1.007zM296.474 355.367c-0.032 0.185-0.065 0.368-0.097 0.555 0.032-0.185 0.065-0.368 0.097-0.555zM295.525 361.408c-0.057 0.394-0.112 0.788-0.169 1.184 0.055-0.396 0.112-0.792 0.169-1.184zM294.615 368.295c-0.002 0.012-0.003 0.025-0.003 0.038 0-0.012 0.002-0.025 0.003-0.038zM294 374.128c-0.040 0.414-0.080 0.827-0.117 1.243 0.037-0.416 0.077-0.829 0.117-1.243zM293.404 381.27c-0.020 0.277-0.035 0.56-0.053 0.837 0.017-0.277 0.033-0.56 0.053-0.837zM293.028 387.629c-0.018 0.388-0.040 0.77-0.058 1.159 0.018-0.388 0.040-0.772 0.058-1.159zM293.335 427.049c0.035 0.688 0.072 1.376 0.11 2.060-0.038-0.683-0.075-1.371-0.11-2.060zM294 438.069c0.012 0.165 0.025 0.326 0.037 0.491-0.012-0.164-0.025-0.326-0.037-0.491zM294.703 447.036c0.042 0.481 0.082 0.964 0.124 1.442-0.042-0.479-0.082-0.962-0.124-1.442zM295.664 457.173c0.010 0.095 0.022 0.189 0.032 0.284-0.010-0.095-0.022-0.189-0.032-0.284zM292.717 410.932c-0.010-0.498-0.020-0.996-0.028-1.492 0.008 0.496 0.018 0.994 0.028 1.492zM292.638 402.904c0-0.286 0.005-0.566 0.007-0.85 0 0.284-0.005 0.565-0.007 0.85zM292.752 394.971c-0.010 0.414-0.018 0.834-0.027 1.25 0.008-0.418 0.015-0.835 0.027-1.25zM345.334 250.487c0.127-0.157 0.254-0.316 0.383-0.473-0.129 0.157-0.256 0.314-0.383 0.473zM301.43 333.008c0.089-0.324 0.18-0.645 0.271-0.967-0.090 0.322-0.182 0.643-0.271 0.967zM303.112 327.223c0.010-0.032 0.018-0.062 0.028-0.094-0.010 0.030-0.020 0.062-0.028 0.094zM304.689 322.319c0.104-0.311 0.207-0.62 0.312-0.929-0.105 0.309-0.209 0.62-0.312 0.929zM306.642 316.726c0.037-0.102 0.075-0.2 0.114-0.302-0.037 0.1-0.075 0.2-0.114 0.302zM308.419 312.067c0.105-0.264 0.207-0.531 0.312-0.795-0.105 0.266-0.207 0.531-0.312 0.795zM310.561 306.84c0.089-0.207 0.179-0.413 0.267-0.618-0.087 0.205-0.179 0.411-0.267 0.618zM312.627 302.169c0.082-0.18 0.164-0.362 0.246-0.543-0.084 0.18-0.164 0.362-0.246 0.543zM314.894 297.365c0.12-0.247 0.244-0.494 0.366-0.742-0.122 0.247-0.246 0.494-0.366 0.742zM317.368 292.454c0.008-0.015 0.017-0.032 0.025-0.047-0.008 0.015-0.017 0.030-0.025 0.047zM319.635 288.229c0.132-0.239 0.264-0.478 0.396-0.717-0.132 0.239-0.264 0.478-0.396 0.717zM322.353 283.423c0.012-0.020 0.025-0.042 0.037-0.062-0.012 0.022-0.025 0.042-0.037 0.062zM324.765 279.396c0.125-0.205 0.251-0.413 0.378-0.618-0.127 0.205-0.252 0.413-0.378 0.618zM327.608 274.859c0.089-0.137 0.179-0.274 0.267-0.411-0.089 0.137-0.179 0.274-0.267 0.411zM330.299 270.769c0.090-0.134 0.179-0.267 0.269-0.401-0.090 0.134-0.179 0.267-0.269 0.401zM333.196 266.553c0.129-0.182 0.257-0.364 0.386-0.548-0.129 0.182-0.257 0.364-0.386 0.548zM339.109 258.443c0.139-0.184 0.279-0.368 0.419-0.553-0.14 0.185-0.279 0.369-0.419 0.553zM519.719 770.959c18.487-178.066 112.72-130.806 131.423-261.797 0.005-0.022 0.010-0.045 0.015-0.068-14.491 59.412-68.037 103.521-131.914 103.521-60.857 0-112.359-40.031-129.625-95.194 0 0.002 0.002 0.003 0.002 0.005 21.427 120.784 112.015 79.324 130.1 253.533zM383.594 483.1c-0.095-2.086-0.159-4.181-0.159-6.289 0-2.243 0.062-4.472 0.169-6.687-0.11 2.215-0.169 4.445-0.169 6.687 0 2.11 0.063 4.205 0.159 6.289zM389.197 515.982c-0.431-1.433-0.845-2.875-1.229-4.328 0.386 1.453 0.798 2.895 1.229 4.328zM387.404 509.42c-0.314-1.276-0.61-2.559-0.889-3.849 0.279 1.29 0.573 2.573 0.889 3.849zM386.061 503.436c-0.383-1.928-0.738-3.865-1.039-5.82 0.301 1.956 0.656 3.894 1.039 5.82zM384.907 496.764c-0.259-1.754-0.483-3.518-0.673-5.294 0.192 1.776 0.416 3.541 0.673 5.294zM384.043 489.478c-0.137-1.482-0.251-2.97-0.339-4.465 0.090 1.495 0.202 2.983 0.339 4.465zM385.916 450.997c0 0.003-0.002 0.007-0.002 0.012 12.056-62.664 67.15-110.007 133.329-110.007 69.664 0 127.041 52.465 134.866 120.029-3.361-109.708-98.042-104.522-134.39-244.195-35.2 135.275-125.123 134.669-133.803 234.162zM383.998 464.752c0.032-0.361 0.048-0.727 0.084-1.087-0.037 0.359-0.052 0.725-0.084 1.087zM652.659 502.127c0.15-0.792 0.289-1.589 0.426-2.385-0.135 0.797-0.277 1.594-0.426 2.385zM653.706 495.757c0.177-1.253 0.337-2.512 0.479-3.777-0.14 1.266-0.304 2.524-0.479 3.777zM654.904 471.011c0.080 1.926 0.147 3.855 0.147 5.8 0 2.068-0.065 4.121-0.155 6.166 0.094-2.045 0.155-4.098 0.155-6.166 0-1.946-0.060-3.875-0.147-5.8zM654.483 464.673c0.127 1.432 0.246 2.867 0.327 4.311-0.087-1.443-0.197-2.88-0.327-4.311zM654.413 489.865c0.177-1.822 0.316-3.655 0.418-5.499-0.1 1.844-0.244 3.677-0.418 5.499zM742.752 466.009c-0.018 0.154-0.037 0.309-0.057 0.463 0.020-0.154 0.038-0.311 0.057-0.463zM746.083 427.233c-0.030 0.575-0.060 1.149-0.092 1.721 0.032-0.571 0.062-1.146 0.092-1.721zM745.422 438.161c-0.003 0.037-0.005 0.074-0.008 0.11 0.003-0.037 0.007-0.074 0.008-0.11zM744.714 447.17c-0.035 0.406-0.068 0.814-0.105 1.218 0.037-0.404 0.070-0.812 0.105-1.218zM743.758 457.223c-0.003 0.038-0.008 0.075-0.012 0.114 0.003-0.038 0.008-0.075 0.012-0.114zM746.453 388.683c-0.013-0.284-0.028-0.566-0.042-0.849 0.013 0.284 0.028 0.565 0.042 0.849zM746.063 381.864c-0.012-0.162-0.020-0.327-0.032-0.489 0.012 0.162 0.022 0.326 0.032 0.489zM745.534 375.248c-0.028-0.317-0.060-0.633-0.090-0.95 0.030 0.317 0.062 0.633 0.090 0.95zM744.050 362.448c-0.042-0.301-0.085-0.601-0.127-0.9 0.042 0.301 0.085 0.601 0.127 0.9zM743.035 355.833c-0.010-0.057-0.020-0.114-0.030-0.172 0.008 0.058 0.020 0.115 0.030 0.172zM742.012 350.207c-0.045-0.234-0.089-0.469-0.135-0.703 0.047 0.232 0.090 0.468 0.135 0.703zM740.75 344.093c-0.040-0.185-0.084-0.368-0.125-0.551 0.042 0.184 0.084 0.366 0.125 0.551zM739.417 338.422c-0.028-0.112-0.055-0.227-0.084-0.339 0.028 0.112 0.055 0.226 0.084 0.339zM714.508 279.159c-0.037-0.060-0.074-0.12-0.11-0.18 0.037 0.060 0.074 0.12 0.11 0.18zM737.963 332.894c-0.062-0.224-0.125-0.446-0.187-0.668 0.062 0.222 0.125 0.444 0.187 0.668zM734.687 322.178c-0.070-0.21-0.14-0.419-0.212-0.63 0.072 0.21 0.142 0.421 0.212 0.63zM730.931 311.883c-0.060-0.154-0.12-0.309-0.182-0.463 0.060 0.154 0.12 0.309 0.182 0.463zM728.816 306.736c-0.037-0.084-0.074-0.167-0.109-0.252 0.035 0.084 0.072 0.167 0.109 0.252zM726.674 301.902c-0.020-0.043-0.038-0.087-0.058-0.13 0.018 0.043 0.038 0.087 0.058 0.13zM724.457 297.228c-0.060-0.124-0.122-0.246-0.182-0.369 0.062 0.124 0.122 0.246 0.182 0.369zM719.693 288.064c-0.063-0.117-0.129-0.232-0.192-0.349 0.063 0.117 0.127 0.234 0.192 0.349zM746.785 402.324c0 0.162 0.003 0.321 0.003 0.483 0-0.162-0.003-0.321-0.003-0.483zM746.68 395.088c0.008 0.312 0.013 0.628 0.020 0.94-0.007-0.312-0.013-0.628-0.020-0.94zM746.715 410.774c0.008-0.399 0.017-0.798 0.022-1.196-0.007 0.398-0.015 0.797-0.022 1.196z"/>
</svg>