<svg xmlns="http://www.w3.org/2000/svg" viewBox="0 -64 1024 1000" style="transform: scaleY(-1);">
<path fill="currentColor" d="M369.833 100.278l-147.013-147.013h86.698c34.631 34.512 69.732 68.675 105.054 102.275l-44.739 44.739zM987.801 580.644l-230.893-93.291-248.304-248.304 50.472-50.472c75.973 67.569 151.535 130.97 224.385 187.771-57.149-73.295-120.323-148.769-187.587-224.568l51.499-51.499 248.306 248.304 92.123 232.059zM499.752 682.894h0.003c16.112-130.157 26.692-273.577 31.981-420.712l64.19 64.19-0.003 358.001-98.19 228.571-98.205-228.571-0.002-336.245-135.885 135.885-230.898 93.289 92.127-232.060 338.090-338.089c-17.119-18.019-34.39-35.992-51.815-53.888h89.213l8.244 8.244 11.588-11.586h85.799c-138.055 141.578-267.551 287.894-375.566 426.425 154.218-120.244 320.594-270.022 477.301-426.425h90.005l-329.654 329.656c5.586 140.707 16.093 277.417 31.677 403.316zM316.448 686.37l-119.297-150.070 129.888 66.692-3.54-117.534 67.678 127.434v87.047l53.201 123.824-97.691 104.867 32.292-107.475-188.473 97.668 125.942-154.968-226.229-38.277zM604.838 699.937v-91.453l62.546-117.77-5.138 170.656 1.866-61.966 130.875-68.002-125.942 154.968 226.229 39.206-226.229 38.277 125.942 154.968-184.627-95.675 31.692 105.482-92.705-99.515 22.191-51.658z"/>
</svg>