<svg xmlns="http://www.w3.org/2000/svg" viewBox="0 -64 1024 1000" style="transform: scaleY(-1);">
<path fill="currentColor" d="M985.453 574.319l-684.409 356.206-32.155-32.155c31.781-46.922 20.917-119.256-30.501-170.673s-125.406-64.030-172.328-32.155l-30.501-30.501 355.394-685.221 304.258 178.946-216.877 17.326 108.829 108.86-182.224 14.017 94.843 94.843-164.086 12.363 79.171 79.171-141.015 10.708 70.898 70.898-122.877 9.085c84.821 15.391 158.466 88.568 173.982 173.982l9.896-122.034 70.086 70.086 11.551-140.172 78.328 78.328 13.206-163.274 94 94 14.017-182.224 108.829 108.86 16.484-212.756 173.202 293.488z"/>
</svg>