<svg xmlns="http://www.w3.org/2000/svg" viewBox="0 -64 1024 1000" style="transform: scaleY(-1);">
<path fill="currentColor" d="M331.998 928.013c-15.696 0-29.995-14.701-29.995-29.995v-60.008h29.995v-60.008h-119.999c-136.481 0-150.012-106.276-149.995-149.995v-540.005c0-23.483-29.995-60.008-29.995-60.008v-60.008h959.993v60.008c0 0-29.995 36.525-29.995 60.008v540.022c0 43.736-13.514 149.995-149.995 149.995h-119.999v60.008h29.995v59.991c0 15.295-14.317 29.995-29.995 29.995h-360.015zM481.993 838.010h60.008c29.995 0 90.004 0 90.004-60.008h-239.998c0 60.008 59.991 60.008 89.986 60.008zM241.995 658.020h540.005c38.428 0 60.008-21.964 60.008-60.008v-479.997c0-16.936-15.469-29.995-29.995-29.995h-600.013c-14.526 0-29.995 13.060-29.995 29.995v479.997c0 38.044 21.58 60.008 59.991 60.008v0zM662 238.014h119.999v-60.008h-119.999v60.008zM662 268.009v210.003c0 76.315 60.008 119.999 60.008 119.999s60.008-43.684 60.008-119.999v-210.003h-120.017zM241.995 268.009v210.003c0 76.315 60.008 119.999 60.008 119.999s60.008-43.684 60.008-119.999v-210.003h-120.017zM451.997 268.009v210.003c0 76.315 60.008 119.999 60.008 119.999s60.008-43.684 60.008-119.999v-210.003h-120.017zM451.997 238.014h119.999v-60.008h-119.999v60.008zM241.995 238.014h119.999v-60.008h-119.999c0 0 0 60.008 0 60.008z"/>
</svg>