<svg xmlns="http://www.w3.org/2000/svg" viewBox="0 -64 1024 1000" style="transform: scaleY(-1);">
<path fill="currentColor" d="M923.865 612.617l51.982 3.931-176.546 190.486 40.845-200.747 42.575 3.219c22.53-143.738-4.275-281.603-85.127-385.149l-486.754 486.756c24.312 52.864 14.704 117.496-28.849 161.049-55.902 55.902-146.532 55.904-202.431 0.005-55.901-55.901-55.897-146.537 0.002-202.435 43.482-43.481 107.976-53.121 160.795-28.956l107.231-107.231c-42.774-39.326-87.86-76.341-134.662-111.641l60.142-60.142c37.404 45.011 75.791 88.757 115.503 130.798l338.597-338.597c-103.519-80.747-241.302-107.52-384.952-85.014l3.224 42.63-200.747 40.845 190.486-176.546 3.926 51.915c172.911-73.835 354.643-69.117 481.926 23.442l125.955-42.547-42.918 127.050c89.048 127.021 92.675 306.246 19.798 476.88zM117.713 707.857c-34.834 34.834-34.838 91.32 0 126.156 34.836 34.836 91.315 34.834 126.154-0.003 34.834-34.838 34.833-91.316-0.002-126.151s-91.318-34.838-126.152-0.002zM589.916 678.609l-60.142 60.142c-33.969-48.222-71.257-93.126-111.215-135.358l40.004-40.004c42.074 40.604 85.73 79.177 131.353 115.221z"/>
</svg>