<svg xmlns="http://www.w3.org/2000/svg" viewBox="0 -64 1024 1000" style="transform: scaleY(-1);">
<path fill="currentColor" d="M951.473 770.542c-25.755 59.035-80.684 90.608-103.362 67.9l0.005 0.003c-24.499-24.531 9.301-58.792 11.633-113.831-226.548-168.669-452.976-205.694-679.829-3.468 1.002 57.075 36.747 92.257 11.737 117.299l0.003-0.005c-22.678 22.708-77.607-8.865-103.362-67.9-86.454-198.165-19.15-718.163 175.443-702.733-43.932 100.82-87.441 215.588-113.235 336.924 52.585-144.75 144.409-270.729 235.289-239.99-63.929 80.24-131.874 174.235-179.765 280.217 69.919-118.158 170.442-211.347 245.641-170.706-59.389 53.076-122.917 114.89-177.317 186.229 79.434-74.892 174.528-122.808 224.629-74.892-41.54 20.201-86.507 45.392-129.261 74.809l149.537-65.001 136.8 55.577c-38.483-25.398-78.238-47.375-115.271-65.384 50.101-47.916 145.194 0 224.624 74.892-54.401-71.339-117.929-133.153-177.317-186.229 75.2-40.641 175.722 52.548 245.641 170.706-47.891-105.981-115.836-199.977-179.765-280.217 90.88-30.738 182.705 95.24 235.289 239.99-25.794-121.336-69.303-236.105-113.235-336.924 194.595-15.428 261.898 504.57 175.446 702.735zM179.9 721.164c-3.216 2.867-6.433 5.795-9.649 8.758 3.216-2.963 6.431-5.89 9.649-8.758zM147.556 751.64c-3.182 3.159-6.366 6.353-9.548 9.609 3.182-3.256 6.366-6.45 9.548-9.609zM169.015 731.057c-3.062 2.833-6.122 5.715-9.184 8.635 3.062-2.92 6.124-5.802 9.184-8.635zM158.122 741.328c-3.035 2.912-6.070 5.863-9.107 8.862 3.035-2.998 6.070-5.95 9.107-8.862zM871.414 733.412c-3.839-2.933-7.676-5.828-11.515-8.686 3.839 2.858 7.676 5.753 11.515 8.686zM895.009 751.909c3.83 3.077 7.662 6.189 11.493 9.34-3.83-3.151-7.662-6.261-11.493-9.34zM871.487 733.469c3.86 2.95 7.721 5.939 11.581 8.964-3.86-3.027-7.721-6.014-11.581-8.964zM883.266 742.588c3.825 2.998 7.652 6.034 11.478 9.106-3.827-3.072-7.652-6.106-11.478-9.106zM519.888 721.966c94.449 0 171.018 37.36 171.018 83.448 0 46.092-76.569 83.448-171.018 83.448s-171.018-37.362-171.018-83.448c0-46.087 76.569-83.448 171.018-83.448zM519.888 875.499c69.863 0 126.5-27.633 126.5-61.726 0-34.091-56.637-61.726-126.5-61.726s-126.5 27.636-126.5 61.726c0 34.089 56.637 61.726 126.5 61.726z"/>
</svg>