<svg xmlns="http://www.w3.org/2000/svg" viewBox="0 -64 1024 1000" style="transform: scaleY(-1);">
<path fill="currentColor" d="M163.357 240.796c246.268 157.444 407.545 323.688 556.914 563.432l122.975-121.554c-234.984-150.229-403.989-317.983-556.914-563.432l-122.975 121.55c0 0 0 0.003 0 0.003zM566.354 468.311c-23.176-22.054-45.674-44.787-67.589-68.317 132.736-88.951 225.771-252.512 314.724-413.25l170.716 172.715c-164.142 88.363-328.654 177.613-417.85 308.852zM174.123 552.040c79.854-78.928 182.89-89.855 249.704-112.951 36.208 33.384 70.395 68.033 103.060 104.403-23.372 66.765-36.481 168.708-116.392 247.694-119.182 117.807-268.599 159.557-333.821 93.57l0.002-0.002c-65.222-65.984-21.738-214.908 97.447-332.715zM153.53 808.578c33.366 33.755 120.194 2.030 193.939-70.861s106.478-159.346 73.112-193.102c-33.366-33.755-120.194-2.030-193.937 70.86s-106.478 159.346-73.113 193.103z"/>
</svg>