<svg xmlns="http://www.w3.org/2000/svg" viewBox="0 -64 1024 1000" style="transform: scaleY(-1);">
<path fill="currentColor" d="M493.591 641.86c-0.251 83.31-22.062 151.051-65.822 226.698 18.288 44.281 76.61 50.696 106.78 48.823 20.595-101.431 24.543-179.452 15.647-277.412zM1002.807 441.418c-2.897 220.325-159.923 365.109-350.51 323.181-33.942-7.469-66.74-20.221-97.641-37.517-0.162-27.975-1.686-56.576-4.458-87.114l-56.606 1.891c-0.084 27.765-2.576 53.796-7.464 78.97-34.271 19.605-70.825 33.698-108.609 41.287-23.956 4.811-47.642 7.434-70.165 6.65l0.003 0.005c-157.668-5.479-290.801-143.293-288.267-336.082 2.892-220.322 162.851-430.498 354.493-468.98 49.045-9.852 118.468-10.44 151.328 21.041 32.245-26.525 103.526-29.034 152.302-18.303 190.584 41.931 328.49 254.644 325.594 474.971zM692.713 541.832c-8.414-82.568-49.713-125.182-136.593-112.413-19.865 70.907 52.837 144.053 136.593 112.413zM521.059 626.637c62.020-62.165 52.399-120.722-8.897-176.678-75.307 48.412-59.888 150.379 8.897 176.678zM468.372 448.829c-80.906-34.136-131.57-3.239-160.416 74.582 73.148 51.624 161.867-0.95 160.416-74.582zM269.212 382.678c51.422 73.289 152.686 53.747 176.173-16.043-64.627-59.454-122.746-47.473-176.173 16.043zM307.203 201.199c-8.132 89.158 81.76 139.708 144.795 101.635-10.881-87.135-62.975-115.56-144.795-101.635zM496.301 110.195c-61.296 55.956-70.915 114.513-8.897 176.678 68.785-26.297 84.204-128.264 8.897-176.678zM676.47 203.175c-81.476-15.816-134.211 11.398-147.109 98.256 62.137 39.527 153.176-8.927 147.109-98.256zM552.886 375.518c36.035 64.22 139.167 64.616 176.088-16.94-64.288-52.5-123.625-53.479-176.088 16.94z"/>
</svg>