<svg xmlns="http://www.w3.org/2000/svg" viewBox="0 -64 1024 1000" style="transform: scaleY(-1);">
<path fill="currentColor" d="M206.952 462.373c0-233.596 303.508-487.498 303.508-487.498s303.512 253.87 303.497 487.498c0.007 619.016-607.006 607.336-607.005 0zM423.971 206.984c-38.628 41.787-67.828 96.174-86.303 155.322-29.571 8.244-51.155 35.493-50.876 67.656 0.199 22.884 11.419 43.092 28.577 55.632-3.65 65.703 5.745 130.851 29.783 186.139l29.721-175.249c29.708-8.154 51.419-35.467 51.14-67.729-0.204-23.529-12.067-44.212-30.043-56.659l28.002-165.111zM596.939 206.984l28.002 165.11c-17.978 12.445-29.843 33.13-30.047 56.661-0.281 32.264 21.434 59.577 51.143 67.731l29.721 175.248c24.038-55.288 33.433-120.438 29.783-186.142 17.156-12.54 28.376-32.746 28.573-55.628 0.279-32.162-21.302-59.409-50.871-67.654-18.477-59.148-47.677-113.537-86.305-155.324z"/>
</svg>