<svg xmlns="http://www.w3.org/2000/svg" viewBox="0 -64 1024 1000" style="transform: scaleY(-1);">
<path fill="currentColor" d="M313.311 454.46c0-109.742 88.961-198.703 198.703-198.703s198.703 88.961 198.703 198.703-88.961 198.703-198.703 198.703-198.703-88.961-198.703-198.703zM512.087 573.89c65.999 0 119.501-53.502 119.501-119.501s-53.502-119.501-119.501-119.501c-65.999 0-119.501 53.502-119.501 119.501s53.502 119.501 119.501 119.501zM569.905 454.388c0-31.932-25.886-57.818-57.818-57.818s-57.818 25.886-57.818 57.818c0 31.932 25.886 57.818 57.818 57.818s57.818-25.886 57.818-57.818zM740.735 298.82c0.002 0.002 0.003 0.005 0.005 0.007l35.616-117.401c71.331 69.074 115.689 165.838 115.689 272.975 0 186.625-134.543 341.814-311.926 373.885l-25.294 83.378-103.421 0.002-26.166-87.276c-168.004-39.278-293.133-190.015-293.133-369.99 0-101.125 39.51-193.018 103.93-261.097l-62.192-207.436h93.618l46.912 144.015c41.728-25.475 88.744-43.145 139.027-50.939v-93.075h104.022v195.708c-14.749-2.432-29.883-3.718-45.322-3.718-20.139 0-39.767 2.173-58.682 6.261-39.563 8.551-75.97 25.577-107.241 49.068-29.664 22.287-54.708 50.386-73.414 82.63 0.142-0.244 0.291-0.481 0.433-0.723-23.903 40.903-37.612 88.488-37.612 139.284 0 108.302 62.27 202.045 152.954 247.42-0.022-0.010-0.042-0.020-0.063-0.030v0c37.205 18.629 79.187 29.128 123.628 29.128 36.659 0 71.643-7.151 103.658-20.106 101.353-41.015 172.859-140.355 172.859-256.413 0-57.71-17.689-111.282-47.924-155.615-20.345-29.828-46.376-55.458-76.531-75.353 0.007 0.005 0.010 0.008 0.017 0.012-31.645-20.879-67.831-35.432-106.758-41.855v-104.441c50.273 5.985 97.532 21.786 139.815 45.429l44.825-136.685h93.618l-94.941 312.958c-0.002-0.002-0.003-0.005-0.005-0.007z"/>
</svg>