<svg xmlns="http://www.w3.org/2000/svg" viewBox="0 -64 1024 1000" style="transform: scaleY(-1);">
<path fill="currentColor" d="M832.253 737.496l16.162-62.098-74.56-14.69c-39.173 113.44-119.684 207.104-230.42 231.755 76.758-65.315 130.506-146.539 162.978-234.549l-272.937-42.363c-0.003-0.007-0.008-0.012-0.012-0.018 12.57 20.949 18.868 49.264 15.801 79.64-5.97 59.11-45.083 103.568-87.361 99.296s-71.712-55.65-65.741-114.76c2.008-19.877 7.776-38.083 16.138-53.352-0.002 0.002-0.002 0.003-0.003 0.007-88.978-2.367-152.71-23.149-185.294-76.351 42.099-39.543 125.422-46.489 190.532-36.171l40.516-110.041-105.427-424.733h68.259l121.988 337.264 220.001-337.264h67.076l-229.326 438.404-9.431 141.34 232.034 45.988c31.042-116.422 27.306-241.121-7.686-354.635 88.672 103.319 104.326 259.501 64.081 392.722l127.075 25.047-3.592 18.227 0.035 0.007 3.593-18.238-53.624-10.566 16.028-61.582 110.65 93.181-147.535 48.534zM363.578 581.984c-1.069 0.277-2.137 0.573-3.194 0.909 1.059-0.336 2.125-0.633 3.194-0.909zM367.626 581.082c-1.026 0.189-2.046 0.413-3.064 0.658 1.017-0.246 2.038-0.469 3.064-0.658zM314.181 623.062c-0.164 0.277-0.327 0.553-0.488 0.832 0.162-0.279 0.326-0.555 0.488-0.832zM322.665 610.602c-0.16 0.204-0.316 0.413-0.476 0.618 0.159-0.204 0.316-0.414 0.476-0.618zM319.333 615.082c-0.202 0.286-0.404 0.57-0.603 0.859 0.2-0.289 0.401-0.575 0.603-0.859zM317.225 618.163c-0.063 0.095-0.124 0.194-0.187 0.291 0.063-0.097 0.125-0.195 0.187-0.291zM324.219 608.681c0.266-0.322 0.535-0.64 0.803-0.956-0.269 0.317-0.538 0.633-0.803 0.956zM327.672 604.725c0.304-0.331 0.606-0.667 0.914-0.992-0.307 0.326-0.61 0.66-0.914 0.992zM330.112 602.158c0.366-0.369 0.735-0.732 1.104-1.092-0.369 0.362-0.738 0.723-1.104 1.092zM357.119 584.045c0.902-0.342 1.809-0.667 2.723-0.967-0.914 0.299-1.821 0.623-2.723 0.967zM333.532 598.884c0.464-0.423 0.93-0.847 1.4-1.258-0.471 0.411-0.935 0.834-1.4 1.258zM336.383 596.391c0.488-0.408 0.981-0.803 1.475-1.196-0.494 0.393-0.986 0.788-1.475 1.196zM339.731 593.745c0.638-0.478 1.28-0.949 1.926-1.405-0.646 0.454-1.288 0.925-1.926 1.405zM342.998 591.42c0.625-0.419 1.253-0.827 1.884-1.224-0.631 0.398-1.261 0.803-1.884 1.224zM346.292 589.32c0.8-0.479 1.605-0.94 2.416-1.385-0.81 0.444-1.615 0.905-2.416 1.385zM349.921 587.289c0.767-0.401 1.539-0.787 2.314-1.156-0.775 0.369-1.547 0.755-2.314 1.156zM353.181 585.684c0.945-0.431 1.898-0.834 2.853-1.218-0.957 0.384-1.909 0.785-2.853 1.218zM375.663 580.173c1.153-0.047 2.31-0.043 3.47-0.018-1.159-0.025-2.317-0.027-3.47 0.018zM367.932 581.020c1.116-0.199 2.238-0.354 3.364-0.488-1.126 0.134-2.248 0.287-3.364 0.488zM372.205 580.432c1.108-0.114 2.218-0.204 3.333-0.251-1.114 0.047-2.225 0.139-3.333 0.251zM380.013 580.181c1.168 0.043 2.339 0.112 3.511 0.231 1.303 0.132 2.593 0.309 3.87 0.53-1.278-0.221-2.568-0.398-3.87-0.53-1.174-0.119-2.344-0.185-3.511-0.231zM414.984 593.799c-0.18-0.145-0.364-0.282-0.545-0.426 0.18 0.144 0.364 0.281 0.545 0.426zM411.892 591.432c-0.237-0.17-0.479-0.329-0.718-0.496 0.239 0.167 0.481 0.326 0.718 0.496zM408.693 589.267c-0.301-0.19-0.606-0.364-0.909-0.548 0.302 0.184 0.61 0.357 0.909 0.548zM405.39 587.309c-0.369-0.204-0.747-0.386-1.119-0.581 0.371 0.195 0.75 0.378 1.119 0.581zM401.984 585.568c-0.446-0.21-0.902-0.394-1.353-0.593 0.451 0.199 0.905 0.384 1.353 0.593zM398.478 584.053c-0.531-0.209-1.076-0.388-1.614-0.58 0.538 0.192 1.082 0.371 1.614 0.58zM394.875 582.77c-0.631-0.2-1.275-0.364-1.913-0.543 0.638 0.179 1.281 0.342 1.913 0.543zM391.178 581.731c-0.783-0.192-1.58-0.339-2.374-0.498 0.795 0.157 1.592 0.306 2.374 0.498zM420.567 598.845c0.090 0.090 0.182 0.177 0.272 0.269-0.090-0.092-0.182-0.179-0.272-0.269zM417.565 596.009c0.134 0.119 0.269 0.234 0.403 0.354-0.132-0.12-0.269-0.234-0.403-0.354zM431.189 611.924c-0.007-0.010-0.015-0.022-0.022-0.032 0.008 0.012 0.015 0.022 0.022 0.032zM428.775 608.457c-0.015-0.020-0.030-0.040-0.045-0.060 0.015 0.018 0.030 0.038 0.045 0.060zM426.245 605.165c-0.032-0.038-0.063-0.077-0.095-0.117 0.032 0.040 0.063 0.077 0.095 0.117zM423.597 602.048c-0.055-0.062-0.112-0.122-0.167-0.184 0.055 0.062 0.112 0.122 0.167 0.184z"/>
</svg>