<svg xmlns="http://www.w3.org/2000/svg" viewBox="0 -64 1024 1000" style="transform: scaleY(-1);">
<path fill="currentColor" d="M152.010 928.008c-80.013-40.006-90.002-60.009-90.002-60.009 80.013-320 9.989-549.998-29.992-750.005 0 0 20.003-49.995 180.003-90.002v420.016c-0.025 160-60.009 480-60.009 480zM871.998 928.008c0 0-60.009-320-60.009-480v-419.991c160 40.006 180.003 90.002 180.003 90.002-40.006 200.006-110.005 430.005-29.992 750.005 0-0.025-9.989 19.978-90.002 59.984zM452.007 568.002c-80.013 0-180.003-29.992-180.003-29.992v-540.009c0 0 99.991-29.992 180.003-29.992h119.994c80.013 0 180.003 29.992 180.003 29.992v540.009c0 0-99.991 29.992-180.003 29.992h-119.994z"/>
</svg>