<svg xmlns="http://www.w3.org/2000/svg" viewBox="0 -64 1024 1000" style="transform: scaleY(-1);">
<path fill="currentColor" d="M689.939 855.036c-85.889-41.363-143.261-131.72-181.21-241.106-37.956 109.386-95.339 199.743-181.218 241.106-275.030 132.485-380.372-247.499-176.701-408.907h169.002c0 0-50.069 87.688-55.931 100.108-8.987 18.97-61.861 156.233 12.943 107.906 101.211-65.382 124.32-298.769 135.367-401.47 11.105-103.359 17.557-239.848 17.557-239.848h157.965c0 0 6.451 136.489 17.567 239.848 11.047 102.692 34.156 336.087 135.358 401.47 74.814 48.327 21.92-88.946 12.953-107.906-5.872-12.42-55.941-100.108-55.941-100.108h168.992c203.671 161.408 98.329 541.382-176.703 408.907z"/>
</svg>