<svg xmlns="http://www.w3.org/2000/svg" viewBox="0 -64 1024 1000" style="transform: scaleY(-1);">
<path fill="currentColor" d="M534.938 498.377l53.753 203.301-35.099 35.1-33.554-74.951-0.634 109.14-47.117 47.117-24.231-39.514-4.655 68.401-77.543 77.545-53.688-203.052-133.963 134.156-62.884-62.887 135.011-135.201-206.512-54.605 33.491-33.491 101.963 2.001-74.382-29.584 78.804-78.804 65.849-4.094-25.751-17.808 41.397-2.573-33.71-23.311 35.172-35.172 206.267 54.541 480.852-481.529h50.074v75.694zM688.695 544.263l63.766-4.342-36.839-22.585 61.589-61.587 118.801 31.413 107.833-107.835v112.961l-53.859 53.86 29.619 112.016-139.843 139.841-29.619-112.011-76.464 76.465-55.898-57.065 78.391-78.393-118.804-31.413 51.327-51.327zM897.785 487.63v0zM797.43 637.914v0zM344.205 31.824v0l41.181 155.74-27.792 27.79-24.235-39.536-4.662 68.434-83.155 83.153-29.582-111.874-76.186 76.45-57.060-57.065 78.661-78.661-118.235-31.264 107.988-107.987h68.185l-33.002-30.974 114.904 30.382 63.312-63.312h112.958l-121.782 122.204z"/>
</svg>