<svg xmlns="http://www.w3.org/2000/svg" viewBox="0 -64 1024 1000" style="transform: scaleY(-1);">
<path fill="currentColor" d="M887.611 120.723l-88.26 103.518-80.615 10.824-181.424 214.613 173.192 200.279-19.339 16.725-163.269-188.804v300.291h-25.568v-287.108l-150.737 178.312-19.526-16.506 170.263-201.41v-3.146l-183.005-211.628-87.413-11.738-88.576-103.887 54.993-24.293-18.723-21.651 19.339-16.725 19.254 22.264 33.344-51.955 88.578 103.887-1.663 87.135 163.873 189.502v-183.689l-61.504-69.373v-141.765l61.504 18.598v-36.913h25.568v36.447l60.669-18.132v141.765l-60.669 67.643v197.408l165.42-195.679-1.779-93.325 88.26-103.513 34.488 53.74 22.707-26.86 19.526 16.506-21.486 25.416zM302.065 618.749l-18.849 101.292 97.911-34.664 46.234 20.301-190.591 67.472 36.951-198.557zM757.215 574.593l36.951 198.557-190.591-67.472 47.753-20.969 99.795 35.331-19.613-105.403zM514.741 848.056l44.813-77.518 56.29-16.961-101.199 175.032-100.765-175.032 56.276 17.030z"/>
</svg>