<svg xmlns="http://www.w3.org/2000/svg" viewBox="0 -64 1024 1000" style="transform: scaleY(-1);">
<path fill="currentColor" d="M676.429 730.072c38.574-55.764 23.507-120.568-17.597-147.665 27.024 136.378-241.211 210.159-74.436 345.044l0.002 0.119c-222.963-28.398-270.709-199.62-190.149-332.547-86.316 35.748-123.591 88.387-87.294 164.958-83.341-43.231-127.326-129.236-125.468-222.054 1.454-72.579 30.504-129.216 75.485-170.29-22.685 57.965-28.618 118.479-14.137 169.537 71.484-98.662 275.59 40.001 294.208 158.574-0.075-127.347 127.956-236.723 225.399-104.773 17.373-71.916 13.514-146.404-4.849-206.336 37.513 39.518 61.356 90.694 63.12 153.285 2.525 89.754-42.115 148.94-144.282 192.147zM820.811 262.425l-307.757 235.478-307.759-235.478zM734.678 328.329v146.952h-126.235v-50.365zM288.673 262.425v-302.395h446.006v302.395h-446.006zM427.465 45.484h-74.017v71.173h74.017v-71.173zM427.465 168.535h-74.017v71.173h74.017v-71.173zM547.039 45.484h-74.017v71.173h74.017v-71.173zM547.039 168.535h-74.017v71.173h74.017v-71.173zM594.014 239.706h74.017v-71.173h-74.017v71.173zM669.457-31.383h-74.017v146.616h74.017v-146.616z"/>
</svg>