<svg xmlns="http://www.w3.org/2000/svg" viewBox="0 -64 1024 1000" style="transform: scaleY(-1);">
<path fill="currentColor" d="M987.604 236.161c-58.806 38.596-150.68 89.17-150.68 146.002s91.877 109.747 150.675 148.343c-67.75-0.848-156.531 21.921-181.047 71.248-24.628 49.562 19.99 116.468 54.899 184.549-58.401-40.246-115.163-92.766-157.686-64.244s-62.794 132.293-61.903 211.412l-0.003 0.002c-33.292-69.167-76.892-120.31-126.148-120.31-49.043 0-94.071 50.504-127.314 119.14 0.733-78.717-19.448-181.765-61.903-210.246-42.456-28.483-99.281 23.997-157.686 64.244 34.91-68.081 84.199-134.987 59.571-184.549-24.422-49.15-118.317-71.916-185.72-71.248 58.674-38.582 157.683-91.574 157.688-148.343 0.003-56.768-99.008-107.423-157.688-146.002 67.402 0.666 161.293-23.268 185.72-72.418 24.456-49.217-18.039-112.613-67.477-171.12 89.654 30.825 130.267 11.488 170.732-21.604h63.493c-85.474 70.83-144.093 215.652-144.093 383.112-0.003 237.242 117.832 429.837 262.807 429.837h0.003c144.975 0 262.807-192.601 262.807-429.837 0-167.462-58.619-312.282-144.093-383.112h54.553c39.695 29.239 79.603 51.319 179.384 18.579-52.467 60.526-84.398 124.925-59.937 174.147 24.512 49.331 113.298 73.266 181.047 72.418zM582.783 542.653c18.767 23.537 30.835 56.246 30.835 92.486-0.002 71.565-45.566 129.329-101.535 129.329-3.499 0-7.119 0.445-10.529 0l0.003-0.003c-51.106-6.641-91.005-62.231-91.005-129.329 0-37.16 12.731-70.345 32.338-93.989-106.282-19.996-114.318-199.093-114.318-324.826h73.705l19.556-262.418h187.272l17.298 262.418h69.948c0 126.084 2.53 308.333-113.567 326.331z"/>
</svg>