<svg xmlns="http://www.w3.org/2000/svg" viewBox="0 -64 1024 1000" style="transform: scaleY(-1);">
<path fill="currentColor" d="M601.143 627.97c21.608 26.892 35.49 64.323 35.49 105.755 0 81.833-52.44 147.874-116.855 147.874-4.034 0-8.192 0.5-12.132 0-58.818-7.598-104.754-71.17-104.754-147.874 0-42.496 14.666-80.426 37.21-107.475-122.328-22.859-131.582-227.644-131.582-371.392h84.835l22.515-300.032h215.542l19.918 300.032h80.52c0.002 144.155 2.91 352.535-130.706 373.112zM795.901 923.41c67.967-43.992 111.698-110.073 111.698-184.559 0-74.048-43.127-140.529-110.446-184.559 115.277 33.258 194.846 103.521 194.846 184.559-0.044 81.326-80.13 151.447-196.098 184.559zM713.055 601.014c86.081 24.852 145.508 77.324 145.508 137.837 0 60.767-59.817 113.13-146.415 137.837 50.803-32.858 83.407-82.199 83.407-137.837 0-55.309-32.214-104.978-82.501-137.837zM691.923 738.851c0-40.063-23.331-76.050-59.773-99.884 62.36 18.012 105.445 56.036 105.445 99.884 0 44.030-43.341 81.945-106.135 99.884 36.787-23.833 60.463-59.566 60.463-99.884zM131.116 738.851c0 74.486 43.729 140.567 111.698 184.559-115.968-33.113-196.096-103.233-196.096-184.559 0-81.037 79.569-151.301 194.846-184.559-67.321 44.030-110.448 110.512-110.448 184.559zM180.15 738.851c0-60.513 59.427-112.985 145.508-137.837-50.285 32.858-82.501 82.527-82.501 137.837 0 55.639 32.604 104.978 83.407 137.837-86.6-24.707-146.459-77.069-146.415-137.837zM406.521 638.968c-36.442 23.833-59.773 59.82-59.773 99.884 0 40.316 23.676 76.049 60.463 99.884-62.748-17.938-106.135-55.855-106.135-99.884 0-43.846 43.085-81.871 105.445-99.884z"/>
</svg>