<svg xmlns="http://www.w3.org/2000/svg" viewBox="0 -64 1024 1000" style="transform: scaleY(-1);">
<path fill="currentColor" d="M962.983 553.843c-56.772 218.542-251.195 360.764-461.335 354.158-176.812 10.565-355.741-64.348-464.344-206.222 52.167 44.424 114.146 76.601 180.184 94.989-124.506-107.398-189.246-278.16-159.327-450.56 2.185 56.519 15.628 111.333 38.596 161.32 0 0.020 0 0.040 0 0.060 2.296-102.997 36.934-204.3 104.401-286.742-76.844 153.689-44.798 391.185 83.908 483.684-1.429-1.036-2.848-2.088-4.257-3.154 23.338 11.927 48.141 21.675 74.26 28.884 214.135 59.164 433.838-72.548 491.249-293.276 36.727-141.292-2.209-284.787-91.108-385.39 5.393 6.104 10.601 12.365 15.621 18.775-107.306 20.211-106.468 126.036 28.016 229.841l-98.374 73.014c-3.925-11.565-8.103-22.374-12.494-32.46l-386.008 272.145c-37.368 21.583-61.038-22.483-31.488-41.492l392.691-276.867c-65.452-98.353-156.97-77.553-197.443 29.487-107.85-91.245-57.818-254.533 45.811-326.736 94.457-65.839 235.319-51.993 297.27 63.195 136.627 115.254 202.876 305.972 154.172 493.345zM514.816 907.050c0.49-0.042 0.982-0.087 1.472-0.129-0.49 0.042-0.98 0.087-1.472 0.129zM528.205 905.756c0.579-0.064 1.158-0.125 1.737-0.189-0.579 0.064-1.158 0.125-1.737 0.189zM542.171 904.058c0.343-0.047 0.688-0.089 1.032-0.136-0.345 0.049-0.689 0.090-1.032 0.136zM560.267 763.661c-2.88 1.498-5.771 2.955-8.674 4.384 2.903-1.429 5.796-2.886 8.674-4.384zM548.484 769.549c-2.097 1.012-4.198 2.011-6.306 2.988 2.107-0.977 4.208-1.976 6.306-2.988zM538.771 774.1c-2.153 0.977-4.314 1.931-6.479 2.871 2.165-0.94 4.325-1.894 6.479-2.871zM529.298 778.273c-3.112 1.325-6.234 2.62-9.368 3.872 3.134-1.25 6.254-2.547 9.368-3.872zM518.72 782.615c-2.772 1.098-5.555 2.167-8.343 3.206 2.788-1.039 5.568-2.108 8.343-3.206zM507.225 786.972c-2.204 0.803-4.412 1.591-6.626 2.358 2.214-0.766 4.422-1.554 6.626-2.358zM464.966 800.064c-2.363 0.607-4.728 1.196-7.098 1.765 2.369-0.569 4.735-1.158 7.098-1.765zM497.272 790.473c-2.349 0.793-4.703 1.564-7.063 2.317 2.359-0.755 4.713-1.524 7.063-2.317zM487.541 793.647c-3.241 1.014-6.489 1.996-9.746 2.935 3.258-0.939 6.507-1.919 9.746-2.935zM476.411 796.97c-2.809 0.8-5.624 1.574-8.445 2.319 2.819-0.746 5.635-1.519 8.445-2.319zM238.617 802.15c-7.059-1.631-14.078-3.418-21.054-5.359 6.976 1.941 13.996 3.728 21.054 5.359zM346.614 814.697c-3.253-0.012-6.504-0.060-9.755-0.137 3.249 0.077 6.502 0.125 9.755 0.137zM335.126 814.515c-3.049-0.084-6.095-0.194-9.142-0.336 3.045 0.141 6.092 0.253 9.142 0.336zM324.692 814.12c-7.114-0.348-14.219-0.85-21.305-1.511 7.086 0.661 14.189 1.163 21.305 1.511zM303.102 812.582c-3.358-0.315-6.711-0.669-10.061-1.054 3.348 0.385 6.701 0.738 10.061 1.054zM291.756 811.378c-3.258-0.383-6.51-0.795-9.758-1.243 3.248 0.448 6.502 0.862 9.758 1.243zM281.393 810.053c-7.138-0.994-14.252-2.143-21.335-3.45 7.083 1.307 14.195 2.458 21.335 3.45zM259.919 806.577c-3.385-0.626-6.761-1.29-10.13-1.988 3.368 0.696 6.745 1.362 10.13 1.988zM248.81 804.387c-3.385-0.706-6.763-1.444-10.131-2.222 3.37 0.778 6.748 1.516 10.131 2.222zM99.969 576.107c0.43 3.691 0.893 7.382 1.407 11.068-0.515-3.686-0.975-7.375-1.407-11.068zM97.349 545.094c0.055 1.032 0.102 2.066 0.164 3.099-0.062-1.032-0.109-2.065-0.164-3.099zM97.951 554.667c0.124 1.717 0.258 3.433 0.4 5.148-0.144-1.715-0.274-3.432-0.4-5.148zM98.828 565.22c0.211 2.247 0.447 4.494 0.689 6.74-0.243-2.245-0.477-4.493-0.689-6.74zM289.37 707.561c0.179 0.122 0.351 0.251 0.53 0.373h0.002c-0.179-0.122-0.353-0.251-0.532-0.373zM347.178 814.702c7.012 0.017 14.028-0.127 21.044-0.418-7.016 0.291-14.031 0.435-21.044 0.418zM454.807 802.555c-2.634 0.612-5.271 1.2-7.911 1.765 2.64-0.564 5.279-1.151 7.911-1.765zM444.883 804.76c-3.377 0.708-6.76 1.38-10.148 2.011 3.387-0.632 6.77-1.303 10.148-2.011zM433.5 806.991c-2.936 0.539-5.878 1.049-8.821 1.531 2.943-0.482 5.885-0.992 8.821-1.531zM422.013 808.943c-2.57 0.405-5.142 0.79-7.717 1.151 2.575-0.361 5.147-0.745 7.717-1.151zM411.686 810.459c-3.027 0.408-6.055 0.788-9.085 1.138 3.030-0.35 6.059-0.73 9.085-1.138zM401.631 811.714c-3.514 0.397-7.031 0.753-10.551 1.071 3.52-0.318 7.037-0.674 10.551-1.071zM390.157 812.86c-3.097 0.273-6.194 0.514-9.295 0.724 3.1-0.211 6.198-0.45 9.295-0.724zM378.634 813.73c-2.808 0.179-5.615 0.333-8.423 0.462 2.808-0.131 5.615-0.283 8.423-0.462zM583.278 896.892c0.666-0.142 1.329-0.296 1.993-0.442-0.664 0.146-1.329 0.3-1.993 0.442zM596.077 893.972c1.014-0.244 2.026-0.495 3.039-0.745-1.012 0.249-2.025 0.5-3.039 0.745zM609.001 890.686c1.083-0.289 2.163-0.576 3.244-0.872-1.081 0.296-2.163 0.582-3.244 0.872zM622.343 886.931c0.902-0.266 1.805-0.522 2.706-0.793-0.9 0.273-1.804 0.527-2.706 0.793zM650.489 877.765c0.843-0.301 1.68-0.624 2.522-0.929-0.842 0.305-1.68 0.626-2.522 0.929zM662.776 873.183c1.354-0.524 2.701-1.066 4.051-1.6-1.35 0.534-2.699 1.076-4.051 1.6zM675.042 868.252c1.489-0.619 2.977-1.248 4.462-1.882-1.486 0.634-2.972 1.263-4.462 1.882zM687.365 862.932c1.476-0.659 2.953-1.315 4.424-1.988-1.471 0.673-2.947 1.329-4.424 1.988zM700.041 857.063c1.268-0.607 2.542-1.2 3.807-1.819-1.265 0.619-2.538 1.211-3.807 1.819zM740.166 12.532c-1.17-0.669-2.336-1.344-3.514-2.003 1.178 0.658 2.342 1.334 3.514 2.003zM733.047 28.413c1.769 1.712 3.524 3.435 5.261 5.177-1.735-1.742-3.49-3.467-5.261-5.177zM714.208 11.297c-1.605-1.367-3.226-2.714-4.852-4.058 1.628 1.344 3.249 2.691 4.852 4.058zM755.167 51.546c-1.764-1.996-3.547-3.974-5.349-5.935 1.802 1.961 3.586 3.939 5.349 5.935zM749.67 45.451c-1.764-1.917-3.547-3.817-5.348-5.699 1.8 1.882 3.584 3.781 5.348 5.699zM744.048 39.462c-1.755-1.832-3.53-3.648-5.321-5.448 1.792 1.8 3.566 3.616 5.321 5.448zM732.448 27.829c-1.71-1.646-3.437-3.276-5.177-4.892 1.74 1.618 3.469 3.246 5.177 4.892zM726.474 22.192c-1.68-1.553-3.377-3.089-5.083-4.613 1.707 1.524 3.405 3.060 5.083 4.613zM720.396 16.682c-1.645-1.461-3.308-2.901-4.976-4.337 1.67 1.434 3.331 2.876 4.976 4.337zM695.038-4.059c-1.523-1.144-3.064-2.269-4.605-3.393 1.539 1.126 3.082 2.249 4.605 3.393zM707.917 6.045c-1.569-1.283-3.157-2.548-4.749-3.808 1.591 1.26 3.179 2.523 4.749 3.808zM701.53 0.929c-1.533-1.201-3.084-2.383-4.635-3.564 1.551 1.18 3.102 2.361 4.635 3.564zM697.722 270.194v0 0zM681.78-13.61c-2.237-1.543-4.489-3.064-6.76-4.563 3.305 1.25 6.586 2.54 9.85 3.86-3.263-1.32-6.544-2.61-9.85-3.86 2.271 1.499 4.524 3.020 6.76 4.563zM688.458-8.901c-1.578-1.136-3.172-2.25-4.769-3.363 1.596 1.113 3.192 2.225 4.769 3.363zM731.635 7.779c-1.4-0.761-2.799-1.521-4.21-2.267 1.411 0.746 2.809 1.508 4.21 2.267zM722.69 3.045c-1.549-0.798-3.104-1.59-4.665-2.371 1.561 0.781 3.116 1.573 4.665 2.371zM713.5-1.558c-1.687-0.822-3.382-1.628-5.080-2.429 1.7 0.8 3.393 1.608 5.080 2.429zM704.124-5.995c-1.851-0.85-3.713-1.678-5.578-2.505 1.864 0.825 3.728 1.655 5.578 2.505zM694.577-10.25c-2.127-0.917-4.268-1.807-6.413-2.694 2.145 0.887 4.288 1.777 6.413 2.694zM745.713 15.728c0.515 0.305 1.022 0.619 1.536 0.924-0.515-0.305-1.021-0.621-1.536-0.924zM769.81 30.979c0.243 0.164 0.489 0.323 0.73 0.489-0.241-0.164-0.487-0.325-0.73-0.489zM801.079 54.121c0.3 0.243 0.597 0.487 0.897 0.73-0.3-0.243-0.597-0.487-0.897-0.73zM777.338 36.19c0.47 0.333 0.944 0.661 1.414 0.994-0.47-0.333-0.944-0.661-1.414-0.994zM785.281 41.925c0.494 0.363 0.987 0.726 1.477 1.093-0.49-0.365-0.986-0.728-1.477-1.093zM793.219 47.919c0.44 0.34 0.88 0.683 1.32 1.024-0.44-0.343-0.88-0.684-1.32-1.024z"/>
</svg>