<svg xmlns="http://www.w3.org/2000/svg" viewBox="0 -64 1024 1000" style="transform: scaleY(-1);">
<path fill="currentColor" d="M439.752 261.428l264.7 264.698-14.104 14.104 60.015 60.013-87.232 87.234-60.015-60.015-14.105 14.105-10.92-10.92c-37.888 75.191-30.805 166.974 37.033 282.885l-0.002 0.003c-329.678 132.36-685.271-269.162-571.215-583.966 106.837 62.11 217.013 88.614 299.25 66.146l-18.846-18.846 14.105-14.105-316.969-316.967v-90.817h83.649l320.552 320.552 14.104-14.104zM978.495 550.161c-117.528-68.782-210.087-75.332-285.749-35.741l-232.906-232.906c24.15-82.545-2.302-194.184-65.31-302.568 314.802-114.055 716.326 241.539 583.966 571.215z"/>
</svg>