<svg xmlns="http://www.w3.org/2000/svg" viewBox="0 -64 1024 1000" style="transform: scaleY(-1);">
<path fill="currentColor" d="M515.129 906.055c-250.462 0-453.513-203.053-453.513-453.522s203.043-453.513 453.513-453.513 453.512 203.044 453.512 453.512-203.049 453.523-453.512 453.523zM779.030 161.155c69.42 102.113 82.247 245.712 29.11 379.984-19.859-41.358-62.13-69.913-111.075-69.913-68.012 0-123.147 55.134-123.147 123.146 0 38.818 17.979 73.421 46.045 95.992-18.429 8.857-31.645 26.828-33.807 48.070-10.126-11.946-25.232-19.536-42.119-19.536-30.488 0-55.204 24.715-55.204 55.202 0 18.193 8.805 34.327 22.383 44.384-31.799 8.712-64.126 13.133-96.141 12.968 33.167 9.132 68.088 14.037 104.159 14.037 216.209 0 391.49-175.284 391.49-391.499 0-116.515-50.918-221.121-131.693-292.836z"/>
</svg>