<svg xmlns="http://www.w3.org/2000/svg" viewBox="0 -64 1024 1000" style="transform: scaleY(-1);">
<path fill="currentColor" d="M495.843 182.251c130.325-120.277 302.711-198.098 492.342-207.008-8.613 190.080-86.786 362.038-207.018 492.354 15.789-62.725 23.617-131.032 21.748-203.935-11.169 11.236-22.376 22.473-33.688 33.789-31.186 31.186-62.681 62.117-94.367 92.686l53.201 106.795-108.46-54.031c-37.238 35.184-74.645 69.774-112.035 103.598l50.532 101.436-105.282-52.448c-37.32 33.022-74.531 65.189-111.447 96.313l42.813 85.939-91.331-45.499c-34.058 28.061-67.788 55.152-101.044 81.132l36.483 73.235-79.859-39.782c-35.543 27.055-70.454 52.735-104.537 76.838 23.991-33.889 49.53-68.558 76.411-103.822l-40.917-82.134 75.372 37.547c25.657-32.76 52.386-65.96 80.064-99.473l-47.054-94.454 88.966 44.319c30.299-35.817 61.589-71.907 93.695-108.11l-56.853-114.123 110.072 54.835c33.142-36.483 67.028-72.991 101.493-109.366l-54.467-109.336 107.757 53.681c43.097-44.547 86.941-88.762 131.236-132.345-76.595-2.873-148.427 4.759-213.826 21.369z"/>
</svg>