<svg xmlns="http://www.w3.org/2000/svg" viewBox="0 -64 1024 1000" style="transform: scaleY(-1);">
<path fill="currentColor" d="M977.289 448.15c0 257.99-209.14 467.128-467.126 467.128s-467.124-209.14-467.124-467.128c0-90.997 26.046-175.899 71.052-247.708-22.485 52.227-34.96 109.778-34.96 170.25 0 238.024 192.956 430.979 430.975 430.979s430.977-192.955 430.977-430.979c0-60.707-12.577-118.47-35.227-170.859 45.24 71.937 71.433 157.063 71.433 248.317zM510.106 735.156l-135.208-395.585-203.457 56.584v-392.633l145.104 153.319 75.21-57.917 27.69-120.919h181.383l27.701 120.972 75.136 57.862 145.101-153.316v392.631l-203.45-56.581-135.21 395.581zM577.011 320.578v0c0.094-2.258 0.177-4.544 0.251-6.847 0.012-0.347 0.020-0.698 0.030-1.046 0.058-1.906 0.109-3.829 0.15-5.766 0.012-0.535 0.023-1.071 0.033-1.607 0.037-1.883 0.067-3.779 0.089-5.69 0.005-0.448 0.012-0.892 0.017-1.341 0.023-2.372 0.037-4.763 0.037-7.18h-135.031c0 2.345 0.013 4.664 0.035 6.968 0.007 0.68 0.017 1.353 0.025 2.030 0.020 1.655 0.045 3.301 0.077 4.933 0.013 0.723 0.028 1.443 0.045 2.162 0.037 1.679 0.082 3.346 0.13 5.001 0.017 0.581 0.032 1.166 0.050 1.744 0.072 2.22 0.15 4.422 0.242 6.6 9.363 221.585 124.434 221.333 133.82 0.040z"/>
</svg>