<svg xmlns="http://www.w3.org/2000/svg" viewBox="0 -64 1024 1000" style="transform: scaleY(-1);">
<path fill="currentColor" d="M843.447 184.979l-31.159 78.095-238.559 214.851c117.55 57.344 251.473 51.33 284.749-104.43 183.187 144.942 144.574 360.096 7.14 553.992 34.783-99.731-37.968-199.089-148.67-102.605 51.385-112.249-57.379-182.222-131.84-116.881 35.097-113.958-33.329-155.045-103.665-146.96l-133.282 120.037c41.216 36.861 86.362 69.682 135.121 97.833l-85.126 85.127-118.946-118.946c-80.59 33.206-141.995 98.401-188.909 187.746l-61.802-61.806c79.040-39.931 146.038-96.72 187.744-188.914l-118.946-118.944 86.293-85.127c28.284 48.992 61.245 94.746 98.471 136.675l123.618-137.582c6.385-69.873-35.192-136.271-147.319-101.359 65.349-75.283-4.624-185.242-116.875-133.294 96.483-111.917-2.883-185.464-102.604-150.304 193.898-138.952 409.052-177.986 553.996 7.22l-0.002 0.007c-155.123 33.503-161.729 167.926-105.141 286.409l211.694-235.605 77.433-30.897c-22.015-13.743-47.269-24.25-75.794-31.485l286.441-110.995-110.995 286.451c-7.51-29.616-18.541-55.709-33.067-78.308z"/>
</svg>