<svg xmlns="http://www.w3.org/2000/svg" viewBox="0 -64 1024 1000" style="transform: scaleY(-1);">
<path fill="currentColor" d="M452.007 928.008c-49.87 0-90.002-26.755-90.002-60.009v-29.992h-90.002c-59.106 0-119.994-60.913-119.994-119.994v-630.011c0-59.106 60.913-119.994 119.994-119.994h480c59.106 0 119.994 60.913 119.994 119.994v630.011c0 59.106-60.913 119.994-119.994 119.994h-90.002v29.992c0 33.23-40.132 60.009-90.002 60.009h-119.994zM272.004 717.988h480v-630.011h-480v630.011zM511.992 658.004v-209.995h-150.011l150.011-299.997v209.995h150.011l-150.011 299.997z"/>
</svg>