<svg xmlns="http://www.w3.org/2000/svg" viewBox="0 -64 1024 1000" style="transform: scaleY(-1);">
<path fill="currentColor" d="M946.36 876.538c-96.057-214.044-249.731-207.069-403.969-129.791l37.738 54.072c-24.775 37.484-69.871 64.654-111.516 76.848l-42.019-61.524c-35.132 24.011-69.513 49.773-102.428 75.388l-0.007-0.007c-3.961-6.034-7.641-11.869-11.080-17.538-67.845 38.349-157.474 55.396-258.245 55.396 99.809-40.31 178.113-93.819 213.146-184.851-2.030-27.668-0.309-55.657-0.309-89.808 11.86-6.567 23.398-13.461 34.574-20.65l-261.157-382.386 1.6-220.927 361.579 518.079c107.578-119.1 121.076-273.051-68.96-392.977 103.72-30.189 200.425-31.741 286.869-11.662l17.493 110.784 74.017-77.129c61.306 35.133 151.694 99.911 191.805 157.628l-64.083 110.751 109.616-30.319c67.267 103.392 74.48 327.516-4.664 460.623z"/>
</svg>