<svg xmlns="http://www.w3.org/2000/svg" viewBox="0 -64 1024 1000" style="transform: scaleY(-1);">
<path fill="currentColor" d="M402.012 928.008c-29.992 0-40.006-6.751-40.006-40.006v-29.992h-90.002c-59.106 0-69.998-10.918-69.998-69.998v-750.005c0-59.106 10.918-69.998 69.998-69.998h480c59.106 0 69.998 10.918 69.998 69.998v750.005c0 59.106-10.918 69.998-69.998 69.998h-90.002v29.992c0 33.23-9.989 40.006-40.006 40.006h-219.984zM272.004 717.988c0 80.013-9.989 69.998 69.998 69.998 40.006 0 310.011 0 340.003 0 80.013 0 69.998 9.989 69.998-69.998 0-40.006 0-570.002 0-610.008 0-80.013 9.989-69.998-69.998-69.998-40.006 0-299.997 0-340.003 0-80.013 0-69.998-9.989-69.998 69.998 0 40.031 0 570.027 0 610.008zM321.999 757.991h379.999c11.046 0 20-8.955 20-20v-110c0-11.046-8.955-20-20-20h-379.999c-11.046 0-20 8.955-20 20v110c0 11.046 8.955 20 20 20zM321.999 577.991h379.999c11.046 0 20-8.955 20-20v-110c0-11.046-8.955-20-20-20h-379.999c-11.046 0-20 8.955-20 20v110c0 11.046 8.955 20 20 20zM321.999 397.991h379.999c11.046 0 20-8.955 20-20v-110c0-11.046-8.955-20-20-20h-379.999c-11.046 0-20 8.955-20 20v110c0 11.046 8.955 20 20 20zM321.999 217.992h379.999c11.046 0 20-8.955 20-20v-110c0-11.046-8.955-20-20-20h-379.999c-11.046 0-20 8.955-20 20v110c0 11.045 8.955 20 20 20z"/>
</svg>