<svg xmlns="http://www.w3.org/2000/svg" viewBox="0 -64 1024 1000" style="transform: scaleY(-1);">
<path fill="currentColor" d="M918.904 345.435c-4.806 2.053-9.864 3.267-15.108 3.717l0.459 1.061-148.834 64.515c-0.030 0.013-0.060 0.022-0.090 0.035l-234.957 101.84v-121.504l180.824 33.822-6.067-23.452c0 0 0 0 0 0l-23.629-91.346-55.934-2.016c0 0 0 0 0-0.002l-95.194-3.429v-165.756l98.685-42.774c0.002-0.002 0.003-0.002 0.007-0.003v0l148.836-64.512 0.162 0.374c3.528-2.887 7.395-5.259 11.603-7.056 45.641-19.491 113.809 35.559 152.259 122.954s32.621 174.042-13.021 193.533zM919.971 157.009c-17.298-39.32-46.379-64.764-64.953-56.833s-19.606 46.237-2.309 85.557c17.298 39.32 46.379 64.764 64.953 56.833s19.606-46.237 2.309-85.557zM333.41 889.949c-95.882 0-173.611-39.991-173.611-89.324 0-1.448 0.074-2.888 0.205-4.32v-183.931c-25.398-22.269-49.697-56.131-67.482-97.161-36.929-85.199-32.115-169.77 10.287-191.206l-0.035-0.082 2.491-1.079c0.003-0.002 0.007-0.003 0.010-0.005v0l58.874-25.518v-226.824h-0.005c0-0.068 0.005-0.135 0.005-0.202v-2.526h0.085c2.806-47.43 78.487-85.478 171.342-85.478s168.537 38.048 171.342 85.478h0.092v724.918h-0.68c0.448 2.614 0.69 5.26 0.69 7.935 0 49.332-77.729 89.324-173.611 89.324zM333.406 877.026c43.138 0 78.108-16.274 78.108-36.351s-34.97-36.349-78.108-36.349c-43.137 0-78.108 16.274-78.108 36.349s34.97 36.351 78.108 36.351zM240.435 350.277v0l-23.724 24.927 73.583 25.7-117.606 174.174 117.139 18.407 113.388-237.743-47.76-23.654 103.307-211.208-218.326 229.398z"/>
</svg>