<svg xmlns="http://www.w3.org/2000/svg" viewBox="0 -64 1024 1000" style="transform: scaleY(-1);">
<path fill="currentColor" d="M998.068 876.48c-168.34-35.635-310.788-173.838-379.114-343 99.403-79.366 66.806-218.453-30.93-268.853-21.135 13.908-46.419 22.025-73.609 22.025-27.195 0-52.483-8.118-73.618-22.030-97.739 50.4-130.337 189.49-30.934 268.859-68.326 169.16-210.772 307.364-379.112 342.998 83.338-85.081 105.083-256.885 26.871-349 127.427-21.441 151.153-122.412 128.678-274.532 66.801 41.693 149.033 24.369 199.837-61.226-3.78-12.395-5.83-25.545-5.83-39.176 0-74.064 60.043-134.107 134.107-134.107s134.107 60.043 134.107 134.107c0 13.634-2.050 26.789-5.833 39.186 50.804 85.588 133.033 102.911 199.832 61.218-22.476 152.12 1.25 253.090 128.678 274.532-78.213 92.113-56.469 263.918 26.87 348.999zM554.527 110.62c-43.262 0-78.333 35.072-78.333 78.333s35.072 78.333 78.333 78.333c9.958 0 19.473-1.878 28.236-5.267 0 0 0 0-0.002 0 3.647-1.41 7.161-3.087 10.522-5.003 0.035-0.020 0.070-0.040 0.104-0.060 3.286-1.881 6.421-3.994 9.386-6.316 0.112-0.089 0.226-0.175 0.337-0.266 0.693-0.55 1.38-1.108 2.053-1.679 0.045-0.038 0.089-0.077 0.132-0.115 2.038-1.736 3.982-3.578 5.833-5.511 0.19-0.199 0.383-0.398 0.571-0.598 0.516-0.551 1.024-1.109 1.523-1.674 0.215-0.244 0.428-0.493 0.641-0.74 1.535-1.779 2.988-3.628 4.362-5.543 0.261-0.364 0.523-0.725 0.778-1.094 0.356-0.515 0.703-1.036 1.047-1.56 0.281-0.428 0.556-0.859 0.829-1.293 0.314-0.499 0.63-1.001 0.932-1.507 0.336-0.563 0.66-1.136 0.982-1.707 0.384-0.68 0.757-1.366 1.121-2.058 0.331-0.63 0.66-1.26 0.974-1.899 0.222-0.453 0.434-0.914 0.65-1.371 0.277-0.595 0.55-1.193 0.812-1.796 0.195-0.448 0.389-0.895 0.576-1.348 0.297-0.718 0.58-1.442 0.855-2.17 0.129-0.339 0.266-0.673 0.389-1.014 0.378-1.039 0.73-2.088 1.064-3.147 0.117-0.368 0.222-0.742 0.332-1.113 0.227-0.758 0.446-1.52 0.65-2.289 0.109-0.409 0.215-0.82 0.317-1.233 0.2-0.805 0.386-1.617 0.561-2.432 0.074-0.339 0.152-0.677 0.221-1.017 0.229-1.139 0.436-2.287 0.615-3.445 0.038-0.244 0.065-0.491 0.1-0.737 0.137-0.939 0.257-1.883 0.361-2.833 0.042-0.388 0.079-0.777 0.114-1.166 0.080-0.857 0.145-1.717 0.197-2.583 0.022-0.369 0.048-0.735 0.065-1.106 0.055-1.211 0.092-2.426 0.092-3.65 0-1.051-0.038-2.093-0.079-3.134-0.025-0.566-0.048-1.133-0.084-1.697-2.501-41.005-36.535-73.497-78.173-73.497z"/>
</svg>