<svg xmlns="http://www.w3.org/2000/svg" viewBox="0 -64 1024 1000" style="transform: scaleY(-1);">
<path fill="currentColor" d="M950.514 252.444c35.787 99.373 23.567 201.818-41.884 267.271-20.502 20.498-45.477 35.89-72.002 46.108 51.227-68.352 53.607-167.477 11.712-260.198 2.588 5.726 5.008 11.476 7.257 17.241l-90.257 66.963c31.48 83.557 21.955 170.32-33.141 225.415-16.975 16.969-37.652 29.718-59.613 38.169 40.542-54.085 44.134-131.451 14.084-205.216l-74.785 55.485c-0.003-0.007-0.005-0.013-0.008-0.020 28.913 71.665 21.753 146.972-25.612 194.333-14.221 14.221-31.54 24.898-49.937 31.983 37.96-50.654 37.247-125.671 1.721-193.599 2.82 5.394 5.422 10.831 7.803 16.297l-73.985 54.892c22.042 55.983 16.16 114.548-20.802 151.517-11.202 11.197-24.848 19.615-39.338 25.199 29.597-39.495 29.328-97.783 2.192-150.855 2.152 4.21 4.139 8.453 5.952 12.716l-75.15 55.755c21.514 46.873 18.181 97.414-13 128.586-8.904 8.887-19.722 15.592-31.238 20.016 23.138-30.87 23.305-76.209 2.748-117.822l-60.892 45.178c-0.007-0.012-0.013-0.023-0.018-0.033 20.772 38.648 19.591 82-6.458 108.053-6.968 6.947-15.449 12.189-24.446 15.666 19.459-25.969 18.158-65.015-1.731-99.46l-59.18 43.903c1.545 5.209 2.387 10.719 2.387 16.429 0 31.879-25.844 57.723-57.722 57.723s-57.722-25.849-57.722-57.723 25.844-57.717 57.722-57.717c5.451 0 10.716 0.772 15.716 2.183l42.694-57.912c-32.775-16.474-68.625-16.493-92.974 1.761l-0.003-0.008c3.466-9.006 8.695-17.488 15.657-24.447 24.626-24.628 64.684-27.008 101.648-9.659-0.117-0.055-0.232-0.117-0.349-0.172l45.996-62.392c-41.052-19.56-85.426-19.033-115.797 3.727l-0.007-0.007c4.437-11.506 11.12-22.343 20.009-31.24 30.693-30.695 80.134-34.375 126.378-13.965l57.040-77.371c2.578 1.164 5.147 2.399 7.704 3.687-52.802-26.627-110.604-26.704-149.85 2.708l-0.005-0.003c5.579-14.5 13.997-28.142 25.196-39.348 37.826-37.826 98.267-43.102 155.416-19.217l53.002-71.892c1.766 0.742 3.526 1.512 5.285 2.299-64.073-28.682-132.445-26.896-179.654 8.481 7.083-18.394 17.76-35.708 31.97-49.924 46.65-46.653 120.404-54.307 191.090-26.903l55.222-74.907c2.404 0.944 4.804 1.923 7.201 2.937-74.869-31.701-153.929-28.674-208.929 12.544 8.453-21.967 21.198-42.639 38.17-59.611 54.252-54.255 139.209-64.332 221.577-34.57l66.66-90.421c2.746 1.031 5.488 2.11 8.225 3.217-88.841-35.925-181.903-31.457-247.033 17.353v-0.005c10.213-26.525 25.607-51.506 46.108-72.004 64.455-64.449 164.775-77.274 262.714-43.477-0.010-0.003-0.022-0.008-0.032-0.012l23.504-31.881h256.548v255.382l-30.755 22.819zM946.966 243.021c-0.15-0.383-0.306-0.765-0.458-1.148 0.152 0.383 0.307 0.765 0.458 1.148zM943.154 233.682c-0.192-0.453-0.381-0.907-0.575-1.36 0.195 0.454 0.384 0.907 0.575 1.36zM934.217 214.125c-0.271-0.551-0.545-1.101-0.819-1.652 0.272 0.55 0.548 1.101 0.819 1.652zM929.303 204.467c-0.177-0.336-0.347-0.673-0.526-1.009 0.177 0.336 0.349 0.673 0.526 1.009zM923.848 194.449c-0.204-0.362-0.418-0.723-0.623-1.086 0.207 0.362 0.419 0.723 0.623 1.086zM918.742 185.674c-0.374-0.628-0.75-1.255-1.129-1.881 0.379 0.626 0.755 1.255 1.129 1.881zM906.594 166.572c-0.424-0.628-0.859-1.255-1.286-1.883 0.429 0.628 0.862 1.253 1.286 1.883zM900.505 157.815c-0.438-0.613-0.87-1.228-1.311-1.839 0.441 0.611 0.874 1.226 1.311 1.839zM893.035 147.652c-0.227-0.299-0.463-0.595-0.692-0.894 0.229 0.299 0.464 0.595 0.692 0.894zM886.664 139.5c-0.583-0.73-1.171-1.458-1.761-2.185 0.59 0.727 1.178 1.455 1.761 2.185zM879.357 130.61c-0.396-0.469-0.783-0.942-1.183-1.412 0.399 0.468 0.787 0.942 1.183 1.412zM774.568 197.143c-2.187-2.289-4.393-4.567-6.647-6.821-2.315-2.315-4.656-4.582-7.008-6.826 2.352 2.243 4.692 4.51 7.006 6.826 2.253 2.253 4.464 4.532 6.648 6.821zM848.126 305.149c-2.578-5.683-5.319-11.341-8.227-16.965 2.908 5.624 5.65 11.284 8.227 16.965zM839.703 287.812c-1.38-2.661-2.798-5.315-4.253-7.961 1.455 2.646 2.873 5.3 4.253 7.961zM835.116 279.237c-3.004-5.441-6.166-10.845-9.482-16.207 3.314 5.362 6.478 10.766 9.482 16.207zM824.898 261.844c-1.574-2.524-3.176-5.040-4.818-7.544 1.642 2.502 3.244 5.018 4.818 7.544zM819.883 253.995c-1.734-2.639-3.51-5.265-5.32-7.88 1.809 2.614 3.587 5.24 5.32 7.88zM813.774 244.991c-1.532-2.195-3.090-4.38-4.676-6.557 1.584 2.177 3.144 4.362 4.676 6.557zM807.998 236.926c-3.663-4.978-7.469-9.904-11.413-14.774 3.944 4.869 7.751 9.796 11.413 14.774zM795.132 220.371c-1.654-2.018-3.331-4.024-5.033-6.020 1.702 1.996 3.379 4.002 5.033 6.020zM789.016 213.073c-2.031-2.362-4.098-4.709-6.196-7.041 2.098 2.332 4.164 4.679 6.196 7.041zM781.486 204.57c-1.714-1.884-3.45-3.759-5.207-5.621 1.757 1.863 3.493 3.737 5.207 5.621zM755.326 366.269c0.027 0.055 0.052 0.109 0.077 0.164-0.025-0.053-0.050-0.109-0.077-0.164zM759.143 181.822c-2.046-1.929-4.104-3.834-6.177-5.71 2.073 1.876 4.131 3.78 6.177 5.71zM751.933 175.17c-2.389-2.147-4.794-4.251-7.216-6.328 2.422 2.076 4.829 4.183 7.216 6.328zM743.070 167.447c-2.016-1.711-4.044-3.396-6.082-5.058 2.038 1.66 4.066 3.348 6.082 5.058zM735.417 161.108c-2.464-1.988-4.941-3.942-7.434-5.858 2.492 1.916 4.97 3.87 7.434 5.858zM726.776 154.336c-2.155-1.644-4.32-3.257-6.496-4.848 2.177 1.59 4.342 3.204 6.496 4.848zM718.496 148.187c-2.559-1.849-5.128-3.672-7.714-5.446 2.586 1.774 5.155 3.598 7.714 5.446zM710.773 142.734c-2.563-1.759-5.14-3.468-7.726-5.153 2.586 1.686 5.163 3.396 7.726 5.153zM701.258 136.422c-2.407-1.55-4.823-3.075-7.248-4.564 2.426 1.488 4.841 3.014 7.248 4.564zM693.402 131.482c-2.654-1.62-5.322-3.197-7.997-4.742 2.676 1.545 5.342 3.12 7.997 4.742zM693.474 276.954c0.531 0.556 1.054 1.116 1.58 1.675-0.528-0.56-1.051-1.119-1.58-1.675zM699.521 283.46c0.498 0.548 0.999 1.094 1.492 1.645-0.493-0.551-0.994-1.098-1.492-1.645zM712.061 298.035c0.423 0.52 0.839 1.041 1.258 1.562-0.419-0.521-0.835-1.042-1.258-1.562zM717.555 304.967c0.359 0.466 0.723 0.929 1.081 1.397-0.357-0.468-0.72-0.93-1.081-1.397zM728.619 320.099c0.271 0.393 0.538 0.787 0.807 1.179-0.269-0.393-0.535-0.787-0.807-1.179zM733.563 327.472c0.19 0.292 0.384 0.583 0.573 0.875-0.189-0.292-0.383-0.583-0.573-0.875zM743.063 342.922c0.129 0.222 0.254 0.443 0.381 0.665-0.127-0.222-0.254-0.444-0.381-0.665zM747.415 350.692c0.045 0.084 0.092 0.169 0.139 0.252-0.047-0.084-0.094-0.169-0.139-0.252zM615.705 342.535c1.817 1.817 3.602 3.655 5.367 5.501-1.766-1.846-3.548-3.683-5.367-5.501-1.866-1.868-3.752-3.697-5.648-5.506 1.896 1.809 3.782 3.64 5.648 5.506zM686.665 448.182c-2.836-6.959-5.97-13.887-9.403-20.759 3.431 6.872 6.567 13.8 9.403 20.759zM677.178 427.254c-3.386-6.772-7.061-13.489-11.022-20.133 3.957 6.643 7.636 13.36 11.022 20.133zM665.809 406.542c-2.616-4.367-5.352-8.703-8.215-12.998 2.863 4.295 5.601 8.63 8.215 12.998zM657.223 392.991c-1.27-1.898-2.564-3.785-3.882-5.666 1.316 1.881 2.613 3.77 3.882 5.666zM652.627 386.308c-2.91-4.121-5.932-8.202-9.071-12.238 3.139 4.036 6.162 8.117 9.071 12.238zM642.696 372.976c-1.283-1.635-2.584-3.262-3.906-4.881 1.321 1.619 2.623 3.246 3.906 4.881zM637.688 366.743c-3.201-3.884-6.508-7.721-9.924-11.508 3.416 3.787 6.724 7.624 9.924 11.508zM626.493 353.842c-1.335-1.463-2.686-2.917-4.053-4.363 1.366 1.447 2.718 2.902 4.053 4.363zM681.13 264.619c-0.555-0.528-1.111-1.049-1.667-1.572 0.556 0.523 1.113 1.046 1.667 1.572zM674.296 258.281c-0.476-0.431-0.949-0.867-1.427-1.293 0.478 0.428 0.95 0.864 1.427 1.293zM666.308 251.253c-0.327-0.279-0.658-0.55-0.987-0.827 0.329 0.277 0.66 0.548 0.987 0.827zM659.598 245.691c-0.575-0.466-1.151-0.93-1.729-1.392 0.578 0.461 1.154 0.925 1.729 1.392zM651.875 239.605c-0.259-0.199-0.516-0.403-0.775-0.6 0.261 0.199 0.516 0.403 0.775 0.6zM644.193 233.892c-0.478-0.344-0.957-0.682-1.435-1.024 0.478 0.342 0.957 0.678 1.435 1.024zM637.042 228.871c-0.53-0.362-1.057-0.727-1.589-1.086 0.531 0.359 1.059 0.723 1.589 1.086zM621.259 218.694c-0.533-0.322-1.067-0.641-1.602-0.962 0.533 0.321 1.067 0.638 1.602 0.962zM606.499 491.27c-0.007-0.013-0.013-0.027-0.020-0.042 0.008 0.013 0.013 0.027 0.020 0.042zM603.672 485.387c-0.097-0.195-0.192-0.389-0.291-0.585 0.097 0.194 0.194 0.389 0.291 0.585zM600.403 478.989c-0.010-0.020-0.022-0.042-0.032-0.062 0.010 0.020 0.020 0.042 0.032 0.062zM593.711 467.058c-0.154-0.259-0.311-0.518-0.466-0.777 0.155 0.259 0.312 0.516 0.466 0.777zM590.23 461.355c-0.217-0.347-0.433-0.693-0.651-1.039 0.217 0.346 0.434 0.693 0.651 1.039zM586.202 455.101c-0.085-0.13-0.169-0.261-0.256-0.389 0.087 0.13 0.17 0.261 0.256 0.389zM582.040 448.992c-0.12-0.172-0.246-0.344-0.368-0.516 0.12 0.172 0.246 0.344 0.368 0.516zM578.182 443.632c-0.352-0.478-0.708-0.954-1.064-1.432 0.356 0.478 0.712 0.954 1.064 1.432zM574.065 438.178c-0.379-0.491-0.757-0.984-1.139-1.473 0.383 0.489 0.76 0.982 1.139 1.473zM569.194 432.034c-0.16-0.197-0.317-0.398-0.478-0.595 0.16 0.197 0.317 0.398 0.478 0.595zM548.807 409.474c-0.007-0.007-0.013-0.013-0.020-0.020-0.005-0.005-0.012-0.012-0.017-0.017 0.005 0.005 0.012 0.012 0.017 0.017 0.007 0.007 0.013 0.013 0.020 0.020zM564.354 426.249c-0.389-0.453-0.787-0.902-1.179-1.353 0.393 0.451 0.79 0.9 1.179 1.353zM559.852 421.137c-0.509-0.568-1.024-1.133-1.54-1.697 0.516 0.565 1.031 1.129 1.54 1.697zM555.043 415.917c-0.489-0.518-0.974-1.039-1.467-1.555 0.493 0.516 0.977 1.037 1.467 1.555zM608.625 335.674c-1.557-1.47-3.124-2.922-4.699-4.355 1.575 1.432 3.142 2.885 4.699 4.355zM602.768 330.263c-1.944-1.752-3.902-3.476-5.872-5.172 1.971 1.696 3.927 3.419 5.872 5.172zM596.052 324.375c-1.712-1.463-3.436-2.903-5.168-4.323 1.732 1.42 3.456 2.862 5.168 4.323zM589.498 318.921c-1.948-1.58-3.906-3.14-5.877-4.667 1.973 1.527 3.929 3.087 5.877 4.667zM583.513 314.167c-2.083-1.612-4.181-3.187-6.288-4.739 2.106 1.552 4.205 3.127 6.288 4.739zM576.139 308.637c-1.809-1.321-3.627-2.619-5.452-3.896 1.827 1.276 3.643 2.576 5.452 3.896zM569.7 304.050c-4.271-2.962-8.583-5.798-12.931-8.514 4.348 2.715 8.661 5.553 12.931 8.514zM555.768 294.913c-2.133-1.321-4.273-2.621-6.423-3.882 2.15 1.261 4.29 2.561 6.423 3.882zM549.313 291.011c-2.292-1.345-4.592-2.654-6.901-3.932 2.309 1.278 4.611 2.588 6.901 3.932zM493.028 474.011c-1.432-1.495-2.877-2.982-4.35-4.455-1.507-1.507-3.029-2.983-4.559-4.447 1.528 1.463 3.050 2.942 4.557 4.448 1.473 1.473 2.92 2.958 4.352 4.453zM537.942 536.173c-2.805-5.352-5.825-10.659-9.061-15.908 3.234 5.247 6.256 10.556 9.061 15.908zM528.663 519.912c-0.986-1.594-1.991-3.181-3.017-4.761 1.024 1.582 2.031 3.169 3.017 4.761zM525.292 514.603c-3.304-5.072-6.812-10.081-10.522-15.016 3.708 4.935 7.218 9.944 10.522 15.016zM514.096 498.699c-1.022-1.348-2.060-2.689-3.11-4.026 1.052 1.336 2.090 2.678 3.11 4.026zM510.288 493.786c-2.541-3.201-5.167-6.368-7.881-9.493 2.715 3.125 5.341 6.293 7.881 9.493zM501.73 483.521c-1.109-1.268-2.232-2.531-3.369-3.785 1.136 1.256 2.26 2.517 3.369 3.785zM497.285 478.56c-1.084-1.183-2.183-2.36-3.293-3.53 1.109 1.169 2.208 2.347 3.293 3.53zM543.754 404.548c-0.513-0.489-1.029-0.971-1.544-1.455 0.515 0.484 1.031 0.966 1.544 1.455zM538.509 399.665c-0.545-0.496-1.089-0.992-1.635-1.483 0.546 0.489 1.091 0.987 1.635 1.483zM532.468 394.306c-0.271-0.234-0.538-0.474-0.81-0.707 0.272 0.234 0.54 0.473 0.81 0.707zM526.398 389.204c-0.486-0.398-0.976-0.785-1.463-1.179 0.486 0.394 0.977 0.782 1.463 1.179zM520.952 384.869c-0.563-0.439-1.128-0.875-1.692-1.31 0.565 0.433 1.129 0.87 1.692 1.31zM514.957 380.324c-0.386-0.284-0.768-0.576-1.154-0.859 0.386 0.282 0.768 0.573 1.154 0.859zM508.298 375.543c-0.388-0.271-0.78-0.531-1.169-0.798 0.389 0.267 0.78 0.53 1.169 0.798zM502.684 371.746c-0.548-0.362-1.098-0.722-1.649-1.079 0.551 0.357 1.101 0.717 1.649 1.079zM496.657 367.876c-0.436-0.272-0.869-0.55-1.305-0.819 0.436 0.269 0.87 0.546 1.305 0.819zM489.607 363.599c-0.185-0.109-0.371-0.212-0.556-0.319 0.184 0.109 0.371 0.212 0.556 0.319zM469.794 602.509c0.018 0.042 0.035 0.084 0.053 0.125-0.018-0.042-0.035-0.084-0.053-0.125zM483.042 464.088c-1.199-1.136-2.407-2.26-3.62-3.369 1.213 1.109 2.419 2.232 3.62 3.369zM478.248 459.647c-1.442-1.305-2.892-2.593-4.35-3.859 1.458 1.266 2.908 2.554 4.35 3.859zM473.601 455.527c-1.592-1.378-3.196-2.73-4.808-4.064 1.612 1.335 3.216 2.686 4.808 4.064zM467.791 450.646c-1.275-1.044-2.552-2.073-3.839-3.089 1.286 1.014 2.566 2.045 3.839 3.089zM462.681 446.557c-1.37-1.071-2.746-2.125-4.129-3.164 1.383 1.039 2.76 2.095 4.129 3.164zM457.832 442.848c-1.657-1.236-3.324-2.451-4.998-3.642 1.674 1.191 3.341 2.404 4.998 3.642zM452.109 438.697c-1.413-0.999-2.83-1.98-4.253-2.945 1.423 0.966 2.841 1.948 4.253 2.945zM446.609 434.914c-1.376-0.924-2.76-1.833-4.146-2.725 1.388 0.892 2.77 1.801 4.146 2.725zM441.561 431.603c-1.729-1.104-3.465-2.188-5.207-3.246 1.742 1.057 3.476 2.142 5.207 3.246zM436.256 428.298c-1.657-1.006-3.323-1.983-4.991-2.945 1.669 0.962 3.334 1.941 4.991 2.945zM430.147 424.715c-1.427-0.814-2.855-1.61-4.288-2.392 1.433 0.782 2.863 1.58 4.288 2.392zM424.892 421.795c-3.508-1.894-7.036-3.695-10.581-5.402 3.545 1.707 7.073 3.508 10.581 5.402zM425.414 535.75c0.336 0.352 0.667 0.707 1.001 1.061-0.332-0.352-0.663-0.708-1.001-1.061zM429.241 539.859c0.352 0.388 0.705 0.773 1.054 1.163-0.349-0.389-0.702-0.775-1.054-1.163zM433.367 544.508c0.174 0.202 0.352 0.403 0.526 0.605-0.172-0.202-0.352-0.403-0.526-0.605zM437.442 549.349c0.194 0.237 0.383 0.476 0.575 0.715-0.192-0.239-0.381-0.478-0.575-0.715zM440.845 553.619c0.277 0.356 0.553 0.713 0.827 1.069-0.274-0.356-0.55-0.713-0.827-1.069zM444.354 558.243c0.189 0.254 0.379 0.508 0.566 0.763-0.185-0.254-0.378-0.508-0.566-0.763zM451.165 567.967c0.157 0.239 0.312 0.478 0.469 0.717-0.157-0.239-0.312-0.478-0.469-0.717zM454.175 572.647c0.135 0.215 0.271 0.429 0.404 0.645-0.132-0.215-0.269-0.429-0.404-0.645zM460.135 582.74c0.010 0.018 0.020 0.038 0.032 0.057-0.010-0.018-0.022-0.037-0.032-0.057zM462.673 587.461c0.070 0.135 0.14 0.271 0.212 0.406-0.072-0.135-0.142-0.271-0.212-0.406zM374.325 579.257c-0.045-0.045-0.087-0.092-0.132-0.137-0.042-0.042-0.085-0.080-0.127-0.122 0.042 0.042 0.085 0.082 0.127 0.124 0.045 0.045 0.087 0.090 0.132 0.135zM413.496 632.602c-2.023-3.912-4.193-7.794-6.508-11.638 2.314 3.845 4.489 7.726 6.508 11.638zM405.755 618.938c-0.667-1.079-1.333-2.158-2.023-3.231 0.69 1.072 1.358 2.152 2.023 3.231zM400.755 611.199c-0.59-0.869-1.198-1.731-1.802-2.594 0.605 0.864 1.213 1.726 1.802 2.594zM396.624 605.345c-0.526-0.723-1.046-1.448-1.584-2.168 0.538 0.72 1.057 1.445 1.584 2.168zM391.211 598.217c-0.491-0.618-0.991-1.233-1.49-1.848 0.499 0.615 1.001 1.229 1.49 1.848zM386.113 592.032c-0.307-0.359-0.603-0.722-0.914-1.079 0.311 0.357 0.608 0.722 0.914 1.079zM380.557 585.769c-0.436-0.473-0.875-0.944-1.316-1.413 0.441 0.471 0.88 0.94 1.316 1.413zM417.697 528.024c-0.342-0.327-0.687-0.646-1.031-0.972 0.342 0.326 0.688 0.645 1.031 0.972zM413.793 524.379c-0.408-0.373-0.817-0.743-1.226-1.113 0.409 0.369 0.819 0.74 1.226 1.113zM409.694 520.721c-0.368-0.321-0.733-0.643-1.101-0.961 0.369 0.317 0.735 0.64 1.101 0.961zM404.919 516.658c-0.1-0.082-0.197-0.167-0.297-0.249 0.099 0.080 0.197 0.165 0.297 0.249zM400.422 513.032c-0.177-0.139-0.356-0.274-0.533-0.413 0.177 0.139 0.356 0.272 0.533 0.413zM396.27 509.849c-0.312-0.234-0.626-0.466-0.94-0.698 0.314 0.232 0.628 0.464 0.94 0.698zM391.93 506.677c-0.282-0.2-0.563-0.403-0.845-0.603 0.282 0.199 0.563 0.401 0.845 0.603zM387.020 503.264c-0.042-0.028-0.084-0.058-0.125-0.087 0.042 0.028 0.084 0.058 0.125 0.087zM377.889 497.421c-0.102-0.062-0.202-0.122-0.304-0.182 0.1 0.062 0.202 0.12 0.304 0.182zM341.55 695.39c-0.334-0.651-0.695-1.295-1.039-1.944 0.344 0.65 0.707 1.295 1.039 1.944zM338.064 688.947c-0.444-0.783-0.914-1.56-1.373-2.34 0.459 0.78 0.929 1.557 1.373 2.34zM334.252 682.566c-0.515-0.824-1.046-1.64-1.577-2.459 0.531 0.819 1.062 1.635 1.577 2.459zM330.111 676.257c-0.566-0.825-1.141-1.649-1.724-2.469 0.583 0.82 1.158 1.642 1.724 2.469zM325.622 670.009c-0.6-0.798-1.198-1.597-1.812-2.39 0.616 0.793 1.214 1.592 1.812 2.39zM320.746 663.797c-0.603-0.735-1.194-1.475-1.811-2.203 0.616 0.73 1.209 1.468 1.811 2.203zM315.329 657.479c-0.526-0.586-1.034-1.183-1.57-1.766 0.536 0.583 1.044 1.179 1.57 1.766zM308.157 649.868c-1.532-1.528-3.085-3.014-4.652-4.474 1.567 1.462 3.12 2.945 4.652 4.474zM300.274 726.994c1.007 1.851 1.976 3.708 2.9 5.576-0.924-1.868-1.893-3.725-2.9-5.576zM302.538 644.491c-1.5-1.38-3.017-2.726-4.545-4.043 1.528 1.318 3.045 2.663 4.545 4.043zM296.711 639.359c-1.495-1.263-2.998-2.507-4.519-3.712 1.52 1.206 3.024 2.447 4.519 3.712zM290.819 634.583c-1.161-0.902-2.329-1.787-3.503-2.656 1.173 0.869 2.342 1.752 3.503 2.656zM285.357 630.487c-1.265-0.909-2.537-1.794-3.815-2.664 1.278 0.872 2.552 1.754 3.815 2.664zM279.111 626.194c-0.945-0.62-1.894-1.224-2.845-1.824 0.949 0.6 1.899 1.204 2.845 1.824zM272.456 622.037c-0.506-0.301-1.014-0.598-1.523-0.894 0.509 0.296 1.017 0.591 1.523 0.894zM271.061 687.978c1.51 1.518 2.987 3.055 4.425 4.611-1.438-1.557-2.915-3.092-4.425-4.611zM276.984 694.259c1.049 1.163 2.095 2.327 3.104 3.508-1.011-1.181-2.055-2.345-3.104-3.508zM281.628 699.62c0.957 1.153 1.909 2.307 2.831 3.475-0.922-1.169-1.873-2.324-2.831-3.475zM285.893 704.949c0.92 1.199 1.831 2.404 2.713 3.618-0.884-1.213-1.792-2.417-2.713-3.618zM289.871 710.339c0.905 1.28 1.792 2.566 2.656 3.86-0.864-1.295-1.749-2.581-2.656-3.86zM293.589 715.809c0.907 1.393 1.787 2.795 2.644 4.201-0.857-1.407-1.737-2.808-2.644-4.201zM297.057 721.363c0.93 1.56 1.827 3.127 2.698 4.702-0.872-1.575-1.767-3.144-2.698-4.702zM270.388 687.302c-1.594-1.587-3.209-3.132-4.841-4.641 1.634 1.507 3.249 3.054 4.841 4.641zM263.833 681.123c-1.198-1.077-2.399-2.147-3.617-3.184 1.216 1.037 2.419 2.106 3.617 3.184zM258.322 676.364c-1.203-0.997-2.412-1.978-3.633-2.935 1.221 0.957 2.431 1.939 3.633 2.935zM252.858 672.015c-1.31-0.999-2.628-1.973-3.954-2.927 1.326 0.952 2.644 1.928 3.954 2.927zM247.34 667.971c-1.55-1.087-3.112-2.142-4.682-3.167 1.57 1.024 3.13 2.080 4.682 3.167zM239.955 773.609c-0.050-0.087-0.102-0.174-0.154-0.261 0.052 0.087 0.102 0.174 0.154 0.261zM237.376 769.372c-0.114-0.179-0.229-0.357-0.344-0.536 0.114 0.179 0.231 0.357 0.344 0.536zM234.605 765.168c-0.2-0.292-0.406-0.581-0.61-0.872 0.202 0.289 0.409 0.58 0.61 0.872zM231.629 760.99c-0.316-0.428-0.646-0.85-0.969-1.276 0.324 0.426 0.653 0.849 0.969 1.276zM228.447 756.847c-0.481-0.605-0.986-1.199-1.478-1.797 0.494 0.598 0.996 1.193 1.478 1.797zM208.081 799.404c0.54 0.884 1.079 1.767 1.594 2.658-0.515-0.89-1.056-1.774-1.594-2.658zM208.55 736.387c-0.605-0.511-1.218-1.001-1.826-1.5 0.608 0.499 1.223 0.989 1.826 1.5zM203.85 732.578c-0.605-0.469-1.216-0.924-1.824-1.381 0.608 0.458 1.219 0.91 1.824 1.381zM199.015 728.987c-0.583-0.414-1.168-0.82-1.754-1.223 0.586 0.403 1.173 0.809 1.754 1.223zM194.044 725.609c-0.538-0.349-1.077-0.697-1.619-1.036 0.541 0.341 1.081 0.687 1.619 1.036zM188.917 722.439c-0.468-0.274-0.932-0.553-1.402-0.822 0.468 0.269 0.934 0.548 1.402 0.822zM191.503 777.584c0.336 0.361 0.658 0.728 0.989 1.091-0.331-0.364-0.651-0.732-0.989-1.091zM194.714 781.154c0.434 0.499 0.855 1.004 1.28 1.508-0.426-0.504-0.845-1.009-1.28-1.508zM197.751 784.774c0.471 0.581 0.932 1.168 1.392 1.752-0.459-0.585-0.919-1.171-1.392-1.752zM200.617 788.437c0.488 0.646 0.969 1.295 1.443 1.944-0.474-0.65-0.956-1.298-1.443-1.944zM203.303 792.122c0.499 0.71 0.996 1.42 1.478 2.135-0.483-0.715-0.979-1.427-1.478-2.135zM205.804 795.804c0.511 0.78 1.021 1.559 1.512 2.345-0.491-0.787-1.001-1.565-1.512-2.345zM157.975 751.289c-1.425-0.788-2.857-1.545-4.296-2.27 1.438 0.725 2.87 1.483 4.296 2.27zM187.542 773.515c-1.096-1.084-2.2-2.152-3.319-3.189 1.119 1.036 2.223 2.105 3.319 3.189zM182.975 769.209c-0.919-0.832-1.841-1.66-2.775-2.461 0.935 0.8 1.856 1.629 2.775 2.461zM178.941 765.699c-0.957-0.8-1.916-1.594-2.887-2.362 0.972 0.768 1.931 1.564 2.887 2.362zM174.904 762.45c-1.032-0.798-2.068-1.584-3.114-2.347 1.046 0.76 2.081 1.549 3.114 2.347zM170.794 759.391c-1.123-0.803-2.25-1.587-3.388-2.349 1.138 0.76 2.265 1.547 3.388 2.349zM166.608 756.515c-1.223-0.807-2.454-1.589-3.692-2.347 1.238 0.758 2.469 1.542 3.692 2.347zM162.335 753.814c-1.326-0.803-2.661-1.577-4.002-2.324 1.341 0.747 2.674 1.522 4.002 2.324zM183.593 719.464c-0.356-0.187-0.708-0.384-1.064-0.568 0.356 0.184 0.71 0.379 1.064 0.568zM216.741 743.876c0.256 0.251 0.518 0.488 0.772 0.742 1.335 1.333 2.634 2.686 3.904 4.054-1.268-1.368-2.566-2.721-3.902-4.056-0.254-0.254-0.518-0.488-0.773-0.74zM211.422 738.905c0.565 0.504 1.138 0.992 1.697 1.508-0.56-0.516-1.131-1.004-1.697-1.508zM225.044 752.738c-0.753-0.877-1.537-1.739-2.317-2.604 0.78 0.865 1.564 1.729 2.317 2.604zM241.744 664.201c-5.935-3.824-12.002-7.2-18.145-10.13 6.142 2.93 12.209 6.311 18.145 10.13zM265.37 618.041c-0.269-0.144-0.536-0.289-0.805-0.429 0.269 0.14 0.536 0.286 0.805 0.429zM326.315 542.829c-1.985-1.106-3.976-2.173-5.977-3.204 2.001 1.031 3.992 2.1 5.977 3.204zM368.939 574.054c-0.414-0.389-0.829-0.78-1.246-1.164 0.418 0.386 0.83 0.777 1.246 1.164zM362.61 568.336c-0.464-0.404-0.934-0.797-1.4-1.196 0.466 0.399 0.935 0.792 1.4 1.196zM356.826 563.493c-0.431-0.349-0.859-0.708-1.291-1.052 0.433 0.346 0.86 0.703 1.291 1.052zM350.627 558.652c-0.705-0.531-1.412-1.057-2.12-1.577 0.708 0.52 1.415 1.047 2.12 1.577zM343.805 553.714c-0.819-0.568-1.644-1.116-2.467-1.669 0.824 0.553 1.649 1.103 2.467 1.669zM338.413 550.113c-1.385-0.9-2.776-1.777-4.173-2.638 1.397 0.86 2.788 1.741 4.173 2.638zM331.425 545.761c-1.098-0.653-2.197-1.291-3.299-1.919 1.103 0.628 2.202 1.268 3.299 1.919zM354.391 485.079c-0.003-0.002-0.007-0.003-0.008-0.003 0.003 0.002 0.005 0.003 0.008 0.003zM373.371 494.758c-0.132-0.075-0.264-0.152-0.394-0.226 0.13 0.074 0.262 0.15 0.394 0.226zM413.405 415.962c-1.498-0.715-2.998-1.412-4.504-2.093 1.505 0.682 3.005 1.38 4.504 2.093zM458.578 348.027c-0.453-0.192-0.905-0.386-1.36-0.575 0.454 0.19 0.907 0.384 1.36 0.575zM483.864 360.342c-0.504-0.279-1.009-0.553-1.513-0.829 0.504 0.276 1.011 0.55 1.513 0.829zM477.794 357.086c-0.448-0.234-0.895-0.469-1.343-0.7 0.449 0.229 0.895 0.466 1.343 0.7zM464.645 350.682c-0.431-0.195-0.864-0.386-1.295-0.578 0.431 0.192 0.864 0.383 1.295 0.578zM520.623 276.125c-2.274-1.031-4.552-2.035-6.834-3 2.282 0.966 4.56 1.969 6.834 3zM542.033 286.871c-2.133-1.178-4.273-2.322-6.418-3.441 2.145 1.119 4.285 2.263 6.418 3.441zM534.946 283.079c-4.56-2.364-9.148-4.597-13.755-6.697 4.607 2.1 9.194 4.333 13.755 6.697zM573.514 194.877c-0.446-0.177-0.892-0.357-1.338-0.533 0.446 0.175 0.89 0.356 1.338 0.533zM613.521 214.149c-0.383-0.217-0.763-0.441-1.146-0.656 0.383 0.215 0.763 0.439 1.146 0.656zM604.999 209.451c-0.264-0.14-0.53-0.274-0.795-0.414 0.266 0.14 0.531 0.274 0.795 0.414zM597.64 205.673c-0.515-0.256-1.027-0.513-1.544-0.765 0.515 0.252 1.029 0.509 1.544 0.765zM588.914 201.475c-0.040-0.018-0.080-0.038-0.122-0.057 0.040 0.018 0.082 0.038 0.122 0.057zM581.198 198.047c-0.416-0.179-0.832-0.351-1.248-0.526 0.414 0.175 0.832 0.347 1.248 0.526zM657.585 112.186c-5.486-2.579-10.997-5-16.524-7.267 5.528 2.267 11.038 4.689 16.524 7.267zM683.82 125.834c-2.312-1.32-4.629-2.614-6.953-3.877 2.324 1.263 4.641 2.556 6.953 3.877zM675.596 121.262c-2.708-1.458-5.422-2.878-8.145-4.26 2.723 1.381 5.439 2.801 8.145 4.26zM666.353 116.455c-2.4-1.208-4.806-2.382-7.216-3.53 2.41 1.148 4.818 2.324 7.216 3.53zM711.47 9.837c-0.125-0.047-0.251-0.094-0.374-0.14 0.125 0.047 0.249 0.092 0.374 0.14zM761.482 33.103c-0.197-0.109-0.393-0.214-0.59-0.322 0.195 0.109 0.394 0.214 0.59 0.322zM752.017 28.025c-0.334-0.174-0.668-0.351-1.004-0.523 0.336 0.172 0.67 0.349 1.004 0.523zM731.878 18.277c-0.284-0.127-0.568-0.254-0.852-0.381 0.284 0.127 0.568 0.254 0.852 0.381zM854.576 103.639c0.005 0.005 0.008 0.008 0.013 0.012 0.005 0.005 0.008 0.008 0.013 0.013-0.005-0.005-0.008-0.010-0.013-0.013-0.003-0.005-0.008-0.008-0.013-0.012zM770.893 38.497c0.256 0.15 0.509 0.307 0.763 0.458-0.254-0.15-0.508-0.307-0.763-0.458zM779.961 44.029c0.501 0.314 1.004 0.626 1.505 0.944-0.503-0.317-1.004-0.63-1.505-0.944zM799.118 56.805c0.628 0.444 1.255 0.892 1.879 1.34-0.625-0.448-1.251-0.895-1.879-1.34zM808.823 63.881c0.269 0.202 0.54 0.398 0.807 0.6-0.269-0.202-0.54-0.398-0.807-0.6zM818.049 71.023c0.633 0.503 1.261 1.016 1.893 1.523-0.631-0.508-1.26-1.021-1.893-1.523zM826.704 78.107c0.611 0.513 1.224 1.021 1.834 1.539-0.608-0.518-1.223-1.026-1.834-1.539zM836.586 86.647c0.488 0.436 0.971 0.884 1.458 1.323-0.488-0.439-0.971-0.887-1.458-1.323zM844.653 94.050c0.717 0.673 1.433 1.345 2.147 2.025-0.713-0.68-1.43-1.353-2.147-2.025zM871.319 121.349c-0.558-0.625-1.129-1.243-1.692-1.866 0.563 0.623 1.133 1.243 1.692 1.866zM864.027 113.413c-0.68-0.723-1.356-1.445-2.041-2.165 0.685 0.72 1.361 1.443 2.041 2.165z"/>
</svg>