<svg xmlns="http://www.w3.org/2000/svg" viewBox="0 -64 1024 1000" style="transform: scaleY(-1);">
<path fill="currentColor" d="M985.065 395.063l-2.093 19.261v38.81l-0.735-2.345c-0.91 6.687-2.694 13.2-5.346 19.493l-14.227 130.912-28.283-84.050c-12.268 7.786-26.819 14.587-43.536 20.216l-34.084 135.706-27.7-121.888c-22.742 2.995-47.866 4.387-75.305 3.911l-33.55 113.861-30.947-118.077c-22.565-2.472-46.331-6.049-71.267-10.831l-30.381 71.648-30.596-85.213c-9.908-2.497-19.954-5.15-30.174-8.005v-5.776c-3.445 0.758-7.019 1.171-10.691 1.171-2.594 0-5.142-0.202-7.629-0.586l1.909 11.045c-8.88 4.22-17.634 8.225-26.302 12.096l-9.969 93.653-48.866-69.356c-23.799 9.004-46.648 16.618-68.503 22.934l-7.253 117.033-55.476-101.832c-27.334 5.26-52.663 8.234-75.863 9.166l-6.54 124.824-56.696-127.92c-17.431-2.699-32.928-6.924-46.342-12.507l-13.556 87.638-36.313-126.577c-3.685-5.75-6.55-11.864-8.588-18.298l-0.326 2.436-6.608-38.244-5.342-18.622 2.36 1.37-14.717-85.161c-12.924-85.134 111.933-189.939 411.346-282.054 10.945-11.329 26.283-18.385 43.277-18.385 18.84 0 35.651 8.663 46.688 22.216v-16.588c312.664 39.649 454.362 121.898 456.131 208.246v86.424l2.093-1.752zM477.010 216.803c-7.267-0.374-14.191-2.041-20.552-4.769l0.312 1.811c-9.213 2.823-18.238 5.686-27.115 8.58l-7.659 80.388-50.325-60.142c-24.524 9.171-47.567 18.602-69.134 28.233l-5.105 135.32-57.879-104.503c-22.334 11.999-42.597 24.18-60.872 36.423l-8.028 156.286-49.688-111.736c-20.193 18.245-36.107 36.311-47.953 53.808l5.686 50.158c69.914 37.477 210.623 31.888 401.061-55.832 1.236-1.34 2.549-2.606 3.926-3.804-59.569-1.281-104.283-21.562-104.283-49.747 0-28.816 46.75-56.14 108.322-65.503l-10.714-94.97zM886.497 312.59l-29.935 118.569-34.527-152.641c-19.922-8.877-41.762-17.358-65.576-25.319l-33.618 104.959-33.014-124.472c-22.8-5.823-47.009-11.206-72.634-16.078l-36.532 73.426-24.895-83.699c-9.48-1.38-19.109-2.699-28.924-3.944v-8.72c-6.568 8.067-15.186 14.389-25.060 18.195l10.851 96.191c71.947-4.833 130.013 17.029 130.013 49.135 0 27.22-41.708 53.119-98.227 63.797 200.819 52.939 339.258 34.425 401.431-14.147l-2.937-50.393c-14.653-15.225-33.411-30.317-56.417-44.857z"/>
</svg>