<svg xmlns="http://www.w3.org/2000/svg" viewBox="0 -64 1024 1000" style="transform: scaleY(-1);">
<path fill="currentColor" d="M256.476 112.247l-51.537-107.741h772.164l-60.127 107.741h-37.078c-34.667 192.253-60.571 421.384-43.245 558.006 45.378 4.233 78.355 43.989 75.671 102.23-4.153 88.816-103.384 123.075-182.424 69.714-33.737 45.946-96.682 57.982-132.793 18.769-55.907 70.479-167.799 57.023-198.519-25.473-64.594 14.306-113.198-16.364-114.016-76.421-0.812-59.701 36.353-80.859 80.378-76.508 1.233-10.385 2.238-21.581 3.017-33.498-80.821 1.774-159.854 16.12-237.737 38.571-54.746-167.084-78.739-337.641-72.694-511.591 84.952-37.009 175.271-36.244 265.533-35.888-1.983-9.433-4.017-18.751-6.112-27.912h-60.481zM128.88 226.629c-4.652 133.539 13.805 242.878 55.904 373.484l0.003-0.002c60.662-14.438 122.232-18.043 185.217-13.907 0.558-107.742-11.62-248.513-33.72-376.742-70.479-3.8-141.066-8.399-207.404 17.166z"/>
</svg>