<svg xmlns="http://www.w3.org/2000/svg" viewBox="0 -64 1024 1000" style="transform: scaleY(-1);">
<path fill="currentColor" d="M932.124 295.843l42.757 2.76c-22.189 17.458-43.391 32.123-61.652 72.499-11.077 50.909-28.443 98.805-107.241 114.807 3.561-5.128 6.867-10.303 9.989-15.502-17.112 6.228-34.861 6.231-53.153 0.961 0.005 0.862 0.023 1.721 0.023 2.584 0 37.881-4.497 74.324-12.779 108.414 30.536-5.295 57.025 0.028 78.303 19.028-0.825-6.308-1.848-12.741-3.097-19.306 56.46 40.24 65.474 76.058 63.506 111.377 7.196 43.715 23.879 63.368 40.79 85.973l-48.536-9.709c0.546 22.374 6.692 45.607 26.771 70.598-142.268-10.744-71.072-78.754-76.892-209.793l-87.884-22.61c-24.302 78.432-69.306 141.999-125.656 178.009 3.324 2.324 6.448 4.764 9.386 7.297 13.040-13.631 31.395-22.134 51.748-22.134 39.557 0 71.625 32.065 71.625 71.623 0 39.562-32.068 71.627-71.625 71.627-17.729 0-33.942-6.456-46.451-17.127-25.692 25.426-70.542 42.286-121.614 42.286-51.060 0-95.899-16.85-121.594-42.265-12.505 10.659-28.709 17.106-46.427 17.106-39.557 0-71.625-32.068-71.625-71.627s32.068-71.623 71.625-71.623c20.341 0 38.69 8.494 51.728 22.112 2.935-2.527 6.055-4.963 9.373-7.282-56.432-36.066-101.478-99.771-125.752-178.365l-89.297 22.974c-5.82 131.039 65.376 199.049-76.892 209.793 19.962-24.843 26.148-47.951 26.758-70.205l-46.574 9.316c15.906-21.265 31.615-39.913 39.413-78.44-3.587-37.778 2.459-75.808 62.935-118.909-1.25 6.565-2.27 13-3.097 19.307 21.646-19.331 48.691-24.491 79.897-18.733-8.329-34.175-12.849-70.721-12.849-108.713 0-1.014 0.022-2.021 0.028-3.034-18.83 5.716-37.091 5.89-54.678-0.509 3.122 5.199 6.428 10.372 9.989 15.5-81.868-16.625-97.424-67.679-108.511-120.77-17.613-35.912-37.784-49.964-58.846-66.535l41.257-2.663c-9.375-23.502-24.157-44.102-51.392-58.107 133.031-47.582 95.364 77.238 151.064 201.066l72.438-0.723c3.68-48.649 14.787-94.29 31.742-134.784-34.569-9.555-58.999-27.361-69.883-56.193-45.044-46.489-24.559-76.907 15.221-114.516 13.163-38.155 8.815-62.464 5.623-89.193l39.602 34.793c7.013-29.106 3.476-50.034 0.768-72.706l43.414 38.147c13.937-17.48 26.851-37.073 37.397-59.459 45.619 136.164-94.848 153.5-121.829 241.794l58.664 57.506c45.216-92.791 122.528-153.959 210.319-153.959 87.473 0 164.547 60.722 209.83 152.947l57.631-56.494c-26.983-88.293-167.448-105.631-121.829-241.794 10.372 22.015 23.036 41.328 36.707 58.589l42.425-37.277c-2.706 22.673-6.244 43.601 0.77 72.707l39.602-34.793c-3.127 26.186-7.363 50.047 4.841 86.88 41.378 38.686 63.645 69.391 17.682 116.83-10.741 28.453-34.659 46.182-68.513 55.826 17.044 40.589 28.204 86.365 31.894 135.166l70.917 0.708c55.7-123.829 18.033-248.648 151.064-201.066-27.197 13.985-41.976 34.547-51.354 58.009zM352.69 347.772l-20.59 302.529 46.030 15.866-25.44-318.396zM433.164 238.598l-20.296 445.804 45.37 23.373-25.074-469.177zM594.834 238.598l-25.074 469.176 45.37-23.373-20.296-445.802zM649.866 666.167l46.030-15.866-20.59-302.529-25.44 318.396z"/>
</svg>