<svg xmlns="http://www.w3.org/2000/svg" viewBox="0 -64 1024 1000" style="transform: scaleY(-1);">
<path fill="currentColor" d="M852.913 924.003h-83.966l8.461-75.49h-525.21l8.438 75.285h-83.956l-155.097-691.514v-255.379h132.936l91.557 816.973h257.196v-80.609c-14.81-4.816-25.521-18.726-25.521-35.14 0-1.565 0.109-3.104 0.297-4.617-73.267-17.458-104.789-89.723-143.064-232.623l0.003-0.002c-37.442-139.79-96.687-126.343-96.675-218.349 0.008-49.832 109.747-81.432 238.425-86.982-1.712-4.899-2.654-10.161-2.654-15.646 0.003-26.18 21.233-47.405 47.418-47.408s47.406 21.215 47.403 47.393c0 5.621-0.986 11.010-2.781 16.011 125.304 6.416 230.664 37.704 230.657 86.559-0.015 91.996-59.25 78.567-96.739 218.368-39.248 146.375-71.394 218.637-148.548 233.829 0.107 1.141 0.167 2.297 0.167 3.466 0 15.452-9.488 28.682-22.954 34.2v81.549h254.826l91.537-816.769h132.938v255.384l-155.092 691.511z"/>
</svg>