<svg xmlns="http://www.w3.org/2000/svg" viewBox="0 -64 1024 1000" style="transform: scaleY(-1);">
<path fill="currentColor" d="M514.317 676.97c-129.113 0-233.766-104.68-233.766-233.796s104.663-233.783 233.766-233.783 233.756 104.667 233.756 233.783c0 129.129-104.643 233.796-233.756 233.796zM518.722 367.654c-44.059 0-79.77 35.715-79.77 79.778s35.711 79.772 79.77 79.772 79.77-35.715 79.77-79.772c0-44.064-35.711-79.778-79.77-79.778zM546.21 367.174c-0.336 1.662-0.687 3.323-1.056 4.981-8.274-2.905-17.164-4.502-26.432-4.502-44.059 0-79.77 35.715-79.77 79.778 0 24.219 10.803 45.896 27.835 60.525-1.273 1.169-2.556 2.324-3.849 3.465-17.64-15.567-28.779-38.331-28.779-63.712 0-46.932 38.035-84.97 84.962-84.97 9.477-0.002 18.579 1.574 27.088 4.435zM514.431 194.175c-24.113 0-47.421 3.441-69.473 9.836-17.684-46.9-51.093-88.204-97.921-115.244-33.617-19.411-70.375-28.563-106.625-29.499 59.43-11.327 123.59-3.471 180.094 29.173 44.79 25.864 79.040 63.040 101.249 105.85-2.434-0.070-4.873-0.115-7.323-0.115zM304.136 576.526c-49.165 2.803-99.652-8.192-145.415-34.619-56.444-32.588-96.044-83.186-115.969-140.251 18.936 30.929 45.91 57.045 79.518 76.456 47.508 27.431 100.825 35.558 150.904 26.826 6.557 25.695 17.114 49.79 30.962 71.588zM585.177 204.39c-22.428-6.637-46.167-10.215-70.746-10.215-1.969 0-3.932 0.028-5.89 0.075 22.206-42.811 56.462-79.987 101.256-105.851 56.499-32.644 120.663-40.501 180.097-29.173-36.266 0.93-73.020 10.083-106.628 29.494-46.97 27.123-80.445 68.596-98.089 115.67zM598.49 447.434c0-44.064-35.711-79.778-79.77-79.778-11.757 0-22.909 2.564-32.957 7.131-0.371-1.585-0.722-3.174-1.061-4.763 10.524-4.671 22.164-7.287 34.42-7.287 46.927 0 84.962 38.040 84.962 84.97 0 27.257-12.849 51.497-32.805 67.044-1.463-1.239-2.918-2.494-4.357-3.769 19.177-14.567 31.567-37.607 31.567-63.55zM871.561 541.852c-46.177 26.667-97.165 37.612-146.749 34.53 13.853-21.841 24.401-45.986 30.937-71.733 50.475 9.122 104.328 1.104 152.269-26.579 33.61-19.421 60.576-45.537 79.51-76.471-19.922 57.067-59.522 107.665-115.966 140.253zM686.207 623.433c18.841-17.966 34.863-38.857 47.35-61.944 27.636 41.493 43.761 91.285 43.761 144.797-0.002 65.254-25.263 124.768-64.783 170.577 17.308-31.874 27.762-68.289 27.762-107.106 0-55.904-20.371-107.011-54.090-146.323zM343.892 624.584c-33.134 39.158-53.116 89.81-53.116 145.172 0 38.822 9.129 75.236 26.442 107.106-39.448-45.794-63.461-105.392-63.461-170.577 0-52.728 15.657-101.844 42.555-142.967 12.612 22.857 28.71 43.516 47.58 61.266zM519.123 532.673c-43.701 0-79.677-32.99-84.416-75.43 1.555-0.506 3.115-1.001 4.682-1.478 4.166 40.145 38.092 71.438 79.336 71.438 40.571 0 74.040-30.292 79.087-69.49 1.819 0.603 3.627 1.231 5.429 1.873-5.78 41.299-41.226 73.088-84.118 73.088z"/>
</svg>