<svg xmlns="http://www.w3.org/2000/svg" viewBox="0 -64 1024 1000" style="transform: scaleY(-1);">
<path fill="currentColor" d="M840.186 575.479c-7.502 11.19-18.21 21.21-32.616 29.171-29.128 16.098-57.344 14.976-80.56 3.734l0.012 0.11c-62.945-30.521-124.251-45.021-186.004-55.984-15.971 6.054-21.101 18.019-10.116 38.777 37.766 36.283 82.057 65.578 126.826 80.707 36.418 4.781 65.269 34.101 76.347 68.595 46.773 10.342 102.607 6.161 137.248-31.472-22.571 135.711-100.885 150.712-171.496 133.716-2.362 1.565-4.809 3.085-7.409 4.522-61.176 33.809-118.33-8.314-133.543-60.72-11.79-30.742-25.944-59.763-42.372-87.017-69.904-62.476-136.145-37.967-187.28 31.143-39.445 56.626-74.169 130.599-93.984 200.22h-200.986v-138.77c112.845-52.897 278.687-249.208 243.050-306.801-39.822-19.404-83.206-35.745-132.385-51.84-5.493-1.186-10.805-2.913-15.891-5.137-0.374-0.119-0.737-0.239-1.111-0.357l0.107-0.105c-42.838-19.369-69.477-73.033-55.117-118.199-38.688-76.047-35.187-176.161 116.634-202.413-43.923 41.622-53.694 96.211-38.337 140.512 46.534-5.758 84.895 28.786 97.479 70.31 16.584 42.198 42.472 80.139 83.5 93.035 44.324 13.935 178.624-39.553 245.454-151.326 6.199-19.329 19.915-37.085 43.103-49.899 22.762-12.579 44.692-14.879 64.089-10.197 37.495-40.644 69.057-102.306 54.16-160.359 107.963 97.080 73.362 184.395 17.836 244.98 4.544 33.313-7.891 68.304-45.669 89.185-18.674 10.322-36.968 13.539-53.818 11.576-31.243-0.214-67.337 5.558-99.893 17.229-44.421 31.582-41.505 61.769-4.925 81.385 54.685 5.239 108.79-12.116 151.55-34.24 3.981-3.019 8.327-5.867 13.090-8.498 51.856-28.662 99.418-4.084 122.437 35.275 43.332-10.474 82.647-49.939 108.061-97.636 44.528 136.767-28.208 189.316-107.473 196.785z"/>
</svg>