<svg xmlns="http://www.w3.org/2000/svg" viewBox="0 -64 1024 1000" style="transform: scaleY(-1);">
<path fill="currentColor" d="M472.406 465.567c5.147-26.584 3.299-166.72 3.299-166.72s-52.231 120.084-57.377 146.664 2.788 52.613 17.722 58.151c14.934 5.539 31.211-11.525 36.358-38.090l-0.002-0.005zM544.477 462.819c-5.147-26.589-3.299-166.72-3.299-166.72s52.231 120.080 57.377 146.664-2.788 52.613-17.722 58.151c-14.934 5.539-31.211-11.525-36.358-38.090l0.002-0.005zM539.879 581.765c-9.834 2.486-20.072 3.842-30.61 3.844-12.851 0.002-25.261-1.991-37.019-5.638-17.002-37.071-47.787-66.5-85.799-81.731-6.841-17.281-10.634-36.296-10.634-56.27 0-79.347 133.457-467.682 133.457-467.682s133.457 388.348 133.454 467.682h0.005c0 19.040-3.475 37.198-9.725 53.826-41.63 14.593-75.37 45.945-93.129 85.969zM504.929 913.958c-198.090 0-358.676-117.715-358.676-262.929s160.584-262.929 358.676-262.929 358.676 117.72 358.676 262.929c-0.002 145.214-160.586 262.929-358.676 262.929zM327.13 486.842c-88.134 0-159.579 71.448-159.579 159.58s71.444 159.58 159.579 159.58 159.579-71.443 159.579-159.58c-0.002-88.132-71.446-159.58-159.579-159.58zM685.804 486.842c-88.134 0-159.579 71.448-159.579 159.58s71.444 159.58 159.579 159.58 159.579-71.443 159.579-159.58c-0.002-88.132-71.446-159.58-159.579-159.58zM335.033 763.776c-62.806 0-113.726-50.923-113.726-113.729s50.918-113.726 113.726-113.726c62.806 0 113.726 50.918 113.726 113.726-0.002 62.81-50.919 113.729-113.726 113.729zM352.984 626.685c-20.742 0-37.557 16.815-37.557 37.557s16.815 37.559 37.557 37.559 37.557-16.815 37.557-37.559c0.002-20.742-16.815-37.557-37.557-37.557zM694.459 763.776c-62.806 0-113.726-50.923-113.726-113.729s50.918-113.726 113.726-113.726c62.806 0 113.726 50.918 113.726 113.726-0.002 62.81-50.919 113.729-113.726 113.729zM710.307 626.685c-20.742 0-37.557 16.815-37.557 37.557s16.815 37.559 37.557 37.559 37.557-16.815 37.557-37.559c0-20.742-16.815-37.557-37.557-37.557z"/>
</svg>