<svg xmlns="http://www.w3.org/2000/svg" viewBox="0 -64 1024 1000" style="transform: scaleY(-1);">
<path fill="currentColor" d="M627.969 63.602l-46.698 103.603-41.613-119.646-41.611 118.353-49.466-102.31-31.156 109.79c-37.858-47.575-35.97-90.84-36.47-142.724 111.761-43.092 215.658-39.749 320.285 0 5.31 56.348-5.818 101.864-39.346 141.421l-33.924-108.487zM418.479 354.433l37.287 106.008 41.279-115.328 42.61 106.209 42.612-107.548 42.612 116.668 37.287-107.348c35.219 63.919 41.623 150.85 21.307 214.768l137.156 0.002-75.905 314.263c-136.712 52.74-274.908 46.873-410.138 0l-75.901-314.263h138.487c-29.972-73.548-9.938-156.525 21.307-213.43zM724.65 739.8l23.911-110.346-160.638 14.381c30.067 52.156 79.66 78.915 136.727 95.965zM539.922 579.76l49.641-65.549h-99.283l49.641 65.549zM331.447 629.453l23.911 110.346c59.967-12.804 109.222-39.873 136.727-95.965l-160.638-14.381zM837.47 331.366c-171.631-33.408-368.999-33.289-559.309-14.386 7.378-0.733 14.77-1.428 22.167-2.103l6.171 52.206c4.617-1.901 9.699-2.868 15.018-2.584 19.132 1.019 33.814 17.358 32.795 36.49s-17.353 33.809-36.486 32.79-33.814-17.358-32.795-36.481c0.399-7.489 3.167-14.274 7.509-19.725-11.753-26.98-20.724-56.388-26.422-86.317-44.717 38.999-99.295 47.842-160.17 37.425 0.003 0 0.005 0.002 0.008 0.002-4.736 13.521-17.575 23.231-32.713 23.231-19.159 0-34.689-15.534-34.689-34.684 0-19.159 15.53-34.692 34.689-34.692 9.079 0 17.316 3.516 23.499 9.224-0.008 0.005-0.017 0.012-0.025 0.017 51.195-35.621 106.25-45.313 164.346-34.611-4.098-38.979-2.377-77.563 6.151-111.566-6.672-6.712-10.616-16.085-10.075-26.275 1.019-19.132 17.355-33.817 36.486-32.798 19.132 1.021 33.814 17.36 32.795 36.491s-17.353 33.809-36.486 32.788c-2.993-0.16-5.862-0.733-8.595-1.595l8.207 69.43c207.94-31.081 560.384-58.047 705.422 93.339l-157.497 14.384zM95.763 326.767c-0.13-0.027-0.261-0.053-0.389-0.080 0.129 0.027 0.259 0.053 0.389 0.080zM85.119 324.437c-0.007-0.002-0.012-0.003-0.018-0.005 0.007 0.002 0.013 0.003 0.018 0.005zM74.884 321.883c-0.261-0.068-0.523-0.139-0.783-0.207 0.262 0.068 0.523 0.139 0.783 0.207zM70.851 312.314c1.874-1.679 3.755-3.324 5.641-4.928-1.886 1.604-3.765 3.249-5.641 4.928zM63.809 318.811c1.914-1.826 3.837-3.597 5.763-5.341-1.926 1.744-3.849 3.515-5.763 5.341zM90.787 296.047c1.822-1.348 3.65-2.671 5.484-3.954-1.834 1.281-3.662 2.606-5.484 3.954zM77.515 306.531c1.692-1.423 3.388-2.816 5.088-4.18-1.701 1.363-3.396 2.756-5.088 4.18zM83.732 301.443c1.878-1.488 3.762-2.937 5.65-4.353-1.889 1.417-3.772 2.865-5.65 4.353zM306.375 405.795c0.341 0.621 0.68 1.246 1.024 1.864-0.344-0.616-0.682-1.243-1.024-1.864zM302.184 397.919c-0.135-0.262-0.271-0.521-0.406-0.783 0.135 0.262 0.272 0.521 0.406 0.783zM278.152 316.98v-37.215c0 0 0 0 0 0v37.215zM269.673 258.907c-0.037-0.008-0.074-0.017-0.11-0.025 0.037 0.008 0.074 0.018 0.11 0.025zM276.832 116.087c-0.982 2.372-1.916 4.781-2.81 7.223 0.897-2.439 1.829-4.851 2.81-7.223v0zM278.152 225.366v35.529c0 0 0 0 0 0v-35.529c2.36-0.364 4.764-0.727 7.166-1.089-2.409 0.362-4.804 0.725-7.166 1.089zM284.712 262.599c2.243 0.613 4.489 1.243 6.74 1.913-2.252-0.67-4.499-1.305-6.74-1.913zM281.356 276.351c0.147-0.16 0.294-0.322 0.441-0.483-0.147 0.16-0.294 0.321-0.441 0.483zM284.49 272.854c0.231-0.262 0.461-0.525 0.69-0.788-0.229 0.264-0.459 0.526-0.69 0.788zM287.645 269.171c0.246-0.294 0.493-0.583 0.738-0.879-0.246 0.297-0.493 0.585-0.738 0.879z"/>
</svg>