<svg xmlns="http://www.w3.org/2000/svg" viewBox="0 -64 1024 1000" style="transform: scaleY(-1);">
<path fill="currentColor" d="M511.992 928.008c-143.987 0-240.013-96.201-240.013-192.176 0-96.828 48.565-133.271 103.128-225.004-6.952-94.946-7.504-223.674-7.504-398.431 31.172 103.931 56.27 183.893 76.875 242.824 28.913-89.55 53.961-211.125 67.489-387.187 13.553 176.063 38.576 297.638 67.489 387.187 20.605-58.93 45.704-138.893 76.875-242.824 0 175.837-0.427 305.217-7.504 400.314 54.262 90.755 103.128 126.77 103.128 223.122 0.050 95.975-95.95 192.176-239.962 192.176v0zM511.992 832.385c79.536 0 144.364-53.735 144.364-119.994 0-26.202-11.043-50.573-28.135-70.325-20.179 67.413-54.789 93.741-116.254 93.741s-96.050-26.328-116.254-93.741c-17.092 19.727-28.135 44.122-28.135 70.325 0.050 66.259 64.904 119.994 144.414 119.994z"/>
</svg>