<svg xmlns="http://www.w3.org/2000/svg" viewBox="0 -64 1024 1000" style="transform: scaleY(-1);">
<path fill="currentColor" d="M511.992 687.996c119.994-150.011-90.002-90.002-329.989-90.002 102.576-34.184 180.43-60.336 236.248-82.497-89.475-28.813-210.748-54.011-386.259-67.489 175.511-13.503 296.784-38.701 386.259-67.489-55.818-22.162-133.672-48.314-236.248-82.497 240.013 0 450.008 60.009 329.989-90.002 39.329 19.652 84.681 39.178 128.427 60.938 50.648-34.936 89.148-60.938 159.373-60.938 96 0 192.176 96 192.176 240.013s-96.201 240.013-192.176 240.013c-70.701 0-109.151-25.65-160.326-60.938-43.495 21.584-88.37 41.336-127.473 60.888v0zM776.374 592.372c66.284 0 119.994-64.853 119.994-144.364s-53.735-144.364-119.994-144.364c-18.121 0-35.213 5.421-50.623 14.055 50.271 34.962 86.262 76.825 86.262 130.309s-35.991 95.347-86.262 130.309c15.41 8.634 32.502 14.055 50.623 14.055v0z"/>
</svg>