<svg xmlns="http://www.w3.org/2000/svg" viewBox="0 -64 1024 1000" style="transform: scaleY(-1);">
<path fill="currentColor" d="M48.955 636.685l0.002 0.003-0.002 0.002zM48.957 636.688c53.978-98.682 116.399-153.405 116.612-264.062 0.075-43.974-32.112-58.911-32.112-92.127 0-18.146 23.208-36.152 41.981-36.152 18.364 0 43.148 19.367 43.145 38.479 0 33.014-30.86 45.119-30.86 83.961 0 130.167 226.017 49.302 236.726-131.77 5.474-92.619-45.48-98.844-45.48-143.437 0-35.711 23.502-48.978 47.809-48.978 23.774 0 43.145 11.363 43.145 48.978 0 30.76-40.846 50.664-39.649 142.268 2.507 191.921 162.363 127.801 171.422-73.469 2.688-59.709-38.481-80.686-38.481-127.106 0-25.812 20.046-44.313 41.981-44.313 21.454 0 44.313 19.456 44.313 46.645 0 48.945-40.888 66.278-39.649 127.106 4.494 220.576 138.507 373.942 163.259 155.093 5.922-52.348-31.487-71.024-31.487-117.777 0-27.842 19.080-47.809 37.317-47.809 18.642 0 36.152 19.047 36.152 45.482 0 45.208-37.97 67.288-31.487 121.278 24.349 202.795 139.667 236.813 194.745 317.706-243.938 353.758-739.071 354.344-929.403 0.003zM101.369 636.753v0c165.654 296.758 627.801 297.312 824.579-9.896-299.137-216.46-559.563-216.811-824.579 9.896zM666.409 663.702c0-89.798-72.796-162.59-162.59-162.59s-162.59 72.796-162.59 162.59 72.796 162.59 162.59 162.59 162.59-72.796 162.59-162.59zM561.023 670.029c0-32.207-26.109-58.316-58.316-58.316s-58.316 26.109-58.316 58.316 26.109 58.316 58.316 58.316c32.205 0 58.316-26.109 58.316-58.316zM176.203 308.106v183.054zM424.826 138.243v183.055zM605.269 90.419v183.054zM779.398 233.892v183.054z"/>
</svg>