<svg xmlns="http://www.w3.org/2000/svg" viewBox="0 -64 1024 1000" style="transform: scaleY(-1);">
<path fill="currentColor" d="M790.605 258.495c8.266 47.51 12.517 91.368 39.679 132.774 71.842 109.535 173.599 216.081 135.798 357.164-23.215 86.622-96.884 131.254-167.423 128.347-60.247-2.487-112.844-46.681-143.24-111.611-58.777 40.567-127.39 51.646-182.3 24.178-55.625-27.827-92.69-88.909-86.181-162.357-9.61-4.876-19.068-10.511-28.286-16.872-30.396 64.93-82.992 109.124-143.24 111.611-70.539 2.907-144.209-41.725-167.423-128.347-37.801-141.083 63.956-247.629 135.798-357.164 27.162-41.406 31.413-85.264 39.679-132.774 27.464 40.76 65.352 77.966 99.839 97.427 99.522 56.17 230.843 92.449 283.018 197.49-0.030 0.015-0.062 0.030-0.092 0.045 29.040-13.868 57.925-27.466 84.536-42.485 34.487-19.461 72.375-56.667 99.839-97.427zM604.494 483.985c-12.004 4.773-23.838 9.538-35.315 14.5 11.478-4.961 23.331-9.727 35.334-14.5h-0.018zM456.365 592.541c20.979 0.997 41.191-3.513 58.543-12.194 31.002-15.507 52.351-42.194 53.955-81.725-50.081 21.678-93.166 47.204-112.498 93.919zM499.161 735.397c41.526 20.772 99.388 17.802 145.097-27.905l37.205-37.206 13.020 50.234c17.42 65.011 61.412 94.903 106.035 96.734l0.002-0.008c44.618 1.849 91.804-23.305 109.75-87.433 25.548-91.293-58.33-164.593-115.657-245.827h-166.828c1.672 68.040-34.281 124.023-86.833 150.313-29.237 14.625-62.36 18.318-95.813 12.455 0.070-4.113 0.351-8.361 0.837-12.732-5.64 50.488 17.303 83.425 53.186 101.376zM455.062 595.758c-0.125 0.329-0.256 0.655-0.379 0.987 0.124-0.331 0.252-0.658 0.379-0.987zM452.932 601.772c-0.165 0.506-0.329 1.016-0.489 1.527 0.16-0.511 0.322-1.019 0.489-1.527zM450.796 608.897c-0.002 0.003-0.002 0.008-0.003 0.012-0.003 0.013-0.007 0.027-0.010 0.040 0.003-0.013 0.007-0.027 0.010-0.040 0.002-0.003 0.002-0.008 0.003-0.012zM449.401 614.456c-0.164 0.697-0.309 1.38-0.464 2.070 0.155-0.69 0.301-1.375 0.464-2.070zM448.225 619.823c-0.175 0.86-0.337 1.712-0.498 2.564 0.16-0.85 0.322-1.704 0.498-2.564zM447.257 624.99c-0.167 0.967-0.324 1.928-0.471 2.883 0.145-0.956 0.306-1.918 0.471-2.883zM446.499 629.868c-0.154 1.094-0.304 2.187-0.431 3.266 0.127-1.077 0.279-2.172 0.431-3.266zM393.129 592.169c0 0.002 0 0.003-0.002 0.003-0.673 2.514-1.283 5.015-1.854 7.509 0.573-2.494 1.179-4.995 1.854-7.509 0-0.002 0-0.003 0.002-0.003zM395.941 582.647c-0.147 0.461-0.296 0.924-0.441 1.388 0.145-0.466 0.294-0.927 0.441-1.388zM389.249 609.613c-0.312 1.756-0.593 3.505-0.855 5.25 0.264-1.746 0.54-3.493 0.855-5.25zM391.011 600.81c-0.478 2.143-0.907 4.275-1.311 6.401 0.406-2.128 0.83-4.258 1.311-6.401zM103.798 574.762c17.946 64.128 65.132 89.282 109.75 87.433l0.003 0.008c44.623-1.831 88.615-31.722 106.035-96.734l13.020-50.234 37.205 37.206c9.168 9.168 18.83 16.589 28.747 22.471 25.732-71.196 84.918-113.52 150.835-148.331h-404.417c-33.206 46.68-56.258 94.295-41.179 148.181zM221.784 192.59l364.337 215.486c0 0 0.002 0 0.002 0l-364.339-215.486zM731.691 32.301c-0.418-30.693 28.338-56.048 64.001-56.048s65.105 25.344 65.105 56.048c0.002 68.073-52.999 54.088-67.31 161.172-12.971-107.503-60.837-93.445-61.796-161.172z"/>
</svg>