<svg xmlns="http://www.w3.org/2000/svg" viewBox="0 -64 1024 1000" style="transform: scaleY(-1);">
<path fill="currentColor" d="M750.884 353.050l37.789-108.272-244.245-223.843 206.455 332.115zM772.236 94.521l-37.794 108.268 244.245 223.838-206.45-332.107zM266.98 353.050l-37.791-108.272 244.247-223.842-206.455 332.113zM245.626 94.521l37.794 108.268-244.245 223.837 206.45-332.105zM227.525 786.56c1.545-213.981 97.171-428.859 288.599-613.822 190.302 184.572 287.849 399.687 289.54 613.822-164.124-36.218-414.008-36.674-578.139 0zM516.236 251.661c-146.601 141.648-219.834 306.204-221.017 470.074 125.696-28.082 317.061-27.737 442.749 0-1.29-163.987-75.997-328.726-221.732-470.074z"/>
</svg>