<svg xmlns="http://www.w3.org/2000/svg" viewBox="0 -64 1024 1000" style="transform: scaleY(-1);">
<path fill="currentColor" d="M938.549 233.809l-129.595 129.595c-39.094 39.094-105.088 63.052-162.168 57.382-0.003-0.005-0.007-0.010-0.008-0.015 13.208 21.726 24.858 45.013 35.367 69.442l-81.262 81.262c-99.734-38.279-168.848-111.071-212.279-212.279l81.262-81.262c25.513 7.754 48.38 18.155 69.034 30.768-3.989-55.996 19.722-119.529 57.773-157.581l129.595-129.595c48.419-48.419 121.365-56.875 178.398-25.451l15.748-15.748 59.339 59.339-15.748 15.748c31.418 57.033 22.961 129.976-25.456 178.395zM352.014 323.511c-12.213 45.579-50.767 91.45-95.377 111.618 19.030 10.42 37.574 22.66 55.762 36.228l-25.386 94.743c-90.052 14.268-172.202-10.043-247.492-66.316l25.386-94.743c22.167-5.157 43.507-7.228 64.156-6.717-26.845-39.687-36.431-96.765-24.544-141.13l40.486-151.094c15.126-56.45 65.434-93.83 121.001-94.941l4.911-18.328 69.181 18.537-4.911 18.328c47.563 28.747 72.44 86.272 57.314 142.722l-40.486 151.094zM583.020 698.499c-0.015-0.017-0.030-0.033-0.047-0.050 8.767-45.422 41.191-90.936 79.593-113.108l130.793-75.514c48.866-28.213 108.731-19.386 147.426 17.791l15.866-9.161 34.575 59.886-33.092 19.105-34.575-59.885 34.575 59.886 17.224-9.944c12.846 52.095-9.443 108.35-58.306 136.563l-130.793 75.514c-39.455 22.78-97.093 27.775-141.317 11.089-0.008-0.028-0.018-0.057-0.027-0.085 5.892 20.133 10.203 41.177 13.362 62.888l-82.012 47.35c-71.221-51.738-110.707-124.42-123.692-214.238l82.012-47.35c18.676 11.626 34.674 24.798 48.434 39.263zM593.828 710.677c0.002 0.002 0.003 0.003 0.005 0.005-0.002 0-0.003-0.003-0.005-0.005zM588.501 704.463c0.015 0.018 0.032 0.035 0.047 0.053-0.015-0.017-0.030-0.035-0.047-0.053z"/>
</svg>