<svg xmlns="http://www.w3.org/2000/svg" viewBox="0 -64 1024 1000" style="transform: scaleY(-1);">
<path fill="currentColor" d="M985.292 312.094v58.024c-107.166 42.724-170.278 82.59-189.686 146.166-15.935 52.202 32.142 121.647 122.738 205.308-94.646-51.875-164.318-87.108-191.917-37.936-24.783 44.144 2.975 126.902 46.862 235.431h-31.241c-35-55.405-64.811-97.422-75.876-87.032-9.644 9.056-9.751 41.64-5.578 87.032l-64.712 0.018c-42.823-95.9-88.229-150.226-153.978-159.555-56.18-7.966-128.929 58.051-210.886 151.747 46.656-92.594 63.819-166.875 32.357-185.224-37.193-21.696-111.703 3.881-222.043 50.208v-21.195c75.908-48.176 145.839-95.209 132.779-112.7-11.463-15.347-63.732-12.691-132.779-3.358v-54.676c99.861-50.448 153.978-102.178 153.978-150.632 0-41.675-83.223-126.752-153.978-194.147v-32.36c63.852 20.918 142.164 29.045 168.486-17.852 26.846-47.826 8.822-115.565-25.662-214.231h59.138c62.654 84.631 122.224 152.499 153.978 149.516 22.493-2.127 11.987-71.212-3.348-149.516h17.852c55.787 155.032 124.532 250.061 226.504 246.592 89.477-3.062 174.382-93.136 267.789-157.327-48.825 59.746-138.771 144.837-119.389 160.671 20.381 16.676 107.757-13.83 198.611-46.863v29.008c-59.609 40.669-114.444 79.748-100.422 93.729 12.607 12.572 51.068 14.603 100.422 11.155zM702.32 381.402c-10.724-10.696 56.273-50.467 94.607-78.031-57.917 20.224-130.93 50.64-144.584 39.475-9.859-8.063 35.853-51.3 60.692-81.701-47.522 32.661-91.034 78.335-136.556 79.867-66.933 2.282-105.278-78.158-138.339-201.040 8.691 58.335 34.856 149.716 16.063 151.47-26.654 2.506-91.062-92.529-139.229-163.404 33.635 101.932 64.195 159.993 43.73 196.453-18.475 32.912-87.797 12.901-117.812-4.592 35.362 33.371 110.311 100.516 110.311 128.785 0 41.147-74.248 87.446-211.161 126.425 82.306-12.973 188.426-36.784 200.814-20.198 9.682 12.965-70.135 58.006-118.704 89.96 85.498-36.665 139.68-61.44 163.903-47.314 16.005 9.338 7.096 47.027-16.64 94.138 41.697-47.66 79.079-81.218 107.66-77.166 60.297 8.549 86.343 88.321 133.315 240.57l0.007-0.005c-11.043-84.726-33.406-190.867-19.635-203.794 10.314-9.689 52.354 68.596 84.787 118.422-36.62-92.344-71.837-161.795-54.075-193.441 14.037-25.009 49.656-7.37 97.805 19.018-46.090-42.564-70.85-77.849-62.743-104.401 16.087-52.703 91.427-73.357 226.072-120.508-69.141 8.959-164.308 26.951-180.289 11.013z"/>
</svg>