<svg xmlns="http://www.w3.org/2000/svg" viewBox="0 -64 1024 1000" style="transform: scaleY(-1);">
<path fill="currentColor" d="M335.020 268.745l0.018-0.040c0 0.013 0 0.027 0 0.040h-0.018zM900.714 144.706c119.902 12.878 85.525 175.796 0 141.816-97.858-38.879-182.778-68.391-262.303-85.593l26.166 56.083c0.982 0.601 1.964 1.201 2.947 1.797-0.11 1.589-0.192 3.184-0.259 4.779 0.008-0.252 0.017-0.506 0.028-0.758l0.713 1.53-0.77-0.045c-3.015 78.487 45.587 163.392 154.855 163.392 3.366 216.288-79.558 505.95-312.108 505.95l-0.005 0.002c-234.531-0.002-325.826-301.181-329.016-505.951 118.208 0 156.124-84.371 154.019-162.013 0.687-0.444 1.386-0.879 2.078-1.318 0 0-0.002 0-0.002 0.002l31.864-68.292c-73.307 15.018-149.686 44.291-235.59 90.436-106.803 57.371-146.096-112.46 0-137.767-145.652-2.703-104.705-170.704 0-123.585 95.341 42.903 181.729 70.065 265.624 82.578l-15.325-32.847c27.254-7.679 54.508-12.397 81.763-14.426h1.116l-24.457 52.421c18.233 1.644 36.403 2.591 54.571 2.857l-25.957-55.633c2.681-0.165 5.364-0.301 8.045-0.414-44 1.878-87.999 10.604-131.997 27.416v-104.886c103.756-35.060 207.516-33.428 311.273 0v104.886c-10.791-3.587-21.581-6.836-32.372-9.771l-14.575 31.238c-3.545 0.488-7.084 0.95-10.619 1.388 93.747-11.625 190.858-40.379 300.294-84.807 98.708-40.075 124.659 114.14 0 119.536zM568.517 113.286l-23.988-51.412c-9.914-1.056-19.827-1.794-29.741-2.198 8.426 0.342 16.852 0.917 25.278 1.732l-25.381 54.401c17.899-0.182 35.823-1.032 53.833-2.522zM529.727 185.184c1.592 0.105 3.187 0.231 4.781 0.349-1.594-0.119-3.189-0.244-4.781-0.349zM539.688 185.926c1.777 0.145 3.556 0.302 5.337 0.463-1.779-0.16-3.56-0.317-5.337-0.463zM549.694 186.823c1.822 0.177 3.645 0.356 5.471 0.548-1.826-0.192-3.648-0.371-5.471-0.548zM559.871 187.889c1.786 0.2 3.57 0.393 5.357 0.606-1.787-0.214-3.571-0.408-5.357-0.606zM565.291 188.504l15.888 34.051c-0.015-0.003-0.028-0.005-0.043-0.008 5.486 1.034 10.913 2.197 16.259 3.508 0 0 0 0 0 0l13.678-30.596c-15.417-2.816-30.658-5.143-45.781-6.954zM657.495 252.67c2.307 1.412 4.607 2.826 6.909 4.235-2.3-1.408-4.6-2.823-6.909-4.235zM638.408 200.929c-4.407-0.954-8.798-1.871-13.173-2.746 4.377 0.879 8.767 1.792 13.173 2.746zM624.383 198.009c-4.45-0.887-8.889-1.742-13.309-2.551 4.42 0.807 8.857 1.66 13.309 2.551zM608.852 229.121c1.191 0.349 2.374 0.708 3.541 1.089-1.168-0.379-2.35-0.74-3.541-1.089zM613.922 230.732c0.814 0.276 1.63 0.548 2.432 0.839-0.802-0.289-1.619-0.563-2.432-0.839zM618.067 232.213c0.725 0.272 1.453 0.543 2.172 0.825-0.718-0.282-1.445-0.553-2.172-0.825zM621.982 233.752c0.692 0.284 1.385 0.565 2.070 0.859-0.685-0.294-1.378-0.575-2.070-0.859zM625.788 235.374c0.67 0.297 1.341 0.593 2.006 0.897-0.665-0.306-1.335-0.601-2.006-0.897zM629.518 237.078c0.655 0.309 1.31 0.618 1.959 0.935-0.65-0.316-1.305-0.625-1.959-0.935zM633.181 238.86c0.643 0.321 1.285 0.643 1.923 0.971-0.638-0.327-1.28-0.65-1.923-0.971zM636.779 240.704c0.638 0.336 1.275 0.672 1.908 1.012-0.633-0.341-1.27-0.678-1.908-1.012zM640.334 242.61c0.633 0.347 1.266 0.697 1.896 1.047-0.631-0.352-1.263-0.7-1.896-1.047zM643.832 244.56c0.643 0.366 1.286 0.733 1.926 1.103-0.64-0.369-1.283-0.737-1.926-1.103zM647.293 246.551c0.66 0.386 1.318 0.772 1.974 1.161-0.656-0.389-1.315-0.775-1.974-1.161zM650.726 248.576c0.69 0.411 1.378 0.825 2.065 1.238-0.687-0.413-1.375-0.825-2.065-1.238zM654.132 250.624c0.77 0.466 1.539 0.934 2.307 1.403-0.768-0.469-1.537-0.937-2.307-1.403zM651.752 671.569c42.961-11.473 68.401-55.411 56.888-98.246-6.62-24.639-23.632-42.689-45.432-52.105v-0.005c-12.702 36.111-52.835 72.166-109.202 96.557 12.676 41.097 55.754 65.021 97.746 53.799zM506.795 543.135h0.005c29.414 0 48.273-157.019 63.799-235.528-26.781 9.146-53.779 24.269-62.855 67.419-9.082-43.197-32.648-56.455-64.748-67.419 11.49 78.509 34.443 235.528 63.799 235.528zM564.996 219.917c-0.018-0.003-0.037-0.005-0.057-0.008 0.018 0.003 0.038 0.005 0.057 0.008zM540.236 217.349c-0.043-0.003-0.085-0.005-0.129-0.008 0.043 0.003 0.085 0.007 0.129 0.008zM413.85 230.117c5.386-1.493 10.811-2.872 16.27-4.141l19.043-40.815c-19.964 1.34-39.984 3.703-60.194 7.153l18.506 39.664c2.115-0.643 4.238-1.268 6.375-1.861zM489.833 217.059c-0.301 0.020-0.601 0.038-0.902 0.058 0.302-0.020 0.601-0.038 0.902-0.058zM472.46 218.611c-0.205 0.023-0.409 0.048-0.613 0.072 0.205-0.022 0.409-0.048 0.613-0.072zM463.984 219.685c-0.134 0.018-0.266 0.035-0.399 0.053 0.134-0.018 0.267-0.035 0.399-0.053zM447.129 222.419c-0.202 0.037-0.404 0.075-0.605 0.114 0.2-0.038 0.403-0.077 0.605-0.114zM309.32 573.326c-11.513 42.834 13.927 86.773 56.888 98.247 41.992 11.222 85.069-12.702 97.746-53.799-56.367-24.392-96.5-60.448-109.202-96.558v0.005c-21.8 9.415-38.808 27.466-45.432 52.105zM388.749 238.399c-0.008 0.003-0.018 0.007-0.028 0.010 0.010-0.003 0.020-0.007 0.028-0.010zM370.762 245.995c-0.065 0.030-0.13 0.062-0.197 0.092 0.065-0.030 0.132-0.060 0.197-0.092zM379.81 241.997c-0.122 0.052-0.244 0.102-0.366 0.154 0.122-0.052 0.244-0.102 0.366-0.154zM378.87 194.13c-3.289 0.618-6.587 1.268-9.888 1.944 3.301-0.677 6.597-1.325 9.888-1.944zM388.95 192.317c-3.257 0.556-6.522 1.146-9.791 1.759 3.269-0.615 6.532-1.203 9.791-1.759zM457.908 184.642c8.255-0.431 16.504-0.688 24.758-0.773l15.285 32.76c4.497-0.182 9.004-0.284 13.521-0.284 1.231 0 2.462 0.017 3.692 0.027-0.033 0-0.067-0.002-0.099-0.002l14.553-31.191c-24.013-1.582-47.837-1.781-71.71-0.536zM449.18 185.159c2.713-0.182 5.424-0.344 8.135-0.488-2.711 0.145-5.422 0.307-8.135 0.488zM514.644 115.81c-2.116 0.022-4.233 0.020-6.348 0.020 2.115-0.003 4.231 0.002 6.348-0.020zM505.243 115.833c-2.85-0.012-5.698-0.038-8.548-0.080 2.85 0.042 5.698 0.074 8.548 0.080zM488.704 59.395c2.446-0.047 4.893-0.074 7.338-0.080-2.447 0.007-4.893 0.033-7.338 0.080zM479.685 59.662c2.527-0.102 5.055-0.179 7.582-0.236-2.527 0.057-5.055 0.134-7.582 0.236zM497.677 59.318c2.417 0.003 4.834 0.023 7.252 0.067-2.417-0.045-4.834-0.063-7.252-0.067zM513.903 59.635c-2.461-0.095-4.923-0.16-7.383-0.214 2.461 0.053 4.921 0.12 7.383 0.214zM615.227 74.633c-3.214-0.81-6.428-1.589-9.644-2.337 3.214 0.747 6.428 1.527 9.644 2.337zM625.522 77.325c-3.296-0.895-6.593-1.759-9.889-2.593 3.296 0.834 6.592 1.697 9.889 2.593zM544.559 61.877c3.336 0.356 6.67 0.748 10.006 1.174-3.334-0.426-6.67-0.819-10.006-1.174zM554.826 63.086c3.264 0.419 6.528 0.874 9.792 1.361-3.264-0.488-6.528-0.942-9.792-1.361zM565.051 64.513c3.209 0.483 6.42 0.997 9.629 1.544-3.209-0.546-6.418-1.061-9.629-1.544zM575.236 66.152c3.177 0.545 6.356 1.121 9.533 1.729-3.177-0.608-6.354-1.184-9.533-1.729zM585.374 67.996c3.164 0.608 6.328 1.248 9.492 1.918-3.162-0.67-6.328-1.308-9.492-1.918zM595.497 70.047c3.171 0.675 6.341 1.38 9.513 2.115-3.171-0.735-6.341-1.44-9.513-2.115zM589.914 111.211c3.456-0.383 6.917-0.79 10.382-1.219-3.466 0.431-6.926 0.837-10.382 1.219zM568.535 113.284c3.331-0.276 6.667-0.578 10.004-0.899-3.338 0.321-6.672 0.623-10.004 0.899zM579.307 112.313c3.343-0.324 6.69-0.673 10.041-1.041-3.349 0.369-6.697 0.717-10.041 1.041z"/>
</svg>