<svg xmlns="http://www.w3.org/2000/svg" viewBox="0 -64 1024 1000" style="transform: scaleY(-1);">
<path fill="currentColor" d="M494.878 515.559c66.685 15.158 74.889 99.483-29.678 124.413-77.934 18.581-152.972 55.162-212.015 104.747 2.397-3.857 4.841-7.654 7.332-11.399-24.476 36.797-44.5 78.82-58.368 129.408 2.158-7.873 4.47-15.532 6.919-23.004 14.249 19.942 13.541 47.745-3.276 67.024-19.663 22.543-53.884 24.883-76.434 5.23-19.571-17.057-23.908-45.073-11.86-66.914-20.007 14.904-48.362 14.425-67.933-2.633-22.55-19.653-24.89-53.859-5.227-76.402 18.815-21.571 50.951-24.628 73.444-7.637-1.066 0.556-2.125 1.098-3.177 1.625 28.787-14.436 63.363-39.876 98.408-71.585-3.045 2.756-6.089 5.467-9.124 8.125 35.117-55.535 75.382-138.008 74.356-187.907-2.299-111.686 115.137-151.321 138.786-73.456 64.46-62.115 91.889-153.76 48.622-239.679 76.539-139.112 290.707-254.249 512.877-192.116-362.053 147.478-230.255 321.342-483.652 512.159zM111.489 761.548c0.982-0.473 1.971-0.957 2.968-1.457-0.997 0.499-1.986 0.984-2.968 1.457zM96.174 768.023c0.468-0.167 0.945-0.349 1.417-0.525-0.473 0.175-0.949 0.357-1.417 0.525zM99.188 766.902c0.611-0.236 1.231-0.486 1.851-0.735-0.62 0.249-1.239 0.499-1.851 0.735zM102.236 765.686c0.715-0.294 1.44-0.603 2.163-0.914-0.725 0.312-1.447 0.62-2.163 0.914zM105.302 764.386c0.815-0.354 1.637-0.723 2.462-1.098-0.825 0.376-1.647 0.743-2.462 1.098zM108.382 763.008c0.902-0.414 1.811-0.84 2.726-1.278-0.915 0.438-1.824 0.864-2.726 1.278zM486.149 522.024c-0.045 0.033-0.089 0.065-0.134 0.099 0.045-0.032 0.089-0.065 0.134-0.099zM467.824 534.968c-0.279 0.19-0.563 0.383-0.842 0.573 0.279-0.19 0.563-0.381 0.842-0.573zM338.403 642.233c-6.316 6.034-12.509 12.161-18.572 18.402 6.062-6.241 12.258-12.367 18.572-18.402zM399.348 588.584c-3.186 2.641-6.351 5.285-9.503 7.933 3.152-2.648 6.318-5.292 9.503-7.933zM387.209 598.74c-2.397 2.023-4.784 4.048-7.161 6.077 2.375-2.030 4.764-4.054 7.161-6.077zM377.452 607.037c-2.872 2.464-5.728 4.936-8.566 7.415 2.838-2.479 5.695-4.95 8.566-7.415zM368.117 615.122c-3.264 2.858-6.503 5.73-9.719 8.615 3.216-2.885 6.455-5.755 9.719-8.615zM357.618 624.444c-2.883 2.593-5.743 5.2-8.583 7.819 2.84-2.621 5.701-5.227 8.583-7.819zM347.53 633.655c-2.895 2.683-5.77 5.379-8.618 8.095 2.848-2.716 5.723-5.412 8.618-8.095zM284.328 700.746c-8.287 10.372-16.204 21.147-23.701 32.407 7.497-11.262 15.413-22.034 23.701-32.407zM319.368 661.116c-2.92 3.012-5.808 6.052-8.665 9.121 2.855-3.070 5.745-6.109 8.665-9.121zM310.379 670.582c-8.96 9.644-17.597 19.593-25.866 29.932 8.269-10.34 16.907-20.286 25.866-29.932zM250.307 652.474c-2.933 3.005-5.877 5.977-8.827 8.914 2.95-2.937 5.893-5.908 8.827-8.914zM222.165 680.017c-2.868 2.678-5.735 5.317-8.6 7.913 2.865-2.598 5.731-5.235 8.6-7.913zM240.759 662.103c-2.808 2.79-5.623 5.546-8.441 8.269 2.818-2.723 5.631-5.479 8.441-8.269zM231.406 671.25c-2.79 2.686-5.581 5.337-8.374 7.953 2.793-2.616 5.584-5.267 8.374-7.953zM278.229 622.504c2.671-3.002 5.324-6.025 7.955-9.067-2.633 3.042-5.284 6.065-7.955 9.067zM250.541 652.235c3.014-3.090 6.015-6.216 9.004-9.371-2.988 3.157-5.99 6.283-9.004 9.371zM259.932 642.453c2.857-3.020 5.698-6.069 8.526-9.144-2.826 3.075-5.67 6.124-8.526 9.144zM269.238 632.457c2.713-2.958 5.411-5.94 8.090-8.944-2.679 3.004-5.377 5.985-8.090 8.944zM304.014 592.145c2.678-3.308 5.322-6.63 7.935-9.963-2.613 3.333-5.259 6.655-7.935 9.963zM286.969 612.53c2.726-3.161 5.431-6.339 8.108-9.537-2.679 3.197-5.382 6.378-8.108 9.537zM295.483 602.51c2.808-3.358 5.588-6.732 8.334-10.123-2.746 3.391-5.526 6.765-8.334 10.123zM335.404 550.599c-2.27 3.237-4.58 6.471-6.927 9.7 2.349-3.229 4.659-6.463 6.927-9.7zM327.725 561.332c-2.302 3.156-4.639 6.304-7.009 9.448 2.37-3.144 4.707-6.294 7.009-9.448zM319.916 571.839c-2.409 3.182-4.851 6.356-7.325 9.52 2.474-3.164 4.916-6.338 7.325-9.52zM335.909 549.882c2.419-3.46 4.794-6.921 7.118-10.38-2.322 3.461-4.699 6.922-7.118 10.38zM415.388 568.122l-29.592-107.188c2.776-1.949 5.504-3.949 8.19-5.992-2.684 2.045-5.416 4.043-8.19 5.992l29.592 107.188zM458.625 541.167c-0.469 0.311-0.934 0.623-1.405 0.934 0.471-0.311 0.937-0.621 1.405-0.934zM438.155 554.349c-0.807 0.504-1.625 1.007-2.439 1.512 0.814-0.503 1.632-1.007 2.439-1.512zM428.221 560.46c-0.927 0.563-1.849 1.124-2.785 1.687 0.934-0.563 1.858-1.126 2.785-1.687zM402.044 448.556c5.19-4.278 10.187-8.737 14.981-13.355-4.794 4.619-9.792 9.076-14.981 13.355zM394.136 454.827c2.654-2.023 5.262-4.091 7.826-6.202-2.563 2.113-5.173 4.18-7.826 6.202z"/>
</svg>