<svg xmlns="http://www.w3.org/2000/svg" viewBox="0 -64 1024 1000" style="transform: scaleY(-1);">
<path fill="currentColor" d="M983.293 364.413l-67.594 22.31 1.591-1.665-373.85-135.67-357.881 378.335-87.855 28.998c-44.338-31.379-49.323-120.782-19.511-151.87l441.774-454.079 467.257 167.304c-42.553 23.261-77.1 89.476-3.93 146.337zM495.156 241.88l-368.136 381.698h11.020l366.51-374.19-9.393-7.508zM523.302 64.41c0 0-50.929 59.504 15.072 138.695l400.039 144.866c0 0-46.001-78.994 7.832-125.649l-422.944-157.912zM185.558 627.724l-12.216 12.914 372.938 132.431 369.42-386.344 67.592-22.31c-0.33-0.256-0.641-0.514-0.967-0.771l7.884 2.814-435.941 452.001-454.798-162.317 86.088-28.416z"/>
</svg>