<svg xmlns="http://www.w3.org/2000/svg" viewBox="0 -64 1024 1000" style="transform: scaleY(-1);">
<path fill="currentColor" d="M888.196 810.803c-63.202 65.882-316.713 63.977-520.202 29.357l12.906-141.158c119.723 8.942 247.651 6.441 319.7-66.944 69.821-75.509 66.142-203.41 51.429-322.56l140.372-19.707c44.406 201.579 58.55 454.703-4.205 521.012v0zM327.62 832.717c-10.977-2.18-21.803-4.465-32.32-6.831l12.189-133.389c10.703 1.051 21.578 2.095 32.611 3.112l-12.48 137.107zM883.015 249.822l-136.342 19.085c-1.55-10.972-3.117-21.783-4.684-32.422l132.644-18.616c2.872 10.392 5.675 21.095 8.382 31.953v0zM255.202 816.105c-96.45-25.532-163.127-58.984-159.251-94.332 4.881-44.523 76.476-42.006 170.869-33.191 0-0.002-11.618 127.522-11.618 127.522zM862.928 178.29l-126.814 17.762c-13.362-93.859-19.332-165.248 24.902-172.273 35.118-5.578 71.754 59.405 101.912 154.51v0z"/>
</svg>