<svg xmlns="http://www.w3.org/2000/svg" viewBox="0 -64 1024 1000" style="transform: scaleY(-1);">
<path fill="currentColor" d="M508.784 510.040c-24.003-11.18-48.31-25.674-72.133-43.11 22.441 32.529 47.492 58.012 73.401 76.778l27.179 271.844c11.907 55.181-57.033 79.69-145.857 68.531h0.005c-69.084-8.68-150.045-38.631-214.47-94.452l66.832-379.772 3.966-121.141 116.998-16.885 33.498 78.006 46.518-82.622c160.061-18.85 282.557 2.402 343.509 43.521 12.164 125.97-86.014 283.127-279.445 199.301zM839.404 306.447c10.84-6.508 16.718-13.449 16.718-20.657 0-37.11-155.22-67.193-346.687-67.193s-346.687 30.084-346.687 67.193c0 7.242 5.935 14.214 16.875 20.751-44.516-13.279-70.606-29.377-70.606-46.73 0-45.504 179.242-82.393 400.339-82.393s400.339 36.887 400.339 82.393c0 17.313-25.968 33.376-70.292 46.636zM165.206 301.912h-94.849l50.263-22.353c9.533 7.971 24.701 15.484 44.587 22.353zM109.018 259.811c0 7.467 4.844 14.702 13.897 21.581l-91.203-52.79 91.211 9.629c-9.049 6.879-13.905 14.112-13.905 21.581zM140.134 227.915l-58.288-88.924 129.345 65.845c-29.516 6.777-53.667 14.563-71.057 23.079zM237.7 199.298l-21.429-133.337 122.613 119.285c-37.23 3.612-71.312 8.369-101.184 14.052zM372.181 182.383l23.31-154.804 101.68 149.882c-43.793 0.269-85.821 1.983-124.99 4.923zM523.874 177.479l112.239-153.298 13.78 158.463c-39.43-3.044-81.81-4.841-126.019-5.165zM683.093 185.56l121.368-119.608-21.489 133.72c-29.47-5.681-63.102-10.461-99.879-14.112zM880.097 228.679c-17.226-8.68-41.431-16.618-71.191-23.52l129.971-66.166-58.781 89.686zM909.696 259.811c0-7.4-4.769-14.572-13.659-21.394l92.979-9.816-108.47 62.78-0.114-0.606c18.86-9.558 29.265-20.011 29.265-30.964zM853.508 301.912c20.403-7.048 35.848-14.774 45.328-22.977l51.668 22.977h-96.996z"/>
</svg>