<svg xmlns="http://www.w3.org/2000/svg" viewBox="0 -64 1024 1000" style="transform: scaleY(-1);">
<path fill="currentColor" d="M767.875 771.090h-490.812c0-116.004-67.941-42.798-67.941-170.46v-502.026c0-54.606 43.758-98.362 98.361-98.362h426.236c54.604 0 98.361 43.758 98.361 98.362v502.026c0.002 135.206-64.205 58.547-64.205 170.46zM375.539 54.41l-0.003-0.008h-0.005l0.008 0.008 118.206 318.033h-214.429l346.384 367.643-93.47-268.437h233.674l-390.366-417.239zM198.751 913.389v-150.105h78.19c0.074 2.512 0.122 5.092 0.122 7.806h490.812c0-2.723 0.048-5.3 0.124-7.806h79.379v150.105h-648.626z"/>
</svg>