<svg xmlns="http://www.w3.org/2000/svg" viewBox="0 -64 1024 1000" style="transform: scaleY(-1);">
<path fill="currentColor" d="M43.427 616.021c-47.161-138.723 75.524-184.28 163.609-85.555-83.305-16.317-143.995 2.611-163.609 85.555zM734.307 579.638c319.637 72.519 318.284 427.838 74.244 328.462v-0.005c161.244 27.127 107.381-217.511-21.188-247.192 79.204 58.612 62.972 114.127 31.782 165.973-12.854-184.228-244.758-215.194-312.721-335.698 0.393 0.697 0.783 1.393 1.188 2.085-0.535 0-1.067-0.020-1.602-0.022-0.010-0.947-0.028-1.883-0.035-2.831 0-0.002-0.002-0.002-0.002-0.003 1.736 220.33 73.334 342.095 173.469 287.143 45.97-25.227 38.912-89.738-14.637-107.535 110.318 22.862 129.752 124.484 24.173 185.438v0.005c-89.806 51.848-222.295-13.701-239.553-176.746 0 0 0-0.002 0-0.002-64.049 268.211-287.866 327.902-307.584 84.947 0.586 1.233 1.181 2.446 1.784 3.637 0.224 0.443 0.454 0.869 0.682 1.305 0.383 0.74 0.765 1.487 1.154 2.212 0.262 0.488 0.533 0.957 0.797 1.438 0.362 0.656 0.723 1.32 1.091 1.964 0.276 0.481 0.558 0.944 0.835 1.418 0.366 0.623 0.73 1.253 1.103 1.864 0.292 0.479 0.591 0.942 0.885 1.413 0.366 0.585 0.728 1.176 1.099 1.749 0.306 0.471 0.616 0.925 0.925 1.388 0.369 0.555 0.737 1.116 1.109 1.659 0.312 0.454 0.631 0.892 0.947 1.336 0.378 0.533 0.752 1.071 1.134 1.594 0.322 0.441 0.653 0.867 0.979 1.3 0.383 0.506 0.762 1.019 1.148 1.513 0.332 0.426 0.67 0.835 1.006 1.253 0.389 0.484 0.775 0.974 1.168 1.447 0.339 0.408 0.683 0.8 1.026 1.201 0.396 0.464 0.792 0.932 1.191 1.385 0.347 0.393 0.702 0.772 1.052 1.156 0.401 0.439 0.8 0.885 1.206 1.313 0.356 0.378 0.717 0.738 1.076 1.108 0.409 0.419 0.815 0.844 1.228 1.253 0.359 0.356 0.723 0.698 1.086 1.047 0.418 0.403 0.835 0.809 1.258 1.201 0.364 0.339 0.735 0.663 1.103 0.994 0.428 0.384 0.852 0.77 1.283 1.144 0.369 0.319 0.743 0.626 1.116 0.939 0.434 0.364 0.869 0.733 1.308 1.087 0.376 0.302 0.755 0.593 1.133 0.889 0.443 0.346 0.884 0.695 1.331 1.029 0.378 0.284 0.76 0.556 1.141 0.832 0.453 0.329 0.904 0.66 1.36 0.977 0.381 0.266 0.767 0.52 1.151 0.778 0.461 0.311 0.922 0.621 1.386 0.922 0.386 0.249 0.773 0.486 1.161 0.727 0.469 0.292 0.939 0.586 1.413 0.867 0.388 0.231 0.778 0.449 1.168 0.673 0.479 0.274 0.957 0.55 1.44 0.814 0.389 0.212 0.783 0.416 1.174 0.621 0.489 0.257 0.977 0.515 1.47 0.76 0.391 0.195 0.783 0.381 1.176 0.568 0.499 0.239 0.997 0.479 1.5 0.707 0.393 0.179 0.787 0.347 1.181 0.52 0.508 0.221 1.016 0.443 1.527 0.651 0.393 0.162 0.788 0.314 1.183 0.469 0.52 0.204 1.039 0.408 1.56 0.6 0.391 0.144 0.785 0.281 1.178 0.418 0.528 0.185 1.057 0.371 1.59 0.545 0.394 0.129 0.79 0.251 1.184 0.374 0.538 0.167 1.076 0.334 1.617 0.489 0.391 0.114 0.785 0.219 1.179 0.326 0.55 0.149 1.098 0.297 1.65 0.436 0.391 0.099 0.783 0.189 1.176 0.281 0.56 0.13 1.119 0.261 1.682 0.379 0.388 0.082 0.777 0.159 1.166 0.236 0.571 0.114 1.143 0.224 1.717 0.326 0.386 0.068 0.773 0.13 1.159 0.192 0.581 0.094 1.164 0.185 1.749 0.269 0.384 0.053 0.768 0.102 1.153 0.152 0.591 0.075 1.184 0.147 1.779 0.21 0.383 0.040 0.765 0.075 1.149 0.112 0.601 0.057 1.204 0.109 1.811 0.152 0.378 0.027 0.757 0.050 1.136 0.074 0.615 0.037 1.231 0.070 1.849 0.094 0.371 0.015 0.743 0.025 1.116 0.035 0.63 0.017 1.261 0.030 1.894 0.035 0.364 0.003 0.73 0.002 1.094 0 0.641-0.003 1.285-0.010 1.929-0.025 0.361-0.008 0.723-0.022 1.086-0.033 0.651-0.023 1.305-0.050 1.959-0.087 0.357-0.020 0.713-0.042 1.071-0.065 0.663-0.043 1.33-0.092 1.996-0.15 0.351-0.030 0.702-0.062 1.052-0.095 0.677-0.065 1.353-0.135 2.033-0.214 0.346-0.040 0.69-0.082 1.036-0.125 0.687-0.085 1.376-0.177 2.065-0.277 0.337-0.048 0.677-0.1 1.016-0.152 0.7-0.107 1.402-0.222 2.105-0.344 0.331-0.057 0.662-0.115 0.992-0.175 0.715-0.13 1.43-0.267 2.147-0.411 0.321-0.065 0.641-0.13 0.962-0.197 0.728-0.152 1.457-0.312 2.187-0.479 0.314-0.072 0.628-0.145 0.942-0.219 0.742-0.175 1.483-0.359 2.225-0.55 0.302-0.077 0.605-0.155 0.907-0.236 0.757-0.2 1.513-0.408 2.272-0.623 0.292-0.084 0.586-0.167 0.879-0.252 0.77-0.224 1.542-0.456 2.315-0.697 0.281-0.087 0.561-0.174 0.842-0.264 0.783-0.249 1.57-0.506 2.355-0.772 0.272-0.092 0.546-0.184 0.819-0.277 0.798-0.274 1.599-0.558 2.399-0.849 0.259-0.094 0.516-0.187 0.775-0.282 0.815-0.301 1.632-0.611 2.449-0.929 0.247-0.095 0.493-0.19 0.74-0.289 0.829-0.327 1.659-0.663 2.489-1.007 0.236-0.099 0.473-0.195 0.708-0.294 0.842-0.354 1.684-0.717 2.527-1.087 0.226-0.099 0.449-0.197 0.675-0.297 0.857-0.381 1.716-0.773 2.573-1.173 0.21-0.099 0.423-0.195 0.633-0.294 0.87-0.409 1.741-0.829 2.611-1.255 0.202-0.099 0.404-0.197 0.605-0.296 0.885-0.438 1.769-0.887 2.654-1.343 0.185-0.095 0.371-0.19 0.556-0.286 0.9-0.468 1.802-0.947 2.703-1.433 0.172-0.094 0.344-0.184 0.516-0.277 0.917-0.499 1.836-1.009 2.753-1.528 0.154-0.087 0.309-0.174 0.463-0.261 0.932-0.53 1.866-1.072 2.798-1.622 0.142-0.084 0.284-0.165 0.426-0.251 0.947-0.561 1.894-1.134 2.84-1.716 0.127-0.079 0.254-0.154 0.379-0.232 0.962-0.593 1.923-1.199 2.883-1.812 0.112-0.072 0.226-0.142 0.337-0.214 0.979-0.628 1.958-1.268 2.937-1.918 0.092-0.062 0.185-0.122 0.277-0.184 0.992-0.662 1.985-1.335 2.977-2.016 0.080-0.055 0.162-0.11 0.242-0.165 1.014-0.7 2.026-1.412 3.039-2.133 0.055-0.038 0.11-0.079 0.165-0.117 1.034-0.74 2.068-1.49 3.102-2.253 0.035-0.025 0.068-0.050 0.104-0.075 1.047-0.775 2.095-1.56 3.139-2.359 0.022-0.017 0.043-0.033 0.065-0.050 1.066-0.814 2.13-1.639 3.192-2.477v0c0 0 0 0 0 0-42.986-6.657-90.135-40.644-129.295-108.938 110.181 66.107 189.283 27.205 251.289-69.543 0-0.002 0.002-0.003 0.002-0.003 0 0.002-0.002 0.002-0.002 0.003 2.532-7.028 4.91-14.164 7.123-21.4 0.045-0.149 0.089-0.297 0.135-0.446 0.317-1.041 0.606-2.098 0.917-3.142 1.888-12.739 4.335-25.846 7.462-39.363 0.409-0.443 0.805-0.9 1.209-1.35-53.171 58.846-149.36 75.15-219.924 10.205 73.609 4.275 133.12-20.771 182.695-66.476-34.505-7.228-67.191-18.8-95.511-34.139 44.929-68.675 79.588-160.708 79.588-265.65-100.489-21.081-156.171-112.582-168.663-225.806h409.212c-3.303 68.763-27.232 121.032-89.202 162.98 87.57-5.934 138.068-99.244 146.397-162.983h55.841c-12.438 112.742-70.646 204.224-170.808 225.806 0 111.434 36.799 196.962 81.735 265.65-19.398 12.211-40.845 21.644-63.516 28.52-34.651-76.429-64.388-171.217-70.791-293.983-6.274 121.415 1.831 225.268 17.386 302.254 42.926 44.526 103.661 75.338 179 92.429zM462.527 539.731c0.055-0.284 0.102-0.571 0.157-0.855-0.623 3.201-1.291 6.381-1.98 9.552 0.561-2.588 1.123-5.175 1.64-7.783 0.060-0.306 0.124-0.61 0.182-0.914zM500.13 431.26c0.055 1.303 0.085 2.598 0.109 3.889 0.002 0.075 0.005 0.152 0.007 0.227-0.002-0.074-0.005-0.147-0.007-0.221 0.008 0.466 0.035 0.939 0.038 1.405-0.017-1.757-0.072-3.526-0.147-5.3zM500.066 429.887c-0.080-1.672-0.187-3.353-0.322-5.041-0.007-0.089-0.012-0.177-0.018-0.266v0c0.149 1.801 0.256 3.59 0.344 5.374-0.002-0.022-0.002-0.045-0.003-0.067zM500.064 429.855c-0.084-1.66-0.185-3.328-0.321-5.005 0.135 1.675 0.242 3.344 0.321 5.005zM499.745 424.537c1.031-2.329 2.093-4.674 3.156-7.018-1.069 2.347-2.125 4.689-3.156 7.018zM499.543 453.362c0.159-1.639 0.299-3.284 0.406-4.941-0.107 1.657-0.247 3.303-0.406 4.941zM499.963 448.247c0.109-1.709 0.18-3.431 0.234-5.16-0.052 1.729-0.125 3.451-0.234 5.16zM500.232 441.811c0.040-1.716 0.060-3.438 0.045-5.173 0.015 1.736-0.005 3.458-0.045 5.173zM498.822 459.613c0.227-1.65 0.421-3.316 0.595-4.988-0.174 1.672-0.368 3.338-0.595 4.988zM497.535 467.332c-0.205 1.103-0.409 2.205-0.641 3.294 0.336-1.574 0.638-3.162 0.925-4.758-0.089 0.491-0.192 0.974-0.284 1.463zM498.047 464.568c0.262-1.533 0.508-3.072 0.725-4.624-0.215 1.55-0.463 3.090-0.725 4.624zM496.854 470.697c-0.548-1.467-1.066-2.95-1.569-4.442 0.503 1.493 1.019 2.977 1.569 4.442-1.156 5.414-2.584 10.701-4.283 15.846 1.697-5.133 3.14-10.402 4.296-15.804-0.003-0.013-0.008-0.027-0.013-0.042 0 0.002 0 0 0 0zM486.976 500.949c0.628-1.397 1.231-2.808 1.817-4.23-0.585 1.422-1.189 2.831-1.817 4.23zM489.039 496.123c1.248-3.060 2.4-6.174 3.453-9.343-1.051 3.169-2.205 6.283-3.453 9.343zM494.841 464.895c-0.362-1.118-0.712-2.243-1.047-3.376 0.336 1.133 0.683 2.258 1.047 3.376zM493.373 460.108c-0.414-1.448-0.805-2.908-1.174-4.38 0.369 1.472 0.762 2.932 1.174 4.38zM491.774 453.932c-0.221-0.927-0.433-1.859-0.635-2.798 0.202 0.937 0.416 1.869 0.635 2.798zM490.66 448.815c-0.152-0.767-0.291-1.542-0.431-2.317 0.139 0.775 0.279 1.549 0.431 2.317zM489.402 441.392c-0.065-0.453-0.137-0.904-0.199-1.358 0.062 0.456 0.135 0.905 0.199 1.358zM488.809 436.748c-0.048-0.431-0.094-0.862-0.139-1.295 0.045 0.433 0.092 0.864 0.139 1.295zM487.918 423.514c0-0.023-0.002-0.045-0.002-0.068 0 0.023 0.002 0.047 0.002 0.068zM488.433 405.777c0.020-0.257 0.038-0.511 0.060-0.768-0.020 0.241-0.053 0.489-0.072 0.73 0.005-0.008 0.010-0.017 0.017-0.025-0.002 0.022-0.003 0.042-0.005 0.063zM491.52 383.436c-0.115 0.593-0.21 1.174-0.319 1.766 0.11-0.591 0.204-1.173 0.319-1.766zM490.232 390.735c-0.099 0.62-0.18 1.229-0.272 1.846 0.092-0.616 0.174-1.226 0.272-1.846zM489.221 397.939c-0.068 0.566-0.129 1.128-0.192 1.692 0.063-0.563 0.124-1.124 0.192-1.692zM505.452 411.953c0.952-2.061 1.901-4.121 2.883-6.196-0.977 2.068-1.936 4.128-2.888 6.184 0.002 0.003 0.003 0.007 0.005 0.012zM539.316 468.916c-0.723-0.914-1.437-1.834-2.148-2.758 0.712 0.922 1.425 1.844 2.148 2.758zM533.663 461.524c-0.693-0.945-1.36-1.909-2.040-2.863 0.68 0.954 1.346 1.919 2.040 2.863zM525.99 450.39c-0.778-1.194-1.57-2.379-2.33-3.588 0.76 1.209 1.552 2.394 2.33 3.588zM521.059 442.514c-0.797-1.33-1.59-2.661-2.362-4.006 0.773 1.345 1.565 2.676 2.362 4.006zM516.313 434.254c-0.795-1.45-1.57-2.913-2.337-4.383 0.767 1.47 1.542 2.933 2.337 4.383zM511.843 425.743c-0.904-1.811-1.769-3.648-2.633-5.488 0.864 1.839 1.729 3.677 2.633 5.488zM507.814 417.348c-0.070 1.255-0.13 2.494-0.195 3.742 0.065-1.248 0.125-2.487 0.195-3.742zM507.241 428.564c-0.074 1.567-0.142 3.125-0.209 4.684 0.067-1.559 0.134-3.119 0.209-4.684zM506.76 439.992c-0.055 1.458-0.112 2.92-0.162 4.372 0.048-1.452 0.107-2.913 0.162-4.372zM506.29 454.674c-0.023 0.956-0.038 1.899-0.060 2.853 0.022-0.954 0.035-1.898 0.060-2.853zM506.077 465.517c-0.020 1.343-0.037 2.678-0.052 4.014 0.015-1.336 0.030-2.671 0.052-4.014zM505.965 476.605c-0.007 1.229-0.015 2.461-0.017 3.683 0.002-1.223 0.010-2.454 0.017-3.683zM467.39 533.124c-0.326 0.411-0.65 0.822-0.979 1.229 0 0.003 0 0.007 0 0.008s0 0 0 0c0.331-0.408 0.653-0.825 0.979-1.238zM486.879 501.171c-0.645 1.43-1.315 2.846-2.001 4.25 0.687-1.405 1.356-2.82 2.001-4.25zM484.429 506.325c-0.55 1.106-1.114 2.203-1.689 3.293 0.575-1.089 1.138-2.185 1.689-3.293zM482.21 510.621c-0.683 1.271-1.383 2.529-2.1 3.777 0.718-1.248 1.417-2.507 2.1-3.777zM479.407 515.591c-0.515 0.877-1.037 1.747-1.569 2.613 0.531-0.864 1.054-1.736 1.569-2.613zM476.917 519.69c-0.605 0.961-1.221 1.911-1.848 2.855 0.626-0.944 1.243-1.894 1.848-2.855zM473.746 524.503c-0.469 0.687-0.944 1.371-1.423 2.050 0.481-0.678 0.954-1.363 1.423-2.050zM471.032 528.348c-0.418 0.573-0.844 1.139-1.27 1.706 0.426-0.568 0.852-1.134 1.27-1.706zM483.208 413.647c-0.319 0.476-0.64 0.954-0.961 1.428 0.321-0.474 0.641-0.95 0.961-1.428zM476.918 422.818c-0.077 0.109-0.155 0.215-0.232 0.326 0.077-0.11 0.155-0.217 0.232-0.326zM471.506 430.338c-0.336 0.458-0.67 0.917-1.007 1.373 0.337-0.456 0.672-0.915 1.007-1.373zM459.196 627.887c-0.022 0.144-0.042 0.291-0.063 0.434 0.022-0.144 0.042-0.291 0.063-0.434zM465.511 563.675c-0.008 0.16-0.018 0.321-0.027 0.481 0.008-0.16 0.018-0.319 0.027-0.481zM464.975 572.971c-0.030 0.459-0.063 0.914-0.094 1.371 0.032-0.458 0.065-0.912 0.094-1.371zM464.321 582.182c-0.045 0.581-0.094 1.158-0.14 1.737 0.047-0.578 0.095-1.156 0.14-1.737zM463.551 591.325c-0.057 0.616-0.115 1.231-0.172 1.848 0.057-0.616 0.115-1.231 0.172-1.848zM462.661 600.421c-0.062 0.591-0.125 1.183-0.189 1.772 0.063-0.591 0.125-1.181 0.189-1.772zM461.647 609.49c-0.062 0.521-0.124 1.042-0.185 1.564 0.062-0.521 0.124-1.042 0.185-1.564zM460.503 618.582c-0.052 0.394-0.104 0.79-0.157 1.183 0.053-0.394 0.105-0.79 0.157-1.183zM454.317 574.294c0.074-0.266 0.147-0.533 0.221-0.8 0.221-0.792 0.418-1.597 0.633-2.392-0.934 3.434-1.906 6.847-2.913 10.242 0.697-2.345 1.398-4.686 2.060-7.049zM457.491 562.292c0.144-0.576 0.271-1.161 0.414-1.739-0.852 3.455-1.742 6.891-2.669 10.307 0.683-2.519 1.366-5.040 2.008-7.581 0.082-0.329 0.165-0.658 0.247-0.987zM458.094 559.758c0.623-2.552 1.246-5.107 1.826-7.681 0.079-0.347 0.157-0.693 0.236-1.041 0.089-0.396 0.164-0.797 0.252-1.193-0.735 3.323-1.51 6.627-2.314 9.914zM462.701 538.785c0 0 0-0.002 0 0-0.007 0.007-0.015 0.015-0.022 0.025 0.008-0.008 0.015-0.017 0.022-0.025zM465.071 438.909c-0.239 0.309-0.479 0.613-0.718 0.922 0.239-0.307 0.479-0.611 0.718-0.922zM459.337 446.176c-0.332 0.413-0.663 0.829-0.997 1.239 0.334-0.411 0.665-0.827 0.997-1.239zM433.376 475.224c-0.227 0.227-0.451 0.461-0.678 0.688 0.227-0.227 0.451-0.461 0.678-0.688zM452.782 454.104c-0.351 0.413-0.703 0.819-1.054 1.228 0.351-0.409 0.705-0.815 1.054-1.228zM446.656 461.133c-0.304 0.341-0.606 0.687-0.912 1.027 0.306-0.339 0.608-0.685 0.912-1.027zM440.029 468.361c-0.433 0.459-0.869 0.912-1.301 1.368 0.434-0.456 0.869-0.91 1.301-1.368zM426.789 481.642c-0.493 0.468-0.987 0.93-1.482 1.393 0.494-0.463 0.989-0.925 1.482-1.393zM508.544 405.309c-0.129 1.966-0.236 3.907-0.356 5.862 0.119-1.953 0.227-3.896 0.356-5.862 0 0 0 0 0 0zM549.205 480.656c0.068 0.077 0.14 0.15 0.21 0.227-0.070-0.077-0.142-0.15-0.21-0.227zM543.046 473.511c0.682 0.819 1.38 1.627 2.071 2.439-0.693-0.812-1.39-1.619-2.071-2.439zM648.882 753.803c-65.073 11.438-86.026-96.817-1.325-83.333-29.91 11.050-32.085 55.099 1.325 83.333z"/>
</svg>