<svg xmlns="http://www.w3.org/2000/svg" viewBox="0 -64 1024 1000" style="transform: scaleY(-1);">
<path fill="currentColor" d="M123.998 835.112c96.777-18.656 245.169-165.302 258.649-258.649-87.354 9.269-238.467 155.738-258.649 258.649zM479.177 748.271l-116.342-116.342c10.352-19.531 17.346-38.392 19.812-55.466-16.778 1.781-35.914 8.638-56.018 19.261l-127.733-127.733 52.962-52.962 280.28 280.28-52.962 52.962zM123.998 835.112c10.228-1.971 21.036-5.387 32.197-10.004l31.485 31.485-68.002 68.002-88.173-88.171 68.002-68.003 34.412 34.412c-4.499 11.077-7.886 21.903-9.921 32.28zM844.344 268.244l-81.255-14.478 15.243 80.022-80.976-14.289 16.195 79.069-80.022-15.243 15.243 80.022-80.976-14.289 15.527 81.098-94.233 94.233-149.686-149.688 365.038-365.038c70.128-70.135 186.52-155.235 282.963-133.287-46.792 42.499-163.21 213.025-143.061 291.868z"/>
</svg>