<svg xmlns="http://www.w3.org/2000/svg" viewBox="0 -64 1024 1000" style="transform: scaleY(-1);">
<path fill="currentColor" d="M507.094 942.644c-217.432 0-393.7-221.251-393.7-494.173s176.27-494.173 393.7-494.173 393.7 221.251 393.7 494.173-176.27 494.173-393.7 494.173zM337.78 139.748c-46.842 0-84.815 38.309-84.815 85.565s37.973 85.565 84.815 85.565 84.815-38.309 84.815-85.565c0-47.256-37.973-85.565-84.815-85.565zM200.442 596.33c0 171.315 138.876 310.192 310.192 310.192s310.192-138.876 310.192-310.192-138.875-310.192-310.192-310.192-310.192 138.878-310.192 310.192zM668.264 139.748c-46.842 0-84.815 38.309-84.815 85.565s37.973 85.565 84.815 85.565 84.815-38.309 84.815-85.565c-0.002-47.256-37.973-85.565-84.815-85.565zM850.663 207.053c-11.653-26.071-25.116-50.694-40.208-73.568 46.63 19.284 87.272 43.795 118.664 73.568h-78.455zM163.524 207.053h-71.501c29.111-27.611 66.324-50.736 108.987-69.356-13.989 21.679-26.54 44.872-37.485 69.356zM511.327 365.412l-199.117 116.1-0.733 230.926 198.377 114.823 199.117-116.1 0.733-230.926-198.377-114.823z"/>
</svg>