<svg xmlns="http://www.w3.org/2000/svg" viewBox="0 -64 1024 1000" style="transform: scaleY(-1);">
<path fill="currentColor" d="M517.771 911.678c80.789 3.211 159.944-20.111 236.282-63.313l-17.401-64.935c-89.614-10.765-164.169 6.059-236.282 63.313l17.401 64.935zM662.013 506.229c17.994 11.807 31.458 27.723 36.734 47.383 9.811 36.578-9.859 75.288-46.523 104.032l32.892 122.756c-52.603 0.413-100.302 12.605-146.168 39.705l-32.741-122.185c-46.802-6.286-83.753-30.68-93.663-67.622-5.341-19.902-2.116-41.060 7.833-60.469-109.426-26.489-205.854-119.086-240.446-248.054-18.333-68.346-16.643-136.428 0.974-197.136 138.541-102.684 291.204-155.889 466.687-125.045 45.395 43.721 81.148 102.154 99.41 170.236 34.794 129.751-2.444 258.96-84.987 336.398zM641.873 234.465c-34.565 6.146-62.367-8.103-76.655-42.938l-200.604 53.752c6.243 33.134-14.069 65.491-46.454 75.89l25.151 93.769c33.264-7.133 67.415 12.126 78.633 44.067l200.6-53.756c-6.176-32.711 13.076-65.969 44.481-77.019l-25.152-93.765z"/>
</svg>