<svg xmlns="http://www.w3.org/2000/svg" viewBox="0 -64 1024 1000" style="transform: scaleY(-1);">
<path fill="currentColor" d="M155.521 703.315c8.344 47.229 43.347 85.229 88.928 97.913l-136.428 136.165-87.458-0.002v-99.119l134.958-134.958zM253.411 577.754c0 68.611 55.618 124.23 124.23 124.23 7.883 0 15.582-0.767 23.058-2.17-8.827 59.957-60.473 105.983-122.883 105.983-68.611 0-124.23-55.618-124.23-124.23 0-60.728 43.584-111.245 101.172-122.060-0.877 5.957-1.346 12.046-1.346 18.247zM976.293-18.638l-724.624 279.347 32.995 94.228 263.971 54.083 54.087 263.97 95.361 34.133 278.211-725.76zM548.635 409.020l53.756 262.353-13.389 34.96-338.212-338.214 34.104-13.135zM341.542 458.87l154.983 154.983c-15.467 51.001-62.83 88.131-118.883 88.131-68.611 0-124.23-55.618-124.23-124.23-0.002-56.054 37.128-103.419 88.129-118.884z"/>
</svg>