<svg xmlns="http://www.w3.org/2000/svg" viewBox="0 -64 1024 1000" style="transform: scaleY(-1);">
<path fill="currentColor" d="M27.43 41.2l30.374 30.374 80.793-80.793-30.374-30.374-80.793 80.793zM449.823 295.015c0 48.521-39.36 87.882-87.882 87.882s-87.88-39.36-87.88-87.88c0-48.521 39.338-87.859 87.882-87.882s87.902 39.338 87.88 87.88zM274.472 286.614l-0.807 0.807-166.337-166.336 80.794-80.794 166.337 166.337-0.92 0.92c-41.832 3.986-75.099 37.253-79.067 79.065zM274.061 295.016c0 45.507 34.621 82.952 78.95 87.431-46.731 53.121-88.214 110.883-123.852 172.613l-111.566-111.566 156.877-156.877c-0.262 2.763-0.409 5.564-0.409 8.399zM449.376 286.054c-4.472-44.334-41.914-78.942-87.433-78.92-2.836 0.002-5.638 0.149-8.406 0.413l157.058-157.058 111.566 111.566c-62.063 35.842-119.841 77.405-172.785 123.999zM815.497 885.368l-423.004-423.004c6.535-9.622 10.729-21.41 10.729-33.817 0-19.234-9.188-36.441-23.375-47.483 34.711-7.191 61.918-34.869 68.453-69.814 11.013 14.625 28.5 24.14 48.078 24.14 12.407 0 23.51-3.51 32.978-9.891l423.002 423.002 29.691 166.555-166.553-29.688zM41.964 87.42l112.539-112.539 49.514 49.514-112.539 112.539-49.514-49.514z"/>
</svg>