<svg xmlns="http://www.w3.org/2000/svg" viewBox="0 -64 1024 1000" style="transform: scaleY(-1);">
<path fill="currentColor" d="M184.621 122.542c-44.112 44.080-97.278 62.407-118.756 40.928-21.509-21.511-3.184-74.675 40.928-118.756s97.278-62.407 118.756-40.928c21.511 21.477 3.184 74.643-40.928 118.756zM204.922 29.683c-13.733-15.074-51.377-3.142-84.080 26.651s-48.083 66.164-34.35 81.238 51.377 3.142 84.080-26.651c32.705-29.793 48.083-66.164 34.35-81.238zM174.596 107.123c-1.311 1.273-2.643 2.537-4.016 3.789 1.373-1.25 2.704-2.516 4.016-3.789zM201.805 71.813c-0.697 1.325-1.425 2.654-2.207 3.996 0.78-1.341 1.51-2.673 2.207-3.996zM199.583 75.835c-0.785 1.348-1.62 2.706-2.489 4.068 0.869-1.361 1.704-2.72 2.489-4.068zM182.967 98.407c-1.146 1.283-2.314 2.564-3.525 3.835 1.211-1.271 2.379-2.552 3.525-3.835zM196.64 80.608c-0.85 1.313-1.727 2.629-2.651 3.949 0.924-1.32 1.802-2.636 2.651-3.949zM175.55 106.193c1.295-1.276 2.569-2.557 3.8-3.85-1.231 1.291-2.506 2.574-3.8 3.85zM209.776 47.706c-0.212 2.312-0.636 4.731-1.273 7.242 0.635-2.511 1.062-4.931 1.273-7.242zM193.919 84.659c-0.942 1.343-1.933 2.689-2.95 4.036 1.017-1.346 2.008-2.693 2.95-4.036zM205.759 63.293c-1.039 2.601-2.262 5.264-3.665 7.97 1.403-2.706 2.626-5.369 3.665-7.97zM209.933 44.128v0c0.012 1.104-0.038 2.242-0.14 3.406 0.102-1.164 0.15-2.302 0.14-3.406zM208.437 55.203c-0.641 2.487-1.483 5.058-2.521 7.698 1.037-2.639 1.879-5.212 2.521-7.698zM190.339 89.52c-0.997 1.3-2.018 2.598-3.084 3.896 1.064-1.296 2.086-2.596 3.084-3.896zM187.155 93.541c-1.089 1.325-2.223 2.644-3.383 3.961 1.158-1.316 2.294-2.638 3.383-3.961zM791.016 604.966l15.515 202.859-152.629-55.506c6.806 69.306 46.453 127.935 113.793 187.813l-127.873-32.125-278.314-278.348c-92.439-92.439 2.342-175.669-96.341-274.35l-183.192-183.192 0.423-0.423c26.026 4.794 67.003-13.955 102.225-49.152 28.532-28.533 46.255-60.842 49.409-85.926l174.899 174.899c98.682 98.683 181.911 3.902 274.35 96.341l321.366 321.366-213.628-24.255zM170.554 110.939c-1.166 1.062-2.339 2.095-3.516 3.11 1.176-1.016 2.35-2.048 3.516-3.11zM165.953 114.968c-0.842 0.715-1.684 1.418-2.529 2.108 0.845-0.688 1.689-1.393 2.529-2.108zM116.708 142.392c-0.815 0.202-1.62 0.384-2.417 0.55 0.797-0.165 1.602-0.347 2.417-0.55zM162.218 118.055c-0.86 0.69-1.722 1.365-2.586 2.031 0.862-0.667 1.724-1.341 2.586-2.031zM120.097 141.465c-0.824 0.246-1.64 0.476-2.449 0.687 0.81-0.212 1.625-0.441 2.449-0.687zM110.458 143.625c1.011-0.142 2.045-0.321 3.089-0.526-1.046 0.205-2.078 0.386-3.089 0.526v0zM158.596 120.883c-2.412 1.827-4.833 3.556-7.25 5.185 2.417-1.629 4.838-3.358 7.25-5.185zM134.839 135.635c-0.884 0.429-1.762 0.844-2.636 1.243 0.874-0.398 1.754-0.814 2.636-1.243zM142.922 131.337c-2.41 1.393-4.803 2.679-7.17 3.855 2.367-1.176 4.761-2.462 7.17-3.855zM127.689 138.814c-2.299 0.919-4.554 1.721-6.762 2.405 2.207-0.685 4.464-1.487 6.762-2.405zM131.164 137.344c-0.884 0.391-1.762 0.763-2.636 1.123 0.874-0.357 1.752-0.732 2.636-1.123zM146.552 129.16c-0.895 0.555-1.791 1.092-2.683 1.619 0.892-0.526 1.787-1.064 2.683-1.619zM150.341 126.731c-0.887 0.588-1.774 1.163-2.658 1.722 0.885-0.56 1.771-1.136 2.658-1.722z"/>
</svg>