<svg xmlns="http://www.w3.org/2000/svg" viewBox="0 -64 1024 1000" style="transform: scaleY(-1);">
<path fill="currentColor" d="M996.95 353.994c0 211.676-70.023 457.178-248.753 572.707l-0.002 0.003-47.112-72.874c45.387-27.92 69.211-53.788 92.22-99.495-15.92-22.032-27.83-48.668-37.831-78.708 8.142-18.115 14.020-50.442 14.045-71.849l-71.682 11.698-61.884-67.948-49.75 101.921c-65.452-80.468-85.069-114.28-186.263-107.385l-28.604 88.231-102.014-19.763c0 0-18.594 101.623-49.829 124.382 8.768 36.649 34.876 69.076 82.515 98.282l-45.253 83.798c-165.621-116.125-232.981-346.879-232.981-563.001 185.518-93.299 240.866-199.324 230.554-311.836 27.66-15.575 56.27-31.047 89.795-40.040 45.851-12.3 95.033-18.206 145.612-18.2 50.579 0.008 102.377 5.9 150.466 18.2 43.541 11.139 83.051 28.537 118.916 49.75-1.604 109.456 58.064 217.606 237.835 302.127zM375.055 297.686c-56.42-32.576-122.325-24.237-146.721 18.016-13.925 24.115-10.9 54.025 4.291 81.507l-0.002 0.002c25.628 0.438 55.842 5.586 88.376 18.019 30.994 11.839 60.045 28.061 83.228 45.472 11.982-6.298 22.424-15.768 29.173-27.454 24.396-42.256-1.926-102.986-58.346-135.562zM429.429 93.285c19.698 72.138 43.382 144.274 80.929 216.411 0 0.002-0.002 0.002-0.002 0.003h0.003c0-0.002-0.002-0.002-0.002-0.003 37.003-72.138 66.358-144.274 80.929-216.411-53.955 16.459-107.906 18.654-161.859 0zM792.215 315.7c-24.397-42.251-90.302-50.592-146.721-18.016s-82.742 93.306-58.345 135.562c6.749 11.687 17.191 21.157 29.173 27.454 23.181-17.411 52.234-33.633 83.228-45.472 32.536-12.433 62.748-17.582 88.376-18.019l-0.002-0.002c15.19-27.483 18.215-57.391 4.29-81.507zM210.688 723.473c10.564 27.87 17.744 61.627 51.873 83.574zM804.393 744.075c-11.623 22.029-30.887 60.496-54.038 77.777z"/>
</svg>