<svg xmlns="http://www.w3.org/2000/svg" viewBox="0 -64 1024 1000" style="transform: scaleY(-1);">
<path fill="currentColor" d="M668.46 393.021l-103.896 54.414 11.551-69.274-79.982 27.223c140.578-98.745 235.983-223.089 323.239-380.963 45.236-81.824 143.575-12.893 68.432 68.432 82.667-67.838 155.938 49.888 81.637 81.637-127.123 54.321-235.702 125.187-300.98 218.531v0zM33.595 349.408c-27.535-41.24 16.546-101.867 108.485-66.621-110.858-66.527-16.515-162.119 50.137-86.851 68.369 77.173 149.663 148.82 235.109 182.848l25.35 56.381-65.497-12.519 96.716 119.412c-119.068-83.822-248.314-149.725-397.758-162.338-26.349-2.217-43.363-16.577-52.541-30.313zM566.281 550.645l86.944 207.293-51.261 161.432-66.277-269.075 30.594-99.65zM843.254 374.883l-240.322 123.283 223.464-17.202 16.858-106.081zM507.247 579.303l-185.127 293.925 4.058-221.029 181.069-72.896zM457.359 353.904l-120.317-158.279 93.375 20.573 26.942 137.706zM623.287 539.156l170.267 77.891-111.295 3.122-58.972-81.013zM495.196 352.062l37.931-236.389 72.709 39.18-110.639 197.209z"/>
</svg>