<svg xmlns="http://www.w3.org/2000/svg" viewBox="0 -64 1024 1000" style="transform: scaleY(-1);">
<path fill="currentColor" d="M371.824 917.558h213.814c-40.551-241.039-173.221-239.3-213.814 0zM792.761 302.587c0 143.368-141.223 216.684-228.502 300.921-93.612 90.354 32.466 252.223 32.466 252.223l0.003 0.005h-24.9c-45.637-158.19-140.333-157.26-186.074 0h-18.778c0 0 115.117-161.74 22.476-254.724-84.118-84.424-219.759-158.221-219.762-298.425 0-8.362-0.149-298.422-0.388-306.615l624.024-4.542c-0.344 9.669-0.565 301.251-0.565 311.157zM502.116 544.886c24.474 0 44.314-19.84 44.314-44.314s-19.84-44.314-44.314-44.314-44.314 19.84-44.314 44.314c-0.002 24.474 19.839 44.314 44.314 44.314zM226.429 301.869c0 40.766 14.956 73.928 36.149 103.78h-0.002l0.003 0.003c0-0.002-0.002-0.002-0.002-0.003h253.668c10.554 12.209 26.143 19.947 43.551 19.947s32.997-7.738 43.551-19.947h96.53c21.2-29.651 36.151-63.072 36.152-103.783 0-13.255 0.478-243.939 1.086-256.65l-511.382 7.591c0.404 10.287 0.695 238.433 0.695 249.063z"/>
</svg>