<svg xmlns="http://www.w3.org/2000/svg" viewBox="0 -64 1024 1000" style="transform: scaleY(-1);">
<path fill="currentColor" d="M500.474 214.987l-96.391-166.955-341.704 197.281 96.391 166.955 341.704-197.281zM714.064 807.295l-49.895-186.214-381.12 102.121 49.895 186.214 381.12-102.121zM628.404 503.984l-73.688-178.144-364.602 150.814 73.688 178.144 364.602-150.814zM717.695 763.995l-28.887-107.809c109.332-28.578 208.321-42.308 305.229-22.859-74.954 65.964-166.733 100.74-276.341 130.668zM628.621 459.515l-42.649-103.103c103.8-42.007 199.476-68.063 297.363-61.428-65.26 74.602-150.959 120.885-254.714 164.532zM442.209 72.474c96.211-54.275 186.724-91.881 283.571-98.062-54.327 81.613-132.119 138.377-227.817 194.63l-55.754-96.568z"/>
</svg>