<svg xmlns="http://www.w3.org/2000/svg" viewBox="0 -64 1024 1000" style="transform: scaleY(-1);">
<path fill="currentColor" d="M469.413 924.355l-0.002-0.005h0.002zM777.137 708.335c47.844-112.161 23.118-198.395-36.331-246.473 29.23 382.784-392.387 228.539-271.395 462.489-347.749-96.507 28.702-290.542-100.564-360.162-65.483-35.262-171.788-30-129.114 147.556-232.299-188.829-137.634-640.939 167.57-726.36-83.786 43.813-140.976 131.541-140.976 232.645 0 144.912 117.469 262.38 262.38 262.38s262.38-117.474 262.38-262.38c0-90.932-46.262-171.050-116.526-218.125 364.736 126.667 315.016 594.052 102.577 708.431zM444.419 238.045c0-28.233 22.89-51.123 51.123-51.123s51.123 22.89 51.123 51.123-22.89 51.123-51.123 51.123c-28.233-0.002-51.123-22.89-51.123-51.123zM528.725 335.721c-83.727 0-151.599-67.871-151.599-151.599s67.873-151.599 151.599-151.599c83.724 0 151.599 67.871 151.599 151.599 0 83.724-67.871 151.599-151.599 151.599zM528.691 88.546c-52.81 0-95.623 42.811-95.623 95.623 0 16.775 4.333 32.534 11.92 46.24-0.373 2.491-0.57 5.040-0.57 7.636 0 28.233 22.89 51.121 51.123 51.123 11.042 0 21.257-3.513 29.616-9.467 1.174 0.043 2.349 0.089 3.533 0.089 52.812 0 95.623-42.811 95.623-95.623 0-52.81-42.813-95.621-95.623-95.621z"/>
</svg>