<svg xmlns="http://www.w3.org/2000/svg" viewBox="0 -64 1024 1000" style="transform: scaleY(-1);">
<path fill="currentColor" d="M706.682 468.478l-167.46-101.481-167.442 101.495-0.003-302.329 167.453-94.415 167.457 94.415-0.005 302.316zM932.107 685.336c11.946-50.585-12.228-153.306-67.594-187.743 9.981 115.361-7.821 281.438-73.267 342.514 65.135-345.043-185.678-303.928-96.552-198.756 58.926 69.535-0.381 204.656-34.985 224.375 21.751-84.107-28.428-139.139-109.251-122.685-54.419 11.074-89.32 89.76-23.689 179.821l0.008 0.008c-100.608-25.46-161.112-132.402-101.456-222.043 44.881-67.44 89.763-122.138 17.448-157.87-46.63-23.044-99.873 32.852-92.081 98.398 9.609 80.836-37.375 159.592-92.127 176.086 92.324-212.496-86.776-353.41-48.978-153.929-60.471-32.137-65.483-117.884-22.486-245.078-80.61 34.342-109.929 133.354-76.412 240.77-71.613-56.602-106.419-261.377-29.197-366.338 190.913-259.491 414.023-323.938 453.645-323.938 42.22 0 234.287 67.322 378.569 229.874 83.43 93.989 101.682 337.26 18.404 486.534zM762.987 159.693l-223.763-121.515-223.755 121.515v340.939l447.518-0.037v-340.902z"/>
</svg>