<svg xmlns="http://www.w3.org/2000/svg" viewBox="0 -64 1024 1000" style="transform: scaleY(-1);">
<path fill="currentColor" d="M202.096 232.208c-100.142-27.212-164.829-67.517-164.829-112.226 0-81.903 212.698-148.463 474.616-148.463s474.616 66.56 474.616 148.463c0 44.55-64.136 85.019-163.661 112.226 34.405-17.729 54.944-38.436 54.944-60.789 0-64.156-164.351-116.9-365.897-116.9s-364.726 52.749-364.726 116.9c0 22.471 20.188 43.001 54.944 60.789h-0.007zM608.47 852.759l0.007-0.005-0.003 0.008zM747.289 606.591c-11.717-163.955-140.757-99.918-87.92 116.604 12.97 53.154-24.031 114.237-50.893 129.559 52.807-134.027-118.288-234.184-113.836-70.327-80.296-73.726-25.583-168.192 9.553-243.361 26.636-56.995 24.655-107.48-20.206-126.704-32.018-13.716-67.627 23.144-79.117 60.962-5.112 16.827-3.411 41.735 1.851 75.881-42.096-85.46-107.781-91.664-76.815 62.938-119.018-135.44-76.015-397.058 89.886-476.962-25.934 50.843-40.17 113.951-28.4 167.746 0 0 0 0 0 0.002v0c0 0 0 0 0-0.002 72.58-157.372 241.786-2.873 251.633 137.904 26.941-89.085 23.161-219.118-21.623-312.409 180.56 70.484 221.070 342.375 125.885 478.168z"/>
</svg>