<svg xmlns="http://www.w3.org/2000/svg" viewBox="0 -64 1024 1000" style="transform: scaleY(-1);">
<path fill="currentColor" d="M808.688 266.369c0-163.304-132.367-295.672-295.674-295.672-163.305 0-295.674 132.367-295.674 295.672s132.367 295.672 295.674 295.672 295.674-132.368 295.674-295.672zM312.716 697.686c50.094-34.166 77.191-117.735 66.054-167.807 20.301 10.362 41.966 18.432 64.644 23.903-38.147 30.137-62.599 108.679-34.263 163.885 26.41 51.417-20.886 105.955-73.115 90.157-60.688-18.357-55.974-87.879-23.32-110.138zM561.478 558.066c33.969-5.601 65.982-16.987 95-33.119-23.504 69.918 8.857 189.981 90.961 239.11 48.014 28.722 58.941 131.929-26.973 157.935-73.927 22.384-139.922-54.351-103.521-127.622 43.543-87.685 6.834-197.477-55.466-236.303zM229.697 351.148c16.663 55.767 49.331 104.615 92.686 141.22-60.5 67.604-97.477 162.103-104.042 257.956-8.085 117.822-102.367 146.166-156.593 108.736-53.602-36.996-67.774-138.734 39.991-203.233 102.647-61.413 149.043-192.263 127.958-304.679zM944.085 717.2c-65.997 30.498-164.055-23.323-164.866-123.69-0.376-46.812-17.545-91.121-49.433-126.084 38.757-41.765 65.584-94.741 75.083-153.535-11.366 104.525 0.154 161.961 62.791 179.095 190.404 52.044 154.721 188.030 76.424 224.214z"/>
</svg>