<svg xmlns="http://www.w3.org/2000/svg" viewBox="0 -64 1024 1000" style="transform: scaleY(-1);">
<path fill="currentColor" d="M809.322 178.599c122.354 90.164 186.231 281.754 10.546 364.97 78.031-120.758-26.193-209.776-121.278-82.794-76.969 144.033 164.49 226.429-136.434 452.459h-0.005c96.719-142.775-36.839-290.674-127.106-117.782 54.501-288.532-130.238-332.159-149.265-149.265-153.020-135.345-115.826-307.654-30.782-436.563l-125.564-72.181c7.809-75.624 43.526-135.221 104.533-180.269l170.483 98.002c7.275-57.232 56.315-101.5 115.772-101.5 43.728 0 81.818 23.955 101.817 59.387l215.875-57.593c47.221 59.235 66.224 126 54.112 201.063l-82.703 22.065zM305.966 410.194c51.295-78.729 213.348-20.124 193.917 119.699 21.355-64.041 75.472-57.805 131.338 40.973-75.991-205.097 43.596-338.184 123.628-276.789 3.592-29.29-10.486-63.745-32.424-92.294l-239.477 63.891c-16.658-16.257-29.519-35.409-38.939-56.051l-39.889 12.639c-1.831 0.64-3.633 1.343-5.426 2.075-0.448 0.182-0.892 0.368-1.336 0.556-1.744 0.738-3.475 1.507-5.182 2.33-0.159 0.077-0.314 0.16-0.473 0.239-1.55 0.757-3.079 1.56-4.597 2.385-0.551 0.301-1.101 0.603-1.647 0.912-1.363 0.77-2.713 1.567-4.048 2.39-0.66 0.408-1.313 0.829-1.966 1.25-1.069 0.687-2.128 1.39-3.177 2.111-0.727 0.499-1.45 1.006-2.167 1.52-0.844 0.606-1.675 1.231-2.507 1.859-1.278 0.966-2.541 1.956-3.789 2.972-0.563 0.458-1.128 0.915-1.684 1.385-0.905 0.762-1.806 1.533-2.694 2.32-0.304 0.269-0.603 0.548-0.905 0.82-1.817 1.64-3.603 3.331-5.349 5.077-0.195 0.195-0.393 0.388-0.586 0.583-3.049 3.082-5.984 6.321-8.8 9.702-31.371 37.679-47.959 93.174-41.82 147.444zM347.181 863.903c-128.047-64.56-29.208-120.777-27.987-184.337 88.102 77.739-7.459 106.788 27.987 184.337z"/>
</svg>