<svg xmlns="http://www.w3.org/2000/svg" viewBox="0 -64 1024 1000" style="transform: scaleY(-1);">
<path fill="currentColor" d="M70.207 669.475c81.509 134.231 279.737 229.318 499.45 229.318 146.12 0 277.081-34.266 396.226-119.99l0.925-193.27c-161.578 123.217-363.136 181.049-556.859 107.246 35.625-38.783 57.419-90.56 57.419-147.428 0-120.391-97.581-217.982-217.962-217.982s-217.962 97.591-217.962 217.983c-0.010 46.085 14.313 88.901 38.762 124.123v0zM248.814 502.999c24.751 0 44.817 20.076 44.817 44.837s-20.066 44.837-44.817 44.837-44.837-20.076-44.837-44.837 20.094-44.837 44.837-44.837zM769.746 407.57c-24.761 0-44.827-20.076-44.827-44.837s20.066-44.827 44.827-44.827 44.827 20.066 44.827 44.827-20.074 44.837-44.827 44.837zM948.351 241.094c-81.509-134.231-279.737-229.318-499.438-229.318-146.13 0-277.081 34.266-396.226 119.99l-0.925 193.26c161.568-123.207 363.136-181.039 556.849-107.256-35.635 38.793-57.419 90.57-57.419 147.438 0 120.381 97.581 217.962 217.962 217.962s217.972-97.581 217.972-217.962c0.010-46.077-14.311-88.883-38.773-124.114v0z"/>
</svg>