<svg xmlns="http://www.w3.org/2000/svg" viewBox="0 -64 1024 1000" style="transform: scaleY(-1);">
<path fill="currentColor" d="M344.663 687.429c-36.593-6.877-90.554-69.471-66.761-93.264l146.322-146.271-146.322-146.271c-29.264-29.264 58.529-117.007 87.793-87.743l146.322 146.271 146.322-146.271c29.264-29.264 117.057 58.529 87.793 87.743l-146.322 146.271 146.322 146.271c29.264 29.264-58.529 117.007-87.793 87.743l-146.322-146.271-146.322 146.271c-5.522 5.471-12.599 7.128-21.032 5.522v0zM511.992 928.008c-265.111 0-480-214.915-480-480 0-265.111 214.889-480 480-480s480 214.915 480 480-214.889 480-480 480zM511.992 807.99c198.827 0 360.006-161.18 360.006-360.006s-161.18-360.006-360.006-360.006-360.006 161.18-360.006 360.006c0.025 198.827 161.18 360.006 360.006 360.006z"/>
</svg>