<svg xmlns="http://www.w3.org/2000/svg" viewBox="0 -64 1024 1000" style="transform: scaleY(-1);">
<path fill="currentColor" d="M364.41 918.925c48.374-371.294-188.237-561.456-139.152-744.638 7.323-27.332 20.381-52.291 37.719-74.6-5.128 14.257-8.070 29.28-8.404 44.919-2.103 98.496 100.821 184.113 174.397 321.957 23.019-62.421 47.523-137.253 33.456-232.201 125.665 36.485 221.166 132.846 242.011 234.957 96.625-172.937 82.802-376.68-100.193-481.94-4.248-2.444-8.59-4.704-13.003-6.804 49.815 7.171 96.084 25.473 132.218 56.419h0.002c296.449 253.88 51.648 716.187-359.051 881.931z"/>
</svg>