<svg xmlns="http://www.w3.org/2000/svg" viewBox="0 -64 1024 1000" style="transform: scaleY(-1);">
<path fill="currentColor" d="M466.247 406.835c-30.89 31.166-51.977 87.364-51.977 152.13 0 98.302 62.474 178.087 106.319 178.087 42.198 0 106.319-79.782 106.319-178.087 0-60.683-18.768-113.485-46.466-145.642 72.078 35.977 123.643 71.326 123.643 182.95-0.002 142.481-133.347 316.703-187.435 316.703-55.735 0-187.435-174.222-187.435-316.702 0-118.508 57.949-159.169 137.032-189.44zM683.325 341.182v49.174c-53.936-20.026-108.718-29.713-163.098-29.79 4.781 58.617 2.948 119.335-8.643 198.482l-4.138-198.344c-51.808 1.363-103.16 11.443-152.97 29.651v-190.803c-6.652-51.088-44.77-60.824-44.090-106.58 0.58-39.024 29.918-51.907 44.090-35.197v-72.395h328.849v176.317c17.208-21.728 54.24-6.024 54.962 42.634 0.86 57.997-48.906 68.982-54.962 136.85z"/>
</svg>