<svg xmlns="http://www.w3.org/2000/svg" viewBox="0 -64 1024 1000" style="transform: scaleY(-1);">
<path fill="currentColor" d="M1004.268 352.324c-247.708 10.12-281.528 88.913-43.678 204.97-102.159-10.833-187.168-27.058-257.68-53.42 34.397 60.683 44.582 111.492 21.783 134.291-7.038 7.038-16.755 10.917-28.595 11.927l-211.509 287.169h-147.393l271.824-309.517-2.132-2.492c-48.759-24.8-105.475-66.844-159.779-121.146-6.682-6.682-13.172-13.402-19.473-20.138l-391.003 347.96v-399.353l264.897-181.146c1.453-10.177 5.224-18.609 11.516-24.9 23.6-23.599 77.213-11.86 140.724 25.495-27.514-73.543-45.612-164.453-56.714-277.133 74.912 257.766 161.411 218.501 228.714 12.554-37.178 218.77 198.435 123.042 369.412-10.778-132.617 203.233-248.842 354.458 9.084 375.658zM399.92 307.438c-0.109 0.109-0.195 0.239-0.302 0.351-11.082 11.603-7.609 35.588 7.016 65.053 0.013 0.025 0.027 0.052 0.040 0.077 0.9 1.811 1.841 3.643 2.825 5.494 0.058 0.11 0.124 0.224 0.184 0.336 0.944 1.771 1.919 3.555 2.938 5.357 0.107 0.19 0.224 0.384 0.332 0.575 0.984 1.731 1.991 3.473 3.042 5.232 0.157 0.262 0.326 0.528 0.483 0.79 1.019 1.694 2.056 3.394 3.135 5.112 0.224 0.357 0.466 0.72 0.693 1.077 1.034 1.63 2.080 3.266 3.169 4.915 0.294 0.446 0.608 0.899 0.907 1.345 1.047 1.57 2.1 3.142 3.192 4.727 0.374 0.541 0.77 1.089 1.149 1.632 1.046 1.498 2.093 2.998 3.181 4.509 0.463 0.643 0.952 1.291 1.422 1.936 1.037 1.422 2.070 2.841 3.142 4.271 0.528 0.703 1.081 1.412 1.617 2.115 1.047 1.378 2.088 2.755 3.167 4.138 0.616 0.79 1.263 1.585 1.889 2.379 1.032 1.305 2.055 2.608 3.114 3.916 0.713 0.88 1.457 1.766 2.183 2.648 1.007 1.224 2.001 2.447 3.032 3.675 0.834 0.992 1.701 1.988 2.549 2.982 0.957 1.119 1.898 2.238 2.873 3.359 0.989 1.136 2.011 2.272 3.020 3.408 0.87 0.981 1.724 1.961 2.608 2.942 1.111 1.231 2.257 2.462 3.389 3.695 0.817 0.887 1.615 1.774 2.442 2.661 1.385 1.483 2.805 2.963 4.22 4.443 0.603 0.631 1.189 1.263 1.799 1.893 2.040 2.111 4.111 4.218 6.212 6.321 2.101 2.101 4.208 4.171 6.318 6.211 0.678 0.655 1.356 1.285 2.035 1.933 1.435 1.371 2.87 2.75 4.308 4.091 0.847 0.79 1.694 1.552 2.541 2.332 1.27 1.169 2.539 2.349 3.809 3.495 1.006 0.907 2.011 1.782 3.019 2.674 1.111 0.986 2.223 1.986 3.334 2.953 1.144 0.997 2.289 1.959 3.433 2.937 0.969 0.827 1.939 1.672 2.907 2.486 1.261 1.059 2.517 2.081 3.775 3.115 0.849 0.698 1.699 1.413 2.546 2.1 1.343 1.087 2.681 2.138 4.019 3.196 0.757 0.6 1.518 1.216 2.274 1.806 1.42 1.108 2.833 2.177 4.248 3.251 0.668 0.508 1.34 1.032 2.005 1.532 1.498 1.124 2.988 2.208 4.479 3.294 0.573 0.418 1.151 0.854 1.724 1.266 1.545 1.113 3.080 2.185 4.616 3.256 0.509 0.356 1.024 0.728 1.532 1.079 1.614 1.114 3.214 2.185 4.813 3.251 0.418 0.279 0.842 0.573 1.258 0.849 1.686 1.113 3.356 2.182 5.023 3.237 0.322 0.204 0.648 0.421 0.969 0.623 1.739 1.094 3.463 2.145 5.18 3.177 0.241 0.144 0.484 0.299 0.723 0.443 1.797 1.072 3.576 2.103 5.344 3.107 0.152 0.087 0.306 0.18 0.458 0.266 1.829 1.032 3.638 2.023 5.432 2.978 0.087 0.047 0.177 0.097 0.264 0.144 1.866 0.991 3.712 1.939 5.538 2.846 0.012 0.005 0.023 0.013 0.037 0.018 29.444 14.615 53.412 18.091 65.025 7.039 0.12-0.115 0.261-0.207 0.378-0.326 13.651-13.651 6.226-45.28-16.337-82.904-58.391-34.126-103.883-79.712-138.945-141.192-40.168-25.338-74.388-34.278-88.741-19.925z"/>
</svg>