<svg xmlns="http://www.w3.org/2000/svg" viewBox="0 -64 1024 1000" style="transform: scaleY(-1);">
<path fill="currentColor" d="M444.738 709.297c-32.304 5.351-45.118-158.11-49.829-236.183l-135.208-0.199c-5.775 206.91-8.501 227.285-39.866 282.373-14.338 25.194-56.596 28.929-56.596 28.929 0 26.836-0.271 136.643-0.271 136.643 74.453 0 126.077-53.754 158.59-112.902l4.846 10.891c15.801 33.839 53.564 99.819 127.955 99.819 234.613 0 85.354-645.183 290.477-591.999 13.247 3.438 34.118 46.417-7.868 46.417-75.861-10.088-104.132-420.578-350.096-387.354-23.552 3.176-37.773 9.647-37.773 9.647l16.982 146.073c45.19-5.631 107.994 30.192 116.106 53.158 34.245 97.048 89.559 335.568 267.296 335.568 67.92 0 145.271-65.728 145.271-181.166 0-188.538-338.618-307.676-415.644 98.61-16.444 86.599-8.62 268.126-34.373 261.675v0z"/>
</svg>