<svg xmlns="http://www.w3.org/2000/svg" viewBox="0 -64 1024 1000" style="transform: scaleY(-1);">
<path fill="currentColor" d="M507.648 910.733c-254.555 0-460.915-206.357-460.915-460.915 0-137.867 60.55-261.576 156.485-346.040v278.080l-27.985 45.482h15.158l88.625 228.561 87.461-228.561h16.326l-29.151-45.482v-36.152h74.632v246.056l-27.987 45.482h15.158l88.624 228.559 88.624-228.554h15.158l-29.151-45.482v-176.088h73.467v67.636l-29.151 45.482h16.326l87.463 228.561 88.625-228.561h15.158l-27.987-45.482v-387.657c101.406 84.548 165.951 211.809 165.951 354.162 0.003 254.557-206.354 460.914-460.91 460.914z"/>
</svg>