<svg xmlns="http://www.w3.org/2000/svg" viewBox="0 -64 1024 1000" style="transform: scaleY(-1);">
<path fill="currentColor" d="M925.646 922.558l-69.837-115.446c-60.045 19.456-149.404 15.656-205.635 0l-67.25 113.834c-110.465-206.339-79.195-336.727 5.098-401.578-12.883-8.063-26.185-16.93-39.911-26.642-351.332 280.295-667.61-35.399-460.12-317.452h1.592c37.232-53.988 80.103-87.381 126.415-104.856 65.594-24.75 133.092-17.62 199.551-8.214s131.498 21.222 193.478 16.808c61.98-4.413 123.979-20.325 180.713-82.194 38.685-42.181 93.623 3.247 47.563 48.23-69.933 68.301-144.815 94.684-218.396 99.918s-144.162-9.38-208.072-18.425c-63.911-9.046-120.353-13.081-168.845 5.212-22.742 8.58-44.891 22.085-66.249 43.521h720.306c34.053 120.187 37.666 247.355-1.046 327.575 116.327 60.705 163.11 204.038 30.645 419.71zM709.64 612.104c-74.099-35.758-107.752-6.787-122.15 52.999 72.729 45.128 116.041 8.882 122.15-52.999zM802.154 612.104c6.109 61.883 49.421 98.129 122.15 52.999-14.396-59.786-48.049-88.757-122.15-52.999z"/>
</svg>