<svg xmlns="http://www.w3.org/2000/svg" viewBox="0 -64 1024 1000" style="transform: scaleY(-1);">
<path fill="currentColor" d="M1004.382 317.371c-46.133 36.368-102.141 55.027-157.721 56.33v-0.018c-9.358 0.409-18.225-0.446-27.539-1.229-33.967-2.927-67.865-12.512-99.067-28.898l-26.561 24.060c23.659 65.457 9.301 141.656-43.105 194.040l-117.895 84.235c-35.194 35.175-82.764 51.41-128.61 47.456-21.441-1.841-42.612-8.21-62.051-18.923l-8.977 8.142c16.137 41.15 7.626 89.801-25.578 123.002l-72.966 52.159c-21.781 21.775-51.223 31.823-79.595 29.38-6.523-0.563-13.005-1.814-19.342-3.712l-57.473 53.747h-58.901v-55.747l52.142-58.751c-12.924-35.441-5.299-76.967 22.927-105.211l51.168-72.975c25.136-25.144 59.171-36.943 91.918-34.118 10.766 0.867 21.461 3.451 31.704 7.602l8.287-9.764c-31.579-60.792-22.002-138.133 28.749-188.899l82.678-117.87c40.614-40.614 95.608-59.664 148.515-55.109 18.225 1.505 36.329 6.002 53.595 13.275l21.374-25.154c-46.307-89.965-37.14-202.274 26.809-283.808h229.010l-66.051 80.381c-10.303 10.948-17.373 23.499-21.257 36.65 27.22-4.981 55.882 2.846 77.456 24.379 24.284 24.239 32.036 57.444 23.357 87.504 15.976-3.381 31.457-11.479 44.837-24.113l78.158-71.571 0.149-133.23h0.002l-0.147 366.756zM146.489 758.342c-7.23 7.681-10.349 17.433-9.428 26.921 7.569 1.901 14.764 5.845 20.834 11.926 5.695 5.701 9.617 12.378 11.777 19.424 8.84 0.292 17.802-3.079 25.112-9.976l58.457-53.38c3.064-3.256 5.464-6.852 7.265-10.633-13.38 4.028-27.927 0.8-38.987-10.268-12.356-12.365-15.487-29.634-9.383-44.486-5.633 1.898-10.988 5.062-15.657 9.468l-49.989 61.004zM386.020 487.899c-5.314 5.646-9.278 11.976-11.904 18.642 18.437-5.997 38.984-1.933 53.918 12.996 17.311 17.304 20.751 42.141 10.404 62.527 9.575-2.347 18.81-7.347 26.828-14.916l95.935-87.596c5.070-5.392 9.071-11.341 12.034-17.603-19.745 3.289-40.26-2.761-56.325-18.821-20.275-20.268-25.545-48.527-15.724-72.923-11.942 2.527-23.438 8.424-33.134 17.578l-82.032 100.115z"/>
</svg>