<svg xmlns="http://www.w3.org/2000/svg" viewBox="0 -64 1024 1000" style="transform: scaleY(-1);">
<path fill="currentColor" d="M358.006 579.627c6.939-9.732 10.895-21.629 10.895-35.047 0-42.438-39.497-83.94-88.214-92.69s-88.214 18.557-88.214 61.001c0 8.364 1.555 16.688 4.392 24.736l-175.757-45.809v-231.516c7.766 3.703 15.479 7.928 23.946 9.872 49.394 11.356 89.479-15.063 89.479-58.151s-40.086-87.399-89.479-98.75c-8.369-1.914-16.265-2.3-23.946-2.195v-66.929l432.522 112.757c-11.358 15.079-17.984 33.104-17.984 52.483 0 52.942 49.296 95.862 110.103 95.862 59.629 0 108.155-41.281 110.014-92.803 1.843-0.499 3.678-0.987 5.541-1.52l336.483 86.683v448.764l-639.779-166.748zM792.553 339.433c-32.536 0-58.911 22.976-58.911 51.319s26.375 51.319 58.911 51.319 58.913-22.976 58.913-51.319-26.377-51.319-58.913-51.319zM459.079 869.385l-32.703-27.6c39.791-20.472 46.723-61.983 15.403-92.922-31.432-31.049-89.484-39.689-129.655-19.296-3.954 2.006-7.574 4.228-10.881 6.617l-267.782-225.982 917.524 240.804c-102.639 89.357-302.404 132.363-491.906 118.378zM950.985 751.005v0 0z"/>
</svg>