<svg xmlns="http://www.w3.org/2000/svg" viewBox="0 -64 1024 1000" style="transform: scaleY(-1);">
<path fill="currentColor" d="M408.254 87.599c-9.004 18.384-40.907 23.271-47.463-1.203-5.741-21.35 15.712-35.608 32.327-32.237 1.649-55.279 90.842-59.922 90.842-3.463 0 42.206-49.847 55.76-75.706 36.902zM904.563 520.495c0 43.402-69.199 47.034-69.199 3.827 0-43.215 69.199-47.229 69.199-3.827zM246.597 355.108c-8.037 27.955-58.433 33.022-67.983-2.616-8.416-31.398 27.543-47.149 50.831-35.549 1.669-46.142 80.381-57.715 94.353-5.561 12.425 46.372-46.498 68.047-77.201 43.726zM63.859 615.249c0-43.215 69.199-47.229 69.199-3.827s-69.199 47.037-69.199 3.827zM361.921 512.616c0-29.457 32.147-40.691 52.618-31.119l-48.133 47.877c-2.816-4.475-4.485-10.051-4.485-16.758zM639.487 786.47c0 43.402-69.199 47.034-69.199 3.827 0-43.215 69.199-47.229 69.199-3.827zM685.494 595.125c0.573 0.331 1.111 0.68 1.667 1.019 7.156-20.438 41.591-26.926 48.511-1.37 4.719 17.423-8.723 30.129-22.862 32.39 15.976 49.065-42.625 114.488-101.037 80.761-73.080-42.194 0.944-154.818 73.721-112.8zM600.017 50.021c-27.763-15.996-4.594-61.878 23.23-45.916s4.555 61.955-23.23 45.916zM239.147 587.008c0-66.059 83.106-85.014 118.752-49.17l-96.654 96.141c-13.203-9.806-22.099-25.373-22.099-46.97zM152.262 742.384c0 0 0 0 0 0l-76.359 75.955c-16.062-6.936-28.024-21.564-28.024-44.291 0-50.034 57.962-67.208 90.022-46.586-0.042-0.72-0.1-1.428-0.1-2.177 0-32.73 39.687-42.965 58.949-27.154l-44.488 44.253zM168.207 889.805c0 34.482-43.673 43.858-61.627 24.591l49.561-49.302c7.178 4.991 12.066 13.177 12.066 24.711zM252.706 769.035l72.719-72.336c0 0 0 0-0.002-0.002l77.831-77.421c12.791 7.677 21.753 21.175 21.753 40.815 0 31.57-23.139 49.842-48.15 53.736 4.53 8.2 7.17 18.156 7.17 29.922 0 60.314-69.228 80.856-108.033 56.519-8.915 31.634-53.185 38.623-72.634 17.856l49.346-49.087c0 0 0 0 0 0zM919.767 135.401c35.018 3.363 66.283 26.477 66.283 71.032-0.002 39.881-25.045 65.357-55.41 75.447 0.244 2.715 0.383 5.504 0.383 8.391 0 12.676-2.416 23.963-6.665 33.835 13.464 5.563 23.565 17.634 23.565 36.627 0 13.638-5.212 24.275-13.132 31.804 1.321 0.493 2.654 1.081 4.004 1.854 27.823 15.961 4.555 61.955-23.23 45.916-13.811-7.958-15.013-23.308-9.313-34.764-11.762 1.45-23.859-0.914-33.119-7.258-4.445 36.341-35.478 56.068-66.578 57.823 1.893 5.997 2.945 12.681 2.945 20.087 0 82.324-127.968 91.103-134.411 13.586-23.667 6.926-49.665 6.035-71.443-3.005 1.866 6.826 2.91 14.309 2.91 22.513 0 85.104-108.751 107.709-151.965 58.914l120.977-120.343c0 0 0 0 0.002 0l77.894-77.485c0 0 0 0 0 0l14.541-14.465c0 0 0.035 0.032 0.092 0.087 0.018 0.017 0.037 0.035 0.062 0.058 0.057 0.053 0.125 0.119 0.215 0.205 0.045 0.043 0.089 0.084 0.142 0.135 0.102 0.099 0.221 0.212 0.352 0.341 0.057 0.055 0.105 0.102 0.167 0.162 0.189 0.184 0.401 0.391 0.64 0.625 0.017 0.017 0.030 0.028 0.047 0.045 0.54 0.531 1.204 1.193 1.973 1.969 0.037 0.038 0.075 0.077 0.114 0.115 0.361 0.366 0.747 0.758 1.153 1.176 0.030 0.030 0.057 0.058 0.087 0.089 2.74 2.811 6.45 6.742 10.818 11.685-0.002 0-0.003 0.002-0.005 0.002 10.96 12.408 25.974 31.119 39.692 53.998 0.327 0.546 0.653 1.098 0.979 1.649 0.857 1.447 1.706 2.912 2.549 4.39 0.307 0.538 0.615 1.067 0.92 1.61 1.037 1.844 2.065 3.713 3.077 5.604 0.376 0.7 0.742 1.412 1.114 2.118 0.404 0.77 0.815 1.532 1.214 2.31-0.003 0.007-0.008 0.013-0.012 0.022 5.245 10.202 10.061 20.995 14.042 32.289 6.767-9.345 13.526-19.080 20.224-29.14 2.693-4.041 5.374-8.142 8.042-12.286 0.267-0.416 0.536-0.83 0.803-1.248 14.054-21.907 27.715-45.225 40.474-69.523 0.304-0.58 0.613-1.156 0.917-1.737 2.279-4.363 4.522-8.763 6.739-13.188 0.466-0.93 0.93-1.863 1.395-2.796 2.202-4.433 4.378-8.89 6.512-13.379 11.672-24.566 22.264-49.905 31.28-75.624 0.043-0.122 0.084-0.246 0.127-0.368 1.042-2.978 2.061-5.962 3.060-8.949 0.207-0.618 0.408-1.236 0.611-1.854 0.83-2.504 1.645-5.011 2.444-7.52 0.254-0.8 0.503-1.6 0.755-2.402 0.735-2.342 1.457-4.686 2.163-7.033 0.264-0.875 0.525-1.751 0.785-2.626 0.685-2.31 1.353-4.622 2.010-6.936 7.691-27.117 13.409-54.431 16.596-81.492 2.507-21.282 3.471-42.41 2.574-63.156-27.11 1.6-55.358 5.437-84.048 11.064-0.002-0.007-0.003-0.012-0.005-0.018-30.606 6.004-61.717 14.089-92.514 23.757-3.615 1.134-7.223 2.292-10.828 3.47-1.605 0.525-3.209 1.049-4.811 1.582-23.95 7.958-47.605 16.84-70.598 26.419-3.277 1.366-6.537 2.75-9.786 4.144-1.595 0.685-3.192 1.366-4.779 2.058-3.204 1.393-6.388 2.803-9.562 4.223-1.654 0.74-3.308 1.48-4.953 2.227-27.137 12.308-53.026 25.493-76.959 39.173-15.078 8.615-29.397 17.415-42.739 26.312 14.194 6.659 26.781 12.926 37.992 18.794 0.002-0.002 0.003-0.003 0.003-0.005 0.394 0.207 0.767 0.406 1.158 0.613 1.241 0.651 2.464 1.3 3.67 1.941 0.753 0.401 1.502 0.8 2.242 1.196 1.203 0.645 2.385 1.283 3.553 1.918 0.685 0.373 1.363 0.742 2.036 1.109 0.565 0.309 1.153 0.625 1.709 0.932-0.002 0.003-0.002 0.005-0.003 0.008 53.489 29.472 68.336 46.723 68.336 46.723l-67.619 67.26c0 0 0 0 0 0l-15.313 15.231c0 0 0 0.002 0 0.002l-93.73 93.234c-18.549-8.755-32.15-26.256-32.15-52.974-0.002-39.542 29.778-62.198 61.33-66.339-0.404-3.040-0.626-6.216-0.626-9.542 0-16.635 5.272-30.279 13.726-40.816-20.834 3.962-42.786 1.418-60.652-7.906 5.974 29.731-41.16 44.547-49.296 14.186-5.105-18.982 11.291-32.34 26.667-32.705-9.3-11.789-14.998-27.319-14.998-46.711 0-71.747 77.938-99.296 128.067-76.443-0.097-1.547-0.157-3.12-0.157-4.736 0-70.456 94.549-87.326 125.202-41.266 13.609-10.163 31.001-15.215 47.884-14.901-3.917-9.112-6.144-19.683-6.144-31.766 0-91.701 127.327-111.222 161.174-45.559 39.662-46.29 127.275-51.877 147.007 21.773 13.22 49.357-16.653 87.252-54.67 102.4z"/>
</svg>