<svg xmlns="http://www.w3.org/2000/svg" viewBox="0 -64 1024 1000" style="transform: scaleY(-1);">
<path fill="currentColor" d="M621.668 669.854h110.503v-110.503h-110.503v110.503zM621.668 448.847h110.503v-110.503h-110.503v110.503zM511.165 338.343h110.503v-110.503h-110.503v110.503zM179.654 669.854h110.503v-110.503h-110.503v110.503zM290.158 780.357h110.503v-110.503h-110.503v110.503zM511.165 780.357h110.503v-110.503h-110.503v110.503zM290.158 559.35h110.503v-110.503h-110.503v110.503zM400.661 448.847h110.503v-110.503h-110.503v110.503zM511.165 559.35h110.503v-110.503h-110.503v110.503zM400.661 669.854h110.503v-110.503h-110.503v110.503zM290.158 338.343h110.503v-110.503h-110.503v110.503zM179.654 448.847h110.503v-110.503h-110.503v110.503zM621.668 227.84h110.503v-110.503h-110.503v110.503zM732.172 559.35h110.503v-110.503h-110.503v110.503zM400.661 227.84h110.503v-110.503h-110.503v110.503zM732.172 338.343h110.503v-110.503h-110.503v110.503zM732.172 780.357h110.503v-110.503h-110.503v110.503zM29.651 930.361v-963.028h963.028v963.028h-963.028zM953.179 669.854h-110.503v-110.503h110.503v-110.503h-110.503v-110.503h110.503v-110.503h-110.503v-110.503h110.503v-110.503h-110.503v110.503h-110.503v-110.503h-110.503v110.503h-110.503v-110.503h-110.503v110.503h-110.503v-110.503h-110.503v110.503h-110.503v110.503h110.503v110.503h-110.503v110.503h110.503v110.503h-110.503v110.503h110.503v110.503h-110.503v110.503h110.503v-110.503h110.503v110.503h110.503v-110.503h110.503v110.503h110.503v-110.503h110.503v110.503h110.503v-110.503h110.503v-110.503zM179.654 227.84h110.503v-110.503h-110.503v110.503z"/>
</svg>