<svg xmlns="http://www.w3.org/2000/svg" viewBox="0 -64 1024 1000" style="transform: scaleY(-1);">
<path fill="currentColor" d="M511.997 928.010c-79.531 0-144.003-64.472-144.003-144.003s64.472-144.003 144.003-144.003 144.003 64.472 144.003 144.003-64.472 144.003-144.003 144.003zM511.997 832.015c26.514 0 47.997-21.494 47.997-47.997s-21.494-47.997-47.997-47.997c-26.514 0-47.997 21.494-47.997 47.997s21.494 47.997 47.997 47.997zM608.002 448.015c0-53.017-42.978-95.995-96.005-95.995-53.017 0-96.005 42.978-96.005 95.995s42.978 95.995 96.005 95.995c53.027 0 96.005-42.978 96.005-95.995zM511.997 256.015c-79.531 0-144.003-64.472-144.003-144.003s64.472-144.003 144.003-144.003 144.003 64.472 144.003 144.003c0 79.531-64.472 144.003-144.003 144.003zM511.997 160.010c26.514 0 47.997-21.494 47.997-47.997s-21.494-47.997-47.997-47.997c-26.514 0-47.997 21.494-47.997 47.997s21.494 47.997 47.997 47.997zM927.69 688.013c-39.765 68.869-127.829 92.471-196.708 52.706s-92.471-127.829-52.706-196.708 127.829-92.471 196.708-52.706 92.471 127.829 52.706 196.708zM844.556 640.015c13.252-22.96 5.391-52.314-17.569-65.566s-52.314-5.391-65.566 17.569-5.391 52.314 17.569 65.566 52.304 5.381 65.566-17.569zM345.727 352.010c-39.765 68.869-127.829 92.471-196.708 52.706s-92.471-127.829-52.706-196.708 127.829-92.471 196.708-52.706 92.471 127.829 52.706 196.708zM262.582 304.013c13.252-22.96 5.391-52.314-17.569-65.566s-52.314-5.391-65.566 17.569-5.391 52.314 17.569 65.566 52.314 5.391 65.566-17.569zM96.303 688.013c-39.765-68.879-16.163-156.943 52.706-196.708 68.879-39.765 156.943-16.163 196.708 52.706s16.163 156.943-52.706 196.708c-68.869 39.765-156.943 16.163-196.708-52.706zM179.448 640.015c13.252 22.96 42.606 30.82 65.566 17.569s30.82-42.606 17.569-65.566-42.606-30.82-65.566-17.569c-22.96 13.252-30.82 42.606-17.569 65.566zM678.276 352.010c-39.765-68.879-16.163-156.943 52.706-196.708 68.879-39.765 156.943-16.163 196.708 52.706s16.163 156.943-52.706 196.708c-68.879 39.765-156.943 16.163-196.708-52.706v0zM761.411 304.013c13.252 22.96 42.606 30.82 65.566 17.569s30.82-42.606 17.569-65.566-42.606-30.82-65.566-17.569c-22.95 13.252-30.82 42.606-17.569 65.566z"/>
</svg>