<svg xmlns="http://www.w3.org/2000/svg" viewBox="0 -64 1024 1000" style="transform: scaleY(-1);">
<path fill="currentColor" d="M511.997 928.010v-144.003h-335.992l96.005-96.005-239.997-239.997h144.003v-336.003l96.005 96.005 239.997-239.997v144.003h336.003l-96.005 96.005 239.997 239.997h-144.003v336.003l-96.005-96.005-240.008 239.997zM511.997 688.013c132.548 0 239.997-107.45 239.997-239.997s-107.45-239.997-239.997-239.997-239.997 107.45-239.997 239.997c0 132.548 107.45 239.997 239.997 239.997zM608.002 448.015c0-53.017-42.978-95.995-96.005-95.995s-96.005 42.978-96.005 95.995 42.978 95.995 96.005 95.995 96.005-42.978 96.005-95.995z"/>
</svg>