<svg xmlns="http://www.w3.org/2000/svg" viewBox="0 -64 1024 1000" style="transform: scaleY(-1);">
<path fill="currentColor" d="M511.546 921.051c-260.225 0-471.83-210.384-471.83-470.612s211.606-471.837 471.83-471.837 470.606 211.609 470.606 471.837-210.381 470.612-470.606 470.612zM511.546 95.029c-196.122 0-355.407 159.283-355.407 355.408s159.28 355.412 355.407 355.412c196.124 0 355.403-159.285 355.403-355.41s-159.281-355.41-355.403-355.41zM511.587 706.554c-141.768 0-257.376-114.307-257.376-256.079s115.613-257.385 257.376-257.385 256.072 115.613 256.075 257.385c0.003 141.771-114.307 256.079-256.075 256.079zM550.266 259.726l-37.826 141.999-37.91-142.313c-76.94 15.124-137.545 76.384-152.653 153.466l141.671 37.739-141.609 37.723c15.238 76.85 75.963 137.249 152.982 152.016l37.52-140.848 37.437 140.539c76.392-15.327 136.451-75.622 151.443-152.137l-139.992-37.292 140.054-37.308c-14.864-76.745-74.804-137.896-151.118-153.585z"/>
</svg>