<svg xmlns="http://www.w3.org/2000/svg" viewBox="0 -64 1024 1000" style="transform: scaleY(-1);">
<path fill="currentColor" d="M683.955 551.865c26.813 9.199 57.291 14.257 91.955 14.257-32.98 132.475-134.313 310.429-268.468 375.726-131.416-61.744-240.663-241.569-268.467-375.726 34.499 0 65.005-4.734 91.955-13.686-65.74-101.663-111.519-269.143-111.519-502.64 94.599-56.094 185.62-86.101 277.603-88.181-104.827 8.691-188.157 147.802-188.157 318.145 0 100.053 28.759 189.311 73.73 247.711 13.837-9.159 26.407-19.82 37.788-31.894l30.55 33.374c-10.357 11.926-22.104 22.89-35.411 33.252 0.003 0.003 0.008 0.007 0.012 0.010-0.164 0.127-0.334 0.252-0.499 0.379-0.404 0.314-0.825 0.623-1.233 0.935-1.711 1.313-3.443 2.618-5.205 3.911-0.712 0.523-1.438 1.041-2.158 1.56-1.508 1.087-3.032 2.172-4.579 3.247-0.807 0.561-1.619 1.123-2.437 1.68-1.542 1.054-3.105 2.101-4.684 3.144-0.802 0.531-1.6 1.062-2.412 1.59-1.802 1.171-3.637 2.335-5.488 3.496-0.598 0.376-1.183 0.753-1.787 1.128-2.471 1.53-4.981 3.054-7.537 4.567-0.523 0.311-1.066 0.616-1.592 0.927-2.033 1.193-4.086 2.384-6.176 3.568-0.952 0.54-1.924 1.077-2.888 1.617-1.096 0.613-2.173 1.228-3.284 1.839-0.005-0.005-0.008-0.010-0.013-0.017-9.836 5.407-20.226 10.749-31.28 16.083 25.316 62.982 63.919 158.322 113.013 163.872 19.21 2.17 39.779-9.426 62.158-42.068 70.046 116.479 136.566-37.345 175.169-121.804-10.791-5.852-20.974-11.583-30.646-17.294-0.003 0.003-0.005 0.007-0.008 0.010-0.925-0.546-1.824-1.092-2.74-1.639-1.179-0.703-2.365-1.407-3.528-2.11-1.774-1.072-3.516-2.147-5.252-3.219-0.877-0.543-1.767-1.086-2.636-1.629-2.29-1.433-4.545-2.867-6.769-4.305-0.882-0.57-1.744-1.144-2.616-1.716-1.54-1.009-3.072-2.020-4.58-3.034-0.925-0.621-1.839-1.246-2.753-1.869-1.457-0.994-2.898-1.993-4.325-2.993-0.864-0.606-1.729-1.213-2.581-1.821-1.549-1.104-3.074-2.213-4.585-3.328-0.68-0.499-1.37-0.997-2.043-1.5-2.14-1.597-4.251-3.201-6.321-4.821 0 0 0.002-0.002 0.002-0.002-13.668-10.699-25.805-21.935-36.582-34.26l29.141-32.781c11.662 12.418 24.631 23.552 39.044 33.156 44.642-58.415 73.165-147.331 73.165-246.961 0-170.243-83.236-309.293-187.978-318.127 89.841 2.127 180.926 30.922 277.457 88.163 0.002 232.906-45.779 400.285-111.521 502.074zM400.112 309.969c23.123 7.452 46.601 12.007 70.21 14.126 0.12-100.477 2.549-191.881 38.979-288.056 38.152 93.261 35.285 187.295 35.095 287.149 23.619-2.542 47.136-7.081 70.324-13.22v36.969h-82.658c-13.755 45.013-11.805 90.027 1.644 135.039h-52.58c14.030-45.013 18.225-90.025 1.951-135.039h-82.964v-36.968zM470.676 653.72c0-9.734-14.398-17.625-32.158-17.625s-32.158 7.891-32.158 17.625c0 9.734 14.398 17.625 32.158 17.625s32.158-7.891 32.158-17.625zM608.38 653.72c0-9.734-14.398-17.625-32.158-17.625s-32.158 7.891-32.158 17.625c0 9.734 14.398 17.625 32.158 17.625s32.158-7.891 32.158-17.625z"/>
</svg>