<svg xmlns="http://www.w3.org/2000/svg" viewBox="0 -64 1024 1000" style="transform: scaleY(-1);">
<path fill="currentColor" d="M684.58 280.582l-94.358 125.615c6.386 11.997 10.016 25.685 10.016 40.225 0 31.306-16.783 58.685-41.837 73.656v98.449h45.48l-89.791 258.258-90.959-258.258h45.48v-99.664c-23.966-15.208-39.888-41.957-39.888-72.442 0-47.361 38.396-85.755 85.757-85.755 1.458 0 2.907 0.038 4.347 0.11l97.908-130.339-34.619-26.081 227.759-161.445-91.913 262.817-33.383-25.147zM942.301 446.236c0 56.35-10.88 110.149-30.611 159.45l78.369 78.369-239.292 239.289-78.332-78.332c-43.927 17.592-91.433 28.144-141.128 30.246l38.053-95.351c11.035-1.854 21.882-4.263 32.526-7.158 2.736-0.745 5.459-1.522 8.169-2.334 0.68-0.204 1.361-0.401 2.038-0.608 3.142-0.962 6.266-1.969 9.37-3.020 0.631-0.214 1.258-0.438 1.888-0.655 2.693-0.93 5.371-1.893 8.032-2.888 0.618-0.231 1.239-0.456 1.854-0.69 3.072-1.169 6.124-2.382 9.153-3.638 0.591-0.246 1.176-0.499 1.766-0.747 2.656-1.119 5.295-2.27 7.916-3.455 0.55-0.249 1.103-0.491 1.65-0.742 2.995-1.373 5.967-2.79 8.914-4.246 0.548-0.271 1.092-0.55 1.639-0.824 2.616-1.311 5.214-2.654 7.791-4.031 0.474-0.254 0.952-0.501 1.427-0.757 2.913-1.574 5.8-3.191 8.66-4.846 0.499-0.289 0.994-0.585 1.492-0.877 2.581-1.512 5.142-3.055 7.677-4.632 0.388-0.242 0.78-0.478 1.168-0.72 2.83-1.776 5.631-3.595 8.404-5.452 0.438-0.294 0.872-0.593 1.308-0.887 2.551-1.726 5.078-3.481 7.577-5.274 0.296-0.212 0.596-0.419 0.89-0.633 2.74-1.978 5.447-3.997 8.125-6.054 0.376-0.289 0.748-0.583 1.124-0.874 2.514-1.948 5.003-3.926 7.459-5.942 0.2-0.165 0.406-0.327 0.606-0.493 2.644-2.182 5.254-4.403 7.831-6.664 0.307-0.269 0.61-0.541 0.917-0.812 2.477-2.187 4.925-4.405 7.337-6.662 0.104-0.097 0.209-0.192 0.312-0.289 2.539-2.384 5.040-4.808 7.504-7.268 0.244-0.242 0.483-0.488 0.727-0.732 2.427-2.436 4.823-4.903 7.175-7.412 0.008-0.008 0.017-0.018 0.027-0.027 2.424-2.588 4.806-5.215 7.148-7.878 0.179-0.204 0.356-0.409 0.535-0.613 4.661-5.32 9.159-10.786 13.484-16.394 0.12-0.155 0.239-0.314 0.359-0.469 4.358-5.673 8.544-11.486 12.544-17.436 0.074-0.109 0.145-0.217 0.217-0.326 4.029-6.009 7.873-12.151 11.518-18.424 0.035-0.060 0.070-0.122 0.105-0.182 3.672-6.326 7.146-12.781 10.41-19.359 0.007-0.015 0.013-0.028 0.022-0.043 9.852-19.854 17.812-40.811 23.646-62.639l0.002 0.002c7.465-27.937 11.464-57.289 11.464-87.581 0-30.309-3.994-59.681-11.469-87.631l-0.010 0.010c-14.019-52.438-40.347-99.827-75.652-138.957l63.921-173.277 161.982 161.982-78.374 78.374c19.755 49.314 30.64 103.137 30.64 159.512zM734.89 78.58l-83.91 58.669c-11.83-5.297-24.018-9.941-36.518-13.88-0.538-0.169-1.076-0.341-1.615-0.508-1.692-0.525-3.391-1.034-5.095-1.532-0.74-0.215-1.483-0.424-2.227-0.636-1.667-0.474-3.336-0.947-5.015-1.397l0.002-0.002c-27.957-7.48-57.336-11.485-87.651-11.485-30.291 0-59.643 4.002-87.578 11.468v0c-21.828 5.833-42.787 13.793-62.641 23.644-0.017 0.008-0.033 0.017-0.052 0.025-9.908 4.918-19.54 10.308-28.867 16.14-0.023 0.015-0.048 0.030-0.072 0.045-9.328 5.835-18.352 12.113-27.042 18.803-0.012 0.008-0.023 0.018-0.035 0.027-23.208 17.872-44.032 38.69-61.911 61.893-0.002 0.003-0.005 0.007-0.007 0.008-6.699 8.693-12.985 17.722-18.826 27.057-0.012 0.018-0.023 0.038-0.035 0.057-5.835 9.326-11.229 18.958-16.152 28.864-0.010 0.020-0.020 0.040-0.030 0.060-4.925 9.916-9.376 20.107-13.329 30.546-0.002 0.007-0.005 0.012-0.007 0.018-3.954 10.449-7.407 21.147-10.327 32.061v0c-7.484 27.97-11.498 57.361-11.498 87.691 0 30.317 4.006 59.694 11.485 87.653l0.002-0.002c12.635 47.248 35.242 90.418 65.424 127.123 0.060 0.074 0.12 0.149 0.18 0.222 4.55 5.524 9.274 10.898 14.161 16.122 0.142 0.152 0.282 0.304 0.424 0.456 4.828 5.142 9.817 10.128 14.954 14.961 0.222 0.209 0.443 0.419 0.665 0.628 5.088 4.759 10.327 9.361 15.702 13.803 0.299 0.247 0.596 0.496 0.897 0.742 5.334 4.377 10.805 8.59 16.402 12.639 0.374 0.271 0.748 0.543 1.124 0.812 5.566 3.991 11.259 7.814 17.069 11.469 0.439 0.277 0.879 0.553 1.32 0.829 5.787 3.603 11.692 7.034 17.704 10.29 0.501 0.271 1.002 0.541 1.503 0.81 5.997 3.207 12.101 6.239 18.307 9.089 0.551 0.252 1.103 0.504 1.655 0.755 6.196 2.806 12.492 5.429 18.88 7.866 0.596 0.227 1.194 0.453 1.792 0.677 6.383 2.392 12.858 4.599 19.418 6.612 0.635 0.195 1.271 0.386 1.908 0.576 3.172 0.952 6.359 1.871 9.57 2.731 12.514 3.356 25.311 6.019 38.352 7.931l35.391 94.408c-51.24-1.655-100.202-12.306-145.385-30.391l-78.39 78.39-239.289-239.289 78.379-78.379c-19.748-49.319-30.638-103.142-30.638-159.517 0-56.399 10.891-110.248 30.655-159.585l-78.382-78.382 239.29-239.29 78.419 78.419c49.304-19.73 103.11-30.603 159.46-30.603 56.377 0 110.208 10.876 159.529 30.625l78.36-78.36 57.929 57.929-73.788 51.593c0 0 0 0 0 0z"/>
</svg>