<svg xmlns="http://www.w3.org/2000/svg" viewBox="0 -64 1024 1000" style="transform: scaleY(-1);">
<path fill="currentColor" d="M914.086 709.71l-370.803 214.083c-48.285 27.877-110.031 11.332-137.909-36.953l-328.213-568.484c-27.879-48.285-11.332-110.031 36.953-137.909l370.803-214.083c48.285-27.879 110.031-11.332 137.909 36.953l328.213 568.484c27.879 48.285 11.332 110.031-36.953 137.909zM472.67 839.357c12.213 21.152 39.261 28.401 60.416 16.189s28.401-39.263 16.189-60.414c-12.213-21.153-39.261-28.401-60.416-16.189s-28.401 39.263-16.189 60.414zM540.423 308.215c-18.86 11.645-32.14 29.116-39.127 48.684l-19.763-124.39-131.456 81.153 0.463 0.331h-0.002l100.405 72.001c-2.238-0.212-4.489-0.334-6.742-0.389-0.256-0.007-0.511-0.022-0.768-0.025-1.206-0.020-2.416-0.015-3.623 0.012-0.317 0.007-0.636 0.028-0.954 0.038-0.887 0.028-1.774 0.060-2.661 0.114-0.474 0.028-0.947 0.074-1.42 0.109-0.733 0.055-1.467 0.109-2.198 0.18-0.516 0.050-1.031 0.117-1.545 0.175-0.692 0.080-1.381 0.159-2.073 0.254-0.535 0.074-1.067 0.16-1.602 0.244-0.67 0.104-1.338 0.209-2.006 0.327-0.543 0.097-1.086 0.204-1.629 0.309-0.658 0.129-1.316 0.261-1.973 0.404-0.545 0.119-1.089 0.246-1.634 0.374-0.651 0.154-1.303 0.314-1.953 0.483-0.543 0.14-1.084 0.287-1.625 0.438-0.65 0.182-1.3 0.371-1.948 0.566-0.535 0.162-1.069 0.327-1.602 0.498-0.651 0.209-1.3 0.429-1.948 0.655-0.528 0.182-1.054 0.366-1.58 0.558-0.651 0.239-1.3 0.491-1.949 0.745-0.515 0.202-1.029 0.401-1.542 0.613-0.658 0.272-1.313 0.56-1.968 0.849-0.498 0.219-0.996 0.433-1.492 0.66-0.673 0.311-1.34 0.64-2.008 0.966-0.469 0.231-0.94 0.451-1.408 0.69-0.715 0.366-1.423 0.752-2.132 1.138-0.414 0.226-0.83 0.439-1.243 0.67-0.94 0.53-1.873 1.084-2.801 1.65-0.167 0.102-0.337 0.195-0.504 0.299-0.074 0.045-0.142 0.095-0.215 0.14-1.214 0.755-2.405 1.535-3.575 2.335-0.451 0.309-0.887 0.633-1.331 0.949-0.78 0.555-1.555 1.113-2.315 1.687-0.506 0.384-1.004 0.777-1.5 1.169-0.668 0.526-1.328 1.061-1.978 1.602-0.521 0.434-1.037 0.874-1.545 1.318-0.595 0.52-1.179 1.047-1.759 1.579-0.523 0.479-1.046 0.957-1.557 1.447-0.526 0.504-1.036 1.022-1.549 1.539-0.53 0.533-1.067 1.061-1.584 1.605-0.346 0.364-0.673 0.742-1.012 1.111-1.301 1.418-2.557 2.867-3.762 4.353-0.195 0.241-0.398 0.474-0.59 0.715-0.635 0.798-1.245 1.612-1.851 2.427-0.226 0.304-0.456 0.605-0.678 0.91-0.605 0.835-1.193 1.68-1.769 2.532-0.189 0.279-0.376 0.558-0.561 0.837-0.596 0.902-1.179 1.811-1.744 2.731-0.117 0.19-0.231 0.384-0.347 0.576-3.323 5.506-6.077 11.312-8.229 17.324-0.003 0.007-0.007 0.013-0.010 0.022-9.442 26.415-7.333 56.734 8.433 82.267 27.503 44.543 86.636 58.528 131.177 31.027 3.468-2.142 6.421-4.774 9.517-7.267-2.108 20.006 1.936 41.473 13.222 59.948 0.002 0 0.002 0 0.003 0 0.074 0.122 0.14 0.246 0.215 0.366 0.21 0.341 0.438 0.665 0.651 1.002 0.61 0.961 1.223 1.919 1.861 2.85 0.374 0.545 0.767 1.067 1.151 1.602 0.513 0.715 1.024 1.433 1.554 2.13 0.424 0.556 0.864 1.096 1.298 1.64 0.515 0.646 1.029 1.293 1.559 1.923 0.456 0.543 0.925 1.071 1.392 1.6 0.533 0.605 1.067 1.206 1.614 1.794 0.483 0.52 0.972 1.029 1.463 1.535 0.553 0.57 1.113 1.133 1.679 1.686 0.503 0.491 1.011 0.979 1.523 1.457 0.58 0.541 1.168 1.072 1.761 1.599 0.518 0.459 1.036 0.917 1.564 1.363 0.613 0.52 1.236 1.024 1.861 1.525 0.525 0.421 1.046 0.847 1.579 1.255 0.66 0.506 1.331 0.994 2.003 1.482 0.516 0.374 1.026 0.757 1.549 1.121 0.753 0.525 1.522 1.022 2.289 1.522 0.456 0.297 0.905 0.61 1.366 0.899 1.214 0.762 2.442 1.495 3.687 2.198 0.398 0.226 0.807 0.429 1.208 0.648 0.875 0.478 1.752 0.956 2.641 1.405 0.538 0.272 1.084 0.521 1.627 0.783 0.767 0.369 1.533 0.74 2.309 1.087 0.585 0.262 1.174 0.506 1.764 0.755 0.747 0.317 1.495 0.631 2.25 0.929 0.61 0.239 1.223 0.466 1.836 0.693 0.748 0.277 1.498 0.548 2.253 0.805 0.623 0.212 1.248 0.416 1.874 0.615 0.758 0.241 1.52 0.473 2.284 0.695 0.628 0.182 1.26 0.361 1.891 0.531 0.778 0.209 1.562 0.404 2.345 0.593 0.623 0.15 1.246 0.302 1.873 0.439 0.812 0.179 1.629 0.337 2.447 0.494 0.605 0.117 1.209 0.239 1.816 0.344 0.875 0.15 1.756 0.277 2.636 0.404 0.555 0.080 1.106 0.17 1.66 0.241 1.092 0.137 2.188 0.244 3.286 0.344 0.347 0.032 0.692 0.077 1.039 0.105 1.438 0.115 2.882 0.195 4.327 0.246 0.446 0.015 0.894 0.010 1.341 0.020 1.011 0.020 2.020 0.038 3.032 0.027 0.565-0.007 1.129-0.033 1.694-0.048 0.897-0.027 1.794-0.053 2.693-0.105 0.603-0.035 1.206-0.085 1.809-0.132 0.862-0.065 1.722-0.135 2.584-0.226 0.618-0.063 1.236-0.14 1.853-0.215 0.849-0.105 1.696-0.217 2.544-0.346 0.62-0.094 1.238-0.194 1.856-0.299 0.849-0.145 1.697-0.304 2.544-0.473 0.608-0.12 1.218-0.244 1.824-0.378 0.864-0.189 1.726-0.398 2.586-0.611 0.585-0.145 1.171-0.287 1.754-0.444 0.902-0.242 1.799-0.508 2.696-0.778 0.535-0.16 1.072-0.312 1.605-0.483 1.006-0.321 2.005-0.673 3.004-1.029 0.419-0.15 0.844-0.286 1.261-0.441 2.731-1.017 5.434-2.173 8.1-3.455 0.52-0.249 1.036-0.516 1.552-0.775 0.835-0.419 1.667-0.847 2.494-1.293 0.406-0.219 0.812-0.438 1.216-0.662 1.255-0.7 2.502-1.418 3.735-2.18 44.536-27.503 58.136-84.994 30.635-129.535-0.077-0.124-0.159-0.241-0.236-0.364-0.845-1.353-1.722-2.674-2.628-3.967-0.242-0.347-0.488-0.688-0.733-1.031-0.92-1.281-1.863-2.541-2.836-3.764-11.090-13.935-25.613-24.045-41.469-29.908 3.996-1.744 7.963-3.526 11.773-5.88 25.396-15.679 40.511-41.439 43.733-68.944 0.226-1.928 0.386-3.865 0.494-5.808 0.030-0.535 0.070-1.069 0.092-1.605 0.032-0.807 0.038-1.614 0.048-2.422 0.008-0.62 0.020-1.239 0.017-1.861-0.005-0.778-0.027-1.559-0.050-2.339-0.020-0.655-0.043-1.308-0.077-1.963-0.038-0.76-0.087-1.52-0.144-2.28-0.052-0.682-0.112-1.363-0.179-2.045-0.070-0.737-0.144-1.472-0.232-2.207-0.087-0.723-0.19-1.445-0.294-2.167-0.1-0.697-0.194-1.395-0.309-2.090-0.139-0.839-0.304-1.675-0.466-2.511-0.112-0.578-0.209-1.156-0.331-1.732-0.292-1.37-0.615-2.738-0.969-4.101-0.139-0.533-0.299-1.061-0.446-1.592-0.246-0.885-0.493-1.772-0.765-2.654-0.18-0.585-0.379-1.166-0.571-1.747-0.274-0.827-0.551-1.654-0.849-2.476-0.212-0.59-0.438-1.178-0.662-1.764-0.312-0.815-0.636-1.629-0.972-2.439-0.239-0.575-0.481-1.148-0.732-1.721-0.364-0.834-0.747-1.662-1.138-2.489-0.252-0.536-0.501-1.072-0.765-1.605-0.448-0.904-0.92-1.801-1.398-2.698-0.237-0.444-0.463-0.89-0.707-1.331-0.738-1.331-1.503-2.653-2.312-3.961-27.499-44.538-85.617-59.15-130.162-31.647zM553.324 46.956c-12.213-21.153-39.261-28.401-60.416-16.189s-28.401 39.261-16.189 60.414c12.213 21.153 39.261 28.401 60.416 16.189s28.401-39.261 16.189-60.414z"/>
</svg>