<svg xmlns="http://www.w3.org/2000/svg" viewBox="0 -64 1024 1000" style="transform: scaleY(-1);">
<path fill="currentColor" d="M885.521 239.619c-42.712 143.108-240.007 223.098-421.935 256.568 35.275-156.926-6.082-262.411 33.987-396.943 42.716-143.425 205.811-150.962 236.686-12.657 111.497-102.455 191.331 18.788 151.261 153.037v-0.005zM102.754 360.997c83.447 108.075 226.234 171.691 387.921 113.445-76.823-180.14-21.987-308.75-99.757-407.963-82.909-105.769-225.494-39.842-207.474 94.178-128.819-39.567-157.579 100.761-80.689 200.34zM324.775 873.87c133.782-77.335 172.423-234.708 163.21-416.259-181.151 104.030-233.17 12.378-363.605 66.336-143.071 59.183-112.015 240.812 23.012 237.548-89.342 135.517 51.885 184.921 177.383 112.374zM690.092 859.92c-141.73-35.424-211.385-204.775-211.669-393.949 196.787 48.719 271.666-82.618 407.355-49.403 144.656 35.409 128.521 216.497-21.609 257.422 91.383 109.657-38.827 219.736-174.077 185.93v0z"/>
</svg>