<svg xmlns="http://www.w3.org/2000/svg" viewBox="0 -64 1024 1000" style="transform: scaleY(-1);">
<path fill="currentColor" d="M649.002 421.065l29.439-51.028c56.056 8.098 113.883-17.837 143.928-69.931 39.398-68.292 15.554-155.441-52.688-194.871s-154.958-16.18-194.356 52.12c-31.741 55.027-22.785 122.581 17.598 167.313l-27.685 47.994 83.764 48.402zM385.044 793.8c0 0-61.808 227.769-192.104 92.168l16.132-15.327c0 0 89.108 106.91 152.586-88.535l23.387 5.011zM920.132 562.914c-80.263 139.115-234.725 208.381-384.456 186.754l-78.631 136.301-223.747-129.276 73.954-128.192c-107.867-119.474-131.794-299.905-47.007-446.873 105.236-182.417 336.879-244.524 519.158-139.207s245.967 338.067 140.729 520.494zM782.064 66.835c-124.277-71.809-282.208-29.472-353.955 94.913-57.805 100.215-41.491 223.25 32.050 304.706l-50.422 87.406 75.494 43.624c-44.563 129.686-105.529 56.551-105.529 56.551l-11.363 10.795c80.066 83.325 123.411-28.139 133.168-57.939l60.784 35.122 53.607-92.937c102.086 14.75 207.396-32.487 262.116-127.345 71.752-124.385 28.326-283.088-95.95-354.895zM618.075 386.682c0 0-34.397 126.759-106.91 51.294l8.977-8.529c0 0 49.59 59.497 84.917-49.272l13.015 2.79z"/>
</svg>