<svg xmlns="http://www.w3.org/2000/svg" viewBox="0 -64 1024 1000" style="transform: scaleY(-1);">
<path fill="currentColor" d="M902.074 652.359c-27.635 16.469-59.479 19.082-97.626 11.936l-0.003-0.005c-24.598-4.609-51.345-14.094-80.029-28.507 0.416 10.031 0.656 19.942 0.656 29.694h-0.312c0.869 4.475 1.326 9.009 1.326 13.596 0 77.467-126.65 140.268-282.881 140.268s-282.881-62.803-282.881-140.268c0-4.587 0.459-9.121 1.326-13.596h-0.145c-1.092-162.883 32.457-326.080 29.86-488.794-1.234-77.413 94.996-138.982 251.142-138.982s233.602 63.029 233.602 138.982c0 10.324 0.189 20.679 0.536 31.057 81.945-4.427 150.608 33.020 198.788 85.595 50.032 54.596 80.702 125.060 88.582 191.136s-6.674 134.947-61.941 167.888zM444.252 740.254c119.197 0 215.822-32.688 215.822-73.010 0-0.591-0.025-1.179-0.067-1.767v0c-0.043-0.613-0.109-1.226-0.197-1.836 0-0.003 0-0.007-0.002-0.012-0.082-0.566-0.187-1.131-0.306-1.694-0.010-0.052-0.018-0.102-0.028-0.154-0.115-0.528-0.254-1.052-0.403-1.577-0.023-0.085-0.042-0.172-0.067-0.257-0.147-0.499-0.316-0.999-0.493-1.495-0.038-0.109-0.070-0.217-0.11-0.324-0.177-0.479-0.374-0.957-0.578-1.433-0.053-0.124-0.099-0.249-0.154-0.373-0.205-0.461-0.431-0.92-0.66-1.38-0.068-0.137-0.13-0.276-0.202-0.413-0.231-0.444-0.481-0.887-0.737-1.328-0.087-0.15-0.165-0.301-0.256-0.451-0.256-0.429-0.531-0.857-0.81-1.285-0.104-0.159-0.2-0.319-0.307-0.478-0.281-0.418-0.58-0.834-0.882-1.248-0.12-0.165-0.236-0.332-0.359-0.498-0.306-0.409-0.63-0.815-0.957-1.219-0.135-0.169-0.267-0.339-0.406-0.508-0.329-0.399-0.677-0.795-1.026-1.191-0.154-0.174-0.302-0.349-0.459-0.523-0.352-0.388-0.72-0.775-1.091-1.159-0.172-0.179-0.337-0.357-0.513-0.535-0.374-0.379-0.763-0.755-1.154-1.131-0.19-0.182-0.376-0.366-0.57-0.546-0.394-0.369-0.803-0.735-1.214-1.103-0.209-0.185-0.413-0.371-0.625-0.556-0.416-0.361-0.845-0.72-1.276-1.077-0.226-0.187-0.449-0.376-0.68-0.563-0.436-0.352-0.885-0.703-1.336-1.054-0.242-0.189-0.483-0.378-0.73-0.565-0.458-0.346-0.927-0.69-1.4-1.034-0.259-0.189-0.516-0.378-0.778-0.565-0.474-0.337-0.961-0.672-1.448-1.006-0.281-0.192-0.56-0.384-0.845-0.575-0.491-0.327-0.992-0.653-1.497-0.979-0.299-0.192-0.596-0.386-0.9-0.576-0.508-0.321-1.027-0.638-1.549-0.956-0.317-0.194-0.635-0.388-0.957-0.58-0.526-0.314-1.061-0.625-1.6-0.934-0.334-0.192-0.667-0.384-1.004-0.575-0.543-0.306-1.096-0.611-1.654-0.914-0.352-0.192-0.705-0.384-1.062-0.575-0.56-0.299-1.126-0.595-1.697-0.89-0.369-0.192-0.738-0.383-1.114-0.573-0.578-0.292-1.163-0.583-1.752-0.874-0.386-0.189-0.77-0.379-1.161-0.566-0.593-0.286-1.193-0.57-1.797-0.852-0.403-0.189-0.807-0.376-1.214-0.563-0.608-0.279-1.223-0.555-1.843-0.83-0.419-0.187-0.84-0.373-1.265-0.558-0.621-0.271-1.251-0.541-1.884-0.809-0.439-0.187-0.882-0.373-1.326-0.558-0.633-0.264-1.273-0.525-1.918-0.785-0.456-0.184-0.914-0.368-1.375-0.55-0.651-0.257-1.308-0.513-1.969-0.768-0.471-0.18-0.944-0.361-1.418-0.541-0.663-0.251-1.331-0.499-2.005-0.747-0.491-0.18-0.984-0.359-1.48-0.538-0.673-0.242-1.351-0.483-2.035-0.722-0.509-0.179-1.021-0.356-1.535-0.531-0.685-0.236-1.375-0.469-2.070-0.702-0.525-0.175-1.052-0.349-1.582-0.523-0.7-0.229-1.403-0.456-2.113-0.683-0.54-0.172-1.084-0.342-1.629-0.513-0.708-0.221-1.418-0.441-2.135-0.658-0.561-0.17-1.128-0.341-1.696-0.509-0.718-0.214-1.44-0.426-2.168-0.636-0.575-0.167-1.153-0.331-1.732-0.496-0.73-0.207-1.463-0.413-2.202-0.616-0.596-0.165-1.196-0.327-1.797-0.489-0.735-0.199-1.472-0.396-2.213-0.591-0.613-0.16-1.229-0.321-1.848-0.479-0.748-0.192-1.5-0.384-2.257-0.575-0.621-0.155-1.248-0.309-1.873-0.463-0.762-0.187-1.525-0.373-2.295-0.556-0.638-0.152-1.281-0.302-1.924-0.451-0.77-0.179-1.542-0.357-2.319-0.535-0.656-0.149-1.32-0.296-1.981-0.441-0.773-0.17-1.549-0.341-2.329-0.509-0.673-0.145-1.351-0.287-2.031-0.429-0.785-0.165-1.57-0.329-2.362-0.489-0.683-0.139-1.371-0.276-2.060-0.413-0.8-0.159-1.599-0.317-2.405-0.473-0.693-0.134-1.392-0.264-2.088-0.394-0.807-0.152-1.615-0.304-2.429-0.451-0.715-0.13-1.435-0.257-2.155-0.384-0.809-0.144-1.617-0.287-2.432-0.428-0.732-0.125-1.47-0.247-2.205-0.371-0.815-0.135-1.629-0.272-2.449-0.404-0.743-0.12-1.492-0.237-2.24-0.354-0.825-0.13-1.65-0.259-2.482-0.386-0.753-0.114-1.513-0.226-2.274-0.336-0.834-0.122-1.664-0.246-2.502-0.364-0.775-0.11-1.557-0.215-2.337-0.322-0.83-0.114-1.659-0.229-2.494-0.339-0.792-0.105-1.59-0.205-2.385-0.307-0.839-0.107-1.674-0.215-2.516-0.319-0.798-0.099-1.604-0.192-2.407-0.287-0.847-0.1-1.692-0.202-2.544-0.299-0.81-0.092-1.627-0.179-2.441-0.269-0.855-0.094-1.709-0.187-2.569-0.277-0.82-0.085-1.649-0.167-2.472-0.249-0.862-0.087-1.721-0.174-2.588-0.256-0.83-0.079-1.667-0.154-2.502-0.229-0.869-0.079-1.736-0.16-2.608-0.236-0.855-0.074-1.717-0.142-2.578-0.212-0.857-0.070-1.712-0.142-2.573-0.209-0.892-0.068-1.789-0.132-2.684-0.197-0.84-0.062-1.677-0.125-2.519-0.182-0.907-0.062-1.821-0.119-2.731-0.177-0.842-0.053-1.68-0.11-2.526-0.162-0.932-0.055-1.871-0.105-2.806-0.157-0.829-0.045-1.654-0.095-2.484-0.137-0.957-0.048-1.921-0.092-2.883-0.137-0.822-0.038-1.64-0.080-2.464-0.115-0.972-0.042-1.951-0.077-2.928-0.114-0.819-0.032-1.634-0.065-2.454-0.094-0.986-0.033-1.976-0.060-2.965-0.089-0.822-0.023-1.639-0.052-2.464-0.074-1.027-0.027-2.061-0.045-3.094-0.067-0.787-0.017-1.57-0.037-2.36-0.050-1.201-0.020-2.407-0.033-3.612-0.047-0.626-0.007-1.251-0.018-1.879-0.023-1.801-0.015-3.608-0.023-5.421-0.023-0.037 0-0.074 0-0.11 0-1.851 0-3.695 0.008-5.534 0.023-0.546 0.005-1.091 0.015-1.635 0.020-1.288 0.015-2.578 0.028-3.859 0.050-0.707 0.012-1.408 0.030-2.113 0.045-1.116 0.023-2.233 0.043-3.344 0.072-0.745 0.018-1.483 0.043-2.225 0.065-1.071 0.032-2.142 0.060-3.207 0.097-0.738 0.025-1.47 0.057-2.207 0.084-1.061 0.040-2.123 0.079-3.179 0.124-0.742 0.032-1.478 0.068-2.217 0.104-1.046 0.048-2.093 0.095-3.135 0.149-0.745 0.038-1.485 0.082-2.227 0.124-1.024 0.057-2.050 0.11-3.069 0.172-0.76 0.045-1.515 0.097-2.274 0.145-0.997 0.063-1.996 0.125-2.988 0.194-0.757 0.052-1.508 0.109-2.263 0.164-0.984 0.072-1.968 0.14-2.945 0.217-0.773 0.060-1.54 0.125-2.309 0.187-0.949 0.077-1.899 0.154-2.845 0.236-0.785 0.068-1.565 0.14-2.347 0.212-0.924 0.084-1.849 0.165-2.77 0.254-0.777 0.074-1.547 0.152-2.319 0.231-0.917 0.092-1.834 0.18-2.746 0.276-0.77 0.080-1.532 0.165-2.299 0.249-0.907 0.099-1.814 0.195-2.716 0.299-0.76 0.087-1.513 0.177-2.27 0.266-0.897 0.105-1.794 0.21-2.686 0.321-0.75 0.092-1.495 0.189-2.242 0.284-0.89 0.114-1.781 0.226-2.666 0.342-0.742 0.099-1.477 0.2-2.215 0.301-0.875 0.12-1.752 0.239-2.621 0.362-0.743 0.105-1.482 0.215-2.222 0.324-0.855 0.125-1.711 0.251-2.559 0.379-0.738 0.112-1.468 0.227-2.202 0.342-0.842 0.132-1.686 0.262-2.522 0.399-0.727 0.117-1.448 0.239-2.172 0.359-0.832 0.139-1.664 0.277-2.491 0.419-0.72 0.124-1.433 0.251-2.147 0.378-0.817 0.144-1.635 0.289-2.446 0.436-0.718 0.13-1.43 0.266-2.143 0.398-0.795 0.149-1.589 0.297-2.377 0.449-0.712 0.137-1.418 0.277-2.123 0.418-0.785 0.155-1.57 0.311-2.349 0.469-0.695 0.142-1.385 0.286-2.075 0.431-0.775 0.162-1.552 0.324-2.32 0.489-0.685 0.147-1.365 0.297-2.045 0.448-0.758 0.167-1.517 0.334-2.269 0.504-0.682 0.154-1.358 0.311-2.035 0.468-0.742 0.172-1.482 0.344-2.217 0.52-0.672 0.16-1.338 0.322-2.003 0.484-0.727 0.177-1.452 0.356-2.172 0.536-0.658 0.165-1.311 0.332-1.963 0.499-0.718 0.184-1.435 0.369-2.145 0.556-0.643 0.169-1.283 0.341-1.919 0.513-0.702 0.189-1.402 0.379-2.095 0.571-0.64 0.177-1.275 0.356-1.909 0.535-0.68 0.192-1.356 0.386-2.030 0.581-0.628 0.182-1.253 0.366-1.874 0.551-0.667 0.199-1.331 0.398-1.991 0.598-0.618 0.187-1.231 0.378-1.841 0.568-0.645 0.2-1.288 0.403-1.928 0.606-0.611 0.195-1.218 0.391-1.821 0.588-0.63 0.205-1.256 0.413-1.878 0.62-0.596 0.199-1.188 0.401-1.777 0.601-0.613 0.21-1.224 0.421-1.831 0.635-0.585 0.205-1.166 0.411-1.744 0.62-0.595 0.214-1.186 0.429-1.774 0.645-0.576 0.212-1.148 0.424-1.716 0.638-0.575 0.217-1.144 0.434-1.712 0.653-0.565 0.217-1.124 0.436-1.682 0.656-0.56 0.221-1.114 0.444-1.667 0.667-0.546 0.222-1.091 0.444-1.63 0.667-0.543 0.226-1.081 0.451-1.615 0.678-0.538 0.229-1.072 0.458-1.6 0.688-0.521 0.227-1.039 0.456-1.554 0.685-0.523 0.234-1.044 0.468-1.56 0.703-0.503 0.231-1.001 0.461-1.497 0.693-0.511 0.239-1.021 0.479-1.523 0.722-0.484 0.232-0.962 0.468-1.44 0.703-0.496 0.244-0.989 0.489-1.477 0.735-0.469 0.237-0.932 0.478-1.393 0.717-0.478 0.247-0.954 0.496-1.423 0.747-0.451 0.241-0.895 0.483-1.34 0.725-0.464 0.254-0.927 0.508-1.381 0.763-0.431 0.242-0.855 0.488-1.28 0.732-0.448 0.259-0.894 0.516-1.331 0.777-0.414 0.247-0.822 0.494-1.228 0.743-0.431 0.264-0.862 0.526-1.283 0.792-0.394 0.249-0.78 0.498-1.168 0.748-0.414 0.269-0.829 0.536-1.234 0.807-0.374 0.251-0.74 0.501-1.108 0.753-0.401 0.276-0.802 0.55-1.191 0.827-0.352 0.249-0.695 0.501-1.037 0.752-0.386 0.282-0.772 0.563-1.146 0.847-0.334 0.252-0.658 0.506-0.984 0.762-0.366 0.286-0.732 0.57-1.086 0.857-0.316 0.256-0.621 0.511-0.929 0.768-0.347 0.291-0.695 0.58-1.032 0.872-0.296 0.257-0.581 0.515-0.869 0.773-0.327 0.294-0.658 0.588-0.976 0.885-0.276 0.257-0.54 0.516-0.807 0.775-0.311 0.301-0.623 0.601-0.922 0.904-0.256 0.259-0.499 0.518-0.747 0.778-0.291 0.306-0.585 0.61-0.864 0.917-0.236 0.259-0.458 0.52-0.685 0.78-0.272 0.311-0.546 0.621-0.805 0.934-0.215 0.261-0.418 0.521-0.626 0.782-0.251 0.316-0.504 0.63-0.742 0.947-0.197 0.262-0.381 0.528-0.571 0.792-0.227 0.317-0.459 0.635-0.675 0.956-0.177 0.264-0.341 0.528-0.509 0.792-0.207 0.322-0.418 0.646-0.611 0.971-0.157 0.262-0.299 0.526-0.448 0.79-0.185 0.329-0.376 0.658-0.548 0.989-0.135 0.261-0.257 0.523-0.384 0.785-0.164 0.336-0.332 0.672-0.483 1.009-0.115 0.261-0.215 0.521-0.324 0.783-0.14 0.341-0.287 0.682-0.413 1.024-0.097 0.261-0.175 0.521-0.264 0.782-0.117 0.346-0.239 0.692-0.342 1.039-0.075 0.257-0.135 0.515-0.202 0.772-0.094 0.354-0.192 0.707-0.271 1.062-0.055 0.249-0.094 0.501-0.14 0.752-0.070 0.366-0.145 0.73-0.199 1.096-0.035 0.241-0.053 0.483-0.082 0.725-0.043 0.378-0.094 0.755-0.122 1.134-0.043 0.6-0.067 1.201-0.067 1.806-0.008 40.317 96.617 73.003 215.813 73.003zM892.853 491.531c-5.982-50.198-30.277-108.362-68.822-150.418-37.063-40.439-83.861-65.292-142.72-62.025 8.566 92.12 25.704 184.33 35.81 270.181 83.078 53.093 129.37 53.534 149.641 41.449 20.507-12.226 32.073-48.99 26.091-99.188z"/>
</svg>