<svg xmlns="http://www.w3.org/2000/svg" viewBox="0 -64 1024 1000" style="transform: scaleY(-1);">
<path fill="currentColor" d="M507.019 918.352c-259.369 0-469.63-210.262-469.63-469.63s210.252-469.63 469.63-469.63 469.64 210.259 469.64 469.628-210.271 469.632-469.64 469.632zM512.312 45.862c-223.337 0-404.386 181.048-404.386 404.386s181.049 404.393 404.386 404.393 404.386-181.054 404.386-404.393-181.051-404.386-404.386-404.386zM514.005 731.162c-155.402 0-281.381-125.975-281.381-281.379s125.979-281.386 281.381-281.386 281.381 125.982 281.381 281.386c0 155.397-125.979 281.379-281.381 281.379zM643.346 316.799l-49.468 85.742h98.976c-8.493-33.062-25.904-62.541-49.508-85.742zM593.878 494.706l49.518 85.831c23.61-23.226 41.017-52.737 49.491-85.831h-99.009zM563.404 626.879l-49.67-86.088-49.677 86.101c15.801 4.393 32.449 6.75 49.648 6.75 17.218 0 33.882-2.362 49.698-6.764zM433.59 494.706h-99.062c8.478 33.11 25.897 62.634 49.525 85.866l49.538-85.866zM334.561 402.541h99.029l-49.488-85.775c-23.62 23.206-41.044 52.697-49.541 85.775zM513.706 263.743c-17.176 0-33.8 2.35-49.58 6.73l49.608 85.983 49.6-85.969c-15.794-4.388-32.436-6.744-49.628-6.744z"/>
</svg>