<svg xmlns="http://www.w3.org/2000/svg" viewBox="0 -64 1024 1000" style="transform: scaleY(-1);">
<path fill="currentColor" d="M733.172 444.175c0-121.99-98.897-220.887-220.887-220.887s-220.887 98.897-220.887 220.887 98.897 220.887 220.887 220.887 220.887-98.897 220.887-220.887zM852.573 396.646c7.382 51.611 65.274 87.356 137.014 92.056-4.711 51.806-17.538 101.176-37.771 147.519-65.117-30.187-133.085-26.22-164.276 15.378-31.341 41.817-14.515 107.522 33.288 161.718-38.972 32.648-84.324 58.771-132.998 77.908-24.621-67.544-75.181-113.083-126.786-105.708s-87.364 65.275-92.058 137.016v-0.005c-52.089-4.724-102.948-17.077-149.506-37.494 30.693-65.417 28.42-133.212-13.392-164.562-41.605-31.184-107.951-15.935-162.001 31.298-32.441-38.837-58.57-82.563-77.619-131.012 67.547-24.626 113.088-75.193 105.706-126.781s-65.274-87.364-137.014-92.060c4.669-51.506 17.747-101.399 37.771-147.519 35.563 16.336 71.483 22.179 102.036 17.884 26.021-3.73 47.807-14.017 62.24-33.266 31.582-42.126 15.116-109.279-33.57-163.7 38.97-32.651 84.324-58.767 132.998-77.903 24.621 67.544 75.181 113.093 126.786 105.708s87.362-65.275 92.058-137.016c52.089 4.724 102.948 17.072 149.506 37.489-31.482 65.887-28.462 134.966 13.678 166.551 19.247 14.436 45.049 17.984 71.057 14.194 30.174-4.313 62.245-20.472 90.942-45.492 32.125 38.628 58.699 82.919 77.619 131.007-67.549 24.626-113.089 75.18-105.708 126.789zM512.229 174.697c-148.908 0-269.618 120.708-269.618 269.618s120.71 269.618 269.618 269.618 269.618-120.713 269.618-269.618-120.71-269.618-269.618-269.618z"/>
</svg>