<svg xmlns="http://www.w3.org/2000/svg" viewBox="0 -64 1024 1000" style="transform: scaleY(-1);">
<path fill="currentColor" d="M925.455 631.729l-76.868-20.595-10.589-39.517-64.302 64.302 23.23 23.23-16.122 60.17-60.17 16.123-23.23-23.23-64.362 64.362 39.602 10.611 20.595 76.865-56.268 56.27-76.865-20.595-20.595-76.865 28.68-28.68-87.93-23.56-8.418 31.413-60.17 16.123-44.049-44.049 8.418-31.415-88.117-23.61 10.527 39.29-56.272 56.27-76.867-20.597-20.595-76.867 56.272-56.27 39.49 10.581-23.552-87.894-31.393 8.413-44.049-44.049 16.123-60.172 31.393-8.411-23.592-88.041-28.973 28.973-76.868-20.595-20.599-76.867 56.27-56.272 76.868 20.595 10.639 39.7 64.657-64.657-22.962-22.962 16.122-60.17 60.17-16.123 22.962 22.962 64.596-64.597-39.602-10.611-20.595-76.865 56.268-56.27 76.865 20.595 20.595 76.865-29.305 29.307 88.233 23.642 8.491-31.689 60.17-16.123 44.049 44.049-8.491 31.689 88.049 23.592-10.699-39.929 56.272-56.27 76.867 20.597 20.595 76.867-56.272 56.27-39.724-10.644 23.654 88.273 31.711-8.498 44.049 44.049-16.123 60.172-31.709 8.496 23.612 88.119 29.009-29.009 76.868 20.595 20.599 76.867-56.273 56.273zM724.072 444.008c-28.57-121.782-240.521-155.939-276.051-217.474 0 77.644-160.668 199.423-130.928 326.526 28.565 122.070 184.798 108.337 216.124-8.568 87.676 87.668 219.006 19.518 190.855-100.484z"/>
</svg>