<svg xmlns="http://www.w3.org/2000/svg" viewBox="0 -64 1024 1000" style="transform: scaleY(-1);">
<path fill="currentColor" d="M805.814 699.709l56.225 98.788-98.819-56.241c-152.548 130.669-382.655 123.81-527.053-20.589-144.397-144.397-151.258-374.5-20.594-527.048l-56.253-98.84 98.81 56.236c152.546-130.917 382.847-124.133 527.333 20.355 144.488 144.488 151.271 374.792 20.35 527.338zM786.245 720.867c0 0 0 0 0 0v0zM510.45 445.072l-95.763 95.765 95.763-95.763 196.414 196.413c0 0 0 0 0 0l-196.414-196.414zM315.689 642.393c92.553 92.551 234.479 105.622 340.982 39.219l-242.467-137.998-137.792-242.107c-66.334 106.493-53.246 248.363 39.278 340.885zM705.979 252.104c-92.541-92.541-234.446-105.619-340.944-39.244l180.969 102.996 60.216 33.453-0.521 0.521 1.458 0.83 138.006 242.481c66.443-106.508 53.383-248.468-39.184-341.037z"/>
</svg>