<svg xmlns="http://www.w3.org/2000/svg" viewBox="0 -64 1024 1000" style="transform: scaleY(-1);">
<path fill="currentColor" d="M878.823 808.374l-196.219 112.886c-6.46-11.175-28.236-49.065-44.214-93.411l-10.389 5.969c-130.923-227.807-255.335-439.573-384.864-662.692-39.041-67.245-24.863-148.163 31.549-180.573 56.412-32.412 134.137-4.29 172.846 63.142 128.439 223.74 253.080 435.387 384.865 662.692l-13.377 7.684c30.678 35.446 53.056 72.634 59.803 84.304zM486.567 520.883l134.595 235.552c-3.7-39.488 5.155-75.943 40.305-96.211 46.476-26.796 95.606 1.37 135.577 40.412l-102.711-179.753h-207.767z"/>
</svg>