<svg xmlns="http://www.w3.org/2000/svg" viewBox="0 -64 1024 1000" style="transform: scaleY(-1);">
<path fill="currentColor" d="M882.975 589.857l20.45 47.495-58.827-15.153c-24.947 19.162-52.075 36.79-80.799 52.764l-11.291 96.037-61.602-60.419c-30.184 12.896-61.418 24.127-93.156 33.58l-14.353 122.082-98.244-96.356c-26.905 4.306-53.701 7.272-80.069 8.847l-54.376 136.603-84.065-142.394c-198.157-31.423-324.479-168.818-188.596-449.705 391.826-103.452 755.836 285.367 787.872-264.382 198.9 215.149 156.595 401.6 17.056 531.003zM435.983 319.352c-78.213-14.867-162.96-27.99-250.619-22.378 89.307-229.896 415.938-461.373 523.446-183.67-208.321-69.67-189.385 109.685-272.827 206.048z"/>
</svg>