<svg xmlns="http://www.w3.org/2000/svg" viewBox="0 -64 1024 1000" style="transform: scaleY(-1);">
<path fill="currentColor" d="M887.846 652.655c-87.581 142.099-244.713 236.689-376.296 281.842-44.61-14.227-88.988-33.794-131.824-58.323l169.62-132.086-46.302-46.81 166.269-126.964-311.884 97.449 63.837 61.597-169.456 53.786c-41.959-38.052-80.38-81.683-113.475-130.489 90.476-243.007 90.476-290.45 0-533.462 244.723-186.888 502.851-195.734 749.511 0-74.024 243.009-74.029 290.448 0 533.461zM764.3 384.582c-62.873 31.413-124.33 51.123-185.174 58.921-24.028-152.22-23.428-304.442 4.963-456.662h-119.355c36.912 152.566 31.385 305.129 4.574 457.691-62.603-6.941-125.068-26.834-188.289-59.95v142.41c159.079 44.734 334.369 29.965 483.281 0v-142.41z"/>
</svg>