<svg xmlns="http://www.w3.org/2000/svg" viewBox="0 -64 1024 1000" style="transform: scaleY(-1);">
<path fill="currentColor" d="M947.138 908.544c-83.719-18.617-167.438-32.614-251.157-41.154l-141.080-270.239 92.805-41.204-229.774-378.077 82.79 338.588-44.969 20.48-142.485-39.817 118.617 100.339 87.14 260.315c-137.62-0.697-275.239 14.964-412.859 50.769h-0.002c61.001-51.982 105.429-189.988 105.429-352.388 0-88.573-13.803-169.002-35.551-232.957 62.165-142.627 171.576-244.414 359.192-350.023 182.817 97.335 287.577 192.828 346.932 334.651-24.962 66.012-40.456 152.676-40.456 248.328-0.003 162.402 44.426 300.408 105.427 352.39z"/>
</svg>