<svg xmlns="http://www.w3.org/2000/svg" viewBox="0 -64 1024 1000" style="transform: scaleY(-1);">
<path fill="currentColor" d="M17.435 860.632v0.002l-0.003 0.002zM505.747 474.726l123.687-123.687 124.512-122.863 122.030-123.683 123.628-121.976v145.53l-573.547 573.545 85.109 85.109-55.248 55.248-137.958-137.958c-44.541 22.623-86.427 52.8-122.416 88.782-42.856 42.844-76.414 92.969-99.365 146.606-39.35-11.842-66.061-37.574-78.746-78.744 99.231-42.465 186.159-124.863 235.423-221.745l-134.795-134.795 55.248-55.248 85.991 85.991 563.051-563.051h55.353l-9.146 1.597-18.972 104.724-104.715 18.963-18.138 103.895-104.729 18.968-18.96 104.719-104.724 18.968-18.958 104.72-103.9 18.138-24.74 136.884 36.283-6.598-0.82-0.824 119.561-121.213z"/>
</svg>