<svg xmlns="http://www.w3.org/2000/svg" viewBox="0 -64 1024 1000" style="transform: scaleY(-1);">
<path fill="currentColor" d="M769.936 259.056l137.563 137.563-56.945 56.943c-22.192-43.638-48.741-83.863-78.808-120.959-46.035 45.981-91.367 90.987-136.678 134.831 133.417 141.84 254.131 289.344 346.59 463.725-177.222-98.768-327.164-216.224-471.102-346.742-143.936 130.517-293.878 247.973-471.1 346.742 92.459-174.379 213.171-321.883 346.59-463.725-45.31-43.843-90.642-88.847-136.676-134.829-30.065 37.096-56.616 77.321-78.808 120.959l-56.945-56.945 137.565-137.565c-52.495-87.21-126.819-152.596-211.627-207.494l56.031-56.031c55.518 84.185 123.299 156.119 207.822 211.3l137.241-137.241 56.945 56.945c-41.857 24.183-82.004 50.951-119.653 80.527 44.67 44.585 89.031 88.453 132.617 132.245 43.586-43.791 87.949-87.66 132.619-132.245-37.649-29.577-77.797-56.343-119.653-80.527l56.945-56.945 137.243 137.243c84.523-55.181 152.302-127.113 207.82-211.298l56.031 56.031c-84.807 54.897-159.131 120.282-211.627 207.493z"/>
</svg>