<svg xmlns="http://www.w3.org/2000/svg" viewBox="0 -64 1024 1000" style="transform: scaleY(-1);">
<path fill="currentColor" d="M886.56 76.201l-57.326 75.853-16.919-12.724c-131.074 138.895-177.588 269.631-242.098 417.065 20.265 44.984 41.456 89.516 64.866 132.871l30.71-17.786c103.294 126.657 134.979-160.907 71.456-280.279 208.873 53.507 390.076 392.551 158.641 526.169-57.15-98.987-141.624-70.998-279.173 8.663l-97.611-169.6 25.714-14.892c-11.932-20.674-22.937-40.93-33.219-60.815-10.282 19.885-21.289 40.141-33.219 60.817l25.712 14.892-97.611 169.598c-137.55-79.662-222.024-107.65-279.173-8.663-231.434-133.618-50.231-472.662 158.641-526.171-63.523 119.372-31.838 406.936 71.456 280.279l30.71 17.786c23.412-43.355 44.602-87.887 64.868-132.873-64.512-147.433-111.025-278.171-242.098-417.064l-16.92 12.726-57.324-75.853 5-3.76c-4.467-3.956-9.012-7.92-13.638-11.894 19.773-37.504 58.69-58.184 102.068-74.946 4.159 3.66 8.25 7.358 12.296 11.084l25.055-18.845 57.324 75.853-16.207 12.189c89.728 106.149 147.877 230.337 203.059 356.649 55.182-126.311 113.332-250.499 203.061-356.648l-16.209-12.191 57.326-75.853 25.057 18.845c4.046-3.723 8.135-7.422 12.295-11.082 43.377 16.762 82.294 37.442 102.068 74.946-4.626 3.974-9.171 7.938-13.638 11.892l4.998 3.76z"/>
</svg>