<svg xmlns="http://www.w3.org/2000/svg" viewBox="0 -64 1024 1000" style="transform: scaleY(-1);">
<path fill="currentColor" d="M930.403 213.24l-0.002 0.005c-131.775 44.79-244.698 114.606-342.069 203.509l-48.572-48.572c88.886-99.281 161.752-211.549 212.342-333.241 45.746-110.032 190.82-25.879 84.312 84.312 125.945-91.413 212.579 53.679 93.989 93.987zM488.988 520.027c-88.231 103.832-161.555 225.258-223.419 358.051-40.44 86.804-177.159 1.228-96.754-96.752-96.415 89.051-182.319-35.462-81.551-81.552 127.482-58.305 246.948-136.423 351.259-230.211l50.465 50.465zM98.68 214.272c313.538 106.571 520.381 354.768 664.832 664.833 40.444 86.804 177.159 1.228 96.754-96.752 96.415 89.051 182.319-35.462 81.551-81.552-292.682-133.863-543.148-372.121-664.832-664.833-45.746-110.036-190.82-25.877-84.312 84.312-125.945-91.413-212.579 53.679-93.993 93.987v0.005z"/>
</svg>