<svg xmlns="http://www.w3.org/2000/svg" viewBox="0 -64 1024 1000" style="transform: scaleY(-1);">
<path fill="currentColor" d="M989.839 466.91l-0.002 0.005c-41.276-15.362-106.608-34.452-172.625 22.176l-193.352 165.853 190.713 163.589-96.909 112.977-208.113-178.515-208.114 178.515-96.909-112.977 190.713-163.589-193.354-165.855c-66.017-56.627-131.349-37.537-172.625-22.176v-0.003c-27.536-69.348 6.030-133.187 96.704-108.307-49.109-83.98-61.955-235.866 61.139-352.149 110.174-104.082 291.284 59.192 189.602 133.858-38.414 28.208-75.051 60.396-90.807 99.909 68.93 61.869 106.371 112.252 63.389 176.541 10.818 11.023 23.022 22.408 36.74 34.175l123.52 105.953 123.52-105.953c13.718-11.767 25.922-23.151 36.74-34.175-42.983-64.288-5.541-114.673 63.389-176.541-15.756-39.515-52.393-71.702-90.807-99.909-101.682-74.667 79.428-237.941 189.602-133.858 123.094 116.283 110.248 268.169 61.139 352.149 90.675-24.88 124.241 38.959 96.705 108.307zM278.433 269.951c-3.419 31.807 6.953 68.018 38.733 109.969l-38.733-109.969zM701.936 379.92c31.781-41.951 42.151-78.161 38.733-109.969l-38.733 109.969z"/>
</svg>