<svg xmlns="http://www.w3.org/2000/svg" viewBox="0 -64 1024 1000" style="transform: scaleY(-1);">
<path fill="currentColor" d="M273.331 375.122l-215.812-218.802c108.003-351.623 464.919-77.774 271.018 111.424-38.982 38.038-57.723 77.149-55.206 107.378zM264.083 278.003c19.448-14.097 35.021-28.707 47.196-43.471-58.044-7.328-162.286-87.002-184.252-144.736-9.179 14.055-17.547 30.657-24.783 50.081l161.839 138.126zM147.514 63.846c59.282 6.996 159.458 91.973 181.373 145.301 71.566-125.723-82.884-247.594-181.373-145.301zM394.878 353.085c-24.095-18.668-48.021-37.293-71.581-55.889l61.903-103.895c42.574 25.471 84.883 51.826 126.184 78.943 41.301-27.115 83.611-53.47 126.184-78.943l61.901 103.895c-23.56 18.596-47.485 37.221-71.58 55.889 237.645 175.167 409.483 374.712 340.798 570.49-71.030-167.684-259.356-325.894-457.305-480.263-197.948 154.368-386.272 312.579-457.302 480.263-68.685-195.776 103.153-395.322 340.798-570.49zM694.229 267.744c-193.9-189.198 163.016-463.048 271.018-111.424l-215.812 218.802c2.517-30.227-16.222-69.338-55.206-107.378zM693.878 209.147c21.917-53.328 122.092-138.305 181.375-145.301-98.489-102.293-252.941 19.578-181.375 145.301zM920.519 139.876c-7.235-19.424-15.604-36.025-24.783-50.081-21.963 57.735-126.206 137.408-184.252 144.736 12.176 14.764 27.75 29.374 47.196 43.471l161.839-138.126z"/>
</svg>