<svg xmlns="http://www.w3.org/2000/svg" viewBox="0 -64 1024 1000" style="transform: scaleY(-1);">
<path fill="currentColor" d="M836.73 702.345l124.69-10.043c8.614 10.862 22.016 65.506 8.614 78.873l-131.731 131.731c-13.402 13.402-68.011 0-78.875-8.577l10.007-124.69 67.295-67.295zM972.825 111.611c1.459-1.558 2.935-3.11 4.439-4.652-97.25 101.664-41.982 290.143-193.605 488.948l46.641 62.298-104.967 104.963-62.298-46.652c-191.018 145.654-372.473 100.401-476.577 182.861l-0.040 0.452-7.879 6.204c-1.499 1.339-2.987 2.701-4.451 4.101 1.454-1.419 2.918-2.806 4.385-4.185l-0.002-0.427 54.192-624.906-207.623-232.323 90.383-90.383 226.065 202.017 631.336-48.319zM965.266 119.985l-614.678 48.076 340.689 304.449 34.485 46.062c146.71-174.674 154.691-301.448 239.504-398.587zM186.52 898.655c97.22-85.302 224.159-93.013 399.196-240.038l-46.080-34.506-299.781-335.445-53.335 609.989zM237.148 195.288l420.14 420.14 63.185 37.918-37.918-63.185-420.14-420.14-25.267 25.267z"/>
</svg>