<svg xmlns="http://www.w3.org/2000/svg" viewBox="0 -64 1024 1000" style="transform: scaleY(-1);">
<path fill="currentColor" d="M667.548 702.973c-235.281 135.84-494.944 126.572-579.97-20.697s36.78-376.775 272.062-512.615 494.941-126.577 579.968 20.692c85.027 147.274-36.779 376.779-272.060 512.62zM876.83 254.309c-56.348-97.597-255.041-88.373-443.791 20.604s-296.086 276.437-239.738 374.034 255.043 88.376 443.793-20.6 296.086-276.437 239.736-374.037zM791.976 574.981c12.993 49.72 65.635 95.446 99.672 124.001-37.91 10.659-135.372-10.34-161.303-35.467zM281.942 791.608c-34.148 13.848-75.084 58.147-91.876 102.869-20.106-33.867-19.057-93.141-9.599-139.485zM535.707 762.109c-32.462 51.023-39.555 113.074-26.378 148.218-36.607-20.543-75.672-96.984-86.816-127.933zM624.81 189.042c42.555 25.737 65.7 94.006 62.295 129.044 28.181-27.504 42.619-107.393 45.198-138.15zM879.157 477.801c48.292-11.894 83.271-3.991 105.639 23.195 0.481-39.371-16.15-82.067-36.071-105.636zM90.297 457.812c-1.004-49.725-17.699-81.466-49.738-96.046 37.901-10.654 83.45-5.635 111.374 7.507zM380.415 299.797c-11.9 48.285 11.986 115.219 39.163 137.585-39.368 0.483-98.045-48.108-121.609-68.032zM569.788 96.99c34.45-35.882 37.103-86.098 24.751-119.055 34.335 19.259 70.983 70.997 81.432 100.028zM444.152 129.77c-49.727-1.044-105.631-58.512-127.995-85.684-0.484 39.366 26.32 119.397 39.458 147.316zM877.221 150.988c48.295-8.19 83.271-30.633 105.639-67.121 0.489 39.171-16.15 88.781-36.074 120.64zM144.384 593.425c33.939 14.353 94.208 11.981 137.7-7.771-9.725 38.159-52.381 79.329-91.839 105.417zM659.705 618.42c-36.567-4.542-87.578-36.729-115.366-75.581-10.658 37.908 5.698 94.89 26.826 137.211z"/>
</svg>