<svg xmlns="http://www.w3.org/2000/svg" viewBox="0 -64 1024 1000" style="transform: scaleY(-1);">
<path fill="currentColor" d="M994.685 731.99l-125.419-134.132-46.571 165.88-104.179-144.148-49.516 112.403-83.368-147.463-81.706 142.224-68.72-144.172-98.58 149.409-38.683-132.44-113.059 150.408 3.847-178.061-164.408 160.093 140.537-456.266c24.808-50.846 143.492-90.157 352.59-94.256 221.247-4.342 355.657 35.025 379.087 94.261l-0.003-0.005 98.152 456.266zM213.060 297.856c-27.479 0-49.753 22.279-49.753 49.752s22.274 49.752 49.753 49.752c27.479 0 49.753-22.279 49.753-49.752 0-27.478-22.274-49.752-49.753-49.752zM386.427 249.97c-27.479 0-49.753 22.279-49.753 49.752s22.274 49.752 49.753 49.752 49.753-22.279 49.753-49.752c0-27.476-22.274-49.752-49.753-49.752zM648.469 249.97c-27.479 0-49.753 22.279-49.753 49.752s22.274 49.752 49.753 49.752 49.753-22.279 49.753-49.752c0-27.476-22.274-49.752-49.753-49.752zM841.158 297.856c-27.479 0-49.753 22.279-49.753 49.752s22.274 49.752 49.753 49.752c27.479 0 49.753-22.279 49.753-49.752 0-27.478-22.274-49.752-49.753-49.752z"/>
</svg>