<svg xmlns="http://www.w3.org/2000/svg" viewBox="0 -64 1024 1000" style="transform: scaleY(-1);">
<path fill="currentColor" d="M838.581 247.993c0.545 3.378 0.84 6.785 0.84 10.223 0 33.232-25.899 63.829-69.381 88.203 126.174 138.886 122.218 353.843-11.887 487.949-138.192 138.192-362.242 138.192-500.434 0-134.107-134.107-138.061-349.065-11.884-487.952-43.479-24.374-69.378-54.969-69.378-88.199 0-4.3 0.459-8.553 1.308-12.757-50.308-30.127-80.042-67.333-80.042-107.605 0-100.399 184.728-181.791 412.607-181.791s412.607 81.389 412.607 181.791c0 41.409-31.438 79.578-84.356 110.139zM283.995 807.234c123.735 123.734 324.346 123.734 448.079 0s123.735-324.344 0-448.079c-61.497-61.497-141.982-92.414-222.579-92.783-53.004 0.155-105.978 13.516-153.553 40.106-0.603-0.107-1.198-0.221-1.799-0.329-25.146 13.984-48.793 31.65-70.148 53.006-123.734 123.734-123.735 324.346 0 448.079zM751.527 667.355c-28.827-28.827-88.791-15.601-133.933 29.542s-58.368 105.106-29.542 133.933c28.827 28.827 88.791 15.601 133.933-29.542s58.368-105.106 29.542-133.933zM557.428 311.625c-57.675-57.675-177.649-31.211-267.97 59.109s-116.784 210.295-59.109 267.97c57.675 57.675 177.649 31.211 267.97-59.109s116.784-210.295 59.109-267.97z"/>
</svg>