<svg xmlns="http://www.w3.org/2000/svg" viewBox="0 -64 1024 1000" style="transform: scaleY(-1);">
<path fill="currentColor" d="M994.411 675.702l0.967 0.967-18.8 241.971-242.817 19.638-0.966-0.966-0.003 0.003v-0.005l-280.895-280.895 0.222-2.741-2.745 0.222 2.967-2.967 14.665-181.285-65.833 65.832c-9.071-85.291-57.71-131.029-141.548-141.548l36.996-36.994-262.503-261.696v-123.61h107.284l270.262 270.264 38.615-38.615c10.893 83.462 56.789 131.944 141.548 141.548l-64.437 64.435 180.658-14.035 2.938-2.938-0.212 2.726 2.735-0.212 0.003 0.005 280.897 280.895zM700.329 529.536l-8.134 104.724-105.968 8.57 157.242 157.245 0.429-0.023 8.539-105.549 104.72-8.137-156.829-156.829z"/>
</svg>