<svg xmlns="http://www.w3.org/2000/svg" viewBox="0 -64 1024 1000" style="transform: scaleY(-1);">
<path fill="currentColor" d="M863.237 536.188l-63.877 32.748-147.125-39.421 77.936 134.989-7.113 110.295-117.488-37.846v66.084l-79.279 118.913-107.588-118.908v-179.846l-69.39 120.187-70.99 35.102-18.693-86.881 133.641-231.476-152.74-40.925-46.711-55.819 68.367-24.985 133.469 35.761-55.613-96.323 11.124-125.264 67.536 31.387v-66.107l93.436-133.065 93.436 133.070v145.336l43.167-135.943 71.673-54.613 27.033 85.958-90.673 285.531 164.236 44.005 42.226 48.058zM498.969 277.047l0.002-0.002-28.774 147.408-83.073 25.022 83.074 25.019 44.638 228.693 44.842-229.735 79.605-23.975-79.606-23.98-44.841-229.735-15.868 81.285z"/>
</svg>