<svg xmlns="http://www.w3.org/2000/svg" viewBox="0 -64 1024 1000" style="transform: scaleY(-1);">
<path fill="currentColor" d="M537.6 839.734l-134.395-111.497 59.945-440.519 77.603-54.429 82.176 51.272 46.954 439.478zM771.167 546.688l81.167 143.692-32.826 66.416-56.634-25.227-54.394-158.613 12.676-63.383zM294.795 602.604l6.937 55.022-79.18 118.442-52.628 21.502-4.415-58.34 79.18-118.403zM881.943 491.29l-109.735-23.711-141.237-338.289 30.966-68.84 94.158 6.366 171.005 321.73zM197.042 526.927l-38.944-129.821 202.443-319.019 72.652-23.211 19.519 59.848-130.043 403.912z"/>
</svg>