<svg xmlns="http://www.w3.org/2000/svg" viewBox="0 -64 1024 1000" style="transform: scaleY(-1);">
<path fill="currentColor" d="M804.196 462.861v308.705l-285.718 164.963-285.718-164.963v-307.18l-164.274-94.846v-257.032l222.599-128.516 216.832 125.187h18.48l192.006-110.853 17.485-10.826 0.667 0.346 6.675-3.854 222.599 128.516v257.032l-161.633 93.321zM744.050 297.701l-89.023 51.382c24.339 20.273 55.632 32.479 89.783 32.479 33.884 0 64.965-12.007 89.22-31.998l-89.98-51.863zM204.972 350.767c24.030 19.254 54.506 30.795 87.693 30.795 34.838 0 66.687-12.719 91.228-33.729l-86.977-50.133-91.945 53.066zM295.879 676.995l85.299-49.167c-0.979-6.689-1.503-13.524-1.503-20.485 0-58.236 35.462-108.185 85.968-129.443v-80.625l-169.763 98.015v181.706zM575.982 401.497v77.074c49.697 21.614 84.461 71.125 84.461 128.773 0 5.421-0.339 10.76-0.937 16.020l81.571 46.693v-173.24l-165.095-95.321zM687.441 766.674l-82.488-47.545c-23.579 17.934-52.986 28.598-84.895 28.598-30.18 0-58.112-9.557-81.003-25.762l-83.504 48.195 162.926 94.068 168.963-97.554zM152.28 241.177c0 5.237 0.311 10.399 0.869 15.485l86.627-49.93v-95.6c-51.31 20.891-87.496 71.229-87.496 130.045zM347.061 111.727v91.512l85.518 48.953c0.282-3.638 0.471-7.303 0.471-11.015 0-58.243-35.472-108.197-85.989-129.45zM604.427 241.177c0 4.301 0.224 8.548 0.603 12.749l81.88-47.194v-93.435c-48.634 22.057-82.483 71-82.483 127.88zM794.195 109.751v93.488l90.321 51.701c0.441-4.529 0.68-9.117 0.68-13.763 0-60.147-37.84-111.439-91.001-131.426z"/>
</svg>