<svg xmlns="http://www.w3.org/2000/svg" viewBox="0 -64 1024 1000" style="transform: scaleY(-1);">
<path fill="currentColor" d="M559.453 61.59c0-28.188 30.952-53.281 63.533-53.281v0.003c31.864 0 64.808 24.944 64.808 54.621 0 59.131-55.66 86.285-64.808 188.376-7.307-101.927-63.533-132.948-63.533-189.719zM992.664 502.327c22.167 37.987 0.189 104.47-36.151 121.101l-270.109-91.215c-2.302 4.737-4.694 9.411-7.185 14.007l224.814 161.050c4.069 19.76-4.049 44.445-18.658 64.041s-35.462 35.135-57.139 37.262l-229.386-166.297c-3.181 2.374-6.401 4.634-9.655 6.797l146.915 230.535c-8.307 34.856-59.096 63.154-99.119 61.714l0.008-0.018c-5.716-0.374-11.201-0.82-16.326-2.314l-200.674-314.739c-27.977 120.129-50.881 249.467-179.364 194.258 43.571-116.946 55.714-244.656 81.1-338.573-61.769-73.997-157.534-160.222-301.619-222.145v-301.596h310.19c92.696 177.471 183.044 302.651 257.712 303.923l11.663 0.434-63.176 181.874 42.261 14.089-67.228 157.81 137.749-185.382-55.705-15.019 71.147-150.952 298.782 11.117c31.002 29.404 35.638 101.12 5.828 129.255l-247.748-7.093c-0.17 3.834-0.413 7.667-0.723 11.498l271.793 94.579z"/>
</svg>