<svg xmlns="http://www.w3.org/2000/svg" viewBox="0 -64 1024 1000" style="transform: scaleY(-1);">
<path fill="currentColor" d="M414.503 48.51l-50.684 338.844-101.812-137.619c-88.009 108.586-95.299 266.838-8.317 384.409 82.455 111.456 224.652 152.608 349.617 111.965l-17.537 117.271 143.774 21.499c-210.152 107.764-473.425 50.829-618.481-145.241-145.446-196.6-122.347-465.925 43.401-635.273l-78.813-106.533 338.852 50.677zM862.109 785.758l82.551 111.586-338.847-50.669 50.677-338.852 97.793 132.188c84.269-108.404 90.050-263.649 4.382-379.45-81.098-109.621-219.985-151.223-343.429-113.893l16.807-112.359-152.392-22.79c210.583-109.611 475.463-53.017 621.129 143.878 144.053 194.719 122.766 460.755-38.67 630.361z"/>
</svg>