<svg xmlns="http://www.w3.org/2000/svg" viewBox="0 -64 1024 1000" style="transform: scaleY(-1);">
<path fill="currentColor" d="M985.92 810.444l15.178 56.646c-39.622 39.662-95.641 53.178-149.417 40.036l-15.178-56.646 27.586-7.392-61.838-230.779-15.392 4.124c-16.011-25.080-54.599-37.198-96.109-29.783l-15.393-57.446c26.566-2.422 52.782-6.129 78.691-10.983-85.872-165.94-116.387-370.762-72.39-543.163 130.015 148.662 202.506 322.892 209.018 506.14 24.987-8.852 49.705-18.719 74.166-29.561l15.393 57.446c-39.657 14.333-67.018 44.121-68.344 73.847l-15.393 4.124 61.838 230.779 27.585-7.39zM812.533 462.204c-20.423 5.471-32.542 26.465-27.072 46.885 0.227 0.847 0.491 1.674 0.77 2.492 0 0 0 0 0 0 2.815 8.244 8.225 14.967 15.054 19.496 0.033 0.022 0.065 0.045 0.097 0.067 0.93 0.613 1.891 1.183 2.872 1.712 0.067 0.037 0.134 0.074 0.2 0.109 0.957 0.511 1.939 0.979 2.938 1.407 0.097 0.042 0.192 0.084 0.289 0.124 0.982 0.413 1.985 0.782 3 1.111 0.119 0.038 0.237 0.075 0.356 0.114 1.007 0.316 2.030 0.591 3.065 0.824 0.13 0.028 0.261 0.057 0.391 0.084 1.034 0.221 2.080 0.401 3.135 0.536 0.132 0.017 0.266 0.030 0.398 0.045 1.062 0.124 2.133 0.207 3.212 0.241 0.124 0.003 0.247 0.003 0.373 0.005 1.096 0.023 2.197 0.005 3.303-0.067 0.1-0.007 0.2-0.018 0.299-0.025 1.134-0.084 2.272-0.212 3.411-0.399 0.060-0.010 0.12-0.023 0.18-0.033 1.181-0.2 2.364-0.451 3.545-0.768 1.189-0.319 2.347-0.695 3.478-1.116 0.053-0.020 0.109-0.037 0.162-0.057 1.089-0.411 2.147-0.874 3.179-1.373 0.085-0.042 0.174-0.080 0.261-0.122 1.002-0.494 1.973-1.036 2.917-1.61 0.102-0.062 0.205-0.12 0.306-0.182 0.924-0.573 1.814-1.188 2.678-1.831 0.107-0.079 0.214-0.157 0.319-0.237 0.849-0.646 1.664-1.33 2.449-2.041 0.102-0.094 0.205-0.184 0.307-0.279 0.777-0.718 1.52-1.468 2.233-2.245 0.090-0.099 0.182-0.199 0.272-0.297 0.707-0.788 1.38-1.604 2.018-2.446 0.075-0.1 0.15-0.2 0.226-0.302 0.636-0.857 1.236-1.737 1.799-2.643 0.058-0.094 0.115-0.189 0.174-0.284 0.563-0.924 1.089-1.871 1.572-2.838 0.040-0.080 0.077-0.16 0.117-0.241 0.486-0.992 0.934-2.005 1.333-3.039 0.022-0.055 0.042-0.112 0.062-0.167 0.406-1.062 0.768-2.143 1.079-3.241 0.007-0.023 0.012-0.047 0.018-0.070 1.597-5.69 1.896-11.814 0.646-17.943-0.155-0.763-0.327-1.525-0.531-2.287-5.474-20.418-26.467-32.537-46.89-27.067zM575.518 622.275h-15.938v238.919h28.558v58.644c-48.537 28.056-106.145 26.612-154.687 0v-58.644h28.558v-238.919h-15.933c-8.974-28.37-43.112-50.062-85.126-53.642v-59.472c26.287 4.535 52.57 7.741 78.851 9.756-39.998-182.511-16.463-388.251 70.656-543.392 87.108 177.247 112.037 364.303 70.898 542.994 26.427-2.083 52.855-5.217 79.287-9.358v59.472c-42.014 3.58-76.15 25.271-85.126 53.642zM549.076 518.227c0-21.14-17.141-38.281-38.284-38.281s-38.284 17.141-38.284 38.281c0 0.877 0.040 1.746 0.099 2.608v0c0.585 8.686 4.069 16.579 9.49 22.72 0.030 0.033 0.057 0.067 0.087 0.1 0.735 0.827 1.51 1.62 2.314 2.38 0.062 0.058 0.124 0.12 0.187 0.179 0.785 0.733 1.605 1.432 2.451 2.098 0.092 0.072 0.182 0.144 0.274 0.215 0.834 0.645 1.696 1.255 2.581 1.829 0.115 0.075 0.232 0.149 0.347 0.222 0.88 0.558 1.784 1.081 2.71 1.567 0.134 0.070 0.269 0.139 0.403 0.205 0.927 0.473 1.874 0.91 2.843 1.306 0.142 0.058 0.284 0.112 0.426 0.169 0.977 0.388 1.971 0.738 2.985 1.046 0.139 0.042 0.281 0.079 0.421 0.12 1.031 0.299 2.076 0.561 3.14 0.773 0.124 0.025 0.251 0.043 0.374 0.067 1.092 0.207 2.197 0.374 3.319 0.486 0.090 0.008 0.184 0.012 0.274 0.020 1.148 0.105 2.307 0.167 3.483 0.169 0.025 0 0.050 0.002 0.075 0.002s0.048-0.002 0.074-0.002c1.184-0.002 2.354-0.063 3.51-0.17 0.087-0.008 0.174-0.012 0.261-0.020 1.133-0.114 2.247-0.282 3.348-0.491 0.12-0.023 0.241-0.040 0.361-0.065 1.071-0.214 2.123-0.479 3.161-0.782 0.139-0.040 0.281-0.077 0.418-0.119 1.017-0.309 2.015-0.663 2.993-1.052 0.145-0.057 0.291-0.112 0.434-0.172 0.966-0.398 1.911-0.837 2.835-1.31 0.144-0.074 0.287-0.145 0.429-0.221 0.917-0.483 1.809-1.004 2.681-1.557 0.134-0.085 0.266-0.169 0.399-0.256 0.869-0.566 1.711-1.168 2.529-1.802 0.117-0.090 0.232-0.182 0.349-0.274 0.819-0.65 1.612-1.333 2.374-2.046 0.095-0.090 0.189-0.18 0.284-0.271 0.768-0.735 1.508-1.498 2.213-2.294 0.072-0.080 0.14-0.164 0.212-0.244 0.715-0.82 1.398-1.669 2.041-2.547 0.045-0.062 0.089-0.127 0.134-0.189 0.656-0.909 1.278-1.846 1.856-2.813 0.018-0.032 0.037-0.063 0.055-0.095 3.012-5.083 4.884-10.923 5.259-17.167v0c0.047-0.77 0.077-1.544 0.077-2.324zM346.51 529.205l-15.393 57.446c-41.51-7.415-80.098 4.702-96.109 29.783l-15.392-4.124-61.838 230.779 27.586 7.392-15.178 56.646c-53.776 13.142-109.795-0.374-149.417-40.036l15.178-56.646 27.585 7.392 61.838-230.781-15.393-4.124c-1.326-29.726-28.685-59.514-68.342-73.847l15.393-57.446c24.461 10.841 49.177 20.709 74.164 29.561 6.512-183.248 79.005-357.478 209.020-506.14 43.999 172.4 13.481 377.221-72.39 543.163 25.907 4.854 52.125 8.561 78.689 10.983zM236.405 509.089c5.472-20.42-6.648-41.413-27.072-46.885s-41.416 6.648-46.887 27.068c-0.202 0.753-0.373 1.508-0.528 2.263 0 0 0 0 0.002 0-1.258 6.142-0.959 12.281 0.645 17.983 0.005 0.015 0.008 0.030 0.012 0.047 0.312 1.104 0.677 2.19 1.084 3.257 0.020 0.052 0.037 0.104 0.057 0.154 0.401 1.037 0.85 2.053 1.338 3.050 0.037 0.077 0.074 0.152 0.112 0.229 0.484 0.972 1.012 1.921 1.577 2.848 0.057 0.092 0.112 0.184 0.169 0.276 0.563 0.907 1.164 1.789 1.801 2.648 0.074 0.1 0.149 0.199 0.224 0.299 0.638 0.842 1.311 1.659 2.020 2.447 0.090 0.1 0.18 0.199 0.271 0.297 0.712 0.778 1.457 1.528 2.233 2.247 0.1 0.094 0.204 0.184 0.306 0.276 0.787 0.712 1.602 1.395 2.451 2.041 0.105 0.080 0.214 0.157 0.319 0.237 0.864 0.645 1.754 1.258 2.678 1.831 0.1 0.062 0.204 0.12 0.306 0.182 0.944 0.575 1.914 1.114 2.917 1.61 0.085 0.042 0.174 0.080 0.261 0.122 1.031 0.499 2.090 0.962 3.179 1.373 0.053 0.020 0.11 0.037 0.164 0.057 1.131 0.421 2.289 0.797 3.476 1.116 1.181 0.316 2.362 0.568 3.545 0.768 0.060 0.010 0.12 0.023 0.18 0.033 1.139 0.187 2.277 0.316 3.411 0.399 0.1 0.007 0.2 0.018 0.299 0.025 1.106 0.074 2.207 0.090 3.303 0.067 0.124-0.003 0.249-0.002 0.373-0.005 1.079-0.033 2.15-0.117 3.212-0.241 0.132-0.015 0.266-0.028 0.398-0.045 1.056-0.134 2.101-0.314 3.135-0.536 0.13-0.028 0.261-0.055 0.389-0.084 1.036-0.232 2.058-0.508 3.067-0.824 0.119-0.037 0.236-0.075 0.354-0.114 1.016-0.329 2.018-0.7 3-1.111 0.097-0.040 0.192-0.082 0.289-0.124 0.999-0.428 1.98-0.895 2.938-1.407 0.067-0.035 0.134-0.074 0.2-0.109 0.981-0.53 1.939-1.099 2.872-1.714 0.032-0.022 0.063-0.043 0.095-0.065 6.831-4.529 12.241-11.254 15.056-19.498 0 0 0 0 0 0 0.282-0.819 0.545-1.645 0.772-2.492z"/>
</svg>