<svg xmlns="http://www.w3.org/2000/svg" viewBox="0 -64 1024 1000" style="transform: scaleY(-1);">
<path fill="currentColor" d="M993.076 481.293c-16.698 43.153-44.059 75.743-78.937 98.788 33.438 17.846 62.22 43.362 83.677 77.378-40.116 31.996-85.897 49.732-133.898 55.329 18.769 25.002 31.229 55.548 34.727 92.536-54.163 5.456-116.387 3.166-173.178-11.296 1.36 32.055-11.279 67.028-43.409 103.691-51.708-13.18-99.143-39.814-131.725-75.828-26.23 39.849-72.301 72.39-129.579 87.989-38.254-29.459-58.916-62.693-65.431-95.924-44.132 23.995-97.12 34.231-156.331 28.869-3.095-37.13 2.701-69.184 15.165-96.502-56.105 0.742-112.977-14.867-165.482-49.17 25.506-31.35 54.745-56.322 86.597-75.29-39.824-17.304-73.969-44.059-98.321-81.257 46.28-23.594 94.886-38.616 143.467-44.426-24.728-27.471-42.111-62.128-48.698-104.922 55.075-6.988 114.381-4.873 168.298 8.994-1.36-32.138 9.39-67.076 35.842-103.456 58.072 15.323 113.544 45.32 150.099 85.067 38.666-101.77 5.133-228.076-69.092-339.43-61.767 148.844-206.273 85.241-266.714 164.595-13.342-129.054 17.037-242.847 196.568-252.607-0.307-0.327-0.61-0.656-0.919-0.984h121.148c304.039-7.287 332.229 147.508 296.055 301.851-31.878-53.943-108.399-59.452-176.106-89.217 10.783 41.399 15.203 83.537 12.589 125.59 3.338-1.739 6.717-3.391 10.131-4.953 43.74 30.687 64.834 64.721 69.405 98.506 53.342-19.606 114.217-27.539 166.593-27.177 5.648 37.941-0.027 69.988-13.711 96.861 54.902-1.567 110.368 7.544 161.171 26.393zM545.431 576.301c-0.732-4.908-1.26-9.712-1.619-14.425-6.562 2.862-13.228 5.508-19.981 7.891-5.192-4.866-9.861-9.901-14.085-15.061-2.933 5.357-6.187 10.749-9.837 16.175-7.547-1.423-14.991-3.079-22.324-4.933 0.945 4.375 1.789 8.828 2.492 13.387-7.407 0.939-14.892 1.706-22.429 2.309 4.056 3.632 8.063 7.37 12.011 11.236-5.33 2.877-10.734 5.629-16.189 8.287 6.004 2.111 11.994 4.335 17.963 6.7-3.13 4.141-6.329 8.195-9.587 12.168 7.716-0.117 15.425-0.040 23.096 0.254-0.945 4.925-1.98 9.772-3.090 14.551 7.97-3.024 16.204-5.718 24.693-8.027 5.868 4.525 11.309 9.142 16.362 13.832 2.282-4.95 4.778-9.931 7.557-14.947 7.242 1.732 14.481 3.71 21.688 5.897-0.772-4.677-1.402-9.457-1.866-14.358 7.925-0.795 16.028-1.415 24.255-1.864-4.667-3.797-9.284-7.677-13.837-11.66 5.508-3.040 11.095-5.954 16.738-8.765-6.172-1.98-12.346-4.051-18.516-6.224 3.187-4.388 6.475-8.656 9.851-12.818-7.926 0.309-15.731 0.444-23.347 0.394z"/>
</svg>