<svg xmlns="http://www.w3.org/2000/svg" viewBox="0 -64 1024 1000" style="transform: scaleY(-1);">
<path fill="currentColor" d="M643.621 423.974l123.886-34.416-76.11 48.425 36.175 91.119-64.068-73.373-28.382 18.057-75.939-90.741c-33.965 48.213-3.991 136.691 42.441 221.212l56.328 57.996 82.774-51.777 26.704-114.199 159.014-43.733-126.239 70.464-25.49 111.769-89.168 55.89 47.908 49.327 84.795 67.894-104.278-36.335-10.824 4.179 80.621 157.724-115.754-144.162-87.517 33.785v117.842l-38.842-144.567 139.593-53.455-78.439-81.443c-30.882-16.816-53.907-16.291-74.22-4.171l-10.248 22.149 83.378 66.758-98.402-34.287-59.58 128.777 28.729 62.577-63.118-44.946-182.079 40.089 180.954-75.464 22.975-49.669-124.091-26.411-66.433 82.967 31.501-90.402-52.186-11.107-118.956 76.538 52.524-59.904-79.575-63.718 103.746 36.15 27.695-31.586 160.576 33.75-6.421-87.203 41.482 94.572 47.131 9.906 46.642-100.832c3.757-19.878 5.379-38.182 4.518-54.152l-90.064 35.141 82.087-70.831c-12.138-25.792-38.332-36.38-82.265-23.187l-150.281 99.67-55.796-37.006-32.685 74.517 6.754-91.715-19.022-12.615-129.88 98.399 122.6-149.431 108.034 71.68c21.732-14.935 43.572-29.711 65.456-44.416l-24.187-83.152-97.177-40.351 127.521 7.548 27.036 93.743c11.374-7.563 22.758-15.112 34.167-22.623 98.728-151.265 113.719-377.379 3.881-352.201 18.115-77.017-48.375-135.355-109.32-161.582h384.919c-137.77 75.144-169.307 222.1-99.83 363.865l72.322 86.68z"/>
</svg>