<svg xmlns="http://www.w3.org/2000/svg" viewBox="0 -64 1024 1000" style="transform: scaleY(-1);">
<path fill="currentColor" d="M821.223 254.95c34.405-17.729 54.944-38.438 54.944-60.789 0-64.156-164.351-116.9-365.897-116.9s-364.728 52.749-364.728 116.9c0 22.471 20.188 43.001 54.944 60.789h-0.005c-100.142-27.212-164.829-67.517-164.829-112.226 0-81.902 212.698-148.463 474.616-148.463s474.616 66.56 474.616 148.463c0 44.55-64.136 85.019-163.661 112.226zM277.487 309.996c11.459-12.873 25.313-24.347 40.98-34.368l-34.295-56.544c94.295-77.156 302.406-87.356 422.713 0.971l-35.359 45.333c22.419 12.218 42.512 27.417 59.145 45.759-61.124 57.073-37.064 118.632 121.676 193.052v0.017c0 195.736-92.457 434.415-344.044 434.415-249.458 0-344.044-227.665-344.044-434.415 149.711-70.213 164.817-145.796 113.228-194.219zM501.122 456.456h0.003c0-0.002-0.002-0.002-0.002-0.003 24.163-43.564 43.335-87.124 52.85-130.686-25.989-19.362-72.52-22.176-105.701 0 12.864 43.564 28.331 87.124 52.85 130.686 0 0.002-0.002 0.002-0.002 0.003zM689.262 641.404c63.281-11.62 72.55-59.823 62.87-120.854l-0.003-0.005c-62.048-42.012-128.426-78.217-207.082-38.027l-2.217 67.066c85.274-3.545 131.062 31.139 146.432 91.819zM648.082 668.006c-51.649-75.056-247.432-75.12-291.028 0.409 92.23-21.699 189.647-21.367 291.028-0.409zM253.623 520.55c-9.68 61.031-0.411 109.234 62.87 120.854 15.37-60.68 61.158-95.362 146.432-91.819l-2.217-67.066c-78.651-40.19-145.032-3.986-207.082 38.027l-0.003 0.005z"/>
</svg>