<svg xmlns="http://www.w3.org/2000/svg" viewBox="0 -64 1024 1000" style="transform: scaleY(-1);">
<path fill="currentColor" d="M667.583 737.887c51.628 51.851 62.756 124.739 24.862 162.799s-110.465 26.883-162.093-24.97c-51.624-51.85-62.756-124.739-24.862-162.799s110.465-26.881 162.093 24.97zM791.45 835.55c326.252-295.467-483.602-249.876-739.311 57.912 61.953-89.287 150.596-159.348 248.805-211.729l-62.995 14.558c60.316-38.162 128.87-70.106 200.819-94.788-115.542-54.11-117.199-228.962-119.9-356.628h81.795l21.703-289.797h207.84l19.2 289.797h77.625c6.127 112.904 1.066 231.745-57.204 304.308 70.94-8.007 140.358-8.274 203.955 0.172l-52.797 12.201c184.773 13.937 251.274 112.109-29.536 273.993z"/>
</svg>