<svg xmlns="http://www.w3.org/2000/svg" viewBox="0 -64 1024 1000" style="transform: scaleY(-1);">
<path fill="currentColor" d="M728.604 490.291c4.071 107.338-160.948 175.107-211.012 35.868-50.064 139.239-215.083 71.47-211.012-35.868 3.822-100.689 165.86-143.734 211.012-241.696 45.153 97.962 207.195 141.005 211.012 241.696zM125.229 581.060l154.517-66.724c3.102 18.113 10.519 34.756 20.946 49.165l-65.845 31.552c58.542 86.626 122.897 142.862 193.511 170.034-78.935 61.5-126.184 100.030-156.196 177.473h-132.94c115.203-86.764 155.658-148.622 136.501-209.001-78.437 60.992-161.508 94.801-245.247 124.702l-12.188-71.48c79.869-18.427 158.809-42.278 232.244-98.436-26.063-33.219-68.618-67.724-125.304-107.286zM243.007 272.039l-222.734 129.442v-101.902c246.852-12.485 321.038-234.698 0-275.924v-81.629l296.197 141.1c-91.926 108.988-8.342 200.141 86.195 253.974-11.616 8.778-23.24 17.458-34.467 26.205l-125.19-91.265zM1015.242-50.984l-165.759 200.34c-133.645-89.004-224.358 12.64-236.238 180.715-15.711-11.997-31.193-24.265-45.439-37.213l31.34-236.557c109.804 63.526 307.431-33.027 281.344-107.284h134.752zM987.201 262.745l0.002-0.002 10.292 88.508-170.442-36.605c-10.025 48.252-11.232 83.266 44.191 131.518-43.633 6.692-87.030 11.899-130.153 14.124-6.981-19.89-19.666-37.756-35.713-54.553 73.26-30.847 96.231-83.373 52.578-160.287l229.246 17.296zM716.765 573.174c10.763-12.211 19.234-26.462 24.456-42.138 66.617 20.452 129.086 47.167 187.853 79.474l-188.439 111.821c80.051 55.794 165.906 77.834 262.587 102.089 19.735 124.853-46.172 122.92-150.638 110.179-33.481-85.014-133.173-163.68-259.717-238.936 77.485-6.934 267.448-55.045 123.899-122.491z"/>
</svg>