<svg xmlns="http://www.w3.org/2000/svg" viewBox="0 -64 1024 1000" style="transform: scaleY(-1);">
<path fill="currentColor" d="M990.519-23.643l-168.424 103.421 109.326 153.647-199.914-51.429-64.068 181.143-114.863-142.729-105.736 320.313-88.644-289.57-177.286 141.827 73.868-215.698-195.016-8.865 97.509-97.507-100.464-94.557h209.579l56.175 52.972-33.961 74.395 113.031-41.132 57.25 167.612 65.356-185.989 114.038 85.971 4.101-110.928 127.711 14.239-40.654-57.137zM351.616 283.848l7.459-5.967 88.644 289.57 105.736-320.313 114.862 142.729 39.184-110.786v336.153l106.576 132.118v168.466h-97.673v-79.461h-59.452v79.461h-98.735v-79.461h-58.391v79.461h-98.735v-79.461h-58.388v79.461h-97.669v-168.466l106.583-132.126z"/>
</svg>