<svg xmlns="http://www.w3.org/2000/svg" viewBox="0 -64 1024 1000" style="transform: scaleY(-1);">
<path fill="currentColor" d="M992.694 86.72c-121.066-15.696-228.284-10.581-321.564 12.599 110.838 93.161 190.167 232.294 213.358 390.976 2.997 5.984 5.559 12.442 7.612 19.277 29.442-14.705 55.61-36.117 75.52-63.49l17.747 115.219-91.625 14.281c-1.644 5.964-3.785 11.545-6.393 16.626 5.733 86.534-3.906 180.682-37.898 256.834 17.081 9.176 26.604 24.244 22.371 38.237-3.924 12.97-18.607 21.506-36.637 22.991 0.359 2.17 0.167 4.335-0.685 6.381-3.528 8.478-16.812 11.725-29.666 7.257s-20.417-14.964-16.887-23.442c0.307-0.737 0.712-1.418 1.159-2.075-13.325-9.229-20.236-22.356-16.516-34.657 4.243-14.027 21.070-22.869 41.107-23.213 11.561-74.149 12.512-158.129-3.891-231.379-5.908-4.859-11.379-10.922-16.207-17.953l-106.446 16.591-17.747-115.219c31.487 23.173 67.51 35.932 104.032 39.325-0.545-7.156-0.458-14.141 0.195-20.837-47.54-153.339-134.675-273.388-260.788-347.868-125.199 73.885-212.036 192.624-259.879 344.181 1.031 7.851 1.273 16.137 0.615 24.671 37.113-3.146 73.778-15.933 105.763-39.472l-17.747 115.219-108.003-16.833c-5.038 7.382-10.788 13.696-17.005 18.696-16.287 73.13-15.308 156.898-3.774 230.876 21.011-0.301 38.944 8.668 43.344 23.215 3.541 11.708-2.551 24.165-14.635 33.296 0.932 1.027 1.704 2.165 2.233 3.436 3.528 8.478-4.033 18.973-16.887 23.442s-26.138 1.221-29.666-7.257c-0.829-1.99-1.024-4.091-0.705-6.199-19.357-0.755-35.436-9.505-39.572-23.173-4.084-13.499 4.634-27.999 20.589-37.245-34.475-76.59-44.181-171.568-38.294-258.726-2.442-4.918-4.455-10.288-6.012-16.006l-89.825-14 17.747-115.219c19.575 26.911 45.198 48.060 74.034 62.74 1.276-4.156 2.743-8.169 4.382-12.017 21.98-161.461 102.129-303.186 214.691-397.618-93.187-23.104-200.321-28.146-321.275-12.465 163.457-118.029 334.065-133.194 479.728-79.959 145.807-53.238 316.538-38.075 480 79.957z"/>
</svg>