<svg xmlns="http://www.w3.org/2000/svg" viewBox="0 -64 1024 1000" style="transform: scaleY(-1);">
<path fill="currentColor" d="M949.597 778.481c-15.869-198.163-154.828-157.161-154.828-20.278h-0.005c0 108.11-114.959 147.874-150.79 28.323-80.909 82.708-187.033 81.27-267.095-4.265-33.852 126.433-152.392 87.145-152.392-22.64 0-136.884-138.958-177.887-154.828 20.278-74.229-84.194-64.978-179.118 2.471-246.563 48.599-48.596 129.271-51.444 196.64-17.834-5.214-38.93-8.052-81.253-8.052-127.028 86.305-87.037 114.9-207.135 114.9-366.944 24.479-23.228 49.767-39.401 75.505-48.721 9.916 73.371 1.179 144.078-1.138 215.703l56.044-82.286 59.050 83.301c-1.473-71.673-7.532-143.342-1.48-215.015 25.323 9.614 50.59 25.336 75.482 47.017 0 154.784 16.588 281.834 125.043 366.944 0 44.060-2.619 84.93-7.459 122.646 66.064-30.429 143.338-26.32 190.461 20.797 67.449 67.445 76.7 162.37 2.471 246.563zM378.967 339.264c-30.553 0-58.071 44.029-61.465 98.344s18.619 98.344 49.172 98.344c30.553 0 58.071-44.029 61.465-98.344 3.394-54.317-18.619-98.344-49.172-98.344zM697.559 437.606c-3.394-54.315-30.912-98.344-61.465-98.344s-52.566 44.029-49.172 98.344 30.912 98.344 61.465 98.344c30.553 0 52.568-44.029 49.172-98.344z"/>
</svg>