<svg xmlns="http://www.w3.org/2000/svg" viewBox="0 -64 1024 1000" style="transform: scaleY(-1);">
<path fill="currentColor" d="M914.086 709.71l-370.803 214.083c-48.285 27.877-110.031 11.332-137.909-36.953l-328.213-568.484c-27.879-48.285-11.332-110.031 36.953-137.909l370.803-214.083c48.285-27.879 110.031-11.332 137.909 36.953l328.213 568.484c27.879 48.285 11.332 110.031-36.953 137.909zM472.67 839.357c12.213 21.152 39.261 28.401 60.416 16.189s28.401-39.263 16.189-60.414c-12.213-21.153-39.261-28.401-60.416-16.189s-28.401 39.263-16.189 60.414zM656.032 548.696c0.002-0.003 0.002-0.007 0.003-0.008l25.346-161.697c0-0.002 0-0.003-0.002-0.005l2.634-16.795-260.524-98.317-43.113 275.057 260.514 98.371 15.141-96.605zM553.324 46.956c-12.213-21.153-39.261-28.401-60.416-16.189s-28.401 39.261-16.189 60.414c12.213 21.153 39.261 28.401 60.416 16.189s28.401-39.261 16.189-60.414z"/>
</svg>