<svg xmlns="http://www.w3.org/2000/svg" viewBox="0 -64 1024 1000" style="transform: scaleY(-1);">
<path fill="currentColor" d="M873.572 888.13h-724.815c-42.457 0-76.875-34.418-76.875-76.875v-724.815c0-42.457 34.418-76.875 76.875-76.875h724.815c42.457 0 76.875 34.418 76.875 76.875v724.815c0 42.457-34.418 76.875-76.875 76.875zM778.728 816.249c55.139 0 99.837-44.699 99.837-99.837s-44.699-99.837-99.837-99.837-99.837 44.699-99.837 99.837 44.699 99.837 99.837 99.837zM243.602 816.249c55.139 0 99.837-44.699 99.837-99.837s-44.699-99.837-99.837-99.837-99.837 44.699-99.837 99.837c0.002 55.139 44.699 99.837 99.837 99.837zM243.602 81.448c-55.139 0-99.837 44.699-99.837 99.837s44.699 99.837 99.837 99.837 99.837-44.699 99.837-99.837-44.699-99.837-99.837-99.837zM243.603 349.011c-55.139 0-99.837 44.699-99.837 99.837s44.699 99.837 99.837 99.837 99.837-44.699 99.837-99.837-44.699-99.837-99.837-99.837zM778.728 81.448c-55.139 0-99.837 44.699-99.837 99.837s44.699 99.837 99.837 99.837 99.837-44.699 99.837-99.837c-0.002-55.139-44.7-99.837-99.837-99.837zM778.729 349.011c-55.139 0-99.837 44.699-99.837 99.837s44.699 99.837 99.837 99.837 99.837-44.699 99.837-99.837-44.699-99.837-99.837-99.837z"/>
</svg>