<svg xmlns="http://www.w3.org/2000/svg" viewBox="0 -64 1024 1000" style="transform: scaleY(-1);">
<path fill="currentColor" d="M968.437 642.365c-50.796 45.739-104.346 86.532-158.545 120.927-13.13 49.793-121.893 153.946-187.225 95.571-46.959 69.649-144.765 70.713-213.219 41.227-208.744 16.083-327.309-78.469-372.352-250.452v-679.308h377.95c-10.554 111.105 11.334 232.647 57.207 313.685 76.725-19.366 167.173-37.724 270.060-59.288 81.584-17.097 113.337 36.034 134.45 130.357l-63.927-43.232-20.029 88.66-91.184-61.666-21.532 95.316-86.367-58.406-21.349 94.499-87.451-59.136-29.953 132.584 141.427 95.643 21.349-94.499 87.451 59.14 21.532-95.316 86.367 58.406 20.029-88.66 91.184 61.666 15.377-68.065c41.633 53.878 70.324 132.915 28.751 170.348z"/>
</svg>