<svg xmlns="http://www.w3.org/2000/svg" viewBox="0 -64 1024 1000" style="transform: scaleY(-1);">
<path fill="currentColor" d="M587.036-26.281l408.685 59.153-172.077 381.797c-3.259-68.317-11.979-132.836-29.34-191.343l-155.326 197.515c-2.056-43.148-7.16-84.25-16.88-122.249l-161.44 144.688c-2.721-23.913-6.714-46.929-12.453-68.718l-91.722 57.235 635.249 487.808h-181.133l-568.542-500.895 185.033-101.707c-3.471-7.016-7.257-13.81-11.354-20.386l-280.214 101.645 500.507 521.343h-161.404l-437.998-535.368 348.661-125.954c-16.406-16.28-36.050-30.284-59.633-41.52l226.443-54.043c-21.882-23.729-48.82-44.062-81.838-60.307l250.703-24.743c-33.702-42.261-77.477-77.517-133.927-103.952z"/>
</svg>