<svg xmlns="http://www.w3.org/2000/svg" viewBox="0 -64 1024 1000" style="transform: scaleY(-1);">
<path fill="currentColor" d="M670.762 424.699c29.666 46.463 51.232 98.366 62.972 156.261-11.306-2.258-22.388-4.908-33.289-7.856l-370.050 370.067-131.501-0.008 406.874-406.896c-24.66-12.923-47.762-27.975-69.107-45.098-26.622 31.517-54.895 56.089-90.127 77.326l-3.379 3.379c13.362 34.106-29.494 75.313-72.747 72.749l-296.456 296.471h-57.907v-59.554l292.832-292.854c-7.524-42.036 30.391-82.73 69.832-74.714 21.826-37.936 53.585-67.153 86.814-95.103-15.981-20.744-30.028-43.223-42.129-67.126l-405.666 405.683v-130.706l369.833-369.848c-2.654-10.001-5.063-20.133-7.163-30.414 55.064 11.433 105.5 31.968 150.429 59.472 137.278-137.284 239.299-210.186 423.308-275.207-49.668 185.369-137.176 267.773-283.372 413.977zM537.677 393.549l33.204 35.65c87.382-82.887 217.988-224.791 281.924-316.486-90.768 63.445-232.451 193.778-315.128 280.837z"/>
</svg>