<svg xmlns="http://www.w3.org/2000/svg" viewBox="0 -64 1024 1000" style="transform: scaleY(-1);">
<path fill="currentColor" d="M495.168 915.706c-59.218-7.689-105.454-72.054-105.454-149.735 0-43.023 14.754-81.442 37.474-108.823-123.154-23.149-132.47-230.507-132.47-376.082h85.405l22.658-303.822h217.004l20.046 303.822h81.051c0 145.976 2.933 356.982-131.595 377.823 21.745 27.249 35.731 65.117 35.731 107.079 0 82.859-52.802 149.735-117.653 149.735-4.053 0-8.254 0.525-12.203 0l0.005 0.003zM677.226 916.636c64.853 0 117.777-66.41 117.777-149.265 0-41.967-14.403-80.039-36.152-107.284 134.528-20.844 131.77-231.85 131.77-377.826h-80.46l-20.991-304.36h-125.942l19.822 304.36h81.629c0 145.976 2.758 356.982-131.77 377.826 21.745 27.245 36.152 65.317 36.152 107.284 0 53.173-22.089 99.381-54.81 125.942 15.103 12.44 31.376 20.881 50.146 23.323 3.946 0.523 8.773 0 12.829 0zM401.351 893.313c-32.547-26.821-54.81-72.883-54.81-125.942 0-43.028 14.595-82.239 37.317-109.621-123.154-23.149-131.775-229.919-131.77-375.489h85.126l22.159-304.36h-125.942l-22.159 304.36h-86.295c0 145.57 9.784 352.34 132.94 375.489-22.722 27.377-37.317 66.592-37.317 109.621 0 77.675 45.734 141.571 104.952 149.265 3.947 0.525 8.773 0 12.829 0 23.233 0 44.705-8.496 62.97-23.323z"/>
</svg>