<svg xmlns="http://www.w3.org/2000/svg" viewBox="0 -64 1024 1000" style="transform: scaleY(-1);">
<path fill="currentColor" d="M876.741 329.236c-96.146 71.094-164.009 101.14-249.864 133.579 8.329 19.097 12.49 38.070 12.129 55.273 11.847-1.537 23.951-0.583 35.467 2.887 2.152-5.751 5.529-11.147 10.153-15.773 17.303-17.303 45.355-17.299 62.656 0.002 17.303 17.303 17.304 45.355 0.002 62.659-4.697 4.697-10.192 8.108-16.043 10.255 8.461 28.782 1.341 61.171-21.365 83.878-22.698 22.698-55.067 29.82-83.838 21.377-2.066 6.617-5.708 12.846-10.95 18.086-17.303 17.303-45.353 17.301-62.656-0.002s-17.304-45.357-0.002-62.659c4.941-4.941 10.76-8.464 16.952-10.582-4.377-13.534-5.275-27.942-2.668-41.832-16.376-0.314-34.193-4.572-52.1-12.495-30.072 77.777-60.675 142.764-126.826 232.233-97.664 132.083-211.143 126.211-149.537-44.573 0.277-0.768 0.568-1.554 0.849-2.327-107.901 73.284-183.939 30.683-91.836-110.792 59.973-92.127 167.408-220.885 249.874-233.094-0.068-14.882 3.159-28.518 9.934-39.871-98.526-76.576-287.388-229.027-354.87-266.651-28.181-93.45-5.090-158.516 114.128-114.135 35.568 68.558 191.849 259.58 269.796 355.696 12.527-5.269 27.172-6.922 42.836-5.24-0.267-83.813 137.168-199.393 234.047-262.475 146.365-95.287 186.901-10.599 102.766 103.145 5.574-2.137 11.054-4.18 16.392-6.106 170.772-61.604 176.648 51.877 44.573 149.539z"/>
</svg>