<svg xmlns="http://www.w3.org/2000/svg" viewBox="0 -64 1024 1000" style="transform: scaleY(-1);">
<path fill="currentColor" d="M30.603 934.063v-122.441c153.142-108.208 315.18-294.666 129.442-250.72 114.045-109.956 207.904-53.485 347.507-270.543 60.74-94.44 14.919-160.816-59.474-180.752-95.605-25.618-228.334 60.795-115.448 108.447-118.4 2.893-133.693-95.798-77.33-160.213-55.769 19.241-91.869 68.506-85.927 121.014-71.967-96.4-10.706-186.264 108.449-204.526h713.673v688.018c-31.45 140.387-189.44 175.241-206.404 6.998 29.17 72.726 101.754 41.181 167.923-37.317-22.525 14.971-48.399 22.947-72.3 22.159-39.395-1.298-74.595-24.133-82.797-73.469 111.624 92.075 168.982-69.323 123.281-153.503-49.408-91.016-189.47 40.87-189.749 151.171-55.859-62.367-15.602-216.239 104.568-244.694-227.737 24.726-151.646 261.078-245.668 311.161 57.359-254.856-347.29 190.845-458.291 289.199l-101.455 0.012z"/>
</svg>