<svg xmlns="http://www.w3.org/2000/svg" viewBox="0 -64 1024 1000" style="transform: scaleY(-1);">
<path fill="currentColor" d="M947.783 492.511h0.003c-93.301 8.869-163.123 61.255-186.286 135.061-13.302 42.383-65.995 73.003-126.619 91.545-65.199 162.111-109.326 250.379-313.798 227.226 73.446-57.456 132.275-134.565 162.405-205.264-58.983 16.919-114.331 25.867-165.831 28.071-112.261 24.598-238.191-26.145-275.205-145.827v-643.64h424.77c-278.259 100.75-351.404 609.068-59.526 511.926-5.13-15.18-10.32-29.689-15.251-43.102 65.576-170.198 227.169-320.856 338.435-335.845 13.25-0.476 33.805 5.442 57.585 16.713-4.437 1.395-8.73 3.252-12.831 5.618-24.862 14.338-37.317 43.791-36.491 77.892-23.495-12.336-48.34-14.294-68.134-2.878-29.285 16.89-38.718 57.977-26.327 100.496-22.635-5.533-44.186-1.838-58.279 12.241-17.722 17.704-19.040 47.176-6.177 75.779-7.342 1.226-13.902 4.323-19.020 9.435-17.583 17.565-11.525 52.094 13.531 77.124 25.055 25.029 59.624 31.081 77.208 13.516 7.716-7.708 10.876-18.683 9.881-30.687 22.331 5.24 43.526 1.462 57.448-12.445 12.285-12.271 16.671-30.204 13.932-49.578 17.072 4.5 33.914 3.224 48.143-4.983 18.653-10.758 29.25-31.335 31.291-55.841 30.374 20.231 64.2 25.408 90.376 10.31 30.887-17.812 42.654-58.939 33.551-103.342 47.911 66.6 69.069 151.196 11.219 240.478z"/>
</svg>