<svg xmlns="http://www.w3.org/2000/svg" viewBox="0 -64 1024 1000" style="transform: scaleY(-1);">
<path fill="currentColor" d="M984.211 491.344l-54.050-108.562-59.601 315.597 1.473-260.525-141.989 295.899 73.796-314.026 173.838-361.5-23.061 184.5zM295.375 274.152l296.13-199.077-296.135 29.925 289.047-72.372-105.602-39.605 229.712 10.071 203.414-25.431zM109.115 325.033l93.152-107.976 143.555-27.969zM138.307 802.793c-37.746-40.257-60.037-92.217-69.315-144.095l766.829-568.694-761.079 434.412c10.228-33.431 27.407-59.808 50.31-73.030h0.002l820.022-437.071-437.073 820.027c-30.017 112.022-259.433 86.056-369.696-31.549z"/>
</svg>