<svg xmlns="http://www.w3.org/2000/svg" viewBox="0 -64 1024 1000" style="transform: scaleY(-1);">
<path fill="currentColor" d="M980.185 930.037c-80.151-138.823-249.555-207.937-418.378-195.552-119.679-80.714-346.563-187.118-524.691-223.736v-289.906c478.181 155.257 1011.314 267.057 943.069 709.194zM856.986 409.476c0-30.246 29.898-52.478 58.817-52.478v-0.003c29.569 0 57.665 20.789 57.665 49.508 0 57.867-42.377 80.737-57.665 166.556-14.795-85.981-58.817-103.302-58.817-163.583zM443.943 278.768c0-23.226-25.565-41.974-25.565-63.154 0-25.461 23.372-43.451 48.008-43.451 24.095 0 49.239 20.159 49.239 46.974s-27.999 41.817-27.999 63.414c0.002 34.983 13.947 62.178 35.476 81.489-42.605-16.479-86.828-32.152-132.056-47.366 31.123 0.693 52.897-11.062 52.897-37.906zM174.633 134.977c-13.005-64.978-46.838-79.687-46.838-127.4 0-24.655 24.374-42.779 47.951-42.779 24.107 0 47.007 16.949 47.007 40.357 0 45.911-32.716 64.821-45.955 130.297 8.207 64.35 56.759 115.939 110.295 147.384-56.258-17.839-113.328-35.382-170.143-53.241 25.508-9.893 48.268-35.142 57.683-94.617zM835.128 533.286c-62.319-52.328-140.64-96.091-228.646-134.889 61.838 6.040 128.217-21.016 146.103-82.249-26.265-113.878-83.911-149.841-83.911-233.395 0-44.010 43.060-75.875 88.38-75.875 44.324 0 90.149 34.078 90.149 80.432 0 87.307-60.246 115.834-86.011 229.907 20.428 113.838 46.518 174.573 73.937 216.069z"/>
</svg>