<svg xmlns="http://www.w3.org/2000/svg" viewBox="0 -64 1024 1000" style="transform: scaleY(-1);">
<path fill="currentColor" d="M1006.138 402.139c-81.88 91.093-165.546 172.346-248.384 244.888-130.578 114.344-258.579 205.508-374.326 278.707h-146.983c121.363-73.476 275.227-185.048 379.296-304.738-175.791 43.043-402.36 132.083-580.987 208.97v-122.3c0.341-0.149 0.683-0.296 1.024-0.444l-9.331 2.935c347.418-152.18 713.198-264.434 979.575-308.090l-0.631 0.199c0.249-0.042 0.501-0.085 0.748-0.125zM119.025 381.744c-5.959-22.296-38.043-80.904-38.043-107.435 0-35.96 28.876-65.222 64.818-64.333 35.944 0.889 64.814 32.215 64.818 68.174 0 26.689-33.349 83.348-39.455 105.414-24.219 87.553 23.993 213.919 84.362 223.486-64.629 24.755-129.492 51.061-193.857 78.728 44.769-46.023 79.513-221.129 57.357-304.033zM495.574 138.268c-6.478-23.632-41.015-86.592-41.010-114.924 0.002-38.17 29.729-67.676 67.881-67.374s69.296 30.286 69.296 68.456c0 28.157-31.771 91.316-39.6 114.287-29.457 86.457-7.93 287.066 42.425 281.877 43.97-4.524 50.6-98.094 32.529-159.617-4.161-14.162-24.040-51.035-24.043-68.099 0.002-22.994 18.028-40.888 41.010-40.706 22.982 0.187 41.010 18.36 41.015 41.354 0 16.964-17.911 53.894-22.628 67.733-18.526 54.379 13.441 178.602 56.99 193.539-105.268 28.395-217.155 63.279-331.434 103.544 111.347-76.703 133.432-325.736 107.568-420.072zM947.751 401.467c-63.303 12.169-131.214 27.767-202.376 46.432 49.675-39.151 69.772-162.225 42.545-264.092-7.41-27.718-47.291-100.573-47.294-133.551 0-44.7 35.892-81.073 80.574-79.974 44.682 1.101 80.574 40.045 80.574 84.745 0 33.177-41.458 103.608-49.045 131.039-30.055 108.654 26.571 200.747 95.023 215.401z"/>
</svg>