<svg xmlns="http://www.w3.org/2000/svg" viewBox="0 -64 1024 1000" style="transform: scaleY(-1);">
<path fill="currentColor" d="M806.042 924.631c-32.481-188.767-111.315-268.632-152.578-367.499-52.929 101.348-109.601 220.327-141.188 397.578-32.073-186.328-93.946-302.685-150.501-402.562-40.447 98.733-114.822 187.474-147.778 372.484-44.959-261.28-178.744-313.914-178.744-497.094 0-91.909 90.855-159.47 178.742-159.47 10.676 0 21.283 0.905 31.697 2.624-2.978-21.957-4.595-45.113-4.595-69.844 0-139.384 137.846-241.843 271.18-241.843 136.336 0 265.852 95.81 265.852 228.14 0 29.953-2.472 57.867-6.947 84.389 11.528-2.274 23.22-3.466 34.861-3.466 89.861 0 175.229 63.177 175.229 150.436 0 175.841-128.772 245.342-175.229 506.128zM212.262 286.18c-87.117 0-157.741 71.57-157.741 159.854s70.623 159.854 157.741 159.854c33.718 0 64.963-10.728 90.601-28.993-8.556 2.858-17.669 4.415-27.132 4.415-49.155 0-89.003-41.627-89.003-92.979s39.847-92.979 89.003-92.979c1.425 0 2.84 0.043 4.248 0.112-13.601-32.888-24.442-67.2-31.184-104.971-11.725-2.816-23.956-4.315-36.533-4.315zM509.603-10.309c-125.332 0-226.934 102.926-226.934 229.892 0 22.439 3.187 44.122 9.106 64.626 0 0 0 0 0 0 3.11 10.775 6.976 21.222 11.54 31.28 0 0-0.002-0.002-0.002-0.002 13.661 30.107 33.546 56.714 58 78.118 0-0.002 0-0.003-0.002-0.003 2.053 1.797 4.144 3.55 6.261 5.27 0.222 0.18 0.443 0.364 0.667 0.543 6.68 5.391 13.664 10.41 20.924 15.026 0 0 0 0.002 0 0.002 34.906 22.189 76.19 35.031 120.439 35.031 43.317 0 83.796-12.3 118.228-33.633 2.125-1.316 4.221-2.676 6.299-4.061 0.314-0.209 0.63-0.418 0.944-0.628 2.116-1.425 4.215-2.88 6.281-4.375 0.015-0.010 0.028-0.022 0.043-0.032 0.556-0.403 1.096-0.83 1.649-1.238-16.21 7.748-34.22 12.099-53.211 12.099-70.718 0-128.045-59.863-128.045-133.713s57.327-133.713 128.045-133.713c70.718 0 128.045 59.868 128.045 133.713 0 13.638-1.966 26.793-5.601 39.188 1.706-3.421 3.328-6.892 4.866-10.409 0.882-2.016 1.736-4.049 2.561-6.096 0.079-0.194 0.157-0.386 0.234-0.58 2.611-6.518 4.938-13.183 6.961-19.982 6.258-21.035 9.635-43.332 9.635-66.433 0-126.964-101.602-229.891-226.934-229.891zM804.309 286.18c-12.647 0-24.938 1.53-36.724 4.38-17.796 84.942-56.059 156.533-98.762 237.369 27.541 46.69 77.906 77.959 135.485 77.959 32.514 0 62.73-9.973 87.835-27.062-9.669 3.76-20.126 5.825-31.049 5.827-49.155 0-89.003-41.627-89.003-92.979s39.847-92.979 89.003-92.979c49.157 0 89.004 41.63 89.004 92.979 0 7.121-0.792 14.045-2.243 20.707 9.111-20.211 14.194-42.677 14.194-66.348 0-88.285-70.623-159.854-157.741-159.854z"/>
</svg>