<svg xmlns="http://www.w3.org/2000/svg" viewBox="0 -64 1024 1000" style="transform: scaleY(-1);">
<path fill="currentColor" d="M805.203 331.981c54.205-25.792 87.461-58.366 87.461-94.203 0-82.693-172.725-149.429-385.991-149.429-213.263 0-385.991 66.735-385.991 149.429 0 35.837 33.256 68.416 87.461 94.205-102.764-33.298-169.087-83.736-169.087-139.687 0-100.168 209.289-181.916 467.617-181.911s467.617 81.745 467.617 181.911c0 55.949-66.323 106.389-169.087 139.685zM506.671 130.575c140.268 0 254.216 44.688 254.216 99.077 0 30.57-36.879 56.637-93.291 74.714 29.831-14.049 48.978-30.745 48.978-50.351 0-44.899-94.108-81.21-209.903-81.21s-209.903 36.311-209.903 81.21c0.002 19.608 19.149 36.303 48.978 50.353-56.41-18.076-93.291-44.146-93.291-74.715 0-54.389 113.948-99.077 254.216-99.077zM496.167 780.027c0.002-0.035 0.003-0.070 0.005-0.105 0.002 0.037 0.003 0.072 0.007 0.109l-0.012-0.003zM502.004 223.779c88.966 0 165.963 68.613 206.404 169.252-12.808-13.903-25.341-21.978-36.152-22.819-32.499-2.526-45.634 59.785-39.649 156.889-13.18-27.566-28.368-44.69-44.313-44.69-45.612 0-83.295 127.766-92.122 297.51-8.823-169.742-46.508-297.506-92.12-297.506-11.314 0-22.595 8.402-32.651 22.819 2.579-83.794-9.799-137.343-39.649-135.021-10.806 0.839-23.345 8.915-36.152 22.819 40.439-100.638 117.438-169.252 206.404-169.252zM542.992 871.796c0-26.869-21.782-48.651-48.651-48.651s-48.651 21.782-48.651 48.651c0 26.869 21.782 48.651 48.651 48.651s48.651-21.782 48.651-48.651z"/>
</svg>