<svg xmlns="http://www.w3.org/2000/svg" viewBox="0 -64 1024 1000" style="transform: scaleY(-1);">
<path fill="currentColor" d="M807.32 169.546c-30.996 3.564-57.098 29.791-60.938 48.74 26.002 5.195 45.929 32.778 45.929 65.631 0 36.568-25.023 66.56-55.316 66.56-2.936 0-9.387 1.456-12.198 0.929l-75.947 317.816v258.761l-102.174 0.025v-775.329l50.623 36.568c0 0 17.945-55.241 69.371-110.632s205.327-110.632 205.327-110.632v221.239c0 0-43.42-23.843-64.678-19.677zM357.338 817.376c-51.451 55.366-205.352 110.632-205.327 110.632v-221.239c0 0 43.42 23.843 64.678 19.677 30.996-3.564 57.098-29.791 60.938-48.74-26.002-5.195-45.929-32.778-45.929-65.631 0-36.568 25.023-66.56 55.316-66.56 2.936 0 9.387-1.456 12.198-0.929l75.947-317.816v-258.761h102.174v775.304l-50.623-36.568c0 0-17.945 55.241-69.371 110.632z"/>
</svg>