<svg xmlns="http://www.w3.org/2000/svg" viewBox="0 -64 1024 1000" style="transform: scaleY(-1);">
<path fill="currentColor" d="M680.107 494.831c-144.916-36.136-244.112-31.545-284.398 99.274-6.264 20.339-14.92 37.471-25.321 51.595l15.26-6.278c-9.579 46.768 5.398 81.8 39.586 107.632-41.186 8.724-81.945 13.396-117.387-32.614 10.809 26.892-1.451 75.749-25.679 89.848-14.987-52.172-40.998-74.285-74.063-78.699-47.057 25.761-23.427 176.697-23.427 176.697l-23.427 10.181c-26.592-94.842-2.898-157.962 12.564-186.002-24.696 3.835-51.93 13.69-80.545 25.981l39.232-72.92c-29.075 14.035-58.865 10.13-87.224 0.602 63.967-41.957 36.827-77.546-6.156-118.282 28.105 5.871 56.959 21.414 79.686 24.904-13.643-37.583-16.535-83.593-2.527-136.306 103.946-391.247 432.434-504.527 666.92-429.774 303.869 96.855 205.499 550.793-103.098 474.159z"/>
</svg>