<svg xmlns="http://www.w3.org/2000/svg" viewBox="0 -64 1024 1000" style="transform: scaleY(-1);">
<path fill="currentColor" d="M859.011 320.887l109.792 9.137-201.476 132.517 170.024 77.236-144.321 48.551 140.691 69.092-115.632 40.113 88.929 102.819-161.528-28.67 11.879 141.098-122.068-116.831-74.368 125.691-42.116-128.722-109.9 71.244 12.891-174.367-169.912 111.756 95.414 29.718-143.895 87.382-158.685 0.005v-126.522l193.553-92.041-117.337-34.893 257.49-155.997-189.555-6.455 147.551-94.079-205.146-83.47 167.695-49.573-133.337-156.157 192.839 50.463 22.358-196.065 129.946 153.182 94.611-151.961 36.615 145.443 94.955-49.411-21.085 233.644 168.963-102.363-100.736-14.508 199.301-138.455 2.011 164.715-126.411 106.733zM630.107 181.745l-259.881 69.634 129.876 484.701 61.833-16.569 9.381 35.011 136.2-36.495-9.381-35.010 61.846-16.573-129.874-484.699zM670.707 651.355l14.349 53.554-100.84 27.020-14.349-53.554-42.951 11.51-31.45-117.376 125.718-58.408-35.182-67.343 67.736-30.533 59.918 223.623zM529.715 438.717l-62.322 28.141 0.159 0.643h-0.224l-50.787-189.545 186.741-50.037 24.66 92.031-125.364 67.507z"/>
</svg>