<svg xmlns="http://www.w3.org/2000/svg" viewBox="0 -64 1024 1000" style="transform: scaleY(-1);">
<path fill="currentColor" d="M991.523 35.739v99.119l-623.045-33.535c1.732 9.914 2.643 20.111 2.643 30.521 0 0.394-0.012 0.787-0.015 1.181l620.414 117.281v101.456l-622.522-192.532c-1.741 11.15-4.53 21.952-8.26 32.305l630.781 331.647v130.606l-641.913-437.54c-5.018 9.169-10.833 17.839-17.343 25.926l659.252 592.37v101.456l-0.007-0.013h-80.46l-602.050-669.918c-8.070 6.859-16.762 13.008-25.986 18.34l444.957 651.573h-132.94l-336.166-639.983c-7.676 2.987-15.609 5.454-23.764 7.352l196.671 632.632h-95.623l-118.273-629.523c-6.882 0.892-13.892 1.376-21 1.45l33.157 628.076h-89.79l34.54-629.219c-7.577-0.867-15.006-2.213-22.259-4.012l-119.569 633.246v-302.027l104.156-335.802c-68.793-23.955-118.166-89.369-118.166-166.327 0-97.252 78.836-176.088 176.088-176.088 56.056 0 105.99 26.195 138.238 67.009l160.312-49.996h227.398l-373.429 71.018c4.961 8.576 9.219 17.608 12.697 27.018l631.273-35.068z"/>
</svg>