<svg xmlns="http://www.w3.org/2000/svg" viewBox="0 -64 1024 1000" style="transform: scaleY(-1);">
<path fill="currentColor" d="M995.844 160.779l0.012 234.516-178.644-6.513c4.44 26.415 5.544 52.754 3.598 78.546l95.038 55.182-106.19 23.794-13.913 24.097c-18.302 43.127-45.729 82.12-80.55 114.008l250.619 249.24-192.22 0.008-97.557-218.521c-11.152 7.442-22.837 14.241-35.018 20.335l-15.119 123.759-71.262-94.686c-53.291 10.066-106.433 6.478-155.548-8.478l-37.375 183.6-253.544-0.008 210.237-220.695c-16.356-10.4-31.804-22.249-46.133-35.429l-121.981 40.93 61.744-115.44c-14.688-24.947-26.302-52.259-34.16-81.584-9.254-34.537-12.604-69.259-10.709-103.115l-106.389-80.066 126.346-15.44c4.059-10.92 8.712-21.596 13.893-32.001l-180.622-76.82v-203.267l211.492 229.885c9.645-12.923 20.258-25.157 31.766-36.582l-48.962-115.152 131.179 55.78c14.982-7.591 30.715-14.121 47.139-19.441l-101.024-170.083 216.545-0.008-17.57 154.011c19.551-0.207 38.885 1.366 57.813 4.577l64.383-95.431 27.708 125.621c24.432 12.251 47.316 27.509 68.035 45.465l102.704-34.878-42.129 104.697c7.855 12.188 14.966 24.98 21.222 38.352l205.146-142.767zM503.619 300.163c-78.965 0-142.981 64.014-142.981 142.979s64.016 142.982 142.981 142.982 142.981-64.014 142.981-142.982c0-78.965-64.018-142.979-142.981-142.979z"/>
</svg>