<svg xmlns="http://www.w3.org/2000/svg" viewBox="0 -64 1024 1000" style="transform: scaleY(-1);">
<path fill="currentColor" d="M772.819 243.422c76.351 70.621 124.17 171.643 124.17 283.845 0.002 213.512-173.083 386.596-386.589 386.596s-386.589-173.089-386.589-386.596c0-112.211 47.826-213.238 124.185-283.858l-6.784-0.446c-52.466-90.528-10.275-163.067 49.591-232.57-14.236 58.46-23.594 118.228 14.249 189.306 7.378-4.636 14.919-9.036 22.622-13.175-22.872-84.189 3.212-154.352 54.25-213.842-8.2 54.080-10.537 114.31 16.025 184.631 6.585-2 13.245-3.82 19.974-5.472 3.553-72.041 26.283-139.185 56.105-204.524-2.671 63.528 1.876 127.942 18.222 193.798 6.017-0.279 12.066-0.438 18.153-0.438 6.159 0 12.28 0.16 18.369 0.444 16.347-65.86 20.896-130.275 18.223-193.807 29.83 65.356 52.563 132.517 56.108 204.578 6.72 1.654 13.374 3.478 19.952 5.477 26.587-70.345 24.25-130.594 16.048-184.689 51.058 59.514 77.141 129.709 54.22 213.942 7.694 4.141 15.225 8.541 22.595 13.177 37.906-71.125 28.547-130.922 14.304-189.41 59.868 69.505 102.059 142.044 49.591 232.57l-6.993 0.463zM269.512 461.646c0 133.082 107.888 240.967 240.971 240.967s240.971-107.882 240.971-240.967-107.888-240.972-240.971-240.972-240.971 107.886-240.971 240.972zM560.283 518.516c-40.265 0-72.908 32.643-72.908 72.909 0 11.307 2.576 22.012 7.17 31.562-67.699-12.609-118.956-71.984-118.956-143.337 0-80.534 65.285-145.817 145.817-145.817s145.817 65.284 145.817 145.817c-0.002 36.637-13.516 70.113-35.827 95.726-7.313-32.542-36.365-56.861-71.114-56.861zM514.070 392.034c-26.173 0-47.391 21.218-47.391 47.391s21.218 47.391 47.391 47.391c26.173 0 47.391-21.217 47.391-47.391s-21.218-47.391-47.391-47.391z"/>
</svg>