<svg xmlns="http://www.w3.org/2000/svg" viewBox="0 -64 1024 1000" style="transform: scaleY(-1);">
<path fill="currentColor" d="M92.225 921.661l0.003-0.002v0.002zM92.228 921.659c0-430.215 54.093-736.513 420.647-946.383 369.303 211.445 421.125 514.985 421.125 946.383-274.863-41.693-568.472-41.181-841.771 0zM516.609 694.592c89.15 0 161.418-72.43 161.418-161.775s-72.268-161.775-161.418-161.775c-89.15 0-161.418 72.43-161.418 161.775s72.268 161.775 161.418 161.775zM804.867 606.423c33.353-21.319 66.231-46.331 98.476-75.063-32.25-28.735-65.387-53.669-99.176-74.829 6.413 24.35 9.846 49.915 9.846 76.287 0 25.403-3.181 50.061-9.146 73.604zM228.265 606.428c-5.967-23.545-9.148-48.203-9.148-73.609 0-26.372 3.433-51.937 9.846-76.287-33.622 21.088-66.724 45.991-99.089 74.829 32.387 28.856 65.23 53.843 98.391 75.068zM589.657 532.87c0-40.444-32.714-73.23-73.068-73.23s-73.068 32.786-73.068 73.23c0 40.444 32.714 73.23 73.068 73.23s73.068-32.786 73.068-73.23z"/>
</svg>