<svg xmlns="http://www.w3.org/2000/svg" viewBox="0 -64 1024 1000" style="transform: scaleY(-1);">
<path fill="currentColor" d="M752.336 874.958c-233.22 134.648-531.434 54.741-666.083-178.477s-54.741-531.434 178.478-666.083 531.434-54.741 666.083 178.477 54.74 531.434-178.478 666.083zM870.221 240.781c-88.009-152.35-270.094-211.963-406.703-133.137s-176.001 266.225-87.987 418.582 270.094 211.963 406.703 133.137 175.999-266.225 87.987-418.582zM756.788 505.573c-71.73 41.296-167.348 10.066-213.562-69.751s-25.53-178.002 46.202-219.298c71.73-41.296 167.348-10.066 213.562 69.751s25.528 178.002-46.202 219.298zM621.222 357.661c-32.815 0-59.419 26.594-59.419 59.394s26.604 59.394 59.419 59.394 59.419-26.594 59.419-59.394c0-32.805-26.604-59.394-59.419-59.394z"/>
</svg>