<svg xmlns="http://www.w3.org/2000/svg" viewBox="0 -64 1024 1000" style="transform: scaleY(-1);">
<path fill="currentColor" d="M1004.197 608.943v0 0c-157.39 80.694-308.637 31.624-418.776-68.768-34.193 29.429-78.684 47.221-127.335 47.221-10.678 0-21.152-0.87-31.363-2.519-47.503 158.177-156.081 304.068-320.722 348.651v0.002c-152.847-294.286-102.631-556.657 120.423-592.562-71.909-63.784-109.429-146.734-106.317-233.798 121.577-38.112 208.874-8.254 263.676 58.802-106.314 35.935-167.812 148.797-138.355 258.73 18.721 69.869 69.868 122.362 132.901 145.71-68.102-30.508-115.55-98.874-115.55-178.325 0-107.864 87.444-195.308 195.308-195.308s195.308 87.439 195.308 195.308c0 47.403-16.893 90.857-44.981 124.684 49.531-52.356 71.548-128.419 51.527-203.141-29.197-108.96-137.213-175.747-246.264-155.464 7.228-97.101 61.5-176.893 179.693-201.599 44.403 68.509 54.441 150.65 27.838 252.9 195.075-127.372 363.116 53.266 382.994 399.477h-0.005z"/>
</svg>