<svg xmlns="http://www.w3.org/2000/svg" viewBox="0 -64 1024 1000" style="transform: scaleY(-1);">
<path fill="currentColor" d="M961.675 679.304l-10.774 21.104c-11.9 23.311-40.43 32.561-63.729 20.667l-189.405-96.713c-10.101-5.158-17.555-13.448-21.793-23.080-2.481-3.261-4.585-6.892-6.201-10.871l-46.446-114.266-16.453 23.472-99.895 171.348v192.927c0 26.171-21.203 47.388-47.363 47.388h-23.684c-26.157 0-47.363-21.215-47.363-47.39v-212.776c0-10.807 3.622-20.763 9.71-28.736 0.286-0.537 0.572-1.074 0.882-1.605l85.469-146.603-146.594-102.867 12.204 97.581c2.065 16.504-4.625 32.077-16.431 42.078l-132.499 163.756c-16.456 20.343-46.282 23.483-66.614 7.014l-18.405-14.912c-20.331-16.464-23.468-46.306-7.009-66.649l119.565-147.771-22.505-179.936c-1.141-9.129 0.403-17.97 4.001-25.747 1.27-6.132 3.778-12.114 7.601-17.567l81.587-116.398c0.663-0.944 1.362-1.844 2.078-2.726 4.024-11.743 12.613-21.902 24.74-27.573l192.658-90.092c0.492-0.229 0.989-0.437 1.484-0.649 15.79-10.759 37.215-11.277 53.804 0.323l174.309 121.893c21.44 14.994 26.676 44.539 11.689 65.991l-13.568 19.423c-14.987 21.452-44.516 26.689-65.956 11.696l-140.151-98.006-94.934 44.393 230.044 161.424c5.552 3.897 10.002 8.774 13.304 14.227 4.315 4.332 7.862 9.574 10.31 15.594l73.591 181.047 168.107 85.837c23.299 11.898 32.537 40.44 20.637 63.747zM271.969 88.024c0-66.274-53.72-120-119.987-120s-119.987 53.726-119.987 120c0 66.274 53.72 120 119.987 120s119.987-53.726 119.987-120z"/>
</svg>