<svg xmlns="http://www.w3.org/2000/svg" viewBox="0 -64 1024 1000" style="transform: scaleY(-1);">
<path fill="currentColor" d="M44.871 902.582c214.754-135.992 413.362-242.663 642.973-266.923 81.279-8.586 95.469-69.762 63.242-139.972-52.952-115.36 32.805-286.626 224.319-390.294-11.946-55.881-92.481-102.921-142.085-86.402-41.297 86.193-105.631 177.185-175.326 152.501-142.555-50.488-289.358-61.225-389.036-6.886 132.238 17.946 258.123 53.104 368.994 108.507-200.306-29.957-437.462-30.73-527.33 69.829 181.816-7.265 329.185 11.18 493.712 52.363-219.139 20.183-460.075 60.252-527.905 194.613 161.69-50.415 378.521-69.181 525.207-70.203-228.524 57.571-535.868 215.22-556.765 382.867v0z"/>
</svg>