<svg xmlns="http://www.w3.org/2000/svg" viewBox="0 -64 1024 1000" style="transform: scaleY(-1);">
<path fill="currentColor" d="M989.64 914.879c-0.003-0.002-0.005-0.005-0.008-0.007 0 0.002 0 0.002 0 0.003l-0.114-0.1c-90.289-77.026-174.464-145.754-230.064-190.543-36.809 27.319-80.251 46.195-127.469 53.791l-112.491 120.635 42.103-117.828c-2.467-0.195-4.926-0.423-7.377-0.68l-172.815 137.487 60.174-129.719-236.701 127.070 118.313-155.339-247.464 148.223 203.741-268.929-172.615 98.469 139.12-178.528-82.052 32.122 130.928-140.55c5.516-41.977 19.927-81.147 41.271-115.57l-14.264-12.679-56.094 63.252-116.074-102.948 64.293-72.497-97.564-86.531-21.207 8.406 4.793-22.964-72.26-64.088c-7.427-49.458 21.415-82.645 73.364-82.723l24.923 22.105 3.463-16.588 124.26 101.409-22.174 8.79 55.765 49.459 62.076-69.998 116.074 102.948-53.714 60.568 20.622 18.303c44.466-27.239 96.76-42.95 152.728-42.95 161.715 0 292.804 131.092 292.804 292.806 0 43.302-9.408 84.404-26.278 121.387l87.842 78.297c75.806 67.237 60.491 121.263 50.143 226.229z"/>
</svg>