<svg xmlns="http://www.w3.org/2000/svg" viewBox="0 -64 1024 1000" style="transform: scaleY(-1);">
<path fill="currentColor" d="M929.764 586.988c-84.895 147.486-248.067 221.334-406.391 199.226l-48.317 83.936-110.742-64.128c-36.587 64.126-127.485 187.019-239.863 74.642l11.693-18.375c0 0 98.398 125.636 207.286-68.361l-130.509-75.574 48.14-83.631c-98.758-126.512-116.813-305.58-31.751-453.355 111.756-194.151 359.157-260.742 552.582-148.734s259.63 360.204 147.872 554.353zM828.448 310.056c-1.941-125.463-66.552-204.055-148.792-237.621 17.096 26.155 27.274 58.949 27.274 94.557 0 85.49-58.624 154.793-130.943 154.793s-130.943-69.303-130.943-154.793c0-32.741 8.606-63.1 23.28-88.109-78.29 37.086-138.925 114.681-141.461 231.173-1.981 91.194 33.044 151.333 113.213 195.227-30.267-56.652-18.445-122.502 13.806-150.039-19.244 125.738 152.274 199.11 86.43 314.019h0.002c-0.025 0.043-0.052 0.087-0.077 0.13-0.743 1.295-1.522 2.594-2.327 3.899-0.137 0.222-0.271 0.443-0.409 0.665-0.854 1.368-1.734 2.741-2.654 4.121-0.058 0.087-0.12 0.175-0.179 0.262-0.849 1.265-1.731 2.536-2.636 3.81-0.207 0.292-0.414 0.585-0.625 0.877-0.976 1.355-1.974 2.713-3.017 4.079-0.097 0.127-0.199 0.254-0.297 0.381-0.945 1.233-1.923 2.471-2.923 3.713-0.289 0.359-0.58 0.718-0.874 1.077-1.101 1.348-2.223 2.699-3.391 4.059-0.119 0.139-0.244 0.277-0.364 0.416-1.067 1.238-2.168 2.481-3.293 3.728-0.362 0.403-0.727 0.805-1.096 1.208-1.193 1.306-2.407 2.616-3.662 3.934-0.067 0.070-0.129 0.14-0.197 0.21l-0.002 0.127c2.648-1.231 5.255-2.471 7.841-3.713 0.692-0.332 1.378-0.667 2.066-1.001 1.961-0.95 3.906-1.906 5.832-2.863 0.688-0.342 1.378-0.683 2.061-1.026 2.486-1.248 4.95-2.499 7.377-3.757 0.195-0.102 0.386-0.204 0.581-0.306 2.208-1.148 4.387-2.302 6.547-3.46 0.773-0.414 1.54-0.832 2.309-1.248 1.657-0.897 3.298-1.799 4.925-2.701 0.74-0.411 1.485-0.822 2.22-1.234 149.96-84.147 175.072-192.28 107.445-316.581 67.729 36.323 96.981 89.81 68.498 167.604 65.402-43.922 99.916-131.318 98.456-225.619z"/>
</svg>