<svg xmlns="http://www.w3.org/2000/svg" viewBox="0 -64 1024 1000" style="transform: scaleY(-1);">
<path fill="currentColor" d="M746.013 613.662c46.494 110.134 130.621-19.244 105.629-112.518-19.444-72.579-84.175-117.611-176.313-58.351l0.002 0.003c-211.764 136.2-156.573 202.882-263.845 314.147 36.755-155.341-72.25-56.868-170.627 68.533 28.348 16.96 60.092 28.884 94.211 34.921l220.269-148.443 41.1 86.039c5.766-3.723 11.533-7.592 17.294-11.65 119.704-84.279 106.244 114.825 142.314 155.929l-735.76 1.517 3.623-719.657c78.285-54.695 209.606 14.959 156.548 102.913-3.789 6.281-7.412 12.54-10.895 18.781l60.214 35.715-123.371 219.527c2.806 33.010 10.277 63.857 21.748 91.975 143.591-147.62 367.783-380.048 166.483-334.739 61.101-57.174 274.614-99.542 298.674-195.863 19.974-79.966-50.973-143.517-111.372-143.517-81.1 0-165.35 64.925-89.556 140.074-48.131-8.002-71.065-41.941-72.331-80.371s19.341-81.427 58.557-107.924h605.069v649.847c-14.114 118.729-241.943 168.205-237.665-6.887zM20.288 943.79v0 0.005z"/>
</svg>