<svg xmlns="http://www.w3.org/2000/svg" viewBox="0 -64 1024 1000" style="transform: scaleY(-1);">
<path fill="currentColor" d="M379.832-25.040c90.476 0.124 195.846 0.503 274.644 0.712 204.767 153.767 14.354 362.924-157.404 332.646 151.679-114.67 19.713-302.523-117.24-333.358zM743.835 762.452c0.022-1.448 0-2.892 0-4.347 157.668-371.136-272.446-377.62-238.071-22.931-83.238-200.6-265.33 4.273-181.868 182.252v0.003c-367.15-213.012 103.81-453.944-20.351-663.839-70.046-118.411-227.472 56.591-216.206 253.175-99.408-252.34-27.025-432.79 102.779-530.641 3.418-0.835 50.664-1.151 116.893-1.198-6.77 1.731-13.421 3.989-19.905 6.834-42.724 18.748-67.845 121.844 58.306 176.088-25.189-154.824 275.389-26.814 46.645 327.682l0.003 0.003c170.169-53.669 277.611-119.826 354.504-237.89 54.217 48.35 93.11 130.372 104.952 211.068 86.828-155.807 46.904-395.366-158.411-482.947 45.402 0.090 75.841 0.074 79.079-0.175 309.014 69.43 278.217 489.069-28.35 786.863z"/>
</svg>