<svg xmlns="http://www.w3.org/2000/svg" viewBox="0 -64 1024 1000" style="transform: scaleY(-1);">
<path fill="currentColor" d="M990.479 419.936c-132.567 227.106-262.167 303.784-389.955 288.751l-53.796 119.893-49.822-142.323-100.571 59.541-1.59-125.887-92.984-3.545 25.015-60.999c-34.941-32.429-69.807-68.668-104.623-107.475l-185.334 90.566 89.604-151.592-72.793-78.026 72.397-5.584-80.804-119.561 215.813 129.627 174.808-84.907-99.356-34.736 71.008-27.531-65.016-44.408 104.182-1.941-9.218-93.486 118.452 143.788c4.236 0.080 8.421 0.205 12.577 0.349 0.563 0.020 1.126 0.038 1.687 0.058 4.096 0.152 8.157 0.331 12.178 0.543 0.369 0.020 0.737 0.042 1.106 0.062 3.947 0.214 7.86 0.454 11.733 0.727 0.244 0.017 0.493 0.032 0.737 0.050 3.956 0.281 7.87 0.595 11.75 0.934 0.545 0.048 1.087 0.097 1.632 0.145 7.813 0.7 15.472 1.517 22.981 2.442 0.449 0.055 0.9 0.109 1.348 0.165 3.7 0.464 7.365 0.954 10.993 1.472 0.383 0.055 0.762 0.112 1.144 0.167 3.66 0.528 7.288 1.079 10.875 1.659 0.037 0.007 0.075 0.012 0.112 0.018 3.61 0.585 7.176 1.203 10.714 1.839 0.456 0.082 0.91 0.165 1.365 0.247 3.53 0.643 7.028 1.308 10.484 2.003 0.020 0.003 0.038 0.008 0.058 0.012 3.481 0.7 6.919 1.427 10.325 2.175 0.291 0.063 0.581 0.125 0.872 0.19 3.363 0.743 6.689 1.512 9.979 2.302 0.326 0.079 0.648 0.157 0.972 0.236 6.655 1.61 13.165 3.313 19.533 5.1 0.319 0.090 0.638 0.179 0.956 0.269 3.196 0.904 6.361 1.827 9.485 2.775 0.035 0.010 0.070 0.022 0.105 0.032 3.194 0.969 6.348 1.961 9.467 2.972 0.087 0.028 0.175 0.055 0.262 0.084 3.075 0.999 6.112 2.021 9.116 3.060 0.217 0.075 0.434 0.15 0.651 0.227 6.025 2.093 11.907 4.266 17.649 6.51 0.154 0.060 0.309 0.12 0.463 0.18 8.8 3.451 17.268 7.069 25.416 10.835 0.084 0.038 0.165 0.077 0.249 0.115 157.743 72.97 195.611 199.877 195.611 199.877h-0.003v0.003zM720.667 492.722c9.136 34.094 44.174 54.325 78.268 45.19 6.114-1.639 11.773-4.123 16.907-7.272-0.299 0.007-0.591 0.043-0.892 0.043-19.813 0-35.875-15.55-35.875-34.736 0-19.184 16.062-34.736 35.875-34.736 13.456 0 25.166 7.185 31.305 17.796 0.281-6.366-0.389-12.883-2.127-19.366-9.134-34.094-44.179-54.324-78.273-45.188-34.089 9.134-54.324 44.174-45.188 78.268z"/>
</svg>