<svg xmlns="http://www.w3.org/2000/svg" viewBox="0 -64 1024 1000" style="transform: scaleY(-1);">
<path fill="currentColor" d="M680.252 882.57c-48.766 15.178-114.855 8.172-136.434-39.644-31.331 41.653-95.574 27.914-110.206-19.67-14.632-47.578 26.883-98.788 89.217-96.944-6.146-67.85 88.462-109.197 163.259-78.131-0.945-38.551 16.599-83.57 60.638-89.791-12.766-36.164 6.202-83.961 57.139-83.961 62.842 0 75.925 72.514 41.981 106.118 18.915 20.749 25.625 50.248 22.159 78.131 34.51-24.165 69.066 13.023 67.424 40.1-3.027 49.857-40.664 71.817-67.424 48.517-17.57 55.141-74.363 63.909-104.952 32.651 2.694 14.827 0.399 26.165-10.492 38.483 45.138 11.383 37.764 75.275 9.345 93.655-34.749 22.471-70.8 7.352-81.644-29.514h-0.007zM862.093 334.262c-70.99 0-70.427 107.503 0 107.503s70.99-107.503 0-107.503zM951.286 544.33c-45.691 0-45.325 69.193 0 69.193s45.691-69.193 0-69.193zM866.266 843.177c-45.691 0-45.325 69.193 0 69.193s45.691-69.193 0-69.193zM354.763 741.379c-45.691 0-45.325 69.193 0 69.193s45.692-69.193 0-69.193zM476.24 656.301v-0.005l-109.605-189.848-302.436-172.623c-52.346-30.214-61.255-88.762-13.165-139.862 93.087-98.925 208.198-159.692 337.95-195.118 69.191-18.881 111.833 11.079 111.833 78.923l0.421 349.643 110.179 190.84-135.178 78.050zM371.218 40.333c-101.333 34.611-329.696 160.183-242.070 210.774l272.553 157.86-30.483-368.633zM506.88 640.003l-57.768-107.393z"/>
</svg>