<svg xmlns="http://www.w3.org/2000/svg" viewBox="0 -64 1024 1000" style="transform: scaleY(-1);">
<path fill="currentColor" d="M571.771 929.607l0.007-0.002-0.010 0.010zM856.308 699.882c96.316-156.567-39.704-232.794-76.965-171.424-76.068 125.287 140.179 304.639-207.565 401.147 71.368-72.659 72.191-189.062-3.79-225.181-82.566-39.246-198.586 11.232-145.485 149.392-148.089-90.186-178.178-239.604-127.106-383.654-60.486 46.949-180.458 134.804-95.623 234.391-113.811-22.658-143.462-119.539-83.961-180.752 98.294-101.119 25.994-237.388-55.974-93.291-48.801-245.79 306.948-300.834 310.19-461.791h37.014c-16.765 137.126-124.801 215.98-240.769 312.425l60.409 186.482c0.281-2.12 0.568-4.21 0.857-6.293 0.321 9.163 0.989 17.672 1.963 25.276 6.179-42.006 20.156-144.496 83.721-215.671 41.423 8.342 77.151 126.41 64.485 312.253l175.953 63.027c0.007 0.005 0.013 0.008 0.020 0.013l0.003-0.005-0.023-0.008c-128.695-87.596-156.004-234.717-78.776-308.603l89.3 207.493 170.722 44.65c-129.539-82.56-211.372-191.032-145.772-288.915l115.567 161.533 210.12-31.518c-250.132-43.479-313.907-203.559-346.698-351.95 6.199-35.113 21.374-72.403 40.461-110.189h27.321c-91.397 247.684 268.589 266.324 324.185 416.309 53.564 144.499 14.762 218.495-103.783 314.856z"/>
</svg>