<svg xmlns="http://www.w3.org/2000/svg" viewBox="0 -64 1024 1000" style="transform: scaleY(-1);">
<path fill="currentColor" d="M42.495 700.991l0.003-0.007 0.002 0.003zM642.27 788.942c71.573-51.546 7.913-79.099-71.605-69.717 66.764-36.981 107.654-86.29 56.313-131.147-50.871-44.448-125.352 39.219-135.253 113.363-15.606 116.863-27.073 178.513-180.827 171.957 77.903-61.219 75.073-132.739 34.42-184.679l277.872-277.872 12.774 62.362 45.178 15.821 133.923-347.457-347.948 133.397 16.364 45.724 70.728 14.495-293.736 293.734c-71.379-25.859-160.656-13.422-217.975 72.061-11.526-90.095 54.862-142.598 134.986-179.888 285.255-132.761 124.941-308.127-41.944-136.402 47.102-267.986 555.055-454.937 755.42-309.276 162.296 117.987 56.719 634.728-248.69 713.524z"/>
</svg>