<svg xmlns="http://www.w3.org/2000/svg" viewBox="0 -64 1024 1000" style="transform: scaleY(-1);">
<path fill="currentColor" d="M760.174 682.331c68.122-75.078 5.031-165.452-102.696-151.181-133.194 17.647-143.482 146.352-117.526 198.588 49.062 98.75-35.083 202.742-186.027 193.424 206.743-154.258-106.108-324.717-148.224 4.011l0.003 0.003c-31.229-29.905-60.212-123.573-23.841-188.57 148.141-264.758-5.252-395.912-78.86-185.095-55.862-178.973 13.681-394.746 202.096-503.571l111.893 111.893-34.375 34.89c-44.582 44.473-46.145 116.604-1.609 161.062l82.009 82.010-17.919 17.881 114.486 42.154-42.241-114.244-17.443 17.405-81.843-80.64c-24.93-24.885-25.020-63.622 0-88.585l35.432-35.434 147.144 147.144-27.384 27.324 151.373 55.737-55.854-151.051-31.064 30.997-147.53-146.838 37.405-37.405c25.009-24.898 63.623-24.908 88.585 0l88.512 88.51-17.563 17.525 114.489 42.158-42.24-114.247-18.26 18.22-87.897-89.208c-44.563-44.463-118.087-44.394-162.676 0l-37.208 37.764-99.861-99.393c66.343-28.891 144.75-45.686 235.024-45.686 500.571 0.003 476.751 621.805 171.69 702.449z"/>
</svg>