<svg xmlns="http://www.w3.org/2000/svg" viewBox="0 -64 1024 1000" style="transform: scaleY(-1);">
<path fill="currentColor" d="M898.008 158.808l-305.526 385.991v275.301c0 0 15.121 0.683 31.487 0.683l-0.003-0.003c16.367 0 29.151 26.636 29.151 39.812s-12.784 35.209-29.151 35.209h-232.062c-16.367 0-29.151-22.032-29.151-35.209s12.784-39.811 29.151-39.812l31.487-0.683v-268.303c-101.966-129.834-307.858-392.984-307.858-392.984-9.019-15.572-17.493-36.921-17.493-61.802 0-60.553 50.582-110.782 110.784-110.784h598.223c60.202 0 110.784 49.312 110.784 110.784 0 27.142-11.773 47.974-19.822 61.801zM806.93 22.504h-597.010c-40.41 0-74.364 33.79-74.364 74.525 0 16.74 5.688 31.103 11.74 41.578 0 0 245.145 315.524 313.595 402.87v168.223l94.186-3.501v-165.348l312.911-402.245c5.402-9.3 13.307-23.315 13.307-41.578-0.002-41.351-33.956-74.523-74.364-74.523zM401.822 820.631h193.578z"/>
</svg>