<svg xmlns="http://www.w3.org/2000/svg" viewBox="0 -64 1024 1000" style="transform: scaleY(-1);">
<path fill="currentColor" d="M620.192 760.876h0.002zM860.285 595.87l-54.028-54.028-40.217 40.217c-13.422 13.427-33.906 14.508-57.658 7.619l-42.233 42.233 41.503 41.503-87.461 87.461-41.503-41.503-42.4 42.402c7.021 23.918 5.878 44.157-7.621 57.655l-288.491 83.671 67.322-304.84c15.038-15.039 34.828-17.635 57.635-11.598l40.422-40.422-362.598-362.6v-174.92l450.061 450.061 40.255-40.255c-5.832-22.565-3.306-42.731 11.598-57.635l40.217-40.217-70.624-70.624 100.454-100.454 345.821 345.821-100.454 100.454z"/>
</svg>