<svg xmlns="http://www.w3.org/2000/svg" viewBox="0 -64 1024 1000" style="transform: scaleY(-1);">
<path fill="currentColor" d="M445.792 322.178c80.027 122.352-61.923 225.893-150.154 92.093h-0.002c-118.614 133.444-289.316 58.485-190.198-112.112-102.315-69.081-76.929-263.155 84.090-234.242 12.736-157.764 296.414-85.884 241.078 37.94 171.92 59.891 111.245 173.071 15.186 216.321zM297.616 144.064c-49.755 0-90.092 40.334-90.092 90.089s40.337 90.094 90.092 90.094 90.092-40.334 90.092-90.094c0-49.755-40.337-90.089-90.092-90.089zM875.637 525.837l-0.007-0.018c51.806 156.047-86.532 257.66-176.926 100.068-102.171 49.783-245.234-20.198-148.071-174.924-97.784-133.454 47.996-230.739 141.212-174.792 70.262-122.262 228.841-10.427 179.476 87.509 134.388-7.475 151.612 153.41 4.317 162.156zM774.319 369.19c-39.672-22.912-90.399-9.32-113.3 30.361s-9.306 90.423 30.368 113.335c39.672 22.912 90.403 9.321 113.303-30.359 22.901-39.679 9.306-90.421-30.371-113.337zM397.213 761.032c64.993 111.775-23.829 210.603-132.891 117.854-83.46 84.564-220.319 32.061-170.721-118.465-124.469-44.386-5.237-257.655 82.658-186.253 85.433-125.723 163.586-52.313 177.715 34.519 115.946-38.090 170.196 110.109 43.239 152.345zM276.014 650.981c-40.121-10.758-81.357 13.058-92.103 53.19s13.066 81.387 53.186 92.145c40.121 10.758 81.36-13.056 92.107-53.19 10.748-40.13-13.065-81.385-53.19-92.145zM720.985 115.983c43.507 59.604-46.244 122.571-62.855 24.999-47.702 61.245-116.161-9.179-40.985-53.582-94.948-48.612 5.302-113.684 43.805-54.863 8.486-98.77 121.305-36.283 58.136 21.601 80.169-13.155 80.014 64.233 1.899 61.846zM676.902 61.94c-12.509 0-22.65 10.141-22.65 22.652s10.141 22.648 22.65 22.648c12.509 0 22.65-10.141 22.65-22.648 0-12.512-10.141-22.652-22.65-22.652zM663.467 809.111c84.324 18.322 14.864 117.902-39.548 47.776-0.224 69.026-105.482 58.356-65.369-25.61h0.002c-68.271 1.417-42.532-93.592 8.703-66.897-26.733-82.521 81.349-95.499 66.934-9.781 64.462-40.623 93.612 24.202 29.278 54.513zM604.828 778.677c-12.509 0-22.65 10.141-22.65 22.652s10.141 22.648 22.65 22.648c12.509 0 22.65-10.141 22.65-22.648 0-12.51-10.141-22.652-22.65-22.652z"/>
</svg>