<svg xmlns="http://www.w3.org/2000/svg" viewBox="0 -64 1024 1000" style="transform: scaleY(-1);">
<path fill="currentColor" d="M980.698 575.121c-85.552 54.99-170.437 88.274-261.062 83.788-1.423 95.86-35.075 180.969-83.791 261.058-77.473-49.989-156.343-98.347-203.093-184.185-89.324 48.509-178.65 62.038-267.977 57.965-0.058-89.324 10.912-178.645 57.967-267.974-89.217-53.791-135.985-128.805-184.19-203.096 83.253-46.76 167.435-88.881 261.060-83.788 3.354-87.018 38.538-174.032 83.791-261.058 78.699 52.598 150.603 110.627 203.093 184.195 83.559-48.161 173.896-62.411 267.977-57.969v-0.008c4.203 96.388-9.584 187.374-57.967 267.982 80.659 42.933 140.42 112.734 184.191 203.089zM513.749 286.505c-93.304 0-168.942 75.641-168.942 168.945s75.639 168.945 168.942 168.945c93.304 0 168.942-75.641 168.942-168.945 0-93.308-75.639-168.945-168.942-168.945z"/>
</svg>