<svg xmlns="http://www.w3.org/2000/svg" viewBox="0 -64 1024 1000" style="transform: scaleY(-1);">
<path fill="currentColor" d="M858.498 830.244l-0.003-0.008c-20.689 17.792-44.376 32.925-70.233 45.751-206.846 102.584-498.32-5.611-651.421-241.626-1.888-2.915-3.324-6.097-5.153-9.019 0.907 0.795 1.675 1.791 2.579 2.578-80.376-113.786-70.253-272.533 31.572-374.358 108.93-108.932 283.047-113.109 397.556-13.531-9.336-13.133-19.8-26.245-31.574-38.013-113.814-113.814-298.559-113.814-412.373 0-35.566 35.568-60.115 77.333-73.452 122.424 5.843-130.993 69.819-245.12 187.502-303.482 206.848-102.584 499.608 5.613 652.707 241.626 133.965 206.512 117.12 443.113-27.706 567.658zM797.683 630.456c-7.352-119.288-137.311-252.906-290.365-298.647-1.888-0.563-3.784-0.86-5.661-1.392l1.918 0.964c-75.562-25.393-147.944 1.41-168.613 67.135-22.11 70.307 22.961 159.517 101.027 204.22-8.735-2.963-17.77-6.5-26.52-10.885-84.611-42.413-166.18-136.458-143.078-209.92 7.22-22.956 20.348-41.152 38.082-54.090-60.408 20.844-96.507 68.94-92.94 136.843 7.352 141.439 166.14 266.217 319.192 311.963 133.92 40.025 244.492-13.479 264.292-104.191l-0.002-0.007c2.828-12.961 3.59-27.083 2.668-41.994zM488.014 595.094c21.252-17.603 13.422-52.632-17.493-78.24s-73.205-32.091-94.455-14.49-13.422 52.632 17.493 78.24c30.915 25.607 73.205 32.091 94.455 14.49z"/>
</svg>