<svg xmlns="http://www.w3.org/2000/svg" viewBox="0 -64 1024 1000" style="transform: scaleY(-1);">
<path fill="currentColor" d="M684.785 158.739c-54.227 38.324-25.045 113.044 5.442 169.204 25.647 47.246 90.967 75.096 125.417 55.206 27.185-15.696 32.957-53.985 18.225-92.16 35.641 19.628 73.17 20.948 94.265-1.699 15.824-16.975 17.776-43.175 9.006-69.834 104.351 106.977 5.675 260.357-116.731 331.031h0.005c-7.477 4.317-15.083 8.264-22.779 11.847 6.769 76.792-42.323 174.374-165.678 257.42-1.443-13.908-3.418-27.483-5.954-40.704 24.561-20.179 47.188-45.302 66.6-76.842-24.888 18.143-50.228 29.911-76.416 36.745-3.154-10.43-6.735-20.594-10.778-30.471 17.734-8.633 35.050-19.403 51.673-32.785-22.697 2.412-44.388 3.341-65.486 3.48-7.876-14.62-16.974-28.483-27.349-41.56-83.594 10.684-167.107 3.017-249.562-22.012-38.651 73.097-150.227 137.908-283.772 158.478 17.649-21.738 32.862-44.024 45.27-66.959 46.875-11.551 95.25-32.526 143.843-67.896-43.421 12.916-82.256 14.951-118.834 8.843 5.898-19.197 9.794-38.864 11.493-59.053l56.751-16.167-56.17-21.972c-1.27-23.996-5.618-48.728-13.344-74.278 19.997-4.54 41.062-4.996 63.814-0.53-26.288-19.855-52.53-32.297-78.335-39.285-7.898-18.521-17.533-37.464-29.016-56.856 125.205 25.269 201.668 63.126 240.645 105.654 54.482-28.141 103.095-61.335 146.952-108.038l-108.409-56.17c51.74-38.107 117.618-56.582 175.799-49.561 16.008-33.157 39.355-66.692 70.011-102.116 76.147-87.985 174.341-104.216 214.556-8.334-30.69-22.51-84.753-21.283-111.155-2.628zM922.771 97.722l-3.528 73.18c-16.571-50.28-59.243-68.656-104.52-83.856l82.264-12.796c4.636-63.916 20.682-96.198 78.88-86.885 23.168 52.431 1.153 91.594-53.096 110.356z"/>
</svg>