<svg xmlns="http://www.w3.org/2000/svg" viewBox="0 -64 1024 1000" style="transform: scaleY(-1);">
<path fill="currentColor" d="M534.638 838.72c-13.411-33.987-46.852-52.633-74.692-41.648s-39.538 47.443-26.128 81.431 46.852 52.633 74.692 41.648 39.538-47.443 26.128-81.431zM678.167 785.267c-24.457-33.014-66.209-43.536-93.252-23.5s-29.14 63.040-4.682 96.054 66.209 43.536 93.252 23.5c27.045-20.034 29.141-63.039 4.682-96.054zM806.152 696.799c-31.687-30.685-77.754-34.517-102.889-8.56s-19.825 71.875 11.864 102.56 77.754 34.517 102.889 8.56 19.824-71.875-11.864-102.56zM924.988 510.369c-55.583-30.91-121.169-19.057-146.49 26.474s-0.788 107.5 54.795 138.41 121.169 19.057 146.49-26.474 0.788-107.5-54.795-138.41zM336.799 704.598c-121.874-109.033-240.595-265.771-280.35-517.274-46.442-293.786 315.457-240.687 279.629-83.771-45.771 200.447 68.134 281.752 215.633 247.902 65.568-15.049 132.868 9.792 171.721 80.747 46.726 85.328-14.805 213.273-125.516 278.784-86.307 51.071-184.751 61.931-261.113-6.385l-0.003-0.003z"/>
</svg>