<svg xmlns="http://www.w3.org/2000/svg" viewBox="0 -64 1024 1000" style="transform: scaleY(-1);">
<path fill="currentColor" d="M733.871 172.577h127.091v58.189c39.435 13.968 78.873 39.009 118.31 73.31-39.562 34.993-78.332 54.504-118.31 63.856v59.399h-466.406v-40.606h-177.566c31.939-77.495 102.326-130.671 177.566-148.345v-65.803h116.97c-27.8-70.080-80.057-125.917-139.53-174.092h511.531c-70.902 48.145-123.109 103.925-149.656 174.092zM475.368 461.868l98.423 44.313-42.61 140.473-111.452 109.498-63.882-28.762 33.705-111.135-355.031-159.819 25.049-55.643 355.052 159.828zM721.492 465.203l253.671 101.717-141.387 3.927 95.381 137.166-146.676-78.414 42.894 190.828-152.574-242.71-16.506 65.275-60.353-177.653 125.154 58.644z"/>
</svg>