<svg xmlns="http://www.w3.org/2000/svg" viewBox="0 -64 1024 1000" style="transform: scaleY(-1);">
<path fill="currentColor" d="M861.56 529.776l-122.431-48.23 28.677 83.044-44.431-23.195c-23.368 131.732-40.577 263.462-31.183 395.194-48.714-66.076-90.994-147.336-121.017-229.338h-157.173c-36.961 86.106-85.035 161.378-132.945 236.816 8.384-141.578 3.393-273.881-7.277-404.126l-47.214 24.648 28.677-83.044-122.431 48.23 105.84-107.989-82.379-5.576c61.001-39.079 136.87-64.689 181.129-118.941 55.488-79.19 86.385-158.986 89.352-310.661 45.447-21.237 101.986-20.089 142.947 0 9.709 155.284 29.923 225.237 85.157 308.020 43.925 56.074 121.258 81.875 183.241 121.582l-82.379 5.576 105.84 107.989zM430.833 267.733c5.526 80.801-30.249 127.537-103.638 144.757 32.801 38.122 69.288 33.633 105.47-3.947v-0.002c35.977-37.368 29.375-95.164-1.833-140.808zM565.709 267.733c-29.367 45.646-33.643 103.439 3.84 140.808l0.003 0.002c35.947 35.832 70.945 41.55 101.227 8.962l-1.39-6.455c-70.245-18.29-105.893-64.656-103.681-143.317z"/>
</svg>