<svg xmlns="http://www.w3.org/2000/svg" viewBox="0 -64 1024 1000" style="transform: scaleY(-1);">
<path fill="currentColor" d="M509.272 910.649c-252.502 0-457.193-204.693-457.193-457.187s204.698-457.187 457.193-457.187 457.187 204.685 457.187 457.187c0 252.494-204.686 457.187-457.187 457.187zM509.22 31.202c-233.302 0-422.431 189.131-422.431 422.431s189.129 422.431 422.431 422.431 422.431-189.131 422.431-422.431-189.129-422.431-422.431-422.431zM817.658 419.341l-125.138-33.53-49.336 43.056 24.502 24.502-22.867 22.867 48.39 42.228 123.084-32.332-84.626 65.893 96.512 84.222-120.439-41.212-14.418 108.972-33.602-125.402-62.536-21.399-9.214 34.387-33.618-9.007-12.422 63.249 92.053 92.053-101.86-42.114-24.591 125.225-24.695-125.745-99.021 40.197 89.22-90.104-12.256-62.411-32.302 8.655-9.094-33.942-60.648 20.752-33.568 125.28-14.403-108.865-120.326 41.172 96.492-84.205-84.735-65.979 123.244 32.374 47.032-41.044-23.767-23.767 25.401-25.401-47.976-41.869-125.301 33.573 87.092-66.916-96.254-83.998 121.624 41.616 14.739-106.135 33.511 122.646 58.485 20.012 8.453-31.549 32.317 8.66 12.228-62.269-89.207-90.090 99.007 40.19 24.708-125.82 24.606 125.301 101.845-42.108-92.040 92.040 12.393 63.105 33.632-9.012 8.573 31.995 60.371-20.659 33.546-122.773 14.754 106.245 121.741-41.657-96.273 84.015zM633.988 737.894l-0.005-0.005 0.005 0.002zM633.988 169.211l-0.005 0.002 0.005-0.005z"/>
</svg>