<svg xmlns="http://www.w3.org/2000/svg" viewBox="0 -64 1024 1000" style="transform: scaleY(-1);">
<path fill="currentColor" d="M936.564 581.132c-56.462-113.278-247.439-27.499-184.248 94.457 63.414 122.384-18.736 205.345-195.91 208.737 167.971-24.038 105.773-235.814 16.326-265.878-78.995-26.552-119.352 13.36-103.783 73.466 24.905 96.161-50.198 139.996-111.948 125.942 130.080-112.049-74.51-236.643-158.593-114.285-53.038 77.179-46.955 166.651 64.139 208.737h-0.005c-140.888-4.93-200.564-139.804-201.738-208.737-4.395-258.088 306.791-132.41 312.524-257.716 6.239-136.396-200.557-157.633-209.903 10.496-54.994-221.573 118.114-336.909 266.641-298.318l-1.579 0.91-0.002 273.844 237.155 136.92 237.152-136.922 0.002-273.844-237.155-136.92-185.554 107.131c-28.771-46.574-65.588-71.829-103.265-79.778 169.080-96.976 393.933-104.77 518.926 24.489 128.075 132.44 122.355 348.857 40.82 507.269zM766.989 292.15c0-58.034-47.047-105.081-105.081-105.081s-105.081 47.047-105.081 105.081 47.047 105.081 105.081 105.081 105.081-47.047 105.081-105.081z"/>
</svg>