<svg xmlns="http://www.w3.org/2000/svg" viewBox="0 -64 1024 1000" style="transform: scaleY(-1);">
<path fill="currentColor" d="M936.741 227.327l50.974-8.070-30.251 37.237 0.393 0.553h-0.842l-443.917 546.442-136.436-100.287-359.172 207.571v-67.325l369.664-213.712 113.114 82.795 323.016-398.817-507.269 80.463 16.326 142.268-314.851 182.224v-70.275l116.041-67.095 44.408-212.265 34.671 166.543 50.936-29.45-19.824-169.089 0.603-0.095 45.604-248.109 21.334 116.642 39.831-233.539 56.748 334.394 43.102-234.498 40.603 221.977 35.371-71.929 31.939 65.267 37.592-5.95 44.044-265.512 41.59 251.954 25.555-4.044 48.978-125.797 29.491 76.117 36.114-196.473 35.165 192.261 33.501-46.915z"/>
</svg>