<svg xmlns="http://www.w3.org/2000/svg" viewBox="0 -64 1024 1000" style="transform: scaleY(-1);">
<path fill="currentColor" d="M365.76 299.435l295.864 295.864zM661.624 299.435l-295.864 295.864zM654.252 587.86v305.528h-282.327v-305.528h-304.242v-282.327h304.242v-304.242h282.328v304.242h305.528v282.327h-305.53zM209.838 358.707c-48.97 0-88.667 39.695-88.667 88.664s39.695 88.664 88.667 88.664 88.667-39.695 88.667-88.664-39.697-88.664-88.667-88.664zM513.692 54.854c-48.968 0-88.664 39.695-88.664 88.667s39.695 88.667 88.664 88.667 88.664-39.695 88.664-88.667-39.694-88.667-88.664-88.667zM513.692 662.554c-48.968 0-88.664 39.695-88.664 88.667 0 48.97 39.695 88.665 88.664 88.665s88.664-39.695 88.664-88.665-39.694-88.667-88.664-88.667zM817.538 358.707c-48.97 0-88.667 39.695-88.667 88.664s39.695 88.664 88.667 88.664c48.97 0 88.667-39.695 88.667-88.664s-39.697-88.664-88.667-88.664z"/>
</svg>