<svg xmlns="http://www.w3.org/2000/svg" viewBox="0 -64 1024 1000" style="transform: scaleY(-1);">
<path fill="currentColor" d="M932.553 466.218l41.989 6.523-16.636 107.089-42.829-6.653c-10.531 35.122-25.617 68.755-44.847 99.986l34.101 27.448-67.952 84.424-34.417-27.701c-25.988 24.671-55.435 46.28-88.007 63.974l16.158 41.727-101.060 39.138-16.167-41.745c-36.061 8.864-72.445 12.711-108.334 11.947l-6.802 43.791-107.089-16.636 6.754-43.477c-35.147-10.135-68.852-24.807-100.205-43.629l-27.212 33.809-84.424-67.952 26.686-33.154c-25.263-26.013-47.386-55.625-65.554-88.423l-38.982 15.096-39.138-101.059 38.17-14.782c-9.343-36.709-13.484-73.78-12.824-110.345l-39.293-6.104 16.636-107.089 38.631 6c10.232-35.912 25.211-70.33 44.498-102.295l-30.117-24.242 67.952-84.424 29.651 23.866c26.616-25.73 56.961-48.2 90.632-66.505l-13.576-35.058 101.060-39.138 13.569 35.038c37.148-9.144 74.643-12.985 111.584-11.924l5.822-37.479 107.089 16.636-5.9 37.98c35.888 10.636 70.243 26.013 102.081 45.716l24.476-30.408 84.424 67.952-24.887 30.92c25.129 26.591 47.046 56.791 64.871 90.231l37.868-14.665 39.138 101.059-38.681 14.979c8.661 36.496 12.251 73.3 11.094 109.558zM514.965 98.814c-71.897 188.301-310.8 247.41-316.429 424.718-6.004 189.024 227.913 225.307 316.429 71.892 88.674 167.467 309.978 105.074 315.501-71.892 5.888-188.648-239.556-236.4-315.501-424.718z"/>
</svg>