<svg xmlns="http://www.w3.org/2000/svg" viewBox="0 -64 1024 1000" style="transform: scaleY(-1);">
<path fill="currentColor" d="M970.324 310.366l19.147 116.009-42.108 6.949c1.213 37.604-2.566 74.488-10.798 109.929l39.665 14.931-41.423 110.041-40.352-15.19c-17.747 32.17-39.579 61.965-64.905 88.607l28.311 34.499-90.894 74.587-29.375-35.797c-30.745 18.203-64.15 32.725-99.707 42.903l7.933 48.058-116.011 19.149-8.337-50.517c-35.934 0.197-71.137-4.146-104.969-12.564l-18.841 50.052-110.041-41.423 19.752-52.473c-29.973-17.147-57.81-37.86-82.854-61.676l-44.834 36.792-74.587-90.892 46.152-37.873c-17.046-28.806-30.872-59.938-40.913-92.994l-60.038 9.913-19.147-116.009 60.652-10.011c-0.748-34.4 2.658-68.177 9.841-100.763l-57.691-21.716 41.423-110.041 57.17 21.519c16.115-29.998 35.746-57.99 58.448-83.352l-37.855-46.13 90.894-74.587 36.654 44.668c28.725-18.205 59.933-33.129 93.172-44.206l-9.061-54.892 116.011-19.149 8.655 52.434c36.035-1.746 71.456 1.094 105.626 8.063l17.872-47.48 110.041 41.423-17.017 45.208c32.202 16.661 62.165 37.36 89.162 61.514l35.792-29.372 74.587 90.894-34.312 28.156c19.429 30.643 35.122 64.111 46.391 99.858l42.721-7.051zM829.525 259.813c-3.825-6.306-7.833-12.477-12.016-18.507-0.028-0.042-0.057-0.084-0.085-0.124-1.251-1.802-2.524-3.588-3.807-5.366-0.254-0.351-0.504-0.703-0.76-1.054-1.241-1.707-2.496-3.401-3.765-5.083-0.271-0.359-0.545-0.718-0.817-1.077-1.311-1.726-2.633-3.441-3.974-5.142-0.11-0.14-0.224-0.279-0.334-0.419-5.927-7.492-12.139-14.734-18.614-21.708-0.164-0.175-0.324-0.352-0.488-0.528-1.498-1.609-3.014-3.201-4.542-4.781-0.251-0.259-0.501-0.518-0.752-0.775-1.54-1.584-3.090-3.156-4.659-4.711-0.144-0.142-0.287-0.282-0.431-0.423-6.872-6.794-14.005-13.31-21.382-19.526v0c-18.784-15.829-39.136-29.741-60.732-41.49v0.002c-6.136-3.339-12.377-6.495-18.704-9.478-0.421-0.199-0.839-0.401-1.261-0.598-1.814-0.847-3.638-1.674-5.467-2.492-0.536-0.239-1.072-0.479-1.61-0.717-1.839-0.81-3.683-1.609-5.536-2.389-0.448-0.189-0.897-0.373-1.345-0.56-10.903-4.542-22.050-8.566-33.409-12.037-0.212-0.065-0.423-0.13-0.635-0.195-2.208-0.67-4.425-1.321-6.65-1.949-0.16-0.045-0.321-0.090-0.481-0.135-11.789-3.316-23.788-6.047-35.964-8.162v0c-23.114-4.014-46.852-5.807-70.947-5.188v0c-5.852 0.15-11.727 0.448-17.615 0.88-0.643 0.048-1.285 0.094-1.928 0.145-1.647 0.13-3.296 0.269-4.946 0.423-1.513 0.142-3.027 0.297-4.542 0.458-1.63 0.172-3.261 0.354-4.893 0.548-1.848 0.221-3.697 0.451-5.546 0.7-0.925 0.124-1.851 0.252-2.776 0.383-2.524 0.361-5.048 0.738-7.576 1.153-0.137 0.022-0.274 0.042-0.411 0.063-0.57 0.094-1.134 0.205-1.704 0.302-2.354 0.399-4.701 0.81-7.036 1.253-1.445 0.274-2.878 0.578-4.317 0.869-1.435 0.291-2.873 0.573-4.3 0.879-1.754 0.378-3.496 0.782-5.24 1.183-1.064 0.246-2.132 0.483-3.191 0.737-1.974 0.474-3.937 0.972-5.897 1.477-0.782 0.2-1.567 0.399-2.347 0.605-2.158 0.571-4.305 1.164-6.443 1.774-0.54 0.154-1.081 0.306-1.619 0.461-2.319 0.672-4.627 1.365-6.924 2.080-0.316 0.099-0.631 0.197-0.947 0.296-2.471 0.777-4.93 1.574-7.373 2.4-0.099 0.033-0.197 0.067-0.296 0.1-2.578 0.874-5.142 1.771-7.689 2.698v-0.002c-21.76 7.915-42.445 17.782-61.859 29.4l0.002 0.002c-0.388 0.232-0.767 0.473-1.153 0.707-1.911 1.154-3.814 2.319-5.7 3.506-0.939 0.591-1.868 1.196-2.8 1.796-1.356 0.872-2.713 1.746-4.056 2.634-1.034 0.685-2.061 1.378-3.089 2.073-1.211 0.819-2.419 1.644-3.618 2.477-1.082 0.752-2.163 1.507-3.237 2.27-1.109 0.788-2.208 1.587-3.308 2.385-1.121 0.817-2.245 1.629-3.356 2.457-0.966 0.72-1.919 1.455-2.878 2.183-4.667 3.553-9.244 7.21-13.721 10.975-0.511 0.429-1.026 0.854-1.533 1.286-1.46 1.241-2.903 2.499-4.342 3.762-0.501 0.439-1.002 0.879-1.502 1.321-1.485 1.318-2.958 2.648-4.42 3.987-0.369 0.339-0.735 0.678-1.103 1.019-1.587 1.468-3.166 2.945-4.726 4.442-0.015 0.015-0.032 0.030-0.047 0.045-8.835 8.476-17.226 17.381-25.146 26.676v0c-14.615 17.151-27.623 35.625-38.833 55.177v0c-4.752 8.289-9.178 16.775-13.27 25.431-0.149 0.314-0.299 0.628-0.448 0.944-0.914 1.948-1.811 3.906-2.691 5.87-0.155 0.347-0.309 0.697-0.464 1.044-0.899 2.023-1.784 4.054-2.646 6.096-0.038 0.090-0.075 0.182-0.114 0.272-3.74 8.875-7.133 17.914-10.165 27.097-0.050 0.15-0.1 0.299-0.15 0.448-0.708 2.153-1.393 4.313-2.061 6.481-0.087 0.284-0.175 0.57-0.262 0.854-0.665 2.178-1.313 4.363-1.938 6.558-0.035 0.125-0.070 0.252-0.105 0.378-2.671 9.421-4.971 18.978-6.879 28.654v0c-4.301 21.818-6.622 44.227-6.79 67.001-0.052 7.12 0.115 14.278 0.484 21.459 0.037 0.707 0.065 1.412 0.105 2.118 0.099 1.732 0.224 3.466 0.347 5.202 0.084 1.168 0.167 2.335 0.264 3.503 0.124 1.518 0.261 3.039 0.403 4.56 0.137 1.445 0.282 2.892 0.436 4.338 0.14 1.326 0.282 2.653 0.438 3.981 0.209 1.774 0.438 3.551 0.673 5.329 0.139 1.047 0.267 2.093 0.414 3.142 0.403 2.855 0.832 5.713 1.305 8.575 0.459 2.78 0.959 5.543 1.477 8.296 0.155 0.827 0.321 1.65 0.481 2.476 0.394 2.018 0.805 4.028 1.233 6.030 0.175 0.825 0.349 1.652 0.531 2.476 0.58 2.633 1.179 5.255 1.816 7.863 0.022 0.087 0.040 0.175 0.062 0.262 0.655 2.683 1.348 5.347 2.061 8.002 0.217 0.807 0.441 1.61 0.663 2.414 0.535 1.938 1.084 3.869 1.649 5.793 0.239 0.814 0.476 1.627 0.72 2.437 0.745 2.471 1.508 4.931 2.304 7.377 0.050 0.155 0.097 0.314 0.149 0.469 7.138 21.875 16.267 42.706 27.11 62.35v0c1.201 2.177 2.424 4.338 3.667 6.485 0.005 0.008 0.010 0.017 0.015 0.025 6.107 10.544 12.724 20.724 19.802 30.521 0.212 0.294 0.423 0.59 0.636 0.882 1.221 1.679 2.459 3.346 3.707 5.001 0.344 0.456 0.69 0.912 1.037 1.366 1.206 1.585 2.424 3.162 3.655 4.726 0.366 0.463 0.735 0.922 1.103 1.383 3.902 4.903 7.926 9.695 12.066 14.378 0.501 0.566 0.996 1.141 1.5 1.704 1.042 1.164 2.101 2.312 3.157 3.461 0.778 0.849 1.557 1.697 2.344 2.537 0.991 1.057 1.99 2.105 2.992 3.149 0.884 0.922 1.772 1.839 2.664 2.75 0.962 0.982 1.928 1.961 2.9 2.932 0.976 0.974 1.961 1.938 2.948 2.9 0.924 0.902 1.846 1.807 2.78 2.698 1.166 1.114 2.349 2.21 3.53 3.308 0.768 0.713 1.527 1.438 2.3 2.145v0c17.236 15.748 35.95 29.801 55.854 41.964v-0.002c3.396 2.075 6.836 4.081 10.298 6.044 0.984 0.558 1.964 1.121 2.953 1.669 1.346 0.747 2.701 1.477 4.056 2.205 0.976 0.526 1.953 1.051 2.933 1.567 1.402 0.738 2.808 1.465 4.22 2.185 0.912 0.464 1.826 0.924 2.741 1.381 1.492 0.745 2.985 1.485 4.487 2.21 0.747 0.359 1.497 0.71 2.245 1.064 8.075 3.825 16.299 7.363 24.661 10.592 0.351 0.135 0.7 0.274 1.051 0.408 2.015 0.77 4.038 1.522 6.067 2.257 0.352 0.127 0.705 0.256 1.057 0.381 2.113 0.758 4.233 1.5 6.361 2.22 0.107 0.037 0.215 0.072 0.322 0.109 11.616 3.912 23.468 7.248 35.514 9.978v0c23.303 5.28 47.331 8.289 71.802 8.82 2.636 0.057 5.279 0.082 7.925 0.082 0.222 0 0.443 0 0.665 0 2.481-0.005 4.966-0.038 7.455-0.094 0.436-0.010 0.87-0.020 1.306-0.032 2.312-0.060 4.627-0.142 6.946-0.247 0.662-0.030 1.323-0.065 1.986-0.099 2.13-0.107 4.261-0.231 6.395-0.376 0.905-0.062 1.811-0.135 2.718-0.204 1.926-0.145 3.852-0.297 5.782-0.474 1.198-0.11 2.397-0.239 3.597-0.362 1.669-0.17 3.338-0.336 5.010-0.528 1.635-0.19 3.274-0.408 4.911-0.62 1.27-0.164 2.539-0.314 3.81-0.491 2.943-0.413 5.89-0.857 8.84-1.345 2.699-0.446 5.382-0.932 8.058-1.435 0.845-0.159 1.689-0.322 2.532-0.486 1.933-0.378 3.857-0.773 5.778-1.181 1.395-0.297 2.786-0.6 4.175-0.912 1.654-0.371 3.304-0.75 4.95-1.143 1.575-0.378 3.146-0.767 4.712-1.164 0.665-0.169 1.328-0.341 1.993-0.513 5.693-1.478 11.327-3.079 16.895-4.809v0c24.285-7.552 47.336-17.512 68.919-29.581v0c1.861-1.041 3.707-2.105 5.546-3.177 0.453-0.264 0.909-0.526 1.361-0.792 1.736-1.021 3.458-2.058 5.173-3.107 0.526-0.321 1.051-0.645 1.574-0.969 1.714-1.061 3.421-2.132 5.115-3.219 0.416-0.267 0.827-0.538 1.241-0.807 7.798-5.050 15.377-10.385 22.722-15.99 0.282-0.215 0.568-0.429 0.852-0.646 1.654-1.27 3.293-2.556 4.921-3.852 0.403-0.321 0.807-0.641 1.208-0.964 1.615-1.296 3.219-2.604 4.811-3.926 0.329-0.274 0.656-0.551 0.986-0.825 9.041-7.567 17.69-15.555 25.922-23.931 0.244-0.249 0.491-0.496 0.735-0.747 1.512-1.547 3.009-3.105 4.49-4.679 0.239-0.254 0.478-0.509 0.717-0.765 1.532-1.632 3.050-3.276 4.55-4.936v0c17.027-18.845 32.061-39.413 44.812-61.368h-0.002c0.119-0.205 0.232-0.414 0.351-0.62 1.204-2.083 2.389-4.178 3.551-6.284 0.503-0.912 0.991-1.833 1.487-2.748 0.78-1.443 1.557-2.887 2.319-4.34 0.558-1.066 1.106-2.138 1.654-3.211 0.668-1.308 1.33-2.621 1.983-3.939 0.573-1.156 1.143-2.315 1.704-3.478 0.59-1.221 1.166-2.449 1.742-3.677 0.585-1.25 1.173-2.496 1.744-3.752 0.484-1.064 0.952-2.138 1.427-3.207 2.395-5.407 4.667-10.875 6.8-16.406 0.215-0.558 0.438-1.114 0.65-1.674 0.698-1.839 1.376-3.687 2.046-5.538 0.205-0.57 0.414-1.139 0.616-1.711 0.683-1.921 1.351-3.849 2.005-5.782 0.142-0.421 0.281-0.844 0.423-1.266 4.589-13.786 8.371-27.897 11.289-42.27v0c5.003-24.648 7.5-50.057 7.198-75.906v0c-0.003-0.322-0.017-0.645-0.020-0.967-0.035-2.389-0.095-4.781-0.177-7.176-0.032-0.944-0.074-1.888-0.114-2.831-0.079-1.881-0.174-3.764-0.281-5.648-0.053-0.929-0.104-1.859-0.165-2.788-0.169-2.588-0.359-5.177-0.585-7.771-0.030-0.352-0.065-0.707-0.097-1.059-0.226-2.507-0.479-5.018-0.758-7.53-0.099-0.897-0.207-1.794-0.314-2.691-0.234-1.976-0.483-3.954-0.748-5.932-0.117-0.869-0.231-1.736-0.354-2.604-0.388-2.735-0.797-5.472-1.25-8.212-0.005-0.028-0.008-0.055-0.013-0.084-0.008-0.055-0.020-0.11-0.028-0.165-0.463-2.798-0.964-5.581-1.488-8.352-0.204-1.074-0.424-2.142-0.638-3.212-0.341-1.722-0.688-3.441-1.052-5.152-0.284-1.33-0.581-2.653-0.879-3.976-0.314-1.398-0.636-2.793-0.966-4.185-0.356-1.5-0.72-2.997-1.094-4.487-0.282-1.126-0.576-2.248-0.869-3.369-0.441-1.689-0.884-3.379-1.348-5.057-0.187-0.677-0.384-1.346-0.575-2.021-1.964-6.944-4.113-13.8-6.461-20.548v0c-8.419-24.214-19.272-47.116-32.227-68.474zM572.673 770.061c-177.865 29.359-345.855-91.027-375.213-268.896-29.359-177.867 91.031-345.853 268.898-375.212s345.855 91.027 375.213 268.896-91.032 345.853-268.898 375.212zM676.548 392.966l-98.58 80.894-208.353-253.897-51.77 42.483 208.353 253.897-132.393 108.643 189.904 66.298 201.77-165.579-108.932-132.739z"/>
</svg>