<svg xmlns="http://www.w3.org/2000/svg" viewBox="0 -64 1024 1000" style="transform: scaleY(-1);">
<path fill="currentColor" d="M920.182 470.416c-26.704 67.744-81.793 53.4-52.56-20.731l3.932-9.973c-54.728-13.314-77.478 10.955-95.693 52.216 7.138 42.507 8.506 85.159 2.753 126.507-2.748 19.732 10.014 30.459 23.676 40.778 16.123 0.127 32.16 4.637 46.601 14.678 19.763-13.482 46.838-9.198 61.418 10.091 15.031 19.889 11.095 48.195-8.797 63.226-1.358 1.026-2.756 1.954-4.185 2.805 62.065 164.79 1.371 214.831-140.433 106.207-1.086 1.001-2.227 1.959-3.428 2.868-19.889 15.033-48.195 11.092-63.226-8.797-14.784-19.561-11.207-47.259 7.843-62.466-9.356-28.654-2.14-57.255 14.191-80.189-0.67-13.367-5.412-24.604-19.899-35.883-18.298-14.256-37.794-32.429-57.239-53.784-44.511 22.663-78.699 58.193-107.913 98.91l4.221 1.784c73.382 31.031 45.056 80.4-22.005 52.044-33.089 78.23-80.696 45.779-52.052-22.007-82.207-34.759-55.964-85.014 22.012-52.044l3.613 1.528c28.477-55.68 66.276-95.838 114.815-125.446-34.213-45.696-65.603-100.397-86.756-159.888-69.782 54.576-134.704 37.399-207.738-19.638l-1.169 1.848c-45.268 71.54-95.466 45.21-47.742-30.211h0.005c-62.183-39.343-41.57-93.167 30.211-47.747 38.929-61.537 90.351-37.13 47.745 30.205l-3.954 6.248c72.839 32.502 126.568 21.84 158.423-41.266-2.357-19.125-3.403-38.478-2.958-57.939-63.060-109.795-166.76-216.57-279.328-149.178-91.864 54.99-142.495 275.289-32.775 326.061-177.431-27.955-143.985-315.803-22.625-403.536 137.589-99.467 353.698-19.478 452.24 134.926 18.412 18.449 36.054 38.581 52.608 60.048 56.26-19.563 94.868-68.996 109.329-132.94l-3.707 0.232c-79.535 5.015-76.232-51.801-3.566-56.394-5.342-84.755 51.766-76.989 56.397-3.545 89.073-5.626 88.062 51.060 3.561 56.394l-6.869 0.431c4.642 95.12-42.064 159.752-104.973 210.886 21.86 38.033 40.098 78.447 53.427 119.84 29.552-34.572 73.048-40.324 131.446-22.196 31.164-76.747 84.357-59.935 51.863 22.466 68.448 27.005 58.279 83.726-20.742 52.568z"/>
</svg>