<svg xmlns="http://www.w3.org/2000/svg" viewBox="0 -64 1024 1000" style="transform: scaleY(-1);">
<path fill="currentColor" d="M375.449 365.4v-149.938l128.596-74.969 128.595 74.969v149.94l-128.596 74.967-128.595-74.969zM386.631 218.191l-0.535 138.688 120.617 68.516-120.082-207.204zM915.087 937.414l-61.223-0.003c-13.643-13.643-16.262-34.151-7.87-50.44l-54.416-42.375c-7.561 6.453-17.361 10.357-28.081 10.357-23.908 0-43.29-19.382-43.29-43.292 0-6.882 1.614-13.384 4.47-19.16l-53.544-41.695c-7.821 7.746-18.579 12.534-30.458 12.534-23.908 0-43.29-19.384-43.29-43.292 0-8.032 2.195-15.547 6.007-21.993l-51.442-40.058c-11.025 35.087-75.103 39.71-94.293 9.012l-50.345 37.696c1.809 4.769 2.808 9.938 2.808 15.342 0 23.908-19.382 43.292-43.29 43.292-9.809 0-18.855-3.267-26.115-8.768l-56.118 42.024c1.744 4.694 2.699 9.769 2.699 15.069 0 23.909-19.382 43.292-43.29 43.292-9.704 0-18.663-3.194-25.882-8.588l-59.937 44.879c5.947 15.48 2.694 33.692-9.782 46.169l-61.223-0.003c-16.893-16.893-16.893-44.321 0.003-61.218 15.96-15.96 41.307-16.837 58.31-2.648l59.006-44.182c-2.426-5.406-3.785-11.391-3.785-17.699 0-23.908 19.382-43.289 43.29-43.289 10.726 0 20.533 3.909 28.096 10.37l55.102-41.259c-2.35-5.335-3.667-11.231-3.667-17.435 0-23.908 19.382-43.289 43.29-43.289 10.623 0 20.345 3.832 27.877 10.18l57.521-43.070v-84.267l1.619 0.018-207.423-120.077-0.003-298.088 257.457-149.043 257.458 149.043 0.002 298.089-209.342 121.188 1.587 0.018v70.918l65.396 50.924c6.381-3.703 13.788-5.835 21.698-5.835 23.908 0 43.29 19.381 43.29 43.289 0 4.114-0.586 8.090-1.659 11.86l56.637 44.104c6.978-4.814 15.434-7.641 24.553-7.641 23.908 0 43.29 19.381 43.29 43.289 0 5.302-0.957 10.38-2.703 15.076l56.474 43.977c16.81-11.159 39.714-9.335 54.528 5.477 16.899 16.895 16.899 44.323 0.002 61.219zM666.682 195.366l-162.933-94.901-162.931 94.901 0.002 189.804 162.933 94.901 162.931-94.901-0.002-189.804z"/>
</svg>