<svg xmlns="http://www.w3.org/2000/svg" viewBox="0 -64 1024 1000" style="transform: scaleY(-1);">
<path fill="currentColor" d="M995.827 604.503c-59.14 220.982-275.053 355.273-481.965 299.76v-0.005c-206.9-55.505-543.395-338.029-484.263-558.995s424.255-395.683 631.16-340.177 394.208 378.436 335.069 599.418zM420.181 790.784c111.312 59.011 229.399 57.267 263.776-3.899 34.373-61.158-27.985-158.573-139.297-217.582s-229.399-57.267-263.776 3.899c-34.377 61.166 27.985 158.571 139.297 217.582zM117.757 473.784c0 41.653 33.767 75.415 75.415 75.415s75.415-33.764 75.415-75.415-33.764-75.415-75.415-75.415-75.415 33.764-75.415 75.415zM638.595 63.569c-110.276-29.586-271.818 15.434-393.166 98.812 272.878-124.019 639.22-23.864 686.872 426.609v-0.005c51.841-193.711-112.346-476.761-293.706-525.416z"/>
</svg>