<svg xmlns="http://www.w3.org/2000/svg" viewBox="0 -64 1024 1000" style="transform: scaleY(-1);">
<path fill="currentColor" d="M610.894 803.797c73.334 56.425 105.21-62.347 61.732-94.318-56.858-41.81-122.758 47.365-61.732 94.318zM552.755 907.978c66.759-16.479 31.934-87.488-6.986-77.057-50.896 13.638-48.567 90.77 6.986 77.057zM933.983 853.192v0.008c-11.632-0.463-21.457-3.74-26.661-8.117-74.154-62.359 63.832-174.678 46.369-264.299-20.966-107.578-106.484-65.934-159.971-6.956-190.487 210.064-7.581-0.262-38.252-148.376-20.868-100.761-158.207-38.695-223.726-3.478-91.31 49.075-189.65 157.922-290.958 141.421-102.467-16.693-82.156-114.158-16.229-98.533 89.871 21.3 172.647 2.25 180.834-119.397 6.505-96.645-54.982-177.409-167.016-117.982-26.691 14.157-53.255 27.524-95.055-4.639-51.581-39.687-42.833-98.623-9.789-131.734 69.876-47.299 185.648-42.35 287.153-19.498-85.739-57.549-246.685-76.863-334.37-13.001-22.673-6.101-44.299-5.546-56.502-7.587v-81.145h696.378c108.574 44.261 166.864 145.274 196.964 246.994 31.096-62.618-0.692-166.486-70.823-246.994h137.295v850.855c-12.495 26.063-36.256 33.231-55.64 32.457zM608.45 160.754c-96.959-134.535-227.154 33.513-78.445 141.584v0.005c78.965 57.384 305.311 56.888 302.902-73.287-2.090-113.046-173.779 2.016-224.456-68.302zM905.47 361.040c-79.682-33.214-139.107 74.060-53.086 111.915 103.369 45.487 114.016-86.515 53.086-111.915z"/>
</svg>