<svg xmlns="http://www.w3.org/2000/svg" viewBox="0 -64 1024 1000" style="transform: scaleY(-1);">
<path fill="currentColor" d="M471.18 126.382l518.117-157.405-157.395 518.122c-168.275-315.262-174.843-16.212-271.375 55.628-4.996 9.864-11.59 19.125-19.834 27.369-39.437 39.437-101.949 41.697-144.048 6.811l-11.715 11.658c4.704 7.41 7.44 16.192 7.44 25.62 0 26.444-21.436 47.881-47.879 47.881-9.51 0-18.364-2.785-25.814-7.564l-51.801 51.552c4.839 7.482 7.661 16.391 7.661 25.964 0 26.444-21.436 47.881-47.879 47.881-9.657 0-18.639-2.868-26.16-7.786l-52.675 52.423c4.978 7.552 7.883 16.591 7.883 26.312 0 26.444-21.436 47.881-47.879 47.881-9.804 0-18.916-2.952-26.507-8.008l-37.851 37.669-14.141-14.209 37.995-37.813c-4.666-7.389-7.375-16.137-7.375-25.521 0-26.444 21.432-47.881 47.879-47.881 9.467 0 18.285 2.76 25.715 7.502l52.835-52.581c-4.801-7.462-7.599-16.336-7.599-25.867 0-26.444 21.432-47.881 47.879-47.881 9.615 0 18.561 2.845 26.063 7.724l51.711-51.464c-4.938-7.532-7.819-16.534-7.819-26.213 0-26.444 21.432-47.881 47.879-47.881 9.762 0 18.836 2.928 26.407 7.946l11.561-11.506c-35.015-42.101-32.798-104.714 6.685-144.195 7.5-7.5 15.844-13.633 24.716-18.445 68.673-98.788 375.116-104.091 57.319-273.722zM458.802 541.909c0-0.002-0.002-0.002 0 0 0.875 0.1 1.759 0.177 2.649 0.234 0.037 0.002 0.075 0.007 0.112 0.008 0.912 0.055 1.831 0.085 2.758 0.085 4.131 0 8.142-0.523 11.966-1.507 6.884-1.771 13.17-5.035 18.49-9.426 0.591-0.488 1.171-0.989 1.737-1.505 1.134-1.031 2.218-2.115 3.247-3.249 0.515-0.566 1.017-1.146 1.505-1.737 6.831-8.277 10.933-18.888 10.933-30.456 0-9.278-2.646-17.933-7.213-25.268l-66.127 65.81c5.903 3.715 12.674 6.176 19.942 7.011zM491.081 454.645c-1.271-0.859-2.584-1.657-3.939-2.392-1.356-0.737-2.753-1.41-4.185-2.016-5.728-2.422-12.026-3.764-18.636-3.764-4.96 0-9.741 0.753-14.239 2.153-6.747 2.098-12.854 5.65-17.956 10.287-0.566 0.515-1.121 1.044-1.662 1.585-8.665 8.665-14.022 20.635-14.022 33.857 0 0.005 0 0.010 0 0.013 0 0.957 0.033 1.908 0.092 2.851 0.003 0.063 0.010 0.127 0.015 0.19 0.062 0.917 0.144 1.827 0.254 2.731 0.919 7.621 3.618 14.692 7.684 20.777l66.593-66.274zM604.489 353.318c106.289-77.401 185.884-57.651 207.677 9.206v0.005l94.986-311.891-311.887 94.995c66.866 21.806 86.621 101.403 9.224 207.685z"/>
</svg>