<svg xmlns="http://www.w3.org/2000/svg" viewBox="0 -64 1024 1000" style="transform: scaleY(-1);">
<path fill="currentColor" d="M726.288 108.394c-26.036 49.458-53.704 99.684-83.343 149.521 50.567 179.893 129.493 385.592 312.911 638.745-182.661-121.542-318.549-304.806-411.845-486.328-116.211 162.794-259.526 307.088-443.748 386.918 144.486-163.155 284.779-361.698 375.718-536.609-20.54-51.594-37.507-101.501-51.003-148.139-23.136 170.189-149.572 342.419-279.215 347.427 136.56-137.117 226.040-353.031 149.863-469.411h100.292c-0.79-4.377-1.549-8.707-2.253-12.96h178.014c1.291 4.788 2.568 9.594 3.835 14.408 0.683-4.704 1.301-9.358 1.777-13.902h215.354c-1.933 3.894-3.879 7.806-5.83 11.723h89.419c-47.259 133.748-21.614 303.901 22.969 498.872-101.809-91.767-153.037-228.18-172.916-380.265zM84.187 295.297c99.234-151.482 115.508-233.883 76.641-304.313l126.34 0.002c-24.519 134.797-58.876 217.673-202.981 304.312z"/>
</svg>