<svg xmlns="http://www.w3.org/2000/svg" viewBox="0 -64 1024 1000" style="transform: scaleY(-1);">
<path fill="currentColor" d="M35.942-26.376l72.582 659.722c13.434-214.89 8.159-462.883 70.997-590.375 22.373 169.575 31.363 335.812 21.090 497.208 30.401-143.146 70.97-282.898 78.808-433.571 14.765 111.688 25.293 222.676 63.493 338.267-1.515-130.167-34.265-249.393 25.313-314.426 28.817 101.854 57.887 203.467 62.813 329.222 42.47-123.521 36.627-271.196 49.817-409.371 16.807 135.898 30.51 514.838 93.662 635.303-6.207-249.552-7.711-447.149 54.706-547.566 61.694 77.219 67.023 228.507 68.448 372.073 43.553-123.296 72.796-263.769 75.591-435.968 17.224 143.676 37.273 287.35 86.639 431.015-11.478-176.292-2.564-313.387 38.987-387.707 27.473 110.919 50.924 221.837 58.144 332.777 36.78-165.29 25.957-318.659 33.358-476.601h-954.447z"/>
</svg>