<svg xmlns="http://www.w3.org/2000/svg" viewBox="0 -64 1024 1000" style="transform: scaleY(-1);">
<path fill="currentColor" d="M761.014 706.486l32.098-8.601 38.458 143.524-338.166 90.611-14.244-53.159c-193.775-1.365-342.253-254.66-398.378-464.123l22.715-114.718c95.441 284.582 229.899 453.44 356 487.255l47.567-12.746c-122.339-37.103-233.803-160.486-278.465-327.167-44.971-167.836-9.345-331.53 79.388-424.507l76.87-20.597c1.482-4.053 3.045-7.946 4.689-11.675l2.604 9.72 71.192-19.077-2.604-9.72c3.289 2.405 6.59 4.998 9.899 7.766l86.945-23.296c123.334 36.154 236.035 160.105 281.005 327.941 44.663 166.683 9.822 329.269-77.573 422.57z"/>
</svg>