<svg xmlns="http://www.w3.org/2000/svg" viewBox="0 -64 1024 1000" style="transform: scaleY(-1);">
<path fill="currentColor" d="M534.695 927.105l-128.241-100.93 150.844-319.186 159.647 384.775-182.25 35.341zM57.521 275.829l32.958 89.168 310.325-6.638-343.284-82.53zM617.997 494.022l287.961 269.576-51.638 80.128-122.867-60.541-113.457-289.162zM281.136 923.183l224.094-445.353-314.142 427.085 90.049 18.268zM59.689 662.809l-22.665-117.098 389.782-117.062-202.172 163.646-26.442-61.697-138.502 132.211zM88.308 903.53l362.441-433.942-415.076 360.371 52.635 73.571zM962.61 753.932l-127.815-166.057 148.231 76.631-20.417 89.425zM39.662 491.118l209.728-75.97-207.934-3.628-1.796 79.595 0.002 0.003zM813.629 524.194l53.497-124.824-32.651-127.106-67.636 3.496-92.011-99.34 66.356-70.915-211.068-5.828-23.323 30.319-120.114 44.313-36.151-31.488-95.199 119.803-234.658-109.941v-195.442h982.373v655.697z"/>
</svg>