<svg xmlns="http://www.w3.org/2000/svg" viewBox="0 -64 1024 1000" style="transform: scaleY(-1);">
<path fill="currentColor" d="M632.236 230.842l-18.629-250.061h292.602l-57.307 185.374h-78.584v376.692l122.113 151.378v221.881h-128.636v-104.655h-78.302v104.655h-130.035v-104.655h-76.9v104.655h-130.035v-104.655h-76.9v104.655h-128.65v-221.879l122.113-151.378v-376.693h-78.577l-57.306-185.374h301.707l-16.479 250.061h-79.344c-13.932 74.099-10.975 152.077 10.888 212.371 0.58 1.6 1.169 3.191 1.776 4.764 0.003 0.010 0.008 0.022 0.013 0.032 4.545 11.789 9.844 22.85 15.903 33.029 0.139 0.234 0.274 0.473 0.414 0.705 0.68 1.129 1.375 2.24 2.073 3.348 0.236 0.373 0.464 0.752 0.702 1.123 0.65 1.014 1.315 2.008 1.981 3.002 0.299 0.446 0.593 0.899 0.895 1.341 0.636 0.93 1.286 1.844 1.936 2.756 0.347 0.488 0.692 0.981 1.042 1.463 0.626 0.86 1.268 1.706 1.908 2.549 0.393 0.516 0.782 1.037 1.178 1.547 0.625 0.803 1.261 1.59 1.898 2.377 0.428 0.528 0.854 1.059 1.286 1.58 0.626 0.753 1.265 1.493 1.903 2.232 0.463 0.535 0.924 1.071 1.392 1.597 0.628 0.705 1.265 1.398 1.903 2.090 0.496 0.536 0.992 1.072 1.495 1.6 0.631 0.662 1.27 1.313 1.911 1.961 0.528 0.533 1.056 1.062 1.59 1.585 0.638 0.623 1.281 1.236 1.929 1.844 0.555 0.523 1.113 1.041 1.675 1.552 0.645 0.586 1.296 1.164 1.951 1.737 0.585 0.511 1.173 1.016 1.764 1.515 0.651 0.55 1.306 1.092 1.968 1.627 0.613 0.498 1.231 0.987 1.854 1.472 0.658 0.513 1.32 1.022 1.986 1.522 0.643 0.483 1.293 0.956 1.944 1.425 0.663 0.478 1.33 0.952 2.001 1.415 0.672 0.464 1.351 0.917 2.033 1.368 0.672 0.444 1.345 0.887 2.025 1.318 0.7 0.443 1.408 0.874 2.116 1.301 0.68 0.411 1.36 0.824 2.048 1.221 0.728 0.421 1.467 0.829 2.207 1.234 0.685 0.378 1.37 0.757 2.065 1.121 0.762 0.399 1.532 0.783 2.304 1.166 0.69 0.344 1.378 0.692 2.075 1.022 0.797 0.378 1.605 0.737 2.412 1.098 0.688 0.307 1.375 0.621 2.071 0.917 0.837 0.356 1.687 0.688 2.534 1.026 0.687 0.272 1.368 0.553 2.063 0.815 0.879 0.331 1.771 0.636 2.661 0.947 0.682 0.239 1.356 0.486 2.045 0.713 0.934 0.307 1.884 0.59 2.831 0.875 0.66 0.2 1.313 0.411 1.98 0.601 1.011 0.287 2.040 0.545 3.064 0.809 0.621 0.159 1.234 0.332 1.863 0.483 1.161 0.279 2.34 0.525 3.52 0.772 0.506 0.105 1.002 0.227 1.512 0.327 1.699 0.334 3.414 0.638 5.15 0.907-9.106 11.424-16.586 25.069-21.796 40.252h-0.003c-5.225 15.228-8.167 32.005-8.167 49.645 0 69.572 44.283 125.715 98.668 125.715 3.401 0 6.921 0.525 10.232 0h0.005c49.663-6.45 88.435-60.484 88.435-125.715 0-17.69-2.983-34.443-8.252-49.645v0c-3.408-9.832-7.774-19.013-12.919-27.371-0.037-0.060-0.070-0.122-0.107-0.182-0.957-1.549-1.946-3.060-2.957-4.55-0.089-0.13-0.17-0.267-0.259-0.396-1.016-1.488-2.065-2.94-3.13-4.368-0.085-0.114-0.165-0.236-0.252-0.349-1.156-1.535-2.34-3.035-3.551-4.497 0 0 0 0 0.002 0 0 0 0-0.002-0.002-0.002 0.282-0.053 0.561-0.12 0.844-0.175 1.239-0.242 2.474-0.494 3.698-0.775 0.606-0.139 1.204-0.297 1.807-0.446 0.905-0.222 1.809-0.441 2.706-0.683 0.658-0.179 1.31-0.373 1.963-0.561 0.829-0.239 1.655-0.478 2.476-0.735 0.673-0.21 1.34-0.434 2.006-0.656 0.792-0.262 1.58-0.53 2.364-0.809 0.672-0.239 1.338-0.488 2.005-0.738 0.768-0.289 1.535-0.586 2.297-0.892 0.663-0.266 1.323-0.536 1.981-0.814 0.757-0.319 1.507-0.648 2.255-0.982 0.648-0.289 1.296-0.58 1.939-0.88 0.748-0.351 1.49-0.713 2.232-1.079 0.63-0.311 1.263-0.618 1.888-0.939 0.75-0.386 1.492-0.79 2.233-1.191 0.603-0.326 1.208-0.643 1.806-0.979 0.803-0.451 1.595-0.925 2.389-1.395 0.523-0.309 1.051-0.606 1.569-0.924 1.265-0.773 2.517-1.57 3.759-2.39 0.56-0.369 1.108-0.758 1.66-1.138 0.713-0.488 1.428-0.971 2.133-1.472 0.605-0.431 1.199-0.879 1.797-1.321 0.641-0.473 1.285-0.944 1.919-1.43 0.611-0.469 1.216-0.95 1.821-1.432 0.608-0.483 1.216-0.966 1.817-1.458 0.61-0.501 1.213-1.011 1.816-1.523 0.583-0.496 1.164-0.994 1.741-1.5 0.605-0.531 1.204-1.067 1.802-1.61 0.561-0.509 1.119-1.026 1.675-1.547 0.596-0.56 1.191-1.121 1.781-1.692 0.541-0.525 1.077-1.057 1.614-1.592 0.59-0.588 1.179-1.178 1.762-1.777 0.518-0.533 1.027-1.077 1.539-1.62 0.586-0.621 1.174-1.239 1.752-1.874 0.486-0.533 0.962-1.079 1.443-1.62 0.59-0.665 1.184-1.323 1.766-2 0.378-0.438 0.743-0.89 1.118-1.335 1.285-1.527 2.551-3.084 3.794-4.671 0.352-0.449 0.712-0.892 1.061-1.346 0.588-0.765 1.164-1.549 1.742-2.329 0.404-0.545 0.812-1.082 1.211-1.632 0.56-0.772 1.109-1.559 1.66-2.342 0.404-0.575 0.809-1.148 1.208-1.729 0.541-0.79 1.076-1.592 1.609-2.394 0.393-0.591 0.785-1.184 1.174-1.782 0.526-0.814 1.047-1.634 1.565-2.459 0.379-0.603 0.757-1.209 1.129-1.821 0.515-0.839 1.026-1.682 1.53-2.534 0.361-0.608 0.718-1.221 1.074-1.836 0.504-0.87 1.007-1.744 1.503-2.626 0.337-0.603 0.67-1.213 1.004-1.821 0.499-0.912 1.001-1.822 1.49-2.746 0.301-0.568 0.595-1.143 0.892-1.716 0.509-0.981 1.021-1.959 1.518-2.953 0.209-0.416 0.409-0.84 0.616-1.258 1.298-2.631 2.564-5.297 3.784-8.015l0.002 0.002c27.030-60.264 34.382-141.506 17.72-221.752h-82.994z"/>
</svg>