<svg xmlns="http://www.w3.org/2000/svg" viewBox="0 -64 1024 1000" style="transform: scaleY(-1);">
<path fill="currentColor" d="M318.23 898.674v-188.067l409.831 101.959v86.11c0-0.002-409.831-0.002-409.831-0.002zM728.061 776.25l-409.831-101.959v-89.978l409.831 103.143v88.794zM760.321 898.528h55.473v-895.444h-55.473v895.444zM228.106 898.528h55.473v-895.444h-55.473v895.444zM318.23 217.787v-90.291h135.216c7.629 35.1 37.004 61.275 72.069 61.275s64.377-26.178 72.007-61.275h130.537v88.293l-409.831 1.998zM318.23 92.243v-87.606h409.831v87.606h-130.287c-7.323-35.546-36.897-62.148-72.256-62.148s-64.931 26.606-72.256 62.148h-135.031z"/>
</svg>