<svg xmlns="http://www.w3.org/2000/svg" viewBox="0 -64 1024 1000" style="transform: scaleY(-1);">
<path fill="currentColor" d="M836.052 382.69c113.215 144.678 175.876 331.088 166.125 537.42l-0.005-0.003c-137.921-152.207-415.572-109.812-529.49 4.118l-149.242-65.003 96.393-96.39-120.010-119.723-96.246 96.243-56.071-140.306c17.194-17.193 32.775-38.105 46.366-61.635l-153.978-153.608v-177.252l202.196 201.786c24.626-117.75 6.269-250.715-81.546-329.858 184.891-5.743 353.201 43.798 489.951 133.609l181.92-11.196 3.637 181.799zM388.492 554.441l119.988 119.745 43.551-43.549c33.074-33.062 33.074-86.799-0.003-119.875s-86.794-33.067-119.863 0.008l-43.673 43.671z"/>
</svg>