<svg xmlns="http://www.w3.org/2000/svg" viewBox="0 -64 1024 1000" style="transform: scaleY(-1);">
<path fill="currentColor" d="M936.375 322.088l-45.89-26.495-64.139 111.091 80.224 46.319-58.201 100.806-80.224-46.319-65.407 113.288 45.89 26.495-62.979 109.080-16.222-9.365c-74.451 126.366-158.441 174.321-203.828 188.516h-85.395c105.216-37.759 182.095-110.263 237.636-218.297l-15.216-8.785c-96.249 111.698-222.303 194.924-359.797 227.082h-204.050c173.412-27.675 321.336-132.794 426.148-306.584l-3.012-1.739c-85.911 84.89-174.118 158.555-273.273 209.693 65.703-46.103 124.763-109.608 181.681-189.168-102.293 102.283-206.696 187.006-334.031 229.884v-70.534c115.386-31.929 227.366-117.837 316.68-242.775l-14.994-8.656 62.979-109.080 45.885 26.492 65.407-113.288-371.077-214.247-9.084 15.736-104.122-60.115 76.371-132.276 104.122 60.115-9.084 15.736 371.079 214.245 64.139-111.091-45.885-26.492 62.979-109.080 347.671 200.729-62.98 109.079zM346.374 854.673c83.425-34.447 158.555-98.914 198.441-179.628l-22.747-13.133-175.694 192.761z"/>
</svg>