<svg xmlns="http://www.w3.org/2000/svg" viewBox="0 -64 1024 1000" style="transform: scaleY(-1);">
<path fill="currentColor" d="M908.6 726.515l-136.125 20.49 39.697 52.466-164.665 125.696-41.844-55.291c-68.147 40.258-138.278 57.66-190.048 52.366l0.008-0.045c-7.397-0.71-14.415-2.496-21.001-4.144-20.677-5.194-36.749-14.677-46.885-28.079l173.173-132.138-38.623-51.055 32.544-24.842c-175.114-215.419-375.756-400.022-488.622-648.708l99.201-75.088c212.64 184.728 326.649 414.144 490.772 646.438l30.77-23.487 39.697 52.466 56.731-125.422 85.081-64.365c104.533 43.94 151.101 121.687 165.223 218.358l-85.084 64.383z"/>
</svg>