<svg xmlns="http://www.w3.org/2000/svg" viewBox="0 -64 1024 1000" style="transform: scaleY(-1);">
<path fill="currentColor" d="M991.993 687.997c0 0-80.966-170.642-102.877-257.983-28.662-114.247 4.166-200.584-37.497-311.367-72.006-129.933-76.875-150.94-339.628-150.664-96.276 0.1-372.029 73.512-372.029 73.512-38.024 9.763-107.947 4.016-107.947 46.482s49.744 73.462 93.942 73.588l174.055-15.285c42.29 2.66 86.563 27.407 87.919 82.723-0.703 81.845-8.809 144.716-50.347 211.201l-161.356 251.734c-9.638 20.028-11.922 54.212 15.962 69.472s59.583-7.429 70.4-27.156l180.204-245.133c19.25-17.895 53.484-21.358 50.548 16.766l-79.586 364.826c-4.944 25.926 8.207 57.299 38.199 57.299 39.379 0 63.599-15.034 62.821-38.827l87.492-359.957c6.852-17.518 31.097-15.184 37.622 0.979l24.922 350.043c1.28 11.169 15.837 30.62 43.796 26.579 27.959-4.066 44.072-34.008 41.111-45.578l-8.082-345.877c5.672-30.67 29.766-35.137 48.54-18.020l122.454 218.981c7.429 18.372 36.568 22.187 53.434 14.908 15.711-10.24 25.926-23.944 25.926-43.244v0z"/>
</svg>