<svg xmlns="http://www.w3.org/2000/svg" viewBox="0 -64 1024 1000" style="transform: scaleY(-1);">
<path fill="currentColor" d="M511.992 928.008c-265.085 0-480-214.915-480-480s214.915-480 480-480 480 214.915 480 480-214.889 480-480 480zM511.992 807.99c198.827 0 360.006-161.18 360.006-360.006s-161.18-360.006-360.006-360.006-360.006 161.18-360.006 360.006c0.025 198.852 161.205 360.006 360.006 360.006zM752.004 597.994c0 0-40.483-85.308-51.451-128.979-14.331-57.123 5.873-87.994-14.958-143.36-9.010-16.238 19.351-41.663 18.723-56.471-0.552-12.499-49.518-39.078-60.285-44.424-10.767-5.371-74.642-29.214-92.963-29.289-19.376-0.1-18.547 42.541-51.376 42.566-48.138 0.050-173.704 36.769-173.704 36.769-18.999 4.894-53.986 2.008-53.986 23.241s24.872 36.744 46.958 36.794l87.040-7.63c21.133 1.33 43.294 13.704 43.972 41.362-0.351 40.935-4.392 72.358-25.173 105.587l-80.665 125.867c-4.819 10.014-5.973 27.106 7.981 34.736s29.791-3.715 35.213-13.578l90.102-122.579c9.613-8.96 26.729-10.667 25.274 8.383l-39.78 182.413c-2.485 12.951 4.091 28.662 19.1 28.662 19.677 0 31.799-7.504 31.423-19.426l43.746-179.978c3.413-8.759 15.536-7.58 18.798 0.502l12.474 175.034c0.627 5.572 7.931 15.31 21.911 13.277s22.036-16.991 20.555-22.789l-4.041-172.925c2.836-15.335 14.883-17.569 24.27-9.010l61.214 109.478c3.715 9.186 18.296 11.093 26.704 7.454 7.805-5.17 12.925-12.022 12.925-21.685v0z"/>
</svg>