<svg xmlns="http://www.w3.org/2000/svg" viewBox="0 -64 1024 1000" style="transform: scaleY(-1);">
<path fill="currentColor" d="M969.432 455.485l-25.236-9.231c-5.1 61.076-24.386 124.138-57.738 184.504l-50.216-35.277c-45.265 80.041-105.893 160.198-180.303 234.606-54.939-104.49-119.958-196.75-194.401-277.441l-365.947 367.050h-65.304v-62.972l367.887-367.887c-83.706-78.252-177.651-143.881-281.101-197.62 68.695-68.695 142.291-125.646 216.173-169.608l-36.993-52.643c68.885-38.065 141.285-57.803 210.237-59.036l-10.030-27.414c105.968-26.275 208.742-7.958 280.040 48.485l-0.020 0.013c-25.318-6.044-53.557-8.727-83.769-7.936-117.391 38.526-259.465 130.421-390.306 261.265l132.911 132.91 101.794-77.582-31.026-31.029 157.085-82.445-23.712-23.716 221.443-116.218-116.233 221.438-24.887-24.888-82.451 157.085-29.84-29.843-77.578 101.789 132.913 132.911c136.6-136.6 230.781-285.454 266.063-405.668-0.6-22.663-3.264-44.017-7.946-63.62l0.015-0.028c56.429 71.309 74.74 174.078 48.477 280.046zM117.070 291.216l0.003 0.002-0.003 0.003z"/>
</svg>