<svg xmlns="http://www.w3.org/2000/svg" viewBox="0 -64 1024 1000" style="transform: scaleY(-1);">
<path fill="currentColor" d="M391.998-31.986c-33.242 0-60.003 26.761-60.003 60.003v240h-240c-33.242 0-60.003 26.761-60.003 60.003v240c0 33.242 26.761 60.003 60.003 60.003h240v240c0 33.242 26.761 60.003 60.003 60.003h240c33.242 0 60.003-26.761 60.003-60.003v-240h240c33.242 0 60.003-26.761 60.003-60.003v-240c0-33.242-26.761-60.003-60.003-60.003h-240v-240c0-33.242-26.761-60.003-60.003-60.003h-240zM391.998 238.012h240l-120 120-120-120zM391.998 388.010h240l-120 120-120-120zM391.998 538.015h240l-120 120-120-120z"/>
</svg>