<svg xmlns="http://www.w3.org/2000/svg" viewBox="0 -64 1024 1000" style="transform: scaleY(-1);">
<path fill="currentColor" d="M932.004 628.015h-239.999v239.994c0 33.136-26.862 60.003-60.003 60.003h-240.001c-33.141 0-60.003-26.867-60.003-60.003v-239.994h-239.994c-33.141 0-60.003-26.867-60.003-60.003v-240.001c0-33.141 26.867-60.003 60.003-60.003h239.994v-240.001c0-33.141 26.867-60.003 60.003-60.003h240.001c33.141 0 60.003 26.867 60.003 60.003v240.001h240.001c33.136 0 59.998 26.862 60.003 60.003v240.001c0 33.141-26.868 60.003-60.004 60.003z"/>
</svg>