<svg xmlns="http://www.w3.org/2000/svg" viewBox="0 -64 1024 1000" style="transform: scaleY(-1);">
<path fill="currentColor" d="M531.224 301.082c-38.708 67.043-137.498 49.655-134.942-30.479 2.664-83.455 122.090-132.096 134.942-180.062 11.767 43.893 137.061 100.086 134.548 180.062-2.474 78.796-94.895 99.158-134.548 30.479zM682.49 634.421c106.127-118.627-80.263-167.727-115.233-84.439-30.331 72.245 12.934 119.542 67.206 122.634 137.782 7.858 185.144 162.296 85.909 233.317 21.957-41.922 11.162-87.688-25.655-120.112-27.745 143.978-194.722 185.7-298.525 75.803 108.004 22.256 137.879-18.723 157.429-86.293 33.603-116.161-132.163-140.856-120.114 20.989-50.657-31.883-68.050-105.557 0-170.255 45.277-43.041 26.689-104.952-26.823-104.952-89.324-0.374-215.15 150.358-118.946 278.705-70.711-27.145-118.744-51.197-135.272-118.949-14.176 58.844 12.926 110.919 62.972 136.438-203.624-14.74-148.059-225.495-1.164-268.209 131.167-38.137 9.796-217.283-97.955-59.472-11.647-224.166 128.043-263.509 271.706-361.495 63.45-43.275 92.551-69.295 92.551-110.3 0-70.856 105.128-71.817 105.128 6.278 0 42.286 36.316 69.171 106.68 113.352 115.221 72.342 204.075 182.048 204.075 260.048 0.002 137.999-85.674 181.201-213.969 236.915zM531.341 56.845c-20.308 75.784-208.981 152.631-213.191 284.468-4.041 126.617 152.041 154.079 213.191 48.161 62.646 108.506 208.657 76.336 212.564-48.161 3.962-126.343-193.982-215.115-212.564-284.468zM916.761 827.453c-138.141-130.738 36.298-128.986-4.001-318.71 169.565 219.141-28.234 223.701 4.001 318.71z"/>
</svg>