<svg xmlns="http://www.w3.org/2000/svg" viewBox="0 -64 1024 1000" style="transform: scaleY(-1);">
<path fill="currentColor" d="M898.641-21.291l-57.307 185.374h-78.582v376.693l122.112 151.377v221.879h-128.636v-104.655h-78.302v104.655h-130.035v-104.655h-76.9v104.655h-130.035v-104.655h-76.9v104.655h-128.65v-221.879l122.115-151.38v-376.69h-78.577l-57.307-185.374h777.006zM488.483 585.949c0.834-0.927 1.659-1.869 2.477-2.828 0.226-0.266 0.449-0.536 0.675-0.803 0.814-0.969 1.624-1.944 2.422-2.947 0.067-0.084 0.132-0.172 0.199-0.257 1.425-1.799 2.816-3.663 4.186-5.571 0.471-0.656 0.945-1.305 1.408-1.973 0.476-0.685 0.942-1.388 1.41-2.086 0.575-0.857 1.146-1.719 1.709-2.598 0.401-0.623 0.797-1.251 1.193-1.884 0.662-1.064 1.315-2.145 1.961-3.239 0.294-0.498 0.591-0.989 0.882-1.493 0.945-1.639 1.876-3.301 2.783-5.005 0 0 0 0.002 0.002 0.002 0 0 0-0.002 0-0.002 0.11 0.189 0.226 0.369 0.336 0.558 0.812 1.385 1.637 2.751 2.481 4.093 0.398 0.631 0.809 1.245 1.213 1.866 0.57 0.877 1.141 1.756 1.724 2.614 0.499 0.733 1.009 1.452 1.517 2.17 0.496 0.703 0.994 1.405 1.5 2.095 0.581 0.793 1.171 1.577 1.766 2.352 0.433 0.566 0.869 1.129 1.308 1.687 0.668 0.847 1.341 1.689 2.023 2.514 0.349 0.423 0.702 0.839 1.054 1.255 0.778 0.922 1.562 1.841 2.357 2.736 0.18 0.204 0.366 0.401 0.548 0.603 1.995 2.218 4.036 4.36 6.129 6.413h-0.027c53.778 52.75 138.701 50.415 181.467 0h-0.007c1.066-1.256 2.105-2.542 3.117-3.859 0.048-0.062 0.094-0.129 0.14-0.19 0.937-1.224 1.853-2.474 2.743-3.749 0.207-0.297 0.404-0.608 0.61-0.907 0.715-1.049 1.422-2.106 2.103-3.189 0.287-0.456 0.56-0.925 0.842-1.388 0.576-0.947 1.149-1.898 1.701-2.87 0.327-0.576 0.638-1.168 0.956-1.754 0.476-0.879 0.95-1.759 1.405-2.656 0.346-0.685 0.678-1.383 1.012-2.078 0.396-0.822 0.788-1.647 1.166-2.486 0.352-0.782 0.69-1.577 1.026-2.374 0.327-0.777 0.653-1.555 0.966-2.345 0.346-0.874 0.677-1.757 1.004-2.648 0.271-0.737 0.536-1.475 0.793-2.222 0.331-0.962 0.65-1.936 0.959-2.917 0.219-0.695 0.433-1.395 0.64-2.1 0.309-1.051 0.608-2.111 0.892-3.182 0.174-0.656 0.341-1.318 0.504-1.981 0.282-1.139 0.553-2.289 0.805-3.45 0.134-0.613 0.257-1.233 0.383-1.853 0.249-1.233 0.488-2.472 0.702-3.73 0.097-0.565 0.184-1.136 0.272-1.706 0.21-1.331 0.411-2.669 0.583-4.028 0.063-0.504 0.117-1.016 0.175-1.523 0.167-1.442 0.324-2.892 0.448-4.363 0.035-0.421 0.058-0.85 0.092-1.273 0.119-1.574 0.224-3.156 0.294-4.761 0.164-3.82 0.204-7.724 0.075-11.735-4.128-129.131-179.133-172.172-231.8-309.303-55.635 137.139-235.431 171.927-231.117 309.303 0.119 3.767 0.394 7.45 0.777 11.072 0.155 1.467 0.339 2.915 0.535 4.358 0.063 0.469 0.125 0.942 0.194 1.408 0.205 1.402 0.434 2.79 0.678 4.17 0.085 0.484 0.172 0.967 0.262 1.448 0.256 1.363 0.53 2.713 0.824 4.053 0.104 0.471 0.21 0.94 0.317 1.408 0.309 1.341 0.631 2.673 0.977 3.991 0.114 0.431 0.232 0.859 0.349 1.286 0.366 1.343 0.745 2.678 1.149 3.996 0.109 0.352 0.226 0.7 0.336 1.052 0.436 1.381 0.884 2.753 1.361 4.106 0.068 0.192 0.142 0.381 0.21 0.571 2.791 7.786 6.251 15.079 10.28 21.851 0.137 0.231 0.267 0.466 0.406 0.695 0.67 1.109 1.363 2.195 2.063 3.274 0.227 0.351 0.451 0.707 0.682 1.056 0.668 1.009 1.355 1.998 2.048 2.98 0.282 0.399 0.561 0.8 0.849 1.196 0.682 0.94 1.376 1.866 2.081 2.781 0.317 0.413 0.635 0.824 0.957 1.231 0.702 0.889 1.415 1.767 2.14 2.633 0.341 0.408 0.687 0.812 1.032 1.214 44.329 51.611 126.874 59.507 179.307 1.213z"/>
</svg>