<svg xmlns="http://www.w3.org/2000/svg" viewBox="0 -64 1024 1000" style="transform: scaleY(-1);">
<path fill="currentColor" d="M914.086 709.71l-370.803 214.083c-48.285 27.877-110.031 11.332-137.909-36.953l-328.213-568.484c-27.879-48.285-11.332-110.031 36.953-137.909l370.803-214.083c48.285-27.879 110.031-11.332 137.909 36.953l328.213 568.484c27.879 48.285 11.332 110.031-36.953 137.909zM472.67 839.357c12.213 21.152 39.261 28.401 60.416 16.189s28.401-39.263 16.189-60.414c-12.213-21.153-39.261-28.401-60.416-16.189s-28.401 39.263-16.189 60.414zM553.324 46.956c-12.213-21.153-39.261-28.401-60.416-16.189s-28.401 39.261-16.189 60.414c12.213 21.153 39.261 28.401 60.416 16.189s28.401-39.261 16.189-60.414zM696.377 360.591v0c-0.398-0.254-0.807-0.498-1.208-0.75-1.422-0.892-2.86-1.769-4.313-2.629-0.583-0.344-1.166-0.69-1.754-1.029-1.771-1.024-3.556-2.031-5.371-3.010-0.352-0.19-0.713-0.374-1.067-0.563-1.61-0.857-3.237-1.697-4.879-2.522-0.528-0.266-1.056-0.531-1.587-0.793-1.929-0.95-3.875-1.884-5.845-2.793-0.302-0.139-0.61-0.274-0.914-0.413-1.792-0.819-3.603-1.619-5.426-2.402-0.459-0.197-0.919-0.398-1.381-0.593-2.073-0.879-4.161-1.739-6.268-2.578-85.779-34.081-199.204-34.849-234.277-69.726-0.084-0.080-0.174-0.159-0.256-0.241 7.434 28.296-5.558 68.426-21.41 113.634-0.127 0.362-0.257 0.733-0.386 1.096-0.952 2.713-1.914 5.444-2.882 8.192-1.711 4.858-3.433 9.747-5.16 14.7-14.374 41.206-28.582 85.438-30.646 128.087-0.087 1.794-0.154 3.585-0.195 5.372 0 0.030-0.002 0.060-0.002 0.090-0.251 10.561 0.292 21.008 1.787 31.278 0.062 0.428 0.115 0.859 0.182 1.286 0.184 1.196 0.396 2.389 0.606 3.58 0.12 0.682 0.236 1.365 0.366 2.045 0.202 1.062 0.426 2.122 0.651 3.179 0.172 0.809 0.344 1.617 0.528 2.422 0.222 0.971 0.461 1.938 0.702 2.903 0.224 0.894 0.454 1.786 0.695 2.676 0.242 0.895 0.493 1.791 0.753 2.683 0.281 0.962 0.573 1.921 0.872 2.878 0.259 0.827 0.521 1.654 0.795 2.477 0.346 1.034 0.71 2.065 1.079 3.092 0.269 0.748 0.533 1.497 0.815 2.24 0.428 1.131 0.884 2.255 1.341 3.379 0.262 0.641 0.515 1.286 0.787 1.926 0.563 1.321 1.161 2.636 1.769 3.947 0.204 0.439 0.391 0.88 0.6 1.318 0.842 1.769 1.722 3.53 2.648 5.28 0.855 1.615 1.732 3.187 2.624 4.732 0.207 0.359 0.419 0.708 0.628 1.064 0.697 1.184 1.405 2.349 2.123 3.493 0.247 0.393 0.494 0.785 0.743 1.173 0.77 1.198 1.55 2.372 2.342 3.525 0.165 0.241 0.327 0.489 0.494 0.728 0.987 1.415 1.99 2.798 3.010 4.144 0.077 0.102 0.155 0.197 0.232 0.297 0.919 1.203 1.851 2.375 2.795 3.523 0.257 0.314 0.518 0.62 0.777 0.929 0.807 0.962 1.624 1.904 2.449 2.826 0.257 0.289 0.515 0.58 0.773 0.864 1.006 1.101 2.020 2.178 3.049 3.222 0.053 0.055 0.107 0.114 0.16 0.167 1.123 1.134 2.26 2.23 3.409 3.296 0.19 0.177 0.384 0.346 0.575 0.52 0.935 0.855 1.879 1.689 2.831 2.501 0.292 0.249 0.586 0.494 0.879 0.74 0.917 0.763 1.841 1.507 2.771 2.232 0.249 0.194 0.496 0.391 0.745 0.583 2.364 1.804 4.771 3.48 7.216 5.031 0.276 0.175 0.555 0.342 0.832 0.515 0.954 0.593 1.913 1.166 2.878 1.721 0.324 0.185 0.648 0.373 0.972 0.553 1.026 0.575 2.056 1.126 3.092 1.659 0.214 0.11 0.424 0.226 0.64 0.334 1.273 0.643 2.554 1.256 3.844 1.836 0.139 0.063 0.281 0.119 0.419 0.182 1.118 0.498 2.24 0.971 3.369 1.422 0.349 0.14 0.7 0.274 1.051 0.409 0.961 0.371 1.923 0.725 2.89 1.064 0.352 0.124 0.707 0.251 1.061 0.369 1.153 0.389 2.309 0.755 3.468 1.098 0.134 0.040 0.266 0.085 0.401 0.124 1.303 0.379 2.611 0.725 3.922 1.047 0.324 0.080 0.65 0.149 0.976 0.226 0.981 0.231 1.963 0.446 2.947 0.645 0.424 0.085 0.849 0.167 1.275 0.247 0.934 0.175 1.869 0.334 2.806 0.483 0.394 0.062 0.79 0.129 1.184 0.187 1.295 0.187 2.593 0.356 3.892 0.489 0.139 0.015 0.277 0.022 0.416 0.037 1.163 0.115 2.327 0.209 3.493 0.284 0.463 0.030 0.927 0.048 1.392 0.072 0.857 0.042 1.714 0.075 2.569 0.095 0.506 0.012 1.011 0.022 1.517 0.027 0.872 0.007 1.744-0.002 2.616-0.017 0.449-0.008 0.899-0.008 1.348-0.022 1.245-0.038 2.489-0.099 3.73-0.182 0.474-0.032 0.947-0.080 1.42-0.119 0.82-0.067 1.642-0.139 2.461-0.226 0.578-0.062 1.154-0.13 1.732-0.202 0.723-0.089 1.445-0.187 2.167-0.291 0.593-0.085 1.188-0.17 1.779-0.267 0.753-0.122 1.503-0.259 2.253-0.398 0.778-0.144 1.555-0.292 2.332-0.453 0.92-0.19 1.839-0.388 2.755-0.605 0.643-0.152 1.283-0.319 1.923-0.481 0.615-0.157 1.229-0.316 1.841-0.483 0.672-0.184 1.343-0.376 2.011-0.573 0.57-0.169 1.139-0.344 1.707-0.521 0.687-0.215 1.373-0.428 2.055-0.656 0.515-0.172 1.024-0.357 1.537-0.538 1.325-0.466 2.643-0.956 3.954-1.473 0.456-0.179 0.912-0.354 1.365-0.54 0.735-0.302 1.467-0.618 2.198-0.935 0.453-0.197 0.905-0.396 1.355-0.598 0.742-0.334 1.482-0.675 2.218-1.026 0.396-0.189 0.787-0.384 1.181-0.578 2.611-1.283 5.183-2.669 7.708-4.159 0.302-0.179 0.605-0.352 0.905-0.533 0.773-0.466 1.54-0.944 2.304-1.43 0.317-0.202 0.635-0.406 0.95-0.611 0.782-0.508 1.562-1.019 2.334-1.547 0.177-0.12 0.351-0.247 0.528-0.369 2.613-1.807 5.163-3.73 7.644-5.763 0.221-0.18 0.443-0.361 0.662-0.543 0.76-0.631 1.512-1.275 2.258-1.928 0.205-0.179 0.408-0.361 0.611-0.543 2.541-2.257 5.003-4.629 7.368-7.125 0.015-0.015 0.028-0.030 0.043-0.045 0.73-0.772 1.448-1.559 2.16-2.352 0.174-0.194 0.349-0.389 0.523-0.585 0.697-0.785 1.385-1.58 2.063-2.387 0.114-0.135 0.226-0.274 0.339-0.409 2.188-2.629 4.28-5.369 6.263-8.217 0.094-0.134 0.187-0.266 0.281-0.399 0.611-0.885 1.211-1.782 1.801-2.688 0.145-0.222 0.289-0.448 0.433-0.672 0.593-0.922 1.179-1.853 1.751-2.796 11.386-18.81 18.328-41.708 18.454-67.768 22.515 13.143 45.141 19.134 66.313 19.406v-0.005c18.668 0.239 36.201-3.977 51.519-11.68 0.020-0.010 0.040-0.020 0.058-0.030 0.984-0.494 1.956-1.006 2.922-1.53 0.055-0.030 0.109-0.058 0.164-0.089 0.934-0.508 1.856-1.031 2.771-1.567 0.085-0.050 0.17-0.1 0.256-0.15 0.887-0.523 1.767-1.057 2.638-1.604 0.107-0.067 0.214-0.135 0.321-0.202 0.849-0.536 1.689-1.086 2.519-1.644 0.124-0.084 0.247-0.169 0.373-0.252 0.812-0.551 1.615-1.114 2.41-1.687 0.137-0.099 0.272-0.199 0.409-0.299 0.78-0.568 1.552-1.144 2.315-1.732 0.144-0.11 0.284-0.222 0.426-0.334 0.752-0.586 1.495-1.179 2.23-1.784 0.147-0.122 0.292-0.246 0.439-0.368 0.725-0.603 1.443-1.214 2.15-1.836 0.147-0.13 0.292-0.262 0.438-0.394 0.7-0.623 1.395-1.253 2.078-1.894 0.144-0.135 0.282-0.274 0.426-0.409 0.68-0.646 1.355-1.296 2.016-1.961 0.13-0.13 0.257-0.266 0.386-0.398 0.668-0.678 1.331-1.36 1.981-2.056 0.092-0.099 0.182-0.202 0.274-0.302 2.725-2.942 5.274-6.044 7.642-9.288 0.222-0.304 0.451-0.601 0.67-0.907 0.334-0.468 0.653-0.945 0.979-1.418 0.332-0.483 0.67-0.962 0.996-1.452 0.279-0.419 0.545-0.849 0.817-1.273 0.356-0.555 0.717-1.108 1.062-1.67 0.244-0.396 0.478-0.8 0.715-1.199 0.359-0.601 0.72-1.203 1.066-1.812 0.217-0.383 0.426-0.772 0.64-1.158 0.352-0.638 0.705-1.276 1.044-1.923 0.195-0.373 0.384-0.752 0.575-1.128 0.341-0.67 0.68-1.34 1.006-2.018 0.175-0.366 0.346-0.735 0.518-1.104 0.327-0.7 0.651-1.403 0.962-2.111 0.155-0.354 0.306-0.712 0.458-1.067 0.312-0.733 0.62-1.47 0.917-2.212 0.137-0.344 0.271-0.692 0.404-1.037 0.296-0.763 0.583-1.53 0.86-2.302 0.12-0.336 0.237-0.672 0.354-1.009 0.276-0.793 0.543-1.59 0.8-2.394 0.104-0.324 0.205-0.65 0.306-0.976 0.256-0.825 0.499-1.654 0.735-2.487 0.089-0.312 0.175-0.625 0.261-0.939 0.234-0.859 0.456-1.721 0.667-2.589 0.072-0.296 0.144-0.591 0.214-0.887 0.21-0.899 0.409-1.802 0.598-2.71 0.057-0.272 0.114-0.543 0.169-0.815 0.187-0.944 0.361-1.894 0.523-2.848 0.042-0.242 0.085-0.484 0.125-0.728 0.162-0.996 0.309-1.996 0.443-3.002 0.028-0.209 0.058-0.416 0.085-0.623 0.135-1.061 0.252-2.128 0.357-3.201 0.015-0.155 0.033-0.311 0.048-0.468 0.107-1.148 0.194-2.302 0.264-3.461 0.005-0.084 0.012-0.167 0.017-0.251 0.219-3.784 0.244-7.629 0.063-11.53l0.005 0.008c-0.815-17.575-5.797-36.241-15.846-55.199-11.199-21.115-28.059-37.442-48.352-50.393z"/>
</svg>