<svg xmlns="http://www.w3.org/2000/svg" viewBox="0 -64 1024 1000" style="transform: scaleY(-1);">
<path fill="currentColor" d="M737.706 644.952l-56.004 15.001 23.273 86.858 72.133-19.327 32.614 121.724-318.005 85.209-32.618-121.724 70.225-18.816-23.275-86.863-54.731 14.663c-75.865 20.33-153.632-23.5-173.956-99.358l-99.589-371.664c-20.326-75.863 24.766-153.974 100.631-174.295l286.388-76.737c75.865-20.33 152.698 25.109 173.028 100.975l99.585 371.659c20.325 75.861-23.836 152.361-99.699 172.695zM720.087 355.925c-32.349-106.828-188.092-103.65-262.759-206.3-15.751 126.862-158.064 196.060-123.714 309.731 32.233 106.651 177.745 108.34 204.675-7.94 79.14 78.731 216.286 18.394 181.798-95.491z"/>
</svg>