<svg xmlns="http://www.w3.org/2000/svg" viewBox="0 -64 1024 1000" style="transform: scaleY(-1);">
<path fill="currentColor" d="M918.388 350.723l-208.412-65.217 114.411 387.047-278.872-343.098-57.26 245.030-26.803-133.9c-71.63 186.756-181.281 362.269-280.444 482.7h-151.173v-95.067c134.167-130.502 259.282-345.868 320.387-560.596l-170.487 224.872 72.305-310.491-165.878 89.319 93.572-182.892-126.181 11.343 112.012-110.577h180.865l-57.174 83.447 98.018-25.797 0.93 34.898h0.002l2.511 94.073 80.822-92.857 57.276 114.548c0 0 0 0 0 0l23.547 47.092-1.721-180.56 82.543 61.906-58.61-136.752h275.763l133.267 199.904-170.133-46.787 104.916 208.412zM780.559 823.955l-119.856-111.922-4.22-156.772 98.538 148.218zM918.792 228.759l68.803 33.817v79.297z"/>
</svg>