<svg xmlns="http://www.w3.org/2000/svg" viewBox="0 -64 1024 1000" style="transform: scaleY(-1);">
<path fill="currentColor" d="M860.969 640.283l34.609-7.96c20.961 91.241 30.324 183.351 27.987 275.207l-228.561-0.002v-34.046h-95.655v49.999h-167.214v-49.999h-95.135v34.044l-235.553 0.002c-2.365-91.796 7.18-184.026 27.987-275.207l34.616 7.883c8.351-39.271 19.099-78.375 32.203-117.204l-81.539-12.298 125.987-265.527 59.89 53.719c20.092-33.455 42.068-66.518 65.977-99.097l70.723 52.366-99.119-73.466c50.265-70.633 108.612-139.162 174.92-205.239 66.102 66.119 123.49 134.446 173.751 205.239l-28.597 21.108c24.011 32.783 46.092 66.066 66.283 99.752l60.628-54.382 125.987 265.532-82.501 12.438c13.138 38.803 23.93 77.886 32.327 117.137zM346.087 696.578h333.786c3.363-140.6-52.917-264.666-166.892-385.929-114.651 121.514-170.296 245.424-166.894 385.929zM588.884 250.998l0.003-0.002c-23.402-28.779-48.297-56.45-75.794-83.96 0 0-0.002 0.002-0.002 0.003 27.501 27.508 52.393 55.176 75.793 83.958z"/>
</svg>