<svg xmlns="http://www.w3.org/2000/svg" viewBox="0 -64 1024 1000" style="transform: scaleY(-1);">
<path fill="currentColor" d="M904.567 443.902c48.852 52.507 77.324 115.423 77.324 183.060-0.002 88.666-50.763 168.886-130.317 228.536 28.19-38.064 46.127-80.76 46.127-126.728 0-47.357-16.878-91.896-46.587-130.732l-19.158 55.241-91.941-28.777c-40.607 54.851-94.161 87.641-162.903 99.592-17.354 88.215-42.113 190.009-63.438 190.009s-46.083-101.794-63.438-190.009c-68.737-11.95-122.289-44.738-162.896-99.582l-91.916 28.771-19.15-55.217c-29.714 38.842-46.595 83.384-46.595 130.739 0 45.968 17.905 88.665 46.127 126.728-79.586-59.681-130.348-139.903-130.348-228.568 0-67.648 28.48-130.572 77.345-183.084l-20.013-57.707 92.065-42.509c-9.857-77.369-14.383-166.84-14.383-268.946 103.078-59.842 217.299-89.588 333.202-88.857 115.903-0.73 230.124 29.015 333.202 88.855 0 102.099-4.526 191.565-14.381 268.931l92.095 42.524-20.022 57.731zM558.070 276.505c-9.812-80.548-23.097-203.684-23.097-280.010h-42.601c0 76.402-13.31 199.705-23.125 280.248-145.354 9.313-207.887 60.224-207.887 60.224s4.603 33.73 9.114 60.188c0.007 0.040 0.013 0.080 0.020 0.12 0.348 2.045 0.698 4.044 1.042 5.982 0.027 0.149 0.054 0.294 0.079 0.442 0.142 0.791 0.283 1.569 0.423 2.339 0.032 0.177 0.065 0.356 0.097 0.532 0.326 1.774 0.648 3.479 0.965 5.102 0.040 0.204 0.079 0.403 0.119 0.604 0.12 0.609 0.239 1.205 0.356 1.787 0.042 0.202 0.082 0.407 0.122 0.606 0.152 0.745 0.305 1.474 0.453 2.17 76.825-25.873 157.713-38.92 239.552-38.444 81.808-0.445 162.696 12.571 239.521 38.444 0.146-0.681 0.293-1.394 0.442-2.122 0.052-0.249 0.102-0.505 0.154-0.76 0.102-0.502 0.204-1.014 0.306-1.534 0.057-0.286 0.112-0.571 0.169-0.863 0.131-0.664 0.259-1.344 0.392-2.035 0.054-0.279 0.107-0.564 0.161-0.848 0.117-0.622 0.234-1.253 0.353-1.894 0.069-0.371 0.137-0.75 0.206-1.128 0.089-0.492 0.179-0.987 0.269-1.487 0.070-0.393 0.142-0.786 0.212-1.186 0.109-0.606 0.216-1.221 0.325-1.841 0.104-0.594 0.209-1.195 0.313-1.799 0.090-0.517 0.179-1.036 0.269-1.559 0.082-0.477 0.162-0.955 0.244-1.437 0.075-0.443 0.151-0.888 0.226-1.335 0.087-0.517 0.174-1.034 0.261-1.556 0.077-0.457 0.152-0.919 0.229-1.379 0.141-0.85 0.281-1.703 0.422-2.56 0.077-0.474 0.156-0.947 0.233-1.424 0.085-0.529 0.171-1.057 0.256-1.588 0.072-0.448 0.144-0.895 0.216-1.344 0.080-0.507 0.162-1.012 0.243-1.519 0.115-0.723 0.229-1.447 0.343-2.17 0.089-0.557 0.176-1.114 0.263-1.672 0.092-0.586 0.184-1.171 0.274-1.757 0.070-0.447 0.139-0.892 0.207-1.337 0.087-0.557 0.172-1.113 0.258-1.667 0.065-0.427 0.132-0.853 0.197-1.278 0.137-0.897 0.274-1.79 0.408-2.675 0.042-0.276 0.084-0.549 0.125-0.823 0.11-0.73 0.221-1.456 0.33-2.177 0.040-0.266 0.080-0.532 0.12-0.798 0.122-0.818 0.244-1.63 0.365-2.431 0.020-0.131 0.040-0.264 0.059-0.395 2.294-15.39 3.945-27.492 3.945-27.492s-60.336-51.829-207.949-60.463z"/>
</svg>