<svg xmlns="http://www.w3.org/2000/svg" viewBox="0 -64 1024 1000" style="transform: scaleY(-1);">
<path fill="currentColor" d="M511.992 928.008c-265.111 0-480-214.915-480-480 0-265.111 214.889-480 480-480s480 214.915 480 480-214.889 480-480 480zM511.992 807.99c198.827 0 360.006-161.18 360.006-360.006s-161.18-360.006-360.006-360.006-360.006 161.18-360.006 360.006c0.025 198.827 161.18 360.006 360.006 360.006zM511.992 748.010c-132.543 0-240.013-80.59-240.013-180.003 0-60.009 119.994-60.009 119.994 0 0 33.129 53.735 60.009 119.994 60.009 66.284 0 119.994-26.855 119.994-60.009 0-33.129-60.009-29.992-119.994-60.009-3.74-1.882-6.952-4.267-9.387-6.576-49.569-31.398-50.623-85.283-50.623-113.443v-29.992c0-33.23 26.755-60.009 60.009-60.009 33.23 0 60.009 26.755 60.009 60.009v29.992c0 90.002 180.003 80.59 180.003 180.003 0.025 99.438-107.42 180.028-239.987 180.028zM511.992 268.010c33.129 0 60.009-26.855 60.009-60.009 0-33.129-26.855-60.009-60.009-60.009-33.129 0-60.009 26.855-60.009 60.009 0.025 33.129 26.88 60.009 60.009 60.009z"/>
</svg>