<svg xmlns="http://www.w3.org/2000/svg" viewBox="0 -64 1024 1000" style="transform: scaleY(-1);">
<path fill="currentColor" d="M926.213 689.99l-423.071 243.983-423.073-243.983v-487.966l423.071-243.983 423.074 243.985-0.002 487.964zM393.91 253.719l-104.801-60.506-104.801 60.506v121.013l104.801 60.506 104.801-60.506v-121.013zM289.109 435.247l-104.801 60.506v121.013l104.801 60.506 104.801-60.506v-121.013l-104.801-60.506zM604.613 253.801v-121.013l-104.801-60.506-104.801 60.506v121.013l104.523 60.347-104.523 60.347v121.013l104.801 60.506 104.801-60.506v-121.013l-104.523-60.347 104.523-60.347zM499.812 556.178l-104.801 60.506v121.013l104.801 60.506 104.801-60.506v-121.013l-104.801-60.506zM814.567 253.719l-104.801-60.506-104.801 60.506v121.013l104.801 60.506 104.801-60.506v-121.013zM709.766 435.247l-104.801 60.506v121.013l104.801 60.506 104.801-60.506v-121.013l-104.801-60.506z"/>
</svg>