<svg xmlns="http://www.w3.org/2000/svg" viewBox="0 -64 1024 1000" style="transform: scaleY(-1);">
<path fill="currentColor" d="M326.776 193.63h368.693l24.384 158.822h-417.461zM272.822 545.059l19.219-125.177h438.165l19.222 125.209c-69.154 28.229-150.934 44.552-238.575 44.511-87.451-0.038-169.032-16.364-238.031-44.543zM844.513 493.166l67.442 371.578c-21.683 27.768-75.395 36.076-109.895 18.151l-19.668-128.114h-542.536l-19.673 128.149c-34.5 17.924-88.213 9.615-109.895-18.151l67.455-371.66c0.082 0.058 0.165 0.115 0.246 0.174-72.21-51.953-116.17-120.865-116.090-196.459 0-0.134 0-0.269 0-0.403 0.17-161.578 201.452-292.473 449.574-292.363s449.127 131.187 448.955 292.765c0 0.134 0 0.269 0 0.403-0.080 75.392-43.948 144.090-115.914 195.93zM679.338 88.551l8.825 57.479h-354.080l8.818-57.444c-36.517 10.542-71.829 22.291-98.563 42.615l-65.792 362.489c27.417 19.655 58.889 36.861 93.552 51.075l-17.323 112.837h512.697l-17.318-112.804c34.662-14.209 66.132-31.415 93.555-51.063l-65.807-362.57c-26.736-20.325-62.048-32.071-98.565-42.615z"/>
</svg>