<svg xmlns="http://www.w3.org/2000/svg" viewBox="0 -64 1024 1000" style="transform: scaleY(-1);">
<path fill="currentColor" d="M328.392 383.323l-70.078 120.276 70.080 120.276h140.156l70.078-120.276-70.080-120.276h-140.156zM553.573 505.506l-70.078 120.276 70.080 120.276h140.156l70.078-120.276-70.080-120.276h-140.156zM98.271 512.245l-70.078 120.276 70.080 120.276h140.156l70.078-120.276-70.080-120.276h-140.156zM325.092 643.069l-70.078 120.276 70.080 120.276h140.156l70.078-120.276-70.080-120.276h-140.156zM551.903-7.511l-70.078 120.276 70.080 120.276h140.156l70.078-120.276-70.080-120.276h-140.156zM772.973 122.839l-70.078 120.276 70.080 120.276h140.156l70.078-120.276-70.080-120.276h-140.156zM328.392 126.13l-70.078 120.276 70.080 120.276h140.156l70.078-120.276-70.080-120.276h-140.156zM551.903 251.417l-70.078 120.276 70.080 120.276h140.156l70.078-120.276-70.080-120.276h-140.156zM104.952 251.728l-70.078 120.276 70.078 120.276h140.156l70.078-120.276-70.080-120.276h-140.154zM777.984 635.861l-70.078 120.276 70.080 120.276h140.156l70.078-120.276-70.080-120.276h-140.156z"/>
</svg>