<svg xmlns="http://www.w3.org/2000/svg" viewBox="0 -64 1024 1000" style="transform: scaleY(-1);">
<path fill="currentColor" d="M513.931 896.036v0c-234.454-110.151-429.353-430.969-478.958-670.307 143.25 0 248-45.619 323.621-125.86l20.933 22.869c-56.023 57.645-129.662 104.663-226.753 151.505 52.197 129.853 131.79 326.419 233.006 337.86 39.607 4.479 82.020-19.434 128.155-86.729 144.421 240.149 281.57-76.994 361.161-251.131-95.222-51.626-168.714-98.8-225.561-157.218l18.439-20.742c74.547 79.388 179.028 129.447 324.915 129.447-58.837 236.347-239.619 553.817-478.958 670.307zM452.114 347.889c0-25.117-33.602-38.962-75.051-30.927s-75.051 34.91-75.051 60.027c0 25.116 33.602 38.962 75.051 30.927s75.051-34.91 75.051-60.027zM569.526 347.889c0-25.117 33.602-38.962 75.051-30.927s75.051 34.91 75.051 60.027c0 25.116-33.602 38.962-75.051 30.927-41.451-8.035-75.051-34.91-75.051-60.027z"/>
</svg>