<svg xmlns="http://www.w3.org/2000/svg" viewBox="0 -64 1024 1000" style="transform: scaleY(-1);">
<path fill="currentColor" d="M742.941 623.547l239.055 95.623v169.092zM679.966 925.578l-38.481-178.417 141.1 178.417zM981.996 438.136v80.465l-169.087-54.81zM660.136 599.061c-94.928 126.627-211.567 204.227-293.865 200.574h0.003c-18.99-0.842-36.697-5.259-51.31-15.158-33.872-22.947-22.546-74.152-45.48-125.942-78.345-176.942-157.459-305.286-227.396-399.985v-206.404c122.964 42.619 306.094 86.754 573.736 95.623 56.156 1.863 99.261-25.144 132.94-2.332 83.139 56.322 53.026 244.572-66.468 420.973-7.467 11.023-14.366 22.264-22.159 32.651zM396.609 662.731c32.197 19.573 117.9-54.262 191.423-164.917s107.022-216.226 74.824-235.799c-13.235-8.045-35.514-0.297-62.267 19.292-38.162 38.67-78.896 88.435-117.661 145.66-38.448 56.756-69.634 112.824-91.692 162.589-10.329 37.233-9.363 64.216 5.374 73.175z"/>
</svg>