<svg xmlns="http://www.w3.org/2000/svg" viewBox="0 -64 1024 1000" style="transform: scaleY(-1);">
<path fill="currentColor" d="M852.431 605.612c-81.232 68.68-124.033 203.452 16.765 276.004-188.717-14.359-201.643-208.321-140.953-295.672 103.818-149.474 82.785-224.532 17.438-276.039-7.166 18.81-15.624 37.566-24.868 56.292-141.578-20.762-278.409-38.712-412.463 0-11.768-21.053-21.207-42.104-28.331-63.157-72.336 51.718-100.235 126.654 8.289 282.905 60.69 87.349 47.766 281.313-140.953 295.672 140.797-72.552 97.995-207.324 16.765-276.004-181.749-153.71-164.575-411.518 118.336-495.467 6.749-18.086 15.338-36.172 25.894-54.26 137.488 13.705 274.975 12.988 412.463 0 14.757 20.368 25.689 40.582 33.388 60.668 263.522 89.98 275.575 339.074 98.23 489.059z"/>
</svg>