<svg xmlns="http://www.w3.org/2000/svg" viewBox="0 -64 1024 1000" style="transform: scaleY(-1);">
<path fill="currentColor" d="M501.556 903.029c-405.275-5.898-379.942-459.647-253.149-817.601-29.308-18.793-34.527-12.749-31.448-34.069 2.205-15.276 24.923-46.391 35.068-51.603s18.716-5.695 34.007-4.681 120.478 17.512 98.277 45.176c-95.847 134.582-252.731 729.724 126.852 746.904 379.583-17.179 222.699-612.322 126.856-746.905-22.201-27.665 82.986-44.162 98.277-45.176s23.863-0.533 34.007 4.681 32.862 36.328 35.068 51.603c3.079 21.32-2.14 15.276-31.448 34.069 126.792 357.954 152.127 811.703-253.149 817.601-3.191 0.047-6.365 0.010-9.609 0-3.247 0.010-6.421 0.047-9.612 0.002v0zM410.454 858.788c13.785 0 24.959-11.174 24.959-24.959s-11.174-24.959-24.959-24.959-24.959 11.174-24.959 24.959c0 13.785 11.174 24.959 24.959 24.959zM611.876 858.788c13.785 0 24.959-11.174 24.959-24.959s-11.174-24.959-24.959-24.959-24.959 11.174-24.959 24.959c-0.002 13.785 11.174 24.959 24.959 24.959zM270.745 741.729c13.785 0 24.959-11.174 24.959-24.959s-11.174-24.959-24.959-24.959-24.959 11.174-24.959 24.959 11.174 24.959 24.959 24.959zM751.584 741.729c13.785 0 24.959-11.174 24.959-24.959s-11.174-24.959-24.959-24.959-24.959 11.174-24.959 24.959 11.174 24.959 24.959 24.959zM218.767 550.043c13.785 0 24.959-11.174 24.959-24.959s-11.174-24.959-24.959-24.959-24.959 11.174-24.959 24.959 11.174 24.959 24.959 24.959zM803.561 550.043c13.785 0 24.959-11.174 24.959-24.959s-11.174-24.959-24.959-24.959-24.959 11.174-24.959 24.959 11.174 24.959 24.959 24.959zM236.051 345.376c13.785 0 24.959-11.174 24.959-24.959s-11.174-24.959-24.959-24.959-24.959 11.174-24.959 24.959 11.174 24.959 24.959 24.959zM786.277 345.376c13.785 0 24.959-11.174 24.959-24.959s-11.174-24.959-24.959-24.959-24.959 11.174-24.959 24.959 11.174 24.959 24.959 24.959zM277.233 177.525c13.785 0 24.959-11.174 24.959-24.959s-11.174-24.959-24.959-24.959-24.959 11.174-24.959 24.959 11.175 24.959 24.959 24.959zM745.094 177.525c13.785 0 24.959-11.174 24.959-24.959s-11.174-24.959-24.959-24.959-24.959 11.174-24.959 24.959 11.174 24.959 24.959 24.959z"/>
</svg>