<svg xmlns="http://www.w3.org/2000/svg" viewBox="0 -64 1024 1000" style="transform: scaleY(-1);">
<path fill="currentColor" d="M452.007 253.001c-90.002 299.997 90.002 299.997 0 599.994h119.994c90.002-299.997-90.002-299.997 0-599.994h-119.994zM31.992 103.015v-60.009h960v60.009c0 60.009 0 60.009-60.009 60.009 0 0-29.992 60.009-60.009 60.009-60.009 0-60.009-90.002-119.994-90.002-60.009 0-60.009 90.002-119.994 90.002s-60.009-90.002-119.994-90.002-60.009 90.002-119.994 90.002-60.009-90.002-119.994-90.002-60.009 90.002-119.994 90.002c-29.992 0-60.009-60.009-60.009-60.009-60.009-0.025-60.009-0.025-60.009-60.009zM211.995 253.001c-90.002 299.997 90.002 299.997 0 599.994h119.994c90.002-299.997-90.002-299.997 0-599.994h-119.994zM691.995 253.001c-90.002 299.997 90.002 299.997 0 599.994h119.994c90.002-299.997-90.002-299.997 0-599.994h-119.994z"/>
</svg>