<svg xmlns="http://www.w3.org/2000/svg" viewBox="0 -64 1024 1000" style="transform: scaleY(-1);">
<path fill="currentColor" d="M588.912 431.025v33.817c112.338 53.397 194.745 226.63 194.745 432.634h-535.256c0-204.793 81.088-378.145 192.41-432.634v-33.817c-111.325-54.484-192.41-227.843-192.41-432.634h535.256c0 205.999-82.409 379.239-194.745 432.634zM339.651 698.721c105.9-47.41 239.477-47.365 354.504 8.164-28.605-106.324-88.594-182.596-159.338-194.326 2.995-4.058 4.788-9.057 4.788-14.488 0-13.502-10.945-24.447-24.446-24.447s-24.446 10.947-24.446 24.447c0 5.509 1.844 10.576 4.918 14.663-68.501 11.959-126.722 84.347-155.98 185.987zM515.157 316.256c-13.501 0-24.446 10.947-24.446 24.447s10.945 24.447 24.446 24.447 24.446-10.947 24.446-24.447-10.945-24.447-24.446-24.447zM539.603 261.791c0-13.502-10.945-24.447-24.446-24.447s-24.446 10.947-24.446 24.447 10.945 24.447 24.446 24.447c13.501 0 24.446-10.947 24.446-24.447zM515.157 394.697c-13.501 0-24.446 10.947-24.446 24.447s10.945 24.447 24.446 24.447 24.446-10.947 24.446-24.447c0-13.501-10.945-24.447-24.446-24.447zM364.056 55.477c118.293 199.217 183.573 203.681 305.468 0h-305.468z"/>
</svg>