<svg xmlns="http://www.w3.org/2000/svg" viewBox="0 -64 1024 1000" style="transform: scaleY(-1);">
<path fill="currentColor" d="M173.124 884.333l508.123-197.435c-1.281-16.979-5.984-32.447-11.852-45.931l235.958-82.508c13.085 23.579 24.082 47.68 33.481 72.181-10.815-7.495-23.935-11.9-38.088-11.9-36.979 0-66.956 29.978-66.956 66.958 0 6.254 0.875 12.3 2.479 18.043v0.002c2.691 9.637 7.48 18.394 13.852 25.75 12.278 14.179 30.396 23.163 50.624 23.163 28.872 0 53.475-18.275 62.875-43.89 8.010 30.8 14.364 62.015 19.929 93.426l-488.363 87.606c61.083-28.423 103.464-56.946 132.206-84.533l-445.727 110.928c-27.723 7.425-39.363-23.592-8.539-31.859zM733.961 805.787l98.119-20.54-30.984-40.86-67.135 61.4zM207.713 502.71l0.003-0.010-0.002 0.012zM207.147 353.386l-142.261 434.781c-8.311 27.468-40.805 21-31.565-9.548l107.315-536.975c-17.261-10.536-35.568-15.731-52.433-18.195l54.361-243.984c26.935 1.32 53.211 4.691 78.983 9.629-12.073 5.234-22.735 14.057-30.2 26.083-11.835 19.065-12.916 41.755-4.93 61.014h0.002c1.285 3.097 2.805 6.104 4.55 8.994 0.023 0.040 0.047 0.079 0.072 0.119 1.712 2.823 3.648 5.528 5.79 8.097 0.082 0.097 0.16 0.197 0.242 0.294 1.036 1.228 2.123 2.422 3.256 3.583 0.137 0.14 0.279 0.276 0.418 0.414 1.062 1.069 2.165 2.106 3.309 3.11 0.114 0.1 0.224 0.205 0.339 0.304 1.184 1.024 2.422 2.006 3.692 2.957 0.271 0.202 0.546 0.403 0.822 0.601 1.298 0.94 2.623 1.854 4.006 2.713 0.002 0.002 0.003 0.002 0.005 0.003 0.892 0.553 1.794 1.076 2.699 1.584 0.272 0.152 0.545 0.296 0.819 0.444 0.658 0.356 1.32 0.7 1.985 1.032 0.296 0.147 0.59 0.294 0.887 0.438 0.735 0.352 1.475 0.69 2.218 1.016 0.195 0.085 0.391 0.179 0.588 0.262 0.929 0.394 1.864 0.765 2.803 1.116 0.254 0.095 0.509 0.18 0.765 0.271 0.697 0.251 1.397 0.489 2.098 0.717 0.332 0.107 0.667 0.21 1.001 0.312 0.662 0.2 1.323 0.389 1.988 0.57 0.314 0.085 0.628 0.174 0.942 0.254 0.932 0.237 1.866 0.458 2.803 0.655 0.237 0.050 0.476 0.089 0.715 0.135 0.722 0.142 1.443 0.276 2.167 0.394 0.391 0.063 0.783 0.12 1.174 0.177 0.581 0.085 1.163 0.16 1.746 0.231 0.414 0.048 0.827 0.099 1.241 0.139 0.613 0.062 1.228 0.109 1.841 0.152 0.478 0.033 0.957 0.068 1.435 0.092 0.763 0.038 1.528 0.065 2.292 0.077 0.473 0.007 0.945 0.002 1.418-0.002 0.478-0.003 0.957-0.008 1.435-0.020 0.508-0.013 1.014-0.032 1.522-0.058 0.433-0.022 0.865-0.052 1.298-0.082 0.53-0.037 1.059-0.070 1.589-0.119 0.264-0.025 0.526-0.060 0.79-0.087 1.151-0.122 2.297-0.272 3.44-0.451 0.326-0.052 0.651-0.1 0.977-0.155 0.595-0.104 1.188-0.215 1.779-0.334 0.304-0.060 0.608-0.125 0.91-0.19 0.62-0.134 1.239-0.269 1.858-0.421 0.147-0.035 0.292-0.077 0.439-0.114 1.46-0.368 2.908-0.78 4.34-1.245 0.027-0.008 0.052-0.017 0.079-0.025 0.675-0.221 1.345-0.456 2.013-0.697 0.187-0.068 0.376-0.135 0.563-0.205 0.665-0.247 1.328-0.503 1.986-0.772 0.112-0.045 0.224-0.095 0.336-0.14 2.158-0.894 4.273-1.901 6.334-3.020 0.085-0.047 0.17-0.090 0.256-0.137 0.663-0.364 1.32-0.74 1.973-1.128 0.104-0.062 0.205-0.124 0.309-0.187 2.086-1.255 4.114-2.624 6.067-4.113v0c6.301-4.803 11.859-10.8 16.285-17.931 15.23-24.529 12.679-55.072-4.124-76.568 30.393 9.442 60.264 20.507 89.885 32.349l-183.164 461.106c7.556-62.618 6.4-111.372-0.57-149.314zM277.918 169.507l-48.332 4.266 17.059 90.974 31.273-95.24zM615.314 465.291l0.007-0.007-0.005 0.008zM994.449 145.235l-379.129 320.049c37.597-53.602 59.848-98.453 71.259-136.055l-618.576 582.552c-20.293 20.293-45.886-0.747-23.323-23.323l630.062-692.298c-9.552-13.882-21.25-24.808-32.968-33.473l163.090-189.432c23.123 13.877 44.695 29.252 65.085 45.771-13.112-1.084-26.676 1.662-38.934 8.738-19.439 11.222-31.103 30.723-33.147 51.477-0.319 3.239-0.401 6.508-0.246 9.782 0.008 0.169 0.017 0.339 0.025 0.508 0.040 0.725 0.090 1.45 0.154 2.173 0.017 0.182 0.037 0.364 0.055 0.548 0.207 2.145 0.523 4.288 0.94 6.421 0.074 0.374 0.144 0.748 0.224 1.123 0.114 0.531 0.239 1.061 0.366 1.592 0.11 0.458 0.226 0.915 0.346 1.373 0.127 0.481 0.254 0.961 0.391 1.44 0.169 0.586 0.351 1.169 0.536 1.752 0.114 0.356 0.217 0.713 0.336 1.069 0.307 0.912 0.636 1.821 0.986 2.726 0.125 0.324 0.261 0.645 0.391 0.969 0.259 0.641 0.525 1.283 0.805 1.919 0.149 0.341 0.304 0.678 0.459 1.017 0.299 0.65 0.611 1.296 0.932 1.941 0.145 0.292 0.287 0.586 0.438 0.877 0.479 0.925 0.974 1.846 1.5 2.758 0.523 0.907 1.071 1.791 1.629 2.663 0.17 0.266 0.346 0.526 0.52 0.788 0.408 0.618 0.825 1.229 1.251 1.829 0.194 0.274 0.388 0.546 0.585 0.817 0.479 0.656 0.971 1.3 1.47 1.934 0.134 0.169 0.262 0.344 0.396 0.511 0.626 0.78 1.27 1.54 1.926 2.287 0.195 0.222 0.399 0.438 0.598 0.658 0.478 0.528 0.962 1.049 1.455 1.56 0.252 0.262 0.508 0.521 0.765 0.778 0.478 0.479 0.964 0.949 1.455 1.413 0.242 0.229 0.481 0.461 0.725 0.685 0.7 0.641 1.412 1.268 2.137 1.878 0.232 0.195 0.471 0.379 0.707 0.571 0.52 0.424 1.044 0.844 1.575 1.251 0.331 0.254 0.667 0.503 1.002 0.75 0.454 0.334 0.912 0.663 1.373 0.986 0.354 0.247 0.707 0.496 1.064 0.737 0.501 0.336 1.009 0.66 1.518 0.981 0.563 0.356 1.131 0.703 1.704 1.041 0.491 0.291 0.982 0.581 1.482 0.859 0.439 0.246 0.885 0.479 1.33 0.713 0.391 0.205 0.782 0.409 1.176 0.608 0.476 0.239 0.952 0.474 1.433 0.702 0.354 0.169 0.713 0.327 1.069 0.489 1.821 0.824 3.673 1.565 5.556 2.222 0.276 0.097 0.553 0.195 0.83 0.287 0.601 0.2 1.204 0.393 1.811 0.576 0.246 0.074 0.491 0.145 0.737 0.217 2.168 0.63 4.367 1.154 6.588 1.565 0.075 0.013 0.149 0.030 0.222 0.043 0.722 0.13 1.447 0.247 2.173 0.354 0.152 0.022 0.306 0.043 0.458 0.065 3.147 0.441 6.331 0.662 9.527 0.651 0.080 0 0.162 0 0.242 0 0.793-0.005 1.587-0.023 2.382-0.057 0.015 0 0.030-0.002 0.045-0.002 2.461-0.105 4.925-0.349 7.38-0.732 7.94-1.236 15.793-3.912 23.169-8.172 25.004-14.436 37.173-42.565 32.507-69.447 22.336 22.665 43.447 46.519 63.971 70.94zM839.754 211.64l-47.264-19.897-27.439 86.739 74.704-66.842zM495.178 889.798l0.008-0.002-0.008 0.005z"/>
</svg>