<svg xmlns="http://www.w3.org/2000/svg" viewBox="0 -64 1024 1000" style="transform: scaleY(-1);">
<path fill="currentColor" d="M617.97 911.832c66.867-13.985 108.928-43.601 131.513-78.297-30.92 5.287-61.214 8.979-90.842 11.095l-37.683 34.783-38.459-32.831c-15.046-0.334-29.888-1.118-44.53-2.327l-58.817 32.347-29.786-45.554c-16.163-3.543-32.030-7.674-47.58-12.408l-58.826 29.88-22.586-61.435c-17.545-8.382-34.594-17.647-51.138-27.773l-65.275 10.586-0.892-57.989c-12.627-10.492-24.885-21.576-36.75-33.271h-70.466l7.133-73.108c-8.76-11.812-17.224-24.055-25.393-36.715l-40.709 7.327v-78.798c-0.030-0.060-0.062-0.119-0.092-0.179l0.005-0.003v-522.113h36.943c46.97 185.63 188.824 260.412 337.387 170.255 84.112-51.045 187.29-124.41 297.658-82.226-1.801-15.866-6.533-31.161-13.776-45.001l190.387-38.359c5.967 15.469 11.124 31.376 15.198 47.051-7.105-4.574-20.699-9.515-39.525-6.568-82.468 12.918-66.142 107.872-1.011 116.604 21.796 2.91 42.211-6.41 55.015-22.443l36.507 77.617c-135.977-12.134-258.816 61.522-394.317 33.276l0.005-0.002c70.821-14.809 113.809-47.157 135.31-84.504-14.642-1.128-28.786-1.191-42.473-0.312l-21.624 20.457-27.219-12.853c-11.937 3.037-23.453 6.899-34.582 11.493l-15.422 30.839-21.741-11.905c-14.281 8.75-27.82 18.83-40.641 30.109l-3.608 53.4-38.847-10.045c-14.986 15.226-30.244 27.324-45.662 36.628l-2.542 39.403-47.65-18.748c-23.39 5.394-46.867 5.245-70.051 0.511 88.308 180.505 267.723 184.475 361.069 128.874-10.437-11.341-22.769-20.647-36.223-27.488l132.906-141.613c13.833 9.148 27.252 19.114 39.66 29.531-8.441 0.409-28.241 10.035-34.868 16.13-68.949 63.371 14.151 127.44 65.621 97.034 18.938-11.187 30.682-29.691 31.824-50.176l69.36 47.62c-117.837 68.929-169.867 194.617-296.653 250.135l-0.007-0.002c46.117-49.864 63.291-98.104 61.811-139.311-17.831 13.484-37.158 24.198-57.606 32.362l-27.595 42.423-36.311-25.483c-10.369 1.513-20.896 2.517-31.554 3.025l-38.093 36.087-30.449-39.263c-15.821-2.13-31.736-5.187-47.642-9.126l-31.425 25.924-19.498-41.538c-13.955-5.098-27.808-10.825-41.485-17.166l-47.131 16.583-17.248-51.74c-24.462-15.502-47.846-32.922-69.612-52.022 68.81 274.962 412.677 341.797 589.238 302.731-2.238-13.576-6.632-26.636-12.896-38.608l190.387-38.359c5.967 15.47 11.124 31.366 15.198 47.046-7.105-4.569-14.967-10.628-23.886-9.411-92.462 12.6-87.469 109.292-16.653 119.451 21.77 3.134 42.211-6.418 55.019-22.443 1.996 20.335 3.59 71.216 4.347 91.692-135.98-12.138-226.655 47.435-362.15 19.207z"/>
</svg>