<svg xmlns="http://www.w3.org/2000/svg" viewBox="0 -64 1024 1000" style="transform: scaleY(-1);">
<path fill="currentColor" d="M338.127 103.518c-11.175-46.635-53.113-81.31-103.173-81.31-5.99 0-11.857 0.521-17.577 1.475l-37.666-56.277h205.488l37.769 140.878c-12.557-10.019-28.46-16.025-45.774-16.025-14.361 0-27.748 4.136-39.067 11.259zM651.040 310.089c6.582 6.351 12.674 13.203 18.217 20.498l318.79-214.457v206.624l-286.688 77.421c1.933 8.902 3.201 18.053 3.745 27.397l151.818-10.554c-6.874 9.296-10.943 20.792-10.943 33.241 0 30.914 25.062 55.974 55.974 55.974s55.974-25.060 55.974-55.974c0-15.243-6.102-29.056-15.986-39.151l46.107-3.206v171.429l-294.13-78.228c-3.206 8.454-7.033 16.601-11.434 24.382l305.565 150.346v250.898h-6.809l-81.521-81.521c27.574-8.098 47.714-33.573 47.714-63.769 0-36.71-29.759-66.47-66.47-66.47-30.194 0-55.67 20.141-63.769 47.714l-132.248-132.248c6.689-9.959 10.594-21.943 10.594-34.841 0-20.821-10.178-39.253-25.821-50.627-23.856 31.672-58.049 55.119-97.571 65.315 6.61 27.468 31.325 47.882 60.82 47.882 7.704 0 15.079-1.4 21.897-3.947l183.323 272.508h-206.619l-84.519-311.877c-6.393 0.697-12.884 1.064-19.463 1.064-0.743 0-1.483-0.018-2.225-0.028l21.060 310.842h-171.432l16.489-61.712c50.138-4.29 89.502-46.321 89.502-97.567 0-33.272-16.605-62.651-41.962-80.355l22.418-83.9c-6.557-2.629-12.923-5.635-19.067-8.994l-38.005 77.655c-6.872-1.527-14.007-2.359-21.339-2.359-54.098 0-97.955 43.857-97.955 97.955 0 30.386 13.838 57.538 35.553 75.505l-41 83.774h-250.903v-6.811l364.896-364.896c-4.308-4.931-8.342-10.103-12.093-15.492l-352.804 237.341v-206.624l81.8-22.032c-0.241 2.299-0.368 4.631-0.368 6.993 0 36.71 29.761 66.47 66.47 66.47s66.47-29.759 66.47-66.47c0-14.682-4.769-28.244-12.831-39.243l125.033-33.675c-1.635-6.39-2.913-12.921-3.834-19.568l-322.739 22.376v-171.431l325.138 86.3c1.433-6.563 3.219-12.995 5.356-19.266l-330.493-161.259v-252.038h6.811l107.759 107.478c-9.173 15.697-14.453 33.949-14.453 53.442 0 58.607 47.512 106.118 106.118 106.118 19.593 0 37.931-5.332 53.682-14.592l103.396 103.125c4.717-5.551 9.767-10.808 15.123-15.741l-46.865-70.023c5.429 1.28 11.084 1.976 16.904 1.976 31.089 0 57.65-19.322 68.377-46.606l21.018 78.395c7.546-2.755 15.333-5.003 23.318-6.725l-20.692-296.848h171.431l-78.212 296.258c8.762 1.741 17.291 4.124 25.538 7.101l79.93-163.793c11.667 19.145 32.74 31.929 56.799 31.929 36.709 0 66.47-29.759 66.47-66.47s-29.759-66.47-66.47-66.47c-2.618 0-5.194 0.169-7.733 0.463l19.042-39.021h252.038v5.676l-337.010 337.008z"/>
</svg>