<svg xmlns="http://www.w3.org/2000/svg" viewBox="0 -64 1024 1000" style="transform: scaleY(-1);">
<path fill="currentColor" d="M836.682 402.718c7.896-94.808-85.709-251.328-197.757-274.222-106.593-21.778-218.89 34.154-256.695 146.888 45.955-80.901 154.317-112.864 227.704-42.933-127.95-43.396-221.102 98.889-233.424 205.56-2.694-6.625-5.018-13.183-7.009-19.67-83.111-122.082-55.495-289.242 64.315-377.774 122.736-90.695 295.951-64.689 386.644 58.049l0.005 0.003c67.739 91.681 70.374 211.52 16.217 304.098zM540.261 513.063c58.709 26.226 75.813 97.982 8.676 141.309-123.005 79.384-183.805-165.026-329.297-133.606l-0.002-0.005c112.819-110.889 169.752 58.316 274.532 76.422 37.337 6.453 72.402-34.261 46.090-84.12zM511.198 714.816c90.040-27.573 162.007-103.508 171.412-190.995 3.466-32.272 0.63-63.030-12.046-88.485h0.003c59.001 19.598 97.183 65.098 91.011 122.528-8.69 80.881-100.578 152.822-204.030 160.243-16.912 1.214-31.118-1.123-46.351-3.291zM637.042 525.226c-0.723 10.076-3.54 18.761-6.339 28.044-10.041-52.309-53.554-90.693-110.3-90.73-20.933-0.018-41.438 3.65-59.335 12.889 18.218-36.685 51.609-62.527 88.859-62.491 52.465 0.052 91.545 50.637 87.115 112.288zM351.892 618.864c-105.586-19.546-268.95 27.718-265.046 162.769-69.381-138.913 113.866-286.085 265.046-162.769zM628.4 748.862c-108.105 168.948-230.732-9.236-367.743 6-48.82 5.426-80.532 65.252-32.427 114.441-81.626-10.272-124.793-88.285-53.609-162.313 130.419-135.627 280.629 129.193 453.779 41.872zM628.405 748.859l-0.005 0.003v-0.002zM605.319 840.675c24.528-13.863 45.824-30.6 59.967-50.373l0.003 0.005c5.733 43.471-14.303 87.725-57.944 112.393-61.463 34.741-144.549 17.373-184.846-38.321-6.59-9.107-9.694-18.402-13.269-28.204 50.355 38.103 129.602 42.081 196.088 4.5zM437.861 402.089c33.536-124.544 168.355-149.511 264.013-95.832-13.522-46.067-47.189-96.049-109.254-135.178 144.037 26.362 225.514 187.354 203.183 324.271l-0.005-0.005c-58.056-133.745-232.035-156.923-357.937-93.256z"/>
</svg>