<svg xmlns="http://www.w3.org/2000/svg" viewBox="0 -64 1024 1000" style="transform: scaleY(-1);">
<path fill="currentColor" d="M952.372 497.105c-50.361-2.988-110.791 15.44-158.743 53.225-29.646 23.36-49.889 50.405-60.010 77.026 48.317 39.149 77.782 91.161 77.782 148.214 0 9.535-11.426 18.277-31.093 26.014-2.718-10.753-8.728-21.821-17.762-31.65 0 0-0.002 0.002-0.002 0.002-1.365-1.483-2.791-2.942-4.293-4.363-25.311-23.976-60.334-29.307-78.227-11.907-0.002 0.002-0.003 0.003-0.005 0.005-0.773 0.752-1.487 1.544-2.17 2.354-0.13 0.154-0.264 0.307-0.391 0.463-0.643 0.792-1.246 1.607-1.807 2.449-0.109 0.164-0.212 0.331-0.319 0.498-0.551 0.86-1.074 1.737-1.542 2.643-0.015 0.028-0.032 0.055-0.045 0.084-0.476 0.927-0.897 1.884-1.286 2.857-0.075 0.187-0.152 0.374-0.226 0.563-0.362 0.95-0.688 1.919-0.971 2.908-0.052 0.18-0.097 0.362-0.145 0.545-0.269 0.994-0.506 2-0.695 3.025-0.010 0.050-0.022 0.1-0.032 0.15-0.19 1.061-0.329 2.142-0.436 3.231-0.020 0.204-0.042 0.409-0.058 0.613-0.090 1.071-0.144 2.155-0.154 3.251-0.002 0.179 0.003 0.361 0.003 0.541 0.002 1.092 0.035 2.192 0.115 3.304 0.005 0.065 0.005 0.13 0.010 0.195 0.087 1.148 0.224 2.307 0.391 3.471 0.030 0.212 0.060 0.426 0.094 0.64 0.179 1.144 0.393 2.295 0.65 3.451 0.038 0.175 0.084 0.351 0.125 0.526 0.262 1.133 0.558 2.27 0.894 3.409 0.027 0.090 0.048 0.18 0.077 0.272 0.352 1.178 0.755 2.357 1.186 3.538 0.084 0.229 0.167 0.456 0.252 0.683 0.438 1.161 0.909 2.32 1.422 3.48 0.080 0.18 0.165 0.359 0.247 0.54 0.498 1.101 1.029 2.2 1.594 3.296 0.072 0.137 0.137 0.276 0.209 0.414 0.598 1.144 1.243 2.28 1.913 3.414 2.619 4.425 5.773 8.758 9.463 12.881-29.46 4.509-62.462 8.083-96.973 10.587-25.912 4.24-52.578 6.463-79.807 6.465h-0.008c-16.242 0-32.277-0.81-48.078-2.339-47.836-0.391-93.959-3.067-133.282-8.394 0.398-0.362 0.798-0.717 1.191-1.087 5.648-5.351 10.329-11.179 14.004-17.196 0 0 0 0-0.002 0 0.77-1.261 1.492-2.532 2.173-3.809 0.042-0.077 0.084-0.154 0.125-0.231 0.678-1.281 1.311-2.568 1.898-3.855 0.020-0.045 0.040-0.090 0.060-0.135 0.586-1.293 1.128-2.591 1.62-3.887 0.005-0.015 0.012-0.028 0.017-0.043 0.489-1.291 0.93-2.584 1.328-3.874 0.030-0.1 0.058-0.199 0.089-0.299 0.768-2.542 1.356-5.075 1.757-7.576 0.022-0.137 0.043-0.274 0.063-0.413 0.376-2.461 0.57-4.888 0.581-7.267 0-0.157 0.002-0.316 0.002-0.473-0.007-1.183-0.050-2.355-0.149-3.51-0.003-0.035-0.008-0.068-0.012-0.102-0.097-1.109-0.246-2.203-0.428-3.282-0.027-0.154-0.048-0.309-0.077-0.461-0.199-1.092-0.439-2.167-0.727-3.222-0.035-0.125-0.075-0.249-0.11-0.374-0.277-0.977-0.595-1.938-0.95-2.88-0.047-0.122-0.087-0.246-0.134-0.366-0.389-0.996-0.825-1.966-1.303-2.917-0.080-0.16-0.167-0.317-0.251-0.478-0.471-0.899-0.976-1.781-1.528-2.634-0.037-0.058-0.070-0.119-0.109-0.175-0.586-0.892-1.226-1.751-1.904-2.588-0.127-0.157-0.257-0.312-0.388-0.468-0.698-0.83-1.427-1.639-2.218-2.407-17.892-17.401-52.917-12.071-78.228 11.905-1.727 1.635-3.356 3.319-4.901 5.036-0.002-0.002-0.003-0.002-0.005-0.003-10.522 11.688-16.817 25.062-18.415 37.546-18.89-8.728-29.826-19.518-29.826-32.583 0-56.542 28.949-108.123 76.494-147.149-9.983-26.965-30.359-54.419-60.401-78.090-47.951-37.783-108.385-56.213-158.743-53.225-4.729-24.357-6.754-48.891-6.754-74.516 0-184.841 127.536-342.395 305.665-397.855-54.001 42.007-52.917 141.265-13.509 190.728-174.284 139.237-100.005 289.366 70.826 348.887 2.372-0.521 4.756-1.021 7.153-1.498-22.418-23.632-36.333-56.494-36.333-92.85 0-61.427 39.695-112.891 93.095-126.644-17.298 18.514-28.961 53.327-28.961 93.254 0 59.324 25.729 107.415 57.466 107.415s57.466-48.091 57.466-107.415c0-39.936-11.668-74.754-28.971-93.264 53.422 13.736 93.139 65.212 93.139 126.654 0 37.662-14.936 71.571-38.787 95.357 2.674 0.621 5.329 1.275 7.968 1.949 167.958-54.528 212.466-220.167 56.669-351.843 50.156-49.037 29.176-147.421-13.509-190.728 178.129 55.46 307.355 213.012 307.355 397.855 0.003 25.617-3.713 50.156-8.441 74.511zM336.373 703.086c19.825 17.279 60.688 17.74 91.27 1.029 30.58-16.708 39.301-44.264 19.476-61.545-19.825-17.279-60.688-17.74-91.27-1.031-30.581 16.711-39.301 44.268-19.476 61.547zM597.241 704.119c30.581 16.711 71.444 16.25 91.27-1.029 19.825-17.281 11.105-44.837-19.476-61.549s-71.444-16.25-91.27 1.031c-19.825 17.279-11.104 44.835 19.476 61.547z"/>
</svg>