<svg xmlns="http://www.w3.org/2000/svg" viewBox="0 -64 1024 1000" style="transform: scaleY(-1);">
<path fill="currentColor" d="M754.989 865.782c-233.821 134.998-532.806 54.883-667.803-178.938s-54.883-532.807 178.938-667.803 532.806-54.883 667.803 178.939 54.883 532.806-178.938 667.802zM699.151 769.287c165.652-95.641 231.412-297.819 160.75-470.011l-492.512 492.512c104.361 42.587 226.591 38.22 331.763-22.501zM321.491 115.163c-165.709 95.673-231.459 297.957-160.678 470.188l492.618-492.618c-104.401-42.662-226.708-38.327-331.94 22.429zM743.332 144.919l-530.275 530.275c19.078 24.406 40.748 45.945 64.393 64.447l530.242-530.243c-19.065-24.416-40.724-45.966-64.36-64.479z"/>
</svg>