<svg xmlns="http://www.w3.org/2000/svg" viewBox="0 -64 1024 1000" style="transform: scaleY(-1);">
<path fill="currentColor" d="M989.264 223.031l-152.302 249.078 20.722 35.898-4.261 2.461c34.318 62.72 35.339 144.454-0.675 239.74-78.529-12.605-138.576-40.302-178.908-80.47-3.119 2.208-6.433 4.337-9.959 6.373-3.585 2.070-7.141 3.901-10.671 5.516 14.845 55.035 9.191 120.755-18.728 194.62-101.371-16.274-171.953-57.685-209.060-118.627l-4.261 2.461-20.722-35.9-291.815 7.383-91.903-159.208 238.4-99.919-26.18-45.353 57.020-32.927c-59.452-24.289-103.619-60.055-131.428-105.554l209.967-121.246c25.52 46.86 34.744 102.876 26.489 166.15l56.21-32.459 61.079 105.811c0.002-0.002 0.005-0.003 0.007-0.005l-61.079-105.811 57.017-32.925c-59.45-24.289-103.619-60.055-131.428-105.554l209.967-121.246c25.52 46.86 34.744 102.876 26.489 166.15l56.211-32.461 26.18 45.353 205.719-156.54 91.904 159.211z"/>
</svg>