<svg xmlns="http://www.w3.org/2000/svg" viewBox="0 -64 1024 1000" style="transform: scaleY(-1);">
<path fill="currentColor" d="M984.699 161.656l-60.626 226.254c-28.707 36.208-84.18 9.816-99.158-29.967-11.967-31.764-101.206-48.968-129.782 57.641s64.823 121.811 98.299 93.874c28.532-23.816 102.559-23.567 80.517 61.343l-3.787 12.639c1.49-4.408 2.743-8.616 3.787-12.639l10.569-35.269-51.846 193.491-277.031-74.231c-38.14 16.954-51.706 62.758-20.751 88.674 61.848 51.78 20.629 191.62-103.492 158.352s-77.707-179.447-27.879-189.146c9.908-1.926 30.157-59.412 10.821-95.741l-210.187-56.32 56.043-209.155c-9.31-37.836-69.129-43.539-102.729-16.013-26.039 21.355-137.737-18.723-109.381-124.557s152.985-66.264 161.254-23.778c2.031 10.471 56.955 49.371 90.69 15.686l56.148-209.551 228.895 61.333c58.654 28.827 11.331 71.543-28.777 86.684-31.744 11.957-53.026 129.622 53.594 158.189s134.876-100.105 101.974-128.717c-8.25-7.171-26.756-86.098 31.47-73.638l-7.313-2.073 11.5 3.082c-1.438-0.391-2.821-0.715-4.175-1.006l10.716 3.039c-2.195-0.765-4.301-1.42-6.326-1.976l236.965 63.495z"/>
</svg>