<svg xmlns="http://www.w3.org/2000/svg" viewBox="0 -64 1024 1000" style="transform: scaleY(-1);">
<path fill="currentColor" d="M659.808 441.253c0-83.905-68.018-151.923-151.923-151.923s-151.923 68.018-151.923 151.923c0 83.905 68.018 151.923 151.923 151.923s151.923-68.018 151.923-151.923zM332.306 509.704c0-44.42-36.010-80.43-80.43-80.43s-80.43 36.010-80.43 80.43c0 44.42 36.010 80.43 80.43 80.43s80.43-36.010 80.43-80.43zM141.285 553.328c0-28.791-23.34-52.13-52.13-52.13s-52.13 23.34-52.13 52.13c0 28.791 23.34 52.13 52.13 52.13s52.13-23.34 52.13-52.13zM847.274 371.674c0-44.42-36.010-80.43-80.43-80.43s-80.43 36.010-80.43 80.43c0 44.42 36.010 80.43 80.43 80.43s80.43-36.010 80.43-80.43zM981.47 328.247c0-28.791-23.34-52.13-52.13-52.13s-52.13 23.34-52.13 52.13c0 28.791 23.34 52.13 52.13 52.13s52.13-23.34 52.13-52.13zM520.605 698.349c0-44.421-36.010-80.432-80.432-80.432s-80.432 36.010-80.432 80.432c0 44.421 36.010 80.432 80.432 80.432s80.432-36.010 80.432-80.432zM448.874 860.844c0-28.791-23.34-52.13-52.13-52.13s-52.13 23.34-52.13 52.13c0 28.791 23.34 52.13 52.13 52.13s52.13-23.34 52.13-52.13zM658.629 183.382c0-44.421-36.010-80.432-80.432-80.432s-80.432 36.010-80.432 80.432c0 44.421 36.010 80.432 80.432 80.432s80.432-36.010 80.432-80.432zM673.957 20.656c0-28.791-23.34-52.13-52.13-52.13s-52.13 23.34-52.13 52.13c0 28.791 23.34 52.13 52.13 52.13s52.13-23.34 52.13-52.13zM778.051 629.465c0-44.422-36.011-80.433-80.433-80.433s-80.433 36.011-80.433 80.433c0 44.422 36.011 80.433 80.433 80.433s80.433-36.011 80.433-80.433zM869.045 748.343c0-28.791-23.34-52.13-52.13-52.13s-52.13 23.34-52.13 52.13c0 28.791 23.34 52.13 52.13 52.13s52.13-23.34 52.13-52.13zM401.107 252.545c0-44.422-36.011-80.433-80.433-80.433s-80.433 36.011-80.433 80.433c0 44.422 36.011 80.433 80.433 80.433s80.433-36.011 80.433-80.433zM253.94 133.239c0-28.791-23.34-52.13-52.13-52.13s-52.13 23.34-52.13 52.13c0 28.791 23.34 52.13 52.13 52.13s52.13-23.34 52.13-52.13zM470.908 105.399c0-28.836-23.376-52.212-52.212-52.212s-52.212 23.376-52.212 52.212c0 28.836 23.376 52.212 52.212 52.212s52.212-23.376 52.212-52.212zM647.547 764.628c0-28.836-23.376-52.212-52.212-52.212s-52.212 23.376-52.212 52.212c0 28.836 23.376 52.212 52.212 52.212s52.212-23.376 52.212-52.212zM229.904 346.743c0-28.837-23.377-52.214-52.214-52.214s-52.214 23.377-52.214 52.214c0 28.837 23.377 52.214 52.214 52.214s52.214-23.377 52.214-52.214zM889.133 523.383c0-28.836-23.376-52.212-52.212-52.212s-52.212 23.376-52.212 52.212c0 28.836 23.376 52.212 52.212 52.212s52.212-23.376 52.212-52.212zM318.302 676.207c0-28.837-23.377-52.214-52.214-52.214s-52.214 23.377-52.214 52.214c0 28.837 23.377 52.214 52.214 52.214s52.214-23.377 52.214-52.214zM800.893 193.615c0-28.837-23.377-52.214-52.214-52.214s-52.214 23.377-52.214 52.214c0 28.837 23.377 52.214 52.214 52.214s52.214-23.377 52.214-52.214z"/>
</svg>