<svg xmlns="http://www.w3.org/2000/svg" viewBox="0 -64 1024 1000" style="transform: scaleY(-1);">
<path fill="currentColor" d="M453.751 928.008v-486.559c-128.899-30.97-208.307-160.572-177.337-289.471 26.252-109.349 124.909-185.795 237.344-183.937 132.538-0.251 240.205 106.964 240.456 239.528 0.226 109.8-74.112 205.722-180.474 232.977v187.501h119.99v89.999h-119.99v89.973h179.997v119.99h-299.987zM504.372 328.035c1.556 0.025 3.112 0.025 4.693 0 1.556 0.025 3.112 0.025 4.693 0 66.282 0 119.99-53.733 119.99-119.99s-53.733-119.99-119.99-119.99c-66.282-2.259-121.847 49.642-124.106 115.924-2.259 65.805 48.94 121.169 114.719 124.055v0z"/>
</svg>