<svg xmlns="http://www.w3.org/2000/svg" viewBox="0 -64 1024 1000" style="transform: scaleY(-1);">
<path fill="currentColor" d="M874.848 692.307l20.149 32.362 48.409-30.14 34.094 49.757-85.846 58.821c-48.41-70.651-107.781-38.103-165.52 0.899l52.921 77.229-67.237 46.075-359.745-524.991-45.789 31.958c-48.85 34.093-109.16-50.936-59.658-85.483l46.523-32.467-6.729-9.821c-91.193 45.848-190.357 37.141-233.258-25.47h0.003c-48.572-70.877-6.692-184.079 92.893-252.323s219.468-65.878 268.034 5c43.031 62.8 15.691 158.383-60.366 226.825l6.264 9.141 39.62-27.65c45.43-31.704 106.214 52.991 59.658 85.483l-40.352 28.159 209.454 305.667c55.401-38.232 110.589-81.066 66.911-144.81l85.842-58.821 57.678 84.173-53.696 33.431 22.034 35.387 55.249-34.4 35.86 52.333-75.298 46.883 22.034 35.387 29.863-18.594zM197.871 63.131c-36.326 0-65.775 29.449-65.775 65.773s29.447 65.773 65.775 65.773 65.775-29.449 65.775-65.773c-0.002-36.326-29.449-65.773-65.775-65.773z"/>
</svg>