<svg xmlns="http://www.w3.org/2000/svg" viewBox="0 -64 1024 1000" style="transform: scaleY(-1);">
<path fill="currentColor" d="M533.497 775.361c21.277-24.92 30.652-57.648 12.529-110.582 144.483-49.464 280.751-105.651 446.763-93.902-121.26 96.644-257.821 168.962-446.989 240.416l6.704 19.583-282.973 96.879-30.765-89.86c99.545-17.035 194.184-48.424 282.973-96.879l11.758 34.345zM544.245 533.942l16.143 21.043-304.098 233.295-74.084-96.568c113.941-61.368 216.059-138.161 304.098-233.295l28.316 36.909c15.657-38.96 13.671-82.541-29.97-139.426 155.267-119.116 297.815-243.042 504.247-296.606-107.786 166.927-244.095 310.564-444.653 474.648zM279.093 504.332l-161.637 278.007-88.283-51.329c68.867-83.953 123.638-176.108 161.637-278.007l33.744 19.618c-0.269-35.229-15.704-68.418-67.709-98.653 82.528-141.945 153.653-283.568 296.788-390.949-30.436 163.914-90.438 318.847-193.778 510.127l19.239 11.185z"/>
</svg>