<svg xmlns="http://www.w3.org/2000/svg" viewBox="0 -64 1024 1000" style="transform: scaleY(-1);">
<path fill="currentColor" d="M582.624 429.227l82.234 86.866c35.008-15.086 73.614-14.541 101.804 13.646l229.842 229.839-44.156 44.151-160.259-168.116-30.227 28.816 160.948 168.838-33.095 33.095-164.445-172.506-30.227 28.816 165.133 173.23-31.594 31.594-229.84-229.84c-29.345-29.345-30.167-66.122-15.744-99.702l-86.541-82.568-418.545 418.494c-128.656-137.325 115.324-456.27 338.643-494.727l-382.445-364.891c-23.798-88.814 21.494-132.634 109.147-109.145l361.155 381.498 316.69-382.241c90.926-24.361 137.906 21.086 113.216 113.208l-351.695 351.65z"/>
</svg>