<svg xmlns="http://www.w3.org/2000/svg" viewBox="0 -64 1024 1000" style="transform: scaleY(-1);">
<path fill="currentColor" d="M191.687 832.221h638.956zM543.113 480.795v-479.177c117.142 0.406 234.284 5.284 351.426 63.856l-63.896 766.747c-319.478 127.791-319.478 127.791-638.956 0l-63.896-766.747c117.142-58.572 234.284-63.448 351.426-63.856v479.177h-255.582v95.843h575.060v-95.843h-255.582zM638.956 225.212h-31.948v31.948h31.948v-31.948zM638.956 289.108h-31.948v31.948h31.948v-31.948zM638.956 353.004h-31.948v31.948h31.948v-31.948zM702.852 225.212h-31.948v31.948h31.948v-31.948zM702.852 289.108h-31.948v31.948h31.948v-31.948zM702.852 353.004h-31.948v31.948h31.948v-31.948zM766.747 225.212h-31.948v31.948h31.948v-31.948zM766.747 289.108h-31.948v31.948h31.948v-31.948zM766.747 353.004h-31.948v31.948h31.948v-31.948zM383.374 384.951h31.948v-31.948h-31.948v31.948zM383.374 321.056h31.948v-31.948h-31.948v31.948zM383.374 257.16h31.948v-31.948h-31.948v31.948zM319.478 384.951h31.948v-31.948h-31.948v31.948zM319.478 321.056h31.948v-31.948h-31.948v31.948zM319.478 257.16h31.948v-31.948h-31.948v31.948zM255.582 384.951h31.948v-31.948h-31.948v31.948zM255.582 321.056h31.948v-31.948h-31.948v31.948zM255.582 257.16h31.948v-31.948h-31.948v31.948zM319.478 608.586c-8.822 0-15.975 7.151-15.975 15.975s7.151 15.975 15.975 15.975 15.975-7.151 15.975-15.975-7.153-15.975-15.975-15.975zM415.321 608.586c-8.822 0-15.975 7.151-15.975 15.975s7.151 15.975 15.975 15.975 15.975-7.151 15.975-15.975-7.153-15.975-15.975-15.975zM511.165 608.586c-8.822 0-15.975 7.151-15.975 15.975s7.151 15.975 15.975 15.975 15.975-7.151 15.975-15.975-7.153-15.975-15.975-15.975zM607.008 608.586c-8.822 0-15.975 7.151-15.975 15.975s7.151 15.975 15.975 15.975 15.975-7.151 15.975-15.975-7.153-15.975-15.975-15.975zM702.852 608.586c-8.822 0-15.975 7.151-15.975 15.975s7.151 15.975 15.975 15.975 15.975-7.151 15.975-15.975-7.153-15.975-15.975-15.975z"/>
</svg>