<svg xmlns="http://www.w3.org/2000/svg" viewBox="0 -64 1024 1000" style="transform: scaleY(-1);">
<path fill="currentColor" d="M576.771 450.863l-139.172 119.892c14.214 34.517 5.604 75.676-24.23 101.376-37.268 32.105-93.503 27.919-125.606-9.346-32.103-37.267-27.919-93.501 9.35-125.605 29.656-25.547 71.307-28.091 103.267-9.298l137.904-118.799 27.304-141.471 406.493-195.746-253.763 373.038-141.546 5.959zM323.146 566.635c-20.831 17.944-23.171 49.378-5.227 70.207 17.944 20.831 49.376 23.169 70.208 5.225s23.171-49.376 5.227-70.207c-17.944-20.831-49.376-23.169-70.208-5.225zM175.973 662.85c30.062 19.795 45.539 57.267 35.713 93.941-12.275 45.813-59.364 73-105.175 60.723-45.811-12.275-72.996-59.362-60.722-105.175 9.767-36.455 41.583-61.089 77.253-63.458l45.424-169.521-55.025-127.566 217.713-376.625 0.232 435.023-109.57 81.573-45.843 171.085zM82.525 721.687c-6.861 25.607 8.334 51.927 33.941 58.789s51.927-8.334 58.787-33.942c6.862-25.608-8.334-51.928-33.941-58.789s-51.927 8.334-58.787 33.942zM275.508 780.74c37.268-32.103 93.503-27.919 125.606 9.346 2.614 3.035 4.963 6.206 7.096 9.468l130.643-35.005 71.145-95.563 373.060 0.202-322.981 186.7-107.565-46.401-129.923 34.813c1.139 26.31-9.325 52.865-30.827 71.389-37.268 32.105-93.503 27.919-125.606-9.346-32.101-37.267-27.917-93.501 9.351-125.605zM321.212 894.581c25.607 6.861 51.927-8.334 58.787-33.942 6.862-25.608-8.334-51.928-33.941-58.789s-51.927 8.334-58.787 33.942c-6.861 25.607 8.334 51.927 33.941 58.789z"/>
</svg>