<svg xmlns="http://www.w3.org/2000/svg" viewBox="0 -64 1024 1000" style="transform: scaleY(-1);">
<path fill="currentColor" d="M867.141 572.554l-309.789 219.171c14.844 12.661 24.269 31.487 24.269 52.526 0 38.12-30.902 69.024-69.024 69.024s-69.024-30.904-69.024-69.024c0-20.587 9.024-39.059 23.32-51.704l-309.656-219.993h709.904zM676.628 69.27l130.566 464.752h-590.014l130.566-464.752h328.883zM533.688 482.036c104.578-82.951-16.3-135.91 31.849-196.302 19.852-24.898 59.927-3.361 69.602 44.705 25.603-92.479-23.752-199.408-121.278-199.408-42.078 1.276-77.924 34.046-100.287 83.961-33.249 126.261 178.039 171.74 120.114 267.043zM204.633 37.075h602.563v-56.796h-602.563v56.796z"/>
</svg>