<svg xmlns="http://www.w3.org/2000/svg" viewBox="0 -64 1024 1000" style="transform: scaleY(-1);">
<path fill="currentColor" d="M988.347-30.305l-0.005 0.008-0.002 48.768-339.074 341.643c-14.212 35.613-18.998 64.975-22.777 91.674 12.328-4.173 26.494-1.383 36.319 8.448 13.798 13.803 13.795 36.181-0.002 49.982-13.071 13.075-33.827 13.741-47.705 2.043-7.726 25.379-21.451 50.974-50.305 80.669-30.185 31.056-75.287 40.482-118.712 29.208l41.807 41.807-75.019 75.019 39.049 39.049-99.572 99.572-39.049-39.049-102.948 102.948h-190.076v-201.74l97.116-97.116-38.16-38.16 99.572-99.572 38.159 38.159 75.019-75.019 154.073 154.073c35.417 2.708 71.76-9.445 98.844-36.537 49.242-49.259 49.257-129.126 0.007-178.393-30.222-30.234-71.959-41.874-111.081-35-2.083 7.412-6.027 14.41-11.855 20.241-13.651 13.654-33.688 17.027-50.497 10.125-1.662 1.497-3.298 3.040-4.898 4.641-25.334 25.343-37.599 58.792-36.866 92.006-8.012-39.204 0.316-79.027 25.902-107.488-17.431-18.188-17.214-47.072 0.685-64.98 18.135-18.14 47.537-18.146 65.675-0.002 4.081 4.081 7.235 8.737 9.478 13.703 48.736-16.441 96.473-6.52 166.159-30.999l45.779-46.127c-13.005-13.852-12.776-35.616 0.753-49.15 13.469-13.474 35.087-13.758 48.945-0.924l241.696-243.53h53.567zM435.001 282.439c-10.739-10.744-10.739-28.169 0.002-38.915s28.157-10.749 38.9-0.002c10.743 10.746 10.739 28.169-0.002 38.915s-28.161 10.744-38.9 0.002zM698.31 573.062c19.398 19.404 19.393 50.861-0.002 70.262s-50.846 19.399-70.237 0.002c-19.391-19.398-19.393-50.861 0.002-70.262s50.839-19.406 70.237-0.002zM693.529 389.453c10.741-10.746 28.157-10.749 38.9-0.002s10.739 28.171-0.002 38.915c-10.741 10.746-28.161 10.744-38.9 0.002-10.739-10.744-10.739-28.169 0.002-38.915z"/>
</svg>