<svg xmlns="http://www.w3.org/2000/svg" viewBox="0 -64 1024 1000" style="transform: scaleY(-1);">
<path fill="currentColor" d="M31.992 88.256v-60.009h960v60.009c0 60.009 0 60.009-60.009 60.009 0 0-29.992 60.009-60.009 60.009-60.009 0-60.009-90.002-119.994-90.002-60.009 0-60.009 90.002-119.994 90.002s-60.009-90.002-119.994-90.002-60.009 90.002-119.994 90.002-60.009-90.002-119.994-90.002-60.009 90.002-119.994 90.002c-29.992 0-60.009-60.009-60.009-60.009-60.009 0-60.009 0-60.009-60.009zM271.452 688.525c0.276-49.569-39.655-89.951-89.224-90.253-49.569-0.276-89.951 39.655-90.253 89.224 0 0.351 0 0.678 0 1.029-0.276 49.569 39.655 89.951 89.224 90.253 49.569 0.276 89.951-39.655 90.253-89.224 0.025-0.301 0.025-0.678 0-1.029zM601.993 778c0.276-49.569-39.655-89.951-89.224-90.253-49.569-0.276-89.951 39.655-90.253 89.224 0 0.351 0 0.678 0 1.029-0.276 49.569 39.655 89.951 89.224 90.253 49.569 0.276 89.951-39.655 90.253-89.224 0-0.351 0-0.678 0-1.029zM932.007 688.525c0.276-49.569-39.655-89.951-89.224-90.253-49.569-0.276-89.951 39.655-90.253 89.224 0 0.351 0 0.678 0 1.029-0.276 49.569 39.655 89.951 89.224 90.253 49.569 0.276 89.951-39.655 90.253-89.224 0-0.301 0-0.678 0-1.029zM572.001 478.003c0.201-32.979-26.403-59.884-59.382-60.085s-59.884 26.403-60.085 59.382c0 0.226 0 0.452 0 0.678-0.201 32.979 26.403 59.884 59.382 60.085s59.884-26.403 60.085-59.382c0-0.201 0-0.452 0-0.678zM301.996 238.267c0.1-16.565-13.252-30.067-29.816-30.168s-30.067 13.252-30.168 29.816c0 0.125 0 0.226 0 0.351-0.1 16.565 13.252 30.067 29.816 30.168s30.067-13.252 30.168-29.816c0-0.125 0-0.251 0-0.351zM301.996 418.044c0.201-32.979-26.403-59.884-59.382-60.085s-59.884 26.403-60.085 59.382c0 0.226 0 0.452 0 0.678-0.201 32.979 26.403 59.884 59.382 60.085s59.884-26.403 60.085-59.382c0-0.251 0-0.477 0-0.678zM842.006 418.044c0.201-32.979-26.403-59.884-59.382-60.085s-59.884 26.403-60.085 59.382c0 0.226 0 0.452 0 0.678-0.201 32.979 26.403 59.884 59.382 60.085s59.884-26.403 60.085-59.382c0-0.251 0-0.477 0-0.678zM542.009 268.259c0.1-16.565-13.252-30.067-29.816-30.168s-30.067 13.252-30.168 29.816c0 0.125 0 0.226 0 0.351-0.1 16.565 13.252 30.067 29.816 30.168s30.067-13.252 30.168-29.816c0-0.125 0-0.226 0-0.351zM781.996 238.267c0.1-16.565-13.252-30.067-29.816-30.168s-30.067 13.252-30.168 29.816c0 0.125 0 0.226 0 0.351-0.1 16.565 13.252 30.067 29.816 30.168s30.067-13.252 30.168-29.816c0-0.125 0-0.251 0-0.351z"/>
</svg>