<svg xmlns="http://www.w3.org/2000/svg" viewBox="0 -64 1024 1000" style="transform: scaleY(-1);">
<path fill="currentColor" d="M898.619 654.923c-1.848-5.569-3.742-11.172-5.638-16.807 21.572-105.467 13.594-220.065-40.816-345.175 7.896 80.356 6.59 157.217-5.828 230.894-14.657-28.517-33.349-56.146-52.473-83.961 2.713-79.902-12.176-164.233-51.31-254.216 6.278 63.909 5.128 125.514-1.164 185.418-25.628-29.141-54.235-57.15-86.293-82.797-7.591-50.672-21.875-103.145-45.482-157.43 4.235 43.137 4.915 85.749 3.496 127.106-71.065-48.332-155.463-86.983-257.712-108.447 86.103 48.325 154.818 98.182 211.068 149.265-37.003 7.709-75.076 12.777-113.113 16.326 50.288 12.707 99.963 17.665 148.101 16.326 34.398 35.177 63.139 70.557 86.293 107.284-64.163 11.538-129.101 14.874-194.745 10.492 75.37 36.473 150.451 49.212 225.061 44.313 19.277 39.682 32.454 80.729 41.981 122.441-56.743 5.362-118.52-8.102-188.914-25.655 63.562 58.228 132.266 83.52 200.574 90.959 3.553 28.903 5.422 57.86 5.76 87.718-315.121 224.233-231.651-529.919-725.274-651.082 406.167-251.603 1192.676 113.245 846.43 537.029zM825.227 900.939c20.091 9.774 44.48 10.349 62.972-6.996 10.554-99.306-21.77-309.203-149.265-455.959 97.235 177.214 104.361 305.538 86.293 462.952v0.003z"/>
</svg>