<svg xmlns="http://www.w3.org/2000/svg" viewBox="0 -64 1024 1000" style="transform: scaleY(-1);">
<path fill="currentColor" d="M337.083 349.195c24.883 0 45.059 20.168 45.059 45.059s-20.178 45.051-45.059 45.051c-24.883 0-45.059-20.158-45.059-45.051s20.176-45.059 45.059-45.059v0zM119.504 393.965c0 118.54 95.493 214.766 213.742 215.955-2.329 17.665-3.421 35.967-2.88 55.167 10.746 376.114 595.26 298.198 506.898-62.725-32.72-133.663-89.801-260.696-142.523-376.675-49.282-108.442 27.27-100.451 34.42-65.488l166.924-3.633c-6.079-278.147-516.377-220.497-353.347 138.205 53.467 117.641 97.773 232.73 132.348 347.308 39.562 131.064-261.083 180.152-152.718-99.338 15.539-40.093 29.038-89.347 28.806-137.847l0.271-10.92c0-119.273-96.69-215.964-215.974-215.964s-215.967 96.679-215.967 215.954z"/>
</svg>