<svg xmlns="http://www.w3.org/2000/svg" viewBox="0 -64 1024 1000" style="transform: scaleY(-1);">
<path fill="currentColor" d="M733.708 308.012c-0.075-123.708-99.388-223.925-221.842-223.849-122.328 0.075-221.49 100.267-221.565 223.849-0.075 123.708 99.112 224.075 221.565 224.151s221.766-100.141 221.842-223.849c0-0.125 0-0.226 0-0.301zM511.991 867.999c55.416-168.006 110.858-168.006 110.858-279.994 0 0-55.416-55.994-110.858-55.994-55.416 0-110.858 55.994-110.858 55.994 0.025 111.987 55.442 111.987 110.858 279.994zM991.991 27.993c-171.721 35.514-199.429-13.001-295.429 42.993 0 0-20.279 76.499 7.429 124.988s103.429 68.995 103.429 68.995c96-55.944 68.292-104.458 184.571-236.976zM31.991 27.993c116.279 132.493 88.571 181.007 184.571 237.001 0 0 75.721-20.505 103.429-68.995s7.429-124.988 7.429-124.988c-96-56.019-123.708-7.504-295.429-43.018z"/>
</svg>