<svg xmlns="http://www.w3.org/2000/svg" viewBox="0 -64 1024 1000" style="transform: scaleY(-1);">
<path fill="currentColor" d="M511.992 640.008c-99.413 0-180.003-85.961-180.003-192s80.59-192 180.003-192 180.003 85.961 180.003 192-80.59 192-180.003 192zM466.991 591.996h90.002v-96h90.002v-96h-90.002v-96h-90.002v96h-90.002v96h90.002v96zM511.992 928.008c45.001-143.987 90.002-143.987 90.002-240.013 0 0-45.001-48.013-90.002-48.013s-90.002 48.013-90.002 48.013c0 96 45.001 96 90.002 240.013zM511.992-31.992c-45.001 143.987-90.002 143.987-90.002 240.013 0 0 45.001 48.013 90.002 48.013s90.002-48.013 90.002-48.013c0-96.025-45.001-96.025-90.002-240.013z"/>
</svg>