<svg xmlns="http://www.w3.org/2000/svg" viewBox="0 -64 1024 1000" style="transform: scaleY(-1);">
<path fill="currentColor" d="M783.527 448.010c-0.502-149.961-122.479-271.134-272.439-270.632-149.258 0.502-270.13 121.374-270.632 270.632-0.502 149.961 120.671 271.937 270.632 272.439s271.937-120.671 272.439-270.632c0-0.602 0-1.205 0-1.807zM31.991 928.011c192-96 240.013-48.013 335.988-143.988 0 0 0-96-48.013-143.988-48.013-48.013-144.013-48.013-144.013-48.013-95.95 95.975-47.962 143.988-143.962 335.988v0zM991.991-31.99c-192 96-240.013 48.013-335.988 143.988 0 0 0 96 48.013 143.988 48.013 48.013 144.013 48.013 144.013 48.013 95.975-96 47.962-143.988 143.962-335.988v0zM991.991 928.011c-96-192-48.013-240.013-144.013-336.013 0 0-96 0-144.013 48.013s-48.013 143.988-48.013 143.988c96.050 96 144.038 48.013 336.038 144.013v0zM31.991-31.99c96 192 48.013 240.013 144.013 336.013 0 0 96 0 144.013-48.013s48.013-143.988 48.013-143.988c-96.025-96.025-144.038-48.013-336.038-144.013v0z"/>
</svg>