<svg xmlns="http://www.w3.org/2000/svg" viewBox="0 -64 1024 1000" style="transform: scaleY(-1);">
<path fill="currentColor" d="M511.993 719.519c-149.961 0-271.536-121.575-271.536-271.536s121.575-271.536 271.536-271.536 271.536 121.575 271.536 271.536c0 149.986-121.575 271.536-271.536 271.536zM444.127 651.654h135.755v-135.755h135.755v-135.755h-135.755v-135.755h-135.755v135.755h-135.755v135.755h135.755v135.755zM31.992 928.008c192-96 240.013-48.013 335.988-143.988 0 0 0-96-48.013-143.988-48.013-48.013-144.013-48.013-144.013-48.013-95.95 95.975-47.962 143.988-143.963 335.988v0zM991.993-31.993c-192 96-240.013 48.013-335.988 143.988 0 0 0 96 48.013 143.988 48.013 48.013 144.013 48.013 144.013 48.013 95.975-96 47.962-143.988 143.963-335.988v0zM991.993 928.008c-96-192-48.013-240.013-144.013-336.013 0 0-96 0-144.013 48.013s-48.013 143.988-48.013 143.988c96.050 96 144.038 48.013 336.038 144.013v0zM31.992-31.993c96 192 48.013 240.013 144.013 336.013 0 0 96 0 144.013-48.013s48.013-143.988 48.013-143.988c-96.025-96.025-144.038-48.013-336.038-144.013v0z"/>
</svg>