<svg xmlns="http://www.w3.org/2000/svg" viewBox="0 -64 1024 1000" style="transform: scaleY(-1);">
<path fill="currentColor" d="M68.494 199.193h885.015v-165.642h-885.015v165.642zM584.53 332.681v101.912c49.241 26.748 81.721 76.997 81.721 134.689 0 84.511-69.685 153.015-155.613 153.015s-155.603-68.504-155.603-153.015c0-57 31.687-106.718 78.698-133.050v-103.551l-0.611-63.037h-364.639v165.632h132.235c-19.947 40.892-31.066 86.415-31.066 134.373 0 177.778 152.812 321.905 341.323 321.905s341.323-144.127 341.323-321.905c0-47.958-11.119-93.481-31.066-134.373h132.245v-165.632h-368.924l-0.022 63.037z"/>
</svg>