<svg xmlns="http://www.w3.org/2000/svg" viewBox="0 -64 1024 1000" style="transform: scaleY(-1);">
<path fill="currentColor" d="M379.775 210.678l545.323 545.326 69.348 173.826-173.821-69.358-545.321-545.313zM97.141 334.014l0.002 0.002-0.002 0.002zM182.494 419.368l-85.351-85.353 119.369-119.369-188.095-188.095 61.824-61.824 188.095 188.095 119.456-119.457 85.353 85.354c-125.902 72.687-228.783 176.168-300.65 300.648zM289.662 574.029l120.753-111.86 75.564 75.562-63.027 58.386 62.163 57.583-445.223 266.761 311.874-288.902zM734.838 307.197l-126.316 117.015-75.564-75.564 73.511-68.097-57.907-53.646 445.223-266.761-316.795 293.464z"/>
</svg>