<svg xmlns="http://www.w3.org/2000/svg" viewBox="0 -64 1024 1000" style="transform: scaleY(-1);">
<path fill="currentColor" d="M764.844 762.759c18.967 53.238 20.939 109.157 7.836 161.916h-0.003v-0.003c-1.35-48.616-16.27-98.388-44.313-143.437-74.804-120.176-225.111-173.4-363.129-139.605 10.399 4.614 20.432 9.652 30.012 15.173 77.984 44.926 114.377 110.731 108.449 183.079-14.75-43.554-49.175-82.5-100.287-111.948-95.94-55.273-235.64-63.269-374.326-33.815v-74.632c81.952-16.324 163.915-19.114 236.756-6.872 8.357-5.71 17.074-11.090 26.268-16.077l-1.303-0.085 210.927-245.419-185.787-40.738 598.327-340.584-218.317 351.488 115.904 29.841-182.8 250.903c41.105 23.931 76.995 56.704 103.97 97.414 80.752-29.297 169.341-39.822 254.226-32.73v78.133c-73.596-7.18-150.149-1.549-222.41 17.999z"/>
</svg>