<svg xmlns="http://www.w3.org/2000/svg" viewBox="0 -64 1024 1000" style="transform: scaleY(-1);">
<path fill="currentColor" d="M197.958 693.533c187.636-155.922 173.203-208.263 22.109-417.533 82.142-57.902 156.959-215.202 130.454-304.419h-320.55l12.181 945.742c140.868-13.641 241.278-140.527 155.81-223.79h-0.003zM349.314 923.657c-134.555-269.756 164.964-532.859 507.789-437.966-18.193-153.042-1.908-302.389 121.779-308.508v746.479l-629.568-0.005zM492.198-26.837c-86.86 46.843-113.54 106.341-124.985 162.671 129.245 14.668 236.679-29.399 274.803-164.253l-149.818 1.582zM414.555 488.925c-199.68-242.942-68.623-367.243 162.153-310.265 33.695-71.622 73.050-141.987 144.259-205.271h136.433c-19.835 28.031-46.070 54.462-82.755 78.282 72.308 125.611 81.045 239.908 11.272 373.718-100.905 15.881-163.741 1.363-260.427-29.143-25.884 46.929-67.389 68.874-110.939 92.681l0.005-0.002zM928.975-23.917c-121.166 33.394-109.272 154.19-55.632 212.746 57.661-30.677 87.506-63.533 114.903-121.306v-93.677l-59.272 2.237zM982.764 180.004v236.93z"/>
</svg>