<svg xmlns="http://www.w3.org/2000/svg" viewBox="0 -64 1024 1000" style="transform: scaleY(-1);">
<path fill="currentColor" d="M773.192 572.278l0.003 0.003c-13.26 45.746-47.63 75.661-113.479 105.819 23.45 117.586-32.953 184.799-140.046 247.252l8.575-86.325c-75.814 50.672-184.412 102.906-281.74 98.356-32.442-1.493-65.934-6.587-101.082-16.85l119.131-125.15c-65.075-0.374-173.916-9.483-234.070-54.175l64.393-104.67-73.404-38.122v-135.158l79.342-44.814-79.342-68.306v-92.228c56.963 4.629 133.842-3.693 202.567 19.296-48.582-56.971-64.054-138.592-121.938-209.863 77.398 2.947 154.582 12.986 237.062 57.76l-19.256-152.827c131.455 48.973 261.287 172.341 250.138 277.671l1.844 8.803c7.661-4.537 15.719-8.593 24.167-12.134l232.426-82.361c12.712 27.493 26.494 55.122 41.1 82.754-9.148-3.558-19.090-5.533-29.499-5.533-44.966 0-81.417 36.453-81.417 81.419s36.451 81.419 81.417 81.419c40.050 0 73.32-28.926 80.123-67.021 24.252 40.993 49.945 81.673 76.521 121.584l-223.538 113.402z"/>
</svg>