<svg xmlns="http://www.w3.org/2000/svg" viewBox="0 -64 1024 1000" style="transform: scaleY(-1);">
<path fill="currentColor" d="M482.197 770.248c-6.475 9.191-10.026 21.838-8.052 37.591 8.586 68.501 62.322 79.361 74.689-0.005 2.604-16.716 0.301-29.402-4.836-38.371 17.005 11.596 27.869 34.838 21.963 70.95-18.35 112.209-99.335 100.337-112.212 0-4.368-34.036 9.258-57.879 28.448-70.165zM243.881 762.406c-3.503 8.541-4.781 19.728-2.596 33.765 12.368 79.366 66.102 68.506 74.689 0.005 1.433-11.431-0.050-21.222-3.441-29.252 16.366 12.407 27.167 33.394 23.191 61.826-12.993 92.912-94.47 107.804-113.21 0-5.867-33.744 4.666-55.416 21.367-66.345zM811.27 484.789h-28.062v220.822c-7.469-5.25-14.937-8.249-22.406-9.644l-16.080 58.891-15.54-56.925c-7.826 2.001-15.654 4.798-23.482 7.677v-220.822h-25.052c0-31.039 15.814-51.302 36.431-60.778v-57.453c0-40.295-31.126-72.587-70.82-72.587h-103.655v129.736c20.886 9.33 36.984 29.668 36.984 61.083h-29.865v258.138c-7.183-2.708-14.368-5.033-21.551-6.669l-15.312 56.078-15.808-57.9c-8.279 1.161-16.559 3.827-24.838 8.491v-258.138h-23.25c0-31.316 16.098-51.659 36.986-61.026v-129.792h-103.888c-39.694 0-72.587 32.893-72.587 72.587v56.951c21.101 9.239 37.427 29.643 37.427 61.28h-28.368v241.813c-7.836-4.064-15.671-6.66-23.507-8.023l-16.24 59.487-15.981-58.532c-7.26 1.575-14.52 3.962-21.78 7.068v-241.813h-24.746c0-31.096 15.871-51.374 36.543-60.827v-57.404c0-70.87 58.371-129.239 129.239-129.239h103.888v-184.587c-44.177-7.043-81.841-30.797-81.841-71.232h220.332c0 40.562-37.661 64.285-81.838 71.271v184.549h103.655c70.871 0 127.472 58.976 127.472 129.239v56.903c21.157 9.216 37.539 29.636 37.539 61.328zM714.358 731.93c-6.799 9.037-10.265 22.911-7.278 42.086 12.368 79.366 66.102 68.506 74.689 0.005 2.26-18.031-2.713-32-11.035-41.364 20.321 12.351 35.312 37.753 30.812 73.942-12.615 101.453-91.582 118.203-109.75 0-5.985-38.935 5.254-63.222 22.563-74.668z"/>
</svg>