<svg xmlns="http://www.w3.org/2000/svg" viewBox="0 -64 1024 1000" style="transform: scaleY(-1);">
<path fill="currentColor" d="M302.94 652.513h96.971c8.511 0 15.41 8.897 15.41 19.87v139.967c0 10.975-6.899 19.87-15.41 19.87h-96.971c-8.511 0-15.41-8.895-15.41-19.87v-139.967c0-10.975 6.899-19.87 15.41-19.87zM830.643 211.235v255.582h-255.582v-255.582h-127.791l255.582-255.582 255.582 255.582zM227.627 137.355c-8.822 0-15.975 7.151-15.975 15.975v367.399c0 8.822 7.151 15.975 15.975 15.975h567.074c8.822 0 15.975-7.151 15.975-15.975v-17.161h49.713v-275.413h50.124v476.274c0 8.845-134.916 143.766-143.766 143.766h-151.717c5.399-2.198 9.169-7.151 9.169-12.919v-197.797c0-7.808-6.899-14.137-15.41-14.137h-339.014c-8.511 0-15.41 6.329-15.41 14.137v197.797c0 5.768 3.77 10.721 9.169 12.919h-135.743c-8.85 0-15.975-7.125-15.975-15.975v-766.747c0-8.85 7.125-15.975 15.975-15.975h461.169l-87.857 87.857h-273.476z"/>
</svg>