<svg xmlns="http://www.w3.org/2000/svg" viewBox="0 -64 1024 1000" style="transform: scaleY(-1);">
<path fill="currentColor" d="M245.87 264.644l-47.116-281.326h638.836l-47.116 281.326h-51.644v365.471l92.312 103.255v185.471h-107.697v-87.813h-65.591v87.813h-107.699v-87.813h-64.781v87.813h-107.697v-87.813h-64.781v87.813h-107.694v-185.468l92.312-103.255v-365.474h-51.644zM518.172 588.047c38.697 0 70.066-31.37 70.066-70.066 0-26.734-14.976-49.964-36.993-61.776l35.439-179.897h-137.056l35.442 179.91c-22.002 11.817-36.966 35.038-36.966 61.762 0 38.697 31.37 70.066 70.066 70.066z"/>
</svg>