<svg xmlns="http://www.w3.org/2000/svg" viewBox="0 -64 1024 1000" style="transform: scaleY(-1);">
<path fill="currentColor" d="M987.236 632.915h-0.005c-8.675 276.41-342.943 369.672-482.028 128.775-83.687 235.159-472.224 152.345-463.254-128.775 2.449-76.658 32.994-144.935 77.548-206.995l212.646 70.88c-39.689 2.086-81.745 18.868-137.244 65.113 64.004 37.771 115.58 41.443 181.559 46.835 53.337 28.734 132.719 53.724 167.923 34.983 61.866 36.577 139.002 83.585 216.898 113.113v0.002h0.005c-0.002 0-0.003-0.002-0.005-0.002 10.15-39.786 10.653-88.934 6.996-135.27l-20.989 27.987c-102.754-23.094-154.442-225.171-1.164-141.102l20.991 33.817c3.521-31.714 6.769-61.057 0-87.459-67.963-47.939-137.425-87.314-206.404-118.944-35.436-31.159-105.044-130.902-125.478-217.469 39.961-40.101 69.762-78.654 80.059-117.085 41.262 153.974 480.75 351.068 471.947 631.596zM444.588 587.321c25.956 12.911 54.204 19.864 85.917 17.811 9.129-63.486-51.517-56.223-85.917-17.811z"/>
</svg>