<svg xmlns="http://www.w3.org/2000/svg" viewBox="0 -64 1024 1000" style="transform: scaleY(-1);">
<path fill="currentColor" d="M942.234 561.305c17.126 82.353-32.694 153.186-113.303 132.806 23.136 65.192-15.527 122.86-68.483 147.261l-0.007-0.010c-41.186 18.978-90.947 18.572-124.166-14.49-34.365 104.258-186.791 132.114-228.2 10.564-62.449 64.666-195.090-21.267-175.632-105.963-105.975 51.776-190.409-128.307-119.912-196.033-90.485-20.756-80.864-162.173-7.634-188.144-64.352-85.912-15.388-155.762 62.81-154.758 8.239-39.122 24.558-63.254 43.634-76.115l-16.549-11.074c21.038-16.11 52.343-15.464 80.458-4.104 79.069-73.018 193.675-104.643 256.122 17.010-76.259-61.014-153.834-25.772-202.289 26.709 9.844 16.305 13.589 35.254 7.226 55.074l-15.846-10.602c-6.030 20.348-23.195 41.642-56.313 60.528 12.699 33.361 6.388 75.931-20.475 111.467 44.291 33.555 44.052 76.897 21.367 120.972 43.72 20.767 63.725 48.432 65.105 101.104 6.106 6.433 13.673 8.311 19.501-5.873 42.767-104.075 79.625-91.148 67.759 14.74-3.146 28.081 63.546 21.106 59.982-10.392-13.852-122.379 23.741-152.964 60.408-11.986 10.766 41.399 65.412 6.699 55.471-15.866-50.141-113.851-25.722-128.633 50.609-35.954 30.301 36.79 60.974-11.765 42.955-32.88-75.49-88.458-70.364-113.27 25.777-57.97 7.218 4.151 15.813 6.968 25.349 9.002-7.051-25.329-8.418-51.115-2.003-74.643-57.247-53.93-58.375-154.136 8.441-237.342-45.413 108.352-11.692 161.473 37.435 175.468 15.778-10.424 35.691-18.753 60.329-24.24 18.47-4.114 35.187-5.446 50.239-4.438 35.175-35.457 38.628-96.862-49.919-169.012 104.988 36.244 134.298 114.952 109.593 189.995 77.64 57.732 61.383 216.373-9.841 269.19z"/>
</svg>