<svg xmlns="http://www.w3.org/2000/svg" viewBox="0 -64 1024 1000" style="transform: scaleY(-1);">
<path fill="currentColor" d="M725.829 573.468c-63.822-147.643-180.099-270.861-334.121-337.887 193.021 21.674 333.214 173.245 334.121 337.887zM842.505 573.468c-86.111-199.207-242.992-365.454-450.802-455.884 260.427 29.245 449.574 233.746 450.802 455.884zM987.348 573.468c-113.778-263.208-321.065-482.869-595.641-602.361 344.099 38.646 594.020 308.852 595.641 602.361zM380.614 415.802c-52.398 41.343-111.806 89.185-130.593 107.969-76.259 76.264-85.059 151.671-26.823 209.903 58.236 58.234 132.741 49.169 209.903-27.987 18.589-18.591 65.636-76.568 106.68-128.231l71.471 72.589c-42.552 67.916-97.634 152.379-124.507 179.252-118.829 102.547-263.845 107.011-364.997 6.998h0.003c-115.179-113.881-95.845-264.494 5.827-366.166 27.255-27.255 113.758-83.535 182.148-126.321l70.887 71.994zM322.801 335.656c44.012-27.364 77.654-47.443 77.654-47.443l62.972 62.972c-12.29 9.467-39.604 30.626-70.928 55.258l-69.697-70.786zM549.193 565.588c25.156-31.777 46.868-59.644 56.495-72.136l62.972 62.972c0 0-20.951 35.103-49.22 80.51l-70.247-71.346z"/>
</svg>