<svg xmlns="http://www.w3.org/2000/svg" viewBox="0 -64 1024 1000" style="transform: scaleY(-1);">
<path fill="currentColor" d="M632.398 488.070c0 66.508-53.917 120.4-120.4 120.4-66.508 0-120.4-53.917-120.4-120.4 0-66.508 53.917-120.4 120.4-120.4 66.508 0 120.4 53.892 120.4 120.4zM511.998 6.446c-77.639 0-150.468 19.114-215.415 51.726l134.527 268.098c24.251-12.113 51.952-18.812 80.888-18.812s56.636 6.699 80.888 18.812l134.527-268.098c-64.947-32.612-137.776-51.726-215.415-51.726v0zM929.103 728.869c38.807-67.238 58.676-139.866 62.907-212.418l-299.425-17.553c-1.637 27.046-9.695 54.395-24.15 79.452-14.48 25.057-34.123 45.707-56.737 60.641l164.923 250.545c60.691-39.915 113.651-93.429 152.483-160.667v0zM94.893 728.869c38.807 67.238 91.792 120.752 152.508 160.692l164.923-250.545c-22.614-14.959-42.257-35.584-56.737-60.641s-22.514-52.406-24.15-79.477l-299.425 17.553c4.206 72.552 24.075 145.205 62.882 212.418v0z"/>
</svg>