<svg xmlns="http://www.w3.org/2000/svg" viewBox="0 -64 1024 1000" style="transform: scaleY(-1);">
<path fill="currentColor" d="M931.576 740.522c1.189-27.573-2.501-54.902-12.33-81.337-20.714 79.164-61.296 189.28-181.56 240.937-31.694 11.062-66.812 19.020-105.527 23.206h-0.005c81.369-99.224 55.207-173.111 10.644-245.040 1.602 85.7-74.278 116.049-166.252 88.006 142.645-0.286 126.811-107.323 94.372-201.847-16.778-32.27-28.553-66.37-28.553-104.070 0-42.228 13.446-76.934 37.048-103.68l-543.981-332.459v-47.809h119.776l526.587 327.842c10.638-3.784 22.080-5.862 34.013-5.862 56.183 0 101.73 45.669 101.73 102.002s-45.547 102.002-101.73 102.002-101.73-45.669-101.73-102.002c0-7.263 0.77-14.344 2.21-21.178l-19.331-11.814c-4.492 18.768-4.697 39.709 0.221 62.633 20.33 94.794 104.069 144.372 141.1 223.897 19.155-35.309 48.434-60.556 76.965-60.638 38.808-0.112 60.187 45.074 50.146 101.456 82.668-118.964 56.562-303.301-23.325-387.157 131.374 59.983 178.273 273.326 89.514 432.911z"/>
</svg>