<svg xmlns="http://www.w3.org/2000/svg" viewBox="0 -64 1024 1000" style="transform: scaleY(-1);">
<path fill="currentColor" d="M671.278 399.525c7.181 34.717-2.314 71.748-28.695 98.13-32.011 32.013-79.683 39.148-119.887 21.813l-30.008 29.791c9.106 21.91 8.6 45.238-8.685 62.522l-73.431 73.439c-19.55 19.551-43.203 22.189-64.876 14.76l-54.77 54.773c7.978 21.123 6.842 43.274-9.742 59.858l-73.431 73.434c-19.725 19.725-43.629 22.241-65.461 14.563l-38.827 38.827h-83.961v-38.483l63.136-62.491c-7.038-21.997-4.479-45.507 13.773-63.76l73.431-73.431c17.106-17.107 39.295-18.287 60.272-10.165l55.373-55.375c-7.076-22.024-4.535-45.576 13.745-63.854l73.431-73.436c18.091-18.093 41.867-18.375 63.882-8.673l28.176-27.972c-19.722-41.045-13.222-90.967 19.907-124.098 22.717-22.718 53.33-32.898 83.564-30.707l0.132-0.399c0.677 0.204 1.402 0.394 2.096 0.593 9.009 0.835 17.961 2.766 26.646 5.8 61.761 9.984 155.889 5.319 217.253-26.432 74.861-38.733 106.919-117.311 71.573-175.43-34.203-56.241-118.099-72.971-192.236-25.020l53.311 24.284-137.679 62.21 18.23-43.933 46.127-138.649 222.707 10.599 15.908 56.562 55.675 15.911 11.49 222.707-308.149 101.728zM523.157 378.226c-11.72 11.72-16.92 27.544-15.697 43.14l22.62-22.456c31.275-31.047 87.344 26.514 57.025 56.614l-19.585 19.444c13.375-0.509 26.47-5.77 36.538-15.839 11.586-11.588 16.808-27.189 15.743-42.612-0.221-3.196-0.72-6.383-1.48-9.527-0.042-0.174-0.079-0.349-0.122-0.523-0.149-0.588-0.314-1.173-0.483-1.757-0.075-0.266-0.147-0.531-0.226-0.795-0.162-0.536-0.339-1.069-0.516-1.602-0.104-0.311-0.204-0.621-0.312-0.93-0.177-0.501-0.366-1.001-0.558-1.498-0.129-0.336-0.257-0.672-0.393-1.006-0.192-0.474-0.394-0.945-0.6-1.417-0.155-0.354-0.311-0.707-0.473-1.057-0.207-0.449-0.421-0.897-0.641-1.343-0.18-0.366-0.366-0.732-0.555-1.096-0.222-0.428-0.448-0.852-0.68-1.275-0.207-0.378-0.423-0.752-0.64-1.126-0.236-0.404-0.471-0.809-0.717-1.208-0.237-0.386-0.483-0.768-0.73-1.149-0.246-0.381-0.491-0.763-0.748-1.141-0.269-0.396-0.55-0.787-0.83-1.178-0.254-0.354-0.504-0.712-0.767-1.062-0.309-0.413-0.633-0.817-0.954-1.223-0.254-0.321-0.501-0.645-0.763-0.962-0.378-0.456-0.772-0.902-1.164-1.35-0.226-0.256-0.441-0.518-0.672-0.77-0.633-0.697-1.285-1.383-1.959-2.058-0.82-0.82-1.665-1.604-2.521-2.365-0.257-0.229-0.521-0.449-0.782-0.675-0.626-0.54-1.261-1.064-1.904-1.572-0.281-0.221-0.56-0.443-0.842-0.658-0.742-0.565-1.493-1.108-2.255-1.632-0.162-0.112-0.321-0.231-0.484-0.341-0.935-0.63-1.884-1.228-2.846-1.797-0.21-0.125-0.426-0.241-0.638-0.362-0.767-0.441-1.54-0.865-2.322-1.27-0.274-0.142-0.55-0.281-0.827-0.418-0.8-0.398-1.609-0.775-2.422-1.134-0.197-0.087-0.393-0.179-0.59-0.264-1.047-0.448-2.101-0.867-3.167-1.25-0.002 0-0.005-0.002-0.007-0.002-1.039-0.373-2.086-0.707-3.139-1.017-0.205-0.060-0.411-0.117-0.616-0.175-0.912-0.259-1.827-0.494-2.748-0.707-0.169-0.038-0.337-0.080-0.506-0.119-2.218-0.491-4.457-0.852-6.704-1.074-0.075-0.007-0.15-0.012-0.224-0.020-1.051-0.1-2.101-0.17-3.154-0.212-0.119-0.005-0.239-0.010-0.357-0.013-3.414-0.114-6.829 0.079-10.198 0.581-0.077 0.012-0.154 0.023-0.231 0.035-1.111 0.17-2.217 0.371-3.316 0.608v0c-9.893 2.142-19.244 6.999-26.861 14.615z"/>
</svg>