<svg xmlns="http://www.w3.org/2000/svg" viewBox="0 -64 1024 1000" style="transform: scaleY(-1);">
<path fill="currentColor" d="M666.843 528.869c-35.309 68.017-38.421 127.602-7.836 132.088 7.262 1.064 15.333-0.874 24.629-5.598-18.49 14.481-36.963 22.117-50.373 20.151l0.005-0.002c-34.595-5.075-29.86-71.952 10.075-148.879s100.855-134.929 135.447-129.849c11.967 1.757 18.482 11.393 21.265 25.745-3.333-4.367-7.698-6.993-13.434-7.836-30.585-4.489-84.469 46.164-119.778 114.18zM923.379 647.849c31.253 40.716 15.363 82.353-13.795 103.467-8.595 7.146-18.379 11.789-28.139 12.709-23.754 5.077-49.149-2.892-64.667-31.243-18.337-33.503-32.322-57.287-47.074-76.374-64.584 84.259-140.644 129.064-185.26 103.277-1.487-0.859-2.913-1.801-4.3-2.796-0.063 0.079-0.134 0.172-0.195 0.247-170.118-144.79-237.85-154.973-325.816-183.065-68.222-21.785-79.459-147.259-31.151-260.963-37.549-4.829-81.17-8.376-133.269-11.052-98.097-5.038-51.008-142.876 60.109-104.224-98.571-59.703 7.701-173.596 53.848-93.369 24.18 42.039 51.497 78.031 81.417 109.391 76.551-88.383 186.388-137.418 224.901-83.42 60.221 84.446 181.766 136.506 322.856 184.462l0.002 0.003c-0.229 0.535-0.503 1.144-0.797 1.792 2.106 0.87 4.161 1.861 6.146 3.009 42.176 24.376 43.832 104.652 9.594 196.246 22.951 4.457 48.674 6.468 85.981 7.211 103.142 2.051 90.439 148.086-10.389 124.692zM814.605 350.765c-0.81-0.655-1.645-1.275-2.497-1.871-0.149-0.104-0.296-0.209-0.444-0.311-0.879-0.601-1.776-1.178-2.703-1.714-45.943-26.554-131.276 35.3-190.594 138.155s-70.162 207.762-24.219 234.317c0.672 0.388 1.353 0.753 2.041 1.104 0.54 0.274 1.086 0.528 1.635 0.778 0.13 0.060 0.259 0.125 0.391 0.184 0.673 0.299 1.353 0.581 2.041 0.847 0.002 0 0.002 0.002 0.003 0.002 0.695 0.269 1.398 0.52 2.106 0.755 37.987 12.595 96.381-23.853 146.878-88.839-3.303-3.279-6.62-6.533-9.953-9.759-14.162-12.027-30.854-23.094-52.692-35.703-21.091-35.478 25.789-107.231 61.659-107.231 28.866 12.171 50.081 20.909 70.429 27.16 25.762-71.414 25.431-134.004-4.083-157.875z"/>
</svg>