<svg xmlns="http://www.w3.org/2000/svg" viewBox="0 -64 1024 1000" style="transform: scaleY(-1);">
<path fill="currentColor" d="M842.61 84.356v830.439h-668.199v-830.439h-15.246l60.971-115.916 60.971 115.916h-34.395v126.784h78.133v-126.784h-14.251l60.971-115.916 60.971 115.916h-35.391v126.784h73.469v-126.784h-11.384l60.971-115.916 60.971 115.916h-37.088v126.784h79.297v-126.784h-13.915l60.971-115.916 60.971 115.916h-35.726v126.784h74.632v-126.784h-12.213l60.971-115.916 60.971 115.916h-37.429zM397.143 634.301h73.469v-139.002h-73.469v139.002zM324.844 495.299h-78.133v139.002h78.133v-139.002zM544.081 634.301h79.297v-139.002h-79.297v139.002zM695.679 634.301h74.632v-139.002h-74.632v139.002zM770.31 843.152v-136.301h-74.632v136.301h74.632zM623.379 843.152v-136.301h-79.297v136.301h79.297zM470.612 843.152v-136.301h-73.469v136.301h73.469zM324.844 843.152v-136.301h-78.133v136.301h78.133zM246.71 283.701v139.049h78.133v-139.049h-78.133zM397.143 283.701v139.049h73.469v-139.049h-73.469zM544.081 283.701v139.049h79.297v-139.049h-79.297zM695.679 283.701v139.049h74.632v-139.049h-74.632z"/>
</svg>