<svg xmlns="http://www.w3.org/2000/svg" viewBox="0 -64 1024 1000" style="transform: scaleY(-1);">
<path fill="currentColor" d="M409.206 500.132l-221.034-287.219c3.227-13.626 6.702-24.99 10.664-34.657-65.895-25.881-112.647-125.979-69.391-182.867 34.49-23.833 52.653-9.787 69.986-1.472-13.213 40.434-34.168 87.252 55.936 130.043 7.606-3.154 16.043-6.181 25.493-9.346l305.665 251.7-14.998-11.665c-93.116 4.266-149.572 59.237-162.322 145.483zM629.895 850.992c-30.149-34.109-48.584-78.805-49.017-127.801l-0.008 0.008-157.544-204.725c10.78-90.072 67.741-147.755 163.232-152.132l193.491 159.33c56.783 0.987 107.664 26.148 142.799 65.638l-2.051-1.981c-155.436 4.128-268.074 67.22-290.901 261.663zM560.442 470.338l-29.071 26.32 62.783 69.348 29.071-26.32-62.783-69.348zM776.543 917.154c-50.961-0.010-97.364-19.501-132.183-51.424 22.52-193.925 134.156-257.513 288.467-262.263 24.785 32.8 39.488 73.643 39.48 117.922 0 0.027 0 0.053 0 0.079-0.022 108.096-87.668 195.708-195.764 195.686z"/>
</svg>