<svg xmlns="http://www.w3.org/2000/svg" viewBox="0 -64 1024 1000" style="transform: scaleY(-1);">
<path fill="currentColor" d="M926.486 529.018v127.489h-50.68c-34.692 63.184-63.179 152.34-141.006 198.337-89.215-1.737-171.2-102.846-255.582-138.434-32.806 37.838-84.947 66.874-159.739 59.901-72.617-6.76-110.245-61.931-143.044-119.805h-112.538v-127.489h33.981l77.55-293.247c-5.107 0.92-10.342 1.422-15.687 1.422-52.932 0-95.843-46.934-95.843-104.829s42.911-104.829 95.843-104.829c52.891 0 95.772 46.858 95.84 104.69h125.822c0.068-57.832 42.951-104.69 95.84-104.69s95.772 46.858 95.84 104.69h236.736l9.44 45.066h107.229v89.853h-88.41l54.852 261.873h33.558z"/>
</svg>