<svg xmlns="http://www.w3.org/2000/svg" viewBox="0 -64 1024 1000" style="transform: scaleY(-1);">
<path fill="currentColor" d="M672.715 717.751l-34.709-21.519-20.42-133.112-0.017-0.058 76.539 118.148zM549.627 542.577l-157.136 51.952-43.593-26.903 28.712-34.555zM413.303 803.701c6.376 3.556 11.735 8.611 15.47 15.081 12.943 22.423 1.545 53.24-25.458 68.834s-59.387 10.058-72.33-12.365c-3.735-6.471-5.432-13.643-5.322-20.944-92.551 41.49-193.1 51.13-273.809 11.837 210.069-60.421 384.172-169.774 535.876-309.567-21.267 97.482-89.055 185.765-174.427 247.125zM276.368 754.677l-224.749-389.498c16.67-27.433 41.197-49.68 82.954-47.926l224.749 389.498c-25.55 18.358-53.325 34.191-82.954 47.926zM809.302 573.017l-361.597-111.638-84.506-165.462 432.35-313.984 176.83 502.062z"/>
</svg>