<svg xmlns="http://www.w3.org/2000/svg" viewBox="0 -64 1024 1000" style="transform: scaleY(-1);">
<path fill="currentColor" d="M659.977 786.553c-22.622 18.567-49.296 32.349-80.597 40.557-5.97 7.387-13.14 13.758-21.215 18.83-19.94 41.214-45.574 83.071-45.574 83.071s-25.61-41.825-45.547-83.024c-6.884-4.313-13.113-9.567-18.502-15.596-37.17-7.429-68.219-22.242-94.043-43.232-192.532 31.622-365.867-161.819-304.527-365.69 24.673-81.994 145.47-134.642 208.191-100.292-118.224-0.195-153.346 128.234-116.788 217.315 23.368 56.941 64.357 89.096 121.051 89.422-18.779-70.384-25.498-154.131-25.498-244.009h140.953c-3.369-23.996-4.846-50.011-5.033-77.224-3.272-29.422 17.892-152.491 17.892-152.491s60.388 99.859 71.354 132.338c12.291-47.928 45.571-137.122 45.571-137.122s32.953 88.33 45.385 136.423c11.583-33.192 71.115-131.638 71.115-131.638s21.81 126.812 17.729 153.76c-0.224 26.753-1.704 52.333-5.021 75.956h139.905c0 89.861-6.715 173.597-25.486 243.974 58.919 1.305 101.383-31.021 125.336-89.387 36.558-89.081 1.437-217.511-116.788-217.315 62.721-34.35 183.518 18.298 208.191 100.292 61.716 205.114-114.118 399.667-308.054 365.082zM383.679 599.552c17.757-18.875 42.986-32.384 78.192-38.418 0-0.050 0.003-0.099 0.003-0.149 0-26.851-21.768-48.616-48.614-48.616s-48.614 21.765-48.614 48.616c0 15.717 7.465 29.681 19.033 38.566zM657.684 560.986c-0.002-26.851-21.768-48.616-48.614-48.616s-48.614 21.765-48.614 48.616c0 0.613 0.023 1.219 0.047 1.826 32.818 7.118 56.287 21.222 72.756 40.334 3.525-2.026 6.77-4.479 9.667-7.292l0.025-0.094c0.017 0.008 0.032 0.017 0.048 0.025 9.054-8.828 14.685-21.153 14.685-34.799zM228.208 62.939c-23.582-87.994 98.112-114.823 120.247-32.22 8.895 33.207-8.048 210.468-8.048 210.468s-103.304-145.035-112.199-178.248zM670.52 241.187c0 0-16.944-177.261-8.048-210.468 22.135-82.603 143.828-55.774 120.247 32.22-8.897 33.212-112.199 178.248-112.199 178.248zM558.94 193.816c0 0-32.803-127.429-30.137-152.698 6.632-62.847 98.55-57.289 91.485 9.657-2.661 25.266-61.348 143.041-61.348 143.041zM394.187 50.775c-7.064-66.948 84.853-72.504 91.485-9.657 2.664 25.269-30.137 152.698-30.137 152.698s-58.685-117.775-61.348-143.041z"/>
</svg>