<svg xmlns="http://www.w3.org/2000/svg" viewBox="0 -64 1024 1000" style="transform: scaleY(-1);">
<path fill="currentColor" d="M991.818 517.119l-199.717 75.567 34.418 210.745-201.566-70.489-109.099 183.562-109.1-183.562-201.564 70.489 34.417-210.745-199.718-75.566 161.829-139.317-104.421-186.263 213.518-2.701 39.737-209.805 165.3 135.178 165.298-135.18 39.739 209.806 213.518 2.703-104.418 186.263 161.829 139.314zM527.111 144.198c-159.27 0-288.379 129.114-288.379 288.384 0 159.265 129.109 288.379 288.379 288.379 74.498 0 142.393-28.251 193.568-74.62-17.612 6.849-36.234 11.638-55.538 13.591-7.651 0.783-15.547 0-23.403 0-125.737 0-227.181-101.439-227.181-227.178s101.444-227.178 227.181-227.178c28.804 0 56.305 5.733 81.643 15.743-51.476-47.846-120.448-77.121-196.269-77.121z"/>
</svg>