<svg xmlns="http://www.w3.org/2000/svg" viewBox="0 -64 1024 1000" style="transform: scaleY(-1);">
<path fill="currentColor" d="M64.674 127.47v0 0.002zM693.499 575.98l217.562 227.751-1.001 1.201 53.94 55.212-17.039 17.039-37.039-31.856-67.414 65.932c-11.281-0.672-21.213-3.438-23.706-17.779l31.129-37.049-473.36-385.963c-0.003 0-0.007 0.002-0.008 0.002-22.571 0.556-33.501-15.332-37.039-22.964-18.589-40.095-29.992-83.124-53.709-123.719-72.144-66.209-163.661-127.81-221.141-196.317 34.504-47.57 81.489-88.899 122.24-133.347 16.494 1.006 25.715 19.476 37.781 31.116 53.387 100.815 92.249 192.505 154.828 285.953 32.001 20.564 73.188 40.344 72.602 63.693 25.929-3.571 47.066-14.326 56.288-42.965-11.321-55.495 4.965-78.252 13.334-110.38l88.896 20.742c-27.277 45.801-32.542 112.356-43.706 173.357l113.298 94.18c70.871-52.15 144.524-99.518 230.235-126.223l18.519 48.895c-81.434 27.399-181.348 85.882-235.49 143.489zM454.071 416.695l-41.122 45.408c0 0-0.002 0-0.002 0l-0.002 0.002 9.37 7.831 211.32 176.958 34.559-49.246-47.619-39.852-0.17 0.134-166.334-141.235z"/>
</svg>