<svg xmlns="http://www.w3.org/2000/svg" viewBox="0 -64 1024 1000" style="transform: scaleY(-1);">
<path fill="currentColor" d="M688.313 879.386c-81.492-61.625 13.060-159.209 87.274-89.075 73.691-107.911 17.493-199.404-143.596-131.039-4.915 5.257-9.931 10.215-15.033 14.894 3.617 13.075 5.596 27.015 5.596 41.505 0 74.191-51.248 134.328-114.471 134.328s-114.471-60.145-114.471-134.328c0-14.491 1.98-28.435 5.598-41.511-5.098-4.677-10.113-9.634-15.026-14.889-161.087-68.362-217.283 23.129-143.592 131.040 74.214-70.135 168.768 27.449 87.274 89.075-336.412-71.065-441.179-335.371-33.957-374.305-26.255-69.923-42.341-149.654-44.433-228.073-71.252-65.902-118.913-132.455-118.913-132.455l95.26-95.28-78.592-52.403h226.247c-146.5 146.526-42.54 208.679 130.983 208.679 175.904 0 267.927-71.715 130.987-208.679h228.629l-80.973 52.403 95.26 95.28c0 0-44.373 61.963-111.497 125.518-1.298 80.642-17.57 163.026-44.598 235.012 407.221 38.932 302.454 303.238-33.957 374.303z"/>
</svg>