<svg xmlns="http://www.w3.org/2000/svg" viewBox="0 -64 1024 1000" style="transform: scaleY(-1);">
<path fill="currentColor" d="M182.957 470.067v0 0zM690.926 922.727c-81.317-78.609 13.031-203.091 87.085-113.626 76.105-142.475 13.365-262.508-160.559-157.23 10.248 21.367 16.113 46.157 16.113 72.594 0 80.366-54.178 145.512-121.014 145.512s-121.014-65.15-121.014-145.512c0-25.871 5.623-50.159 15.467-71.212-175.647-107.7-239.264 12.756-162.828 155.848 74.054-89.466 168.4 35.016 87.085 113.626-300.134-81.051-415.483-359.163-146.12-452.66h-2.183c1.265-0.17 2.521-0.369 3.78-0.558 17.984-6.159 37.674-11.495 59.11-15.906 100.347-39.483 172.932-135.036 178.821-228.395-66.904-46.118-118.751-125.459-118.751-125.459l52.491-77.248-82.304-46.875h163.661c-80.719 80.736-23.44 171.559 72.173 171.559 96.924 0 147.628-96.092 72.173-171.559h161.972l-80.614 46.875 52.491 77.248c0 0-52.682 80.625-120.366 126.57 6.391 93.007 78.798 187.96 178.752 227.288 21.434 4.412 41.12 9.747 59.101 15.905 1.26 0.189 2.517 0.386 3.782 0.558h-2.185c269.362 93.495 154.014 371.607-146.121 452.658z"/>
</svg>