<svg xmlns="http://www.w3.org/2000/svg" viewBox="0 -64 1024 1000" style="transform: scaleY(-1);">
<path fill="currentColor" d="M897.343 785.22c-59.761 96.649-133.205 159.56-164.040 140.525-3.934-2.427-6.978-6.079-9.183-10.79-109.232-201.538-263.138-307.116-439.253-416.507-69.66-4.103-114.74-45.806-131.364-92.977l-46.701 46.608c-1.515-22.276 14.004-47.677 42.189-62.626-0.613-2.888-1.133-5.785-1.535-8.68h-0.002v-0.002c-79.783-57.426-153.876-192.412-87.763-350.215 59.173-141.244 293.42-64.676 230.044 45.928-30.022 52.391-58.393 105.948-43.895 155.015 84.67-39.373 167.271 27.022 150.434 110.378 5.469 1.787 11.105 3.556 16.93 5.302 0.895 16.519 1.61 33.257 0.66 49.334 159.497 94.44 315.529 168.848 519.36 176.049 6.319-0.653 11.882 0.349 16.488 3.192 30.835 19.035 7.387 112.824-52.369 209.464z"/>
</svg>