<svg xmlns="http://www.w3.org/2000/svg" viewBox="0 -64 1024 1000" style="transform: scaleY(-1);">
<path fill="currentColor" d="M951.136 617.895l24.648 24.658-218.338 218.339-24.651-24.653 59.161-95.797-50.983-50.983 41.307-41.309-65.449 17.169-21.972-21.972 42.006-42.011-66.555 17.46-21.566-21.564 42.704-42.706-67.659 17.75-113.632-113.632-282.357 282.355 59.748 95.219-24.65 24.641-218.341-218.336 24.651-24.658 95.795 59.171 47.213-47.213 41.912 41.912-17.423-66.401 21.624-21.624 42.612 42.61-17.714-67.507 21.213-21.215 43.314 43.31-18.006-68.618 117.027-117.027-271.131-271.131-43.040-106.628 106.421 43.25 271.131 271.128 271.16-271.16 106.628-43.041-43.254 106.428-271.155 271.153 282.38 282.378z"/>
</svg>