<svg xmlns="http://www.w3.org/2000/svg" viewBox="0 -64 1024 1000" style="transform: scaleY(-1);">
<path fill="currentColor" d="M687.554 779.679c-15.26 85.208-88.974 147.526-175.561 148.329-99.413-0.929-179.25-82.246-178.322-181.66 0.803-86.563 63.122-160.301 148.329-175.536v-97.506c-63.95-17.418-101.672-83.376-84.254-147.325 11.169-41.035 43.219-73.060 84.254-84.254v-99.363c-46.607-17.293-70.375-69.070-53.082-115.677 12.925-34.836 45.929-58.152 83.1-58.704 49.694 0.703 89.399 41.587 88.696 91.282-0.527 37.17-23.843 70.174-58.704 83.1v100.317c63.95 17.418 101.672 83.376 84.254 147.325-11.169 41.035-43.219 73.060-84.254 84.254v96.552c97.856 17.493 163.010 110.984 145.544 208.866zM511.992 628.012c-66.284-1.481-121.224 51.024-122.704 117.308-1.481 66.158 50.899 121.073 117.082 122.679 1.882 0.050 3.74 0.050 5.622 0 66.284 0 119.994-53.735 119.994-119.994s-53.735-119.994-119.994-119.994z"/>
</svg>