<svg xmlns="http://www.w3.org/2000/svg" viewBox="0 -64 1024 1000" style="transform: scaleY(-1);">
<path fill="currentColor" d="M604.282 538.127c15.492 1.173 27.703 14.085 27.703 29.877v180.001c0 16.565-13.427 29.992-29.992 29.992h-29.992v120.019c0 16.565-13.427 29.992-29.992 29.992h-60.009c-16.565 0-29.992-13.453-29.992-29.992v-120.019h-30.017c-16.565 0-29.992-13.427-29.992-29.992v-180.003c0-15.795 12.216-28.707 27.712-29.877-102.956-180.251-207.715-231.451-207.715-300.112 0-180.003 145.669-270.005 299.997-270.005s299.997 90.003 299.997 270.005c0 68.643-104.746 119.853-207.706 300.114zM511.992 57.987c-90.077 0-180.003 90.002-180.003 180.003 0 30.017 150.011 180.003 180.003 270.005 29.992-90.002 180.003-240.013 180.003-270.005 0-90.002-90.077-180.003-180.003-180.003z"/>
</svg>