<svg xmlns="http://www.w3.org/2000/svg" viewBox="0 -64 1024 1000" style="transform: scaleY(-1);">
<path fill="currentColor" d="M510.824 693.139c-216.057 0-537.114 191.797-486.248-270.206h0.002c18.191-165.237 158.907-257.388 281.64-214.061 65.837 23.241 147.986 177.591 204.608 177.591s138.771-154.352 204.608-177.591c122.73-43.324 260.99 49.197 281.64 214.061 58.022 463.294-276.831 270.206-486.25 270.206zM143.746 535.698c86.657 85.49 173.317 78.315 259.974 0-86.657-109.164-216.645-73.967-259.974 0zM608.331 535.698c86.659 78.315 173.317 85.49 259.974 0-43.329-73.967-173.317-109.164-259.974 0z"/>
</svg>