<svg xmlns="http://www.w3.org/2000/svg" viewBox="0 -64 1024 1000" style="transform: scaleY(-1);">
<path fill="currentColor" d="M903.205 858.211c-268.562 30.012-989.445-421.031-780.625-673.977 107.781-130.566 236.783-131.568 358.864-64.505l106.613-112.732c0-0.003 0-0.007 0-0.010l0.008 0.007c48.136-4.246 79.347 12.777 84.476 67.145l-71.054 134.283c194.59 180.55 341.552 498.498 301.718 649.791zM782.418 705.126c26.652 0 48.257-19.16 48.257-42.794s-21.604-42.794-48.257-42.794c-26.652 0-48.257 19.16-48.257 42.794s21.606 42.794 48.257 42.794zM708.215 559.061c26.652 0 48.257-19.16 48.257-42.794s-21.604-42.794-48.257-42.794c-26.652 0-48.258 19.16-48.258 42.794s21.606 42.794 48.258 42.794zM611.701 440.426c26.652 0 48.257-19.16 48.257-42.794s-21.604-42.794-48.257-42.794-48.258 19.16-48.258 42.794 21.606 42.794 48.258 42.794zM325.5 146.605c-26.652 0-48.258 19.16-48.258 42.794s21.606 42.794 48.258 42.794c26.652 0 48.257-19.16 48.257-42.794s-21.606-42.794-48.257-42.794zM334.639 405.528c-31.701 0-57.397 22.789-57.397 50.899s25.699 50.899 57.397 50.899c31.701 0 57.397-22.789 57.397-50.899s-25.697-50.899-57.397-50.899z"/>
</svg>