<svg xmlns="http://www.w3.org/2000/svg" viewBox="0 -64 1024 1000" style="transform: scaleY(-1);">
<path fill="currentColor" d="M512.057 923.148c-261.078 0-472.725-211.647-472.725-472.725s211.647-472.725 472.725-472.725 472.725 211.647 472.725 472.725-211.647 472.725-472.725 472.725zM681.522 267.52c-83.766-149.509-219.631-135.235-320.696-3.132-35.274-56.73-126.799-100.156-195.646-89.421-44.065 55.027-75.331 120.73-89.306 192.621 46.741-45.324 128.857-60.505 170.33 5.801 64.736-97.31 200.789-103.101 280.486 10.096 47.653-68.094 171.957-129.138 263.213 21.917 40.875-81.349 118.915-54.508 165.48-1.395-9.326-85.133-42.635-163.049-93.053-226.833-68.335-38.47-118.911-16.177-180.808 90.346zM512.865 898.247c245.885 0 445.217-199.33 445.217-445.216 0-9.249-0.316-18.424-0.872-27.533-62.164-17.349-137.285 27.616-172.214 87.301-95.122-132.103-179.466-146.377-258.306 3.132-73.882-135.096-208.357-146.308-274.266-40.125-67.914-92.605-113.905-104.324-183.53-56.183-0.818 11.030-1.245 22.168-1.245 33.407 0 245.885 199.33 445.216 445.216 445.216zM224.477 113.87c48.796-17.15 102.412-10.682 131.136 43.125 96.96-151.055 275.282-90.012 325.91-21.917 34.948-39.898 76.405-41.646 117.315-23.252-77.359-64.904-177.090-104.010-285.97-104.010-110.018 0-210.696 39.928-288.39 106.054z"/>
</svg>