<svg xmlns="http://www.w3.org/2000/svg" viewBox="0 -64 1024 1000" style="transform: scaleY(-1);">
<path fill="currentColor" d="M961.047 415.172c-45.18 48.407-108.985 59.937-134.794-26.206 60.276 40.115 121.348-53.56 67.691-95.015-43.828-33.864-122.86-38.182-172.647-10.955-61.48 33.618-107.338 75.465-140.081 132.819 113.94-27.316 238.767 2.17 285.517 90.568 127.009 240.161-126.692 401.373-227.647 243.321-35.645-55.802-19.603-122.827 70.195-118.016-58.121 43.185-3.799 127.001 53.343 90.503 46.68-29.816 44.941-103.594 19.494-154.315-30.272-60.342-120.939-101.306-189.802-49.296-68.13 129.226-18.806 324.603-215.874 388.514-290.529 94.225-389.095-350.662-35.315-410.494 0.003-0.005 0.007-0.008 0.010-0.013-58.924-1.051-110.607-16.192-183.254-51.863-196.205-96.343-156.55-409.164 43.543-375.285 68.845 11.658 102.261 100.531 1.754 130.581 32.977-59.123-55.859-94.053-83.689-3.874-22.486 72.861 42.22 149.579 104.765 169.718 60.902 19.611 110.318 21.666 164.684 11.647-73.053-68.386-112.901-160.631-84.604-246.812 88.899-270.747 383.659-164.812 325.151 13.374-20.659 62.912-82.707 92.903-135.804 20.323 70.215 17.677 100.743-77.425 36.324-98.575-52.623-17.281-120.207 27.010-131.827 82.551-15.614 74.645 39.425 154.155 109.314 190.217 44.281-70.634 77.545-97.188 166.222-144.123 171.406-90.718 425.207 72.963 287.331 220.706z"/>
</svg>