<svg xmlns="http://www.w3.org/2000/svg" viewBox="0 -64 1024 1000" style="transform: scaleY(-1);">
<path fill="currentColor" d="M517.252 814.041c-206.701 0-375.083-179.778-375.083-402.432 0.002-85.207 24.502-165.373 66.42-230.52-48.803 26.424-96.739 58.421-144.563 97.679v-189.908h349.037c-95.843 66.405-162.796 164.194-162.796 275.864 0 148.893 119.564 269.591 266.987 269.591s266.987-120.698 266.987-269.591c0-111.668-66.953-209.459-162.796-275.864h349.037v189.906c-47.963-39.667-96.433-72.281-145.866-98.981 42.522 65.434 67.724 145.944 67.724 231.823-0.002 222.654-168.382 402.432-375.083 402.432h-0.005z"/>
</svg>