<svg xmlns="http://www.w3.org/2000/svg" viewBox="0 -64 1024 1000" style="transform: scaleY(-1);">
<path fill="currentColor" d="M958.776 416.812h-0.003c-52.707 50.592-175.039 9.154-280.873-91.876-143.716 208.089-289.311 414.297-463.1 592.31 244.529-374.599 215.070-431.603-149.704-111.417 166.416-207.129 365.488-370.723 574.801-520.661-95.214-109.347-130.788-232.009-78.417-282.273 55.811-53.567 190.29-4.575 299.977 109.698s153.127 250.653 97.32 304.22zM740.467 214.521c-19.438-21.957-27.954-45.213-19.045-54.12 9.792-9.792 36.926 1.467 60.608 25.149 23.682 23.684 34.941 50.816 25.149 60.608-9.543 9.543-35.551-0.91-58.789-23.367-8.409 12.163-16.81 24.332-25.206 36.507 46.663 45.011 100.85 63.506 124.146 41.147 24.494-23.509 5.635-83.342-42.504-133.494s-107.612-71.931-132.108-48.422c-22.451 21.546-7.776 73.718 31.891 120.892 11.929-8.329 23.879-16.633 35.857-24.9zM837.832 135.269c-83.931-87.443-187.623-125.409-230.326-84.421-39.834 38.234-12.656 131.775 59.297 215.15 7.41-5.247 14.832-10.479 22.266-15.697-52.912-62.048-72.368-130.846-42.749-159.278 32.010-30.725 109.142-2.623 172.054 62.918 62.912 65.543 87.828 143.764 55.817 174.488l0.005 0.003c-30.356 29.136-100.97 5.038-161.842-53.432-5.187 7.522-10.374 15.043-15.56 22.563 81.058 77.562 174.747 109.232 215.145 70.454 42.704-40.992 9.826-145.306-74.106-232.749zM214.784 917.263l0.015-0.017-0.010 0.017z"/>
</svg>