<svg xmlns="http://www.w3.org/2000/svg" viewBox="0 -64 1024 1000" style="transform: scaleY(-1);">
<path fill="currentColor" d="M511.994 537.032c61.583 0 153.964 30.795 153.964 92.374s-30.797 153.964-153.964 277.132c-123.167-123.169-153.964-215.542-153.964-277.132s92.392-92.374 153.964-92.374v0zM671.999 259.911c-30.797-53.336-50.309-148.727 3.015-179.522 53.335-30.795 148.731-50.319 316.984-5.237-45.087 168.252-109.685 241.101-163.020 271.896s-126.181-33.801-156.979-87.137v0zM352.001 259.911c-30.797 53.336-103.644 117.932-156.979 87.149-53.335-30.795-117.933-103.644-163.020-271.896 168.253-45.083 263.649-25.559 316.984 5.237s33.801 126.174 3.015 179.511v0zM511.994 167.538c-30.797 0-61.583-30.795-61.583-61.59s0-61.579 61.583-123.169c61.583 61.579 61.583 92.374 61.583 123.169 0.011 30.795-30.786 61.59-61.583 61.59zM671.999 444.658c15.393-26.668 57.453-37.939 84.121-22.541s53.335 30.795 75.873 114.915c-84.121 22.541-110.788 7.144-137.456-8.254-26.668-15.386-37.931-57.452-22.538-84.12v0zM352.001 444.658c15.393 26.668 4.13 68.734-22.538 84.12-26.668 15.398-53.335 30.795-137.456 8.254 22.538-84.12 49.205-99.518 75.873-114.915 26.656-15.398 68.728-4.127 84.121 22.541v0zM635.173 352.291c0-68.034-55.154-123.162-123.162-123.162-68.034 0-123.162 55.154-123.162 123.162 0 68.034 55.154 123.162 123.162 123.162s123.162-55.154 123.162-123.162z"/>
</svg>