<svg xmlns="http://www.w3.org/2000/svg" viewBox="0 -64 1024 1000" style="transform: scaleY(-1);">
<path fill="currentColor" d="M357.665 918.83c-56.013-0.237-107.916-11.606-133.22-19.531 0 0 229.558-38.955 248.657-197.428-174.442 251.515-364.716-52.663-364.716-52.663 39.669 10.407 153.264 41.297 229.125 28.266 51.897-8.915 102.49-55.968 100.307-55.376-123.685-30.429-320.178-580.892-286.815-625.592 29.754-34.185 59.537-22.518 89.292-5.178 14.729 116.657 129.665 628.502 270.308 587.185 0.020-0.007 0.043 0.007 0.062 0 11.84-4.054 23.041-11.164 23.649-22.027 1.159-20.69-12.199-54.508-9.047-77.998 7.315-54.503 17.988-73.461 33.508-92.474 37.066 20.834 72.534 95.955 79.87 134.904 33.214-14.545 86.606-48.232 130.162-173.342 22.769 117.237-10.070 209.713-117.87 250.778 46.681 20.178 249.876-81.923 274.676-138.836 24.132 102.619-146.551 228.185-288.653 221.513 27.244 7.106 57.182-1.199 85.672 19.78 38.229 28.149 82.812 52.394 124.358 78.434-139.72 60.773-268.656 30.767-277.735-32.135-7.131 139.606-115.465 172.129-211.589 171.721v0z"/>
</svg>