<svg xmlns="http://www.w3.org/2000/svg" viewBox="0 -64 1024 1000" style="transform: scaleY(-1);">
<path fill="currentColor" d="M728.852 211.71c-4.692 31.463-29.106 59.412-65.862 80.221-97.875 62.404-115.025 168.561-69.879 238.415 57.561 16.566 96.904 49.982 96.904 88.512 0 35.048-32.556 65.863-81.763 83.616 25.222 25.147 40.85 59.993 40.85 98.513 0 76.656-61.858 138.8-138.163 138.8s-138.163-62.143-138.163-138.8c0-38.513 15.621-73.354 40.836-98.499-49.226-17.75-81.796-48.572-81.796-83.629 0-38.987 40.287-72.737 98.967-89.093 45.893-69.589 26.362-174.436-74.613-238.814-35.414-20.68-58.675-48.422-63.207-79.274-63.643-26.935-103.516-65.501-103.516-108.34 0-81.409 143.94-147.411 321.499-147.411s321.499 65.995 321.499 147.411c0 42.858-39.906 81.437-103.593 108.374z"/>
</svg>