<svg xmlns="http://www.w3.org/2000/svg" viewBox="0 -64 1024 1000" style="transform: scaleY(-1);">
<path fill="currentColor" d="M747.762 249.84c145.652-54.574 71.982-215.199-55.329-214.672-99.712 0.418-105.18 52.269-173.3 52.556-59.993 0.261-86.115-57.541-159.397-57.235-133.521 0.556-228.001 160.25-72.012 213.263 204.453 69.478 110.493 189.791 232.79 188.585 119.43-1.176 41.797-113.013 227.244-182.494l0.003-0.002zM632.611 506.687c103.865 4.171 104.064 237.226-5.178 232.797-111.040-4.515-100.479-237.055 5.178-232.797zM426.174 503.248c103.519 8.885 91.268 241.664-17.608 232.278-110.664-9.552-87.695-241.33 17.608-232.278zM266.703 337.294c103.005 13.005 79.842 245.078-28.49 231.361-110.113-13.955-76.289-244.599 28.49-231.361zM793.418 333.888c103.94-1.969 120.334 230.592 11.003 232.625-111.123 2.048-116.744-230.632-11.003-232.625zM206.151 618.114c59.661 4.986 35.7 80.961-13.207 138.096-33.394-65.715-35.215-142.142 13.207-138.096zM826.398 623.57c-59.686 0.765-42.198 78.487 1.645 139.119 38.638-63.393 46.798-139.742-1.645-139.119zM640.251 782.235c-59.222-6.638-49.354 73.028-11.737 138.925 44.376-58.42 59.795-133.541 11.737-138.925zM403.464 774.917c-58.802-9.258-53.113 70.751-18.98 138.245 47.376-56.38 66.704-130.73 18.98-138.245z"/>
</svg>