<svg xmlns="http://www.w3.org/2000/svg" viewBox="0 -64 1024 1000" style="transform: scaleY(-1);">
<path fill="currentColor" d="M501.631 406.023h1.544c-3.658 8.745-8.401 17.243-13.96 24.972l-355.66 203.076c-11.83-4.148-19.409-16.608-19.409-35.498v-314.883c0-33.084 23.225-73.314 51.875-89.858l293.385-169.418c17.418-10.058 32.82-9.029 42.228 0.747v380.861h-0.002zM321.556 184.516l-58.557 33.809v61.368l58.557-33.809v-61.368zM371.353 320.221c-4.218-6.415-11.409-11.8-21.572-16.16l-10.38-3.832c-7.353-2.88-12.166-5.848-14.436-8.904-2.27-2.942-3.406-6.998-3.406-12.169v-7.758l-58.557 33.807v8.448c0 9.423 1.784 16.725 5.352 21.905 3.568 5.295 11.084 10.265 22.546 14.909l10.38 4.004c6.164 2.417 10.651 5.457 13.462 9.121 2.92 3.6 4.38 8.045 4.38 13.33 0 8.045-2.596 15.806-7.786 23.285-5.19 7.594-12.437 14.075-21.736 19.444-8.76 5.057-18.222 8.566-28.386 10.527-10.165 2.076-20.762 2.506-31.792 1.29v54.128c13.085-2.728 25.034-6.064 35.847-10.009s21.248-8.82 31.306-14.627c26.385-15.235 46.499-32.593 60.341-52.077 13.842-19.369 20.762-40.028 20.762-61.98 0.002-11.257-2.106-20.153-6.324-26.682zM867.542 696.107l-305.007 176.435c-28.637 16.566-75.066 16.566-103.705 0l-305.007-176.435c-24.432-14.132-28.002-35.753-10.744-52.085l338.49-193.274c18.671-4.666 40.006-4.634 58.639 0.104l338.857 193.91c16.376 16.242 12.54 37.427-11.523 51.345zM521.766 626.657l-7.37 4.129c-8.222 4.605-13.469 9.812-15.743 15.617-2.374 5.862-1.978 15.183 1.188 27.965l3.042 11.478c1.771 6.834 1.944 12.437 0.518 16.807-1.303 4.438-4.261 7.948-8.874 10.532-7.019 3.932-15.425 5.346-25.217 4.241-9.893-1.049-20.109-4.525-30.65-10.43-9.926-5.561-18.945-12.524-27.057-20.888-8.21-8.307-15.258-17.817-21.142-28.528l-47.226 26.459c10.618 10.668 21.051 19.996 31.301 27.985s21.075 15.176 32.471 21.562c29.903 16.753 57.712 26.716 83.425 29.886 25.613 3.227 47.996-0.525 67.148-11.252 9.826-5.506 16.26-11.787 19.302-18.846 2.942-7.003 3.114-16.232 0.518-27.685l-3.192-11.394c-2.116-8.152-2.557-14.015-1.321-17.592 1.136-3.52 3.961-6.545 8.473-9.072l6.769-3.792-66.363-37.183zM597.568 584.19l-53.544 29.997 66.363 37.18 53.544-29.997-66.363-37.18zM887.91 634.428l-353.92-202.53c-5.872-8.010-10.871-16.877-14.68-26.014v-378.888c9.196-11.451 25.388-13.238 43.842-2.583l293.385 169.418c28.649 16.544 51.875 56.774 51.875 89.858v314.881c0 19.464-8.047 32.108-20.502 35.858zM740.711 202.228l-58.557-33.807v61.368l58.557 33.809v-61.37zM790.508 395.435c-4.218-11.284-11.409-24.975-21.572-41.072l-10.382-15.819c-7.353-11.371-12.166-19.895-14.436-25.573-2.27-5.563-3.406-10.932-3.406-16.102v-7.758l-58.557-33.807v8.448c0 9.423 1.784 18.786 5.352 28.086 3.568 9.415 11.084 23.063 22.546 40.943l10.38 15.991c6.164 9.535 10.651 17.757 13.462 24.666 2.92 6.973 4.38 13.102 4.38 18.389 0 8.045-2.596 12.809-7.786 14.294-5.19 1.6-12.437-0.286-21.736-5.655-8.76-5.058-18.222-12.473-28.386-22.251-10.165-9.662-20.762-21.469-31.792-35.422v54.128c13.085 12.382 25.034 22.842 35.847 31.385 10.813 8.541 21.248 15.716 31.306 21.522 26.385 15.233 46.499 21.1 60.341 17.6 13.842-3.386 20.762-16.055 20.762-38.005 0.003-11.261-2.105-22.591-6.323-33.989z"/>
</svg>