<svg xmlns="http://www.w3.org/2000/svg" viewBox="0 -64 1024 1000" style="transform: scaleY(-1);">
<path fill="currentColor" d="M880.64 635.574l-338.424-193.663c-9.832-10.694-18.039-23.891-23.534-37.616v-376.51c9.076-12.166 25.593-14.274 44.47-3.374l293.385 169.418c28.649 16.544 51.875 56.774 51.875 89.858v314.883c0 23.032-11.264 36.513-27.772 37.004zM754.772 352.399c0.048-27.541-20.027-61.525-44.839-75.903s-44.966-3.708-45.014 23.833c0 0.065 0 0.13 0 0.195-0.048 27.541 20.027 61.525 44.839 75.903s44.966 3.708 45.014-23.833c0-0.065 0-0.13 0-0.195zM867.542 696.107l-305.007 176.435c-28.637 16.566-75.066 16.566-103.705 0l-305.007-176.435c-20.375-11.787-26.238-28.781-17.62-43.573l357.443-204.095c10.749-1.477 21.958-1.55 32.746-0.187l359.609 205.786c7.38 14.43 1.226 30.682-18.46 42.069zM318.766 641.088c-24.917-14.784-65.314-14.784-90.229 0-24.917 14.784-24.915 38.753 0 53.537 24.917 14.784 65.314 14.784 90.229 0 24.917-14.782 24.917-38.752 0-53.537zM556.717 640.569c-24.917-14.784-65.314-14.784-90.229 0-24.917 14.784-24.917 38.753 0 53.537s65.314 14.784 90.229 0c24.917-14.784 24.917-38.753 0-53.537zM793.795 640.567c-24.917-14.784-65.314-14.784-90.229 0s-24.915 38.753 0 53.537c24.917 14.784 65.314 14.784 90.229 0 24.917-14.784 24.915-38.752 0-53.537zM501.003 410.927c-4.821 10.245-11.099 20.002-18.364 28.41l-343.367 196.057c-15.056-1.791-25.127-15.038-25.127-36.821v-314.883c0-33.084 23.225-73.314 51.875-89.858l293.385-169.418c17.029-9.834 32.142-9.084 41.598 0.089v386.424zM245.83 241.663c-0.048-27.541-20.203-38.212-45.014-23.833s-44.887 48.362-44.839 75.903c0 0.065 0 0.13 0 0.195 0.048 27.541 20.203 38.212 45.014 23.833s44.887-48.362 44.839-75.903c0-0.067 0-0.13 0-0.195zM469.465 357.567c-0.048-27.541-20.203-38.212-45.014-23.833s-44.887 48.362-44.839 75.903c0 0.065 0 0.13 0 0.195 0.048 27.541 20.203 38.212 45.014 23.833s44.887-48.362 44.839-75.903c0-0.065 0-0.13 0-0.195z"/>
</svg>