<svg xmlns="http://www.w3.org/2000/svg" viewBox="0 -64 1024 1000" style="transform: scaleY(-1);">
<path fill="currentColor" d="M867.542 696.107l-305.007 176.435c-28.637 16.566-75.066 16.566-103.705 0l-305.007-176.435c-22.526-13.031-27.321-32.427-14.408-48.176l347.368-198.342c17.959-3.571 37.83-3.012 55.169 1.716l335.625 192.061c18.058 16.406 14.725 38.419-10.036 52.742zM318.766 641.088c-24.917-14.784-65.314-14.784-90.229 0-24.917 14.784-24.915 38.753 0 53.537 24.917 14.784 65.314 14.784 90.229 0 24.917-14.782 24.917-38.752 0-53.537zM556.72 499.9c-24.917-14.784-65.314-14.784-90.229 0-24.917 14.784-24.915 38.753 0 53.537 24.917 14.784 65.314 14.784 90.229 0 24.917-14.784 24.917-38.753 0-53.537zM466.488 694.106c24.917 14.784 65.314 14.784 90.229 0 24.917-14.784 24.917-38.753 0-53.537s-65.314-14.784-90.229 0c-24.917 14.784-24.917 38.753 0 53.537zM556.72 781.236c-24.917-14.784-65.314-14.784-90.229 0-24.917 14.784-24.915 38.753 0 53.537 24.917 14.784 65.314 14.784 90.229 0 24.917-14.784 24.917-38.753 0-53.537zM793.795 640.567c-24.917-14.784-65.314-14.784-90.229 0s-24.915 38.753 0 53.537c24.917 14.784 65.314 14.784 90.229 0 24.917-14.784 24.915-38.752 0-53.537zM888.516 634.228l-355.188-203.256c-5.419-7.536-10.056-15.801-13.676-24.312h1.727v-381.977c9.445-9.338 24.636-10.166 41.772-0.271l293.385 169.418c28.649 16.544 51.875 56.774 51.875 89.858v314.883c0 19.145-7.789 31.682-19.895 35.658zM642.948 164.619c0.048-27.541-20.027-61.525-44.839-75.903s-44.966-3.708-45.014 23.833c0 0.065 0 0.13 0 0.195-0.048 27.541 20.027 61.524 44.839 75.903s44.966 3.708 45.014-23.833c0-0.065 0-0.13 0-0.195zM642.948 409.639c0.048-27.541-20.027-61.524-44.839-75.903s-44.966-3.708-45.014 23.833c0 0.065 0 0.13 0 0.195-0.048 27.541 20.027 61.525 44.839 75.903s44.966 3.708 45.014-23.833c0-0.067 0-0.132 0-0.195zM754.765 229.176c0.048-27.541-20.027-61.525-44.839-75.903s-44.966-3.708-45.014 23.833c0 0.065 0 0.13 0 0.195-0.048 27.541 20.027 61.525 44.839 75.903s44.966 3.708 45.014-23.833c0-0.065 0-0.13 0-0.195zM754.765 474.196c0.048-27.541-20.027-61.525-44.839-75.903s-44.966-3.708-45.014 23.833c0 0.065 0 0.13 0 0.195-0.048 27.541 20.027 61.524 44.839 75.903s44.966 3.708 45.014-23.833c0-0.065 0-0.13 0-0.195zM866.583 293.733c0.048-27.541-20.027-61.524-44.839-75.903s-44.966-3.708-45.014 23.833c0 0.065 0 0.13 0 0.195-0.048 27.541 20.027 61.525 44.839 75.903s44.966 3.708 45.014-23.833c0-0.065 0-0.13 0-0.195zM866.583 538.753c0.048-27.541-20.027-61.525-44.839-75.903s-44.966-3.708-45.014 23.833c0 0.065 0 0.13 0 0.195-0.048 27.541 20.027 61.525 44.839 75.903 24.812 14.379 44.966 3.708 45.014-23.833 0-0.065 0-0.13 0-0.195zM503.701 404.74c-4.215 10.409-9.978 20.502-16.833 29.414l-351.232 200.547c-13.015-3.368-21.491-16.153-21.491-36.129v-314.883c0-33.084 23.225-73.314 51.875-89.858l293.385-169.418c18.756-10.831 35.185-8.822 44.296 3.14v377.186zM245.83 241.663c-0.048-27.541-20.203-38.212-45.014-23.833s-44.887 48.362-44.839 75.903c0 0.065 0 0.13 0 0.195 0.048 27.541 20.203 38.212 45.014 23.833s44.887-48.362 44.839-75.903c0-0.067 0-0.13 0-0.195zM245.83 486.683c-0.048-27.541-20.203-38.212-45.014-23.833s-44.887 48.362-44.839 75.903c0 0.065 0 0.13 0 0.195 0.048 27.541 20.203 38.212 45.014 23.833s44.887-48.362 44.839-75.903c0-0.067 0-0.132 0-0.195zM469.465 112.547c-0.048-27.541-20.203-38.212-45.014-23.833s-44.887 48.362-44.839 75.903c0 0.065 0 0.13 0 0.195 0.048 27.541 20.203 38.212 45.014 23.833s44.887-48.362 44.839-75.903c0-0.065 0-0.13 0-0.195zM469.465 357.567c-0.048-27.541-20.203-38.212-45.014-23.833s-44.887 48.362-44.839 75.903c0 0.065 0 0.13 0 0.195 0.048 27.541 20.203 38.212 45.014 23.833s44.887-48.362 44.839-75.903c0-0.065 0-0.13 0-0.195z"/>
</svg>