<svg xmlns="http://www.w3.org/2000/svg" viewBox="0 -64 1024 1000" style="transform: scaleY(-1);">
<path fill="currentColor" d="M867.542 696.107l-305.007 176.435c-28.637 16.566-75.066 16.566-103.705 0l-305.007-176.435c-19.535-11.299-25.732-27.386-18.616-41.73l361.313-206.305c8.641-0.977 17.525-1.059 26.205-0.227l364.315 208.478c5.646 13.837-0.845 28.994-19.499 39.784zM556.717 640.569c-24.917-14.784-65.314-14.784-90.229 0-24.917 14.784-24.917 38.753 0 53.537s65.314 14.784 90.229 0c24.917-14.784 24.917-38.753 0-53.537zM877.583 635.516l-331.728-189.831c-11.67-11.505-21.399-26.589-27.539-42.31v-375.068c8.99-12.619 25.697-14.949 44.835-3.897l293.385 169.418c28.649 16.544 51.875 56.774 51.875 89.858v314.884c0 24.427-12.671 38.11-30.829 36.946zM642.948 409.639c0.048-27.541-20.027-61.524-44.839-75.903s-44.966-3.708-45.014 23.833c0 0.065 0 0.13 0 0.195-0.048 27.541 20.027 61.525 44.839 75.903s44.966 3.708 45.014-23.833c0-0.067 0-0.132 0-0.195zM866.583 293.733c0.048-27.541-20.027-61.524-44.839-75.903s-44.966-3.708-45.014 23.833c0 0.065 0 0.13 0 0.195-0.048 27.541 20.027 61.525 44.839 75.903s44.966 3.708 45.014-23.833c0-0.065 0-0.13 0-0.195zM500.637 411.711c-5.282 11.028-12.255 21.461-20.31 30.217l-339.118 193.633c-16.123-0.849-27.063-14.284-27.063-36.988v-314.883c0-33.084 23.225-73.314 51.875-89.858l293.385-169.418c16.815-9.71 31.754-9.091 41.234-0.242v387.538h-0.003zM245.83 486.683c-0.048-27.541-20.203-38.212-45.014-23.833s-44.887 48.362-44.839 75.903c0 0.065 0 0.13 0 0.195 0.048 27.541 20.203 38.212 45.014 23.833s44.887-48.362 44.839-75.903c0-0.067 0-0.132 0-0.195zM357.64 300.329c-0.048-27.541-20.203-38.212-45.014-23.833s-44.887 48.362-44.839 75.903c0 0.065 0 0.13 0 0.195 0.048 27.541 20.203 38.212 45.014 23.833s44.887-48.362 44.839-75.903c0.002-0.067 0.002-0.132 0-0.195zM469.465 112.547c-0.048-27.541-20.203-38.212-45.014-23.833s-44.887 48.362-44.839 75.903c0 0.065 0 0.13 0 0.195 0.048 27.541 20.203 38.212 45.014 23.833s44.887-48.362 44.839-75.903c0-0.065 0-0.13 0-0.195z"/>
</svg>