<svg xmlns="http://www.w3.org/2000/svg" viewBox="0 -64 1024 1000" style="transform: scaleY(-1);">
<path fill="currentColor" d="M499.169 409.162h2.639c-3.962 8.777-8.995 17.236-14.827 24.84l-351.451 200.674c-12.956-3.409-21.385-16.18-21.385-36.102v-314.883c0-33.084 23.225-73.314 51.875-89.858l293.385-169.418c15.97-9.223 30.249-9.127 39.766-1.515l-0.002 386.262zM245.83 241.663c-0.048-27.541-20.203-38.212-45.014-23.833s-44.887 48.362-44.839 75.903c0 0.065 0 0.13 0 0.195 0.048 27.541 20.203 38.212 45.014 23.833s44.887-48.362 44.839-75.903c0-0.067 0-0.13 0-0.195zM245.83 486.683c-0.048-27.541-20.203-38.212-45.014-23.833s-44.887 48.362-44.839 75.903c0 0.065 0 0.13 0 0.195 0.048 27.541 20.203 38.212 45.014 23.833s44.887-48.362 44.839-75.903c0-0.067 0-0.132 0-0.195zM357.64 300.329c-0.048-27.541-20.203-38.212-45.014-23.833s-44.887 48.362-44.839 75.903c0 0.065 0 0.13 0 0.195 0.048 27.541 20.203 38.212 45.014 23.833s44.887-48.362 44.839-75.903c0.002-0.067 0.002-0.132 0-0.195zM469.465 112.547c-0.048-27.541-20.203-38.212-45.014-23.833s-44.887 48.362-44.839 75.903c0 0.065 0 0.13 0 0.195 0.048 27.541 20.203 38.212 45.014 23.833s44.887-48.362 44.839-75.903c0-0.065 0-0.13 0-0.195zM469.465 357.567c-0.048-27.541-20.203-38.212-45.014-23.833s-44.887 48.362-44.839 75.903c0 0.065 0 0.13 0 0.195 0.048 27.541 20.203 38.212 45.014 23.833s44.887-48.362 44.839-75.903c0-0.065 0-0.13 0-0.195zM867.542 696.107l-305.007 176.435c-28.637 16.566-75.066 16.566-103.705 0l-305.007-176.435c-22.607-13.076-27.351-32.564-14.266-48.342l347.034-198.152c13.374-2.684 27.822-3.072 41.5-1.146l357.289 204.458c8.291 14.7 2.357 31.5-17.839 43.182zM466.491 834.773c24.917 14.784 65.314 14.784 90.229 0 24.917-14.784 24.915-38.753 0-53.537-24.917-14.784-65.314-14.784-90.229 0-24.917 14.784-24.917 38.753 0 53.537zM318.766 641.088c-24.917-14.784-65.314-14.784-90.229 0-24.917 14.784-24.915 38.753 0 53.537 24.917 14.784 65.314 14.784 90.229 0 24.917-14.782 24.917-38.752 0-53.537zM347.95 570.235c-24.917 14.784-24.917 38.753 0 53.537s65.314 14.784 90.229 0c24.917-14.784 24.917-38.753 0-53.537-24.915-14.785-65.312-14.785-90.229 0zM556.72 499.9c-24.917-14.784-65.314-14.784-90.229 0-24.917 14.784-24.915 38.753 0 53.537 24.917 14.784 65.314 14.784 90.229 0 24.917-14.784 24.917-38.753 0-53.537zM585.025 710.902c-24.917 14.784-24.917 38.753 0 53.537s65.314 14.784 90.229 0c24.917-14.784 24.917-38.753 0-53.537-24.915-14.784-65.312-14.784-90.229 0zM793.795 640.567c-24.917-14.784-65.314-14.784-90.229 0s-24.915 38.753 0 53.537c24.917 14.784 65.314 14.784 90.229 0 24.917-14.784 24.915-38.752 0-53.537zM881.858 635.514l-341.081-195.183c-10.345-11.693-18.766-26.138-23.93-40.923v-368.827c8.551-14.58 26.068-17.854 46.304-6.167l293.385 169.418c28.649 16.544 51.875 56.774 51.875 89.858v314.881c0 22.461-10.713 35.837-26.554 36.944zM642.948 164.619c0.048-27.541-20.027-61.525-44.839-75.903s-44.966-3.708-45.014 23.833c0 0.065 0 0.13 0 0.195-0.048 27.541 20.027 61.524 44.839 75.903s44.966 3.708 45.014-23.833c0-0.065 0-0.13 0-0.195zM642.948 409.639c0.048-27.541-20.027-61.524-44.839-75.903s-44.966-3.708-45.014 23.833c0 0.065 0 0.13 0 0.195-0.048 27.541 20.027 61.525 44.839 75.903s44.966 3.708 45.014-23.833c0-0.067 0-0.132 0-0.195zM866.583 293.733c0.048-27.541-20.027-61.524-44.839-75.903s-44.966-3.708-45.014 23.833c0 0.065 0 0.13 0 0.195-0.048 27.541 20.027 61.525 44.839 75.903s44.966 3.708 45.014-23.833c0-0.065 0-0.13 0-0.195zM866.583 538.753c0.048-27.541-20.027-61.525-44.839-75.903s-44.966-3.708-45.014 23.833c0 0.065 0 0.13 0 0.195-0.048 27.541 20.027 61.525 44.839 75.903 24.812 14.379 44.966 3.708 45.014-23.833 0-0.065 0-0.13 0-0.195z"/>
</svg>