<svg xmlns="http://www.w3.org/2000/svg" viewBox="0 -64 1024 1000" style="transform: scaleY(-1);">
<path fill="currentColor" d="M503.93 404.175c-4.261 10.681-10.163 21.048-17.206 30.165l-332.586 199.443c-22.921 7.031-39.993-6.851-39.993-35.21v-314.883c0-33.084 23.225-73.314 51.875-89.858l293.385-169.418c18.918-10.923 35.464-8.782 44.526 3.455v376.306h-0.002zM357.64 300.329c-0.048-27.541-20.203-38.212-45.014-23.833s-44.887 48.362-44.839 75.903c0 0.065 0 0.13 0 0.195 0.048 27.541 20.203 38.212 45.014 23.833s44.887-48.362 44.839-75.903c0.002-0.067 0.002-0.132 0-0.195zM867.542 696.107l-305.007 176.435c-28.637 16.566-75.066 16.566-103.705 0l-305.007-176.435c-14.715-8.513-21.848-19.742-21.441-30.897l361.542-216.806c11.795-1.592 24.135-1.495 35.852 0.326l348.741 195.505c16.999 16.307 13.349 37.801-10.977 51.872zM556.72 499.9c-24.917-14.784-65.314-14.784-90.229 0-24.917 14.784-24.915 38.753 0 53.537 24.917 14.784 65.314 14.784 90.229 0 24.917-14.784 24.917-38.753 0-53.537zM556.72 781.236c-24.917-14.784-65.314-14.784-90.229 0-24.917 14.784-24.915 38.753 0 53.537 24.917 14.784 65.314 14.784 90.229 0 24.917-14.784 24.917-38.753 0-53.537zM891.112 633.224l-355.659-199.384c-9.637-12.607-17.106-27.536-21.056-42.383v-355.797c7.25-18.8 26.342-24.19 48.754-11.247l293.385 169.418c28.649 16.544 51.875 56.774 51.875 89.858v314.883c0 17.742-6.685 29.815-17.299 34.654zM642.948 164.619c0.048-27.541-20.027-61.525-44.839-75.903s-44.966-3.708-45.014 23.833c0 0.065 0 0.13 0 0.195-0.048 27.541 20.027 61.524 44.839 75.903s44.966 3.708 45.014-23.833c0-0.065 0-0.13 0-0.195zM754.772 352.399c0.048-27.541-20.027-61.525-44.839-75.903s-44.966-3.708-45.014 23.833c0 0.065 0 0.13 0 0.195-0.048 27.541 20.027 61.525 44.839 75.903s44.966 3.708 45.014-23.833c0-0.065 0-0.13 0-0.195zM866.583 538.753c0.048-27.541-20.027-61.525-44.839-75.903s-44.966-3.708-45.014 23.833c0 0.065 0 0.13 0 0.195-0.048 27.541 20.027 61.525 44.839 75.903 24.812 14.379 44.966 3.708 45.014-23.833 0-0.065 0-0.13 0-0.195z"/>
</svg>