<svg xmlns="http://www.w3.org/2000/svg" viewBox="0 -64 1024 1000" style="transform: scaleY(-1);">
<path fill="currentColor" d="M867.542 696.107l-305.007 176.435c-28.637 16.566-75.066 16.566-103.705 0l-305.007-176.435c-20.366-11.78-26.233-28.766-17.632-43.553l357.488-204.12c11.961-1.64 24.491-1.537 36.373 0.337l354.606 202.922c9.341 14.986 3.645 32.404-17.117 44.413zM318.766 641.088c-24.917-14.784-65.314-14.784-90.229 0-24.917 14.784-24.915 38.753 0 53.537 24.917 14.784 65.314 14.784 90.229 0 24.917-14.782 24.917-38.752 0-53.537zM556.72 499.9c-24.917-14.784-65.314-14.784-90.229 0-24.917 14.784-24.915 38.753 0 53.537 24.917 14.784 65.314 14.784 90.229 0 24.917-14.784 24.917-38.753 0-53.537zM556.72 781.236c-24.917-14.784-65.314-14.784-90.229 0-24.917 14.784-24.915 38.753 0 53.537 24.917 14.784 65.314 14.784 90.229 0 24.917-14.784 24.917-38.753 0-53.537zM793.795 640.567c-24.917-14.784-65.314-14.784-90.229 0s-24.915 38.753 0 53.537c24.917 14.784 65.314 14.784 90.229 0 24.917-14.784 24.915-38.752 0-53.537zM883.099 635.405l-343.703-196.683c-7.814-9.173-14.451-19.905-19.324-31.103v-381.558c9.313-10.623 25.131-12.017 43.080-1.652l293.385 169.418c28.649 16.544 51.875 56.774 51.875 89.858v314.884c0 21.87-10.155 35.132-25.313 36.836zM642.948 164.619c0.048-27.541-20.027-61.525-44.839-75.903s-44.966-3.708-45.014 23.833c0 0.065 0 0.13 0 0.195-0.048 27.541 20.027 61.524 44.839 75.903s44.966 3.708 45.014-23.833c0-0.065 0-0.13 0-0.195zM642.948 409.639c0.048-27.541-20.027-61.524-44.839-75.903s-44.966-3.708-45.014 23.833c0 0.065 0 0.13 0 0.195-0.048 27.541 20.027 61.525 44.839 75.903s44.966 3.708 45.014-23.833c0-0.067 0-0.132 0-0.195zM754.772 352.399c0.048-27.541-20.027-61.525-44.839-75.903s-44.966-3.708-45.014 23.833c0 0.065 0 0.13 0 0.195-0.048 27.541 20.027 61.525 44.839 75.903s44.966 3.708 45.014-23.833c0-0.065 0-0.13 0-0.195zM866.583 293.733c0.048-27.541-20.027-61.524-44.839-75.903s-44.966-3.708-45.014 23.833c0 0.065 0 0.13 0 0.195-0.048 27.541 20.027 61.525 44.839 75.903s44.966 3.708 45.014-23.833c0-0.065 0-0.13 0-0.195zM866.583 538.753c0.048-27.541-20.027-61.525-44.839-75.903s-44.966-3.708-45.014 23.833c0 0.065 0 0.13 0 0.195-0.048 27.541 20.027 61.525 44.839 75.903 24.812 14.379 44.966 3.708 45.014-23.833 0-0.065 0-0.13 0-0.195zM502.393 407.837c-4.978 11.379-11.775 22.272-19.775 31.525l-343.326 196.033c-15.068-1.781-25.147-15.029-25.147-36.822v-314.883c0-33.084 23.225-73.314 51.875-89.858l293.385-169.418c17.889-10.33 33.663-8.98 42.988 1.544v381.878zM245.83 241.663c-0.048-27.541-20.203-38.212-45.014-23.833s-44.887 48.362-44.839 75.903c0 0.065 0 0.13 0 0.195 0.048 27.541 20.203 38.212 45.014 23.833s44.887-48.362 44.839-75.903c0-0.067 0-0.13 0-0.195zM245.83 364.881c-0.048-27.541-20.203-38.212-45.014-23.833s-44.887 48.362-44.839 75.903c0 0.065 0 0.13 0 0.195 0.048 27.541 20.203 38.212 45.014 23.833s44.887-48.362 44.839-75.903c0-0.065 0-0.13 0-0.195zM245.83 486.683c-0.048-27.541-20.203-38.212-45.014-23.833s-44.887 48.362-44.839 75.903c0 0.065 0 0.13 0 0.195 0.048 27.541 20.203 38.212 45.014 23.833s44.887-48.362 44.839-75.903c0-0.067 0-0.132 0-0.195zM469.465 112.547c-0.048-27.541-20.203-38.212-45.014-23.833s-44.887 48.362-44.839 75.903c0 0.065 0 0.13 0 0.195 0.048 27.541 20.203 38.212 45.014 23.833s44.887-48.362 44.839-75.903c0-0.065 0-0.13 0-0.195zM469.465 235.766c-0.048-27.541-20.203-38.212-45.014-23.833s-44.887 48.362-44.839 75.903c0 0.065 0 0.13 0 0.195 0.048 27.541 20.203 38.212 45.014 23.833s44.887-48.362 44.839-75.903c0-0.065 0-0.13 0-0.195zM469.465 357.567c-0.048-27.541-20.203-38.212-45.014-23.833s-44.887 48.362-44.839 75.903c0 0.065 0 0.13 0 0.195 0.048 27.541 20.203 38.212 45.014 23.833s44.887-48.362 44.839-75.903c0-0.065 0-0.13 0-0.195z"/>
</svg>