<svg xmlns="http://www.w3.org/2000/svg" viewBox="0 -64 1024 1000" style="transform: scaleY(-1);">
<path fill="currentColor" d="M958.043 224.638c-15.367 57.359-74.401 91.473-131.745 76.067-190.275-51.132-129.704-35.7-323.759-86.754-57.426-15.109-91.432-74.386-76.065-131.745s74.39-91.432 131.745-76.067c193.817 51.938 133.188 36.734 323.759 86.754 57.433 15.078 91.432 74.386 76.065 131.745zM882.86 112.795l-129.149-34.5c-64.291-17.226-108.885 156.299-46.367 173.049l129.149 34.5c103.486 27.728 148.246-145.75 46.367-173.049zM420.999 645.844c-34.864 34.866-91.458 34.869-126.323 0v0c-117.815-117.82-80.532-81.711-196.805-196.807-35.045-34.687-34.864-91.46 0-126.325s91.485-34.888 126.323 0c115.602 115.765 78.45 79.525 196.805 196.807 35.021 34.711 34.864 91.458 0 126.325zM206.504 327.054c-63.1-63.102-167.629 43.396-105.512 105.514l92.322 92.32c-30.374-29.96 69.39-141.634 105.512-105.514l-92.322-92.32zM824.577 502.775c-49.989 182.837-33.495 125.008-83.457 311.466h0.003c-14.784 55.182-71.565 87.96-126.744 73.178s-88.213-71.635-73.177-126.744c50.806-186.239 34.529-128.347 83.457-311.471 14.744-55.186 71.565-87.957 126.744-73.175s88.241 71.645 73.173 126.745zM642.407 451.097l-38.757 144.643c15.163-56.592 178.291-2.892 165.303 44.291l38.757-144.638c26.078-97.317-138.816-143.15-165.303-44.296z"/>
</svg>