<svg xmlns="http://www.w3.org/2000/svg" viewBox="0 -64 1024 1000" style="transform: scaleY(-1);">
<path fill="currentColor" d="M927.592 707.274c-51.788 89.699-166.879 120.921-256.306 68.676-296.738-173.345-203.213-117.326-506.314-292.316v-0.005c-89.698-51.783-120.464-166.608-68.676-256.307s166.849-120.867 256.306-68.676c302.314 176.37 208.572 120.698 506.314 292.321 89.734 51.72 120.464 166.608 68.676 256.307zM849.397 475.498l-248.047-143.21c13.569 7.835 21.721 19.945 25.486 34.854 34.165 19.922 78.805 45.711 169.546 97.716 26.701 15.303 46.695 37.208 59.24 62.994l-0.005 0.002c20.913 42.976 20.599 95.678-4.903 140.047-3.682 6.415-8.369 11.773-12.818 17.408 21.714-65.611-4.811-139.952-67.11-175.655-71.565-41.015-114.509-65.82-146.28-84.342-13.332 54.432-52.419 118.016-94.241 157.633-60.403-35.665-83.699-49.879-235.142-136.675-61.472-35.229-88.079-108.071-67.915-173.031-0.742 0.384-1.488 0.76-2.223 1.158-3.481 4.322-6.936 8.656-9.789 13.626-25.501 44.369-25.815 97.071-4.903 140.047l-0.003 0.002c12.545 25.785 32.539 47.69 59.24 62.994 133.616 76.578 167.283 96.314 214.716 124.176-17.104 7.372-33.196 8.371-46.564 0.53l248.047 143.21c166.895 96.358 333.201-185.601 163.668-283.483z"/>
</svg>