<svg xmlns="http://www.w3.org/2000/svg" viewBox="0 -64 1024 1000" style="transform: scaleY(-1);">
<path fill="currentColor" d="M729.006 285.931l58.067-0.596-87.443 98.548 56.784 40.714c-92.491 72.719-117.461 108.942-139.872 181.666l75.251-34.128-93.227 125.441 51.253 17.288c-86.696 68.506-129.051 137.563-152.063 206.861l-0.003-0.498c-36.171-77.142-89.985-144.486-155.12-205.54l75.308 7.876-102.512-129.896 49.514 15.819-67.091-109.611 32.983-19.656-130.279-183.994 72.081-0.374-103.21-166.88 126.874 16.189 24.013-64.073 112.668 42.848-24.284-167.547h147.85l-14.047 146.464 56.694-24.334 20.368 49.496 88.383-41.849 112.623 41.424-91.567 158.342z"/>
</svg>