<svg xmlns="http://www.w3.org/2000/svg" viewBox="0 -64 1024 1000" style="transform: scaleY(-1);">
<path fill="currentColor" d="M243.983 401.111c47.926-157.646-109.713-219.423-219.423-329.14 25.204-84.508 24.464-85.246 109.713-109.717 109.713 109.717 164.568 274.278 329.137 219.423l-219.427 219.433zM905.774 183.78c0.015-75.824-62.213-137.305-138.993-137.32-76.778-0.015-139.032 61.442-139.047 137.266 0 0.018 0 0.035 0 0.053-0.015 75.824 62.213 137.305 138.993 137.32s139.032-61.442 139.047-137.266c0-0.017 0-0.035 0-0.053zM614.789 191.36c0 0.018 0 0.037 0 0.055-0.015 79.356 65.112 143.697 145.465 143.712 32.711 0.007 62.902-10.651 87.205-28.642 145.916 125.411 232.54 317.306 35.586 514.257-383.995 383.997-748.776-309.925-639.063-419.631l219.427-219.423c25.724-25.724 83.575-25.346 152.112-4.764-0.481 4.747-0.732 9.563-0.732 14.436z"/>
</svg>