<svg xmlns="http://www.w3.org/2000/svg" viewBox="0 -64 1024 1000" style="transform: scaleY(-1);">
<path fill="currentColor" d="M561.124 518.215c13.78 158.727 79.974 296.825 175.572 384.438h175.206c-95.598-87.613-150.665-225.709-161.897-384.438h141.133v-158.641h-137.876c16.738-146.13 72.094-272.082 162.714-353.083h-175.208c-90.63 81.001-155.556 206.963-175.705 353.083h-115.593c-20.149-146.13-85.076-272.082-175.705-353.083h-175.198c90.62 81.001 145.958 206.963 162.714 353.083h-149.329v158.641h152.588c-11.252 158.727-66.301 296.825-161.897 384.438h175.216c95.578-87.613 161.782-225.709 175.552-384.438h107.714z"/>
</svg>