<svg xmlns="http://www.w3.org/2000/svg" viewBox="0 -64 1024 1000" style="transform: scaleY(-1);">
<path fill="currentColor" d="M280.708 455.86c205.951-195.006 461.689-364.507 708.401-481.706-116.557 245.372-287.216 503.188-482.765 709.527 9.821 5.875 19.862 11.505 30.172 16.835l81.633-6.998 55.246 129.878-137.704-11.561c-66.264-39.931-127.651-84.047-183.089-133.259-48.465 80.579-113.315 143.26-194.568 181.195 0.685 3.994 1.062 8.092 1.062 12.281 0 39.856-32.315 72.171-72.173 72.171s-72.173-32.315-72.173-72.171 32.315-72.161 72.173-72.161c5.205 0 10.277 0.563 15.17 1.61 35.237-88.751 99.036-148.948 178.853-193.13-50.306-54.549-94.068-114.708-130.158-181.44l-11.561-137.704 129.057 54.426-7.004 81.629c6.351 10.332 12.826 20.525 19.429 30.578zM338.049 525.204l102.031 102.027c95.227-95.222 178.741-219.096 234.554-336.584-118.351 56.23-241.353 139.326-336.585 234.556z"/>
</svg>