<svg xmlns="http://www.w3.org/2000/svg" viewBox="0 -64 1024 1000" style="transform: scaleY(-1);">
<path fill="currentColor" d="M985.412 300.464l-120.129-33.79 114.78 185.361-136.827-57.541 108.24 204.356-145.035-86.003 37.006 246.437-103.292-231.513-142.017 287.589 45.918-329.569-132.293 104.824 84.813-171.274-240.466 153.715 146.962 109.152-257.128 234.356h-205.578l0.003-130.733 183.725-141.038-120.057-115.994 470.497-314.543-167.418 11.733 186.196-152.872-154.851-10.868 226.593-81.19-9.188 137.817h-43.519c0 75.475-1.48 183.652 64.96 199.655-10.183 15.273-16.372 35.284-16.372 57.207 0 47.909 29.487 86.751 65.857 86.751s65.857-38.842 65.857-86.751c0-22.443-6.471-42.894-17.087-58.296 60.882-17.286 65.608-123.406 65.608-198.566h-45.856l-10.502-139.374 183.533 118.969-97.985-8.755 115.054 210.749z"/>
</svg>