<svg xmlns="http://www.w3.org/2000/svg" viewBox="0 -64 1024 1000" style="transform: scaleY(-1);">
<path fill="currentColor" d="M587.059 168.032l-1.784-23.951h-144.716l-1.579 23.951h-266.148l342.539-200.774 342.562 200.774zM515.525 770.598c2.706 0 5.504 0.446 8.135 0l0.007-0.005c29.105-3.78 53.489-28.126 64.31-61.427h269.965l-342.554 200.766-342.549-200.766h270.276c11.854 36.119 39.851 61.432 72.41 61.432zM427.192 346.915h-63.094c-21.325 113.425 7.086 238.318 96.802 252.23-14.501 18.193-23.831 43.471-23.831 71.485 0 22.867 6.029 43.897 16.14 60.717h-153.672v-580.087h140.549l-12.894 195.656zM578.035 731.347c10.009-16.893 15.956-37.948 15.956-60.72 0-28.72-9.837-54.371-24.99-72.642 82.13-15.452 121.562-134.583 97.38-251.069h-65.997l-14.575-195.654h145.408v580.085h-153.182z"/>
</svg>