<svg xmlns="http://www.w3.org/2000/svg" viewBox="0 -64 1024 1000" style="transform: scaleY(-1);">
<path fill="currentColor" d="M511.651 864.045l-31.159-83.741-41.87 77.899-15.581-79.847-59.397 74.978 8.765-107.904c36.802-36.802 241.144-37.342 278.488 0l7.791 107.904-59.397-74.978-15.581 79.847-41.87-76.925-30.189 82.767zM514.928 677.296c-87.678 0-158.837-90.951-158.837-203.019 0-59.624 20.891-112.959 52.944-150.112-169.9-38.71-180.997-174.541-180.997-372.818h576.24c0 197.54 2.417 340.875-179.768 376.51 30.058 36.946 49.249 88.951 49.249 146.42 0 112.067-71.157 203.019-158.837 203.019h0.007z"/>
</svg>