<svg xmlns="http://www.w3.org/2000/svg" viewBox="0 -64 1024 1000" style="transform: scaleY(-1);">
<path fill="currentColor" d="M975.347 531.868c-46.227 43.528-132.175 27.132-191.971-36.622-10.87-11.588-20.104-23.95-27.698-36.672-195.972 91.086-635.909-166.219-342.323-386.888l-0.003-0.003h-238.245l-52.815-95.326h513.49l-176.669 206.163c48.464 53.328 134.689 87.271 193.678 89.983 27.541-90.049 72.38-226.626 143.235-296.143h121.534c-79.214 85.607-142.189 198.307-160.061 325.963 0.443-0.436 0.855-0.895 1.31-1.323 46.227-43.528 132.173-27.132 191.971 36.622s70.796 150.718 24.569 194.246zM447.486 440.149v496.194h-100.257v-575.445c26.236 31.664 61.017 58.355 100.257 79.251zM645.426 936.348h-97.686v-457.706c32.456 8.259 65.571 12.965 97.686 13.785v443.922zM239.265 90.858v845.49h-100.257v-893.225l32.636 47.735zM853.647 557.712v378.631h-100.253v-452.66c5.025 6.827 10.527 13.492 16.553 19.915 24.944 26.594 54.437 44.912 83.701 54.113z"/>
</svg>