<svg xmlns="http://www.w3.org/2000/svg" viewBox="0 -64 1024 1000" style="transform: scaleY(-1);">
<path fill="currentColor" d="M933.541 349.998c54.583 54.583 68.62 129.037 31.353 166.304-37.265 37.267-111.721 23.23-166.304-31.353-10.609-10.608-19.663-21.972-27.13-33.662-187.185 112.735-658.733-152.379-357.366-378.898l-0.003-0.003h-238.245l-52.815-95.326h513.49l-176.669 206.163c48.464 53.328 134.689 87.271 193.678 89.983 27.541-90.049 72.38-226.626 143.235-296.143h121.534c-86.023 92.965-152.895 217.883-163.65 359.207 3.231-6.488 7.394-12.428 12.589-17.625 37.265-37.267 111.721-23.23 166.304 31.353zM300.247 261.211c30.205 177.112 300.044 272.529 459.819 215.606l102.766 255.721-163.952-164.864 38.357 322.993-83.592-191.58-27.703 77.147-65.315-166.732-161.060 308.389 27.651-286.957-260.049 212.568 145.019-279.342-155.167 58.849 68.446-124.069-163.888 4.154 209.743-136.142-207.934-59.92 236.86-45.823z"/>
</svg>