<svg xmlns="http://www.w3.org/2000/svg" viewBox="0 -64 1024 1000" style="transform: scaleY(-1);">
<path fill="currentColor" d="M964.331 414.746c0 47.812-114.977 88.867-278.712 106.391-0.291 3.617-0.611 7.22-0.956 10.811-0.048 0.503-0.095 1.007-0.144 1.51-0.359 3.667-0.75 7.317-1.169 10.947-0.062 0.531-0.122 1.061-0.184 1.592-0.426 3.603-0.884 7.185-1.373 10.744-0.074 0.538-0.147 1.074-0.222 1.61-0.499 3.545-1.032 7.061-1.6 10.551-0.045 0.276-0.082 0.56-0.127 0.835l0.012-0.134c-1.194 7.267-2.536 14.415-4.061 21.39 168.94 16.91 288.536 58.645 288.536 107.408 0 55.181-153.164 101.356-357.667 112.749-2.237 57.105-33.687 104.253-75.577 117.969-8.052 2.636-16.489 4.039-25.179 4.039-3.475 0-7.076 0.439-10.461 0l0.005-0.002c-49.18-6.395-87.915-58.425-90.301-122.279-202.035-11.854-352.737-57.737-352.74-112.475-0.003-48.788 119.721-90.543 288.805-107.436-2.639-10.658-4.894-21.699-6.812-33.007l0.010 0.102c-0.053-0.314-0.097-0.635-0.15-0.949-0.616-3.67-1.203-7.362-1.752-11.080-0.077-0.52-0.149-1.041-0.224-1.56-0.533-3.673-1.037-7.365-1.508-11.077-0.072-0.568-0.139-1.139-0.209-1.709-0.443-3.57-0.865-7.151-1.255-10.746-162.768-17.632-276.903-58.557-276.906-106.192-0.003-54.563 149.75-100.324 350.811-112.354l3.849-51.673c-203.342-11.616-355.219-57.62-355.219-112.612 0-63.759 204.154-115.441 455.987-115.441s455.987 51.683 455.987 115.441c0.002 54.828-150.971 100.726-353.409 112.508l3.413 51.791c200.904 12.061 350.502 57.8 350.502 112.336zM833.725 429.909c0-35.862-90.368-66.605-216.635-78.036l2.407 36.535h69.493c0 25.358 0.102 53.002-0.69 81.117l0.003-0.033c-0.003 0.090-0.007 0.18-0.008 0.269-0.11 3.867-0.239 7.744-0.386 11.625-0.013 0.369-0.027 0.737-0.040 1.104-0.149 3.859-0.321 7.721-0.511 11.583-0.020 0.401-0.037 0.802-0.058 1.203-0.050 0.987-0.105 1.973-0.157 2.958 88.318-14.503 146.582-39.528 146.582-68.324zM833.725 713.563c0-31.609-70.202-59.238-173.303-73.177-16.596 38.404-42.824 65.9-84.264 72.326 16.347 20.505 27.574 48.016 30.095 78.758 131.904-10.324 227.472-41.025 227.472-77.908zM181.854 713.563c0.002 36.438 94.024 66.841 223.757 77.525 2.669-31.418 14.491-59.282 31.559-79.867-37.34-7.028-62.462-33.839-79.354-71.070-104.4 13.862-175.961 41.625-175.961 73.412zM181.854 429.909c0 28.57 57.813 53.432 145.314 67.987-0.084-1.046-0.169-2.091-0.247-3.137-0.048-0.63-0.092-1.258-0.137-1.888-0.272-3.683-0.525-7.367-0.755-11.049-0.042-0.677-0.080-1.351-0.12-2.028-0.217-3.618-0.421-7.231-0.601-10.84-0.038-0.778-0.074-1.554-0.11-2.332-0.165-3.463-0.321-6.921-0.454-10.365-0.012-0.309-0.028-0.623-0.040-0.932l0.010 0.114c-0.894-23.181-1.124-45.868-1.124-67.031h73.229l2.721-36.537c-126.585 11.429-217.684 42.173-217.684 78.038zM833.539 152.908c0-45.54-145.824-82.458-325.706-82.458s-325.706 36.917-325.706 82.458c0 36.77 95.077 67.915 226.379 78.547l7.736-103.84c49.194-17.299 143.869-15.437 186.066 0l6.832 103.678c130.277-10.786 224.398-41.8 224.398-78.385z"/>
</svg>