<svg xmlns="http://www.w3.org/2000/svg" viewBox="0 -64 1024 1000" style="transform: scaleY(-1);">
<path fill="currentColor" d="M904.59 588.214c37.156-76.184 2.437-246.589-118.004-269.406 50.924 42.669 86.203 149.654 66.796 193.705-66.314-90.708-150.825-4.874-65.683 82.381 56.567 57.975 76.125 131.164 20.039 211.517 17.353-76.601-71.992-161.882-133.199-107.984-41.328 36.39-19.53 116.105 45.253 136.93-51.38 17.794-90.962-5.362-100.192-41.191-33.668 32.579-77.839 53.906-65.683 107.983l-0.007 0.002c-61.006-27.085-43.604-105.332-15.586-139.155 53.375-64.42-59.744-99.413-93.513 10.019-10.252-33.593-46.763-40.982-67.906-14.473-13.374 16.768-37.16 60.264-23.377 102.418-39.809-28.087-60.383-85.889-36.735-120.231 55.819-81.063-22.368-143.5-112.436-77.928 69.492-91.017 40.347-228.502-31.171-274.973 27.99 61.076 15.756 168.113-42.303 189.253 30.284-89.681-44.857-156.515-81.265-118.004v-481.445h92.818c25.445 107.929 84.247 174.468 221.678 200.328-41.491 50.001-67.781 120.887-67.781 199.463 0 151.323 95.76 274.090 214.193 274.090s214.193-122.77 214.193-274.090c0-76.628-24.003-146.983-63.717-196.75 150.344-23.659 206.928-92.105 227.817-203.043h95.924v438.030c-12.27 59.19-33.625 158.277-80.154 172.553zM161.854 720.436c-46.411 92.827 128.915 114.868 9.605 197.694-4.455-63.089-190.108-90.277-9.605-197.694z"/>
</svg>