<svg xmlns="http://www.w3.org/2000/svg" viewBox="0 -64 1024 1000" style="transform: scaleY(-1);">
<path fill="currentColor" d="M934.972 350.146c54.665 54.667 68.725 129.267 31.394 166.566-37.327 37.329-111.899 23.271-166.564-31.396-10.62-10.62-19.687-21.996-27.163-33.702-25.987 15.649-57.434 24.039-91.544 26.261l-34.824 280.742 38.311 40.923-11.073 70.019-36.201-38.671-1.211 9.765-14.266-1.77 1.138-9.174-44.835 24.763 11.073-70.019 42.272-23.348 35.062-282.659c-19.448 0.284-39.595-1.305-59.959-4.576l-170.951 296.087 19.515 48.056-35.443 61.391-19.515-48.059-5.942 10.292-12.449-7.188 6.070-10.513-51.791 7.188 35.443-61.391 51.792-7.188 168.23-291.377c-19.416-3.88-38.91-9.244-58.070-15.907l-223.245 189.786 4.134 51.016-52.236 47.922-4.401-54.305-12.715 10.809-9.31-10.951 9.972-8.478-48.824-8.229 52.236-47.922 52.276 8.809 216.62-184.151c-167.857-65.208-300.101-229.558-103.319-377.483h-238.627l-52.898-95.473h514.324l-176.945 206.487c48.535 53.412 134.912 87.403 193.998 90.14 27.576-90.197 72.488-226.992 143.467-296.629h121.737c-86.163 93.104-153.137 218.243-163.925 359.804 3.236-6.502 7.407-12.455 12.614-17.662 37.329-37.329 111.899-23.271 166.566 31.396z"/>
</svg>