<svg xmlns="http://www.w3.org/2000/svg" viewBox="0 -64 1024 1000" style="transform: scaleY(-1);">
<path fill="currentColor" d="M180.747 181.162h76.867v-33.11h-126.941v33.11l63.764 56.275c5.693 5.148 9.906 10.178 12.635 15.093s4.094 10.023 4.094 15.327c0 8.19-2.77 14.78-8.307 19.772-5.459 4.991-12.752 7.487-21.878 7.487-7.019 0-14.702-1.522-23.048-4.562-8.346-2.963-17.276-7.41-26.793-13.337v38.374c10.14 3.354 20.163 5.888 30.069 7.604 9.906 1.794 19.616 2.691 29.131 2.691 20.903 0 37.126-4.602 48.671-13.805 11.621-9.204 17.433-22.035 17.433-38.491 0-9.517-2.457-18.407-7.37-26.676-4.915-8.19-15.248-19.187-31.004-32.994l-37.323-32.758zM878.361 115.441c11.777-3.042 20.709-8.346 26.793-15.911 6.162-7.487 9.243-17.042 9.243-28.664 0-17.316-6.63-30.496-19.889-39.545-13.26-8.97-32.603-13.454-58.031-13.454-8.97 0-17.978 0.742-27.027 2.223-8.97 1.403-17.861 3.548-26.676 6.435v34.748c8.424-4.211 16.77-7.41 25.037-9.594 8.346-2.106 16.536-3.159 24.569-3.159 11.934 0 21.060 2.066 27.377 6.201 6.396 4.134 9.594 10.061 9.594 17.784 0 7.956-3.276 13.962-9.827 18.018-6.473 4.134-16.068 6.201-28.781 6.201h-18.018v29.014h18.953c11.309 0 19.733 1.754 25.271 5.265 5.538 3.588 8.307 9.009 8.307 16.262 0 6.707-2.691 11.894-8.073 15.56s-12.986 5.499-22.814 5.499c-7.253 0-14.585-0.819-21.995-2.457s-14.78-4.056-22.112-7.253v32.994c8.892 2.496 17.705 4.368 26.442 5.616 8.735 1.248 17.316 1.871 25.739 1.873 22.697 0 39.662-3.744 50.893-11.232 11.309-7.41 16.964-18.602 16.965-33.578 0-10.218-2.691-18.602-8.073-25.154-5.382-6.476-13.337-11.038-23.868-13.691zM471.356 499.285h39.779v112.902l-40.831-8.424v30.653l40.598 8.424h42.821v-143.554h39.779v-31.121h-122.145v31.119zM990.382-30.372v287.53h-287.53v447.269h-351.426v-319.478h-319.478v-415.321z"/>
</svg>