<svg xmlns="http://www.w3.org/2000/svg" viewBox="0 -64 1024 1000" style="transform: scaleY(-1);">
<path fill="currentColor" d="M511.992 748.005c-67.614 0-123.784-45.377-142.507-106.867-20.43 10.441-42.993 16.866-67.489 16.866-82.849 0-150.011-67.162-150.011-150.011 0-3.564 0.703-6.802 0.929-10.315-70.375-24.471-120.947-90.98-120.947-169.688 0-99.413 80.59-180.003 180.003-180.003h599.994c99.413 0 180.003 80.59 180.003 180.003 0 78.707-50.573 145.217-120.947 169.688 0.251 3.514 0.929 6.751 0.929 10.315 0 82.849-67.162 150.011-150.011 150.011-24.521 0-47.059-6.45-67.489-16.866-18.673 61.49-74.817 106.867-142.456 106.867zM391.998 568.002l119.994-119.994 119.994 119.994 60.009-60.009-119.994-119.994 119.994-119.994-60.009-60.009-119.994 119.994-119.994-119.994-60.009 60.009 119.994 119.994-119.994 119.994 60.009 60.009z"/>
</svg>