<svg xmlns="http://www.w3.org/2000/svg" viewBox="0 -64 1024 1000" style="transform: scaleY(-1);">
<path fill="currentColor" d="M925.171 431.334c-10.187 51.091-54.508 69.159-95.845 61.094v196.306l22.917 18.674-12.669 8.907 61.764 63.847c-0.002 66.979-113.333 145.401-184.186 129.495l-39.179-79.723-15.016 10.557-33.525-95.212c0.349-0.797 0.718-1.574 1.076-2.364-105.652-172.69-304.208-206.845-454.12-260.081-157.24-55.847-61.228-328.739 77.371-426.174s427.975-95.468 427.325 71.398c-0.62 159.245-35.731 357.845 91.585 515.752 0.444-0.052 0.875-0.115 1.321-0.165l38.693 31.529v-187.491c-39.674-15.003-71.374-54.992-58.425-113.18l48.701-255.136 170.908 56.821-48.698 255.146zM580.929 59.030l-152.162-23.626-159.884 51.673-107.101 131.62-33.548 171.614h518.724l2.581-251.62-68.61-79.662zM837.938 360.123c-26.965 0-48.825 21.856-48.825 48.823s21.86 48.823 48.825 48.823c26.965 0 48.825-21.856 48.825-48.823s-21.861-48.823-48.825-48.823z"/>
</svg>