<svg xmlns="http://www.w3.org/2000/svg" viewBox="0 -64 1024 1000" style="transform: scaleY(-1);">
<path fill="currentColor" d="M913.69 809.791c-35.315 0-63.944-28.647-63.944-63.971 0-21.397 10.516-40.329 26.647-51.942l-101.125-158.777c21.541-11.408 36.224-34.049 36.224-60.124 0-37.547-30.431-67.993-67.97-67.993s-67.97 30.439-67.97 67.993c0 34.149 25.166 62.412 57.957 67.257l-69.386 162.818c30.528 7.123 53.276 34.499 53.276 67.206 0 38.127-30.895 69.036-69.007 69.036s-69.007-30.915-69.007-69.036c0-29.546 18.566-54.748 44.66-64.597l-88.866-151.589c29.176-9.034 50.373-36.239 50.373-68.389 0-39.525-32.033-71.575-71.55-71.575s-71.55 32.043-71.55 71.575c0 30.262 18.784 56.121 45.317 66.592l-88.148 153.127c26.445 9.665 45.323 35.055 45.323 64.856 0 38.127-30.895 69.036-69.007 69.036s-69.007-30.915-69.007-69.036c0-32.112 21.925-59.105 51.618-66.816l-70.537-163.596c31.676-5.785 55.692-33.518 55.692-66.869 0-37.547-30.431-67.993-67.97-67.993s-67.97 30.439-67.97 67.993c0 26.699 15.39 49.792 37.773 60.919l-101.436 158.164c15.986 11.628 26.39 30.473 26.39 51.76 0 35.329-28.629 63.971-63.944 63.971s-63.944-28.647-63.944-63.971 28.629-63.966 63.944-63.966c1.482 0 2.945 0.068 4.402 0.167l90.438-489.997c-54.797-1.443-54.934-80.216 1.523-80.216h13.282l0.117-0.633h587.647l0.117 0.633h15.215c54.979 0 55.963 80.25 0 80.25h-0.403l90.431 489.96c1.448-0.099 2.903-0.165 4.375-0.165 35.315 0 63.944 28.637 63.944 63.966 0 35.331-28.629 63.972-63.944 63.972z"/>
</svg>