<svg xmlns="http://www.w3.org/2000/svg" viewBox="0 -64 1024 1000" style="transform: scaleY(-1);">
<path fill="currentColor" d="M992.273 931.906c-189.98-6.983-344.077-48.068-461.856-111.437l-58.821-98.351-9.923 56.058c-21.025-14.772-40.509-30.379-58.473-46.713l-29.359-90.007-10.070 50.301c-87.16-97.557-126.152-215.543-116.307-336.136h-147.264v-98.030h80.607l-86.492-75.938-44.458-169.683 29.036-31.686h353.851l29.036 31.686-44.46 169.685-81.857 75.936h70.579v98.030h-129.752c51.076 26.462 100.668 63.074 149.773 105.388l-59.591-3.105 0.55 0.611 106.985 45.545c93.52 87.102 186.487 189.584 285.942 275.994l-48.918 10.357 113.118 42.131c53.53 40.816 109.231 75.445 168.121 99.363z"/>
</svg>