<svg xmlns="http://www.w3.org/2000/svg" viewBox="0 -64 1024 1000" style="transform: scaleY(-1);">
<path fill="currentColor" d="M766.747 768.332c-10.654 0.222-21.783-0.418-32.968-2.080-141.25 63.864-186.921 157.24-249.99 157.24-54.563 0-51.853-100.763 156.274-208.67-0.368-0.488-0.747-0.961-1.108-1.457-15.875-21.773-223.554 99.118-287.53 98.991-86.14-0.177 40.235-203.768 246.057-171.82 19.528 3.034-9.672-29.093-7.268-47.345v0.007c0.745-5.646 2.076-11.035 3.921-16.185-200.809 5.247-326.030-31.42-398.827-88.777-51.708 28.896-53.494 130.86-106.793 104.476-56.649-28.029-21.721-178.639 26.599-228.549-32.711-141.816 71.894-311.101 155.085-362.585h656.287c35.588 25.253 15.581 45.114 0 63.896-19.249 23.205-78.764 38.377-127.791 31.948-71.344 29.051 174.215 191.142 0.865 382.41 32.668-1.861 69.948 0.732 102.412 10.943 0.738-0.525 1.492-1.042 2.27-1.554l1.433 2.751c29.8 10.031 55.129 26.743 68.393 52.725 16.314 31.948-105.693 221.511-207.321 223.635zM798.638 608.868c-17.644 0-31.948 14.304-31.948 31.948s14.304 31.948 31.948 31.948c17.645 0 31.948-14.304 31.948-31.948s-14.304-31.948-31.948-31.948z"/>
</svg>