<svg xmlns="http://www.w3.org/2000/svg" viewBox="0 -64 1024 1000" style="transform: scaleY(-1);">
<path fill="currentColor" d="M458.010 927.899l0.003-0.007 0.002 0.002zM974.935 701.89c-17.266 29.932-55.533 40.172-85.461 22.877-22.548-13.030-33.932-37.977-30.795-62.289l-210.645-64.004-190.020 329.417c-111.010-105.074-163.92-257.497-143.395-406.171l-71.535-12.585 21.32-120.921-83.978-78.589 37.317-64.138 117.155 35.531 14.998-19.735-227.517-284.184h506.548l-33.461 180.528c98.666-41.104 210.672-48.202 316.459-16.636l-190.016 329.414 160.653 150.535c19.476-14.974 46.828-17.63 69.438-4.565 29.935 17.298 40.202 55.583 22.936 85.515z"/>
</svg>