<svg xmlns="http://www.w3.org/2000/svg" viewBox="0 -64 1024 1000" style="transform: scaleY(-1);">
<path fill="currentColor" d="M166.372 514.717l134.127-35.939c0.007 0.055 0.017 0.109 0.023 0.164-1.143-8.927-1.724-17.829-1.744-26.661l76.451 36.695-48.023 69.617c-5.447-9.51-10.203-19.54-14.211-30.030 0.094 0.244 0.179 0.491 0.272 0.733l-133.416 35.748 15.327 57.19-159.552-41.839 116.953-117.154 13.791 51.474zM301.452 485.375c0.033 0.209 0.060 0.418 0.094 0.626-0.033-0.209-0.060-0.418-0.094-0.626zM302.69 492.411c0.047 0.247 0.087 0.493 0.135 0.74-0.048-0.246-0.089-0.493-0.135-0.74zM304.125 499.242c0.080 0.354 0.147 0.708 0.229 1.061-0.082-0.354-0.149-0.707-0.229-1.061zM310.798 522.523c0.362 1.039 0.733 2.073 1.109 3.105-0.376-1.032-0.747-2.066-1.109-3.105zM306.169 507.552c0.545 2.028 1.123 4.038 1.722 6.034-0.598-1.996-1.176-4.006-1.722-6.034zM308.642 515.988c0.383 1.219 0.768 2.437 1.171 3.647-0.401-1.209-0.788-2.426-1.171-3.647zM990.739 324.48l-117.259 116.013-15.327-57.195-133.14 35.675c-0.040-0.257-0.090-0.515-0.13-0.77 1.747 10.907 2.646 21.791 2.71 32.574l-71.638-35.514 44.974-66.894c3.794 6.892 7.218 14.054 10.278 21.449-0.134-0.324-0.256-0.656-0.391-0.981l133.858-35.867-13.791-51.474 159.856 42.985zM724.315 414.868c-0.175-0.997-0.359-1.995-0.548-2.993 0.19 0.997 0.373 1.996 0.548 2.993zM723.154 408.766c-0.251-1.216-0.518-2.432-0.79-3.647 0.272 1.216 0.54 2.432 0.79 3.647zM721.808 402.643c-0.489-2.070-1.002-4.141-1.557-6.209 0.553 2.068 1.066 4.138 1.557 6.209zM713.748 376.246c-0.249-0.66-0.506-1.313-0.76-1.969 0.256 0.656 0.513 1.311 0.76 1.969zM718.302 389.634c-0.184-0.605-0.384-1.199-0.573-1.802 0.19 0.601 0.391 1.198 0.573 1.802zM716.13 382.888c-0.219-0.646-0.453-1.285-0.678-1.928 0.226 0.643 0.458 1.281 0.678 1.928zM381.417 620.994c0.561 0.436 1.136 0.852 1.701 1.281-6.849-5.224-13.407-10.848-19.608-16.882l80.315-26.398 14.51 80.178c-11.057-2.937-21.83-6.752-32.22-11.381l-68.934 119.397 51.275 29.606-142.401 83.235-0.149-165.539 46.148 26.644 69.363-120.14zM414.184 642.025c0.438 0.229 0.882 0.443 1.321 0.668-0.438-0.226-0.884-0.441-1.321-0.668zM385.477 624.054c0.986 0.73 1.98 1.447 2.977 2.16-0.997-0.713-1.993-1.43-2.977-2.16zM391.001 628.015c0.947 0.656 1.903 1.298 2.86 1.939-0.957-0.641-1.913-1.283-2.86-1.939zM396.642 631.797c0.889 0.575 1.786 1.134 2.683 1.697-0.897-0.561-1.794-1.121-2.683-1.697zM402.392 635.397c0.8 0.483 1.61 0.95 2.417 1.423-0.807-0.474-1.617-0.94-2.417-1.423zM408.242 638.806c0.667 0.374 1.341 0.732 2.013 1.099-0.672-0.368-1.346-0.725-2.013-1.099zM408.461 796.79l-0.003 0.005-0.002-0.002zM708.296 159.038l-69.004 119.519c9.074 6.592 17.65 13.9 25.628 21.877l-77.876 27.14-14.795-81.763c7.98 2.295 15.793 5.068 23.422 8.255-0.646-0.271-1.285-0.556-1.934-0.82l69.433-120.262-46.148-26.644 143.434-82.643-0.88 164.944-51.279-29.602zM601.693 256.692c-0.929-0.421-1.854-0.845-2.79-1.253 0.934 0.408 1.861 0.832 2.79 1.253zM629.197 271.672c-0.264-0.17-0.523-0.347-0.788-0.516 0.266 0.169 0.525 0.347 0.788 0.516zM624.214 268.568c-0.501-0.304-0.996-0.616-1.498-0.915 0.503 0.301 0.997 0.613 1.498 0.915zM618.875 265.442c-0.655-0.371-1.305-0.752-1.963-1.116 0.658 0.364 1.308 0.745 1.963 1.116zM613.319 262.4c-0.772-0.409-1.542-0.824-2.319-1.223 0.778 0.399 1.547 0.814 2.319 1.223zM607.581 259.475c-0.86-0.423-1.719-0.85-2.584-1.261 0.865 0.411 1.724 0.839 2.584 1.261zM339.831 325.817c6.744-9.286 14.234-18.053 22.424-26.186l27.78 79.715-83.714 16.249c2.374-8.686 5.3-17.187 8.725-25.468-0.162 0.391-0.337 0.777-0.496 1.169l-120.242-69.423-26.644 46.148-82.645-143.43 164.944 0.88-29.602 51.277 119.517 69.002c-0.015 0.022-0.030 0.045-0.047 0.067zM317.736 363.908c-0.503 1.116-0.992 2.238-1.477 3.363 0.483-1.124 0.974-2.247 1.477-3.363zM337.218 329.527c-0.429 0.616-0.867 1.226-1.288 1.848 0.421-0.62 0.859-1.229 1.288-1.848zM333.69 334.769c-0.499 0.767-1.006 1.528-1.497 2.302 0.491-0.773 0.997-1.535 1.497-2.302zM330.214 340.28c-0.53 0.867-1.061 1.734-1.577 2.608 0.516-0.874 1.047-1.741 1.577-2.608zM326.856 345.978c-0.538 0.945-1.074 1.893-1.599 2.848 0.525-0.956 1.061-1.903 1.599-2.848zM323.649 351.823c-0.535 1.014-1.064 2.030-1.584 3.050 0.518-1.021 1.049-2.036 1.584-3.050zM320.606 357.804c-0.523 1.069-1.036 2.142-1.54 3.219 0.504-1.076 1.017-2.15 1.54-3.219zM858.115 556.586l-0.002 0.003-0.002-0.003zM682.313 583.624c0.332-0.426 0.646-0.865 0.976-1.295-5.108 6.672-10.602 13.063-16.484 19.117l-25.657-76.549 78.193-14.151c-2.895 10.105-6.538 19.952-10.855 29.481 0.199-0.438 0.411-0.87 0.606-1.31l119.419 68.945 29.604-51.274 83.236 142.403-165.539 0.145 26.644-46.148-120.144-69.365zM705.68 546.18c0.451-0.922 0.895-1.846 1.335-2.775-0.439 0.927-0.884 1.853-1.335 2.775zM685.006 580.049c0.737-0.991 1.468-1.985 2.188-2.987-0.72 1.002-1.45 1.998-2.188 2.987zM688.875 574.685c0.692-0.991 1.376-1.985 2.050-2.987-0.673 1.002-1.358 1.998-2.050 2.987zM692.585 569.193c0.64-0.979 1.273-1.963 1.896-2.953-0.623 0.991-1.255 1.974-1.896 2.953zM696.13 563.583c0.586-0.962 1.168-1.928 1.739-2.898-0.573 0.971-1.153 1.936-1.739 2.898zM699.496 557.87c0.536-0.944 1.066-1.889 1.589-2.841-0.523 0.952-1.052 1.898-1.589 2.841zM702.681 552.065c0.491-0.929 0.974-1.859 1.452-2.795-0.478 0.934-0.961 1.866-1.452 2.795zM589.734 652.133c0.297-0.114 0.6-0.217 0.895-0.332l35.741 133.389 57.185-15.322-41.839 159.554-117.154-116.953 51.474-13.791-35.93-134.092c0.204-0.027 0.409-0.062 0.613-0.089-8.212 1.072-16.402 1.675-24.538 1.796l34.943-72.801 67.28 45.235c-9.104 5.118-18.681 9.6-28.672 13.407zM586.401 653.37c-0.877 0.317-1.759 0.63-2.641 0.935 0.882-0.306 1.764-0.616 2.641-0.935zM580.636 655.373c-1.123 0.371-2.255 0.727-3.388 1.081 1.133-0.354 2.265-0.708 3.388-1.081zM574.75 657.233c-2.015 0.603-4.041 1.186-6.084 1.734-0.077 0.020-0.154 0.037-0.231 0.058 0.077-0.020 0.155-0.037 0.232-0.058 2.045-0.548 4.069-1.129 6.082-1.734zM547.666 663.478c-0.504 0.084-1.009 0.154-1.515 0.234 0.504-0.080 1.009-0.152 1.515-0.234zM561.732 660.698c-0.513 0.12-1.026 0.221-1.537 0.336 0.511-0.114 1.024-0.215 1.537-0.336zM554.704 662.208c-0.509 0.1-1.017 0.187-1.527 0.284 0.509-0.097 1.019-0.184 1.527-0.284zM479.745 313.079l-71.057-48.392c7.11-3.961 14.51-7.53 22.162-10.706-0.229 0.095-0.463 0.18-0.69 0.276l-35.873-133.885-51.474 13.791 42.985-159.859 116.013 117.259-57.19 15.325 35.685 133.18c-0.028 0.005-0.057 0.010-0.085 0.015 11.997-1.881 23.966-2.723 35.8-2.574l-36.274 75.571zM435.594 252.087c0.593-0.229 1.183-0.466 1.779-0.69-0.596 0.224-1.186 0.459-1.779 0.69zM442.216 249.646c0.625-0.219 1.243-0.448 1.869-0.66-0.628 0.212-1.246 0.441-1.869 0.66zM456.696 245.131c0.337-0.092 0.668-0.195 1.007-0.287 2.205-0.591 4.413-1.134 6.62-1.652-2.207 0.516-4.415 1.059-6.62 1.65-0.339 0.090-0.668 0.195-1.007 0.289zM448.9 247.428c0.67-0.21 1.33-0.434 2.003-0.638-0.673 0.204-1.335 0.428-2.003 0.638zM473.561 241.242c1.325-0.251 2.649-0.479 3.972-0.705-1.325 0.226-2.648 0.456-3.972 0.705zM466.478 242.707c1.453-0.326 2.907-0.635 4.362-0.929-1.455 0.294-2.908 0.605-4.362 0.929z"/>
</svg>