<svg xmlns="http://www.w3.org/2000/svg" viewBox="0 -64 1024 1000" style="transform: scaleY(-1);">
<path fill="currentColor" d="M577.942 392.492c24.888 43.107 10.12 98.23-32.987 123.117s-98.227 10.12-123.116-32.99-10.118-98.227 32.987-123.116c43.107-24.887 98.227-10.118 123.116 32.989zM394.055 443.157c0.844 16.177 5.389 32.402 14.045 47.395 10.182 17.634 24.67 31.223 41.363 40.233l-150.256 260.2c-54.108-33.394-101.191-80.199-135.211-139.12-37.958-65.745-53.779-137.991-51.93-208.701v-0.005l281.989-0.002zM449.165 344.528l-137.226-236.45c58.814-33.516 121.874-50.29 185.182-51.93 69.024-1.794 137.208 15.569 197.918 48.008l-140.006 242.867c-31.33-19.045-71.603-21.195-105.868-2.494zM708.757 795.889l-153.937-267.72c31.037-18.8 49.073-51.123 50.901-85.007h298.996c3.282 139.794-66.901 277.275-195.96 352.727z"/>
</svg>