<svg xmlns="http://www.w3.org/2000/svg" viewBox="0 -64 1024 1000" style="transform: scaleY(-1);">
<path fill="currentColor" d="M807.919 841.029c-17.659 43.456-65.143 74.632-122.442 74.632-114.471 0-122.285-72.236-181.916-109.616-194.492 69.036-237.76-288.279-164.423-504.932-30.742-63.744-61.351-151.555-87.463-269.379 113.467-61.218 237.845-77.226 363.832-19.822-12.382 75.303-28.335 137.512-43.885 190.456 49.966 25.217 119.021 29.118 172.742-28.744 0.511 61.303-43.801 85.169-90.359 84.573l-41.299 87.232c88.405 91.226 156.069 204.105 122.314 320.646-20.572 76.775 116.248 124.236 244.32 107.316-48.962 42.26-111.808 60.862-171.421 67.639zM546.457 283.617c17.5 14.896 34.948 30.702 51.828 47.291l35.28-74.52c-26.829-4.332-52.303-16.232-68.174-33.191-6.587 21.648-13.003 41.695-18.935 60.419zM740.457 822.65c-7.292 0-13.202 5.912-13.202 13.202 0 7.292 5.912 13.202 13.202 13.202s13.202-5.912 13.202-13.202c0-7.29-5.91-13.202-13.202-13.202z"/>
</svg>