<svg xmlns="http://www.w3.org/2000/svg" viewBox="0 -64 1024 1000" style="transform: scaleY(-1);">
<path fill="currentColor" d="M383.297 490.175l-83.269 83.269 60.571 181.688c30.273 90.844 30.273 121.117 151.415 121.117s121.117-30.273 151.415-121.117l60.571-181.688-83.269-83.269c-32.882 32.882-78.532 52.996-128.691 52.996s-95.86-20.114-128.742-52.996zM633.13 361.484c0-66.904-54.238-121.117-121.117-121.117-66.904 0-121.117 54.238-121.117 121.117 0 66.904 54.238 121.117 121.117 121.117s121.117-54.212 121.117-121.117zM687.799 408.603l113.745 30.476 127.070-143.283c63.535-71.642 89.755-86.791 29.184-191.669-60.571-104.904-86.791-89.755-180.598-70.552l-187.616 38.405-30.476 113.745c44.915 12.033 85.144 41.495 110.249 84.967 25.080 43.421 30.476 92.997 18.442 137.912v0zM464.895 185.699l-30.476-113.745-187.616-38.405c-93.808-19.202-120.027-34.326-180.598 70.552-60.571 104.904-34.326 120.027 29.184 191.669l127.070 143.283 113.745-30.476c-12.033-44.915-6.637-94.492 18.468-137.938 25.080-43.446 65.308-72.933 110.224-84.941v0z"/>
</svg>