<svg xmlns="http://www.w3.org/2000/svg" viewBox="0 -64 1024 1000" style="transform: scaleY(-1);">
<path fill="currentColor" d="M459.21 928.008c-147.15-9.813-257.983-133.572-257.983-284.712 0-37.12 7.027-72.609 19.827-105.136 13.051-33.155 29.967-71.555 163.464-198.124l38.902 22.689c-2.435 6.902-3.715 14.356-3.715 22.111 0 31.347 21.76 57.55 50.849 64.075v45.453c-112.64 6.977-202.039 101.371-202.039 216.897 0 113.669 80.64 207.109 190.695 216.747v0zM963.631 135.613c65.155 133.672 14.482 292.493-115.075 368.063-31.824 18.573-65.757 30.168-100.041 35.213-34.936 5.145-76.323 9.562-251.558-43.947v-45.377c7.153-1.305 14.155-3.94 20.806-7.805 26.855-15.661 38.45-47.812 29.515-76.524l38.977-22.739c62.293 95.071 187.909 126.067 286.946 68.317 97.405-56.822 137.211-174.080 90.428-275.2v0zM31.992 90.989c81.995-123.834 243.501-158.921 373.057-83.351 31.824 18.573 58.729 42.441 80.213 69.898 21.885 27.984 46.356 61.992 88.119 242.071l-38.902 22.689c-4.693-5.597-10.466-10.416-17.092-14.281-26.855-15.661-60.21-9.738-80.339 12.449l-38.977-22.739c50.347-102.024 14.13-227.438-84.932-285.214-97.431-56.822-217.876-33.004-281.148 58.478v0zM484.71 653.361c-59.307 0-114.146-19.501-158.469-52.53 13.628-19.325 30.595-36.317 49.845-49.895 31.197 20.681 68.543 32.753 108.649 32.753 42.29 0 81.493-13.402 113.669-36.191 28.26 6.902 56.797 12.449 85.735 15.511-48.941 55.416-120.119 90.353-199.429 90.353v0zM716.189 248.128c29.666 51.903 40.358 109.603 34.209 164.919-23.391-2.259-46.431-8.609-67.689-18.648 2.133-37.647-6.199-76.348-26.253-111.435-21.133-36.995-52.229-64.602-87.868-81.368-8.207-28.16-17.744-55.918-29.565-82.773 71.981 15.134 137.512 59.909 177.167 129.305zM253.331 248.504c29.666-51.878 73.788-90.127 124.26-112.389 9.763 21.584 15.837 44.925 17.845 68.543-33.33 16.941-62.344 43.595-82.397 78.682-21.133 36.995-29.264 78.005-25.801 117.559-20.053 21.258-39.053 43.47-56.169 67.263-23.065-70.525-17.393-150.262 22.262-219.658v0z"/>
</svg>