<svg xmlns="http://www.w3.org/2000/svg" viewBox="0 -64 1024 1000" style="transform: scaleY(-1);">
<path fill="currentColor" d="M655.362 812.18l-2.265-72.482-50.971-13.593-2.265-56.631-272.96-271.826c1.739-49.952-34.17-84.299-65.691-81.547-47.216 4.128-65.904 34.136-65.691 74.75-31.532-34.283-48.44-77.749-48.701-121.196 32.279-0.005 64.662-8.763 93.283-26.048l-5.396-19.296c-49.117-34.679-103.865-92.14-130.451-138.616-3.271-5.716-5.949-11.012-8.12-15.918l-63.678-17.816-2.973-83.133 83.133 2.988 17.964 64.246c4.763 2.133 9.889 4.741 15.405 7.896 46.294 26.482 103.479 80.908 138.2 129.876l19.376 5.421c16.705-28.361 25.493-60.388 25.607-91.953 44.623-0.008 89.985 16.964 124.587 49.834-48.232 7.088-76.588 35.267-73.621 66.824 4.854 51.593 34.868 64.748 78.151 63.426l277.494 277.492 45.305 1.121 12.448 45.307 79.282 3.398 84.959 302.429-302.409-84.955zM844.16 631.886l-78.13-2.314-12.844-46.645-117.782-4.664 3.5 117.788 51.305 13.994 2.332 73.466 209.922 58.279-58.303-209.905z"/>
</svg>