<svg xmlns="http://www.w3.org/2000/svg" viewBox="0 -64 1024 1000" style="transform: scaleY(-1);">
<path fill="currentColor" d="M879.089 138.551l112.337-85.241c24.432 63.468 6.398 137.962-50.519 181.154-43.774 33.216-99.453 39.939-147.511 22.816l-17.008 12.904-2.224 4.22c11.843 16.824 22.103 34.426 30.764 52.611l77.342 2.133 15.84 50.573-62.481 46.025c3.028 18.921 4.536 38.040 4.571 57.167l69.356 35.187-7.314 52.493-76.531 14.963c-6.397 22.028-14.903 43.584-25.543 64.35l45.635 63.15-30.518 43.338-75.098-21.814c-0.94 0.994-1.862 1.999-2.816 2.987-11.999 12.408-24.675 23.763-37.891 34.11l14.421 74.272-45.913 26.475-56.986-49.636c-18.452 7.427-37.393 13.279-56.613 17.574l-18.693 73.313-52.836 4.327-30.446-69.493c-15.743-0.954-31.438-2.925-46.979-5.92l-46.535 60.061-50.183-17.060-0.258-76.484c-21.26-10.933-41.683-24.109-60.93-39.538l-70.872 31.931-36.298-38.616 36.278-68.837c-11.701-16.684-21.852-34.138-30.439-52.172l-77.862-2.148-15.84-50.573 62.904-46.336c-3.008-18.767-4.529-37.729-4.611-56.703l-69.746-35.385 7.314-52.493 76.621-14.98c4.566-15.942 10.22-31.642 16.993-46.97l-50.557-62.7 28.202-44.865 78.505 18.352c4.944-5.796 10.074-11.488 15.44-17.038 11.284-11.671 23.125-22.419 35.437-32.259l-15.276-78.682 45.913-26.475 59.949 52.212c17.202-6.919 34.844-12.459 52.781-16.622l19.588-76.82 52.836-4.327 31.726 72.431c21.942 1.322 43.814 4.598 65.317 9.872l50.419-58.415 49.204 19.71-2.67 53.921 31.172-23.651c-3.688-51.111 17.363-103.471 61.1-136.66 56.881-43.157 133.515-40.498 188.066 0.115l-112.334 85.21c-19.821 15.010-24.375 43.463-9.974 62.479s42.486 21.494 62.273 6.479zM443.056 200.455c-63.525 7.155-124.536 35.852-172.425 85.402-109.484 113.232-106.332 293.329 6.899 402.775s293.43 107.525 402.882-5.704c96.383-99.683 105.375-252.098 28.898-361.847l-186.293 141.342c3.525 50.859-17.943 102.705-61.681 135.894-56.881 43.157-133.515 40.498-188.066-0.115l112.334-85.21c19.787-15.015 24.957-42.695 10.556-61.713-14.401-19.016-43.068-22.26-62.856-7.247l-112.334 85.21c-24.432-63.468-6.398-137.962 50.519-181.154 43.734-33.158 99.858-39.324 148.087-22.018l147.752-112.1c-40.115-13.697-82.626-18.211-124.272-13.516z"/>
</svg>