<svg xmlns="http://www.w3.org/2000/svg" viewBox="0 -64 1024 1000" style="transform: scaleY(-1);">
<path fill="currentColor" d="M738.013 522.505h259.451l-0.992 103.314h-19.788v99.478c-54.646-12.47-104.812-36.495-135.487-99.478h-242.367c0 0.002 0 0.005 0 0.007l-407.841-0.027c-8.977-32.803-15.642-57.556-21.604-77.34-40.614 24.898-141.569 92.761-141.569 92.761 14.194-74.296 47.794-133.969 96.471-182.267-9.442-11.366-21.145-24.072-36.311-40.395-83.312-157.803-68.369-241.166-62.693-327.804 54.807-69.467 164.391-66.371 230.263-43.364-2.093 96.283 12.834 188.152 78.691 282.099 80.649-74.715 203.826-39.124 263.19 26.058 26.617 29.228 30.363 63.703 26.091 102.468h114.496v64.489z"/>
</svg>