<svg xmlns="http://www.w3.org/2000/svg" viewBox="0 -64 1024 1000" style="transform: scaleY(-1);">
<path fill="currentColor" d="M512.003 928.011c0 0-240.001-119.995-240.001-419.999v-240.001c0-60.003 0-60.003 60.003-60.003h359.996c60.003 0 60.003 0 60.003 60.003v240.001c0 300.003-240.001 419.999-240.001 419.999zM512.003 778.014c0 0 119.995-60.003 119.995-270.002v-119.995h-240.001v119.995c0 209.999 120.006 270.002 120.006 270.002zM297.259 118.015h429.478c13.949 0 25.267-11.307 25.267-25.267v-99.473c0-13.949-11.307-25.267-25.267-25.267h-429.478c-13.949 0-25.267 11.307-25.267 25.267v99.473c0.011 13.96 11.318 25.267 25.267 25.267z"/>
</svg>