<svg xmlns="http://www.w3.org/2000/svg" viewBox="0 -64 1024 1000" style="transform: scaleY(-1);">
<path fill="currentColor" d="M804.759 348.806c-0.015 97.313-62.676 83.108-102.326 230.985-41.018 152.977-74.702 229.426-154.211 246.739 2.429 5.499 3.787 11.578 3.785 17.976-0.003 24.611-19.962 44.565-44.575 44.57-24.613 0.003-44.565-19.947-44.562-44.555 0.002-6.702 1.492-13.053 4.143-18.756-77.067-18.721-110.348-95.152-150.73-245.915-39.607-147.867-102.275-133.645-102.261-230.96 0.005-27.349 31.261-49.506 80.348-65.317-1.305-4.469-2.018-9.189-2.016-14.079 0.005-27.691 22.46-50.144 50.158-50.148 25.52-0.003 46.568 19.055 49.72 43.711 36.602-4.661 76.459-7.101 117.172-7.11 153.862-0.030 295.365 34.617 295.356 92.858zM746.553 303.257c0.272 0.287 0.548 0.571 0.814 0.862-0.052-0.226-0.095-0.443-0.149-0.668l-0.665-0.194zM641.908 581.33c33.288-143.353 105.236-172.785 108.942-242.023l-88.497-31.881c6.221 88.851-67.315 116.183-66.213 231.519 1.258 131.767-37.713 213.862-85.164 248.099 79.812-8.078 112.657-127.009 130.932-205.714zM910.343 601.876c31.856-89.933 35.361-210.064 2.066-334.32-34.923-130.337-102.153-235.759-179.21-296.497v0h0.003c105.328 42.009 195.903 143.9 232.259 279.594 35.314 131.777 10.618 262.224-55.119 351.224zM870.654 275.363c26.136 97.551 0.765 196.010-58.557 264.753 30.241-68.356 37.081-158.431 12.433-250.409-25.851-96.482-80.248-173.268-144.516-216.303 89.158 28.109 163.728 101.516 190.639 201.959zM680.001 73.4v-0.005l0.013 0.010zM110.697 267.555c-33.294 124.256-29.79 244.387 2.066 334.32-65.735-88.999-90.431-219.447-55.119-351.224 36.358-135.694 126.931-237.585 232.259-279.594h0.005c-77.057 60.738-144.287 166.16-179.212 296.497zM198.577 289.708c-24.648 91.978-17.807 182.053 12.433 250.409-59.322-68.743-84.693-167.203-58.557-264.753 26.911-100.442 101.481-173.849 190.639-201.959-64.268 43.035-118.665 119.821-144.516 216.303zM343.107 73.395v0.005l-0.013 0.005z"/>
</svg>