<svg xmlns="http://www.w3.org/2000/svg" viewBox="0 -64 1024 1000" style="transform: scaleY(-1);">
<path fill="currentColor" d="M668.294 873.384c-40.16 52.531-96.45 63.64-168.856-8.767-72.524 72.524-128.84 61.38-168.987 8.77-112.393 2.24-194.867-131.060-193.985-321.987l126.069 119.623c-4.607-35.058-6.912-70.825-6.912-105.023 0-9.505 0.239-18.926 0.71-28.251-44.71-2.668-76.184-44.854-76.942-113.373-1.041-93.982 56.086-201.893 127.599-241.029 16.162-8.845 31.67-13.406 46.015-14.104 4.038-50.111 10.474-114.361-8.108-154.25-22.421-48.136 54.546-53.836 62.78-8.329 25.513-42.948 90.702-3.204 54.878 31.273l0.003-0.002c-30.768 29.612-49.371 94.774-65.449 143.699 11.274 7.925 20.68 19.464 27.65 34.2 23.54-11.428 48.632-17.623 74.68-17.623s51.142 6.197 74.682 17.625c6.969-14.735 16.374-26.275 27.648-34.2-16.078-48.926-34.681-114.088-65.449-143.702h0.005c-35.823-34.477 29.365-74.221 54.878-31.273 8.234-45.507 85.201-39.807 62.78 8.329-18.581 39.889-12.146 104.139-8.108 154.251 14.344 0.698 29.855 5.259 46.017 14.104 71.511 39.136 128.64 147.047 127.599 241.029-0.758 68.523-32.233 110.707-76.945 113.373 0.469 9.325 0.71 18.746 0.71 28.251 0 34.208-2.314 69.979-6.931 105.041l126.087-119.639c0.885 191.004-81.656 324.332-194.116 321.984z"/>
</svg>