<svg xmlns="http://www.w3.org/2000/svg" viewBox="0 -64 1024 1000" style="transform: scaleY(-1);">
<path fill="currentColor" d="M512.413 926.974c-264.47-0.060-478.817-214.503-478.758-478.974 0-0.072 0-0.144 0-0.216 0.060-264.471 214.505-478.819 478.974-478.758 264.471 0.060 478.819 214.505 478.758 478.974 0 0.072 0 0.144 0 0.216-0.059 264.471-214.503 478.819-478.974 478.758zM492.614 891.101l22.285 12.869 22.285-12.869v-25.734l-22.285-12.869-22.285 12.869v25.734zM114.153 677.466l22.285 12.869 22.285-12.869v-25.734l-22.285-12.869-22.285 12.869v25.734zM159.597 217.336l-22.285-12.869-22.285 12.869v25.734l22.285 12.869 22.285-12.869v-25.734zM533.959 4.571l-22.285-12.869-22.285 12.869v25.734l22.285 12.869 22.285-12.869v-25.734zM512.597 64.838c-211.576-0.038-383.127 171.446-383.165 383.025 0 0.047 0 0.095 0 0.142-0.038 211.575 171.446 383.125 383.025 383.163 211.576 0.038 383.127-171.446 383.165-383.025 0-0.047 0-0.094 0-0.142 0.038-211.576-171.446-383.125-383.025-383.163zM908.321 219.109l-22.285-12.869-22.285 12.869v25.734l22.285 12.869 22.285-12.869v-25.734zM909.197 651.732l-22.285-12.869-22.285 12.869v25.734l22.285 12.869 22.285-12.869v-25.734zM697.469 725.772c-46.030 30.715-100.121 50.295-158.431 54.879v-665.326c58.313 4.585 112.401 24.168 158.431 54.881v555.565zM332.191 167.171c47.372-30.489 102.956-49.318 162.701-52.428v666.493c-59.747-3.11-115.331-21.939-162.701-52.428v-561.637zM288.045 694.894c-67.085-61.043-109.19-149.059-109.171-246.906 0-0.042 0-0.082 0-0.124 0.018-97.802 42.116-185.766 109.171-246.781v493.811zM741.615 690.598v-485.217c64.39 60.841 104.573 147.029 104.557 242.608 0 0.042 0 0.082 0 0.124-0.018 95.535-40.195 181.675-104.557 242.486z"/>
</svg>