<svg xmlns="http://www.w3.org/2000/svg" viewBox="0 -64 1024 1000" style="transform: scaleY(-1);">
<path fill="currentColor" d="M393.323 203.495l-2.205-1.133-203.011 395.259 1.752 0.9 93.533 326.861-231.010-234.788 159.826-628.873 436.282-103.671 118.368 109.127zM206.945 597.507l194.821-379.311 378.912-138.28 0.641 0.591 222.789 418.896-145.786 271.103-553.568 168.81-97.81-341.809zM463.331 453.514c9.704 16.808 37.071 19.177 61.126 5.289s35.686-38.773 25.983-55.582c-9.704-16.808-37.074-19.175-61.126-5.289s-35.686 38.773-25.983 55.582zM812.513 458.060c13.34 64.652 12.605 128.775-17.68 191.76 77.289-34.464 106.8-133.503 17.68-191.76zM780.53 486.194v-0.005c-56.205 135.773-185.149 265.495-330.658 230.995-125.823-29.831-10.359-160.534 131.419-195.063 156.587-38.132 336.958-166.274 217.606-292.493-110.154-116.494-317.774-4.059-300.941 135.235 35.651-65.172 163.274-170.906 240.996-86.731 108.94 117.975-155.214 186.781-244.145 225.4-91.54 39.744-277.352 171.731-161.901 265.764 171.337 139.543 482.697-59.825 447.623-283.102zM510.707 577.939c-115.311 84.681-60.784 130.255 50.956 109.69-50.62-22.717-60.493-62.212-50.956-109.69z"/>
</svg>