<svg xmlns="http://www.w3.org/2000/svg" viewBox="0 -64 1024 1000" style="transform: scaleY(-1);">
<path fill="currentColor" d="M808.698 894.34l-633.014-220.598 37.799-668.061 633.012 220.598-37.798 668.061zM771.501 870.307c-128.803-114.583-449.559-284.909-587.435-197.138l587.435 197.138zM183.361 660.773c132.081-64.975 100.843-369.863 38.484-618.132l-38.484 618.132zM247.885 28.644l92.653 149.866 236.753 80.099c-73.252-79.352-218.718-175.38-329.406-229.966zM335.551 188.003l-21.552 393.478 372.564 130.588 21.552-393.478-372.564-130.588zM710.676 460.687l-16.479 249.268 103.123 142.872c-8.142-123.090-41.289-294.152-86.644-392.14zM570.281 396.267c-42.534 3.015-72.644 44.394-67.25 92.419s44.249 84.514 86.783 81.499c7.165-0.508 13.963-2.127 20.313-4.661-3.269 31.909-11.334 63.425-24.312 92.558h-0.003l-259.090-87.857 17.632-273.187c114.793-25.879 193.898 22.977 234.852 99.193-2.95-0.172-5.927-0.177-8.924 0.037z"/>
</svg>