<svg xmlns="http://www.w3.org/2000/svg" viewBox="0 -64 1024 1000" style="transform: scaleY(-1);">
<path fill="currentColor" d="M729.923 213.825l-4.029 6.029 35.424 22.518-94.495 148.664-38.842-24.69-16.67 24.94c26.148 23.265 43.897 55.757 48.141 92.372l129.66-188.835 199.817 60.307-354.87 516.823-199.817-60.307 116.086-169.065c-11.608 2.962-23.769 4.539-36.299 4.539-61.285 0-113.764-37.656-135.591-91.091l-131.030 190.832-199.819-60.307 354.87-516.824 199.817 60.307-85.338 124.283c28.418 0.555 54.848 9.206 77.087 23.742l15.621-23.37-32.833-20.871 94.495-148.664 36.253 23.044 3.844-5.75c-32.397-23.545-55.052-60.85-62.083-103.254l192.946 120.722c-41.588 14.333-80.428 10.232-112.346-6.094zM825.292 108.202c0-20.412-16.547-36.959-36.959-36.959s-36.959 16.547-36.959 36.959c0 20.412 16.547 36.959 36.959 36.959s36.959-16.547 36.959-36.959z"/>
</svg>