<svg xmlns="http://www.w3.org/2000/svg" viewBox="0 -64 1024 1000" style="transform: scaleY(-1);">
<path fill="currentColor" d="M743.518 28.108c-26.581 0-49.957 2.8-70.534 7.97-28.254 10.023-53.178 21.883-83.614 63.698-2.885 3.934-5.616 8.055-8.159 12.255l-1.717 2.868c-28.229 48.566-34.704 112.598-37.968 172.475l-0.429 15.88v460.493c0 14.832-1.889 30.11-8.331 43.885-4.981 8.391-11.568 9.017-16.686 6.466-6.587-3.281-14.78-13.621-16.093-34.343 1.889-145.164-3.177-351.468-5.265-492.38h-155.556v476.364c0 14.832-1.873 30.11-8.322 43.885-5.162 8.683-12.066 9.173-17.58 5.985-7.059-4.088-15.382-16.205-15.382-39.548 1.219-158.347-2.997-329.087-5.359-486.687h-155.546v476.365c0 42.674-17.674 79.327-72.629 79.543l-16.815 0.068c34.783 39.617 69.383 56.639 125.317 56.639 36.035 0 69.719-14.274 93-38.57l3.779 3.418 4.423 3.805c33.485 25.815 71.874 31.338 100.97 31.338 35.984 0 69.607-14.231 92.888-38.449l3.642 3.298 4.423 3.805c33.511 25.815 71.874 31.338 100.995 31.338 65.965 0 123.643-47.74 124.905-116.634 0.326-17.657 0.498-38.012 0.533-60.246 0-125.103-5.564-474.595-1.425-499.595l2.001-11.070c1.039-5.143 2.138-10.040 3.341-14.737 19.53-75.283 47.75-92.563 98.986-91.447 22.879 2.061 43.259 10.546 59.111 19.573l-32.952 59.327 145.448-4.732-57.944-154.895c-0.438 1.736-12.41 23.841-27.387 51.090-13.529-17.735-50.981-48.497-148.069-48.497v0z"/>
</svg>