<svg xmlns="http://www.w3.org/2000/svg" viewBox="0 -64 1024 1000" style="transform: scaleY(-1);">
<path fill="currentColor" d="M854.173 195.911h-141.775l-1.355 2.419c0.501 86.681 34.198 175.368 98.214 245.312 47.831 52.261 83.95 121.041 102.458 189.368l-82.338 49.795 76.414 13.791-86.599 51.529 104.084 17.674c-10.445 78.138-57.588 136.002-154.489 136.002-94.565-18.374-363.959-23.983-503.322-5.922-17.664 5.751-35.459 9.136-52.817 9.731-0.129 0.035-0.267 0.068-0.394 0.102 0.074-0.032 0.145-0.065 0.219-0.097-45.31 1.502-87.613-16.030-116.708-60.236-40.414-61.408 2.616-166.812 97.48-166.812 5.359 0 10.253 0.289 14.727 0.832v-0.733h118.467c-17.921-72.21-62.36-152.533-113.828-233.474-4.318-6.79-8.509-13.721-12.575-20.767l69.657-71.359-112.351-18.818c-65.349-171.651-54.745-363.552 96.403-363.552v0.002l15.634-0.11v-0.234h171.175v0.311h451.103c135.99-0.002 154.656 225.247-37.485 225.247zM452.277 87.592c-0.003 0.935-0.030 1.888-0.055 2.836 0.025-0.95 0.052-1.903 0.055-2.836zM447.891 123.38c0.027-0.119 0.047-0.232 0.074-0.351-0.027 0.117-0.047 0.231-0.074 0.347-5.374 23.696-20.779 43.454-40.897 56.175h0.007c20.114-12.721 35.516-32.477 40.89-56.171zM452.105 93.733c-0.047 0.952-0.107 1.914-0.174 2.88 0.067-0.966 0.127-1.928 0.174-2.88zM451.646 100.119c-0.089 0.952-0.18 1.908-0.287 2.875 0.107-0.967 0.199-1.923 0.287-2.875zM450.881 106.801c-0.125 0.924-0.242 1.844-0.384 2.781 0.144-0.937 0.261-1.858 0.384-2.781zM449.768 113.944c-0.144 0.814-0.269 1.615-0.426 2.437 0.157-0.822 0.282-1.624 0.426-2.437zM236.579 690.13c28.031 23.871-1.146 80.303-34.722 127.243h115.747c19.346-37.343 21.335-80.462 11.471-127.243h-92.496zM325.781 167.877c51.786 17.213 110.468-15.682 122.11-67.013 1.991-8.782 3.269-17.061 3.911-24.882 0.075 0.817 0.112 1.662 0.17 2.491-1.291-18.519-6.792-33.936-15.602-46.701h-1.034c-0.984-1.412-2.003-2.781-3.062-4.103l1.614 0.707c-14.802-19.359-37.539-32.29-64.57-40.636h-28.104l1.368 0.6c-29.614 0.008-63.612 2.798-63.612 2.798 43.925 0.703 62.862 19.294 70.065 40.598-31.298-11.376-64.654 9.072-75.146 39.264-14.161 40.748 12.502 83.784 51.893 96.877zM452.239 84.425c-0.018-0.919-0.027-1.846-0.065-2.75 0.038 0.905 0.045 1.831 0.065 2.75zM434.019 28.553c0.795 1.044 1.577 2.1 2.327 3.182-0.748-1.084-1.533-2.138-2.327-3.182z"/>
</svg>