<svg xmlns="http://www.w3.org/2000/svg" viewBox="0 -64 1024 1000" style="transform: scaleY(-1);">
<path fill="currentColor" d="M937.738 534.809l41.75 121.123c-57.795 24.995-104.269 53.093-141.982 87.575 2.537 56.397-21.278 112.799-67.698 169.202 1.508-27.533 1.201-55.069-3.181-82.605-65.668 83.046-172.114 114.060-265.403 63.199 69.853 5.070 131.239-16.329 148.4-67.714-257.28 33.603-519.525-226.381-63.241-489.622 123.809-71.434 38.683-255.173-208.295-149.948-329.165 140.24-305.256 400.91-186.699 537.284 14.63-24.623 26.789-52.298 37.814-81.374 38.070 97.034 112.58 137.021 186.872 177.334-104.224 49.078-203.706 29.491-301.337-16.808 20.706-11.478 38.149-26.983 53.233-45.402-226.725-135.627-155.304-559.834 142.557-731.806 379.084-218.867 828.249 264.047 415.665 421.439-296.721 113.19-225.886 273.251-84.13 253.265l-11.406-79.576 307.078-85.565z"/>
</svg>