<svg xmlns="http://www.w3.org/2000/svg" viewBox="0 -64 1024 1000" style="transform: scaleY(-1);">
<path fill="currentColor" d="M515.067 919.638c-217.927-138.442-375.656-520.013-375.656-965.949h749.384c0 445.936-155.803 827.507-373.728 965.949zM301.779 433.549l36.662-30.653-12.56 70.334c14.719 21.923 30.393 41.338 46.872 57.944l38.424-54.665 7.885 92.444c18.788 11.919 38.321 20.38 58.42 25.055l36.617-72.388 36.618 72.393c19.967-4.644 39.375-13.028 58.047-24.822l8.269-96.943 40.173 57.154c15.841-16.209 30.927-35.025 45.124-56.171l-12.56-70.335 36.664 30.655c48.743-88.507 84.077-206.99 98.999-341.263-20.031 64.297-53.074 120.777-95.204 164.665l8.015 71.506-51.195-33.358c-12.181 9.049-24.877 17.171-38.020 24.285l-6.65 81.788-52.498-57.623c-14.598 4.144-29.564 7.115-44.829 8.83l-30.966 66.378-30.967-66.381c-16.264-1.831-32.188-5.083-47.689-9.662l-49.6 54.442-6.308-77.587c-13.265-7.158-26.073-15.34-38.359-24.467l-51.193 33.358 8.015-71.503c-42.124-43.882-75.165-100.349-95.199-164.633 14.921 134.253 50.255 252.723 98.992 341.223z"/>
</svg>