<svg xmlns="http://www.w3.org/2000/svg" viewBox="0 -64 1024 1000" style="transform: scaleY(-1);">
<path fill="currentColor" d="M977.422 735.931c-10.564 17.495-41.6 25.294-51.39 33.443-30.606 25.473-98.618 46.264-156.563-13.299l-0.007 0.008c-7.477-6.55-13.912-11.336-19.64-15.444-20.796 22.914-48.793 25.625-75.221 25.719-30.13 0.099-70.265-17.251-80.709-45.348-6.126 30.466-50.057 44.657-80.911 45.003-31.427 0.351-71.623-22.632-83.402-43.969-10.579 34.38-53.393 50.482-83.47 48.793-31.482-1.769-73.36-24.569-84.242-60.718-59.681 32.531-117.145 15.25-155.965-19.967-77.971-70.741-96.482-187.295-70.304-307.918 15.215-70.086 42.171-115.931 93.012-138.354l0.040 0.022c11.932-5.26 22.147-10.791 32.454-14.408l-34.41-164c12.041-29.273 39.305-28.094 75.813-8.424l67.135 187.574c9.924-13.805 19.805-24.437 29.728-32.568l4.315-134.084c37.191-38.337 56.626-15.517 75.858 7.987l-9.791 102.504c5.955 0.117 11.987 0.571 18.116 1.27 39.373 4.48 81.746 31.47 101.718 86.079 22.595-52.967 54.755-61.919 90.292-63.273 19.593-0.752 39.721-0.887 55.804 14.745l26.861-161.612c34.863-27.453 56.739-12.604 74.946 14.199l-17.411 144.872c2.96 0.566 5.934 1.181 8.92 1.774 8.678 1.722 16.939 3.436 24.686 6.207l39.979-149.522c31.001-7.176 59.227-8.185 72.063 25.009l-62.12 184.794c33.338-23.163 73.056 1.674 94.395 29.023 34.864 44.7 34.392 111.472 28.567 174.446 2.162 1.482 4.076 3.149 5.653 5.033 15.744 18.227 24.994 82.927 25.998 118.726 0.508-20.761 11.099-47.326 34.104-44.642 41.030 10.123 12.844 114.376-14.901 160.32zM920.429 553.885c-1.759-4.477-4.387-8.703-7.599-12.527-0.144-0.17-0.287-0.339-0.433-0.508-0.388-0.449-0.778-0.895-1.181-1.333-0.147-0.16-0.301-0.314-0.451-0.473-0.665-0.703-1.348-1.39-2.050-2.060-0.307-0.294-0.615-0.588-0.93-0.874-0.326-0.297-0.655-0.588-0.986-0.877-0.394-0.344-0.795-0.68-1.199-1.012-0.271-0.224-0.538-0.451-0.812-0.67-0.656-0.521-1.325-1.029-2.003-1.52-0.242-0.177-0.489-0.346-0.735-0.518-0.515-0.361-1.032-0.715-1.555-1.059-0.252-0.165-0.504-0.331-0.758-0.493-0.69-0.438-1.385-0.862-2.088-1.268-0.055-0.032-0.11-0.067-0.167-0.1l-1.898 46.063c0.747 0.418 1.497 0.795 2.245 1.153 0.149 0.070 0.297 0.142 0.444 0.21 0.735 0.339 1.468 0.653 2.2 0.934 0.095 0.037 0.189 0.067 0.284 0.102 0.638 0.237 1.271 0.449 1.903 0.641 0.187 0.057 0.374 0.117 0.56 0.169 0.663 0.189 1.32 0.352 1.969 0.491 0.229 0.048 0.453 0.085 0.68 0.127 0.453 0.084 0.9 0.152 1.343 0.21 0.262 0.033 0.528 0.074 0.787 0.099 0.546 0.053 1.081 0.082 1.61 0.095 0.329 0.007 0.651 0.002 0.974-0.007 0.262-0.007 0.518-0.022 0.775-0.038 0.621-0.042 1.226-0.114 1.812-0.219 0.15-0.027 0.304-0.048 0.453-0.079 0.369-0.077 0.73-0.167 1.082-0.269 0.102-0.030 0.199-0.065 0.297-0.095 0.665-0.21 1.298-0.466 1.894-0.772 0.077-0.038 0.155-0.075 0.231-0.115 0.331-0.179 0.651-0.369 0.959-0.578 0 0 0 0 0 0 2.932-1.995 4.773-5.367 4.801-10.287 0.027-4.31-0.879-8.524-2.459-12.545zM847.93 559.496c-1.331 15.061 13.075 18.582 25.503 12.766v0.003l7.51-44.956c-11.982 7.335-30.812 7.28-33.014 32.187zM843.382 653.904c0.002-8.372-7.029-15.161-15.702-15.161s-15.702 6.789-15.702 15.161c0 8.374 7.031 15.161 15.702 15.161s15.702-6.789 15.702-15.161zM934.205 645.508c-8.673 0-15.702 6.789-15.702 15.161s7.031 15.161 15.702 15.161 15.702-6.789 15.702-15.161c0-8.372-7.029-15.161-15.702-15.161z"/>
</svg>