<svg xmlns="http://www.w3.org/2000/svg" viewBox="0 -64 1024 1000" style="transform: scaleY(-1);">
<path fill="currentColor" d="M974.673 569.769c-9.435 35.207-45.621 56.099-80.828 46.665-22.458-6.019-39.074-22.927-45.728-43.519l-167.55 45.614-45.432 166.89c20.844 6.53 38.007 23.243 44.080 45.905 9.435 35.209-11.456 71.393-46.665 80.828s-71.393-11.456-80.828-46.665c-6.112-22.807 0.513-46.015 15.5-62.105l-122.606-121.632-168.115 44.329c4.626 21.222-1.293 44.278-17.792 60.777-25.774 25.774-67.557 25.774-93.331 0s-25.774-67.557 0-93.331c16.934-16.934 40.78-22.74 62.454-17.421l44.055-167.077-123.428-124.413c-16.088 14.964-39.278 21.576-62.066 15.469-35.207-9.435-56.099-45.619-46.665-80.828 9.435-35.207 45.621-56.099 80.828-46.665 23.435 6.281 40.514 24.419 46.541 46.227l168.008-45.739 45.908-168.641c-21.554-6.166-39.428-23.156-45.654-46.389-9.435-35.209 11.456-71.393 46.665-80.828 35.207-9.433 71.393 11.458 80.828 46.665 6.187 23.089-0.668 46.598-16.050 62.706l124.25 123.266 168.163-44.343c-5.588-21.841 0.154-45.983 17.253-63.080 25.775-25.774 67.557-25.774 93.331 0s25.775 67.556 0 93.329c-16.665 16.665-40.018 22.538-61.413 17.654l-44.605 169.164 121.48 122.449c16.11-15.407 39.639-22.279 62.745-16.087 35.209 9.435 56.101 45.619 46.666 80.828zM453.988 250.153c-110.836 29.698-176.609 143.622-146.913 254.453 21.324 79.581 86.074 135.931 161.927 150.386-49.052-22.668-88.056-66.136-103.135-122.411-26.955-100.598 32.745-204.002 133.346-230.956 77.276-20.706 156.199 9.725 200.863 70.541-38.944-95.543-143.828-149.412-246.087-122.013z"/>
</svg>