<svg xmlns="http://www.w3.org/2000/svg" viewBox="0 -64 1024 1000" style="transform: scaleY(-1);">
<path fill="currentColor" d="M506.969 910.126c-251.969 0-456.228-204.26-456.228-456.228s204.259-456.228 456.228-456.228 456.228 204.26 456.228 456.228-204.259 456.228-456.228 456.228zM506.957 62.864c-217.649 0-394.085 176.439-394.085 394.085s176.437 394.085 394.085 394.085 394.085-176.437 394.085-394.085-176.437-394.085-394.085-394.085zM552.257 801.729h-90.618l-57.324-360.727-164.802-50.629v-101.75h158.915l36.775-36.406h-38.98v-83.22h221.445v83.22h-38.974l36.775 36.406h158.915v101.75l-164.804 50.627-57.324 360.729zM558.429 479.435h-102.966c0 198.935 102.966 198.674 102.966 0z"/>
</svg>