<svg xmlns="http://www.w3.org/2000/svg" viewBox="0 -64 1024 1000" style="transform: scaleY(-1);">
<path fill="currentColor" d="M871.263 290.642l-198.706 53.244c6.526 71.036-0.015 151.851-38.567 227.517-5.751 198.231 59.756 382.774 218.714 340.181 174.971-46.922 155.667-444.808 18.559-620.942v0zM858.18 206.843c-10.977-383.141-400.372-207.907-202.173 54.173l202.173-54.173zM161.858 290.616l198.706 53.244c-6.526 71.036 0.015 151.851 38.567 227.517 5.751 198.231-59.756 382.774-218.714 340.181-174.98-46.887-155.676-444.773-18.559-620.942v0zM174.979 206.827c10.986-383.176 400.372-207.907 202.173 54.173l-202.173-54.173z"/>
</svg>