<svg xmlns="http://www.w3.org/2000/svg" viewBox="0 -64 1024 1000" style="transform: scaleY(-1);">
<path fill="currentColor" d="M271.993 868.013v-599.999c0-60.001 0-60.001 60.001-60.001h359.995c60.001 0 60.001 0 60.001 60.001v599.999c0 60.001 0 60.001-60.001 60.001h-359.995c-60.001 0-60.001 0-60.001-60.001zM391.995 808.012h240.004v-419.996h-240.004v419.996zM298.664 118.017h426.666c14.724 0 26.671-11.936 26.671-26.671v-96.666c0-14.724-11.936-26.671-26.671-26.671h-426.666c-14.724 0-26.671 11.936-26.671 26.671v96.666c0 14.735 11.947 26.671 26.671 26.671z"/>
</svg>