<svg xmlns="http://www.w3.org/2000/svg" viewBox="0 -64 1024 1000" style="transform: scaleY(-1);">
<path fill="currentColor" d="M866.508 312.518c-21.070-59.805-48.975-122.9-171.173-7.811 97.004 89.88 174.117 174.69 175.879 298.21 3.508 245.899-279.39 287.898-383.145 86.477-67.664 132.395-193.853 151.161-282.008 92.723l-154.52 150.8h-33.852v-79.852l131.279-128.1c-24.188-36.077-39.341-82.095-40.083-136.027l-0.003-0.005c-3.378-245.406 300.354-300.709 325.326-558.12 59.982 87.917 132.547 156.627 201.172 219.178 91.29-93.585 77.446-129.355-5.842-168.434 95.892-63.922 245.693-122.89 369.871-130.222 5.411 125.043-63.378 265.184-132.901 361.183z"/>
</svg>