<svg xmlns="http://www.w3.org/2000/svg" viewBox="0 -64 1024 1000" style="transform: scaleY(-1);">
<path fill="currentColor" d="M647.619 697.037c-7.918-33.597-38.073-58.612-74.087-58.612-42.047 0-76.137 34.089-76.137 76.135 0 7.497 1.101 14.734 3.12 21.576l-251.234 152.903 6.79-293.492c32.521-8.666 56.485-38.311 56.485-73.561 0-42.047-34.089-76.135-76.137-76.135-6.846 0-13.474 0.917-19.785 2.613l-152.581-250.705 285.487 6.603c8.012 33.466 38.105 58.353 74.027 58.353 42.047 0 76.137-34.089 76.137-76.135 0-5.94-0.703-11.712-1.99-17.261l257.62-156.789-6.398 276.594c-36.174 5.902-63.792 37.283-63.792 75.125 0 42.047 34.089 76.135 76.137 76.135 6.091 0 12.007-0.737 17.685-2.086l161.597 265.515-292.946-6.775zM579.706 316.721c-74.034-42.744-168.698-17.376-211.44 56.657-42.746 74.037-17.38 168.698 56.654 211.44 74.034 42.744 168.694 17.38 211.44-56.657 42.744-74.035 17.38-168.696-56.654-211.44z"/>
</svg>