<svg xmlns="http://www.w3.org/2000/svg" viewBox="0 -64 1024 1000" style="transform: scaleY(-1);">
<path fill="currentColor" d="M511.982 901.107c-92.414 0-178.954-27.521-250.634-75.053l133.087-133.087c73.954 35.365 161.061 35.365 235.053 0l133.087 133.087c-71.64 47.496-158.139 75.053-250.592 75.053v0zM133.947 698.652c-47.534-71.68-75.053-158.18-75.053-250.596 0-92.414 27.521-178.954 75.053-250.634l133.087 133.087c-35.366 73.954-35.366 161.062 0 235.053l-133.087 133.090zM890.053 698.652l-133.087-133.087c35.366-73.954 35.366-161.099 0-235.053l133.087-133.087c47.534 71.68 75.055 158.18 75.055 250.634-0.038 92.372-27.559 178.912-75.055 250.592v0zM394.473 203.033l-133.087-133.087c71.68-47.496 158.181-75.053 250.634-75.053 92.414 0 178.954 27.521 250.596 75.053l-133.087 133.087c-73.994-35.366-161.103-35.366-235.057 0v0zM647.911 447.941c0-75.053-60.839-135.931-135.931-135.931-75.053 0-135.931 60.838-135.931 135.931 0 75.053 60.839 135.931 135.931 135.931s135.931-60.838 135.931-135.931z"/>
</svg>