<svg xmlns="http://www.w3.org/2000/svg" viewBox="0 -64 1024 1000" style="transform: scaleY(-1);">
<path fill="currentColor" d="M511.985 928.007c-240.009 0-479.993-119.992-479.993-299.993 0-119.992 90-180.001 90-299.993 0-90-29.992-90-29.992-150.009 0-29.992 96.024-63.999 180.001-90v-119.992h480.018v119.992c0 0 181.13 55.918 180.001 90-1.857 55.893-29.992 60.009-29.992 150.009 0 60.009 91.28 182.837 90 299.993-0.050 180.001-240.034 299.993-480.043 299.993zM331.984 568.031c66.283 0 119.992-53.734 119.992-119.992 0-66.283-53.734-119.992-119.992-119.992s-119.992 53.734-119.992 119.992c0 66.258 53.734 119.992 119.992 119.992zM691.985 568.031c66.283 0 119.992-53.734 119.992-119.992 0-66.283-53.734-119.992-119.992-119.992s-119.992 53.734-119.992 119.992c0 66.258 53.734 119.992 119.992 119.992zM511.985 358.014c29.992 0 90-119.992 90-150.009 0-60.009 0-60.009-29.992-60.009h-119.992c-29.992 0-29.992 0-29.992 60.009-0.025 30.017 59.983 150.009 89.975 150.009z"/>
</svg>