<svg xmlns="http://www.w3.org/2000/svg" viewBox="0 -64 1024 1000" style="transform: scaleY(-1);">
<path fill="currentColor" d="M943.032 261.525c107.877 186.842 17.779 440.824-199.782 566.432-217.561 125.606-481.387 75.966-589.261-110.881-10.429-18.061-17.63-36.777-24.439-55.909 114.371 157.083 308.486 217.776 453.642 133.97 157.387-90.864 196.992-315.99 88.664-503.623-51.624-89.417-127.506-153.799-209.958-187.138 190.451-58.423 390.759 0.613 481.135 157.148v0zM652.816 688.102c-94.522 141.87-299.481 146.327-456.729 10.856-157.248-135.475-208.108-360.314-113.58-502.188 9.137-13.715 19.768-25.057 30.817-36.213-71.812 138.12-51.132 310.798 53.788 401.186 113.758 98.003 282.425 62.020 377.343-80.453 45.236-67.895 65.302-147.586 61.749-223.2 101.972 134.045 125.807 311.154 46.618 430.013l-0.005-0.002zM167.821 523.338c-97.537-96.941-95.554-283.915 2.284-411.207s256.226-151.898 353.761-54.959c-94.063-59.192-169.486-52.508-257.141 41.767-78.769 84.721-48.788 245.202 49.159 342.551 46.676 46.392 102.091 71.505 155.1 75.267-83.178 85.319-221.45 87.793-303.162 6.582z"/>
</svg>