<svg xmlns="http://www.w3.org/2000/svg" viewBox="0 -64 1024 1000" style="transform: scaleY(-1);">
<path fill="currentColor" d="M490.103 928.974c68.576-97.631-47.072-641.084-180.607-273.438-95.905-345.759-231.583-360.575-231.744-200.64-143.199-158.623 87.647-441.533 174.751-487.869h104.256c-91.839 80.031-153.567 155.999-164.35 271.934 94.623-18.849 143.711-41.92 162.527 124.095 121.471-173.183 201.887 98.751 274.367 214.239-3.296-80.64-6.688-186.91 45.695-259.775 17.472-24.288 66.463-32.224 109.471-31.615-19.839-32.159-89.695-138.752-34.016-178.399 55.679-39.648 66.143 0.768 51.712-32.351-26.527-41.76-45.983-78.751-118.143-108.127h112.128c118.879 37.441 223.613 183.328 189.214 271.071-44.032-37.312-87.552-61.791-122.591-59.072 98.239 144.16 75.679 291.807 29.504 442.686-40.448-144.767-66.975-164.991-109.151-199.039 58.207 137.311-170.879 428.894-293.021 506.303v0z"/>
</svg>