<svg xmlns="http://www.w3.org/2000/svg" viewBox="0 -64 1024 1000" style="transform: scaleY(-1);">
<path fill="currentColor" d="M39.067 63.191l0.003 0.007h-0.005zM959.261 763.452c-20.63 0-37.357-16.726-37.357-37.357 0-4.18 0.697-8.192 1.963-11.944-53.383-20.869-42.691-122.058-35.080-217.165-29.93-26.868-64.15-23.432-94.439 16.317-3.772 99.453-29.076 229.276 18.542 267.936-0.428-2.26-0.66-4.589-0.66-6.973 0-20.63 16.725-37.357 37.357-37.357s37.357 16.726 37.357 37.357c0 20.63-16.725 37.357-37.357 37.357-14.314 0-26.743-8.055-33.015-19.877-73.922-11.695-50.99-145.010-44.039-254.766-3.528-57.857-17.231-110.209-37.911-154.753-16.030 118.667-85.684 226.155-150.177 280.259-124.871 104.769-300.047 94.729-421.754-13.735s-127.235-307.79-19.443-428.471c16.995-16.927 36.502-30.124 57.593-39.667-77.543-31.961-137.002-74.66-161.77-117.416h642.294c195.616 0 268.161 194.475 229.436 415.36-6.607 89.594-19.964 189.804 18.131 225.739 6.782-9.42 17.836-15.559 30.329-15.559 20.632 0 37.357 16.726 37.357 37.357s-16.726 37.357-37.357 37.357z"/>
</svg>