<svg xmlns="http://www.w3.org/2000/svg" viewBox="0 -64 1024 1000" style="transform: scaleY(-1);">
<path fill="currentColor" d="M797.030 748.009v119.97c0 29.992 0 60.009-29.992 60.009l-60.035-0.002c-29.992 0-29.992-29.992-29.992-60.009v-119.967c-16.59 0-30.017-13.429-29.992-29.992v-60.009c0-16.565 13.427-29.992 29.992-29.992v0-420.042c0-66.284-53.735-119.994-119.994-119.994s-119.994 53.735-119.994 119.994c0 0 29.992 29.992 29.992 60.009s90.002 60.009 90.002 90.002c0 29.992-29.992 29.992-29.992 29.992s-90.002-90.002-150.011-90.002-150.011 90.002-150.011 90.002-29.992 0-29.992-29.992 90.002-60.009 90.002-90.002c0-29.992 29.992-60.009 29.992-60.009 0-132.543 107.445-240.013 240.013-240.013 132.543 0 240.013 107.445 240.013 240.013v420.044c16.553 0.013 29.967 13.434 29.967 29.99v60.009c0 16.556-13.414 29.977-29.967 29.99z"/>
</svg>