<svg xmlns="http://www.w3.org/2000/svg" viewBox="0 -64 1024 1000" style="transform: scaleY(-1);">
<path fill="currentColor" d="M951.338 469.788l28.284 134.518-102.353 91.754-130.638-42.764-21.699-103.197c-25.969 55.433-73.501 100.053-134.234 121.032l99.119 32.446 28.284 134.518-102.353 91.754-130.638-42.764-28.284-134.517 77.49-69.465c-64.33 5.559-126.141-16.097-172.456-56.504l21.402 101.787-102.353 91.754-130.638-42.762-28.284-134.518 102.353-91.754 99.071 32.431c-16.972-24.606-29.45-52.914-35.985-83.998-6.674-31.736-6.51-63.316-0.526-93.221l-78.253 70.15-130.638-42.762-28.284-134.518 102.353-91.754 130.638 42.764 21.671 103.065c26.003-55.388 73.541-99.958 134.268-120.897l-99.123-32.447-28.284-134.518 102.353-91.754 130.638 42.764 28.284 134.517-77.527 69.498c64.37-5.541 126.214 16.165 172.53 56.637l-21.437-101.956 102.353-91.754 130.638 42.762 28.284 134.518-102.353 91.754-99.249-32.489c17.007 24.629 29.509 52.972 36.054 84.097 6.679 31.761 6.508 63.364 0.511 93.291l78.379-70.262 130.634 42.764zM482.92 300.42c-83.587 17.575-137.097 99.58-119.522 183.166 17.575 83.587 99.58 137.097 183.166 119.522s137.097-99.58 119.522-183.166c-17.575-83.584-99.58-137.097-183.166-119.522zM487.959 551.761l-72.946-72.946 26.699-99.645 99.645-26.701 72.946 72.945-26.699 99.647z"/>
</svg>