<svg xmlns="http://www.w3.org/2000/svg" viewBox="0 -64 1024 1000" style="transform: scaleY(-1);">
<path fill="currentColor" d="M759.238 838.39c-217.88 138.546-506.262 75.111-644.121-141.686-0.038-0.060-0.077-0.12-0.115-0.18-137.857-216.797-72.988-504.86 144.892-643.406s506.262-75.111 644.121 141.686c0.038 0.060 0.077 0.12 0.115 0.18 137.857 216.797 72.988 504.86-144.892 643.406zM321.494 234.031l-153.998-24.402-79.251 201.802 95.633 117.309 140.841-92.324-3.226-202.384zM458.966 888.898v0l-61.731-97.13-181.674-90.645-53.295 41.247c39.513 68.032 187.066 141.915 215.043 139.037 38.202 19.075 83.213 9.939 81.656 7.49zM786.611 161.123l-110.363-124.46-182.591-21.995-16.483 118.316 181.956 96.166 127.48-68.027zM664.825 408.899l-171.883 101.515 39.041 200.699 190.651-0.687 91.803-181.641-149.611-119.887zM821.916 770.219l-66.872 17.765-74.573 72.131c0 0.002 130.335-60.479 141.446-89.897v0zM907.879 272.336v0l10.131 180.084 32.705 61.415c13.269-8.434 11.229-198.753-27.341-258.015-25.572-15.363-15.495 16.516-15.495 16.516z"/>
</svg>