<svg xmlns="http://www.w3.org/2000/svg" viewBox="0 -64 1024 1000" style="transform: scaleY(-1);">
<path fill="currentColor" d="M914.086 709.71l-370.803 214.083c-48.285 27.877-110.031 11.332-137.909-36.953l-328.213-568.484c-27.879-48.285-11.332-110.031 36.953-137.909l370.803-214.083c48.285-27.879 110.031-11.332 137.909 36.953l328.213 568.484c27.879 48.285 11.332 110.031-36.953 137.909zM472.67 839.357c12.213 21.152 39.261 28.401 60.416 16.189s28.401-39.263 16.189-60.414c-12.213-21.153-39.261-28.401-60.416-16.189s-28.401 39.263-16.189 60.414zM553.324 46.956c-12.213-21.153-39.261-28.401-60.416-16.189s-28.401 39.261-16.189 60.414c12.213 21.153 39.261 28.401 60.416 16.189s28.401-39.261 16.189-60.414zM669.091 357.751v0.010c-51.178-82.548-158.291-55.214-172.388 33.877l-6.466-158.306-148.567 85.782 129.764 82.151c-81.539-25.52-161.321 52.396-110.442 134.366 58.132 93.645 226.772 70.432 273.129 116.786-15.53-57.95 90.627-204.902 34.97-294.666z"/>
</svg>