<svg xmlns="http://www.w3.org/2000/svg" viewBox="0 -64 1024 1000" style="transform: scaleY(-1);">
<path fill="currentColor" d="M781.044 483.333c-75.912-54.469-149.762-58.755-229.42-26.403 0.077 1.372 0.125 2.751 0.125 4.141 0 39.995-32.425 72.418-72.418 72.418-7.017 0-13.792-1.017-20.209-2.88l-390.688 389.701-24.822-0.223 0.112-60.004 369.788-368.816c-4.225-9.194-6.599-19.416-6.599-30.196 0-39.993 32.423-72.418 72.418-72.418 3.929 0 7.78 0.323 11.538 0.925 26.918-78.692 20.408-152.822-25.198-221.616 128.144-87.157 326.997-167.573 492.941-177.572 7.23 170.493-84.661 362.051-177.569 492.942z"/>
</svg>