<svg xmlns="http://www.w3.org/2000/svg" viewBox="0 -64 1024 1000" style="transform: scaleY(-1);">
<path fill="currentColor" d="M507.455 827.648c-248.695 0-450.304-149.162-450.304-333.176 0-103.482 63.76-195.945 163.797-257.056l-27.955-211.647 201.357 146.121c36.142-6.917 74.042-10.602 113.106-10.602 248.695 0 450.304 149.17 450.304 333.184 0 184.006-201.609 333.176-450.304 333.176zM313.513 412.030c25.339 0 45.885-20.542 45.885-45.885 0-25.341-20.545-45.885-45.885-45.885s-45.885 20.545-45.885 45.885 20.545 45.885 45.885 45.885zM506.828 320.261c-25.339 0-45.885 20.545-45.885 45.885s20.545 45.885 45.885 45.885c25.339 0 45.885-20.542 45.885-45.885 0-25.341-20.545-45.885-45.885-45.885zM706.204 320.261c-25.339 0-45.885 20.545-45.885 45.885s20.545 45.885 45.885 45.885c25.339 0 45.885-20.542 45.885-45.885 0-25.341-20.543-45.885-45.885-45.885z"/>
</svg>