<svg xmlns="http://www.w3.org/2000/svg" viewBox="0 -64 1024 1000" style="transform: scaleY(-1);">
<path fill="currentColor" d="M897.179 127.886c49.808 33.779 80.696 80.731 80.696 132.654 0 102.868-121.198 186.263-270.715 186.263s-270.72-83.393-270.72-186.263 121.208-186.263 270.72-186.263c36.406 0 71.125 4.956 102.834 13.923l136.825-102.136-49.64 141.821zM785.58 685.060c0 118.29-162.801 214.186-363.624 214.186s-363.624-95.89-363.624-214.186c0-55.652 36.037-106.341 95.107-144.426l-57.306-233.771 197.066 177.839c40.028-8.93 83.417-13.833 128.757-13.833 200.823 0 363.624 95.895 363.624 214.191z"/>
</svg>