<svg xmlns="http://www.w3.org/2000/svg" viewBox="0 -64 1024 1000" style="transform: scaleY(-1);">
<path fill="currentColor" d="M701.249 534.988c0-33.155-26.878-60.033-60.033-60.033s-60.033 26.878-60.033 60.033c0 33.155 26.878 60.033 60.033 60.033s60.033-26.878 60.033-60.033zM745.055 444.235c0-16.577-13.438-30.016-30.016-30.016s-30.016 13.438-30.016 30.016c0 16.577 13.438 30.016 30.016 30.016s30.016-13.438 30.016-30.016zM197.983 311.468c-23.744 0-50.944-10.016-79.711-34.528-19.936-35.233-31.040-74.369-31.040-115.617 0-73.889 35.679-141.088 93.857-190.976-0.224 5.952-0.32 11.968-0.32 17.984 0 93.601 40.704 176.767 103.519 228.16 0.032 48.481-35.137 94.978-86.305 94.978zM938.432 161.355c0 41.248-11.103 80.384-31.040 115.617-28.736 24.512-55.937 34.528-79.711 34.528-51.168 0-86.336-46.497-86.336-94.944 62.815-51.424 103.519-134.561 103.519-228.16 0-6.015-0.129-12-0.32-17.984 58.206 49.855 93.887 117.022 93.887 190.943v0zM32 925.644v-473.312c0-40.96 38.656-80.735 96.32-114.944 23.008 12.127 46.528 19.105 69.632 19.105 58.048 0 106.879-40.609 124.16-96.385 3.776-0.992 7.519-1.697 11.264-2.655 27.648 19.841 52.512 24.415 69.376 24.415 35.104 0 66.080-19.329 84.256-48.576 8.575-0.417 17.408-1.088 25.536-1.088 8.353 0 17.023 0.351 25.888 0.863 18.176 29.376 49.184 48.801 84.385 48.801 16.16 0 39.68-4.352 65.919-22.143 5.312 1.472 10.625 3.104 15.967 4.64 18.432 53.568 66.336 92.096 122.912 92.096 20.544 0 41.408-5.471 61.984-15.104 61.023 35.423 102.4 74.784 102.4 110.687v473.6h-959.998zM167.039 522.988c-41.44 0-75.040 33.6-75.040 75.040s33.6 75.040 75.040 75.040 75.040-33.568 75.040-75.040c0.002-41.44-33.6-75.040-75.040-75.040zM362.113 385.452c-66.272 0-120.032 53.76-120.032 120.032s53.76 120.032 120.032 120.032 120.032-53.728 120.032-120.032c0.032-66.272-53.728-120.032-120.032-120.032zM662.24 385.452c-66.272 0-120.032 53.76-120.032 120.032s53.76 120.032 120.032 120.032 120.032-53.728 120.032-120.032c0.032-66.272-53.728-120.032-120.032-120.032zM857.312 522.988c-41.44 0-75.040 33.6-75.040 75.040s33.6 75.040 75.040 75.040c41.44 0 75.040-33.568 75.040-75.040 0-41.44-33.6-75.040-75.040-75.040zM186.912 616.46c0-18.221-14.771-32.992-32.992-32.992s-32.992 14.771-32.992 32.992c0 18.221 14.771 32.992 32.992 32.992s32.992-14.771 32.992-32.992zM213.183 559.723c0-7.263-5.888-13.151-13.151-13.151s-13.151 5.888-13.151 13.151c0 7.263 5.888 13.151 13.151 13.151s13.151-5.888 13.151-13.151zM877.185 616.46c0-18.221-14.771-32.992-32.992-32.992s-32.992 14.771-32.992 32.992c0 18.221 14.771 32.992 32.992 32.992s32.992-14.771 32.992-32.992zM903.456 559.723c0-7.263-5.888-13.151-13.151-13.151s-13.151 5.888-13.151 13.151c0 7.263 5.888 13.151 13.151 13.151s13.151-5.888 13.151-13.151zM402.815 239.788c-16.289 0-34.977-7.041-54.689-24.288-13.663-24.8-21.312-52.351-21.312-81.376 0-52.032 24.481-99.328 64.417-134.432-0.161 4.191-0.224 8.416-0.224 12.639 0 65.887 27.936 124.448 71.041 160.641 0 34.048-24.128 66.816-59.233 66.816zM698.848 134.092c0 29.023-7.616 56.576-21.312 81.376-19.712 17.247-38.368 24.32-54.689 24.288-35.104 0-59.231-32.736-59.231-66.848 43.103-36.191 71.039-94.72 71.039-160.641 0-4.225-0.064-8.448-0.224-12.639 39.936 35.136 64.417 82.43 64.417 134.464v0zM401.152 534.988c0-33.155-26.878-60.033-60.033-60.033s-60.033 26.878-60.033 60.033c0 33.155 26.878 60.033 60.033 60.033s60.033-26.878 60.033-60.033zM444.96 444.235c0-16.577-13.438-30.016-30.016-30.016s-30.016 13.438-30.016 30.016c0 16.577 13.438 30.016 30.016 30.016s30.016-13.438 30.016-30.016z"/>
</svg>