<svg xmlns="http://www.w3.org/2000/svg" viewBox="0 -64 1024 1000" style="transform: scaleY(-1);">
<path fill="currentColor" d="M880.391 374.125c3.683-18.352-10.098-59.546-20.221-74.937 31.844-11.013 81.091-8.498 117.057-8.322-18.252 26.569-61.467 69.423-96.836 83.26zM627.273 442.377c-83.166 154.335 56.059 151.149 92.73 87.636 40.357-69.904 46.868-167.822-56.044-227.244-81.354-46.97-172.941 53.407-157.948 194.634 29.574 278.618-98.937 455.623-456.527 334.242v-411.683c87.618 176.729 255.776 210.705 255.776-69.296 0-188.421 306.533-299.985 485.059-105.978 78.125 84.902 96.149 283.63 2.038 398.44-90.887 110.874-383.856-26.27-165.083-200.749zM973.099 560.060c-26.255 12.046-79.204 25.144-112.777 19.528 7.571-17.587 14.897-48.958 18.896-66.946 29.562 6.172 66.289 30.745 93.881 47.418zM823.532 759.662v-0.002l0.005 0.002zM823.532 759.66c-23.961-9.099-65.197-34.41-82.55-59.126 15.829-6.166 40.22-21.065 54.078-29.733 14.505 22.528 21.833 61.041 28.472 88.859zM583.526 673.617c14.46 8.919 41.049 19.401 56.317 25.238-9.236 25.149-35.551 54.21-53.751 76.269-7.178-24.604-11.835-72.767-2.566-101.506zM586.089 775.129l0.003-0.005 0.002 0.005zM474.837 125.721c-0.591-42.473 17.41-98.514 28.899-140.582 24.367 28.522 58.498 86.895 68.738 133.683-36.938-2.068-69.298 0.645-97.637 6.899zM713.992 157.545c14.772-42.998 90.070-80.759 140.091-109.317-3.398 43.26-25.802 124.003-58.7 160.036-26.373-20.669-55.837-37.761-81.39-50.719zM173.803 118.342c40.302 3.166 128.317 33.951 179.598 72.293-26.123 26.099-43.491 55.679-54.99 82.366-49.596-33.79-99.368-110.45-124.607-154.659zM278.749 367.988c5.092 43.153-3.503 76.511-12.644 98.229-58.923-7.285-135.205-46.304-177.236-70.843 36.142-17.246 126.381-34.422 189.879-27.386z"/>
</svg>