<svg xmlns="http://www.w3.org/2000/svg" viewBox="0 -64 1024 1000" style="transform: scaleY(-1);">
<path fill="currentColor" d="M511.992 928.008c-14.783 0-30.143-50.322-45.001-113.945-66.309-8.282-129.104-34.409-181.735-75.57-55.542 34.535-102.325 59.507-112.791 49.042-10.441-10.441 14.582-57.048 49.042-112.489-41.311-52.681-67.539-115.602-75.871-182.011-63.498-14.833-113.644-30.243-113.644-45.001 0-14.783 50.322-30.143 113.945-45.001 8.282-66.309 34.409-129.104 75.57-181.735-34.535-55.542-59.507-102.325-49.042-112.791 10.466-10.441 57.048 14.582 112.489 49.042 52.681-41.311 115.602-67.539 182.011-75.871 14.833-63.498 30.218-113.644 45.001-113.644s30.143 50.322 45.001 113.945c66.309 8.282 129.104 34.409 181.735 75.57 55.542-34.535 102.325-59.507 112.791-49.042 10.441 10.441-14.582 57.048-49.042 112.489 41.311 52.681 67.539 115.602 75.871 182.011 63.498 14.833 113.644 30.243 113.644 45.001 0 14.783-50.322 30.143-113.945 45.001-8.282 66.309-34.409 129.104-75.57 181.735 34.535 55.542 59.507 102.325 49.042 112.791-10.466 10.441-57.048-14.582-112.489-49.042-52.681 41.311-115.602 67.539-182.011 75.871-14.833 63.473-30.218 113.644-45.001 113.644v0zM518.341 669.549c119.868-3.438 215.241-101.622 215.191-221.54-0.1-122.353-99.363-221.465-221.716-221.365-122.227 0.1-221.264 99.137-221.365 221.365-0.050 122.353 99.087 221.591 221.44 221.641 2.158-0.025 4.317-0.050 6.45-0.1v0z"/>
</svg>