<svg xmlns="http://www.w3.org/2000/svg" viewBox="0 -64 1024 1000" style="transform: scaleY(-1);">
<path fill="currentColor" d="M19.139 74.218v-121.049h117.528l220.603 220.294-119.444 119.444zM814.559 270.045l-92.603 181.098 79.085 73.947 190.561-97.070-94.975 186.445 72.281 67.586-51.13 51.13 53.322 53.248-119.88 119.873-53.281-53.281-51.748 51.748-232.884-245.942-179.121 91.592 93.222-182.31-80.009-84.494-169.839 87.279 88.822-172.841-65.028-68.675 188.635-188.635 68.060 63.638 176.967-90.944-89.003 173.193 83.474 78.051 185.072-94.636zM741.703 765.98c49.563 0 89.743-40.18 89.743-89.743s-40.18-89.743-89.743-89.743c-49.563 0-89.743 40.18-89.743 89.743s40.18 89.743 89.743 89.743zM317.754 339.959c0 48.096 38.989 87.085 87.085 87.085s87.085-38.989 87.085-87.085-38.991-87.085-87.085-87.085c-48.096 0-87.085 38.989-87.085 87.085zM482.498 508.621c0 49.563 40.18 89.743 89.743 89.743s89.743-40.18 89.743-89.743-40.18-89.743-89.743-89.743-89.743 40.18-89.743 89.743zM678.037 832.792l-185.9 94.694 96.391-189.223zM822.646 676.237c0-45.436-36.833-82.269-82.269-82.269s-82.269 36.833-82.269 82.269c0 45.436 36.833 82.269 82.269 82.269s82.269-36.833 82.269-82.269zM628.65 564.512c30.899-30.899 31.032-80.865 0.295-111.601s-80.702-30.604-111.601 0.295c-30.899 30.899-31.032 80.865-0.295 111.601s80.702 30.604 111.601-0.295zM457.589 393.455c29.425-29.425 29.715-76.843 0.647-105.91s-76.485-28.778-105.91 0.647c-29.425 29.425-29.715 76.843-0.647 105.91s76.485 28.778 105.91-0.647z"/>
</svg>