<svg xmlns="http://www.w3.org/2000/svg" viewBox="0 -64 1024 1000" style="transform: scaleY(-1);">
<path fill="currentColor" d="M908.682 162.56c139.17 191.525 122.422 461.107-50.286 633.818-176.21 176.21-453.266 190.090-645.372 41.652-27.817 32.566-54.723 65.058-78.801 95.832l-103.269-103.275c30.778-23.828 63.451-50.248 96.266-77.522-151.767-192.241-138.96-471.937 38.483-649.38 172.129-172.129 440.475-189.331 631.878-51.674l40.78-40.778 154.422-38.458-43.596 149.283-40.504 40.502zM660.181 411.061l-233.218 233.215 87.314 87.321-63.667 63.672c180.697 9.014 330.398-207.332 209.571-384.207zM446.375 795.029l-103.723-103.731c-12.597 13.938-25.675 28.458-39.017 43.372 46.748 38.523 95.723 57.103 142.74 60.359zM234.065 661.932c14.496-12.654 28.604-25.077 42.134-37.090l-107.757-107.764 65.666-65.67 82.032 82.037 478.47-478.465c-382.463-257.445-869.867 216.731-560.546 606.951z"/>
</svg>