<svg xmlns="http://www.w3.org/2000/svg" viewBox="0 -64 1024 1000" style="transform: scaleY(-1);">
<path fill="currentColor" d="M968.609 882.044c-14.254-0.748-99.293-11.516-104.047-45.998-19.508 5.285-39.293 3.595-53.617-6.219-10.766-7.377-16.718-18.173-17.986-30.291-22.73 5.341-44.423 3.035-59.641-8.189-12.781-9.426-18.923-23.642-18.873-39.797-28.866 6.854-56.439 3.977-75.758-10.272-13.589-10.025-21.238-24.334-23.301-40.775-45.15 13.294-89.146 10.384-119.183-11.772-24.477-18.054-35.531-45.809-34.026-77.169-92.462 23.95-175.218 1.433-180.505-110.316-8.631-182.427-209.168-251.932-215.302-508.47 142.104 212.596 509.302 558.574 478.415 273.949-16.090-148.265-185.316-49.306-423.159-230.545 216.579 149.437 447.856 30.469 464.245 242.558 39.884-21.875 58.373-12.527 92.317 12.512 48.708 35.929 54.264 82.894 33.911 130.043 13.927 3.127 26.651 8.59 37.524 16.61 33.832 24.954 42.024 68.439 26.833 114.369 14.966 1.079 28.553 5.491 39.49 13.558 22.645 16.703 28.866 45.277 20.051 75.858 14.303-0.070 27.344 3.431 37.494 10.92 19.548 14.42 23.604 40.025 13.621 66.67 8.922 1.057 17.214 3.899 24.202 8.686 17.226 11.804 22.155 32.352 15.203 53.089 35.471 6.684 40.078 87.035 42.094 100.992z"/>
</svg>