<svg xmlns="http://www.w3.org/2000/svg" viewBox="0 -64 1024 1000" style="transform: scaleY(-1);">
<path fill="currentColor" d="M32.025 628.013c99.413 0 180.003-80.59 180.003-180.003s-80.59-180.003-180.003-180.003v360.007zM901.999 538.011c0 0 90.002 0 90.002-90.002s-90.002-90.002-90.002-90.002l-630.011 60.009v60.009l630.011 59.984zM677.496 889.961c0 0 51.953 29.992 81.97-21.961 29.992-51.953-21.961-81.97-21.961-81.97l-482.661-244.028-29.992 51.953 452.643 296.006zM737.506 109.964c0 0 51.953-29.992 21.961-81.97-29.992-51.953-81.97-21.961-81.97-21.961l-452.669 295.981 29.992 51.953 482.686-244.003zM323.965 62.302c0 0 29.992-51.953-21.961-81.97s-81.97 21.961-81.97 21.961l-94.017 222.846 51.953 29.992 145.995-192.828zM220.034 893.701c0 0 29.992 51.953 81.97 21.961s21.961-81.97 21.961-81.97l-145.97-192.853-51.953 29.992 93.992 222.871z"/>
</svg>