<svg xmlns="http://www.w3.org/2000/svg" viewBox="0 -64 1024 1000" style="transform: scaleY(-1);">
<path fill="currentColor" d="M396.166 401.798c0 39.55-35.148 72.196-85.737 86.885v31.575c-4.403-5.085-10.856-8.314-18.066-8.314-13.267 0-24.025 10.878-24.025 24.285s10.758 24.277 24.025 24.277c7.21 0 13.663-3.226 18.066-8.309v32.765c0 13.32-27.324 23.487-61.027 23.487s-61.024-10.158-61.022-23.487v-95.802c-50.594-13.985-85.745-45.619-85.745-87.362 0-3.321 0.895-6.567 2.584-9.712h-2.218v-440.215h292.797v440.215h-2.212c1.689 3.146 2.584 6.391 2.584 9.712h-0.003zM984.639 815.985c-34.241 80.883-139.693 93.144-197.074 20.918-76.077 157.746-281.264 46.91-228.561-83.888l-0.002-0.012c-52.378-4.689-82.809-54.848-76.66-100.641 20.682-63.057 67.659-89.886 123.196-90.204-54.606-14.289-110.245-11.049-144.625 35.184l-162.403-61.238 215.685-102.639c34.639 38.785 86.923 40.851 138.3 27.422-40.011-0.227-75.571-14.237-100.065-45.617l0.588-0.281c-2.725-2.972-5.098-5.977-7.168-8.995-1.442-2.237-2.84-4.539-4.183-6.924-24.705-46.985 23.435-94.788 73.153-84.367-45.716-72.614 36.892-129.091 95.214-113.926-20.059 51.464 4.706 99.837 43.422 139.015-28.152-49.406-27.713-104.919 19.777-155.307 52.515-36.871 148.186-30.725 165.928 57.144 13.319-14.877 42.301-26.146 57.139-28.096v607.117l-11.662-4.664zM657.979 632.482c2.688 48.641-6.765 78.395-43.798 107.448 47.941-17.309 95.559-16.536 148.944 15.086-53.153-45.178-82.779-61.213-105.146-122.534zM822.573 537.821c-49.114-13.942-87.869-69.43-69.555-125.11-60.8 55.082-10.33 141.305 49.214 149.716-18.587 31.432-19.994 72.819 14.575 104.137-23.094-70.213 44.555-140.136 109.296-126.807-32.614-34.791-74.695-27.354-103.529-1.936z"/>
</svg>