<svg xmlns="http://www.w3.org/2000/svg" viewBox="0 -64 1024 1000" style="transform: scaleY(-1);">
<path fill="currentColor" d="M620.339 566.886c0.419 5.655 0.615 11.312 0.538 16.959-1.532 111.329-104.737 217.663-104.737 217.663v0h-0.002v-0.003c0 0-100.14-116.328-98.605-227.659 0.018-1.305 0.063-2.608 0.109-3.911-93.553 122.619-225.429 186.819-389.379 186.819 0 0 1.004-192.069 126.886-293.865 73.8-59.676 200.283-59.94 265.632-101.456 102.956-65.401 43.623-257.873-64.034-405.813h323.736c-108.464 149.040-166.695 341.603-62.852 406.977 65.875 41.469 192.417 41.080 265.632 100.287 125.882 101.795 126.886 293.865 126.886 293.865-184.868 0-304.841-74.973-389.81-189.863z"/>
</svg>