<svg xmlns="http://www.w3.org/2000/svg" viewBox="0 -64 1024 1000" style="transform: scaleY(-1);">
<path fill="currentColor" d="M510.553 902.556c-252.502 0-457.193-204.693-457.193-457.187s204.698-457.187 457.193-457.187 457.187 204.685 457.187 457.187c0 252.495-204.686 457.187-457.187 457.187zM511.668 19.843c-233.302 0-422.431 189.131-422.431 422.431s189.129 422.431 422.431 422.431 422.431-189.131 422.431-422.431-189.131-422.431-422.431-422.431zM604.431 476.405c0.72 7.008 0.112 13.987 0 20.989-1.407 102.071-95.623 199.406-95.623 199.411 0 0-92.365-106.665-90.959-208.739 0.037-3.339 0.925-7.168 1.164-10.492-62.661 78.128-146.35 118.946-247.22 118.946 0 0 0.526-153.087 87.461-234.391 50.966-47.669 139.122-48.474 184.248-81.629 48.749-35.82 43.955-119.337 12.829-206.404-7.534-12.246-20.804-20.822-36.152-20.989-2.374-0.025-6.998 1.164-6.998 1.164l101.455-33.815 95.623 32.651c-2.272-0.374-4.624-1.164-6.996-1.164-17.964 0-33.125 11.211-39.649 26.823-0.149 0.334 0.112 0.844 0 1.164-29.397 85.271-32.935 166.72 15.158 201.738 45.492 33.125 133.69 33.174 184.248 80.46 86.935 81.309 87.458 234.391 87.461 234.391-112.179 0-189.066-46.635-246.051-120.114zM511.225 299.152c-30.788 14.027-51.623 45.54-51.623 81.563s20.834 66.502 51.623 80.528v0 0 0c30.413-14.179 51.623-44.782 51.623-80.528s-21.213-67.387-51.623-81.563z"/>
</svg>