<svg xmlns="http://www.w3.org/2000/svg" viewBox="0 -64 1024 1000" style="transform: scaleY(-1);">
<path fill="currentColor" d="M511.203 796.265c-225.617 0-408.865-183.144-408.865-408.636s183.249-408.636 408.865-408.636 408.865 183.149 408.865 408.636-183.248 408.636-408.865 408.636zM511.203 49.044c-186.532 0-337.716 152.157-337.716 338.585s151.179 337.522 337.716 337.522c186.532 0 337.711-151.094 337.711-337.522s-151.179-338.585-337.711-338.585zM583.264 398.056c-0.115 0.631-0.214 1.263-0.347 1.896-2.359 11.267-7.168 21.395-13.753 29.943l94.22 254.782-152.34-225.905c-5.18 0.035-10.439-0.461-15.716-1.565-40.006-8.364-65.653-47.557-57.286-87.541 8.369-39.984 47.583-65.62 87.59-57.255 16.847 3.523 31.133 12.525 41.419 24.738l260.749-40.192-244.536 101.099zM339.97 937.352h323.318v-119.962h-323.318v119.962z"/>
</svg>