<svg xmlns="http://www.w3.org/2000/svg" viewBox="0 -64 1024 1000" style="transform: scaleY(-1);">
<path fill="currentColor" d="M524.687 659.629c150.687-262.015 336.002-77.734 321.852 88.625-8.531 100.272-104.63 191.364-277.539 184.248v0.003c-11.526-0.474-23.95-2.135-36.152-3.496-338.002-37.804-462.589-304.45-177.252-516.597 174.782-129.946 168.14-259.172-174.92-419.807h250.72c55.892 52.986 195.13 33.607 235.558 3.496 164.953 117.416 134.017 395.581-78.133 489.774-269.422 119.621-236.805 316.211-47.809 352.171 107.173 20.393 195.437-34.16 212.235-101.455 24.768-99.201-72.933-216.448-228.559-76.964zM633.991 54.358c-56.013-6.752-104.406 12.597-108.096 43.215-3.692 30.618 38.718 60.914 94.729 67.666 56.013 6.752 104.405-12.597 108.096-43.215s-38.717-60.914-94.729-67.666zM744.306 258.064c3.605-26.16-32.26-52.712-80.116-59.307-47.854-6.595-89.566 9.266-93.171 35.426s32.26 52.712 80.116 59.307c47.854 6.595 89.566-9.266 93.171-35.426zM690.724 373.946c5.467-20.405-20.356-45.056-57.685-55.057-37.328-10.003-72.017-1.567-77.485 18.838s20.356 45.056 57.685 55.057c37.327 10.003 72.017 1.569 77.485-18.838zM596.17 451.737c4.001-14.931-14.896-32.967-42.21-40.285s-52.697-1.146-56.698 13.785c-4.001 14.931 14.896 32.967 42.21 40.285s52.697 1.146 56.698-13.785zM469.244 512.601c17.436 4.672 33.64 0.732 36.194-8.8s-9.508-21.046-26.946-25.719-33.642-0.732-36.194 8.8c-2.554 9.532 9.508 21.046 26.946 25.719zM424.516 556.050c12.029 3.224 23.21 0.504 24.972-6.070 1.762-6.577-6.56-14.52-18.591-17.744-12.029-3.224-23.21-0.504-24.972 6.070-1.762 6.577 6.56 14.52 18.591 17.744z"/>
</svg>