<svg xmlns="http://www.w3.org/2000/svg" viewBox="0 -64 1024 1000" style="transform: scaleY(-1);">
<path fill="currentColor" d="M508.387 562.431c16.476 61.495 191.941 140.173 188.421 252.166-3.465 110.355-132.891 138.88-188.421 42.701-54.207 93.882-192.56 69.53-188.977-42.701 3.735-116.868 170.975-184.987 188.977-252.166zM337.574 184.023l170.682-209.943 170.684 209.942-170.684 209.943zM988.235 464.234c-3.361 105.303-170.27 227.204-170.27 227.204s-172.937-126.299-169.769-227.204c2.708-86.278 90.857-117.022 146.823-67.036l-49.062-117.498 144.523 0.008-49.102 117.59c56.743-48.746 149.653-20.547 146.856 66.936zM381.543 456.645c0 48.973-39.084 89.168-88.056 89.168-4.191 0-8.224-0.531-12.263-1.106 11.757 15.039 18.947 34.039 18.947 54.614 0 48.97-39.081 88.051-88.049 88.054-48.968-0.003-89.162-39.084-89.162-88.054 0-20.401 7.36-39.629 18.947-54.614-3.688 0.461-7.333 1.106-11.145 1.106-48.972 0-89.168-40.197-89.168-89.168s40.197-89.168 89.168-89.168c19.981 0 38.428 6.707 53.273 17.936l-44.739-107.146 144.523 0.008-45.4 108.724c15.18-12.141 34.337-19.523 55.070-19.523 48.973 0 88.054 40.195 88.054 89.168zM212.115 687.375h0.013z"/>
</svg>