<svg xmlns="http://www.w3.org/2000/svg" viewBox="0 -64 1024 1000" style="transform: scaleY(-1);">
<path fill="currentColor" d="M912.004 548.004c-40.963 0-66.205-20.967-105.233-44.116-7.779 41.291-24.009 79.596-46.841 113.043 43.973 11.232 76.649 14.246 105.611 43.207 28.289 28.289 28.289 84.867-14.127 127.281-42.432 42.432-98.993 42.416-127.281 14.127-28.966-28.966-31.98-61.642-43.204-105.608-33.451 22.838-71.759 39.073-113.058 46.853 23.147 39.024 44.112 64.258 44.112 105.208 0.025 40.006-39.981 80.013-99.991 80.013s-99.991-40.006-99.991-80.013c0-40.958 20.969-66.192 44.116-105.208-41.296-7.78-79.603-24.012-113.052-46.846-11.234 43.977-14.247 76.654-43.209 105.618-28.289 28.289-84.867 28.289-127.281-14.127s-42.416-98.993-14.127-127.281c28.966-28.966 61.642-31.988 105.611-43.217-22.834-33.449-39.066-71.754-46.846-113.048-39.024 23.147-64.259 44.112-105.208 44.112-40.006 0-80.013-40.006-80.013-99.991s40.006-99.991 80.013-99.991c40.95-0.013 66.185 20.954 105.209 44.104 7.78-41.293 24.014-79.598 46.846-113.043-43.965-11.229-76.638-14.246-105.594-43.204-28.289-28.289-28.289-84.867 14.127-127.282s98.993-42.416 127.282-14.127c28.958 28.958 31.972 61.634 43.197 105.604 33.451-22.834 71.759-39.066 113.055-46.845-23.152-39.036-44.126-64.273-44.126-105.229 0-40.006 40.006-80.013 99.991-80.013s99.991 40.006 99.991 80.013c0.013 40.965-20.955 66.205-44.107 105.233 41.296 7.78 79.603 24.014 113.050 46.85 11.232-43.975 14.246-76.651 43.209-105.613 28.289-28.289 84.867-28.289 127.281 14.127 42.416 42.416 42.416 98.993 14.127 127.282-28.953 28.972-61.631 31.985-105.611 43.215 22.833 33.451 39.064 71.757 46.843 113.053 39.036-23.152 64.273-44.126 105.229-44.126 40.006 0 80.013 40.006 80.013 99.991s-40.008 99.992-80.014 99.992zM511.992 328.018c-33.136 0-63.128 13.429-84.84 35.137 0.002 0.002 0.002 0.003 0.003 0.005-0.002-0.002-0.003-0.002-0.005-0.003-21.72 21.716-35.152 51.72-35.152 84.855 0 66.259 53.735 119.994 119.994 119.994 66.284 0 119.994-53.735 119.994-119.994s-53.735-119.994-119.994-119.994z"/>
</svg>