<svg xmlns="http://www.w3.org/2000/svg" viewBox="0 -64 1024 1000" style="transform: scaleY(-1);">
<path fill="currentColor" d="M748.639 508.606c94.651 44.271 90.505 194.181 184.246 188.291-132.001 87.688-128.61-99.381-290.863-39.525 35.431 98.18-73.332 201.165-2.923 263.25-155.361-31.338-20.639-161.241-177.772-233.644-44.273 94.649-194.179 90.503-188.291 184.243-87.686-132.001 99.378-128.608 39.525-290.859-98.18 35.431-201.165-73.332-263.25-2.923 31.338-155.361 161.242-20.637 233.644-177.773-94.651-44.273-90.503-194.181-184.245-188.291 132.001-87.686 128.61 99.378 290.859 39.527-35.429-98.18 73.332-201.163 2.925-263.248 155.361 31.338 20.639 161.242 177.772 233.644 44.273-94.651 194.181-90.503 188.291-184.245 87.686 132.001-99.38 128.61-39.525 290.861 98.18-35.427 201.163 73.332 263.248 2.925-31.338 155.357-161.241 20.635-233.642 177.768z"/>
</svg>