<svg xmlns="http://www.w3.org/2000/svg" viewBox="0 -64 1024 1000" style="transform: scaleY(-1);">
<path fill="currentColor" d="M985.32 924.3h-224.071l-84.432-64.95c-9.284 16.259-20.405 30.147-33.555 43.299l16.237 21.651h-324.737l15.155-19.483c-13.86-13.441-24.917-28.637-34.637-45.462l-83.35 64.95-197.011-0.002v-18.4l255.459-106.083c-3.085-14.269-4.328-30.276-4.328-45.462 0-2.374-0.079-4.141 0-6.496l-251.131 33.553v-126.647l263.038 35.723c5.011-15.151 11.322-29.905 19.483-43.299l-282.52-116.903v-171.028l314.994 245.715c11.202-10.855 22.319-19.997 35.723-28.144l-350.717-453.548v-149.38h158.038l238.141 583.443c13.046-4.134 27.118-8.242 41.134-9.744l-76.853-573.704h203.5l-76.853 573.702c13.923 1.884 28.219 7.415 41.134 11.907l238.141-585.609h184.018v116.905l-378.86 489.273c11.404 7.292 21.639 15.596 31.39 24.898l347.47-267.366v180.769l-312.829 128.812c7.784 12.769 15.639 26.756 20.565 41.134l292.264-38.97v136.391l-281.438-37.886c0.079 2.35 0 4.124 0 6.496 0 14.408-1.549 29.711-4.328 43.299l285.768 117.987v8.661z"/>
</svg>