<svg xmlns="http://www.w3.org/2000/svg" viewBox="0 -64 1024 1000" style="transform: scaleY(-1);">
<path fill="currentColor" d="M773.041 258.841l-65.544 61.174c234.554 246.592 353.614 507.269 266.917 593.965-60.959 60.957-207.93 20.198-375.539-90.907l0.319 0.332c-61.746-40.875-125.803-90.999-189.661-149.27-2.197-2.001-4.392-4.017-6.587-6.037-0.175-0.162-0.351-0.324-0.526-0.484-11.187-10.298-22.356-20.827-33.49-31.602l-60.334 56.313c12.113 109.727-44.779 158.521-139.924 235.572l-6.139-99.246-61.194 57.115-23.323-23.323 59.987-64.271-105.579-6.527c83.522-102.764 130.461-136.509 238.052-135.409l57.257-61.346c-243.672-250.781-369.896-520.742-281.518-609.113 87.028-87.022 350.128 34.048 597.61 270.441l63.234-67.751-147.499-47.304 421.546-162.829-162.836 421.546-45.228-141.038zM905.288 781.077c38.79-38.788-28.769-172.577-156.871-325.38 10.145 28.396 10.228 51.132-2.053 63.411-26.482 26.479-101.581-4.53-177.22-69.963l-90.094 84.087c191.465 184.965 379.072 295.011 426.238 247.845zM179.952 55.736c-47.395 47.395 63.957 236.606 250.554 429.038l83.646-89.621c-70.562-78.484-105.193-158.513-77.72-185.98 12.016-12.014 34.091-12.138 61.687-2.584-149.78-124.193-279.988-189.031-318.167-150.852z"/>
</svg>