<svg xmlns="http://www.w3.org/2000/svg" viewBox="0 -64 1024 1000" style="transform: scaleY(-1);">
<path fill="currentColor" d="M954.243 523.626h0.005c-57.184 427.482-796.149 546.514-888.673 0-20.639-121.888 112.526-172.002 275.81-188.74-46.118-198.77-96.649-334.262 158.369-334.262 273.027 0 214.659 147.088 161.109 338.331 165.522 22.957 307.098 82.124 293.38 184.671zM562.971 850.888c68.050 12.899 132.824-79.869 40.86-97.303-68.047-12.893-132.821 79.869-40.86 97.303zM416.554 843.366c43.576-28.201-1.169-78.739-33.413-57.875-43.579 28.203 1.169 78.743 33.413 57.875zM385.759 749.231c43.529 28.169 103.935-40.060 45.106-78.131-43.529-28.166-103.933 40.060-45.106 78.131zM184.856 479.584c-49.124 31.789 1.316 88.764 37.666 65.242 49.122-31.786-1.316-88.761-37.666-65.242zM259.383 614.877c-71.231-12.25-82.019 123.269 14.251 139.835 71.234 12.25 82.022-123.278-14.251-139.835zM377.437 518.838c59.255-38.344-1.589-107.067-45.434-78.696-59.255 38.344 1.589 107.067 45.434 78.696zM620.688 469.86c-89.714-58.059-214.213 82.56-92.965 161.020 89.713 58.059 214.215-82.561 92.965-161.020zM744.628 666.8c-41.409 12.617-44.020 84.975 11.942 67.926 41.411-12.619 44.022-84.975-11.942-67.926zM810.24 469.432c-84.472 54.666 2.265 152.636 64.769 112.184 84.471-54.665-2.267-152.636-64.769-112.184z"/>
</svg>