<svg xmlns="http://www.w3.org/2000/svg" viewBox="0 -64 1024 1000" style="transform: scaleY(-1);">
<path fill="currentColor" d="M960.435 611.681v0 0c-0.685 0.621-2.461 1.584-5.050 2.793-11.977 6.41-24.107 11.244-36.38 14.557-25.127 9.435-52.291 19.020-52.291 19.020v0l-569.528 221.015c-50.072 14.45-104.841 16.374-167.151-1.809l-0.002 0.002-44.7-223.551 173.094-72.971 68.337-350.564c-0.738-0.6-1.463-1.223-2.173-1.866l-248.379-53.945-2.167-152.7 293.569 93.827 51.409 9.979c0.855-0.047 1.714-0.074 2.578-0.072 29.071 0.060 52.597 27.88 52.545 62.138 0 0.074 0 0.147 0 0.221-0.052 34.256-23.661 61.978-52.732 61.918-8.536-0.018-16.586-2.444-23.709-6.709l-65.397 306.625 360.7-152.060 166.55 10.569 100.877 213.582c0 0 0 0 0 0zM874.264 471.176c-18.925-35.808-50.076-53.19-69.577-38.822s-19.967 55.044-1.042 90.852c18.925 35.808 50.076 53.19 69.577 38.822s19.967-55.044 1.042-90.852z"/>
</svg>