<svg xmlns="http://www.w3.org/2000/svg" viewBox="0 -64 1024 1000" style="transform: scaleY(-1);">
<path fill="currentColor" d="M578.050 484.174v79.736c0 6.551-3.037 16.238-24.546 16.238-21.484 0-24.546-9.688-24.546-16.238v-79.736c0-6.551 4.267-14.030 24.546-14.030s24.546 7.479 24.546 14.030zM499.242-27.6l-6.049 233.562c-28.411 1.054-44.775 1.456-59.934 5.296-10.516 2.66-15.686 10.24-15.686 21.936v335.009c0 7.705-0.678 12.298-13.001 12.223-20.882-0.151-102.551-1.18-102.551-1.18l15.134 26.102c2.811 4.844 5.396 8.458 12.725 8.458 5.245 0 46.657-5.12 74.968-2.359 14.406 1.405 20.831 3.062 27.307 12.85 11.445 17.368 9.161 59.231-11.57 88.295-5.020 7.027 0.402 13.277 9.186 10.391 19.25-6.275 51.501-5.321 51.501-5.321v163.991c0 5.572-3.313 8.835-10.039 8.835h-116.781c0 0 15.962 31.172 39.053 34.409 25.224 3.564 78.984 3.062 118.488 3.062s93.264 0.502 118.488-3.062c23.090-3.263 39.053-34.409 39.053-34.409h-116.781c-6.726 0-10.039-3.263-10.039-8.835v-163.991c0 0 32.251-0.954 51.501 5.321 8.784 2.861 14.205-3.363 9.186-10.391-20.731-29.064-23.015-70.927-11.57-88.295 6.475-9.813 12.875-11.445 27.307-12.85 28.311-2.761 69.722 2.359 74.968 2.359 7.329 0 9.914-3.614 12.725-8.458l15.134-26.102c0 0-81.669 1.029-102.551 1.18-12.323 0.1-13.001-4.493-13.001-12.223v-335.009c0-11.721-5.17-19.3-15.686-21.936-15.159-3.815-31.523-4.242-59.934-5.296l-6.049-233.562c-0.1-3.84-5.998-4.417-12.775-4.417-6.726 0.025-12.624 0.602-12.725 4.417v0zM470.505 470.144c20.279 0 24.546 7.479 24.546 14.030v79.736c0 6.551-3.037 16.238-24.546 16.238s-24.546-9.688-24.546-16.238v-79.736c0-6.551 4.267-14.030 24.546-14.030z"/>
</svg>