<svg xmlns="http://www.w3.org/2000/svg" viewBox="0 -64 1024 1000" style="transform: scaleY(-1);">
<path fill="currentColor" d="M631.634 447.052c0-65.255-52.706-120.471-120.471-120.471-65.255 0-120.471 52.706-120.471 120.471s52.706 120.471 120.471 120.471 120.471-52.706 120.471-120.471zM481.046 748.228h60.235c17.569 0 30.118-12.549 30.118-30.118v-60.235c0-17.569-12.549-30.118-30.118-30.118h-60.235c-17.569 0-30.118 12.549-30.118 30.118v60.235c0 17.569 15.059 30.118 30.118 30.118zM721.987 507.287h60.235c17.569 0 30.118-12.549 30.118-30.118v-60.235c0-17.569-12.549-30.118-30.118-30.118h-60.235c-17.569 0-30.118 12.549-30.118 30.118v60.235c0 17.569 12.549 30.118 30.118 30.118zM481.046 268.856h60.235c17.569 0 30.118-12.549 30.118-30.118v-60.235c0-17.569-12.549-30.118-30.118-30.118h-60.235c-17.569 0-30.118 12.549-30.118 30.118v60.235c0 15.059 15.059 30.118 30.118 30.118zM242.614 507.287h60.235c17.569 0 30.118-12.549 30.118-30.118v-60.235c0-17.569-12.549-30.118-30.118-30.118h-60.235c-17.569 0-30.118 12.549-30.118 30.118v60.235c0 17.569 12.549 30.118 30.118 30.118zM511.163 927.373c-266.039 0-479.373-215.843-479.373-479.373 0-266.039 215.843-479.373 479.373-479.373s479.373 215.843 479.373 479.373-213.333 479.373-479.373 479.373zM511.163 806.902c198.275 0 358.902-160.627 358.902-358.902s-160.627-358.902-358.902-358.902-358.902 160.627-358.902 358.902 160.627 358.902 358.902 358.902z"/>
</svg>