<svg xmlns="http://www.w3.org/2000/svg" viewBox="0 -64 1024 1000" style="transform: scaleY(-1);">
<path fill="currentColor" d="M121.993 928.009l360.006-389.998 329.989-389.998-389.998 329.989-389.998 360.006 90.002 90.002zM873.705 415.181c-75.018 44.122-168.558 43.57-243.526-0.502l90.805-90.805c20.053 5.271 41.211 4.894 61.214-0.301l91.507 91.507v0.1zM959.189 329.722l-91.507-91.507c5.12-20.003 5.471-41.161 0.201-61.214l90.805-90.805c44.072 74.943 44.624 168.483 0.502 243.526v0zM545.322 329.722c-44.047-74.968-44.599-168.508-0.477-243.526l91.507 91.507c-5.12 20.003-5.496 41.161-0.201 61.214l-90.83 90.805zM783 92.019c-20.053-5.271-41.211-4.919-61.214 0.301l-91.507-91.507c75.018-44.122 168.558-43.57 243.526 0.502l-90.805 90.805v-0.1z"/>
</svg>