<svg xmlns="http://www.w3.org/2000/svg" viewBox="0 -64 1024 1000" style="transform: scaleY(-1);">
<path fill="currentColor" d="M993.081 142.696l-135.826 135.826h-139.239l-34.046 34.295c30.515 38.070 48.778 86.382 48.778 138.967 0 50.124-16.589 96.371-44.57 133.563l142.677 142.967c20.488-24.431 37.896-52.872 52.635-87.19l0.003-0.003c46.197 97.94 86.637 195.88 107.866 293.825-97.94-25.032-195.88-62.284-293.823-107.866 35.245-17.59 65.929-36.248 92.608-58.385l-142.131-142.242c-37.863 29.88-85.672 47.715-137.65 47.715-52.002 0-99.832-17.854-137.705-47.76l-141.621 142.657c26.574 21.973 57.103 40.526 92.152 58.016-97.942 45.582-195.881 82.834-293.821 107.866 21.228-97.945 61.669-195.885 107.866-293.825l0.003 0.003c14.54 33.857 31.687 61.988 51.818 86.198l142.329-143.549c-27.27-36.919-43.402-82.566-43.402-131.987 0-52.040 17.881-99.899 47.826-137.786l-35.449-35.476h-136.885l-135.826-135.826h136.992l-21.678-21.694 41.459-40.44 19.638 19.678 0.002-133.96 135.831 135.826-0.003 134.241 37.272 37.347c37.13-27.817 83.241-44.294 133.205-44.294 48.739 0 93.807 15.692 130.454 42.283l40.020-40.362-0.002-129.213 135.831-135.826 0.002 128.043 40.143-40.487 42.671 41.89-46.628 46.969h140.226zM642.74 451.784c0-27.583-8.444-53.188-22.877-74.39l-69.425 69.933 73.063 73.212c12.206-20.041 19.239-43.576 19.239-68.755zM510.368 584.155c27.1 0 52.287-8.159 73.269-22.132l-73.771-73.828-73.088 73.623c21.046 14.102 46.356 22.338 73.591 22.338zM377.996 451.784c0 24.349 6.603 47.144 18.075 66.745l71.774-72.388-67.659-67.713c-14.010 20.998-22.189 46.219-22.189 73.355zM510.368 319.412c-25.084 0-48.536 6.979-68.524 19.099l66.573 66.709 67.716-68.296c-19.379-11.12-41.819-17.512-65.765-17.512z"/>
</svg>