<svg xmlns="http://www.w3.org/2000/svg" viewBox="0 -64 1024 1000" style="transform: scaleY(-1);">
<path fill="currentColor" d="M61.662 899.831c0 0 66.943 21.579 183.876-39.221 121.794-63.333 170.978-233.155 265.38-235.331 94.412 2.175 143.606 171.999 265.39 235.331 116.925 60.8 183.876 39.221 183.876 39.221v-170.689c0 0-75.998 4.899-117.675-26.97-30.281-23.148-90.311-108.415-142.516-159.899 77.607-55.575 127.723-143.519 127.723-242.501 0-168.051-144.451-304.283-322.649-304.283s-322.659 136.232-322.659 304.283c0 101.891 53.111 192.094 134.643 247.324-51.031 51.83-108.349 132.642-137.704 155.087-41.685 31.868-117.685 26.97-117.685 26.97v170.679zM358.315 300.11c0-79.887 65.853-144.645 147.088-144.645s147.099 64.766 147.099 144.645-65.853 144.645-147.099 144.645-147.088-64.768-147.088-144.645z"/>
</svg>