<svg xmlns="http://www.w3.org/2000/svg" viewBox="0 -64 1024 1000" style="transform: scaleY(-1);">
<path fill="currentColor" d="M942.731 328.605c-13.755 13.755-31.48 22.192-51.676 25.685l-234.209 188.931c-19.359 19.357-48.885 24.977-81.623 18.594-2.718 7.754-6.884 14.662-12.609 20.386l-107.233 86.499 0.844 0.844c-3.899 3.899-8.418 6.966-13.399 9.284l-48.295 38.957c-14.388 14.388-37.627 16.805-62.626 9.042-1.179 7.257-4.138 13.624-9.034 18.521l-92.893 74.937c11.545 29.222 10.23 57.222-6.37 73.822-27.007 27.005-84.182 13.613-127.708-29.913s-56.92-100.703-29.913-127.708c16.556-16.554 44.45-17.904 73.586-6.461l74.996-92.972c4.898-4.899 11.269-7.858 18.527-9.037-7.763-24.999-5.346-48.238 9.041-62.624l43.432-53.841c1.555-2.327 3.306-4.52 5.282-6.548l86.871-107.69c5.723-5.725 12.629-9.891 20.383-12.609-6.383-32.74-0.763-62.267 18.594-81.626l188.941-234.225c3.495-20.188 11.931-37.905 25.682-51.654 53.355-53.355 166.316-26.896 252.31 59.098s112.451 198.955 59.098 252.31zM740.997 159.219c37.536 37.536 85.941 51.008 112.921 32.897 1.3-3.102 2.279-6.396 2.942-9.851-8.838-3.595-17.877-9.567-25.961-17.65-21.451-21.451-28.051-49.628-14.742-62.938 2.666-2.666 5.935-4.519 9.62-5.628-2.756-3.216-5.66-6.381-8.745-9.468-37.536-37.536-85.941-51.010-112.921-32.897-11.65 27.812 2.571 71.221 36.886 105.535z"/>
</svg>