<svg xmlns="http://www.w3.org/2000/svg" viewBox="0 -64 1024 1000" style="transform: scaleY(-1);">
<path fill="currentColor" d="M653.793 557.134c-1.604 2.307-4.241 4.4-7.908 6.035-57.93 39.383-146.295 1.911-115.368-94.943 76.424-239.354 483.918-36.615 398.814 222.731-52.279 159.328-158.466 228.011-302.028 229.728v-0.018c-184.577 2.213-394.111-106.696-475.777-265.878-115.856-225.806-57.19-442.806 69.963-671.687l380.472 0.003c1.467-0.058 2.955-0.085 4.487-0.043 0.296 0.008 0.58 0.033 0.874 0.043l107.446 0.002c-20.936 6.993-41.697 15.751-62.073 26.034 20.126 33.911 4.719 88.665-46.25 87.291-22.528-0.608-38.1-11.809-46.738-26.948-1.642 26.911-19.859 52.171-54.676 51.232-0.89-0.023-1.761-0.079-2.631-0.135 37.21 29.003 26.103 103.706-33.313 102.103-16.411-0.443-29.121-6.515-38.162-15.626 8.082 25.5-3.414 57.603-34.5 61.767 58.515 15.201 53.793 113.246-14.192 111.409-9.239-0.251-17.306-2.285-24.208-5.638 17.005 19.767 14.582 54.32-7.273 68.693 3.546-0.54 7.297-0.793 11.277-0.685 70.796 1.844 73.008 108.372 6.625 113.22 0.573 1.381 1.141 2.765 1.739 4.139 13.963 6.914 20.458 22.234 19.484 36.762 1.584 2.507 3.232 4.996 4.913 7.477 8.157-6.368 18.943-10.188 32.384-9.824 48.93 1.281 62.832 55.991 41.722 86.323 8.397 6.313 17.261 12.457 26.636 18.405 3.222 2.045 6.506 3.979 9.846 5.815 4.256-22.054 20.974-40.953 50.174-40.167 39.385 1.032 56.073 36.697 50.072 66.39 20.574 0.763 41.020-0.895 60.314-4.621-7.748-26.427 6.124-59.591 41.615-58.634 19.829 0.521 32.9 11.341 39.233 25.324 5.040-3.769 9.644-7.766 13.733-11.979 1.627-10.604 7.347-20.346 17.156-25.515 0.438-1.081 0.847-2.168 1.223-3.264 1.525-4.443 2.731-9.056 3.652-13.791-45.771-1.822-48.212-69.116-7.322-75.711-1.38-3.889-2.905-7.756-4.572-11.588-8.421-6.324-13.15-16.189-14.186-26.41-4.206-6.488-8.854-12.746-13.92-18.689-3.787 9.963-12.654 17.657-26.649 17.278-30.909-0.837-36.909-39.602-18.028-54.123-6.5-3.597-13.31-6.75-20.428-9.376-8.117-2.992-16.341-5.488-24.482-7.004 3.336 12.853-3.536 28.528-20.639 28.067-14.739-0.396-21.868-12.36-21.429-23.771-8.336 4.211-16.093 10.935-22.979 20.929 22.034 6.501 20.131 43.621-5.74 43.407 3.613 7.776 9.652 14.737 17.343 20.388 4.839-3.926 13.394-6.684 25.709-6.52 25.082 0.324 34.641 12.326 28.725 21.325 0.058-0.005 0.117-0.007 0.174-0.012-0.105 0.095-0.219 0.182-0.331 0.277z"/>
</svg>