<svg xmlns="http://www.w3.org/2000/svg" viewBox="0 -64 1024 1000" style="transform: scaleY(-1);">
<path fill="currentColor" d="M481.999 327.995h-119.994v119.994l-90.002 60.009v420.016h209.995v-60.009l-90.002-60.009v-119.994l90.002-60.009v-299.997zM542.009 327.995v299.997l90.002 60.009v119.994l-90.002 60.009v60.009h209.995v-419.991l-90.002-60.009v-119.994l-119.994-0.025zM662.003 268.010c60.009 0 90.002-29.992 90.002-60.009h-480c0 29.992 29.992 60.009 90.002 60.009h299.997zM811.988 148.017c29.992 0 60.009-29.992 60.009-60.009v-119.994h-719.987v119.994c0 29.992 29.992 60.009 60.009 60.009h599.969zM601.993 748.010c0-49.694-40.282-90.002-90.002-90.002s-90.002 40.282-90.002 90.002c0 49.694 40.282 90.002 90.002 90.002s90.002-40.307 90.002-90.002z"/>
</svg>