<svg xmlns="http://www.w3.org/2000/svg" viewBox="0 -64 1024 1000" style="transform: scaleY(-1);">
<path fill="currentColor" d="M866.281 154.374c22.055 71.546 26.644 150.411 21.030 228.726 83.626 40.805 119.758 154.176 65.706 269.364-9.386-70.015-56.054-107.119-94.706-96.966-17.51 53.96-46.285 102.333-83.069 143.18 18.94 77.203-31.296 168.554-136.037 211.432 36.286-49.65 35.927-97.203 11.409-116.589-51.507 25.884-108.372 41.426-166.822 44.403-33.635 64.367-117.386 100.564-205.126 72.764 53.861-15.403 81.708-51.863 74.065-79.434-52.742-8.483-102.173-24.466-145.209-49.341-58.348 33.094-140.579 12.637-179.427-65.904 38.798 23.569 80.923 17.365 96.256-3.784-13.586-16.437-25.617-34.656-35.833-54.787l0.008-0.005c-96.418-189.973-58.375-374.457 122.855-446.678 136.603-54.434 316.232 46.807 258.88 206.404-25.804-171.24-274.043-101.937-246.37 53.691 28.634 161.024 257.385 209.94 349.993 49.545 70.367-121.883 5.362-244.014-107.121-330.628-94.758-72.965-249.996-89.761-439.63-29.151v-206.404h691.514c22.409 14.658 42.158 30.987 59.532 48.703 95.249-10.108 191.242 64.432 213.376 190.918-44.952-48.004-96.495-58.807-125.275-39.458z"/>
</svg>