<svg xmlns="http://www.w3.org/2000/svg" viewBox="0 -64 1024 1000" style="transform: scaleY(-1);">
<path fill="currentColor" d="M899.269 341.646c-23.851-23.265-46.925-44.809-72.761-58.199-1.816 28.834-5.868 55.687-13.17 79.662 18.175 24.758 30.952 51.274 34.585 83.826h-0.003c-18.808-17.961-39.166-26.986-61.395-28.806-28.411 38.098-74.658 60.403-147.915 58.784-4.253 25.256-10.455 48.708-19.443 69.587 11.493 22.602 16.635 51.598 15.871 81.852v-0.002c-12.525-15.569-29.008-26.469-47.682-32.143-33.294 35.247-84.785 53.676-164.226 46.267 23.128 12.879 43.025 31.405 56.763 60.698-20.199-8.718-39.655-10.245-58.585-5.195-3.5 68.174-33.538 114.944-77.428 142.174-9.064 28.239-27.195 56.231-62.82 83.746 3.959-20.016 1.425-39.401-5.404-58.37-12.824 2.29-26.094 3.533-39.65 3.739-7.679 28.933-33.625 72.657-33.625 72.657l-127.028-2.068c37.561-7.781 56.158-38.994 56.273-91.694-75.766-30.332-100.080-2.502-110.615 44.685l-5.147-125.406c28.555-9.248 63.52-12.818 105.821-9.924-6.416-55.249-2.902-98.55 9.488-131.172-13.938-11.7-33.685-18.37-56.171-22.673 26.26-18.584 57.633-28.261 89.17-25.929 34.601-29.843 87.865-37.23 156.33-26.33 0.971-69.383 18.546-111.115 45.626-137.017-3.55-23.473-18.185-41.825-38.498-56.083h0.003c34.661-0.989 64.445 8.566 90.72 25.72 33.157-11.256 71.232-14.323 108.422-18.866-1.751-14.607-2.748-28.163-3.072-40.773-22.304-6.953-44.61-3.189-66.914 2.31l0.002-0.003c20.612-32.457 43.77-59.464 73.902-71.533 20.341-75.265 81.746-93.089 149.529-101.984l-2.973-2.9c1.398-0.795 2.81-1.55 4.211-2.334-9.221-24.613-27.915-45.916-55.677-72.986h0.003c110.818-53.918 231.965-82.745 359.758-95.429-5.351 125.252-40.432 244.734-86.275 362.113zM337.9 643.303c-109.184-61.276-140.674 19.002-141.656 130.23 89.028 36.667 151.515-4.669 141.656-130.23zM403.755 550.174c78.394 19.15 134.032-12.218 134.201-88.159-95.272-39.293-120.79 16.209-134.201 88.159zM593.873 384.908c91.362 34.751 164.426-0.822 141.656-130.227-100.564-58.049-141.935 21.878-141.656 130.227z"/>
</svg>