<svg xmlns="http://www.w3.org/2000/svg" viewBox="0 -64 1024 1000" style="transform: scaleY(-1);">
<path fill="currentColor" d="M392.595 412.9h233.226v-54.813h71.986v-67.629h47.826v108.793h49.474v-108.793h58.112v122.441h61.802v89.79l-524.759 0.002c-18.457 65.422-72.435 113.113-136.434 113.113l-0.005 0.008c-79.199 0-143.437-72.599-143.437-162.094s64.235-162.089 143.437-162.094c66.649 0 122.681 51.644 138.771 121.278zM210.074 412.33c-23.773 0-43.043 19.271-43.043 43.043s19.272 43.043 43.043 43.043 43.043-19.271 43.043-43.043c0-23.773-19.271-43.043-43.043-43.043zM304.258 737.566h233.226v-122.441h51.998v71.334h49.473v-71.334h125.925v51.608h-64.711v57.722h64.711v13.112h61.802v89.79h-524.757c-18.457 65.422-72.435 113.113-136.434 113.113l-0.005 0.008c-79.199 0-143.437-72.599-143.437-162.094s64.235-162.089 143.437-162.094c66.649 0 122.681 51.644 138.771 121.278zM84.411 778.343c0 52.722 36.296 95.459 81.068 95.459s81.063-42.737 81.063-95.459c0-52.722-36.296-95.459-81.063-95.459s-81.068 42.737-81.068 95.459zM1003.889 101.915v68.235h-515.429l-122.441 109.611-124.778-68.803v-184.248l124.778-66.466 122.441 120.114h240.222v-16.372h84.548v-49.474h-84.548v-56.596h275.207v94.527h-88.223v49.474l88.223-0.002zM325.036 90.878c-16.488 0-29.855 13.367-29.855 29.855s13.367 29.855 29.855 29.855 29.855-13.367 29.855-29.855-13.365-29.855-29.855-29.855z"/>
</svg>