<svg xmlns="http://www.w3.org/2000/svg" viewBox="0 -64 1024 1000" style="transform: scaleY(-1);">
<path fill="currentColor" d="M338.446 869.221v-840.687zM90.852 276.496h840.458zM677.893 869.221v-840.687zM90.852 615.943h836.755zM453.054 506.958l116.221-116.221zM454.572 392.255l113.185 113.185zM788.627 850.626l116.221-116.221zM790.147 735.921l113.185 113.185zM113.609 163.353l116.221-116.221zM115.127 48.648l113.185 113.185zM329.918 869.221h16.705v-840.687h-16.705v840.687zM670.695 869.221h15.034v-840.689h-15.034v840.689zM90.852 287.646h840.458v-11.15h-840.458v11.15zM90.852 621.517h840.458v-11.15h-840.458v11.15zM908.282 739.56l-8.231-8.275-114.904 114.288 8.231 8.275 114.904-114.288zM793.112 731.477l-8.192 8.314 115.442 113.756 8.192-8.314-115.442-113.756zM572.548 397.114l-8.231-8.275-114.904 114.288 8.231 8.275 114.904-114.288zM457.348 389.031l-8.192 8.314 115.442 113.756 8.192-8.314-115.442-113.756zM233.324 52.288l-8.231-8.275-114.904 114.288 8.231 8.275 114.904-114.288zM118.091 44.205l-8.192 8.314 115.442 113.756 8.192-8.314-115.442-113.756zM511.165 869.221c-44.662 0-80.868-34.343-80.868-76.708s36.206-76.708 80.868-76.708 80.868 34.343 80.868 76.708-36.206 76.708-80.868 76.708zM511.165 727.442c-37.886 0-68.6 29.133-68.6 65.072s30.713 65.072 68.6 65.072 68.6-29.133 68.6-65.072-30.713-65.072-68.6-65.072zM171.72 869.221c-44.662 0-80.868-34.343-80.868-76.708s36.206-76.708 80.868-76.708 80.868 34.343 80.868 76.708-36.206 76.708-80.868 76.708zM171.72 727.442c-37.886 0-68.6 29.133-68.6 65.072s30.713 65.072 68.6 65.072 68.6-29.133 68.6-65.072-30.713-65.072-68.6-65.072zM846.739 526.774c-44.662 0-80.868-34.343-80.868-76.708s36.206-76.708 80.868-76.708c44.662 0 80.868 34.343 80.868 76.708s-36.206 76.708-80.868 76.708zM846.739 384.995c-37.886 0-68.6 29.133-68.6 65.072s30.713 65.072 68.6 65.072c37.886 0 68.6-29.133 68.6-65.072 0-35.937-30.713-65.072-68.6-65.072zM509.494 181.949c-44.662 0-80.868-34.343-80.868-76.708s36.206-76.708 80.868-76.708 80.868 34.343 80.868 76.708-36.206 76.708-80.868 76.708zM509.494 40.171c-37.886 0-68.6 29.133-68.6 65.072s30.713 65.072 68.6 65.072 68.6-29.133 68.6-65.072-30.713-65.072-68.6-65.072z"/>
</svg>