<svg xmlns="http://www.w3.org/2000/svg" viewBox="0 -64 1024 1000" style="transform: scaleY(-1);">
<path fill="currentColor" d="M511.992 928.013c-270.005 0-480-119.994-480-240.013 0-60.009 29.992-90.002 60.009-119.994-29.992-29.992-60.009-108.825-60.009-150.011v-329.989c0-60.009 60.009-119.994 119.994-119.994h719.987c60.009 0 119.994 29.992 119.994 119.994v360.006c0 37.923-29.992 90.002-60.009 119.994 29.992 29.992 60.009 60.009 60.009 119.994 0.025 119.994-209.97 240.013-479.975 240.013zM511.992 807.995c209.995 0 360.006-29.992 360.006-119.994 0-29.992-29.992-90.002-60.009-119.994 29.992-29.992 60.009-119.994 60.009-150.011v-329.989h-719.987v329.989c0 29.992 29.992 119.994 60.009 150.011-29.992 29.992-60.009 90.002-60.009 119.994 0 90.002 149.986 119.994 359.981 119.994zM512.017 744.998l21.208-21.208c11.721-11.721 11.721-30.72 0-42.416l-254.569-254.569c-11.721-11.721-30.72-11.721-42.416 0l-21.208 21.208c-11.721 11.721-11.721 30.72 0 42.416l254.569 254.569c11.696 11.696 30.695 11.696 42.416 0zM713.529 670.758l21.208-21.208c11.721-11.721 11.721-30.72 0-42.416l-381.816-381.867c-11.721-11.721-30.72-11.721-42.416 0l-21.208 21.208c-11.721 11.721-11.721 30.72 0 42.416l381.842 381.842c11.696 11.721 30.695 11.721 42.391 0.025zM787.794 469.246l21.208-21.208c11.721-11.721 11.721-30.72 0-42.416l-254.569-254.569c-11.721-11.721-30.72-11.721-42.416 0l-21.208 21.208c-11.721 11.721-11.721 30.72 0 42.416l254.569 254.569c11.696 11.696 30.695 11.696 42.416 0z"/>
</svg>