<svg xmlns="http://www.w3.org/2000/svg" viewBox="0 -64 1024 1000" style="transform: scaleY(-1);">
<path fill="currentColor" d="M178.791 160.692v-177.433h69.447c-9.993 61.943-36.259 120.586-69.447 177.433zM178.792 587.825v0l-0.002-404.812c59.516-43.165 110.539-90.018 122.775-152.005-7.004 88.782-8.311 177.095 29.151 265.878 10.511-76.912 16.128-153.981 53.642-230.894 50.549 106.429 119.733 150.825 204.075 144.599-59.313-51.795-112.344-110.295-149.265-190.081 62.853 60.299 133.529 77.278 207.571 81.629-49.598-35.058-95.025-69.866-118.46-118.883h171.381c13.837 56.592-8.778 110.405-35.085 167.48 55.092-36.274 102.016-80.701 123.61-155.093 7.043 77.872-7.662 147.129-30.316 213.395-0.002 0-0.002 0.002-0.003 0.002v0.007c0.002-0.003 0.002-0.007 0.003-0.008 35.631-17.211 61.138-44.014 76.706-80.402v459.19c-0.002 471.042-655.784 470.557-655.784 0z"/>
</svg>