<svg xmlns="http://www.w3.org/2000/svg" viewBox="0 -64 1024 1000" style="transform: scaleY(-1);">
<path fill="currentColor" d="M492.698 913.922c-23.32 0.409-45.988-8.509-61.802-30.319-58.433-80.569-78.823-157.055-88.625-222.731-9.011-60.369-26.968-119.247-61.802-173.754-63.483-99.331-131.498-249.083-146.933-334.679-11.71-64.671 35.756-83.971 65.304-13.994 40.42 95.723 130.768 251.127 243.719 207.571 102.333-39.453 17.819-243.931-44.313-304.36-50.141-48.768-14.381-102.766 47.809-44.313 65.987 62.023 156.944 184.213 188.914 293.865 12.445 42.687 31.529 87.409 68.803 108.45 79.494 44.882 163.384 117.788 195.91 265.878 21.766 99.099-100.87 140.619-170.255 74.632-10.586 100.629-92.82 124.48-152.765 71.134 20.109 55.174-32.664 101.718-83.963 102.621z"/>
</svg>