<svg xmlns="http://www.w3.org/2000/svg" viewBox="0 -64 1024 1000" style="transform: scaleY(-1);">
<path fill="currentColor" d="M43.217 26.287l325.213 382.263 128.439-140.99-410.838-288.27-42.814 46.997zM379.548 448.494l158.127-173.577 149.94 99.874-194.685 213.71-113.382-140.007zM951.884 857.4c-10.537-60.272-249.572-215.419-164.667-33.667-160.17-90.61-214.764-46.78-156.807 11.279-109.469-5.593-125.289-176.018-110.498-224.405l34.836-38.239c-4.27 62.334 0.809 96.782 38.937 142.754 27.484-41.159 36.919-67.318 103.945-13.94-18.754-106.867 109.033-37.402 177.202-21.808-30.446-28.051-70.208-65.361-77.64-110.777-2.479-15.146 12.417-35.79 28.226-51.167-18.855-4.464-82.852-17.797-77.037-52.361 5.813-34.564 24.265-23.716 7.016-30.494-24.766-5.523-42.268-11.162-79.082 4.347l37.693-41.376c56.688-29.531 147.585-14.61 166.932 29.681-29.506 2.439-54.157 9.343-65.888 23.034 87.902 16.653 133.275 78.38 171.249 149.843-67.166-37.836-84.128-35.541-111.766-32.603 70.91 28.68 93.575 217.526 77.351 289.899v0z"/>
</svg>