<svg xmlns="http://www.w3.org/2000/svg" viewBox="0 -64 1024 1000" style="transform: scaleY(-1);">
<path fill="currentColor" d="M865.896 630.868c-20.909 9.976-43.708 13.882-67.272 12.276 30.257 9.589 60.159 17.836 88.993 24.035 34.32 33.323 82.476 89.066 98.678 132.955-50.046 8.638-121.271-10.591-164.481-18.982-19.468-22.232-41.13-44.112-64.076-65.451 12.853 19.391 20.674 40.81 22.465 63.588 6.259 79.677-92.646 140.318-165.061 101.406 46.476-7.614 73.979-42.614 74.319-91.345 0.55-79.105-53.337-123.020-174.608-175.127l-0.002-0.003c65.030-0.533 123.258 13.33 168.526 37.238-51.527-41.762-104.69-80.248-151.402-113.627 52.642 22.944 112.678 49.14 174.189 72.712-43.112-27.272-83.996-70.626-115.897-126.943l0.005-0.002c105.763 78.97 170.737 103.68 238.968 63.652 42.032-24.66 58.59-65.977 41.947-110.034 69.904 43.259 66.839 159.233-5.29 193.651zM439.301 483.601l0.005 0.002c-31.899 56.312-72.779 99.664-115.889 126.938 61.507-23.572 121.542-49.767 174.182-72.711-46.715 33.381-99.878 71.869-151.407 113.631 45.266-23.908 103.498-37.771 168.527-37.24l-0.002 0.003c-121.271 52.109-175.157 96.022-174.608 175.127 0.339 48.731 27.845 83.731 74.319 91.345-72.415 38.912-171.32-21.731-165.061-101.406 1.791-22.779 9.612-44.199 22.465-63.59-22.944 21.339-44.607 43.218-64.074 65.451-43.208 8.391-114.436 27.62-164.481 18.982 16.2-43.887 64.357-99.634 98.678-132.955 28.831-6.197 58.727-14.445 88.981-24.031-23.56 1.605-46.356-2.302-67.262-12.276-72.129-34.417-75.196-150.393-5.29-193.651-16.643 44.055-0.085 85.375 41.947 110.034 68.232 40.028 133.207 15.318 238.97-63.652zM654.45 243.883c-68.782 39.076-79.87 107.7-64.36 238.779l-0.003 0.003c-32.82-55.785-49.924-112.869-51.987-163.84-10.34 65.057-17.674 130.148-24.123 187.208-5.553-57.145-12.301-122.427-22.703-187.932-1.929 51.155-19.038 108.514-52.014 164.565l-0.003-0.003c15.51-131.079 4.422-199.703-64.36-238.779-42.372-24.072-86.434-17.75-116.267 18.691 2.511-82.171 104.48-137.503 170.352-92.245 18.831 12.939 33.47 30.423 43.837 51.248-7.008-30.54-15.124-60.239-24.644-88.214 14.338-41.615 33.299-112.914 65.803-151.936 29.908 35.974 54.107 105.552 65.803 151.936-9.049 28.071-16.857 58.089-23.682 89.086 10.39-21.21 25.174-39.001 44.268-52.12 65.872-45.258 167.842 10.075 170.352 92.245-29.833-36.443-73.893-42.762-116.267-18.693z"/>
</svg>