<svg xmlns="http://www.w3.org/2000/svg" viewBox="0 -64 1024 1000" style="transform: scaleY(-1);">
<path fill="currentColor" d="M784.047 263.070h-3.186c25.78 19.787 41.433 45.88 41.433 74.525 0.002 59.27-66.986 108.041-152.155 112.184 57.095 191.229-269.843 134.558-216.121 269.99-116.632-42.24-130.633-153.446-102.502-234.912 9.881-12.694 37.292-25.274 62.609-34.788h-49.588c-90.682 0-164.565-50.495-164.565-112.476 0-14.204 3.891-27.778 10.963-40.272 9.605-11.189 40.765-23.642 73.366-34.251h-50.37c-107.164 0-194.473-63.782-194.473-142.064s87.312-141.507 194.473-141.507h550.115c107.164 0 193.711 63.226 193.711 141.507s-86.547 142.064-193.711 142.064zM111.631 291.238c117.952 224.061-62.426 222.325 9.254 371.49-174.778-154.948 49.862-129.308-9.254-371.49zM894.241 288.141c115.187 226.521-3.445 307.304-21.213 526.139-71.059-300.050 69.684-249.088 21.213-526.139zM276.574 504.081c-57.217 168.96 102.432 258.711-41.287 421.105 84.614-213.752-124.048-228.895 41.287-421.105z"/>
</svg>