<svg xmlns="http://www.w3.org/2000/svg" viewBox="0 -64 1024 1000" style="transform: scaleY(-1);">
<path fill="currentColor" d="M334.987 896.893l0.010 0.003h-0.010zM460.681 555.996l-0.008 0.007-0.002-0.003zM985.768 224.831c-280.107 110.627-224.991 246.194-525.086 331.166 80.305-55.679 127.791-109.962 150.857-159.863-163.295 63.366-328.422 67.987-457.334-17.603 84.396 204.013 346.219 281.749 451.444 235.051-3.276-9.401-7.23-18.524-11.802-27.262l306.652-61.508c4.161 10.786 7.99 21.609 11.546 32.461l0.631-0.241c20.213 34.55 16.949 64.146 0.149 95.581-2.337-23.433-12.029-43.813-29.467-67.12-51.922-5.813-99.333 30.743-106.586 82.807-7.377 52.946 29.564 101.845 82.508 109.221 16.559 2.307 32.716 0.272 47.333-5.229 14.455-32.489 20.366-57.628 16.025-84.122 20.276 21.646 31.151 44.493 28.144 73.793 2.153 26.061 3.57 52.201 4.537 78.389-297.892-44.249-317.946 133.005-620.322 56.544 114.541-9.488 188.785-45.642 232.162-92.705-47.999 10.24-98.81 14.032-150.571 11.64l-0.005-0.008c-130.688-6.030-265.811-51.706-371.998-132.94v-704.433h138.275c49.090 247.998 299.718 302.9 408.543 246.201-12.756-14.899-28.256-28.022-45.697-39.079l234.812-206.596c9.076 7.323 17.874 14.847 26.45 22.535l0.322-0.396c34.774 19.818 46.747 47.082 47.914 82.703-13.816-19.225-32.529-32.065-59.517-43.578-47.645 21.038-70.277 76.26-50.572 124.865 20.084 49.54 76.526 73.417 126.066 53.333 15.524-6.294 28.522-16.16 38.436-28.264-3.74-35.152-11.199-59.768-28.139-80.468 28.204 8.556 48.963 22.78 61.046 49.334 14.939 21.547 29.277 43.534 43.245 65.792zM653.279 819.465c17.223 2.399 33.13-9.619 35.531-26.841s-9.619-33.132-26.841-35.531c-0.845-0.117-1.684-0.174-2.521-0.222-0.957-0.057-1.908-0.062-2.851-0.033-0.070 0.002-0.142 0-0.214 0.003-0.899 0.035-1.787 0.115-2.669 0.224-0.115 0.015-0.232 0.023-0.347 0.040-0.842 0.114-1.672 0.269-2.494 0.449-0.152 0.033-0.304 0.062-0.456 0.099-0.783 0.184-1.555 0.404-2.317 0.646-0.185 0.058-0.371 0.115-0.553 0.177-0.723 0.244-1.433 0.52-2.133 0.814-0.214 0.090-0.426 0.18-0.638 0.276-0.662 0.296-1.31 0.616-1.948 0.956-0.237 0.127-0.473 0.257-0.707 0.389-0.598 0.339-1.184 0.695-1.757 1.071-0.257 0.169-0.509 0.344-0.762 0.521-0.533 0.373-1.057 0.757-1.567 1.161-0.272 0.215-0.536 0.441-0.8 0.667-0.469 0.398-0.93 0.803-1.376 1.229-0.279 0.267-0.545 0.545-0.814 0.822-0.406 0.418-0.81 0.839-1.193 1.278-0.277 0.319-0.538 0.653-0.803 0.984-0.346 0.431-0.692 0.862-1.016 1.311-0.267 0.374-0.515 0.765-0.767 1.151-0.287 0.439-0.58 0.874-0.844 1.328-0.251 0.429-0.473 0.877-0.703 1.321-0.231 0.443-0.471 0.877-0.682 1.333-0.226 0.488-0.416 0.997-0.616 1.5-0.175 0.436-0.366 0.865-0.521 1.311-0.199 0.57-0.354 1.161-0.521 1.746-0.115 0.406-0.252 0.8-0.352 1.213-0.194 0.8-0.336 1.622-0.468 2.449-0.033 0.212-0.089 0.414-0.119 0.626-0.005 0.042-0.007 0.082-0.012 0.124-0.105 0.778-0.157 1.552-0.205 2.324-0.025 0.479-0.048 0.959-0.057 1.437 0 0-0.002 0-0.002 0-0.247 15.669 11.197 29.432 27.115 31.649zM731.101 316.751c-6.533-16.115-24.897-23.884-41.010-17.35s-23.883 24.895-17.35 41.012c6.533 16.115 24.897 23.884 41.010 17.35s23.883-24.897 17.35-41.012z"/>
</svg>