<svg xmlns="http://www.w3.org/2000/svg" viewBox="0 -64 1024 1000" style="transform: scaleY(-1);">
<path fill="currentColor" d="M514.756 921.205c-255.455 0-462.803-207.347-462.803-462.803 0-111.284 39.383-213.194 104.922-292.951l-41.555-72.2h264.384l-132.45 229.062-44.672-77.913c-41.727 60.86-65.967 134.704-65.967 214.001 0 208.701 169.434 378.137 378.137 378.137s378.137-169.434 378.137-378.137c0-78.091-23.315-151.083-63.889-211.405l-43.629 75.315-132.455-229.062h264.386l-43.112 74.797c64.345 79.436 103.366 180.229 103.366 290.353 0 255.455-207.347 462.803-462.803 462.803l0.003 0.002zM522.917 770.293c-100.451 3.959-228.915-53.28-265.878-209.32l121.278-28.57c53.844 152.235 181.42 141.397 226.229 57.139 53.458-100.526-179.031-214.181-167.923-380.158h155.093c12.96 195.97 237.573 246.552 118.946 458.288-35.828 63.946-109.62 99.54-187.744 102.619v0.003h-0.002zM631.833 72.361c0-63.894-51.795-115.689-115.687-115.689s-115.687 51.795-115.687 115.689 51.795 115.689 115.687 115.689 115.687-51.795 115.687-115.689z"/>
</svg>