<svg xmlns="http://www.w3.org/2000/svg" viewBox="0 -64 1024 1000" style="transform: scaleY(-1);">
<path fill="currentColor" d="M391.998 681.295c-122.353 0-223.322-91.658-238.13-209.995h-121.876v-60.009h121.876c14.808-118.337 115.777-209.995 238.13-209.995h29.992c16.615 0 29.992 13.377 29.992 29.992v60.009h90.002v60.009h-90.002v180.003h90.002v60.009h-90.002v60.009c0 16.615-13.377 29.992-29.992 29.992l-29.992-0.025zM811.988 681.295c-16.615 0-29.992-13.377-29.992-29.992v-60.009h60.009v-60.009h-60.009v-180.003h60.009v-60.009h-60.009v-60.009c0-16.615 13.377-29.992 29.992-29.992h180.003v480l-180.003 0.025z"/>
</svg>