<svg xmlns="http://www.w3.org/2000/svg" viewBox="0 -64 1024 1000" style="transform: scaleY(-1);">
<path fill="currentColor" d="M787.327 784.285c-35.616 31.001-84.052 1.669-134.328-37.906-1.545 18.437-14.042 25.924-14.042 45.908 0 0 51.382 11.692 63.896 31.948 11.197 18.116 12.948 46.985 0 63.896-40.238 52.55-159.744 51.778-191.678 51.778-31.948 0-151.45 0.77-191.678-51.778-12.948-16.91-11.197-45.784 0-63.896 12.519-20.254 63.896-31.948 63.896-31.948 0-14.638-14.247-24.003-14.176-47.664-52.451 40.121-103.080 70.86-139.008 38.361-64.318-58.166 3.737-187.526 41.667-261.392-24.214-64.181-32.35-128.434-16.305-176.574 31.948-95.847 127.796-159.744 127.796-223.628 0-31.948-31.948-31.948-31.948-63.896s63.896-95.847 159.744-95.847c95.847 0 159.744 63.896 159.744 95.847 0 31.948-31.948 31.948-31.948 63.896 0 63.896 95.847 127.796 127.796 223.628 16.052 48.156 7.903 112.438-16.331 176.641 36.465 74.496 102.462 205.58 36.904 262.627zM383.365 696.439c-33.189-33.189-62.543-74.042-85.418-117.245-31.555 53.515-88.081 134.543-43.94 175.221 29.676 27.356 109.194-32.648 122.771-43.267 1.819-4.572 3.981-9.442 6.613-14.709h-0.027zM646.445 713.089c21.083 16.561 89.81 66.862 117.635 42.179 44.692-39.635-9.527-121.126-40.14-175.241-22.81 42.898-52.003 83.435-84.982 116.412 3.055 6.109 5.516 11.625 7.487 16.65z"/>
</svg>