<svg xmlns="http://www.w3.org/2000/svg" viewBox="0 -64 1024 1000" style="transform: scaleY(-1);">
<path fill="currentColor" d="M871.998 80.958v282.35c-59.997 56.468-120.006 112.947-120.006 169.415 0 112.947 59.997 282.35 240 338.829 0 0-59.997 56.468-120.006 56.468h-179.991c0-112.947-120.006-169.415-180.003-169.415s-180.003 56.468-180.003 169.415h-180.003c-59.997 0-120.006-56.468-120.006-56.468 180.003-56.468 240-225.882 240-338.829 0-56.468-59.997-112.947-120.006-169.415v-282.35c120.006-56.468 240-112.947 359.994-112.947 120.031 0.012 240.038 56.479 360.031 112.947z"/>
</svg>