<svg xmlns="http://www.w3.org/2000/svg" viewBox="0 -64 1024 1000" style="transform: scaleY(-1);">
<path fill="currentColor" d="M628.192 710.024c0-65.655 0-150.31 0-215.99h-232.404c0 65.655 0 150.31 0 215.99zM372.322 774.55h-40.307l30.268-49.216v-614.993c0-78.857 66.785-142.329 149.733-142.329s149.733 63.472 149.733 142.329v614.993l30.268 49.216h-40.307zM462.096 438.317c15.31 0 27.683-11.771 27.683-26.327s-12.373-26.403-27.683-26.403-27.758 11.821-27.758 26.403 12.423 26.327 27.758 26.327zM551.996 395.174c24.119 0 43.67-18.597 43.67-41.511s-19.551-41.511-43.67-41.511-43.67 18.597-43.67 41.511 19.551 41.511 43.67 41.511zM594.185 540.665c0.151-14.557-12.122-26.478-27.432-26.629s-27.858 11.52-28.009 26.076c0 0.176 0 0.376 0 0.552-0.151 14.557 12.122 26.478 27.432 26.629s27.858-11.52 28.009-26.076c0-0.201 0-0.376 0-0.552zM599.23 828.209c0.151-14.557-12.122-26.478-27.432-26.629s-27.858 11.52-28.009 26.076c0 0.176 0 0.376 0 0.552-0.151 14.557 12.122 26.478 27.432 26.629s27.858-11.52 28.009-26.076c0-0.176 0-0.376 0-0.552zM525.242 886.485c0-22.939-19.551-41.511-43.67-41.511s-43.67 18.597-43.67 41.511 19.551 41.511 43.67 41.511 43.67-18.572 43.67-41.511z"/>
</svg>