<svg xmlns="http://www.w3.org/2000/svg" viewBox="0 -64 1024 1000" style="transform: scaleY(-1);">
<path fill="currentColor" d="M946.473 93.034c83.905 70.4 28.448 249.021-81.436 362.277 105.377 100.644-17.919 178.699-144.194 209.365 54.939-43.339 43.265-97.123 64.297-145.73-34.671 20.271-71.885 33.127-110.024 35.284-143.383 11.344-135.405-93.876-2.8-139.628-63.349 22.662-67.26 135.079 32.808 103.908l-0.060 0.326c172.66-80.701 260.278-339.011 169.346-355.119-46.102-8.167-110.534 22.072-187.83 98.57 38.486 8.815 62.24 47.72 107.385 81.345-67.165 3.667-125.561 32.228-139.033-48.202-39.016 43.063-80.871 97.196-124.953 163.317-139.299 208.928-262.035 320.803-350.108 357.379 28.846 11.211 58.147 31.868 108.674 11.722-71.648 75.111-133.474 110.246-160.693 1.649-4.905 0.344-9.642 0.383-14.184 0.082h-0.003c-110.485-7.297-112.971-203.016 71.132-489.774-143.657 350.888-71.094 452.448 88.475 313.461-76.922-35.163-43.195-90.272-10.723-146.756-2.571 61.27 39.45 76.88 48.561 110.904 47.396-48.35 100.649-114.898 157.061-199.478 15.422-23.123 30.68-44.862 45.756-65.356-29.046-21.063-15.814-66.493-71.16-90.292 62.080-1.463 108.105 6.795 106.439 44.209 160.621-201.247 296.309-255.001 369.191-229.553-3.045-27.955 17.841-57.424-12.647-98.274 67.439 36.836 105.497 74.291 40.723 114.364z"/>
</svg>