<svg xmlns="http://www.w3.org/2000/svg" viewBox="0 -64 1024 1000" style="transform: scaleY(-1);">
<path fill="currentColor" d="M351.643 769.523c0 15.434-1.948 31.331-8.66 45.674-5.371 9.036-12.555 9.543-18.283 6.229-7.355-4.253-16.005-16.863-16.005-41.152 1.26-164.77-3.127-342.437-5.576-506.431h-161.869v495.688c0 44.405-18.392 82.546-75.576 82.77l-17.488 0.080c36.184 41.216 72.206 58.936 130.392 58.936 37.497 0 72.547-14.861 96.782-40.143l3.922 3.556 4.621 3.959c34.843 26.871 74.78 32.618 105.066 32.618 37.435 0 72.422-14.807 96.649-40.018l3.789 3.431 4.602 3.959c34.861 26.871 74.78 32.618 105.074 32.618 68.65 0 128.658-49.687 129.981-121.375 0.742-39.794 0.67-92.706 0.187-150.348 15.826 44.79 46.755 101.59 101.921 101.59 45.54 0 136.611-2.279 136.611-280.060 0-201.472-104.69-316.54-177.139-372.875 9.33-3.602 19.16-5.085 29.141-5.085 50.097 0 91.081 40.983 91.081 40.983v-56.935c0 0-17.077-55.782-142.304-55.782-37.318 0-67.738 6.014-92.591 16.64-77.157-24.593-170.383-38.266-170.383-38.266v61.483c0 0 47.899 2.412 106.424 27.346-38.14 51.877-46.032 126.219-49.785 195.208l-0.456 16.524v479.174c0 15.434-1.958 31.331-8.66 45.674-5.183 8.732-12.029 9.375-17.363 6.72-6.846-3.404-15.37-14.174-16.738-35.736 1.958-151.044-3.306-365.725-5.488-512.356h-161.867v495.698l-0.013 0.002zM727.189 481.070l-0.062-4.103-0.286-16.899c-1.224-73.235-2.537-140.732-3.209-186.236 0-44.861 3.951-79.804 10.805-106.792 49.651 57.757 87.64 144.217 87.64 273.582 0 367.674-92.055 130.33-94.888 40.447z"/>
</svg>