<svg xmlns="http://www.w3.org/2000/svg" viewBox="0 -64 1024 1000" style="transform: scaleY(-1);">
<path fill="currentColor" d="M578.906 284.155c-36.951 36.951-96.861 36.951-133.812 0s-36.951-96.861 0-133.812c36.951-36.951 96.861-36.951 133.812 0 36.951 36.953 36.951 96.861 0 133.812zM835.379 406.814l-94.783-94.783c-126.249 126.249-330.941 126.249-457.19 0l-94.783 94.783c178.597 178.599 468.158 178.599 646.755 0v0zM902.284 473.722c-215.548 215.548-565.021 215.548-780.569 0l-97.571 97.571c269.434 269.434 706.276 269.434 975.71 0l-97.571-97.571z"/>
</svg>