<svg xmlns="http://www.w3.org/2000/svg" viewBox="0 -64 1024 1000" style="transform: scaleY(-1);">
<path fill="currentColor" d="M275.932 882.423c-141.172-81.076-236.731-232.488-236.731-406.969 0-175.418 96.622-327.393 239.043-408.123-94.749 93.217-156.249 240.695-156.249 408.123-0.002 166.242 60.312 313.595 153.937 406.969zM750.552 877.739c91.002-93.562 149.257-238.759 149.257-402.315 0-163.994-59.003-308.785-150.443-402.315 137.144 82.105 229.738 230.863 229.738 402.315s-91.908 320.118-228.552 402.315zM254.923 475.424c0 132.524 55.475 248.47 137.612 309.036-122.658-49.137-209.915-168.8-209.915-309.036 0-140.58 87.88-260.116 211.071-309.036-82.575 60.409-138.768 176.105-138.768 309.036zM849.639 475.424c0.030 125.561-69.961 234.765-172.577 291.551 70.242-63.809 115.446-170.861 115.446-291.551 0-122.066-46.142-229.145-117.788-292.707 103.835 56.414 174.919 166.209 174.919 292.707zM357.413 475.394c0 89.003 36.837 165.865 89.597 203.547-85.164-28.627-146.011-108.736-146.011-203.547 0-95.653 61.876-176.699 148.226-204.641-54.006 37.058-91.813 114.354-91.813 204.641zM602.981 672.291c47.608-39.774 78.547-113.293 78.547-196.897 0-84.883-31.936-158.655-80.762-198.021 76.705 32.873 130.526 109.266 130.526 198.021-0.002 87.849-52.824 163.491-128.311 196.897zM523.154 538.018c-40.552 0-73.396-32.873-73.396-73.394 0-30.924 19.125-57.346 46.174-68.157v-425.6h54.414v425.586c27.075 10.808 46.204 37.253 46.204 68.17 0 40.521-32.873 73.362-73.396 73.394z"/>
</svg>