<svg xmlns="http://www.w3.org/2000/svg" viewBox="0 -64 1024 1000" style="transform: scaleY(-1);">
<path fill="currentColor" d="M682.981 667.452c-73.556 41.216-168.111 52.506-243.228 36.978l-81.628 177.862c-17.796-28.049-31.243-57.506-39.757-88.717l-0.438 60.1c-25.132-63.62-38.991-141.255-21.773-212.893-75.365 15.945-151.839 20.049-229.802 8.252 68.043-20.31 105.36-47.513 153.122-93.304-53.569-19.486-120.354-60.406-185.611-140.235 70.825 17.68 129.495 22.902 178.625 12.6-73.771-44.854-127.983-112.117-176.457-227.896 71.687 34.423 129.585 37.591 205.558 37.703-46.057-65.391-70.434-154.323-72.515-225.328 48.983 51.933 115.047 120.092 174.083 157.638 5.994-59.701 30.003-116.402 71.769-170.146-0.484 95.578 24.608 192.654 75.502 291.234l4.569 2.272 1.533 1.333c59.708 24.651 121.246 38.065 182.741 41.616l-29.081 20.637c68.591 14.169 144.115 24.412 236.337 28.398 15.238 25.699 27.509 48.412 37.647 69.447l-12.577 48.746-48.753-61.505-15.734 54.86-44.857-58.274-15.026 52.11-47.635-62.805-15.32 56.32-47.634-62.803 2.442 82.144 45.024 85.119 15.32-56.313 47.634 62.793 15.323-56.308 46.807 59.89 13.075-53.724 48.753 61.498 15.734-54.855 49.162 63.861c4.542 21.509 9.173 44.859 14.712 71.366-110.861 7.347-212.33-9.587-307.648-19.668z"/>
</svg>