<svg xmlns="http://www.w3.org/2000/svg" viewBox="0 -64 1024 1000" style="transform: scaleY(-1);">
<path fill="currentColor" d="M640.67 603.15l-0.022-0.013 0.015 0.003zM648.882 924.99c0.058-0.070 0.114-0.142 0.17-0.212l-69.736-64.753 73.688 7.494-30.742-60.142 75.971 32.098c52.214-139.708 1.239-308.067-104.956-331.985-14.847 57.436-83.649 82.035-70.546 131.009 4.398-3.191 9.437-5.655 14.999-7.145 4.343-1.164 8.707-1.649 12.985-1.542l-0.788-0.89 45.816-53.24 44.904 27.454c-15.445-3.881-57.247 10.006-62.736 36.518 7.452 5.885 13.14 14.134 15.788 24.013 0.246 0.919 0.453 1.838 0.64 2.756l20.622-40.761 10.424 33.84c15.225-11.137 24.903-27.179 22.937-42.216l33.294 58.707-144.043 59.018-115.927 95.905 34.148-62.397-96.258 39.438 70.162-62.367c-81.070-56.23-44.095-169.809-3.576-238.196-114.815 19.337-205.924 154.621-191.216 289.595l98.256 42.661-62.056 10.263 58.318 66.729-63.926-23.046c0.074 0.134 0.14 0.269 0.215 0.403-336.174-132.443-232.45-732.805-127.252-834.618-8.565 59.389-10.729 97.527-3.82 114.113 6.376-41.89 14.807-81.825 25.381-118.31l5.335 120c10.883-7.606 24.561-20.729 41.393-39.45-9.622 26.656-13.549 52.921-12.955 76.439 40.502-83.196 134.47-138.25 208.936-124.42 44.814 8.324 83.467 25.418 115.43 48.87l14.59-30.78c-40.070-10.055-45.537-65.163-29.424-110.046 3.49 39.7 22.685 59.491 43.389 64.5-13.17-31.682-9.376-61.146-6.219-88.173 20.266 24.252 42.866 47.512 47.178 78.579 17.445-14.638 24.591-42.911 2.382-77.984 52.555 30.897 63.027 83.854 15.923 115.184l-64.029 68.476c11.819 11.089 22.446 23.169 31.844 36.081l78.434-31.5c-7.876-27.336 11.643-62.923 39.472-86.48-16.080 34.519-9.635 60.060 5.117 74.084 3.254-34.721 21.245-58.293 37.405-80.001 5.447 31.281 13.559 62.888-0.428 91.829 21.998-3.115 42.338-23.098 40.613-63.652 28.702 50.585 12.184 99.333-41.541 102.889l-141.908 19.74c25.471 45.891 37.288 99.487 33.967 154.704 28.333 69.29 99.953 23.58 108.868-98.169 54.761 160.426 133.95 77.102 117.464-48.95 18.537 36.704 34.878 58.919 48.806 67.936l38.077-152.726c0.824 46.429-1.706 96.010-7.133 146.826 14.202-19.6 22.635-65.977 24.578-134.906 87.010 229.974-1.694 715.517-306.702 770.903zM377.261 167.244c-55.157-14.541-139.226 22.762-167.964 107.161 24.518 42.084 74.603 43.89 125.473-45.119-38.17 126.179 105.928 184.387 126.632 92.616-0.002-71.678-19.060-137.5-84.14-154.657zM589.976-27.415c0.028 0.045 0.053 0.090 0.082 0.135-0.017-0.010-0.033-0.020-0.050-0.030l-0.032-0.105z"/>
</svg>