<svg xmlns="http://www.w3.org/2000/svg" viewBox="0 -64 1024 1000" style="transform: scaleY(-1);">
<path fill="currentColor" d="M836.968 327.119c-10.041 4.297-31.777-7.131-57.498-26.575l-147.463 147.463 147.474 147.474c25.715-19.439 47.447-30.864 57.486-26.567 35.708 15.303 173.402 336.64 152.998 357.046-20.405 20.423-341.742-117.29-357.045-152.998-4.302-10.038 7.118-31.766 26.554-57.476l-147.474-147.473-147.473 147.473c19.436 25.712 30.856 47.439 26.554 57.476-15.303 35.708-336.638 173.421-357.043 152.998-20.405-20.406 117.29-341.742 152.998-357.046 10.039-4.297 31.771 7.128 57.486 26.567l147.474-147.474-147.463-147.463c-25.72 19.444-47.457 30.872-57.498 26.575-35.709-15.303-173.402-336.64-152.998-357.045 20.405-20.425 341.742 117.288 357.045 152.998 4.302 10.036-7.114 31.759-26.545 57.464l147.463 147.464 147.464-147.464c-19.429-25.705-30.845-47.429-26.545-57.464 15.303-35.709 336.64-173.422 357.045-152.998 20.406 20.405-117.288 341.742-152.996 357.045z"/>
</svg>