<svg xmlns="http://www.w3.org/2000/svg" viewBox="0 -64 1024 1000" style="transform: scaleY(-1);">
<path fill="currentColor" d="M220.74 118.93l155.752-88.959c83.647 41.459 162.769 100.486 234.591 169.784-39.341 104.727-134.089 208.41-260.995 316.261 129.782-47.862 267.573-144.566 340.284-232.371 18.734 21.668 36.792 43.942 54.105 66.654-16.526 63.603-140.644 185.21-254.294 252.203 133.524-25.298 267.429-94.559 315.639-165.265 25.6 39.251 48.916 79.132 69.645 118.866-62.999 100.030-156.652 186.455-323.863 264.957 158.638-30.593 284.709-93.76 369.004-169.064 9.107 21.725 17.345 43.207 24.646 64.312l0.017 0.008c-213.172 138.432-446.832 208.173-725.632 201.193-23.786-54.092-44.709-113.091-61.609-174.757 121.343 4.195 250.905-11.054 370.895-48.003-68.129 57.812-170.904 102.271-294.64 137.127-0.149-0.007-0.297-0.008-0.446-0.015l0.023 0.137c0.142-0.040 0.282-0.080 0.424-0.12 212.766 9.555 423.136-127.44 506.249-241.031-110.402 37.696-344.208 82.212-525 85.754 129.141-37.425 268.377-121.726 337.223-194.196-121.027 62.578-294.678 128.618-420.36 147.859-5.205-28.548-9.482-57.357-12.699-86.245 196.57-33.782 335.282-178.455 417.328-320.139-164.231 160.091-299.497 217.404-423.263 244.793-1.119-24.436-1.428-48.796-0.854-72.968 150.764-27.496 310.439-126.672 391.221-231.234-75.263 6.969-114.875 7.671-167.463 0 29.706-30.683 43.658-61.368 53.976-93.381-55.022 46.025-146.514 89.893-207.202 116.678 45.96 25.099 117.7 20.918 167.351 25.099-55.466 53.37-151.179 93.181-232.283 100.16 14.281-125.384 55.45-241.464 133.137-330.224 14.899 3.864 29.704 8.341 44.405 13.396l-75.315 122.733z"/>
</svg>