<svg xmlns="http://www.w3.org/2000/svg" viewBox="0 -64 1024 1000" style="transform: scaleY(-1);">
<path fill="currentColor" d="M922.766 916.807c-181.303-124.721-570.632 7.17-724.738-119.329-150.47-123.523-157.467-410.245 29.439-480.497l3.468 3.792c73.962 54.185 175.061 67.962 265.403 42.878 20.066 106.123-50.508 232.792-213.107 241.631 82.244 25.318 155.914 12.233 213.886-22.956 56.24 36.939 130.928 44.47 196.628 23.651 27.229 49.294 10.968 123.842-69.632 149.873 23.059 0.935 43.499-3.1 61.148-10.753 48.405 45.991 145.938 41.165 173.94-40.726-41.61 50.376-100.947 41.62-130.088 8.747 32.857-37.293 42.975-92.269 26.25-137.35 48.419-33.814 83.592-88.024 88.333-161.987-57.327 126.049-184.554 139.613-262.219 87.103 40.756-60.989 57.514-137.122 40.826-206.816 48.81-45.692 82.54-110.336 87.864-193.409-78.547 172.702-254.226 189.111-358.681 114.614l-1.933 0.264c218.219-388.111 804.45-187.602 573.214 701.27zM159.356-18.896c48.552 142.769 120.453 252.039 230.211 331.991-156.74-31.366-256.262-139.872-347.594-261.905 16.392-46.299 52.448-72.756 117.382-70.086zM497.896 539.918c23.375-44.157 68.005-143.99 11.825-223.324-126.918 45.716-280.847-22.221-356.462-138.532l124.193 27.596c89.076 114.91 224.492 91.413 285.604 75.48 24.289 76.546 24.095 168.004-25.896 226.967 48.485 50.253 134.635 66.852 196.097 39.174-78.303 49.232-162.679 43.621-235.36-7.38v0.018h-0.002z"/>
</svg>